<svg xmlns="http://www.w3.org/2000/svg" viewBox="0 0 490 520"><path d="M18 103.71c.33-.08.64-.2 1-.31z" fill="#fff"/><path d="M2.63 480.31c.59-1.27.41-2.77.48-4.15a13.18 13.18 0 0 0-.42-4.47.71.71 0 0 0-1.36 0 13.19 13.19 0 0 0-.43 4.47c0 1.38-.13 2.87.46 4.15a.74.74 0 0 0 1.27 0zM5.91 493.4c-.29-1-1.14-1.74-1.4-2.85a36.42 36.42 0 0 0-1.09-4.5c-.22-.59-1.21-.74-1.36 0a9.64 9.64 0 0 0 .63 5.8c.47 1.14 1.25 2.7 2.71 2.46a.75.75 0 0 0 .51-.91zM20.07 495.3c-1.35-.72-3.23-.6-4.73-.8a23.64 23.64 0 0 0-4.9-.22c-.62.05-1.06 1-.35 1.32a13.68 13.68 0 0 0 4.64 1.09c1.57.1 3.68.54 5.16 0a.75.75 0 0 0 .18-1.35zM470.45 494.49c-1.15-.95-3.65-.52-5-.56a21.24 21.24 0 0 0-5.74.42.71.71 0 0 0 0 1.36 21.64 21.64 0 0 0 5.74.41c1.4-.05 3.88.39 5-.58a.76.76 0 0 0 0-1.05zM485.58 485.32c-.57.82-.46 2.14-.61 3.09a5 5 0 0 1-1.49 3.3c-1.9 1.67-4.62 1.88-7 2.3-.86.15-.54 1.3.19 1.39 3.21.38 6.18.16 8.55-2.29a6.45 6.45 0 0 0 1.67-3.66c.21-1.22.6-3 0-4.13a.75.75 0 0 0-1.28 0zM485.71 75.17c-.48 1.24-.19 6.74.18 8a.72.72 0 0 0 1.37 0c.36-1.21.65-6.71.17-8a.9.9 0 0 0-1.72 0zM482 59.36c1.39 1.52 2.63 2.24 3.21 4.38.45 1.7.52 3.55.81 5.29.11.69 1.21.65 1.36 0 .85-3.7 0-10.45-4.85-10.93-.68-.07-.92.83-.53 1.26zM465 58.52c1.44.83 9.76.78 12 .42.71-.11.65-1.21 0-1.36-2.23-.54-10.53-1.1-12-.34a.74.74 0 0 0 0 1.28zM162.91 58c1.38 1.12 4.66.52 6.31.57a33.15 33.15 0 0 0 7-.41.72.72 0 0 0 0-1.37 33.84 33.84 0 0 0-7-.42c-1.66 0-4.93-.55-6.31.58a.74.74 0 0 0 0 1zM142.12 58c1.12 1.1 10 .59 12.12.16a.71.71 0 0 0 0-1.36c-2.14-.43-11-.94-12.12.16a.75.75 0 0 0 0 1zM120.84 58.12c1.63 1.09 12.31.45 14.88 0a.71.71 0 0 0 0-1.36c-2.57-.41-13.25-1-14.88 0a.75.75 0 0 0 0 1.28zM100.9 58c1.21 1.11 10.33.59 12.54.16a.71.71 0 0 0 0-1.36c-2.21-.43-11.32-.95-12.54.16a.75.75 0 0 0 0 1zM84.2 57.85c.88 1.18 8.78.76 10.71.31a.71.71 0 0 0 0-1.36c-1.93-.45-9.83-.87-10.71.3a.72.72 0 0 0 0 .75zM67 58c.73.87 9.09.59 11 .16a.71.71 0 0 0 0-1.36c-1.95-.43-10.31-.72-11 .16a.76.76 0 0 0 0 1zM49.81 58c.73.86 9 .58 11 .15a.7.7 0 0 0 0-1.35c-1.94-.43-10.26-.71-11 .16a.75.75 0 0 0 0 1zM32.86 58c.74.87 9.14.59 11.09.16a.72.72 0 0 0 0-1.37c-2-.43-10.35-.71-11.09.16a.78.78 0 0 0 0 1zM14.21 58.26c2.45.53 5.15.27 7.65.31a33.66 33.66 0 0 0 5.77-.41.72.72 0 0 0 0-1.37 28.53 28.53 0 0 0-5.77-.5c-2.49 0-5.24-.14-7.65.55a.74.74 0 0 0 0 1.42zM331.7 58c1.38 1.12 4.66.52 6.31.57a33.15 33.15 0 0 0 7-.41.72.72 0 0 0 0-1.37 33.84 33.84 0 0 0-7-.42c-1.66 0-4.93-.55-6.31.58a.74.74 0 0 0 0 1zM309.91 58c1.34 1.11 10.81.58 13.13.15a.71.71 0 0 0 0-1.36c-2.32-.42-11.78-1-13.13.16a.74.74 0 0 0 0 1zM288 58c1.21 1.11 10.32.59 12.53.16a.71.71 0 0 0 0-1.36c-2.21-.43-11.32-.95-12.53.16a.73.73 0 0 0 0 1zM269.69 58c.74.87 9.1.59 11 .16a.71.71 0 0 0 0-1.36c-1.94-.43-10.3-.71-11 .16a.77.77 0 0 0 0 1zM253 57.85c.88 1.18 8.78.76 10.71.31a.71.71 0 0 0 0-1.36c-1.93-.45-9.83-.87-10.71.3a.72.72 0 0 0 0 .75zM235.82 58c.73.87 9.09.59 11 .16a.71.71 0 0 0 0-1.36c-2-.43-10.31-.72-11 .16a.76.76 0 0 0 0 1zM442.85 58c1.35 1.12 10.81.59 13.13.16a.71.71 0 0 0 0-1.36c-2.32-.42-11.78-1-13.13.16a.74.74 0 0 0 0 1zM421.08 58c1.22 1.11 10.32.59 12.54.16a.71.71 0 0 0 0-1.36c-2.22-.43-11.32-.95-12.54.16a.75.75 0 0 0 0 1zM401.85 58c1.21 1.11 10.32.59 12.54.16a.71.71 0 0 0 0-1.36c-2.22-.43-11.32-.95-12.54.16a.73.73 0 0 0 0 1zM379.81 58.12c1.34 1 11.54.45 13.94 0a.71.71 0 0 0 0-1.36c-2.4-.41-12.6-.95-13.94 0a.76.76 0 0 0 0 1.28zM354 58.12c2 1.13 6 .42 8.21.47a54.65 54.65 0 0 0 8.68-.43.71.71 0 0 0 0-1.36 53.49 53.49 0 0 0-8.68-.43c-2.24 0-6.18-.67-8.21.47a.75.75 0 0 0 0 1.28zM218.6 58c.73.86 9.05.58 11 .15a.7.7 0 0 0 0-1.35c-1.94-.43-10.26-.71-11 .16a.75.75 0 0 0 0 1zM201.65 58c.74.87 9.14.59 11.09.16a.72.72 0 0 0 0-1.37c-2-.43-10.35-.71-11.09.16a.78.78 0 0 0 0 1zM183 58.26c2.44.53 5.14.27 7.64.31a33.66 33.66 0 0 0 5.77-.41.72.72 0 0 0 0-1.37 28.53 28.53 0 0 0-5.77-.5c-2.49 0-5.24-.14-7.64.55a.74.74 0 0 0 0 1.42zM328.33 495.28c-1.37-1.12-4.65-.53-6.31-.58a33.74 33.74 0 0 0-7 .42.71.71 0 0 0 0 1.36 32.41 32.41 0 0 0 7 .42c1.67 0 4.93.55 6.31-.57a.74.74 0 0 0 0-1.05zM349.13 495.28c-1.12-1.09-10-.59-12.13-.16a.72.72 0 0 0 0 1.37c2.14.42 11 .93 12.13-.16a.76.76 0 0 0 0-1.05zM370.41 495.16c-1.63-1.09-12.32-.44-14.88 0a.72.72 0 0 0 0 1.37c2.56.4 13.24 1.05 14.88-.05a.75.75 0 0 0 0-1.28zM390.34 495.28c-1.21-1.1-10.32-.58-12.53-.16a.72.72 0 0 0 0 1.37c2.21.42 11.32.95 12.53-.16a.74.74 0 0 0 0-1.05zM407 495.43c-.87-1.17-8.78-.75-10.7-.31a.72.72 0 0 0 0 1.37c1.92.45 9.83.87 10.7-.31a.72.72 0 0 0 0-.75zM424.22 495.29c-.74-.87-9.1-.59-11-.16a.71.71 0 0 0 0 1.36c1.94.43 10.3.71 11-.16a.77.77 0 0 0 0-1zM440.05 495.43c0-.05 0 0 .06.14a.87.87 0 0 0-.62-.62c-1.46-.49-3.46-.23-5-.28a13.51 13.51 0 0 0-4.06.46.71.71 0 0 0 0 1.36 13.84 13.84 0 0 0 4.06.45c1.52 0 3.52.21 5-.27a.9.9 0 0 0 .62-.63c-.05.37 0-.44-.06-.61zM454.57 495.11c0-.31-.36-.52-.62-.62-1.38-.48-7.34-.19-8.66.18a.71.71 0 0 0 0 1.36c1.32.37 7.27.66 8.66.18.26-.1.58-.31.62-.62a1.3 1.3 0 0 0 0-.44zM159.54 495.28c-1.37-1.12-4.65-.53-6.31-.58a33.74 33.74 0 0 0-7 .42.71.71 0 0 0 0 1.36 32.41 32.41 0 0 0 7 .42c1.67 0 4.93.55 6.31-.57a.74.74 0 0 0 0-1.05zM181.33 495.28c-1.34-1.12-10.8-.58-13.12-.16a.71.71 0 0 0 0 1.36c2.32.43 11.78 1 13.12-.15a.74.74 0 0 0 0-1.05zM203.27 495.28c-1.21-1.1-10.32-.58-12.53-.16a.72.72 0 0 0 0 1.37c2.21.42 11.31.94 12.53-.16a.76.76 0 0 0 0-1.05zM221.55 495.28c-.73-.87-9.09-.58-11-.15a.7.7 0 0 0 0 1.35c2 .43 10.31.72 11-.15a.76.76 0 0 0 0-1.05zM238.25 495.43c-.87-1.17-8.78-.75-10.7-.31a.72.72 0 0 0 0 1.37c1.92.45 9.82.87 10.7-.31a.72.72 0 0 0 0-.75zM255.42 495.29c-.73-.87-9.09-.59-11-.16a.71.71 0 0 0 0 1.36c1.94.43 10.3.71 11-.16a.75.75 0 0 0 0-1zM53 495.28c-.66-.86-3.82-.53-5.14-.57a21 21 0 0 0-5.6.41.72.72 0 0 0 0 1.37 21 21 0 0 0 5.6.41c1.32 0 4.47.29 5.14-.57a.77.77 0 0 0 0-1.05zM35.12 495c-1.33-.49-3.24-.24-4.64-.28a11.77 11.77 0 0 0-3.78.45.72.72 0 0 0 0 1.37 12 12 0 0 0 3.78.45c1.4 0 3.31.2 4.64-.28a.9.9 0 0 0 0-1.71zM71.89 495.28c-1.21-1.1-10.32-.58-12.53-.16a.72.72 0 0 0 0 1.37c2.21.42 11.31.94 12.53-.16a.74.74 0 0 0 0-1.05zM89.39 495.28c-1.21-1.1-10.32-.58-12.53-.16a.72.72 0 0 0 0 1.37c2.21.42 11.32.95 12.53-.16a.74.74 0 0 0 0-1.05zM111.44 495.17c-1.35-1-11.54-.45-13.94-.05a.72.72 0 0 0 0 1.37c2.4.4 12.59.94 13.94 0a.76.76 0 0 0 0-1.28zM137.24 495.17c-2-1.14-6-.43-8.21-.48a54.58 54.58 0 0 0-8.67.43.72.72 0 0 0 0 1.37 54.58 54.58 0 0 0 8.67.43c2.24-.05 6.18.66 8.21-.47a.75.75 0 0 0 0-1.28zM272.65 495.29c-.73-.87-9.06-.59-11-.16a.7.7 0 0 0 0 1.35c1.93.43 10.26.71 11-.15a.77.77 0 0 0 0-1zM289.59 495.29c-.73-.88-9.14-.59-11.09-.16a.71.71 0 0 0 0 1.36c2 .43 10.35.72 11.09-.16a.75.75 0 0 0 0-1zM308.24 495c-2.44-.53-5.15-.27-7.65-.3a32.81 32.81 0 0 0-5.77.41.71.71 0 0 0 0 1.36 28 28 0 0 0 5.77.5c2.5 0 5.24.14 7.65-.54a.75.75 0 0 0 0-1.43zM2.71 69.47c.51-1.77.1-3.6.42-5.39.53-2.94 3.14-4.45 5.73-5.39.71-.26.67-1.44-.18-1.4-3.17.16-5.94 1.46-7.16 4.57a13.51 13.51 0 0 0-.24 7.61.75.75 0 0 0 1.43 0zM487.44 102.17c.83-1.45.78-9.76.42-12-.11-.7-1.21-.64-1.36 0-.54 2.24-1.1 10.53-.34 12a.75.75 0 0 0 1.28 0zM486.93 404.26c1.12-1.38.52-4.66.57-6.32a33.06 33.06 0 0 0-.41-7 .72.72 0 0 0-1.37 0 33.1 33.1 0 0 0-.41 7c0 1.67-.56 4.93.57 6.32a.76.76 0 0 0 1.05 0zM486.92 425.05c1.1-1.12.59-10 .16-12.13a.71.71 0 0 0-1.36 0c-.43 2.14-.94 11 .16 12.13a.75.75 0 0 0 1 0zM487 446.33c1.09-1.63.45-12.32 0-14.88a.71.71 0 0 0-1.36 0c-.41 2.56-1.05 13.25 0 14.88a.75.75 0 0 0 1.28 0zM486.92 466.26c1.11-1.21.59-10.32.16-12.53a.71.71 0 0 0-1.36 0c-.43 2.21-1 11.32.16 12.53a.73.73 0 0 0 1 0zM487.26 480.43c.47-1.18.23-3 .27-4.23a9.51 9.51 0 0 0-.45-3.44.71.71 0 0 0-1.36 0 9.74 9.74 0 0 0-.46 3.44c0 1.25-.19 3.05.28 4.23a.9.9 0 0 0 1.72 0zM486.93 235.46c1.12-1.37.52-4.65.57-6.31a33.06 33.06 0 0 0-.41-7 .72.72 0 0 0-1.37 0 33.06 33.06 0 0 0-.41 7c0 1.67-.56 4.93.57 6.31a.74.74 0 0 0 1.05 0zM486.93 257.25c1.11-1.34.58-10.8.15-13.12a.71.71 0 0 0-1.36 0c-.42 2.32-1 11.78.16 13.12a.74.74 0 0 0 1.05 0zM486.92 279.19c1.11-1.21.59-10.32.16-12.53a.71.71 0 0 0-1.36 0c-.43 2.21-1 11.31.16 12.53a.75.75 0 0 0 1 0zM486.92 297.47c.87-.73.59-9.09.16-11a.71.71 0 0 0-1.36 0c-.43 1.95-.71 10.31.16 11a.75.75 0 0 0 1 0zM486.77 314.17c1.18-.87.76-8.78.31-10.7a.71.71 0 0 0-1.36 0c-.45 1.92-.87 9.83.3 10.7a.72.72 0 0 0 .75 0zM486.92 331.35c.87-.74.59-9.1.16-11a.71.71 0 0 0-1.36 0c-.43 1.94-.72 10.3.16 11a.77.77 0 0 0 1 0zM486.93 124.31c1.11-1.34.58-10.8.15-13.12a.71.71 0 0 0-1.36 0c-.42 2.32-1 11.78.16 13.12a.74.74 0 0 0 1.05 0zM486.92 146.08c1.11-1.21.59-10.32.16-12.53a.71.71 0 0 0-1.36 0c-.43 2.21-1 11.32.16 12.53a.73.73 0 0 0 1 0zM486.92 165.32c1.11-1.21.59-10.33.16-12.54a.71.71 0 0 0-1.36 0c-.43 2.21-1 11.32.16 12.54a.75.75 0 0 0 1 0zM487 187.36c1-1.35.45-11.54 0-13.94a.71.71 0 0 0-1.36 0c-.41 2.4-1 12.59 0 13.94a.76.76 0 0 0 1.28 0zM487 213.17c1.13-2 .42-6 .47-8.22a54.58 54.58 0 0 0-.43-8.67.71.71 0 0 0-1.36 0 53.43 53.43 0 0 0-.43 8.67c0 2.24-.67 6.18.47 8.22a.75.75 0 0 0 1.28 0zM486.92 348.57c.86-.73.58-9.06.15-11a.7.7 0 0 0-1.35 0c-.43 1.93-.71 10.26.16 11a.77.77 0 0 0 1 0zM486.92 365.51c.87-.73.59-9.13.16-11.09a.72.72 0 0 0-1.37 0c-.43 2-.71 10.36.16 11.09a.76.76 0 0 0 1.05 0zM487.18 384.16c.53-2.44.27-5.15.31-7.65a33.8 33.8 0 0 0-.41-5.77.72.72 0 0 0-1.37 0 28.66 28.66 0 0 0-.5 5.77c0 2.5-.14 5.25.55 7.65a.74.74 0 0 0 1.42 0zM.94 75.17c-.47 1.24-.19 6.74.18 8a.72.72 0 0 0 1.37 0c.37-1.21.65-6.71.17-8a.9.9 0 0 0-1.72 0zM2.67 102.17c.83-1.45.78-9.76.43-12-.11-.7-1.21-.64-1.37 0-.54 2.24-1.1 10.53-.34 12a.75.75 0 0 0 1.28 0zM2.16 404.26c1.12-1.38.53-4.66.57-6.32a33.06 33.06 0 0 0-.41-7A.72.72 0 0 0 1 391a33.1 33.1 0 0 0-.41 7c0 1.67-.55 4.93.57 6.32a.76.76 0 0 0 1.05 0zM2.16 425.05c1.09-1.12.58-10 .16-12.13a.72.72 0 0 0-1.37 0c-.43 2.14-.94 11 .16 12.13a.76.76 0 0 0 1.05 0zM2.27 446.33c1.09-1.63.45-12.32 0-14.88a.72.72 0 0 0-1.37 0c-.4 2.56-1 13.25 0 14.88a.75.75 0 0 0 1.28 0zM2.16 466.26c1.1-1.21.58-10.32.15-12.53a.71.71 0 0 0-1.36 0c-.43 2.21-.95 11.32.16 12.53a.74.74 0 0 0 1.05 0zM2.16 235.46c1.12-1.37.53-4.65.57-6.31a33.06 33.06 0 0 0-.41-7 .72.72 0 0 0-1.37 0 33.06 33.06 0 0 0-.41 7c0 1.67-.55 4.93.57 6.31a.74.74 0 0 0 1.05 0zM2.16 257.26c1.11-1.35.58-10.81.16-13.13a.72.72 0 0 0-1.37 0c-.42 2.32-1 11.78.16 13.13a.76.76 0 0 0 1.05 0zM2.16 279.19c1.1-1.21.58-10.32.16-12.53a.72.72 0 0 0-1.37 0c-.42 2.21-.95 11.34.16 12.53a.74.74 0 0 0 1.05 0zM2.15 297.47c.87-.73.59-9.09.16-11a.71.71 0 0 0-1.36 0c-.43 1.95-.71 10.31.16 11a.75.75 0 0 0 1 0zM2 314.17c1.18-.87.76-8.78.31-10.7a.71.71 0 0 0-1.36 0c-.45 1.92-.87 9.83.31 10.7a.7.7 0 0 0 .74 0zM2.15 331.35c.87-.74.59-9.1.16-11a.71.71 0 0 0-1.36 0c-.43 1.94-.71 10.3.16 11a.77.77 0 0 0 1 0zM2.16 124.31c1.11-1.34.58-10.8.16-13.12a.72.72 0 0 0-1.37 0c-.42 2.32-1 11.78.16 13.12a.74.74 0 0 0 1.05 0zM2.16 146.08c1.1-1.21.58-10.32.16-12.53a.72.72 0 0 0-1.37 0c-.42 2.21-.95 11.32.16 12.53a.74.74 0 0 0 1.05 0zM2.16 165.32c1.1-1.21.58-10.33.15-12.54a.71.71 0 0 0-1.36 0C.52 155 0 164.1 1.11 165.32a.76.76 0 0 0 1.05 0zM2.27 187.36c1-1.35.45-11.54 0-13.94a.71.71 0 0 0-1.36 0C.54 175.82 0 186 1 187.36a.76.76 0 0 0 1.28 0zM2.27 213.17c1.14-2 .42-6 .47-8.22a54.58 54.58 0 0 0-.43-8.67.71.71 0 0 0-1.36 0A54.58 54.58 0 0 0 .52 205c0 2.24-.67 6.18.47 8.22a.75.75 0 0 0 1.28 0zM2.15 348.57c.87-.73.58-9.06.16-11a.71.71 0 0 0-1.36 0c-.42 1.93-.71 10.26.16 11a.77.77 0 0 0 1 0zM2.15 365.51c.88-.73.59-9.13.16-11.09a.71.71 0 0 0-1.36 0c-.44 2-.72 10.36.15 11.09a.76.76 0 0 0 1 0zM2.42 384.16c.53-2.44.27-5.15.3-7.65a33.8 33.8 0 0 0-.41-5.77.71.71 0 0 0-1.36 0 28 28 0 0 0-.51 5.77c0 2.5-.13 5.25.55 7.65a.75.75 0 0 0 1.43 0z" fill="#919191"/><path d="M475.42 70c-46.05-1.87-81.49-15.06-124.28.79C272.3 67.23 86.75 71.91 65.8 67.5c-23.16-8.28-67.92-4.77-57.43 62.07-3.27 11.29-1 114.85-.53 146.35.45 30.69.41 61.38.86 92.07.36 24.64 1.38 51.35-2.18 72.53-1.77 10.57-2.08 44.54 4.85 45.53 26.18 3.75 166.77 3.89 175.45.06 12.68 4.93 171.59 5.68 209.36 2.82 1.91-.14 3.67 1.09 5.3-.95 20.43 2.6 41.36-.38 61.79 2.21 8.58 1.09 13.28-17.94 15.18-34.53C485 399.1 477.37 343 476.75 286c-.65-58.14 5.99-215.69-1.33-216zM17.53 140.86a10.9 10.9 0 0 0 1-.6v.07z" fill="#fff"/><path d="M190.2 66.77c-1.16 26.56-.83 53.24-.95 79.82q-.25 52.73-.16 105.41.07 96.37.53 192.76c0 13.23.21 27.83.28 40.44a1.28 1.28 0 0 0 2.55 0c-.22-37.71-.31-75.42-.46-113.13q-.41-106.43-.31-212.83c.07-30.82.71-61.67.47-92.49a1 1 0 0 0-2 0zM289.76 67.5c-.51 26.7 0 53.45 0 80.16q0 52.89-.1 105.78-.15 95.91-.46 191.83v40a1.28 1.28 0 0 0 2.55 0c.11-37 .27-76 .34-113.7q.21-106.11.17-212.22c0-30.58.5-61.24-.49-91.8a1 1 0 0 0-1.95 0z" fill="#1e1e1e"/><path d="M475.42 183.27c-15-.37-30-.52-45-.66q-22-.2-44-.21-32.49 0-65 .08-54.47.15-108.92.39l-175 .72-27.27.12a1.26 1.26 0 0 0 0 2.51q92.37-.3 184.74-.8 57.93-.25 115.86-.46 34.58-.12 69.16-.15 22.71 0 45.42.14c14.56.08 29.13.35 43.7.27h6.37a1 1 0 0 0 0-1.92zM477 379.94c-15.54-.23-31.07-.22-46.6-.24q-55.66-.07-111.34-.06l-134.6-.05H29.63c-5.81 0-12.39-.86-18.15 0a7.3 7.3 0 0 1-.81 0 1.25 1.25 0 0 0 0 2.5h408.89c12.82 0 25.65 0 38.48-.05 5.7 0 12.51.93 18.14-.16a4.49 4.49 0 0 1 .82 0 1 1 0 0 0 0-1.92z" fill="#1e1e1e"/><path d="M478.61 468.57c.12-4.19-.08-61.76-.1-86.34 0-36.25-.3-295.31-.25-298.92.07-4.88 1.41-11.67-3.23-15.07-3-2.22-8.18-1.67-11.71-1.84-4.36-.21-8.73-.38-13.11-.41-15.86-.09-392.78 0-411 .13-1 0-14.49-.27-20.12.39-4.48.52-8.15 2.25-9.06 7a.81.81 0 0 0 0 .27c-.51 5.65-.91 382-.89 393.6 0 4.38-.32 9 .59 13.29 1 4.73 3.32 5.39 7.93 6.17a89.83 89.83 0 0 0 16 1.26c1.83 0 410.67-.85 428.79-1.3 4.59-.11 12.36.4 14.8-4.64 1.83-3.71 1.24-9.59 1.36-13.59zm-2.25 0c-.17 6.05.15 14.62-7.49 15.63-8.56 1.14-17.64.64-26.26.66-17.6 0-330.23.74-356.38.81l-38.49.11c-4.24 0-8.48 0-12.72.05a93.06 93.06 0 0 1-16.16-1.07c-3.92-.65-6.41-1.23-7.07-5.57a51.86 51.86 0 0 1-.37-7.68v-50.48c0-25.41-.44-342 0-347a.33.33 0 0 1 0-.06c1.82-9 18.46-6.06 25.29-6h4.79c7.5.03 77.36.03 104.8.03l288.18.07c5.22 0 23.59.18 27.54.35 2.56.12 5.12.22 7.67.47 5.24.49 6.74 4.37 6.64 9.48 0 1.79-.14 35.16-.13 50.06 0 31.42.14 267.34.15 298.42 0 13.88.39 27.81.01 41.68zM343.59 28c-.82-2.07-3.94-3-6-2.4-2.35.68-3.28 2.84-3.56 5.11a6.14 6.14 0 0 0 3.17 6.23c2.56 1.17 5.26-.29 7.12-2 .93-.86-.43-2.19-1.38-1.38-1.32 1.14-3 2.33-4.85 1.61s-2.6-3-2.32-4.85 1.23-3.32 3.13-3.5c1.79-.15 2.75 1.07 4.3 1.53.21.06.48-.16.39-.39z" fill="#1e1e1e"/><path d="M343.09 25.6a51.59 51.59 0 0 0-.41 8.06c0 1.28.2 3-.23 4.28-1.11 3.23-5 2.4-7.08 1.16a1 1 0 0 0-1.24 1.6c2.61 2.46 7.74 1.86 9.78-1.13 1.07-1.58.9-3.54.87-5.35a56.3 56.3 0 0 0-.33-8.62.71.71 0 0 0-1.36 0zM349.11 25.33c-1.07 1.17-.68 2.85-.71 4.36 0 2.25-.09 4.5-.2 6.75-.07 1.28 1.94 1.28 2 0 .1-2.26.17-4.49.1-6.75 0-1.51.27-3.26-.89-4.36a.21.21 0 0 0-.3 0z" fill="#1e1e1e"/><path d="M350.14 29.45a11.23 11.23 0 0 1 2.19-1.45c.75-.37 1.94-.42 2.3-1.26a1.1 1.1 0 0 0-.38-1.45l-.14-.1a1.22 1.22 0 0 0-1.25 0c-1.09.59-4.61 2.57-3.52 4.19a.52.52 0 0 0 .8.1zM357.84 27l.11-.07-1-.27c.31.59-.13 3.66-.14 4.66 0 1.83-.05 3.67 0 5.5a1 1 0 0 0 1.9 0v-7.47c0-1 .44-3.09-.69-3.71a.75.75 0 0 0-1 .27l-.06.12a.71.71 0 0 0 1 1zM357.9 22.41a.84.84 0 0 0-.26-1.51c-.92-.27-1.57.92-1.07 1.65a1 1 0 0 0 1.08.44h.07a.92.92 0 0 0 .4-1.52.88.88 0 0 0-.33-.24l.34.33c.06.2.08.21.05 0v-.18l-.7.91c-.14-.08-.16-.07 0 0a.41.41 0 0 0 .49.06zM371.2 20.73c-1.45 5-1.16 11-.59 16.06.12 1.14 1.9 1.19 1.83 0-.33-5.34.26-10.56.17-15.87a.72.72 0 0 0-1.41-.19z" fill="#1e1e1e"/><path d="M371.67 28.54c.1-2.38-3.65-3.91-5.64-3.58a5.61 5.61 0 0 0-4.42 5.66c0 2.38 1.21 5 3.5 6s5.6-.08 6.26-2.55c.23-.87-1.13-1.53-1.52-.64a3.26 3.26 0 0 1-4.54 1.34 4.9 4.9 0 0 1-1.89-4.58c.21-1.95 1.67-3.71 3.8-3.46 1.31.15 2.92 1.33 4 2.13.21.16.49-.06.49-.28zM391.45 27.05c-.66-.74-.57-1.3-1.68-1.57a8.6 8.6 0 0 0-3.39 0 5.06 5.06 0 0 0-4.18 4.84c-.34 4.61 4.74 9.89 8.95 5.86.81-.76-.4-2-1.21-1.21-3.38 3.08-6.64-2.48-5.71-5.47.6-2 2.35-2.32 4.14-2.35 1.18 0 1.64.45 2.65.66a.44.44 0 0 0 .43-.73zM404.85 28.15c-.21-2.88-5.1-3-7.07-2.17-2.56 1.11-3.85 5.28-2.78 7.77 1.21 2.81 5.74 4.5 8.29 2.62a6.45 6.45 0 0 0 1.35-8.51c-.55-.89-2-.07-1.4.82a4.61 4.61 0 0 1-.21 5.54c-1.79 2-6.13.67-6.35-2.11-.14-1.82.81-4.11 2.67-4.56s3.27.19 4.87 1a.42.42 0 0 0 .63-.37zM409.55 25.9a15.33 15.33 0 0 0-.69 5.27 18.86 18.86 0 0 0 .3 5.36c.21.76 1.55.88 1.67 0a35.52 35.52 0 0 0 0-5.36 24.39 24.39 0 0 0-.23-5.27c-.13-.57-.86-.45-1 0z" fill="#1e1e1e"/><path d="M410.39 29.06c1.84-1 5.78-4.22 6.5-.34a30.13 30.13 0 0 1 0 6.91c-.07 1.31 2.11 1.3 2 0-.16-2.14-.09-4.3-.28-6.44a4.6 4.6 0 0 0-1.51-3.33c-2.34-1.84-6.05.45-7.33 2.58a.46.46 0 0 0 .62.62zM423.5 23a52.92 52.92 0 0 0-.13 6.9c0 1.68-.29 3.76.4 5.36.8 1.84 3.24 2.37 4.34.55.55-.91-.76-2-1.5-1.15-1.06 1.17-1.22-2.59-1.22-2.79 0-1.15 0-2.3-.05-3.45a44.05 44.05 0 0 0-.29-5.63c-.14-1-1.46-.59-1.55.21z" fill="#1e1e1e"/><path d="M421.46 26.68v.12a.79.79 0 0 0 .55.54 8.55 8.55 0 0 0 4.73-.19c.9-.35.9-2-.25-1.85s-2.28.37-3.45.45c-.47 0-1.88.05-1.61.93zM431 27.76c.93-.2 1.73-.74 2.65-1 2.12-.5 3.24.73 3.52 2.64.33 2.27.32 4.62.49 6.9.09 1.2 2 1.23 1.89 0-.11-2.05-.23-4.12-.41-6.17a6.94 6.94 0 0 0-1.26-4c-1.91-2.26-5.7-1.42-7.5.54a.64.64 0 0 0 .62 1.06z" fill="#1e1e1e"/><path d="M438.56 31.69c-2.53-2.42-9.26-2.53-8.51 2.41a3.7 3.7 0 0 0 3.63 3 6.1 6.1 0 0 0 5.26-2.89.77.77 0 0 0-1-1c-1.07.62-2 1.63-3.19 1.93-1 .24-2.51 0-2.73-1.23-.57-3.15 4.63-1.72 6.07-1.27a.53.53 0 0 0 .51-.88zM442.94 26.2a31.11 31.11 0 0 0-.06 5.46c.08 1.47 0 3 .68 4.33a.69.69 0 0 0 1.24-.16c.4-1.44 0-3.06-.12-4.53-.12-1.7-.14-3.41-.35-5.1a.7.7 0 0 0-1.39 0zM444.51 21.18a1.09 1.09 0 0 0-1-.08l.92 1.57a1.13 1.13 0 0 0 .31-.4.9.9 0 0 0-1-1.3 1.46 1.46 0 0 0-.65.37c-.68.59 0 1.94.92 1.58a1.28 1.28 0 0 0 .86-.83.82.82 0 0 0-.37-.91zM448.9 25.86a35.21 35.21 0 0 0-.19 5.81c0 1.33-.42 3.62.3 4.78.53.85 2.11.3 1.7-.71-.55-1.31-.13-3.75-.18-5.2a29.3 29.3 0 0 0-.33-4.68c-.13-.63-1.2-.65-1.3 0z" fill="#1e1e1e"/><path d="M449.66 29.32c1.64-.57 5.79-4.53 6.69-1 .62 2.39.36 5.54.24 8-.07 1.33 2.13 1.32 2.06 0-.14-2.48-.15-5-.38-7.43-.14-1.42-.41-3-1.77-3.78-2.4-1.35-6.36 1.86-6.91 4.16a.05.05 0 0 0 .07.07zM462.29 31.59c1.72 1.12 5 .33 7 .14 1.06-.1 3.49.15 3.84-1.27.31-1.25-1.37-3.37-2.19-4.19a4.63 4.63 0 0 0-4.5-1 5.84 5.84 0 0 0-4 7.92c1.58 3.4 6.48 4.42 9.39 2.16.61-.48-.08-1.34-.7-1.2-2.44.52-5.34 1.35-6.93-1.33a4.11 4.11 0 0 1 4-5.95c1 .16 2.73 1.43 2.78 2.61 0 .48.57.21-.64.35l-1.78.2c-1.87.19-4.7-.2-6.25.93a.35.35 0 0 0 0 .59zM476 26.37a35.88 35.88 0 0 0 .3 10.14c.19 1 1.58.68 1.63-.22.07-1.64-.18-3.32-.27-5s-.1-3.32-.31-5a.68.68 0 0 0-1.35 0z" fill="#1e1e1e"/><path d="M477.18 29.38c.9.09 1.6-1 2.3-1.46a5 5 0 0 1 1.35-.55c.54-.13 1.08-.06 1.54-.41a.79.79 0 0 0 0-1.35c-1.13-.86-3.34.24-4.33 1a3.64 3.64 0 0 0-1.39 1.57c-.16.48-.07 1.17.53 1.23z" fill="#1e1e1e"/><path d="M191.13 79.7c.21-4.35-5.27.19-5.4 3-.31 6.49 1.29 93.62-1 95.52-3.42 3.05-144.74 2.32-159.55.94-2.89-.27-5.89 6.56-2.58 6.87 14 1.29 124.92.38 139.13.31 7.42 0 19.52 1.73 25.27-3.05 8.4-5.88 3.74-95.36 4.13-103.59z" opacity=".2"/><path d="M186 173.58c-.19 2.55-.75 4.57-2.87 5.87-.53.32-157.31.15-160.91 0-1.55-.08-6.06 0-7.05-3.25-1-1.26-.41-99.75.51-101.23 1.66-2.7 5.75-3.08 8.83-3.19 3.68-.13 150.11-2 158.27.3 2.4 2 3.68 7.62 3.78 10.82s-.42 88.1-.56 90.68z" fill="#f78100" opacity=".85"/><path d="M181.38 72.32c-3.86-1.58-158-.29-160.08.56-4.13 1.69-4.78 5.8-5.16 9.77-1.22 13.08-1.7 81.46-1.48 94.59.07 4.41 5.45-.14 5.4-3-.18-10.87.71-94 1.78-95.17s28.84-1.23 39.49-1.29c25.69-.14 97.65.73 100.61.69 4.78 0 11.18-1.5 15.69.34 2.91 1.19 6.48-5.38 3.75-6.49z" fill="#fff" opacity=".2"/><path d="M186.62 165.75c.13-6.06.47-67.39.49-73.45 0-3.72-.07-16.14-1.07-18.23-1.52-3.19-5.78-3.18-8.87-3.5-10.59-1.1-97.2-.44-129.64-.36-3.81 0-19.2.17-23.07.41-3.44.22-8.34.27-9.73 3.94-2 5.23-1.22 12.44-1.25 17.93 0 4-.32 77 .2 81.85.41 3.92 1.38 5.47 5.44 6 10.65 1.32 66.14.49 82.94.42 16.29-.06 71.73-.25 75.74-.44 1.79-.08 4.85.37 6.43-.55 4.05-2.38 2.41-10.28 2.42-13.84a.66.66 0 0 0-.03-.18zm-4.33 12.41c-2.32.91-6.53.35-9 .38-2.74 0-5.47 0-8.21-.06-3.19 0-104.29.6-130.6.39-1.32 0-2.62-.06-3.93-.13-3.39-.16-6.82-.16-10.2-.48-4.52-.41-4.6-3.21-4.71-7.24-.2-7.71.23-83.57.33-86.09.12-3.09-.74-9.4 2.5-11.06 4.44-2.27 12.23-1.28 17.08-1.36 2.64 0 67.85-.13 97.82-.21 7.71 0 15.48-.35 23.19-.12 4.13.12 8.22.08 12.36 0s12.06-.91 14.82 2.43c2.06 2.47 1.73 15.48 1.74 18.14 0 3.24-.24 70.34-.3 73a.66.66 0 0 0 0 .15c-.18 3.51 1.33 10.62-2.89 12.26z" fill="#f78100"/><path d="M291.69 160.53c.12-9-.89-73.14-.53-82.21.18-4.37-5.29.18-5.4 3-.32 7.73 2.07 94.41-2 96.24-2.81 1.27-56.64.87-80.09.9-2.92 0-5.78 6.87-2.58 6.87 24.61 0 49.43.87 74-.38 5.25-.26 10.54-.26 13.73-5.1 3.53-5.34 2.79-13.27 2.87-19.32z" opacity=".2"/><path d="M196.69 72.92c3-2.45 84.82-3.14 87.87-.12 2.26 3.71 1.94 102.3 1 103.78-3.34 4.47-81.81 3.19-88.48.9-3.31-1.93-3.37-102.11-.39-104.56z" fill="#f78100" opacity=".85"/><path d="M284.35 73.61c-9.72-4.34-84-2.08-86.74.58-5 4.86-3.87 92.21-.93 100.52 1.53 4.34 7.37-2.18 6.24-5.37-2.63-7.44-2.48-70.33-2.22-78.11.08-2.24.17-4.48.17-6.72a38.29 38.29 0 0 1-.3-4.5c.23.17 16.87-.89 24.36-1 8.61-.12 17.22-.14 25.84-.11 9.39 0 20.42-1.37 29.08 2.5 3.43 1.54 7.77-6.33 4.5-7.79z" fill="#fff" opacity=".2"/><path d="M287.1 81.25c-.23-3.53.23-9-3.87-10-5-1.25-10.79-.78-15.87-.85-7.3-.11-14.62 0-21.92 0h-29.29c-4.9 0-9.79.42-14.66.88-1.32.12-3.58-.05-4.8.66-2.52 1.48-2 4.92-2 7.35v.14c-.67 9.85-.43 75.05-.77 84.92-.12 3.58-.83 12.33 2.88 14.44 1.82 1 5 .86 7 1a71.62 71.62 0 0 0 8.91.16c17.46-.91 34.95.53 52.39-.1 5.7-.21 11.41-.11 17.1-.38 5-.24 5.08-3.71 5.13-8.1.09-11.59.55-78.56-.23-90.12zm-1.69 79.09c-.13 3.41-.34 6.83-.37 10.25 0 3.18.56 6-3.34 6.61-5.19.75-46.33 0-61.45.09-4.72 0-9.39.58-14.13.38-2.3-.1-7.35.38-8.85-1.41-2.2-2.63-1.51-9.66-1.45-12.87.2-9.56-.23-74.43.27-84a.66.66 0 0 0 0-.15c.11-1.55.13-4.94 1.58-5.75a8.29 8.29 0 0 1 2.42-.26c2.78-.27 13.84-.89 16.58-.89 7.59 0 51.92.12 54 .17 2.68.07 5.35.12 8 .3 3.26.21 5.07-.15 5.73 3.25 1.08 5.53.37 11.14.66 16.71.21 4.13.51 63.46.35 67.57z" fill="#f78100"/><path d="M291.89 196.36c-.05-4.4-5.44.15-5.41 3 .31 23.34.41 168.36 0 170.38-.41 2.37-6.46 5.82-5.77 5.77-2.67.39-65.5-.23-74.91-.19-2.93 0-5.79 6.87-2.58 6.86 22.39-.1 72.69.05 75.27-.33a15.92 15.92 0 0 0 13.35-14.2c1.16-13.34.21-159 .05-171.29z" opacity=".2"/><path d="M196.31 190.38c1.84-1.09 85.43-3.6 89.19 1.68 2.17 2.47 1.59 178.85 0 181.67-2.41 3.85-83.29 2.17-86.77 1.2-1.27-.35-2.21-2.1-3.22-3-2.38-1.93-2.24-180.32.8-181.55z" fill="#f78100" opacity=".85"/><path d="M283.61 191.36c-15.52-.21-76.74-2.1-83.08-.21-2.77.82-5.4 3.9-4.48 6.79a13.47 13.47 0 0 0-1.44 3.05c-.91 2.8 0 162.64 1.54 169.52.8 3.63 5.8-1.74 5.21-4.47-2.66-12.17-1.64-146-1.73-152.88-.06-4.59-.74-13.65 3.43-15.26s32.73 0 38.48 0c13.16.1 26.32.15 39.49.33 2.97.04 5.8-6.82 2.58-6.87z" fill="#fff" opacity=".2"/><path d="M287.66 237.92c-.14-11.42-.51-22.87-.24-34.29.08-3.29 1.09-8.29-.4-11.31-1.2-2.45-4.67-3.15-7.16-3.5-5.43-.79-11.3-.14-16.84-.14-14.34 0-54.38 0-60.06.23-2 .08-6.31-.63-7.78 1.13-1.73 2.07-1.24 10.76-1.23 10.82-.64 10.85-.85 149.64-.52 161.11.1 3.52-.38 7.79 1.24 11 1.38 2.76 3.57 2.84 6.39 3.17 5.06.57 64.05.87 68.41.7 4.16-.15 10.56.88 14.48-1 3.18-1.54 3.82-5.42 4.05-8.64.83-11.54-.19-117.71-.34-129.28zm-1.88 127.93c-.13 3.41-.49 7.37-4.55 8.33-2.56.6-75.89.15-79.07-.16-2.69-.27-4.68 0-5.82-3-.92-2.42-.58-5.56-.65-8.1-.35-11.62-1-151.09-.32-162.1v-.13c.25-2.54-.06-8.29 1.9-9.62 1.79-1.22 7.67-.33 10-.4 4.23-.13 56.26 0 59.94.08 3.23 0 6.48-.16 9.71 0 2.43.1 6.89.23 8.26 2.89.92 1.78.23 6.09.18 8-.21 9.78.57 160.22.42 164.21z" fill="#f78100"/><path d="M478.24 78.66c-.24-4.43-5.57.12-5.41 3 .35 6.32-.16 81.4-.19 85 0 2.85.24 9.77-2.58 11-1.72.74-148.26.49-161.76.66-2.92 0-5.77 6.9-2.58 6.86 26.85-.34 129.61 1 154-.84 4.84-.36 10.44-.13 14.32-3.62 5.75-5.15 4.71-92.72 4.2-102.06z" opacity=".2"/><path d="M297.28 72.36c4-1.56 173.13-2.58 174.31.29 1 1.26 1.94 101.69 1 103.17-1.67 2.7-6.25 2.08-9.34 2.19-3.68.13-163.53 2-166.24-.3-2.36-2.02-3.52-102.31.27-105.35z" fill="#f78100" opacity=".85"/><path d="M466.66 72.14C453.41 71.78 353.73 74 331 73.69c-3.37 0-20.46-2.23-24.83-.77a2.17 2.17 0 0 0-.36-.12c-8.25-1.85-8.18 12.79-8.56 17.39-.8 9.38-2.78 77 1.36 85.79 1.3 2.77 5.9-3 4.65-5.67-2.47-5.25-1.46-68.56-1.21-74.2.14-3 1.13-14.47 1.15-14.7a6.55 6.55 0 0 0 3.24-2.71c3.35-.39 13.22 1.57 14.2 1.63 3.34.19 30.31.23 40.46.09 20.59-.26 89.31-1.79 103-1.42 2.9.08 5.8-6.77 2.56-6.86z" fill="#fff" opacity=".2"/><path d="M472.84 72.72c-1.4-2.66-5.28-2.45-7.9-2.53-28.3-.89-118.28 0-134.89 0h-16.46c-3.63.09-7.28.43-10.9.71-1.61.13-4 0-5.46.75-4.55 2.45-2.6 11.75-2.61 15.58a.66.66 0 0 0 0 .15c-.21 8.25-.44 71.68-.22 79.94.07 2.9-.68 9.37 2.37 11.18s9.82 1 13.38 1c11.51 0 23 .14 34.55.13q50.17 0 100.35-.16c2.9 0 5.8 0 8.71-.07 5-.13 11.06.74 16-.34 3.73-.81 3.86-4.82 4-8 .43-9-.15-73.11-.1-82.11.06-4.58 1.41-11.95-.82-16.23zm-1.3 98.37c-.18 3.22-.16 5.48-3.81 5.84-2.7.28-5.52.11-8.23.16-3.82.07-7.64.17-11.46.17q-45.29.08-90.56.19c-10.61 0-21.27.4-31.87.16-7.86-.18-15.74.31-23.6-.17-2.92-.18-4.68.16-5.42-3.05-.8-3.4-.51-7.3-.64-10.77-.14-4-.15-63.19-.07-67.18.06-3 .11-6 .19-9v-.15c.14-3.71-1-9.52 1.31-12.69 1.59-2.19 5.06-1.73 7.72-1.89 3.63-.23 7.25-.5 10.89-.5h52.03c30.51 0 61-.07 91.55.07 2.52 0 8.18-.65 10.24.59 3.59 2.15 1.57 14.11 1.62 17.72 0 3.41.3 62.09.45 65.5.26 5-.08 10.03-.34 15z" fill="#f78100"/><path d="M477.45 195.8c-.16-4.42-5.51.13-5.41 3 .41 11.49.41 171.82.1 172.58-1.51 3.7-7.14 3.51-10.36 3.72-15.9 1-137.22.87-153.92.57-2.92-.05-5.81 6.81-2.58 6.87 35.47.63 149 .12 158.2-1 17.88-.68 14.28-13.65 14.48-18.32.39-9.48.04-152.48-.51-167.42z" opacity=".2"/><path d="M296.52 189.9c2.93-1.28 173.65-1.79 175.29.32 1 1.26 1.39 181.64.48 183.12-1.67 2.7-16.65 2.36-20.33 2.49 0 0-153.6.18-154.62-.68-.27-.23-2.25-4-2.25-4s-.46-180.1 1.43-181.25z" fill="#f78100" opacity=".85"/><path d="M467.35 190.7c-14.26-.95-132.72 1.14-147.52.68-5.27-.16-12.16-2.38-17.26-.55-3.66 1.31-4.72 4.78-5.24 8.25-2 13.3-1.67 164.11-.64 171.69.6 4.42 5.8-.12 5.41-3-2.07-15.24-.14-169.91.49-171.48 0 1 13.23 1.93 15.73 2 33.32.68 66.73-.74 100.06-1.08 15.42-.15 31-.65 46.39.37 2.91.17 5.86-6.67 2.58-6.88z" fill="#fff" opacity=".2"/><path d="M474 353.35c0-2.59-.06-5.18-.1-7.77-.14-11.1-.27-116.22-.41-127.32-.1-8.59 1-17.74-.13-26.21-.7-5.37-5-3.88-9.57-4-3.63-.09-7.27-.24-10.9-.28-14.81-.14-29.63.11-44.43.17l-67.3.26-21.56.09h-4.17c-2.55 0-5.11-.07-7.66 0-3 .07-7.76-.42-10.67.59-4.55 1.56-2.65 12.51-2.66 16a.76.76 0 0 0 0 .16c-.13 17.25-.4 128.51-.6 145.76 0 4 .1 8.09.18 12.13s-1.32 11.37 3.59 13.07c4.72 1.64 11 1.19 15.89 1.07 3.85-.1 7.66 0 11.49.11 36.83.94 73.81-.11 110.65-.19h25.32c3.19 0 10 .46 12-2.89 1.37-2.36.6-6.41.69-9 .1-3.94.35-7.85.35-11.75zm-2.24 0c0 3.14-.21 6.29-.31 9.42-.09 2.63.87 9.3-1.35 10.86-2 1.4-6.22 1-8.56 1.07-2.8.07-5.59 0-8.38 0H442.8q-55.73.09-111.44.23c-4.33 0-8.66-.21-13-.17a154.54 154.54 0 0 1-16.53-.25c-1.08-.1-3 0-4-.57-2.21-1.33-1.8-5.13-1.81-7.26 0-4.27-.27-8.52-.33-12.79-.26-16.44.1-126.92.15-143.37V205a.74.74 0 0 0 0-.14c.09-2.55-.13-5.13.07-7.68.08-.95.21-5.09 1-5.95 1.58-1.76 8.64-1 10.8-1 3-.05 6 .05 8.95.06h15.87l60.34-.17 53.63-.17c4 0 8 0 12.05.14 3.34.09 6.71 0 10 .27 2 .14 2-.25 2.58 1.74.44 1.43.2 3.47.2 4.95 0 4.21-.21 8.42-.19 12.63.17 16.5.76 127.08.61 143.63z" fill="#f78100"/><path d="M190.66 195.93c0-4.4-5.44.15-5.4 3 .15 11.46.35 158.81.29 161.76-.08 3.75 1.15 10.12-2.29 12.38-4.81 3.17-139.17 2.46-156.32 2-2.94-.07-5.82 6.81-2.58 6.93 35.55.92 152.08-.3 157.68-2.07 11.83-3.75 8.73-13.49 8.92-22.19.16-7.8-.1-146.99-.3-161.81z" opacity=".2"/><path d="M13.91 198.37c.19-2.55 4.35-7.87 6.94-8.06 1.28-.36 161.42-1.88 163.77 1.59 2.35 6.91 1.46 176.39.55 177.87-1.67 2.7-4.28 5.09-7.37 5.2-3.68.13-154.83 1-155.85.17-5.34-1.58-7.5-8.1-7.6-11.3s-.63-162.92-.44-165.47z" fill="#f78100" opacity=".85"/><path d="M181.4 191.37c-30.25-1.28-131.41-.89-151.67-.43-4.67.1-15.86-2.66-15.07 12-.34 7.24-1.29 149.31.54 165.76.49 4.43 5.73-.12 5.41-3-1.5-13.42-.55-167.76-.48-168.36.46.46 3.21.53 3.05.51 2.47.38 77.38-1.22 112.19-.64 14.47.24 29 .37 43.45 1 2.91.14 5.84-6.71 2.58-6.84z" fill="#fff" opacity=".2"/><path d="M186.73 245.88c0-10.5 0-38.31.05-41.71s.86-9.15-1-12.32c-2.33-4-12.5-2.61-16.09-2.77-1.61-.08-34.76 0-49.75 0l-81.1.34c-6.61 0-14.58-1.55-20.6 1-6.37 2.73-5 10-5.05 15.54a.74.74 0 0 0 0 .17c0 16-.15 146.19-.13 148.2.05 5.41-1.34 15.15 3.5 19.15 6 4.95 15.75 2.43 22.7 2.67 2.1.08 4.12.45 6.22.48 35.06.33 114.55-.16 119.22-.22s9.85.12 14.57-.64c7.42-1.19 7.45-6.77 7.68-13.07.31-7.59-.23-109.15-.22-116.82zm-1.93 115.26c-.07 1.81 0 3.75-.2 5.55-.6 4.39-2.59 6.65-6.94 7.07-4.08.39-8.3.39-12.4.45-3.09.05-6.18 0-9.27 0q-51.46.09-102.93.22c-3.07 0-6.21.22-9.27 0a67.78 67.78 0 0 0-10-.19c-5.15.4-13 .88-16.42-3.48s-2.32-12-2.4-17.35c-.23-16.2-.2-126.42-.3-142.61v-4.66a.7.7 0 0 0 0-.14c.2-5.54-.93-12.82 6.11-14.25 4.42-.89 9.27-.37 13.76-.34h17.6l55.07-.16 50.28-.17c3.13 0 6.27-.09 9.4 0s6.25.29 9.37.44c4.43.2 7.7-.41 8.18 4.88.3 3.26.18 6.55.17 9.82-.07 15.84-.83 125.87-.15 141.68.22 4.48.54 8.69.34 13.24z" fill="#f78100"/><path d="M191.27 392.35c-.57-4.42-5.78.11-5.41 3 .28 2.19.31 78.3-.64 83.09a21 21 0 0 1-4.76 3.17c-3.83 1.58-142.38 1.17-152 1-2.92-.05-5.81 6.81-2.58 6.86 28.36.51 141.34-.76 148.79-1.44 3.51-.32 8.13-.2 11-2.59a16.57 16.57 0 0 0 4.53-6.9c1.33-4.78 1.38-83.75 1.07-86.19z" opacity=".2"/><path d="M14.21 393.25c.19-2.56 3.13-6.51 5.25-7.81 2.62-.54 155.55.28 159.15.45 1.56.08 5.91 3.68 6.92 4.94s.54 86.38-.37 87.86c-1.67 2.7-5.26 3.09-8.34 3.19-3.68.13-152.84 1.32-156.33.36-1.27-.35-6.25-7.28-6.35-10.48s-.14-75.96.07-78.51z" fill="#f78100" opacity=".85"/><path d="M181.79 386c-12.38-.75-56.15 1.47-65.69 1.47-17.57 0-76.3-.48-88-1.74-3.63-.39-7.28-1.68-10 1.35s-3.4 7.63-3.14 11.52c0 .55-.21 69.3.23 77.45.23 4.43 5.56-.12 5.4-3-.52-9.8-.95-71.38.9-81.06.77.1 6.67.87 9 1.07 5.22.44 27.36 1.15 33.2 1.2 7 .06 58.77.14 77.64 0 12.68-.11 25.31-2.16 38-1.39 2.8.2 5.74-6.64 2.46-6.87z" fill="#fff" opacity=".2"/><path d="M187.27 460.15c-.07-4.94.31-61.72-.27-66.63-.42-3.54-.73-6.12-4.21-7.52-4.67-1.87-10.44-1.59-15.37-1.7-24.81-.53-49.68 0-74.49 0H35.85c-5.78 0-14-1.74-19 1.66-4.68 3.19-3.45 10.11-3.55 14.89a.58.58 0 0 0 0 .19v61.5c0 4.44-.84 9.62.84 13.83 3 7.54 11.31 7.53 18.11 7.45 10.31-.11 130.49-.43 133.31-.48 7.56-.14 20.71 1.88 21.71-8.48.49-4.78.07-9.86 0-14.71zm-2.17 13.46c-.86 6.79-4.59 7-10.12 7.2-3.08.12-13.34.34-15.4.35-27.53.11-109.41.63-122.81.79-4.62.06-10.37.91-14.61-.54-8.35-2.86-7.19-11.31-7.31-18.48-.06-3.36-.11-58.53-.14-61.89v-.12c.29-3.82-.71-9.92 2.45-12.81 2.73-2.5 8.16-1.83 11.56-1.83 2.2 0 4.4.05 6.6.06 3.08 0 35 .05 47.81.05l79.85.06c3.21 0 6.34.1 9.55.27 2.58.13 5.43 0 7.89.79 4.22 1.44 4.28 4 4.58 7.93.36 4.57 0 61 0 65.63.08 4.1.62 8.5.1 12.54z" fill="#f78100"/><path d="M292.24 470.09c-.13-8.77-.45-69.32-.18-78.09.13-4.38-5.32.17-5.41 3-.23 7.39-.15 83.12-.87 85.47-1.85 3.68-76.15 1.45-82.28 1.38-2.92 0-5.8 6.82-2.58 6.86 16.61.2 66.54.78 74.86.18 3.68-.27 8.24-.28 11.33-2.63a20.59 20.59 0 0 0 3.25-4.7c1.83-3.69 1.94-7.39 1.88-11.47z" opacity=".2"/><path d="M286.46 474.63c-.2 2.55.35 5.26-1.77 6.56-2.14 2.18-86.15 2.72-88.34-.59-1-1.26-2.12-87.7 0-91 1.67-2.7 5.25-3.08 8.34-3.19 3.68-.13 77.24-.67 79.08.79 4.29 3.64 2.88 84.88 2.69 87.43z" fill="#f78100" opacity=".85"/><path d="M280.88 387.29c-6.84-.48-61.82 0-68.95.15-5.68.15-12.39-.35-14.52 6.23-.2.6-2.37 6.92-2.4 8.69-.14 8.28 1.59 68.78 2.41 77 .44 4.43 5.69-.11 5.4-3-.44-4.49-1.57-71.78-2-74.71l.09-.05a40.87 40.87 0 0 1 7-3.62 8.65 8.65 0 0 0 3.25-3.81c2.17 0 46.87-.94 48.91-1.06 6.26-.37 12 .58 18.22 1 2.92.25 5.88-6.59 2.59-6.82z" fill="#fff" opacity=".2"/><path d="M287.15 467a.51.51 0 0 0 0-.13c.19-4 .47-59.69.38-63.67s1.39-13.69-2.6-16.65c-2.73-2-8.6-1.58-11.77-1.72s-6.56.31-9.87.33c-15.63.13-31.28-.39-46.92-.26-5.24 0-10.85-.16-16 .49-6.18.77-6.06 6.17-6.26 11.27-.22 5.61 0 62.68.2 68.24.19 4.65-1.44 10.73.23 15.18 1.46 3.88 7.82 3 11.15 3.14 3.65.16 7.28.37 10.93.37h24.61c8.18 0 16.37-.05 24.55 0 6 0 12 .31 17.91-1 6.36-1.46 3.51-10.81 3.46-15.59zm-1.57 10.22c-.56 4.12-4.33 4-8 4.27-4.07.31-8.19.09-12.27.06-5.92 0-45.1.23-58.74-.42-2.38-.11-7.84.46-9.48-1.35s-.85-6.3-.79-8.66c.09-3.79 0-7.38-.25-11.16-.33-5.43-1.63-70.71 5.24-72.36 2.93-.71 6.8-.15 9.82-.25 1.67-.06 3.35-.14 5-.16 13.84-.13 27.69.16 41.53.19 6.74 0 13.45-.72 20.17-.22 3.74.28 6.31.14 7.44 4.39.95 3.55.48 8 .63 11.65.15 3.95 0 59.68-.18 63.64v.16c-.2 3.29.3 6.89-.12 10.18z" fill="#f78100"/><path d="M478.59 392.67c0-4.4-5.43.15-5.4 3 .07 9.65.14 71.14-.28 80.78 0 .19-3.21 4.31-4.12 4.5-3.07.64-152 .85-165.29.8-2.92 0-5.79 6.85-2.58 6.86 29.2.1 58.4.55 87.6.5 13.27 0 26.51-.55 39.78-.76 12.32-.2 25.31 1.27 37.54-.36 5.51-.74 11.21-3.2 12.1-9.15 1.68-11.15.74-74.92.65-86.17z" opacity=".2"/><path d="M297.13 387.26c7.93-3.33 167.33-2.42 174.74.59 2.31 4.19.93 90.91 0 92.39-1.27 2-169.41 4.81-174.81-.6-4.21-3.29-3.42-89.46.07-92.38z" fill="#f78100" opacity=".85"/><path d="M469.08 389.13a23 23 0 0 0-11.57-1.64 2.87 2.87 0 0 0-1.76 1.05c-1.39-.09-16.58-.37-22.83 0-4.37.23-8.71.28-13.08.25-11.24-.09-83.34-1.84-108.13-1.51-4.81.06-9.66-.12-12.9 4.26-5 6.76-2.57 79.83-1.62 86.77.6 4.42 5.8-.12 5.41-3-.73-5.35-1-73.37-.72-76.08.09-1.06-.13-3.18.46-4.05s.58-.62 1.92-.9c2.79-.59 88.43 1.16 112 1.37 4.07 0 24.61-.91 30.85-.59s12.49 1 18.78.8c2.16-.12 6.16-5.5 3.19-6.73z" fill="#fff" opacity=".2"/><path d="M474.52 460.9c-.14-2.31-.57-56.26-.53-58.61.07-3.84 1.19-10.83-1.06-14.25s-9.73-2.75-13.16-2.9c-2.23-.1-4.46-.23-6.69-.25h-11.62c-16.13 0-100.44-.18-126.46.09-5.68.06-13.51-.52-18.75 2.14a.65.65 0 0 0-.33.37c-1.64 1.71-1.65 5.15-1.85 7.3-.41 4.35-.43 71.23-.33 74.39.09 3-.27 8.49 2 10.92 2.15 2.27 7.12 2.45 10.12 2.68 5 .39 20.26.84 23 .84 32.1 0 114.54-.51 123.65-.67 3.69-.06 7.37-.38 11.05-.39 2.24 0 4.95.64 7.07-.35 3.87-1.8 3.31-7.13 3.45-10.7s.65-7.13.44-10.61zm-2.31 2.69c-.13 2.91-.36 11.36-.64 12.54-.69 2.92-3 4.33-6 4.23-10-.35-20.33.37-30.38.42q-47 .25-94 .56c-7.43.05-31.58-.17-36.23-.56a20.58 20.58 0 0 1-5.1-.88c-3.84-1.36-3.94-4.18-4.23-7.79-.55-6.73-.52-65.56-.33-72.31.08-2.83-.54-9.19 1.7-11.4 3.36-1.55 7.83-1 11.43-1.29 2.22-.14 8.15-.24 8.9-.23 4.09 0 109.51-.2 135.84.13 1.89 0 12.45 0 15.35 1 3.82 1.35 3.3 5.39 3.35 8.83.13 4.92.57 61.86.34 66.75z" fill="#f78100"/></svg>