<svg xmlns="http://www.w3.org/2000/svg" viewBox="0 0 490 216"><path d="M485.9 35.19c.15-3.86 19.25-18.55-133.82-10.42-78.84-1.45-274.22.81-295.18-1C6.07 11.56 2.18 41.39 4.81 47.57c-.34.74-3.47 29.5.47 59.82C5.73 119.93 6.51 166 3 174.66 1.19 179-.63 192.87 6.31 193.27c26.18 1.53 401.23 9.58 402.1.79l61.3 3.18c23.71.24 14.6-62.45 14-85.72-.71-23.78 3.02-75.06 2.19-76.33z" fill="#fff"/><path d="M486 172.43c0-8.5-.05-17-.07-25.52q-.11-41.74-.19-83.5c0-8-.1-16 0-24 0-4.93 1.47-11.23-2-15.28a7.35 7.35 0 0 0-5.22-2.47c-4.69-.59-9.5-.63-14.22-.78-8.6-.28-117.09-.14-162.72-.14H129.15c-32.12 0-64.24.14-96.36.08h-4.05c-7.12 0-21.36-2.23-23.22 7.42a1.92 1.92 0 0 0 0 .24 111.78 111.78 0 0 0-.24 12c-.16 23.66-.2 47.31-.28 71-.07 23-.88 46.1-.16 69.07.08 2.71 0 6.86 1.76 9.17 2.15 2.85 7.2 2.71 10.4 3.16 4 .56 13.55.68 14.31.67h35.38c41.16 0 301.41 0 390.35-.85 5.94 0 12 0 17.91-.47 3.62-.3 8.33-.91 10-4.72 1.75-4.43 1.05-10.3 1.05-15.08zm-2.86 11.76c-1.77 5.59-5.39 5.58-9.87 5.82-13.56.7-92.11.53-117.78.58-41.68.09-222 .52-270.48.65-16.69 0-59.73.29-61.58.21-5-.23-14.75.17-16.26-5.79-.88-3.49-.53-7.42-.54-11-.13-37.73-.28-133.82.1-144.1 0-.62.05-1.24.1-1.86v-.06c1.79-8.73 18.26-6 24.88-5.95h15.63q25.77 0 51.54.06l313.62.08h46.23c4 0 8 .22 12 .41 6.59.32 12.5-.38 13 8.33.18 3-.2 6.2-.2 9.28.08 43.92.57 87.87.21 131.79.05.54-.24 10.54-.56 11.55z" fill="#1e1e1e"/><path d="M191.64 21.54c-1.41 18.2-.84 36.75-1 55q-.18 23.1-.14 46.22 0 29.85.54 59.69c0 3 .23 7.42.29 9.74a1.28 1.28 0 0 0 2.55 0c-.93-35.27-.91-72.86-.74-108.84.1-20.54 1.29-41.3.44-61.82a1 1 0 0 0-2 0zM291.2 22.27c-1 18.22-.09 36.69-.1 54.93q0 23-.12 46.06-.17 29.64-.55 59.29c-.05 3 0 7.38-.06 9.65a1.28 1.28 0 0 0 2.55 0c.6-35.07.75-72.42.73-108.19 0-20.49.85-41.3-.5-61.74a1 1 0 0 0-1.95 0z" fill="#1e1e1e"/><path d="M482.85 81.78c-15.41-.38-30.82-.53-46.23-.66q-23.43-.21-46.86-.21-34.23 0-68.46.08-55.95.14-111.91.38l-176.5.72-27.29.13a1.25 1.25 0 0 0 0 2.5q93-.3 185.94-.8 59.37-.24 118.73-.46 36.3-.12 72.62-.14 24.19 0 48.41.13c15.05.08 30.11.34 45.16.27h6.39a1 1 0 0 0 0-1.92zM484.43 136.37c-16.73.3-33.45.85-50.18 1.23q-24.54.57-49.09.76c-23 .18-45.9.17-68.85.13q-55.31-.12-110.65-.49-86.38-.48-172.76-1-13.65-.09-27.3-.16a1.25 1.25 0 0 0 0 2.5q91.08.65 182.15 1.07 58.69.31 117.39.52c24.3.05 48.59.08 72.88-.08q25.22-.17 50.43-.71c16.28-.39 32.58-.73 48.85-1.5l7.13-.32a1 1 0 0 0 0-1.93z" fill="#1e1e1e"/><path d="M192.4 56.74c.11-4.38-5.33.17-5.4 3-.11 4.25 1.27 16.88-.53 19.28s-153.31 2.28-166 1.1c-2.89-.27-5.88 6.55-2.58 6.86C30 88.1 181.6 89 186.08 86.55c8.98-4.84 6.12-21.82 6.32-29.81z" opacity=".2"/><path d="M187.22 74.53a6.45 6.45 0 0 1-3.22 5.56c-.52.32-166.54.11-170.14-.06-1.56-.08-3.32-.28-3.67-3.88s.3-22.68 1.21-24.15c1.67-2.7 6.66-3.45 10.34-3.58 0 0 156.2-.54 160.91.45s4.54 7.86 4.64 11.06.12 12.07-.07 14.6z" fill="#f78100" opacity=".85"/><path d="M182.65 49.36c-3.85-1.58-131.47-2.29-157.91-.52-4.93.33-10.39.29-12.51 5.68-2.78 7.06-2.39 16.31-2.3 23.67.05 4.41 5.44-.14 5.4-3-.05-4.73 1-18.19 1.39-19.58 0 .31 3.13.26 3.87.2 1.93-.15 28.14-1 39.3-1 26.47-.11 99.7.74 102.36.71 5 0 11.93-1.6 16.65.33 2.91 1.15 6.48-5.38 3.75-6.49z" fill="#fff" opacity=".2"/><path d="M188.08 60.3c0-3.17.77-8.57-2.06-10.87s-8.68-1.94-11.89-2.09c-4.34-.2-8.69.16-13 0-8-.22-16-.27-24-.28-31.48 0-63 .08-94.43.15H31.77c-2.45 0-4.9.14-7.35.22-3.4.12-11.23-.53-13.74 2.69C8.3 53.18 9.15 60.06 9 63.7c-.18 4.38-1.15 10.37.52 14.52 1.25 3.11 4.62 3 7.6 3.16 4 .21 8 .46 12 .52 25.89.38 51.84-.21 77.74-.31l45.62-.19c10.18 0 21.1.78 31.14-.53 3.55-.46 4-3 4.4-6.41a.57.57 0 0 0 0-.23c.21-4.58.11-9.23.06-13.93zm-8 19c-3.07.13-6.15.2-9.23.17-1.63 0-3.25-.05-4.88-.06h-9.32l-39.07.09q-41.3.2-82.58.3h-6.31c-1.88 0-3.78-.18-5.66-.26-2.67-.13-6.74.4-9.31-.56-4.46-1.64-2.72-11.09-2.57-15.21.11-2.43.12-4.88.34-7.29.34-3.75.84-5.44 4.69-6.15 4.79-.9 10-.7 14.85-.78h7.64q43-.07 85.94-.18c10.73 0 21.5-.39 32.23-.18 5.75.11 11.54-.22 17.29 0 2.86.1 6.43 0 9.11 1 4 1.51 3.18 6.32 3.26 9.78.1 4.78.26 9.59 0 14.38-.73 4.43-2.44 4.81-6.44 4.99z" fill="#f78100"/><path d="M292.43 55.36c.19-4.36-5.29.18-5.4 3-.08 1.73.7 18.15-.15 19.91-1.23 2.56-61.93.56-81.93.59-2.93 0-5.79 6.86-2.58 6.86 23.1 0 46.2.39 69.3.21 7-.06 15.74.73 19.24-6.67 2.15-4.54 1.48-22.74 1.52-23.9z" opacity=".2"/><path d="M196.66 56.31c.19-2.55 1.14-5.76 3.27-7.06.52-.32 76.29-.46 79.89-.29 1.55.07 5-.38 6 .88s1.93 26.15 1 27.63c-1.67 2.7-5.75 2.09-8.84 2.19-3.68.13-77.38.42-79.64-1.29-4.34-3.28-1.87-19.51-1.68-22.06z" fill="#f78100" opacity=".85"/><path d="M285.62 50.65c-9.51-4.24-81.39-2.32-84.14-1.15-8.26 3.5-5.78 19.6-3.48 26.1 1.5 4.34 7.35-2.17 6.24-5.37-1.51-4.39-1.34-8.76-1.47-13.3.89.1 42.2-1 50.13-1 9.17 0 19.81-1.28 28.27 2.5 3.38 1.57 7.72-6.32 4.45-7.78z" fill="#fff" opacity=".2"/><path d="M288.56 70.89c0-6.07.3-12.32-.81-18.33-.66-3.6-1.63-4.2-5.21-4.59-15.16-1.69-31-.57-46.23-.57-6.59 0-13.2-.07-19.79 0a153.82 153.82 0 0 0-15.91 1.08c-4.64.55-4.67 3.49-4.69 7.81v.12c-.48 5.68-1 11.34-.24 17 .54 4.15.79 6 4.94 6.62 8.29 1.3 16.63.32 25 .36 15.38.07 30.73.45 46.09.14l8.62-.17c1.71 0 4.31.41 5.9-.39 3.03-1.48 2.33-6.32 2.33-9.08zM286.14 76c-1.38 3.76-11 2.27-14.45 2.34-12.69.24-25.35 0-38.08-.08-7.52 0-15 .46-22.46.51-2.6 0-5.21-.08-7.8-.28-3.31-.27-4.77-.08-5.64-3.5-1.49-5.93-.76-12.45-.35-18.47a1 1 0 0 0 0-.17c.11-1.49.09-4.87 1.43-5.71.44-.28 1.27-.1 1.78-.22a38.39 38.39 0 0 1 6.35-.5c3.31-.22 6.63-.44 9.95-.46h14.69c12.34 0 24.7-.16 37 0 4.12.07 8.28.13 12.39.47 2.29.19 3.69-.08 4.43 2.15.85 2.51.78 5.75.85 8.4q.12 4.23 0 8.48c.1 2.04.61 5.1-.09 7.04z" fill="#f78100"/><path d="M293.06 111.6c-1.37-3.61-6.21 1.83-5.2 4.47.38 1 .63 15.06-1.82 18.29s-74.29 1.19-78.92 1.21c-2.92 0-5.78 6.87-2.58 6.86l42.12-.19c8.77 0 36.87.27 41.75-2.74 6.71-4.14 5.65-25.27 4.65-27.9z" opacity=".2"/><path d="M195.94 113.55c-.56-9.73 7.56-7.73 8.88-7.8 3.75-.2 71.61.28 75.21.45 1.55.07 5.51.12 6.52 1.38s3.51 20.16 0 25.94c-2.11 4.8-88.92 2.83-88.62.18-2.37-2.01-2.18-17.59-1.99-20.15z" fill="#f78100" opacity=".85"/><path d="M284.88 107.33c-15.52-.21-57.16-1-62.39-1.09-6.49-.09-14.35-1-20.69.88-2.75.82-5.36 3.84-4.5 6.71-.72 1.13-.82 13 .12 16.92.88 3.64 5.86-1.74 5.21-4.47-1-4.27-2.74-10.76 1.58-12.36s32.85-.09 38.6 0c13.16.1 26.32.15 39.49.33 2.92-.01 5.8-6.87 2.58-6.92z" fill="#fff" opacity=".2"/><path d="M289.06 122.78c-.44-4.3 1.13-10.56-.72-14.5-1.55-3.3-7-3.64-10.14-3.7-15.58-.3-31.21.06-46.79.06-6.65 0-13.31-.08-20 0-2.93 0-5.87.17-8.8.3-1.39.06-4.57-.37-5.73.56-2.24 1.8-1.61 8.67-1.72 11.19a.68.68 0 0 0 0 .14c-.35 4.84-1.19 11.81.95 16.31 1.55 3.26 5.23 3 8.41 3.33 6.44.6 13 .4 19.44.38 14.4-.06 28.88.29 43.17.43 3.71 0 7.44-.33 11.14-.4 2.31 0 5 .26 7.16-.88 4.36-2.33 4.05-9.19 3.63-13.22zm-2.33 6.84c-1.27 5.28-4.82 4.89-9 5-3.5.06-7 .43-10.54.38-11.68-.18-23.37-.48-35.08-.42-6.22 0-12.44.08-18.65.22a84.41 84.41 0 0 1-11.13-.41c-4.74-.51-5.36-3.46-5.6-7.89a91.94 91.94 0 0 1-.09-9.68v-.12q.34-3 .76-6.08c.41-3 .09-3.44 3-3.63 4.61-.3 9.29-.37 13.89-.31h52.25c1.37 0 2.73 0 4.1.06 3.61 0 7.37-.46 10.94.23 4.9.94 5.05 3.86 5 8.1.01 4.67 1.23 10.11.15 14.55z" fill="#f78100"/><path d="M485.51 55.7c-.19-4.42-5.53.13-5.41 3 .19 4.32.11 17.45-1.77 18.26-2.41 1-157.87.93-171.26 1.1-2.92 0-5.76 6.9-2.58 6.86 50-.63 100 1.34 150 0 2.71-.08 5.41-.3 8.11-.48 4.72-.31 12.83.23 17.24-1.65 8.81-3.79 6-19.33 5.67-27.09z" opacity=".2"/><path d="M296.59 56.66c-.07-10.37 7.57-7.73 8.89-7.8 3.75-.2 163.26-.72 166.87-.55 1.55.08 5.51.12 6.52 1.38s1.25 15.83 1.09 19.75c-.06 1.76-.72 6.54-1.63 8-1.67 2.7-162.6 1.25-164.73 1.34-3.61.15-13.77-.52-14.79-1.38-2.39-1.99-2.41-18.18-2.22-20.74z" fill="#f78100" opacity=".85"/><path d="M473.93 49.18c-13.5-.37-59.81.7-69.42.86-23.81.39-47.65 1-71.47.7-3.55-.05-7.15 0-10.69-.38-5.15-.51-9.71-2.56-15.3-.52-7.35-1.65-14.55 13.47-7.21 25.85 1.56 2.63 5.9-3 4.65-5.67-1.12-2.37-1.36-10.71-1.29-11.23a6.57 6.57 0 0 0 4.48-3.06c3.32-.38 9.47 1.19 11.22 1.4 1.08.12 10 .46 13.41.49 10.67.1 125.07-2 139-1.58 2.96.08 5.86-6.77 2.62-6.86z" fill="#fff" opacity=".2"/><path d="M481.07 58.61c-.06-2.91.57-8.56-2.38-10.38-2.62-1.63-7.35-1-10.48-1-30.34-.12-60.67 0-91 0q-23.19 0-46.37.07h-12.09c-6.07 0-13-.44-18.81 1.16-3.85 1.06-3.91 4.64-4.08 8.21a.76.76 0 0 0 0 .16c-.36 5.65-.64 11.91.34 17.5.51 2.94 1.2 3.91 4 4.31 8.67 1.24 17.57.31 26.25.69 10.07.43 20.24.09 30.31.08q47.91 0 95.8-.15h7.11c5.25-.09 10.52-.08 15.75-.33 3.46-.16 4.79-1.52 5.35-5 .85-5.03.38-10.33.3-15.32zm-2.62 15.78c-1.42 3.87-10.53 2.38-14.14 2.45-3 .06-6 .13-9 .13q-42.21.06-84.4.16-19.15.06-38.31.2c-2.19 0-4.4.1-6.59 0-5.18-.13-10.39.1-15.59.07-2.37 0-4.75-.08-7.12-.23-2.94-.18-4.72.16-5.49-3.1-1.24-5.32-.79-11.88-.5-17.31a.29.29 0 0 0 0-.14c.17-1.91.22-5.19 2.15-6.3.8-.45 2.54-.32 3.46-.4 3.34-.27 6.7-.51 10-.65 1.57-.06 3.13-.07 4.69-.06h154.58c1.79.06 4.18-.18 5.45 1.17 1.64 1.76 1.14 6.3 1.16 8.64.09 4.74 1.25 11.03-.35 15.37z" fill="#f78100"/><path d="M484.34 110.44c-1.65-2.76-6.16 3.14-4.65 5.66-.47-.79 2.19 16.8-2.5 18.38-5.24 1.77-156.54 1.07-168.06.86-2.92-.05-5.81 6.8-2.58 6.86 26.79.48 53.61.25 80.4.15 14.82-.06 72.32.76 85.63-1.33 4.44-.69 8.45-2.54 11.09-6.08 3.2-4.27 2.33-21.73.67-24.5z" opacity=".2"/><path d="M298.16 105.61c.53-.32 179.14-2.19 181.42.59 1 1.24.63 25.88-.28 27.36-1.67 2.7-16.39 1.81-20.07 1.94 0 0-157.93 2.19-160.62-.69-4.5-6.17-2.61-27.9-.45-29.2z" fill="#f78100" opacity=".85"/><path d="M474.62 106.67c-24.57-1.63-49.5-.39-74.09 0-26 .36-52 1.24-77.94.77-7-.13-19.78-4.57-23.22 4a36.93 36.93 0 0 0-1.3 19.79c.92 3.64 5.89-1.75 5.2-4.47a17.49 17.49 0 0 1-.32-4.15c0-1.86 1-8.43 3.82-9.27s11.91 1 17.45 1c10.82.07 21.65-.09 32.47-.23 27.94-.36 55.87-.92 83.81-1 10.5 0 21.06-.22 31.54.48 2.96.13 5.86-6.71 2.58-6.92z" fill="#fff" opacity=".2"/><path d="M480.79 118.21c0-3.51 1.23-9.51-.65-12.68-1.52-2.57-6.52-1.47-9.09-1.53-3.46-.08-6.91-.23-10.37-.28-27-.35-54 .21-80.92.31l-48.46.2-12.78.06h-2c-3.45 0-6.89-.06-10.33.09-2.29.09-5.61-.35-7.73.47-3 1.17-2.62 5.39-2.83 8.31a.5.5 0 0 0 0 .17c-.35 5.5-.74 11.65 0 17.11.49 3.77 1.92 4.89 5.44 5.4 8.2 1.19 16.53.54 24.76.86 9.33.36 18.75.1 28.08.09q48.88 0 97.77-.15h7.52c4.12 0 8.25.11 12.37-.16 2.54-.16 6.83-.1 8.49-2.48 1.12-1.61.72-4.36.73-6.16.02-3.21-.02-6.42 0-9.63zm-3.9 15.24c-3.71 1.83-9.91.93-14 .91h-7.76q-43.29.06-86.58.16-18.78.06-37.56.2c-2.2 0-4.37 0-6.56-.08-4.21-.16-8.4.15-12.6.17-4 0-12.9 1.06-14.47-3.58-.89-2.63-.29-6.45-.35-9.21s-.09-5.83.06-8.75v-.11c.15-1.41.13-3.61.77-4.92.77-1.59 1.18-1.56 3.07-1.78 2.63-.3 5.42-.25 8-.29s5.49 0 8.24.07h9.33l40.95-.1 87.64-.24h5.72c5 .09 10 .09 15 .43 3 .2 2.61 1.47 2.71 4.36.09 2.29 0 4.57 0 6.86.03 3.52 1.86 14.18-1.61 15.9z" fill="#f78100"/><path d="M192.31 112.69c-.5-5.3-4.89-2.34-5.71 1.38-.26 1.21 1.35 18.56-2.07 20.81-3.7 2.44-153.75 1.29-164.31 1-2.92-.08-5.83 6.78-2.58 6.86 28.31.73 56.67.31 85 .2 13.57-.05 52.62-.34 58.58-.39 8.35-.08 22.6.87 29.29-5.32 3.4-3.14 2.21-20.18 1.8-24.54z" opacity=".2"/><path d="M9.18 114.34c.19-2.55.65-5.76 2.77-7.06.53-.32 170.94-3.29 174 .59s.93 23.22 0 24.7c-1.67 2.7-5.25 3.09-8.34 3.19-3.68.13-161.18 3-166.18-.79C9 133 9 116.89 9.18 114.34z" fill="#f78100" opacity=".85"/><path d="M182.67 107.34c-47.86-2-157-.51-163.62-.3-4.09.13-7 1-8.38 5.29-1.76 5.68-1.38 13.6-.1 19.44.8 3.63 5.81-1.74 5.21-4.47a27.56 27.56 0 0 1-.5-4.44c-.1-1.81-.1-3.63 0-5.45.1-3.29 0-3.45 3.22-3.55 10.64-.32 21.3-.48 31.95-.72 10.94-.25 21.87-.55 32.81-.5 23.26.1 46.52.47 69.77.9 9 .17 18.07.28 27.1.66 2.87.12 5.8-6.73 2.54-6.86z" fill="#fff" opacity=".2"/><path d="M188.11 118.47c0-3 .74-8.89-1.44-11.37-2.5-2.85-10.73-1.86-13.81-2-1.89-.08-3.78-.19-5.67-.2-26.36-.25-52.74.21-79.1.31l-44.56.19c-10 0-21.32-1.06-31 1.09-4.2.93-4 4-4.09 7.85a.66.66 0 0 0 0 .15 103.49 103.49 0 0 0 .46 16.61c.48 3.65 1.82 4.86 5.22 5.37 8.24 1.25 40.78 1 48.68 1 31 .05 61.9-.07 92.84-.14h10.23c3.41 0 6.56-.23 9.84-.33 4.14-.13 9.67.8 11.61-3.85 1.82-4.33.82-10.15.79-14.68zm-7.82 16.15c-4.65.2-9.34.32-14 .39h-7.59q-41.5.07-83 .18c-11.57 0-23.15.27-34.71.2-4.78 0-9.52-.08-14.3 0-4 .09-10.11.73-13.72-.84s-2.5-6.77-2.59-10c-.09-3.4-.57-6.77-.49-10.18a.42.42 0 0 0 0-.12c.12-2-.18-4.73 2-5.91a11.53 11.53 0 0 1 3-.47 64.29 64.29 0 0 1 11.18-.6c1.56 0 3.12.06 4.69.06h9l37.68-.09 83-.24c2.49 0 5-.07 7.47 0 3.22.06 6.45.29 9.67.44 2.46.11 6.28-.49 7.76 1.89 1.24 2 .57 6.79.58 9.09-.02 5.22 1.74 15.89-5.63 16.2z" fill="#f78100"/><path d="M192.78 165.55c0-.53-.21-1.5-.83-1.74-2.3-.89-4.07 2.08-4.5 3.92a22.53 22.53 0 0 0-.31 3.19 2 2 0 0 0 .1.8v.41c-.23 3.85 0 8.33-.71 12.2a4.73 4.73 0 0 1-3.31 2.1 116.93 116.93 0 0 1-14.36 1.14c-4.36.11-8.71.15-13.07.2q-14.94.19-29.88.35c-24.2.25-48.4.46-72.59.5-9.86 0-19.72 0-29.57-.14-2.92-.05-5.81 6.81-2.58 6.86 25.59.46 51.21.09 76.81-.12q21.18-.18 42.38-.43c12.32-.14 24.87.25 37.13-1 3.94-.41 8-.48 10.65-3.76a14.91 14.91 0 0 0 3.74-9.09c.31-5.02 1.25-10.4.9-15.39z" opacity=".2"/><path d="M9.48 168.81c.19-2.56.44-8.07 8.88-7.81 3.75.12 157.92.28 161.53.45 1.55.08 5.51.63 6.51 1.89s1.44 19.73.53 21.21c-1.67 2.7-5.75 3.09-8.84 3.19-3.68.13-162.13 1.09-165.62.13-1.26-.35-3-3.05-3.06-6.25s-.13-10.26.07-12.81z" fill="#f78100" opacity=".85"/><path d="M183.07 161.59c-12.64-.77-57.73 1.47-67.68 1.47-18.55 0-80-.44-92-1.74-3.89-.42-7.63-1.68-10.39 1.68-2.57 3.1-3.24 17.39-2.49 19.68 1.19 3.63 6.08-1.79 5.2-4.47s.17-7.14.91-10.36c.32 0 5.79.51 8.07.71 5.54.49 11.11.77 16.67.95 5.91.19 80.28.48 100.38.33 12.94-.1 25.83-2.18 38.76-1.39 2.9.17 5.85-6.66 2.57-6.86z" fill="#fff" opacity=".2"/><path d="M188.62 173.4c0-3 .71-9.08-2-11.28-3-2.42-9.33-1.83-12.82-2-2-.1-4-.22-6-.25-26.51-.34-53.05 0-79.57 0H31.58c-5.93 0-12.58-.94-18.33.66-3.7 1-4.22 4.74-4.47 8.22a.68.68 0 0 0 0 .2c-.2 3.51-.09 7-.12 10.54 0 2.08-.22 4.4.59 6.37 1.33 3.23 4.45 3 7.51 3.35 4.23.41 8.45.45 12.69.44h34.59c31.23-.06 62.45-.26 93.67-.41h8.9c4-.07 8.06-.33 12.1-.4 3.27-.06 7.85.35 9.43-3.29 1.48-3.41.51-8.45.48-12.15zm-2.2 6.37c0 3.68 0 6.49-4.62 6.81-4.89.35-9.92.34-14.83.41h-6.32q-41.49.16-83 .4-21.28.12-42.57.39l-8.43.11a96.24 96.24 0 0 1-10.47-.39 12.66 12.66 0 0 1-3.43-.44c-2.69-1.14-2.57-4.42-2.59-6.87 0-3.76-.17-7.53 0-11.3v-.11c.54-4.77 1.86-6.4 6.44-6.76 3.06-.24 6.14-.25 9.21-.22 1.62 0 3.24 0 4.87.06h47.28q41.47 0 82.94.06h7.44c3.48.08 7 .22 10.5.52 2.13.19 5.62.16 6.92 2.31s.57 6.77.58 9.09c.05 2.04.09 3.98.08 5.93z" fill="#f78100"/><path d="M293.33 167.56c.14-4.38-5.32.17-5.41 3-.13 4.29 1.14 13.68-.57 15.32-4.68 4.5-76.29 1.41-82.58 1.33-2.92 0-5.8 6.82-2.58 6.86q24.93.31 49.84.52c8.34.06 16.7.26 25-.34 3.68-.27 8.25-.28 11.33-2.63 6.26-3.62 4.82-19.41 4.97-24.06z" opacity=".2"/><path d="M287.73 180c-.2 2.55.35 5.25-1.77 6.55-2.36 1.55-86.07 3.89-88.34-.58s-.94-19.35 0-20.83c1.67-2.7 5.25-3.08 8.34-3.19 3.68-.13 74.84-1.23 79.08.79s2.88 14.7 2.69 17.26z" fill="#f78100" opacity=".85"/><path d="M282.15 163c-6.84-.48-61.82 0-68.95.15-5.68.15-12.39-.35-14.52 6.23-.15.46-2.57 10.24-2.05 12.73 2.19 10.41 7.79 2.64 7.47-.22-.17-1.47-.14-4.06-1.7-4.7.15-.1 6.24-5.91 6.84-7.28h7.57c7-.15 42.5-.92 44.54-1 6.26-.37 12 .58 18.22 1 2.91.09 5.87-6.71 2.58-6.91z" fill="#fff" opacity=".2"/><path d="M288.44 179.88c.35-4.62 1.13-11.39-.9-15.72-1.43-3.06-4.25-3-7.3-3.32-6.55-.71-13-.13-19.54-.17-14.39-.07-28.8-.39-43.19-.25-5.15.05-10.52-.07-15.63.45-4.6.47-6 3.26-6.39 7.53a114.37 114.37 0 0 0-.15 13.09c.12 3.75.33 5.83 4.33 6.59 6.92 1.31 14.45.84 21.52.84h45.71c5.17 0 10.41.3 15.52-.56 6.06-1 6.25-2.41 6.1-8.33a.42.42 0 0 0-.08-.15zm-2.95 6c-.67.41-2.17.34-3 .47-3.11.5-14.3.54-16.81.53h-15.95c-11.41 0-22.84.21-34.24 0-4.4-.1-8.89-.2-13.27-.62-3.57-.34-4.58-1-4.71-4.69-.09-2.35.1-4.69.11-7 0-5.19-.19-11.21 6.94-11.35 4.35-.09 8.7-.35 13-.39 12-.09 24 .14 35.93.18 4.76 0 9.61.28 14.35-.15a64.17 64.17 0 0 1 14.46.19c6.33.86 5 11.94 4.67 16.88a.58.58 0 0 0 0 .19c-.06 1.65.37 4.65-1.48 5.76z" fill="#f78100"/><path d="M485.87 168.23c-.08-4.41-5.46.14-5.41 3 .07 4.2.11 12.19-1.3 14.22S315.85 187 304.77 187c-2.92 0-5.79 6.85-2.58 6.86 25.39.08 50.78.42 76.17.48 13 0 73.88-.24 91.26-.9 6.41-.25 14.44-2 15.71-9.34.9-5.17.67-10.68.54-15.87z" opacity=".2"/><path d="M295.63 169.88c.19-2.55 1-5.95 3.27-7.06 6.74-3.35 170.12-1 173.72-.79 1.55.07 5.52.12 6.52 1.38s.93 20.56 0 22c-1.67 2.7-173.26 3-176.74 2-1.27-.35-3.55-.79-4.57-1.65-2.38-1.93-2.39-13.33-2.2-15.88z" fill="#f78100" opacity=".85"/><path d="M476.35 164.69c-3.84-1.58-11.46-2.26-13.33-.59l-5.1-.33c-6.56-.39-27.41.57-31.33.54-11.75-.1-23.49-.33-35.24-.54-25.64-.45-51.31-1.21-77-1-4 0-9.87-.64-13.19 1.85-5.89 4.44-4.05 13.53-2.64 19.57.85 3.63 5.85-1.75 5.21-4.48a33 33 0 0 1-1.26-7.56c0-2.95 1.87-2.33 4.27-2.43 3.46-.15 33 .07 44.25.25 24 .37 48 .95 72 1.17 3.94 0 24.2-.91 30.43-.63 6.59.29 13.11 1.08 19.72.84 2.18-.06 6.18-5.43 3.21-6.66z" fill="#fff" opacity=".2"/><path d="M481.41 174.71a1.17 1.17 0 0 0-.05-.27c.12-3.5.62-8.42-.94-11.38-1.18-2.24-4.1-2-6.37-2.19-4.75-.35-9.54-.42-14.31-.43h-30.57q-48.27 0-96.56.05H316.3c-5.74.06-13.52-.53-18.77 2.14a.74.74 0 0 0-.3.28c-2.71 2.28-2.19 4.51-2.18 8 0 4.4-.51 10 1.2 14.22.89 2.2 2.05 2.21 4.28 2.42 4.6.43 9.25.49 13.87.65 9.17.32 18.26.5 27.44.5 35.16 0 70.32-.32 105.48-.53 4.1 0 8.21 0 12.31-.07 2.51 0 5-.17 7.52-.26 3.16-.11 7.62.82 10.6-.43 4.47-1.81 3.55-8.79 3.66-12.7zm-13.34 10.89c-3 .11-6 .25-9.06.3h-10.5l-44.94.24c-25.92.16-52 1.22-77.91.58-6.83-.16-14.22-.37-21.23-.66-1.37-.06-4.49.32-5.7-.39-1.76-1-1.69-4.86-1.84-6.62-.34-3.88-2-12.19 1.36-15.14 3.2-1.47 7.07-1 10.5-1.22 2.52-.16 5-.3 7.54-.31h12.84l40.93.05 84.81.06h6.57c4.68.07 9.45.06 14.1.58 3.46.39 3.19 1.65 3.43 5.09.16 2.38.16 4.77.13 7.15a.93.93 0 0 0 0 .25c-.05 1.7-.11 3.41-.27 5.1-.5 5.81-6.44 4.8-10.76 4.94z" fill="#f78100"/><path d="M13.81 58.69c.32-.09.63-.2.95-.32z" fill="#fff"/></svg>