<svg xmlns="http://www.w3.org/2000/svg" viewBox="0 0 490 216"><path d="M13.81 57.61c.32-.09.63-.2.95-.31z" fill="#fff"/><path d="M486.4 34.65c.15-3.87 19.25-18.55-133.82-10.42-78.84-1.46-274.22.81-295.18-1C6.57 11 2.68 40.84 5.31 47c-.34.75-3.47 29.5.47 59.82.45 12.54 1.23 58.62-2.32 67.28-1.77 4.32-3.59 18.2 3.35 18.61 26.18 1.52 401.23 9.57 402.1.78l61.3 3.19c23.71.23 14.6-62.46 14-85.72-.67-23.77 3.02-75.05 2.19-76.31z" fill="#fff"/><path d="M486 171.89c0-8.51-.05-17-.07-25.53q-.11-41.75-.19-83.49c0-8-.1-16 0-24 0-4.92 1.47-11.23-2-15.28a7.35 7.35 0 0 0-5.22-2.47c-4.69-.59-9.5-.63-14.22-.78-8.6-.28-117.09-.14-162.72-.14H129.15c-32.12 0-64.24.14-96.36.08h-4.05c-7.12 0-21.36-2.23-23.22 7.42a2.08 2.08 0 0 0 0 .25 111.67 111.67 0 0 0-.24 12c-.16 23.65-.2 47.3-.28 71-.07 23-.88 46.09-.16 69.07.08 2.7 0 6.85 1.76 9.16 2.15 2.85 7.2 2.72 10.4 3.16 4 .56 13.55.68 14.31.68 11.79-.05 23.59 0 35.38-.05 41.16 0 301.41 0 390.35-.84 5.94-.06 12 0 17.91-.47 3.62-.3 8.33-.91 10-4.73 1.75-4.4 1.05-10.27 1.05-15.04zm-2.86 11.75c-1.77 5.59-5.39 5.59-9.87 5.82-13.56.71-92.11.53-117.78.59-41.68.08-222 .51-270.48.64-16.69.05-59.73.29-61.58.21-5-.22-14.75.17-16.26-5.78-.88-3.49-.53-7.43-.54-11C6.54 136.39 6.39 40.3 6.77 30c0-.62.05-1.24.1-1.85v-.07c1.79-8.73 18.26-6 24.88-6h15.56l51.54.06 313.62.07h46.23c4 .05 8 .22 12 .41 6.59.32 12.5-.38 13 8.34.18 3-.2 6.2-.2 9.27.08 43.93.57 87.87.21 131.79.08.61-.21 10.61-.53 11.62z" fill="#1e1e1e"/><path d="M191.64 21c-1.41 18.2-.84 36.75-1 55q-.18 23.11-.14 46.22 0 29.85.54 59.7c0 3 .23 7.41.29 9.73a1.28 1.28 0 0 0 2.55 0c-.93-35.27-.91-72.86-.74-108.83.1-20.54 1.29-41.31.44-61.82a1 1 0 0 0-2 0zM291.2 21.72c-1 18.22-.09 36.69-.1 54.94q0 23-.12 46.05-.17 29.65-.55 59.3c-.05 3 0 7.37-.06 9.64a1.28 1.28 0 0 0 2.55 0c.6-35.07.75-72.41.73-108.19 0-20.49.85-41.3-.5-61.74a1 1 0 0 0-1.95 0z" fill="#1e1e1e"/><path d="M482.85 81.23c-15.41-.37-30.82-.53-46.23-.66q-23.43-.19-46.86-.21-34.23 0-68.46.08-55.95.15-111.91.38l-176.5.73-27.29.12a1.25 1.25 0 0 0 0 2.5q93-.3 185.94-.79 59.37-.25 118.73-.46 36.3-.12 72.62-.15 24.19 0 48.41.13c15.05.09 30.11.35 45.16.27h6.39a1 1 0 0 0 0-1.92zM484.43 135.83c-16.73.29-33.45.84-50.18 1.22q-24.54.57-49.09.76c-23 .18-45.9.18-68.85.13q-55.32-.12-110.65-.48-86.38-.48-172.76-1l-27.3-.16a1.25 1.25 0 0 0 0 2.5q91.08.64 182.15 1.07 58.69.33 117.39.52c24.3.06 48.59.08 72.88-.08q25.22-.17 50.43-.71c16.28-.38 32.58-.73 48.85-1.5l7.13-.32c1.23-.06 1.24-1.95 0-1.92z" fill="#1e1e1e"/><path d="M192.4 33.41c.11-4.37-5.33.17-5.4 3-.11 4.25 1.27 16.88-.53 19.27S33.16 58 20.43 56.79c-2.89-.27-5.88 6.55-2.58 6.86 12.1 1.13 163.75 2 168.23-.42 8.98-4.84 6.12-21.83 6.32-29.82z" opacity=".2"/><path d="M187.22 51.2a6.45 6.45 0 0 1-3.22 5.56c-.52.32-166.54.11-170.14-.06-1.56-.07-3.32-.27-3.67-3.88s.35-22.68 1.26-24.16c1.67-2.69 6.66-3.45 10.34-3.57 0 0 156.2-.55 160.91.44s4.54 7.87 4.64 11.06.07 12.06-.12 14.61z" fill="#f78100" opacity=".85"/><path d="M182.65 26c-3.85-1.58-131.47-2.28-157.91-.52-4.93.33-10.39.29-12.51 5.69-2.78 7.05-2.39 16.31-2.3 23.67.05 4.4 5.44-.15 5.4-3-.05-4.73 1-18.19 1.39-19.58 0 .31 3.13.26 3.87.2 1.93-.15 28.14-.95 39.3-1 26.47-.12 99.7.73 102.36.71 5-.05 11.93-1.61 16.65.33 2.91 1.22 6.48-5.35 3.75-6.5z" fill="#fff" opacity=".2"/><path d="M188.08 37c0-3.17.77-8.56-2.06-10.86s-8.68-1.95-11.89-2.1c-4.34-.2-8.69.16-13 0-8-.22-16-.27-24-.28-31.48 0-63 .08-94.43.15H31.77c-2.45 0-4.9.14-7.35.23-3.4.12-11.23-.53-13.74 2.69-2.46 3.1-1.61 9.97-1.76 13.61-.18 4.38-1.15 10.37.52 14.56 1.25 3.11 4.62 3 7.6 3.16 4 .22 8 .46 12 .52 25.96.32 51.86-.25 77.76-.35l45.62-.19c10.18 0 21.1.79 31.14-.53 3.55-.46 4-3 4.4-6.41a.58.58 0 0 0 0-.23c.27-4.65.17-9.34.12-13.97zm-8 19q-4.6.21-9.23.18c-1.63 0-3.25-.06-4.88-.06h-9.32l-39.07.09q-41.28.14-82.57.24c-2.1 0-4.2.06-6.31 0-1.88 0-3.78-.17-5.66-.26-2.67-.12-6.74.4-9.31-.56C9.26 54 11 44.56 11.15 40.44c.11-2.42.12-4.88.34-7.29.34-3.75.84-5.43 4.69-6.15 4.79-.89 10-.7 14.85-.78h7.64q43-.06 85.94-.18c10.73 0 21.5-.39 32.23-.18 5.75.11 11.54-.22 17.29 0 2.86.1 6.43 0 9.11 1 4 1.52 3.18 6.33 3.26 9.78.1 4.79.26 9.6 0 14.38-.73 4.43-2.44 4.81-6.44 4.98z" fill="#f78100"/><path d="M292.43 32c.19-4.36-5.29.18-5.4 3-.08 1.73.7 18.15-.15 19.91-1.23 2.56-61.93.56-81.93.59-2.93 0-5.79 6.86-2.58 6.86 23.1 0 46.2.4 69.3.21 7-.05 15.74.74 19.24-6.67 2.15-4.51 1.48-22.71 1.52-23.9z" opacity=".2"/><path d="M196.66 33c.19-2.55 1.14-5.75 3.27-7 .52-.33 76.29-.47 79.89-.3 1.55.08 5-.38 6 .88s1.93 26.16 1 27.63c-1.67 2.7-5.75 2.09-8.84 2.2-3.68.13-77.38.41-79.64-1.3-4.34-3.35-1.87-19.57-1.68-22.11z" fill="#f78100" opacity=".85"/><path d="M285.62 27.32c-9.51-4.24-81.39-2.32-84.14-1.15-8.26 3.53-5.78 19.61-3.53 26.1 1.5 4.35 7.35-2.17 6.24-5.37-1.51-4.38-1.34-8.76-1.47-13.29.89.09 42.2-1 50.13-1 9.17 0 19.81-1.29 28.27 2.49 3.43 1.55 7.77-6.31 4.5-7.78z" fill="#fff" opacity=".2"/><path d="M288.56 47.56c0-6.07.3-12.32-.81-18.33-.66-3.59-1.63-4.19-5.21-4.59-15.16-1.69-31-.57-46.23-.57-6.59 0-13.2-.07-19.79 0a153.82 153.82 0 0 0-15.91 1.08c-4.64.55-4.67 3.5-4.69 7.81v.12c-.48 5.69-1 11.35-.24 17 .54 4.16.79 6 4.94 6.62 8.29 1.3 16.63.33 25 .36 15.38.08 30.73.46 46.09.14l8.62-.16c1.71 0 4.31.4 5.9-.4 3.03-1.48 2.33-6.32 2.33-9.08zm-2.42 5.07c-1.38 3.76-11 2.27-14.45 2.34-12.69.24-25.35 0-38.08-.07-7.52 0-15 .45-22.46.5-2.6 0-5.21-.07-7.8-.28-3.31-.27-4.77-.08-5.64-3.5-1.49-5.93-.76-12.44-.35-18.47a.85.85 0 0 0 0-.17c.11-1.49.09-4.87 1.43-5.71.44-.28 1.27-.09 1.78-.22a38.39 38.39 0 0 1 6.35-.49c3.31-.23 6.63-.45 9.95-.47h14.69c12.34 0 24.7-.17 37 0 4.12.07 8.28.13 12.39.47 2.29.2 3.69-.08 4.43 2.15.85 2.51.78 5.76.85 8.4.08 2.82.09 5.66 0 8.48.1 2.09.61 5.14-.09 7.04z" fill="#f78100"/><path d="M293.06 92c-1.37-3.6-6.21 1.84-5.2 4.48.38 1 .63 15-1.82 18.28s-74.29 1.19-78.92 1.21c-2.92 0-5.78 6.87-2.58 6.86l42.12-.18c8.77 0 36.87.27 41.75-2.75 6.71-4.18 5.65-25.32 4.65-27.9z" opacity=".2"/><path d="M195.94 93.91c-.56-9.74 7.56-7.74 8.88-7.81 3.75-.2 71.61.28 75.21.45 1.55.08 5.51.13 6.52 1.39s3.51 20.16 0 25.94c-2.11 4.79-88.92 2.82-88.62.18-2.37-2.06-2.18-17.6-1.99-20.15z" fill="#f78100" opacity=".85"/><path d="M284.88 87.69c-15.52-.21-57.16-1-62.39-1.1-6.49-.09-14.35-1-20.69.88-2.75.82-5.36 3.85-4.5 6.72-.72 1.13-.82 13 .12 16.91.88 3.64 5.86-1.74 5.21-4.47-1-4.26-2.74-10.75 1.58-12.36s32.85-.09 38.6 0c13.16.1 26.32.15 39.49.33 2.92-.01 5.8-6.87 2.58-6.91z" fill="#fff" opacity=".2"/><path d="M289.06 103.14c-.44-4.31 1.13-10.57-.72-14.51-1.55-3.3-7-3.64-10.14-3.7-15.58-.3-31.21.06-46.79.06-6.65 0-13.31-.08-20 0-2.93 0-5.87.17-8.8.3-1.39.06-4.57-.37-5.73.56-2.24 1.81-1.61 8.68-1.72 11.19a.68.68 0 0 0 0 .15c-.35 4.83-1.19 11.8.95 16.3 1.55 3.27 5.23 3 8.41 3.33 6.44.6 13 .41 19.44.38 14.4 0 28.88.29 43.17.43 3.71 0 7.44-.32 11.14-.4 2.31 0 5 .26 7.16-.88 4.36-2.35 4.05-9.18 3.63-13.21zm-2.33 6.86c-1.27 5.29-4.82 4.89-9 5-3.5.06-7 .43-10.54.38-11.68-.18-23.37-.47-35.08-.42-6.22 0-12.44.08-18.65.22a82.72 82.72 0 0 1-11.13-.41c-4.74-.51-5.36-3.46-5.6-7.89a91.94 91.94 0 0 1-.09-9.68v-.12q.34-3 .76-6.08c.41-3 .09-3.44 3-3.63 4.61-.29 9.29-.37 13.89-.31 4.11.05 8.21.05 12.31.06h39.94c1.37 0 2.73 0 4.1.06 3.61 0 7.37-.46 10.94.23 4.9.94 5.05 3.86 5 8.1.01 4.59 1.23 10.02.15 14.49z" fill="#f78100"/><path d="M485.51 32.37c-.19-4.42-5.53.13-5.41 3 .19 4.32.11 17.46-1.77 18.26-2.41 1-157.87.93-171.26 1.1-2.92 0-5.76 6.9-2.58 6.86 50-.63 100 1.35 150-.05 2.71-.07 5.41-.3 8.11-.48 4.72-.31 12.83.23 17.24-1.65 8.81-3.78 6-19.27 5.67-27.04z" opacity=".2"/><path d="M296.59 33.34c-.07-10.38 7.57-7.74 8.89-7.81 3.75-.2 163.26-.72 166.87-.55 1.55.08 5.51.13 6.52 1.39s1.25 15.83 1.13 19.74c-.06 1.76-.72 6.54-1.63 8-1.67 2.7-162.6 1.25-164.73 1.34-3.61.16-13.77-.52-14.79-1.38-2.43-1.99-2.45-18.18-2.26-20.73z" fill="#f78100" opacity=".85"/><path d="M473.93 25.85c-13.5-.37-59.81.7-69.42.86-23.81.39-47.65 1-71.47.7-3.55 0-7.15 0-10.69-.38-5.15-.51-9.71-2.56-15.3-.52-7.35-1.65-14.55 13.49-7.21 25.85 1.56 2.63 5.9-3 4.65-5.66-1.12-2.38-1.36-10.72-1.29-11.23a6.61 6.61 0 0 0 4.48-3.07c3.32-.38 9.47 1.2 11.22 1.4 1.08.12 10 .46 13.41.49 10.67.1 125.07-2 139-1.57 2.96.08 5.86-6.78 2.62-6.87z" fill="#fff" opacity=".2"/><path d="M481.07 35.29c-.06-2.92.57-8.57-2.38-10.39-2.62-1.63-7.35-1-10.48-1-30.34-.12-60.67 0-91 0l-46.37.07h-12.09c-6.07 0-13-.44-18.81 1.17-3.85 1.05-3.91 4.63-4.08 8.21a.66.66 0 0 0 0 .15c-.36 5.65-.64 11.91.34 17.51.51 2.94 1.2 3.9 4 4.31 8.67 1.23 17.57.3 26.25.68 10.07.44 20.24.09 30.31.09q47.91 0 95.8-.15h7.11c5.25-.09 10.52-.08 15.75-.32 3.46-.17 4.79-1.53 5.35-5.06.85-4.99.38-10.28.3-15.27zm-2.62 15.77c-1.42 3.87-10.53 2.39-14.14 2.46-3 0-6 .12-9 .12q-42.21.06-84.4.17-19.15 0-38.31.19c-2.19 0-4.4.1-6.59 0-5.18-.14-10.39.09-15.59.06-2.37 0-4.75-.08-7.12-.23-2.94-.18-4.72.16-5.49-3.1-1.24-5.31-.79-11.87-.5-17.3a.37.37 0 0 0 0-.14c.17-1.92.22-5.2 2.15-6.31.8-.45 2.54-.32 3.46-.39 3.34-.28 6.7-.52 10-.65 1.57-.07 3.13-.07 4.69-.07h48.42q46.19 0 92.39.06h13.77c1.79.06 4.18-.18 5.45 1.17 1.64 1.77 1.14 6.3 1.16 8.65.09 4.68 1.25 10.97-.35 15.31z" fill="#f78100"/><path d="M484.34 90.79c-1.65-2.75-6.16 3.14-4.65 5.66-.47-.79 2.19 16.8-2.5 18.38-5.24 1.77-156.54 1.07-168.06.86-2.92 0-5.81 6.81-2.58 6.86 26.79.48 53.61.25 80.4.15 14.82-.06 72.32.76 85.63-1.32 4.44-.7 8.45-2.54 11.09-6.09 3.2-4.29 2.33-21.73.67-24.5z" opacity=".2"/><path d="M298.16 86c.53-.32 179.14-2.19 181.42.59 1 1.24.63 25.89-.28 27.36-1.67 2.7-16.39 1.81-20.07 1.94 0 0-157.93 2.19-160.62-.68-4.5-6.21-2.61-27.95-.45-29.21z" fill="#f78100" opacity=".85"/><path d="M474.62 87c-24.57-1.63-49.5-.39-74.09 0-26 .36-52 1.25-77.94.77-7-.13-19.78-4.57-23.22 4a36.93 36.93 0 0 0-1.3 19.79c.92 3.64 5.89-1.75 5.2-4.47a17.49 17.49 0 0 1-.32-4.15c0-1.86 1-8.43 3.82-9.27s11.91 1 17.45 1c10.82.07 21.65-.09 32.47-.23 27.94-.36 55.87-.92 83.81-1 10.5 0 21.06-.21 31.54.48 2.96.15 5.86-6.68 2.58-6.92z" fill="#fff" opacity=".2"/><path d="M480.79 98.57c0-3.52 1.23-9.52-.65-12.69-1.52-2.57-6.52-1.46-9.09-1.53-3.46-.08-6.91-.23-10.37-.28-27-.35-54 .22-80.92.31l-48.46.2-12.78.06h-2c-3.45 0-6.89-.05-10.33.09-2.29.09-5.61-.34-7.73.48-3 1.16-2.62 5.38-2.83 8.3a.47.47 0 0 0 0 .17c-.35 5.5-.74 11.65 0 17.11.49 3.78 1.92 4.89 5.44 5.4 8.2 1.19 16.53.55 24.76.86 9.33.36 18.75.1 28.08.09q48.88 0 97.77-.15h7.52c4.12 0 8.25.1 12.37-.17 2.54-.16 6.83-.1 8.49-2.48 1.12-1.61.72-4.36.73-6.16.02-3.18-.02-6.41 0-9.61zm-3.9 15.23c-3.71 1.83-9.91.93-14 .91h-7.76q-43.29.06-86.58.17-18.78 0-37.56.19c-2.2 0-4.37 0-6.56-.08-4.21-.16-8.4.15-12.6.17-4 0-12.9 1.06-14.47-3.58-.89-2.63-.29-6.44-.35-9.21s-.09-5.83.06-8.74v-.12c.15-1.4.13-3.61.77-4.92.77-1.59 1.18-1.56 3.07-1.78a80.2 80.2 0 0 1 8-.28c2.75 0 5.49 0 8.24.06h9.33q20.47 0 40.95-.09l87.64-.25h5.72c5 .09 10 .09 15 .43 3 .2 2.61 1.47 2.71 4.36.09 2.29 0 4.57 0 6.86.03 3.52 1.86 14.19-1.61 15.9z" fill="#f78100"/><path d="M192.31 93c-.5-5.3-4.89-2.33-5.71 1.39-.26 1.21 1.35 18.55-2.07 20.81-3.7 2.43-153.75 1.28-164.31 1-2.92-.07-5.83 6.78-2.58 6.86 28.31.73 56.67.31 85 .2 13.57 0 52.62-.34 58.58-.39 8.35-.08 22.6.88 29.29-5.32 3.4-3.1 2.21-20.14 1.8-24.55z" opacity=".2"/><path d="M9.18 94.69c.19-2.55.65-5.76 2.77-7.06.53-.32 170.94-3.28 174 .59s.93 23.22 0 24.7c-1.67 2.7-5.25 3.09-8.34 3.2-3.68.12-161.18 3-166.18-.8C9 113.31 9 97.24 9.18 94.69z" fill="#f78100" opacity=".85"/><path d="M182.67 87.69c-47.86-2-157-.5-163.62-.29-4.09.13-7 1-8.38 5.29-1.76 5.67-1.38 13.6-.1 19.43.8 3.63 5.81-1.74 5.21-4.47a27.44 27.44 0 0 1-.5-4.43c-.1-1.82-.1-3.64 0-5.46.1-3.29 0-3.45 3.22-3.55 10.64-.32 21.3-.48 31.95-.72 10.94-.25 21.87-.54 32.81-.5 23.26.11 46.52.47 69.77.9 9 .17 18.07.28 27.1.66 2.87.12 5.8-6.72 2.54-6.86z" fill="#fff" opacity=".2"/><path d="M188.11 98.82c0-2.95.74-8.89-1.44-11.37-2.5-2.84-10.73-1.86-13.81-2-1.89-.09-3.78-.19-5.67-.21-26.36-.24-52.74.22-79.1.32q-22.29.08-44.56.18c-10 0-21.32-1.06-31 1.09-4.2.93-4 4-4.09 7.85a.9.9 0 0 0 0 .16 103.36 103.36 0 0 0 .46 16.6c.48 3.66 1.82 4.86 5.22 5.37 8.24 1.25 40.78 1 48.68 1 31 0 61.9-.08 92.84-.15h10.23c3.41 0 6.56-.22 9.84-.33 4.14-.13 9.67.8 11.61-3.85 1.82-4.31.82-10.1.79-14.66zM180.29 115c-4.65.2-9.34.32-14 .4h-7.59q-41.5.06-83 .17c-11.57 0-23.15.27-34.71.2-4.78 0-9.52-.07-14.3 0-4 .1-10.11.73-13.72-.84s-2.5-6.77-2.59-10c-.09-3.41-.57-6.78-.49-10.19a.42.42 0 0 0 0-.12c.12-1.94-.18-4.73 2-5.9a11.12 11.12 0 0 1 3-.48 64.29 64.29 0 0 1 11.18-.6c1.56 0 3.12.06 4.69.06h9l37.68-.1 83-.24c2.49 0 5-.06 7.47 0 3.22.07 6.45.29 9.67.44 2.46.11 6.28-.49 7.76 1.89 1.24 2 .57 6.79.58 9.09-.02 5.22 1.74 15.88-5.63 16.22z" fill="#f78100"/><path d="M192.78 146.44c0-.54-.21-1.51-.83-1.75-2.3-.89-4.07 2.08-4.5 3.92a22.53 22.53 0 0 0-.31 3.19 1.92 1.92 0 0 0 .1.79v.42c-.23 3.85 0 8.32-.71 12.2a4.76 4.76 0 0 1-3.31 2.1 115 115 0 0 1-14.36 1.13c-4.36.12-8.71.15-13.07.21q-14.94.19-29.88.34-36.3.38-72.59.51c-9.86 0-19.72 0-29.57-.14-2.92-.05-5.81 6.8-2.58 6.86 25.59.45 51.21.08 76.81-.13q21.18-.17 42.38-.42c12.32-.14 24.87.25 37.13-1 3.94-.42 8-.48 10.65-3.76a14.93 14.93 0 0 0 3.74-9.1c.31-5 1.25-10.38.9-15.37z" opacity=".2"/><path d="M9.48 149.69c.19-2.55.44-8.07 8.88-7.8 3.75.12 157.92.28 161.53.45 1.55.07 5.51.62 6.51 1.88s1.44 19.74.53 21.22c-1.67 2.7-5.75 3.08-8.84 3.19-3.68.13-162.13 1.09-165.62.12-1.26-.35-3-3-3.06-6.24s-.13-10.26.07-12.82z" fill="#f78100" opacity=".85"/><path d="M183.07 142.47c-12.64-.76-57.73 1.47-67.68 1.48-18.55 0-80-.45-92-1.75-3.84-.41-7.58-1.68-10.36 1.68-2.57 3.1-3.24 17.4-2.49 19.69 1.19 3.63 6.08-1.8 5.2-4.48s.17-7.13.91-10.35c.32 0 5.79.5 8.07.71 5.54.49 11.11.77 16.67 1 5.91.19 80.28.47 100.38.33 12.94-.1 25.83-2.18 38.76-1.4 2.87.13 5.82-6.71 2.54-6.91z" fill="#fff" opacity=".2"/><path d="M188.62 154.28c0-3 .71-9.07-2-11.27-3-2.43-9.33-1.83-12.82-2-2-.1-4-.23-6-.25-26.51-.35-53.05 0-79.57 0H31.58c-5.93 0-12.58-.94-18.33.66-3.7 1-4.22 4.74-4.47 8.21a.62.62 0 0 0 0 .2c-.2 3.52-.09 7-.12 10.55 0 2.07-.22 4.39.59 6.36 1.33 3.23 4.45 3 7.51 3.35a125 125 0 0 0 12.69.45h34.59c31.23 0 62.45-.25 93.67-.4h8.9c4-.06 8.06-.32 12.1-.4 3.27-.05 7.85.36 9.43-3.28 1.48-3.46.51-8.46.48-12.18zm-2.2 6.37c0 3.69 0 6.49-4.62 6.82-4.89.35-9.92.33-14.83.41h-6.32q-41.49.17-83 .39-21.28.12-42.57.4l-8.43.11a93.79 93.79 0 0 1-10.47-.4 12.28 12.28 0 0 1-3.43-.44c-2.69-1.13-2.57-4.41-2.59-6.86 0-3.77-.17-7.54 0-11.3v-.12c.54-4.76 1.86-6.39 6.44-6.75 3.06-.24 6.14-.25 9.21-.23 1.62 0 3.24.06 4.87.07h9.28l38 .05q41.47 0 82.94.06c2.48 0 5-.05 7.44 0 3.48.07 7 .22 10.5.52 2.13.18 5.62.16 6.92 2.3s.57 6.77.58 9.1c.05 1.99.09 3.93.08 5.87z" fill="#f78100"/><path d="M293.33 148.44c.14-4.37-5.32.18-5.41 3-.13 4.3 1.14 13.69-.57 15.33-4.68 4.5-76.29 1.4-82.58 1.33-2.92 0-5.8 6.82-2.58 6.86q24.93.3 49.84.52c8.34.06 16.7.26 25-.35 3.68-.26 8.25-.27 11.33-2.62 6.26-3.63 4.82-19.41 4.97-24.07z" opacity=".2"/><path d="M287.73 160.88c-.2 2.55.35 5.26-1.77 6.56-2.36 1.54-86.07 3.88-88.34-.59s-.94-19.34 0-20.82c1.67-2.7 5.25-3.09 8.34-3.2 3.68-.12 74.84-1.22 79.08.8s2.88 14.7 2.69 17.25z" fill="#f78100" opacity=".85"/><path d="M282.15 143.86c-6.84-.49-61.82 0-68.95.15-5.68.15-12.39-.35-14.52 6.22-.15.46-2.57 10.24-2.05 12.74 2.19 10.41 7.79 2.64 7.47-.22-.17-1.48-.14-4.07-1.7-4.7.15-.1 6.24-5.91 6.84-7.29h7.57c7-.14 42.5-.91 44.54-1 6.26-.38 12 .58 18.22 1 2.91.16 5.87-6.67 2.58-6.9z" fill="#fff" opacity=".2"/><path d="M288.44 160.77c.35-4.62 1.13-11.4-.9-15.73-1.43-3-4.25-3-7.3-3.32-6.55-.7-13-.13-19.54-.16-14.39-.08-28.8-.4-43.19-.25-5.15.05-10.52-.07-15.63.45-4.6.46-6 3.26-6.39 7.53a114.35 114.35 0 0 0-.15 13.09c.12 3.75.33 5.83 4.33 6.58 6.92 1.31 14.45.85 21.52.84h45.71c5.17 0 10.41.3 15.52-.57 6.06-1 6.25-2.4 6.1-8.33a.45.45 0 0 0-.08-.13zm-2.95 6c-.67.4-2.17.33-3 .46-3.11.51-14.3.55-16.81.54h-15.95c-11.41 0-22.84.21-34.24-.05-4.4-.1-8.89-.2-13.27-.62-3.57-.34-4.58-1-4.71-4.69-.09-2.35.1-4.7.11-7 0-5.18-.19-11.21 6.94-11.35 4.35-.08 8.7-.35 13-.38 12-.1 24 .13 35.93.17 4.76 0 9.61.29 14.35-.14a63.59 63.59 0 0 1 14.46.19c6.33.85 5 11.94 4.67 16.88a.53.53 0 0 0 0 .18c-.06 1.69.37 4.69-1.48 5.81z" fill="#f78100"/><path d="M485.87 149.12c-.08-4.41-5.46.14-5.41 3 .07 4.2.11 12.19-1.3 14.21s-163.31 1.55-174.39 1.51c-2.92 0-5.79 6.85-2.58 6.86 25.39.09 50.78.42 76.17.49 13 0 73.88-.25 91.26-.91 6.41-.24 14.44-2 15.71-9.34.9-5.13.67-10.63.54-15.82z" opacity=".2"/><path d="M295.63 150.76c.19-2.55 1-5.95 3.27-7 6.74-3.35 170.12-1 173.72-.8 1.55.08 5.52.13 6.52 1.38s.93 20.56 0 22c-1.67 2.7-173.26 3-176.74 2-1.27-.35-3.55-.79-4.57-1.65-2.38-1.97-2.39-13.37-2.2-15.93z" fill="#f78100" opacity=".85"/><path d="M476.35 145.58c-3.84-1.59-11.46-2.26-13.33-.59-1.7-.12-3.4-.24-5.1-.34-6.56-.38-27.41.57-31.33.54-11.75-.09-23.49-.32-35.24-.53-25.64-.45-51.31-1.22-77-1-4 0-9.87-.64-13.19 1.86-5.89 4.44-4.05 13.52-2.64 19.56.85 3.63 5.85-1.74 5.21-4.47a33 33 0 0 1-1.26-7.56c0-2.95 1.87-2.34 4.27-2.44 3.46-.14 33 .08 44.25.26 24 .37 48 1 72 1.17 3.94 0 24.2-.91 30.43-.64 6.59.29 13.11 1.09 19.72.85 2.18-.07 6.18-5.44 3.21-6.67z" fill="#fff" opacity=".2"/><path d="M481.41 155.59a1 1 0 0 0-.05-.26c.12-3.5.62-8.43-.94-11.38-1.18-2.24-4.1-2-6.37-2.19-4.75-.35-9.54-.43-14.31-.44H316.3c-5.74.07-13.52-.53-18.77 2.15a.68.68 0 0 0-.3.28c-2.71 2.27-2.19 4.5-2.18 8 0 4.41-.51 10 1.2 14.22.89 2.2 2.05 2.22 4.28 2.43 4.6.42 9.25.49 13.87.65 9.17.32 18.26.49 27.44.49 35.16 0 70.32-.31 105.48-.52 4.1 0 8.21 0 12.31-.07 2.51-.05 5-.18 7.52-.26 3.16-.12 7.62.82 10.6-.43 4.47-1.78 3.55-8.76 3.66-12.67zm-13.34 10.9c-3 .11-6 .25-9.06.29-3.5.05-7 0-10.5.06q-22.47.1-44.94.24c-25.92.15-52 1.22-77.91.58-6.83-.17-14.22-.37-21.23-.66-1.37-.06-4.49.32-5.7-.39-1.76-1-1.69-4.86-1.84-6.62-.34-3.89-2-12.19 1.36-15.14 3.2-1.48 7.07-1 10.5-1.22 2.52-.16 5-.3 7.54-.31H370.06l84.81.06h6.57c4.68.08 9.45.07 14.1.59 3.46.38 3.19 1.65 3.43 5.09.16 2.38.16 4.77.13 7.15a1 1 0 0 0 0 .25c-.05 1.7-.11 3.4-.27 5.09-.5 5.8-6.44 4.79-10.76 4.94z" fill="#f78100"/></svg>