<svg xmlns="http://www.w3.org/2000/svg" viewBox="0 0 490 216"><path d="M486.72 32.42C486.87 28.56 506 13.87 352.9 22c-78.84-1.45-274.22.81-295.18-1C6.89 8.79 3 38.62 5.63 44.8c-.34.74-3.47 29.49.46 59.81.46 12.55 1.24 58.62-2.31 67.28C2 176.21.19 190.09 7.13 190.5c26.18 1.53 401.23 9.58 402.1.79l61.3 3.18c23.71.24 14.6-62.46 14-85.72-.67-23.75 3.01-75.07 2.19-76.33z" fill="#fff"/><path d="M486.36 172.16c.05-8.51-.05-17-.07-25.52q-.12-41.76-.19-83.5c0-8-.1-16-.05-24 0-4.93 1.47-11.24-2-15.29a7.38 7.38 0 0 0-5.22-2.46c-4.69-.59-9.5-.63-14.22-.79-8.6-.28-117.09-.14-162.72-.13H129.45c-32.11 0-64.23.13-96.35.08h-4.06c-7.11 0-21.35-2.23-23.21 7.42a1 1 0 0 0 0 .24 111.72 111.72 0 0 0-.24 12c-.16 23.66-.2 47.31-.28 71-.07 23-.88 46.1-.16 69.07.08 2.71 0 6.86 1.76 9.17 2.15 2.85 7.19 2.71 10.4 3.16 4 .56 13.55.68 14.31.67H67c41.16 0 301.41 0 390.35-.85 5.94-.05 12 0 17.91-.47 3.62-.3 8.33-.91 9.95-4.73 1.79-4.43 1.12-10.29 1.15-15.07zm-2.86 11.76c-1.77 5.59-5.39 5.58-9.87 5.82-13.57.7-92.11.53-117.78.58-41.68.09-222 .51-270.48.65-16.69 0-59.73.29-61.58.21-5-.23-14.75.16-16.26-5.79-.88-3.49-.53-7.39-.53-11-.13-37.72-.28-133.81.1-144.09 0-.62 0-1.24.1-1.86v-.06c1.79-8.73 18.26-6 24.87-6h15.57l51.54.06 313.62.08h46.23c4 .05 8 .22 12 .42 6.58.32 12.5-.38 13 8.33.18 3.05-.2 6.2-.2 9.28.08 43.92.57 87.87.21 131.79.06.57-.22 10.56-.54 11.58z" fill="#1e1e1e"/><path d="M192 21.27c-1.41 18.2-.84 36.75-1 55q-.18 23.12-.14 46.23 0 29.85.54 59.69c0 3 .23 7.42.29 9.74a1.28 1.28 0 0 0 2.55 0c-.93-35.28-.91-72.86-.74-108.84.1-20.54 1.29-41.3.44-61.82a1 1 0 0 0-1.95 0zM291.52 22c-1 18.22-.09 36.69-.1 54.93q0 23-.12 46.06-.17 29.64-.55 59.29c-.05 3 0 7.37-.06 9.65a1.28 1.28 0 0 0 2.55 0c.6-35.08.75-72.42.73-108.2 0-20.48.85-41.29-.5-61.73a1 1 0 0 0-2 0z" fill="#1e1e1e"/><path d="M483.17 81.5c-15.41-.37-30.82-.52-46.23-.66q-23.43-.2-46.87-.21-34.21 0-68.45.08-56 .15-111.91.39-88.26.34-176.5.72L5.92 82a1.25 1.25 0 0 0 0 2.5q93-.3 185.94-.8 59.35-.25 118.73-.46 36.3-.12 72.61-.14 24.21 0 48.42.13c15.05.08 30.11.34 45.16.27h6.39a1 1 0 0 0 0-1.92zM484.75 136.1c-16.73.29-33.45.84-50.18 1.23q-24.54.57-49.09.76c-23 .18-45.9.17-68.85.12q-55.32-.12-110.65-.47-86.38-.48-172.76-1l-27.3-.15a1.25 1.25 0 0 0 0 2.5q91.08.64 182.15 1.07 58.69.31 117.39.51c24.29.06 48.59.09 72.88-.07 16.81-.11 33.62-.32 50.43-.72 16.28-.38 32.58-.72 48.85-1.49 2.37-.12 4.75-.22 7.13-.33a1 1 0 0 0 0-1.92z" fill="#1e1e1e"/><path d="M193.06 34.1c.21-4.35-5.27.19-5.4 3-.31 6.49 1.29 38.36-1 40.26-3.42 3-151.53 2.32-166.34.94-2.9-.27-5.89 6.56-2.58 6.86 14 1.3 131.71.39 145.92.32 7.42 0 19.52 1.73 25.27-3.06 8.4-5.87 3.74-40.09 4.13-48.32z" opacity=".2"/><path d="M187.88 72.71c-.19 2.56-.75 4.57-2.87 5.87-.53.32-164.1.16-167.7 0-1.56-.08-6.06 0-7-3.25-1-1.26-.41-44.49.51-46 1.66-2.7 5.75-3.08 8.83-3.19 3.68-.13 156.9-2 165.06.29 2.4 2 3.69 7.63 3.79 10.83s-.43 32.9-.62 35.45z" fill="#f78100" opacity=".85"/><path d="M183.31 26.72c-3.86-1.58-164.8-.29-166.87.56-4.13 1.69-4.79 5.8-5.16 9.77a358.64 358.64 0 0 0-1.49 39.33c.08 4.41 5.46-.14 5.41-3-.2-10.88.71-38.75 1.8-39.91s35.63-1.23 46.28-1.29c25.69-.14 97.65.73 100.61.69 4.78 0 11.18-1.5 15.69.34 2.89 1.19 6.42-5.38 3.73-6.49z" fill="#fff" opacity=".2"/><path d="M188.55 64.89c.14-6.06.47-12.13.49-18.19 0-3.72-.07-16.14-1.07-18.23-1.52-3.19-5.78-3.18-8.87-3.5-10.59-1.1-104-.44-136.44-.36-3.8 0-19.19.17-23.06.41-3.44.22-8.34.27-9.74 3.94-2 5.23-1.21 12.44-1.25 17.93 0 4-.31 21.71.2 26.59.42 3.92 1.39 5.46 5.45 6 10.64 1.31 72.93.48 89.73.42 16.29-.07 71.73-.25 75.74-.44 1.79-.08 4.86.37 6.43-.56 4.05-2.38 2.41-10.28 2.42-13.83a.66.66 0 0 0-.03-.18zm-4.33 12.41c-2.32.9-6.53.35-9 .38-2.73 0-5.47-.05-8.21-.06-3.19 0-111.08.6-137.4.39-1.31 0-2.61-.07-3.93-.13-3.38-.16-6.81-.17-10.19-.48-4.49-.4-4.59-3.21-4.69-7.24-.21-7.71.22-28.31.32-30.83.13-3.09-.73-9.4 2.51-11.06C18.06 26 25.86 27 30.71 26.91c2.64 0 74.64-.13 104.61-.21 7.71 0 15.48-.36 23.19-.12 4.13.12 8.23.08 12.37 0s12.05-.91 14.81 2.43c2.06 2.47 1.73 15.48 1.74 18.14 0 3.24-.24 15.08-.3 17.76a.66.66 0 0 0 0 .15c-.13 3.49 1.31 10.6-2.91 12.24z" fill="#f78100"/><path d="M293.63 59.67c.12-9-.9-17.88-.54-26.95.18-4.37-5.29.18-5.4 3-.32 7.73 2.07 39.15-2 41-2.81 1.27-56.64.87-80.08.9-2.93 0-5.79 6.87-2.59 6.86 24.61 0 49.43.88 74-.37 5.25-.27 10.54-.26 13.73-5.1 3.53-5.36 2.8-13.29 2.88-19.34z" opacity=".2"/><path d="M198.63 27.32c3-2.45 84.81-3.14 87.87-.12 2.25 3.71 1.93 47 1 48.52-3.34 4.47-81.8 3.19-88.48.9-3.32-1.93-3.38-46.85-.39-49.3z" fill="#f78100" opacity=".85"/><path d="M286.28 28c-9.72-4.34-84-2.08-86.73.58-5 4.86-3.88 37-.94 45.25 1.53 4.35 7.37-2.17 6.24-5.36-2.63-7.44-2.48-15.07-2.21-22.85.07-2.24.16-4.48.16-6.72a40.57 40.57 0 0 1-.3-4.5c.23.17 16.88-.89 24.36-1 8.61-.12 17.22-.14 25.84-.11 9.39 0 20.43-1.37 29.08 2.5 3.43 1.55 7.77-6.32 4.5-7.79z" fill="#fff" opacity=".2"/><path d="M289 35.65c-.23-3.53.23-9-3.87-10-5-1.26-10.79-.78-15.87-.85-7.3-.11-14.62 0-21.92 0h-29.29c-4.9 0-9.79.42-14.66.88-1.32.12-3.58-.05-4.79.66-2.53 1.48-2 4.92-2 7.35a.7.7 0 0 0 0 .14c-.68 9.85-.44 19.79-.78 29.66-.12 3.58-.83 12.33 2.89 14.43 1.81 1 5 .87 7 1a71.46 71.46 0 0 0 8.9.16c17.46-.91 34.95.52 52.39-.11 5.7-.2 11.41-.1 17.1-.37 5-.24 5.09-3.71 5.13-8.1.12-11.58.58-23.29-.23-34.85zm-1.69 23.83c-.13 3.41-.34 6.83-.37 10.24 0 3.19.56 6-3.33 6.62-5.19.75-46.34 0-61.46.09-4.72 0-9.39.58-14.12.38-2.31-.1-7.36.38-8.86-1.41-2.2-2.63-1.51-9.66-1.44-12.88.19-9.55-.23-19.16.26-28.7a.37.37 0 0 0 0-.15c.11-1.55.13-4.94 1.58-5.75a8 8 0 0 1 2.42-.26c2.78-.27 13.84-.89 16.58-.89 7.59 0 51.93.12 54 .17 2.67.07 5.34.12 8 .3 3.26.21 5.07-.15 5.73 3.25 1.08 5.53.38 11.14.66 16.71.24 4.1.54 8.17.38 12.28z" fill="#f78100"/><path d="M293.82 93.78c-.05-4.41-5.44.14-5.4 3 .3 23.34.4 29.83 0 31.85-.41 2.37-6.46 5.82-5.77 5.77-2.67.39-65.5-.23-74.91-.19-2.92 0-5.78 6.37-2.58 6.36 22.39-.1 72.69.05 75.27-.33a15.42 15.42 0 0 0 13.35-13.7c1.22-13.35.22-20.48.04-32.76z" opacity=".2"/><path d="M198.24 87.8c1.84-1.09 85.43-3.6 89.19 1.67 2.17 2.47 1.59 40.32 0 43.14-2.42 3.85-83.3 2.17-86.78 1.2-1.27-.35-2.2-2.1-3.22-3-2.37-1.97-2.23-41.81.81-43.01z" fill="#f78100" opacity=".85"/><path d="M285.54 88.78c-15.52-.21-76.74-2.11-83.08-.22-2.77.83-5.4 3.9-4.48 6.79a14 14 0 0 0-1.44 3.06c-.9 2.79 0 24.1 1.54 31 .8 3.63 5.81-1.74 5.21-4.47-2.66-12.17-1.64-7.46-1.73-14.34-.06-4.6-.74-13.65 3.43-15.27s32.73 0 38.48 0c13.16.09 26.32.14 39.49.32 2.92.03 5.8-6.83 2.58-6.87z" fill="#fff" opacity=".2"/><path d="M289.35 101.05c0-3.29 1.09-8.29-.4-11.31-1.2-2.45-4.67-3.15-7.16-3.51-5.43-.78-11.3-.13-16.84-.13-14.34 0-54.38 0-60.06.23-2 .07-6.31-.63-7.78 1.13-1.73 2.07-1.24 10.76-1.23 10.82-.54 10.64-.79 15.27-.52 22.07.14 3.52-.38 8.29 1.24 11.53 1.38 2.76 3.57 2.84 6.39 3.17 5.06.57 64.06.86 68.41.7 4.16-.15 10.56.87 14.48-1 3.19-1.54 3.82-5.42 4.05-8.64.83-11.57-.46-14.27-.58-25.06zm-1.64 23.67c-.13 3.42-.49 7.38-4.55 8.34-2.55.6-75.89.15-79.07-.16-2.69-.27-4.68 0-5.82-3-.92-2.42-.54-5.56-.65-8.1-.48-10.68-1-12.56-.32-23.57v-.13c.25-2.53-.06-8.28 1.9-9.61 1.79-1.22 7.67-.33 10-.4 4.23-.13 56.27 0 59.94.08 3.23 0 6.48-.16 9.71 0 2.43.09 6.89.22 8.26 2.89.92 1.78.23 6.09.18 8-.21 9.78.58 21.68.42 25.66z" fill="#f78100"/><path d="M486.46 33.06c-.24-4.43-5.56.12-5.4 3 .34 6.32-.17 26.14-.2 29.78 0 2.84.24 9.77-2.58 11-1.71.74-154.55.49-168 .66-2.92 0-5.76 6.9-2.58 6.86 26.85-.34 129.61 1 154-.84 4.83-.36 16.73-.14 20.6-3.62 5.7-5.2 4.7-37.47 4.16-46.84z" opacity=".2"/><path d="M299.22 26.75c3.94-1.55 179.42-2.57 180.6.3 1 1.26 1.93 46.43 1 47.9-1.67 2.7-6.25 2.09-9.34 2.2-3.68.13-169.82 2-172.53-.3-2.37-2.02-3.53-47.05.27-50.1z" fill="#f78100" opacity=".85"/><path d="M474.88 26.54c-13.24-.36-119.22 1.88-142 1.55-3.37-.05-20.45-2.23-24.83-.77a2.42 2.42 0 0 0-.35-.12c-8.26-1.85-8.18 12.79-8.57 17.39-.8 9.38-2.78 21.72 1.36 30.53 1.3 2.76 5.9-3 4.65-5.67-2.47-5.25-1.45-13.3-1.2-18.94.13-3 1.12-14.47 1.14-14.7a6.55 6.55 0 0 0 3.24-2.71c3.35-.39 13.22 1.57 14.2 1.63 3.34.19 30.31.22 40.46.09 20.59-.26 95.6-1.79 109.31-1.42 2.93.08 5.83-6.77 2.59-6.86z" fill="#fff" opacity=".2"/><path d="M481.06 27.12c-1.4-2.66-5.28-2.45-7.9-2.53-28.3-.89-156.49 0-157.64.07-3.63.09-7.28.43-10.9.71-1.61.13-4-.05-5.46.75-4.55 2.45-2.6 11.75-2.61 15.58 0 0-.41 16.56-.19 24.83.07 2.9-.68 9.37 2.37 11.17s9.82 1 13.38 1c11.51.05 147 0 149.9-.1 5.05-.12 11.06.75 16-.33 3.73-.82 3.87-4.82 4-8 .42-9-.16-17.85-.11-26.86.04-4.64 1.39-12.04-.84-16.29zm-1.3 43.11c-.17 3.22-.16 5.47-3.8 5.84-2.7.27-5.53.11-8.24.16-3.82.07-7.64.16-11.46.17-30.19 0-66.66.11-96.84.19-10.61 0-21.27.4-31.88.15-7.85-.18-15.73.32-23.6-.16-2.92-.18-4.67.16-5.42-3.06-.8-3.4-.51-7.29-.64-10.76-.14-4-.15-7.93-.07-11.92.06-3 .11-6 .19-9v-.15c.14-3.71-1-9.52 1.31-12.69 1.59-2.19 5.06-1.73 7.72-1.89 3.64-.23 7.25-.5 10.89-.5h9.36c14.23 0 110-.06 140.51.08 2.52 0 8.18-.65 10.24.59 3.59 2.15 1.57 14.11 1.62 17.72.05 3.41.31 6.83.45 10.24.26 4.98-.1 10.02-.34 14.99z" fill="#f78100"/><path d="M486 93.21c-.16-4.42-5.51.13-5.41 3 .41 11.48.41 33.28.1 34-1.52 3.7-7.14 3.51-10.37 3.72-15.9 1.05-143.83.87-160.53.57-2.92-.05-5.81 6.81-2.58 6.86 35.47.64 155.6.13 164.82-.94 17.88-.68 14.28-13.65 14.47-18.32.4-9.48.03-13.95-.5-28.89z" opacity=".2"/><path d="M298.45 87.31c2.93-1.27 180.26-1.78 181.91.33 1 1.26 1.39 43.1.48 44.58-1.67 2.7-16.65 2.36-20.33 2.49 0 0-160.22.18-161.24-.68-.27-.23-2.25-4-2.25-4s-.45-41.56 1.43-42.72z" fill="#f78100" opacity=".85"/><path d="M475.89 88.11c-14.26-.94-139.33 1.14-154.13.69-5.26-.16-12.16-2.38-17.26-.55-3.66 1.31-4.72 4.77-5.24 8.25a124 124 0 0 0-.64 33.15c.61 4.42 5.8-.12 5.41-3-2.07-15.25-.13-31.38.49-32.94 0 1 13.23 1.93 15.73 2 33.32.67 66.73-.74 100.06-1.08 15.42-.16 37.6-.66 53 .36 2.91.18 5.87-6.66 2.58-6.88z" fill="#fff" opacity=".2"/><path d="M482.54 111.73c0-2.59-.07-5.18-.1-7.77-.15-11.1-.28 23.32-.41 12.22-.11-8.59 1-18.25-.13-26.71-.7-5.37-11.6-3.88-16.19-4-3.63-.09-7.27-.25-10.9-.28-14.8-.15-29.63.11-44.43.16q-33.66.14-67.3.27-10.79 0-21.56.09h-4.17c-2.55 0-5.1-.06-7.66 0-3 .06-7.76-.42-10.66.58-4.55 1.57-3.1 8-3.06 10.58s-.24 11.69-.18 12.28.1 8.58.18 12.63-1.34 11.38 3.57 13.09c4.72 1.64 11 1.19 15.9 1.07 3.84-.1 7.65 0 11.48.11 36.83.94 73.81-.11 110.65-.19h31.94c3.19 0 10 .46 12-2.89 1.38-2.36.6-6.41.69-9 .1-3.97.31-8.34.34-12.24zm-2.25 0c0 3.14-.2 6.79-.31 9.92-.08 2.63.87 9.3-1.35 10.86-2 1.4-6.22 1-8.56 1.07-2.79.07-5.58 0-8.37 0h-17q-55.73.09-111.44.23c-4.33 0-8.66-.21-13-.17a154.54 154.54 0 0 1-16.53-.25c-1.08-.1-3 0-4-.57-2.21-1.33-1.8-5.13-1.81-7.27 0-4.26-.23-1.17-.18-17.61v-5.66c.09-2.56-.13-5.13.08-7.68.07-1 .2-5.09 1-6 1.58-1.76 8.64-1 10.8-1h24.82l60.34-.16 60.25-.17c4 0 8 0 12 .14 3.33.09 6.7 0 10 .26 2 .15 2-.24 2.59 1.75.44 1.43.19 3.47.2 5 0 4.21-.22 8.42-.2 12.63.24 16.55.83-11.91.67 4.64z" fill="#f78100"/><path d="M192.59 93.35c-.05-4.41-5.44.14-5.4 3 .15 11.46.35 19.78.29 22.73-.08 3.75 1.15 10.12-2.29 12.38-4.81 3.17-145.48 2.46-162.62 2-2.92-.08-5.82 6.78-2.58 6.86 35.54.92 158.38-.3 164-2.07 11.83-3.75 8.73-13.5 8.92-22.19.14-7.74-.12-7.89-.32-22.71z" opacity=".2"/><path d="M9.53 95.78c.2-2.55 4.35-7.86 6.94-8.06 1.28-.36 167.73-1.87 170.09 1.59 2.35 6.91 1.46 37.36.54 38.84-1.66 2.7-4.28 5.09-7.37 5.2-3.68.13-161.14 1-162.16.17-5.34-1.58-7.5-8.1-7.6-11.3s-.63-23.88-.44-26.44z" fill="#f78100" opacity=".85"/><path d="M183.33 88.78c-30.25-1.27-137.72-.88-158-.42-4.66.1-15.86-2.66-15.06 12-.35 7.25-1.3 10.28.53 26.73.5 4.42 5.73-.12 5.41-3a188.36 188.36 0 0 1-.48-29.32c.46.47 3.22.54 3.06.52 2.47.37 83.68-1.22 118.49-.64 14.48.24 29 .36 43.45 1 2.93.12 5.86-6.73 2.6-6.87z" fill="#fff" opacity=".2"/><path d="M188.71 101.59c0-3.55.86-9.15-1-12.33-2.33-4-12.49-2.6-16.09-2.77-1.61-.07-34.75 0-49.75.06l-87.41.34c-6.6 0-14.58-1.56-20.6 1-6.37 2.73-5 10-5.05 15.54v1.17c0 16.05-1.48 23.31 3.36 27.31 6 4.94 15.75 2.43 22.7 2.67 2.11.08 4.13.45 6.23.47 35.05.34 120.85-.15 125.52-.21s9.85.11 14.57-.64c7.42-1.19 7.46-6.77 7.68-13.07.33-7.64-.17-16.13-.16-19.54zm-2 17.93c-.06 1.81 0 3.75-.2 5.55-.6 4.39-2.59 6.65-6.94 7.07-4.08.39-8.3.39-12.4.45h-9.26q-51.48.07-102.94.22c-3.06 0-12.52.22-15.58 0a67.67 67.67 0 0 0-10-.19c-5.16.4-13 .88-16.43-3.48s-2.31-12-2.4-17.35c-.08-5.61-.29-8.37-.29-8.37s-.94-12.82 6.1-14.25c4.43-.9 9.27-.37 13.76-.34h2.29l21.62-.05 55.07-.16 50.28-.16c3.13 0 6.27-.09 9.4 0s6.25.29 9.37.43c4.43.21 7.7-.4 8.18 4.89.3 3.26.17 6.55.17 9.82.06 7.88.38 11.4.22 15.92z" fill="#f78100"/><path d="M193.2 149.75c-.57-4.42-5.78.12-5.41 3 .29 2.18.31 26.48-.64 31.27a20.82 20.82 0 0 1-4.76 3.18c-3.83 1.58-149 1.17-158.61 1-2.92-.06-5.81 6.8-2.58 6.86 28.35.5 147.93-.76 155.38-1.44 3.51-.32 8.13-.2 11-2.59a16.67 16.67 0 0 0 4.53-6.91c1.35-4.77 1.41-31.93 1.09-34.37z" opacity=".2"/><path d="M9.54 150.65c.19-2.55 3.13-6.5 5.26-7.8 2.62-.54 162.14.28 165.75.45 1.55.07 5.91 3.68 6.91 4.94s.54 34.56-.37 36c-1.67 2.7-5.25 3.09-8.34 3.2-3.68.12-159.44 1.32-162.92.35-1.27-.35-6.25-7.28-6.35-10.47s-.13-24.12.06-26.67z" fill="#f78100" opacity=".85"/><path d="M183.73 143.43c-12.39-.75-56.16 1.47-65.7 1.48-17.56 0-82.9-.49-94.62-1.75-3.63-.39-7.29-1.67-10 1.35S10 152.14 10.23 156c0 .55-.22 17.49.22 25.65.24 4.42 5.57-.13 5.41-3-.53-9.8-.95-19.57.89-29.25.78.1 6.68.87 9 1.06 5.22.44 34 1.16 39.8 1.21 7 .05 58.77.14 77.64 0 12.68-.1 25.31-2.16 38-1.39 2.87.19 5.81-6.65 2.54-6.85z" fill="#fff" opacity=".2"/><path d="M189.2 165.74c-.07-4.93.31-9.9-.27-14.82-.42-3.53-.73-6.12-4.2-7.51-4.68-1.88-10.45-1.59-15.38-1.7-24.8-.53-49.68 0-74.48 0H37.78c-5.77 0-20.64-1.73-25.63 1.66-4.69 3.19-3.45 10.12-3.56 14.9a.58.58 0 0 0 0 .19v9.68c0 4.44-.84 9.62.84 13.83 3 7.54 11.31 7.53 18.11 7.46 10.31-.12 137.08-.44 139.9-.49 7.56-.14 20.72 1.88 21.71-8.47.54-4.8.12-9.84.05-14.73zM187 179.2c-.86 6.8-4.59 7-10.12 7.21-3.08.11-13.34.33-15.4.34-27.53.12-116 .63-129.41.8-4.61 0-10.36.91-14.61-.55-8.34-2.86-7.18-11.31-7.3-18.48-.06-3.36-.12-6.72-.15-10.07a.53.53 0 0 0 0-.12c.23-3.82-.74-9.92 2.43-12.82 2.73-2.49 8.16-1.82 11.55-1.83 2.2 0 4.4.06 6.6.07l54.41.05q39.93 0 79.85.06c3.21 0 6.35.09 9.56.26 2.57.14 5.42 0 7.89.8 4.21 1.43 4.27 4 4.57 7.92.36 4.58 0 9.23 0 13.82.13 4.1.68 8.5.13 12.54z" fill="#f78100"/><path d="M294.17 175.69c-.13-8.78-.45-17.51-.18-26.29.13-4.37-5.32.17-5.41 3-.23 7.39-.15 31.31-.87 33.66-1.85 3.68-76.15 1.46-82.28 1.38-2.92 0-5.8 6.82-2.58 6.86 16.62.21 66.54.78 74.86.18 3.68-.27 8.25-.28 11.33-2.63a20.75 20.75 0 0 0 3.25-4.69c1.83-3.69 1.94-7.4 1.88-11.47z" opacity=".2"/><path d="M288.39 180.23c-.2 2.55.35 5.25-1.77 6.55-2.14 2.18-86.15 2.72-88.34-.58-1-1.26-2.12-35.89 0-39.21 1.67-2.7 5.25-3.09 8.34-3.2 3.68-.13 77.24-.67 79.08.8 4.3 3.65 2.88 33.08 2.69 35.64z" fill="#f78100" opacity=".85"/><path d="M282.81 144.69c-6.84-.48-61.82 0-68.95.16-5.68.14-12.39-.36-14.52 6.22-.2.6-2.37 6.92-2.4 8.7-.14 8.28 1.59 17 2.41 25.2.44 4.44 5.69-.11 5.41-3-.45-4.48-1.58-20-2-22.9h.09a40.92 40.92 0 0 1 7-3.63 8.61 8.61 0 0 0 3.25-3.8c2.18 0 46.87-.94 48.91-1.06 6.26-.38 12 .58 18.22 1 2.91.18 5.87-6.65 2.58-6.89z" fill="#fff" opacity=".2"/><path d="M289.09 172.55a.61.61 0 0 0 0-.13c.19-4 .47-7.88.38-11.86s1.39-13.68-2.6-16.64c-2.73-2-8.6-1.59-11.77-1.73s-6.56.31-9.86.34c-15.64.13-31.29-.39-46.93-.27-5.24.05-10.84-.15-16 .49-6.19.77-6.07 6.18-6.27 11.28-.22 5.61 0 10.86.21 16.42.18 4.65-1.45 10.74.23 15.18 1.46 3.88 7.81 3 11.14 3.14 3.65.16 7.29.38 10.93.37h49.16c6 0 12 .3 17.91-1 6.38-1.41 3.51-10.77 3.47-15.59zm-1.58 10.22c-.56 4.12-4.33 4-8 4.27-4.07.31-8.19.09-12.27.07-5.92 0-45.1.22-58.74-.42-2.38-.11-7.84.45-9.48-1.36s-.85-6.3-.79-8.65c.09-3.8 0-7.39-.25-11.16-.33-5.44-1.63-18.9 5.24-20.56 2.93-.7 6.8-.14 9.82-.25 1.67-.06 3.35-.14 5-.15 13.84-.13 27.69.16 41.53.19 6.74 0 13.45-.73 20.17-.22 3.74.28 6.31.14 7.44 4.38.95 3.55.48 8 .63 11.65.16 4 0 7.88-.18 11.83v.16c-.19 3.33.37 6.93-.12 10.22z" fill="#f78100"/><path d="M486.62 150.08c0-4.41-5.43.14-5.41 3 .08 9.65.15 19.32-.27 29 0 .19-3.22 4.31-4.12 4.5-3.07.64-158.1.85-171.39.8-2.92 0-5.79 6.85-2.58 6.87 29.2.1 58.4.55 87.6.49 13.28 0 26.51-.55 39.78-.76 12.32-.2 31.4 1.27 43.64-.36 5.51-.73 11.2-3.2 12.1-9.14 1.68-11.19.74-23.15.65-34.4z" opacity=".2"/><path d="M299.06 144.67c7.93-3.34 173.43-2.43 180.83.58 2.31 4.19.94 39.11 0 40.58-1.28 2-175.51 4.81-180.91-.6-4.2-3.23-3.41-37.64.08-40.56z" fill="#f78100" opacity=".85"/><path d="M477.1 146.54a22.89 22.89 0 0 0-11.56-1.65 2.91 2.91 0 0 0-1.76 1.06c-1.39-.1-22.68-.37-28.93 0-4.37.23-8.71.28-13.08.24-11.24-.08-83.34-1.83-108.13-1.51-4.81.07-9.66-.12-12.9 4.27-5 6.76-2.56 28-1.62 35 .6 4.42 5.8-.12 5.41-3-.73-5.36-1-21.57-.72-24.28.09-1.05-.13-3.18.46-4s.58-.62 1.92-.91c2.79-.58 88.43 1.16 112 1.38 4.07 0 30.71-.91 36.94-.6s12.49 1 18.79.81c2.16-.21 6.16-5.58 3.18-6.81z" fill="#fff" opacity=".2"/><path d="M482.55 166.5c-.14-2.32-.58-4.45-.53-6.81.07-3.83 1.18-10.82-1.07-14.25s-9.72-2.74-13.15-2.9c-2.24-.1-4.46-.23-6.7-.25h-17.71c-16.13 0-100.44-.19-126.45.09-5.69.06-13.52-.52-18.75 2.14a.61.61 0 0 0-.34.37c-1.64 1.71-1.65 5.14-1.85 7.3-.41 4.34-.42 19.41-.33 22.57.09 3-.27 8.5 2 10.92s7.12 2.45 10.12 2.68c5 .39 20.26.85 23 .84 32.1 0 120.63-.5 129.75-.66 3.68-.07 7.37-.39 11.05-.39 2.24 0 4.95.63 7.06-.35 3.87-1.81 3.32-7.14 3.46-10.7s.64-7.1.44-10.6zm-2.31 2.69c-.13 2.91-.37 11.35-.65 12.53-.68 2.92-3 4.33-6 4.23-10-.35-26.43.37-36.48.42q-47 .25-94 .57c-7.43.05-31.58-.17-36.22-.57a20.57 20.57 0 0 1-5.11-.88c-3.84-1.36-3.94-4.17-4.23-7.79a189.25 189.25 0 0 1-.33-20.49c.08-2.83-.54-9.2 1.7-11.4 3.36-1.55 7.83-1.05 11.43-1.28 2.23-.15 8.15-.24 8.9-.24 4.09 0 115.6-.19 141.94.14 1.88 0 12.45 0 15.35 1 3.82 1.36 3.3 5.4 3.35 8.83.11 4.91.57 10.04.35 14.93z" fill="#f78100"/></svg>