<svg xmlns="http://www.w3.org/2000/svg" viewBox="0 0 490 520"><path d="M2.63 481.59c.59-1.28.41-2.77.48-4.16a13.21 13.21 0 0 0-.42-4.43.71.71 0 0 0-1.36 0 13.21 13.21 0 0 0-.43 4.47c0 1.39-.13 2.88.46 4.16a.74.74 0 0 0 1.27 0zM5.91 494.67c-.29-1-1.14-1.73-1.4-2.84a36.42 36.42 0 0 0-1.09-4.5c-.22-.59-1.21-.75-1.36 0a9.6 9.6 0 0 0 .63 5.79c.47 1.15 1.25 2.71 2.71 2.47a.75.75 0 0 0 .51-.92zM20.07 496.58c-1.35-.73-3.23-.61-4.73-.81a23 23 0 0 0-4.9-.21c-.62.05-1.06 1-.35 1.32a13.44 13.44 0 0 0 4.64 1.12c1.57.11 3.68.55 5.16 0a.75.75 0 0 0 .18-1.35zM470.45 495.77c-1.15-1-3.65-.52-5-.57a22.07 22.07 0 0 0-5.74.42.72.72 0 0 0 0 1.37 21.64 21.64 0 0 0 5.74.41c1.4 0 3.88.38 5-.58a.76.76 0 0 0 0-1.05zM485.58 486.6c-.57.82-.46 2.14-.61 3.09a5 5 0 0 1-1.49 3.29c-1.9 1.68-4.62 1.89-7 2.3-.86.15-.54 1.31.19 1.39 3.21.39 6.18.17 8.55-2.28a6.48 6.48 0 0 0 1.67-3.66c.21-1.22.6-3 0-4.13a.75.75 0 0 0-1.28 0zM485.71 76.45c-.48 1.23-.19 6.74.18 7.94a.72.72 0 0 0 1.37 0c.36-1.2.65-6.71.17-7.94a.9.9 0 0 0-1.72 0zM482 60.64c1.39 1.51 2.63 2.23 3.21 4.38.45 1.69.52 3.54.81 5.28.11.7 1.21.65 1.36 0 .85-3.69 0-10.45-4.85-10.93-.68-.06-.92.84-.53 1.27zM465 59.79c1.44.83 9.76.78 12 .43.71-.11.65-1.21 0-1.37-2.23-.53-10.53-1.1-12-.34a.74.74 0 0 0 0 1.28zM162.91 59.28c1.38 1.12 4.66.53 6.31.58a33.84 33.84 0 0 0 7-.42.71.71 0 0 0 0-1.36 32.5 32.5 0 0 0-7-.42c-1.66.05-4.93-.55-6.31.57a.74.74 0 0 0 0 1.05zM142.12 59.28c1.12 1.09 10 .59 12.12.16a.72.72 0 0 0 0-1.37c-2.14-.42-11-.93-12.12.16a.76.76 0 0 0 0 1.05zM120.84 59.39c1.63 1.1 12.31.45 14.88 0a.72.72 0 0 0 0-1.37c-2.57-.4-13.25-1-14.88 0a.74.74 0 0 0 0 1.27zM100.9 59.28c1.22 1.1 10.33.58 12.54.16a.72.72 0 0 0 0-1.37c-2.21-.42-11.32-1-12.54.16a.76.76 0 0 0 0 1.05zM84.2 59.13c.88 1.17 8.78.75 10.71.31a.72.72 0 0 0 0-1.37c-1.93-.45-9.83-.87-10.71.31a.72.72 0 0 0 0 .75zM67 59.27c.73.87 9.09.59 11 .16a.71.71 0 0 0 0-1.36c-1.95-.43-10.31-.71-11 .16a.76.76 0 0 0 0 1zM49.81 59.27c.73.87 9 .59 11 .16a.7.7 0 0 0 0-1.35c-1.94-.43-10.26-.71-11 .15a.75.75 0 0 0 0 1zM32.86 59.27c.74.88 9.14.6 11.09.16a.71.71 0 0 0 0-1.36c-2-.43-10.35-.72-11.09.16a.77.77 0 0 0 0 1zM14.21 59.54c2.45.53 5.15.27 7.65.3a32.68 32.68 0 0 0 5.77-.41.71.71 0 0 0 0-1.36 27.83 27.83 0 0 0-5.77-.5c-2.49 0-5.24-.14-7.65.54a.75.75 0 0 0 0 1.43zM331.7 59.28c1.38 1.12 4.66.53 6.31.58a33.84 33.84 0 0 0 7-.42.71.71 0 0 0 0-1.36 32.5 32.5 0 0 0-7-.42c-1.66.05-4.93-.55-6.31.57a.74.74 0 0 0 0 1.05zM309.91 59.28c1.34 1.12 10.81.58 13.13.16a.72.72 0 0 0 0-1.37c-2.32-.42-11.78-1-13.13.16a.74.74 0 0 0 0 1.05zM288 59.28c1.21 1.1 10.32.58 12.53.16a.72.72 0 0 0 0-1.37c-2.21-.42-11.32-.94-12.53.16a.74.74 0 0 0 0 1.05zM269.69 59.28c.73.87 9.1.58 11 .15a.7.7 0 0 0 0-1.35c-1.94-.43-10.3-.72-11 .15a.78.78 0 0 0 0 1.05zM253 59.13c.88 1.17 8.78.75 10.71.31a.72.72 0 0 0 0-1.37c-1.93-.45-9.83-.87-10.71.31a.72.72 0 0 0 0 .75zM235.82 59.27c.73.87 9.09.59 11 .16a.71.71 0 0 0 0-1.36c-2-.43-10.31-.71-11 .16a.76.76 0 0 0 0 1zM442.85 59.28c1.35 1.12 10.81.58 13.13.16a.72.72 0 0 0 0-1.37c-2.32-.42-11.78-1-13.13.16a.75.75 0 0 0 0 1.05zM421.08 59.28c1.22 1.1 10.32.58 12.54.16a.72.72 0 0 0 0-1.37c-2.22-.42-11.32-.94-12.54.16a.76.76 0 0 0 0 1.05zM401.85 59.28c1.21 1.1 10.32.58 12.54.16a.72.72 0 0 0 0-1.37c-2.22-.42-11.32-1-12.54.16a.74.74 0 0 0 0 1.05zM379.81 59.39c1.34 1 11.54.45 13.94 0a.72.72 0 0 0 0-1.37c-2.4-.4-12.6-.94-13.94 0a.76.76 0 0 0 0 1.28zM354 59.39c2 1.14 6 .43 8.21.47a53.49 53.49 0 0 0 8.68-.42c.67-.1.67-1.28 0-1.37a54.65 54.65 0 0 0-8.68-.43c-2.24 0-6.18-.66-8.21.47a.75.75 0 0 0 0 1.28zM218.6 59.27c.73.87 9.05.59 11 .16a.7.7 0 0 0 0-1.35c-1.94-.43-10.26-.71-11 .15a.75.75 0 0 0 0 1zM201.65 59.27c.74.88 9.14.59 11.09.16a.71.71 0 0 0 0-1.36c-2-.43-10.35-.72-11.09.16a.77.77 0 0 0 0 1zM183 59.54c2.44.53 5.14.27 7.64.3a32.68 32.68 0 0 0 5.77-.41.71.71 0 0 0 0-1.36 27.83 27.83 0 0 0-5.77-.5c-2.49 0-5.24-.14-7.64.54a.75.75 0 0 0 0 1.43zM328.33 496.55c-1.37-1.12-4.65-.52-6.31-.57a33.06 33.06 0 0 0-7 .41.72.72 0 0 0 0 1.37 33.74 33.74 0 0 0 7 .42c1.67-.05 4.93.55 6.31-.58a.74.74 0 0 0 0-1.05zM349.12 496.56c-1.11-1.1-10-.59-12.12-.16a.71.71 0 0 0 0 1.36c2.14.43 11 .94 12.12-.16a.73.73 0 0 0 0-1zM370.41 496.44c-1.64-1.09-12.32-.45-14.88 0a.71.71 0 0 0 0 1.36c2.56.41 13.24 1.05 14.88 0a.76.76 0 0 0 0-1.28zM390.34 496.56c-1.21-1.11-10.32-.59-12.53-.16a.71.71 0 0 0 0 1.36c2.21.43 11.32.95 12.53-.16a.73.73 0 0 0 0-1zM407 496.71c-.87-1.18-8.78-.76-10.7-.31a.71.71 0 0 0 0 1.36c1.92.45 9.83.87 10.7-.3a.72.72 0 0 0 0-.75zM424.22 496.56c-.74-.87-9.1-.59-11-.16a.71.71 0 0 0 0 1.36c1.94.43 10.3.72 11-.16a.77.77 0 0 0 0-1zM440.05 496.71c0-.06 0 0 .06.14a.87.87 0 0 0-.62-.62c-1.46-.49-3.46-.24-5-.28a13.84 13.84 0 0 0-4.06.45.72.72 0 0 0 0 1.37 13.84 13.84 0 0 0 4.06.45c1.52 0 3.52.21 5-.28a.87.87 0 0 0 .62-.62c-.05.37 0-.44-.06-.61zM454.57 496.39a.88.88 0 0 0-.62-.62c-1.38-.49-7.34-.19-8.66.17a.72.72 0 0 0 0 1.37c1.32.36 7.27.66 8.66.17a.88.88 0 0 0 .62-.62 1.24 1.24 0 0 0 0-.43zM159.54 496.55c-1.37-1.12-4.65-.52-6.31-.57a33.06 33.06 0 0 0-7 .41.72.72 0 0 0 0 1.37 33.74 33.74 0 0 0 7 .42c1.67-.05 4.93.55 6.31-.58a.74.74 0 0 0 0-1.05zM181.33 496.56c-1.34-1.12-10.8-.59-13.12-.16a.71.71 0 0 0 0 1.36c2.32.42 11.78 1 13.12-.16a.73.73 0 0 0 0-1zM203.27 496.56c-1.21-1.11-10.32-.59-12.53-.16a.71.71 0 0 0 0 1.36c2.21.43 11.31.95 12.53-.16a.75.75 0 0 0 0-1zM221.55 496.56c-.73-.87-9.09-.59-11-.16a.71.71 0 0 0 0 1.36c2 .43 10.31.71 11-.16a.75.75 0 0 0 0-1zM238.25 496.71c-.87-1.18-8.78-.76-10.7-.31a.71.71 0 0 0 0 1.36c1.92.45 9.82.87 10.7-.3a.72.72 0 0 0 0-.75zM255.42 496.56c-.73-.87-9.09-.59-11-.16a.71.71 0 0 0 0 1.36c1.94.43 10.3.72 11-.16a.75.75 0 0 0 0-1zM53 496.56c-.66-.86-3.82-.53-5.14-.58a20.62 20.62 0 0 0-5.6.42.71.71 0 0 0 0 1.36 21.47 21.47 0 0 0 5.6.42c1.32-.05 4.47.28 5.14-.58a.76.76 0 0 0 0-1zM35.12 496.22c-1.33-.48-3.24-.23-4.64-.28a11.78 11.78 0 0 0-3.78.46.71.71 0 0 0 0 1.36 11.74 11.74 0 0 0 3.78.45c1.4 0 3.31.21 4.64-.27a.9.9 0 0 0 0-1.72zM71.89 496.56c-1.21-1.11-10.32-.59-12.53-.16a.71.71 0 0 0 0 1.36c2.21.43 11.31.95 12.53-.16a.73.73 0 0 0 0-1zM89.39 496.56c-1.21-1.11-10.32-.59-12.53-.16a.71.71 0 0 0 0 1.36c2.21.43 11.32.95 12.53-.16a.73.73 0 0 0 0-1zM111.44 496.44c-1.35-1-11.54-.45-13.94 0a.71.71 0 0 0 0 1.36c2.4.41 12.59.95 13.94 0a.76.76 0 0 0 0-1.28zM137.24 496.44c-2-1.13-6-.42-8.21-.47a54.58 54.58 0 0 0-8.67.43.71.71 0 0 0 0 1.36 53.43 53.43 0 0 0 8.67.43c2.24 0 6.18.67 8.21-.47a.75.75 0 0 0 0-1.28zM272.65 496.56c-.73-.86-9.06-.58-11-.15a.7.7 0 0 0 0 1.35c1.93.43 10.26.71 11-.16a.77.77 0 0 0 0-1zM289.59 496.56c-.73-.87-9.14-.59-11.09-.16a.72.72 0 0 0 0 1.37c2 .43 10.35.71 11.09-.16a.76.76 0 0 0 0-1.05zM308.24 496.3c-2.44-.53-5.15-.27-7.65-.31a33.8 33.8 0 0 0-5.77.41.72.72 0 0 0 0 1.37 28.66 28.66 0 0 0 5.77.5c2.5 0 5.24.14 7.65-.55a.74.74 0 0 0 0-1.42zM2.71 70.75c.51-1.78.1-3.6.42-5.39.53-2.94 3.14-4.45 5.73-5.4.71-.26.67-1.43-.18-1.39-3.17.16-5.94 1.46-7.16 4.57a13.51 13.51 0 0 0-.24 7.61.75.75 0 0 0 1.43 0zM487.44 103.45c.83-1.45.78-9.77.42-12-.11-.7-1.21-.64-1.36 0-.54 2.23-1.1 10.53-.34 12a.75.75 0 0 0 1.28 0zM486.93 405.53c1.12-1.38.52-4.65.57-6.31a33.19 33.19 0 0 0-.41-7 .72.72 0 0 0-1.37 0 33.15 33.15 0 0 0-.41 7c0 1.66-.56 4.93.57 6.31a.74.74 0 0 0 1.05 0zM486.92 426.32c1.1-1.12.59-10 .16-12.12a.71.71 0 0 0-1.36 0c-.43 2.14-.94 11 .16 12.12a.73.73 0 0 0 1 0zM487 447.61c1.09-1.64.45-12.32 0-14.88a.71.71 0 0 0-1.36 0c-.41 2.56-1.05 13.24 0 14.88a.76.76 0 0 0 1.28 0zM486.92 467.54c1.11-1.21.59-10.33.16-12.54a.71.71 0 0 0-1.36 0c-.43 2.22-1 11.32.15 12.54a.76.76 0 0 0 1.05 0zM487.26 481.71c.47-1.18.23-3 .27-4.23a9.51 9.51 0 0 0-.45-3.44.71.71 0 0 0-1.36 0 9.74 9.74 0 0 0-.46 3.44c0 1.24-.19 3 .28 4.23a.9.9 0 0 0 1.72 0zM486.93 236.74c1.12-1.38.52-4.65.57-6.31a33.15 33.15 0 0 0-.41-7 .72.72 0 0 0-1.37 0 33.15 33.15 0 0 0-.41 7c0 1.66-.56 4.93.57 6.31a.74.74 0 0 0 1.05 0zM486.93 258.53c1.11-1.34.58-10.81.15-13.12a.71.71 0 0 0-1.36 0c-.42 2.32-1 11.77.16 13.12a.74.74 0 0 0 1.05 0zM486.92 280.46c1.11-1.21.59-10.31.16-12.53a.71.71 0 0 0-1.36 0c-.43 2.22-1 11.32.16 12.53a.73.73 0 0 0 1 0zM486.92 298.75c.87-.73.59-9.1.16-11a.71.71 0 0 0-1.36 0c-.43 1.94-.71 10.31.16 11a.76.76 0 0 0 1 0zM486.77 315.45c1.18-.88.76-8.78.31-10.71a.71.71 0 0 0-1.36 0c-.45 1.93-.87 9.83.3 10.71a.72.72 0 0 0 .75 0zM486.92 332.62c.87-.73.59-9.09.16-11a.71.71 0 0 0-1.36 0c-.43 1.95-.72 10.31.16 11a.75.75 0 0 0 1 0zM486.93 125.59c1.11-1.34.58-10.81.15-13.12a.71.71 0 0 0-1.36 0c-.42 2.31-1 11.77.16 13.12a.74.74 0 0 0 1.05 0zM486.92 147.36c1.11-1.21.59-10.32.16-12.53a.71.71 0 0 0-1.36 0c-.43 2.21-1 11.31.16 12.53a.75.75 0 0 0 1 0zM486.92 166.59c1.11-1.21.59-10.32.16-12.53a.71.71 0 0 0-1.36 0c-.43 2.21-1 11.32.16 12.53a.73.73 0 0 0 1 0zM487 188.63c1-1.34.45-11.53 0-13.94a.71.71 0 0 0-1.36 0c-.41 2.41-1 12.6 0 13.94a.76.76 0 0 0 1.28 0zM487 214.44c1.13-2 .42-6 .47-8.21a54.58 54.58 0 0 0-.43-8.67.71.71 0 0 0-1.36 0 53.43 53.43 0 0 0-.43 8.67c0 2.24-.67 6.18.47 8.21a.75.75 0 0 0 1.28 0zM486.92 349.85c.86-.73.58-9.06.15-11a.7.7 0 0 0-1.35 0c-.43 1.94-.71 10.26.16 11a.77.77 0 0 0 1 0zM486.92 366.79c.87-.74.59-9.14.16-11.09a.72.72 0 0 0-1.37 0c-.43 1.95-.71 10.35.16 11.09a.77.77 0 0 0 1.05 0zM487.18 385.44c.53-2.45.27-5.15.31-7.65a33.73 33.73 0 0 0-.41-5.77.72.72 0 0 0-1.37 0 28.6 28.6 0 0 0-.5 5.77c0 2.49-.14 5.24.55 7.65a.74.74 0 0 0 1.42 0zM.94 76.45c-.47 1.23-.19 6.74.18 7.94a.72.72 0 0 0 1.37 0c.37-1.2.65-6.71.17-7.94a.9.9 0 0 0-1.72 0zM2.67 103.45c.83-1.45.78-9.77.43-12-.11-.7-1.21-.64-1.37 0-.54 2.24-1.1 10.53-.34 12a.75.75 0 0 0 1.28 0zM2.16 405.53c1.12-1.38.53-4.65.57-6.31a33.19 33.19 0 0 0-.41-7 .72.72 0 0 0-1.37 0 33.15 33.15 0 0 0-.41 7c0 1.66-.55 4.93.57 6.31a.74.74 0 0 0 1.05 0zM2.16 426.32c1.09-1.12.58-10 .16-12.12a.72.72 0 0 0-1.37 0c-.43 2.14-.94 11 .16 12.12a.74.74 0 0 0 1.05 0zM2.27 447.61c1.09-1.64.45-12.32 0-14.88a.72.72 0 0 0-1.37 0c-.4 2.56-1 13.24 0 14.88a.76.76 0 0 0 1.28 0zM2.16 467.54c1.1-1.21.58-10.33.15-12.54A.71.71 0 0 0 1 455c-.43 2.22-.95 11.32.16 12.54a.76.76 0 0 0 1.05 0zM2.16 236.74c1.12-1.38.53-4.65.57-6.31a33.15 33.15 0 0 0-.41-7 .72.72 0 0 0-1.37 0 33.15 33.15 0 0 0-.41 7c0 1.66-.55 4.93.57 6.31a.74.74 0 0 0 1.05 0zM2.16 258.53c1.11-1.34.58-10.81.16-13.12a.72.72 0 0 0-1.37 0c-.42 2.32-1 11.77.16 13.12a.74.74 0 0 0 1.05 0zM2.16 280.46c1.1-1.21.58-10.32.16-12.53a.72.72 0 0 0-1.37 0c-.42 2.22-.95 11.32.16 12.53a.74.74 0 0 0 1.05 0zM2.15 298.75c.87-.73.59-9.1.16-11a.71.71 0 0 0-1.36 0c-.43 1.94-.71 10.31.16 11a.76.76 0 0 0 1 0zM2 315.45c1.18-.88.76-8.78.31-10.71a.71.71 0 0 0-1.36 0c-.45 1.93-.87 9.83.31 10.71a.7.7 0 0 0 .74 0zM2.15 332.62c.87-.73.59-9.09.16-11a.71.71 0 0 0-1.36 0c-.43 1.95-.71 10.31.16 11a.75.75 0 0 0 1 0zM2.16 125.59c1.11-1.34.58-10.81.16-13.12a.72.72 0 0 0-1.37 0c-.42 2.31-1 11.77.16 13.12a.74.74 0 0 0 1.05 0zM2.16 147.36c1.1-1.21.58-10.32.16-12.53a.72.72 0 0 0-1.37 0c-.42 2.17-.95 11.31.16 12.53a.76.76 0 0 0 1.05 0zM2.15 166.59c1.11-1.21.59-10.32.16-12.53a.71.71 0 0 0-1.36 0c-.43 2.21-.95 11.32.16 12.53a.73.73 0 0 0 1 0zM2.27 188.63c1-1.34.45-11.53 0-13.93a.71.71 0 0 0-1.36 0c-.41 2.4-.95 12.59 0 13.93a.75.75 0 0 0 1.28 0zM2.27 214.44c1.14-2 .42-6 .47-8.21a54.58 54.58 0 0 0-.43-8.67.71.71 0 0 0-1.36 0 54.58 54.58 0 0 0-.43 8.67c0 2.24-.67 6.18.47 8.21a.75.75 0 0 0 1.28 0zM2.15 349.85c.87-.73.58-9.06.16-11a.71.71 0 0 0-1.36 0c-.42 1.94-.71 10.26.16 11a.77.77 0 0 0 1 0zM2.15 366.79c.88-.74.59-9.14.16-11.09a.71.71 0 0 0-1.36 0c-.44 1.95-.72 10.35.15 11.09a.77.77 0 0 0 1 0zM2.42 385.44c.53-2.45.27-5.15.3-7.65a33.73 33.73 0 0 0-.41-5.79.71.71 0 0 0-1.31 0 27.9 27.9 0 0 0-.51 5.77c0 2.49-.13 5.24.55 7.65a.75.75 0 0 0 1.43 0z" fill="#919191"/><path d="M476.47 82.67c1.59-4.27 2.71-14.32-4.35-14.61-20.35-.85-136.79-.42-172.86-1.49-58-1.71-242.79.93-276 .27-7-.14-18 6-13.1 26.67-.09.65-1.3 19.73-1.85 28.63-.23 3.74 1.95 7 5.66 7.72 21.1 3.8 42.5 2.56 63.81 2.11s34.18-1.35 55.27.51c42.88 3.78 93.41-.67 136.3-.57 8.19 0 57.95 2.63 75.11.53 3.37-.42 6.88-.1 9.15-3.3l89.74 3.39c12.18.46 24.72 2.77 33.45-7.8 5.44-11.43-.38-41.93-.33-42.06zM476.47 259.38c1.59-6.73 2.71-23.62-4.35-24.08a520.78 520.78 0 0 0-61.08 0c-2.23.11-4.28 1.7-6.11 3.43-47.36-13.86-348.46-3.35-381.65-4.4-7-.23-12 7.69-14.17 17.12-1.3 5.51-2.84 21.09 1.07 25-.09 1-1.3 31.18-1.85 45.24C8.1 327.67 10.28 332.9 14 334c21.1 6 105.86 2.87 127 5.81 42.88 6 85.54-2.65 128.43-2.48 8.19 0 57.95 5.65 75.11 2.33 3.37-.65 6.88-1.73 9.15-6.79l89.74 5.35c12.18.73 24.72 4.39 33.45-12.33 4.95-9.61-.46-66.29-.41-66.51z" fill="#fff"/><path d="M190.24 67.46c-1.08 6.27-.57 13.09-.63 19.45-.06 6.77-.05 13.55 0 20.32 0 7.55.19 16.78.31 23.57a1.28 1.28 0 0 0 2.55 0c-.11-6.6-.16-15.58-.23-22.94q-.09-10.12-.08-20.26c0-6.52.73-13.41 0-19.88-.11-1-1.71-1.44-1.91-.26zM289.8 67.74c-.55 3.13-.28 6.43-.3 9.59q-.09 10.9-.14 21.8c-.05 10.37 0 22.67-.06 32.12a1.28 1.28 0 0 0 2.55 0c0-9.45.1-21.75.1-32.12v-21.8c0-3.16.28-6.46-.25-9.59a1 1 0 0 0-1.88 0z" fill="#1e1e1e"/><path d="M478.38 91.22c-.08-8.42 3.15-22.66-8.21-23.81-6.71-.67-13.52-.82-20.26-.84-24.56-.11-49.13 0-73.69 0H103.84c-22.41 0-44.83.13-67.24.07-3.42 0-6.84-.07-10.26 0-6.17.14-14.84-.29-16.3 7.38a.76.76 0 0 0 0 .26c-.89 9.57-.38 19.45-.47 29.05-.07 7.26-1.07 15.75.68 22.82 1.48 6 8 5.61 13.3 6.2a83 83 0 0 0 10 .44H94.4q61.31 0 122.59-.16 114.81-.24 229.61-.51a186.49 186.49 0 0 0 20.33-1c4.71-.52 9.62-.53 10.93-5.82s.78-11.38.72-16.81l-.2-17.27zm-5.17 36.56c-2.65 1.37-16.41 1.87-19.72 2-10.08.36-73.49.23-95.09.28-35.29.07-197.94.44-244 .66l-62.61.28c-5.75 0-11.5 0-17.25.11h-1s-16.59-1-18.78-1.8c-2.58-1-2.87-2.82-3.26-5.27-1.15-7.23-.43-15.21-.39-22.51.05-8.91-.48-18.09.32-27a.33.33 0 0 1 0-.06c1.81-8.79 18-6 24.72-6h10.12q17.94 0 35.9.06h122.28l234.23.06c6.91 0 27.27.49 30.53.78 2 .18 3 .17 4.63 1.47 3.12 2.56 2.48 6.86 2.36 10.48-.13 3.85.08 22.38.12 27.8.04 5.19 1.3 16.4-3.11 18.66z" fill="#1e1e1e"/><path d="M479.51 461.51c-.82-4.29-2.55-14.91-3.2-16.42.05-.12.11-.23.16-.35 1.59-3.6 2.71-12.08-4.35-12.33-20.35-.72-65.36.39-67.19 1.32-36.08-.69-72.16-3-108.23-3.91-58-1.45-115.87 2.51-173.84 2.62-33.2.06-66.39-.5-99.58-1.07-7-.11-20.52 9-13.1 22.53-.09.55-1.3 16.66-1.85 24.18-.23 3.15 1.95 5.92 5.67 6.52 21.1 3.21 105.86 1.53 127 3.1 42.88 3.19 186.38 1.69 203.54-.08 3.37-.35 6.88-.93 9.15-3.63l89.74 2.86c41.7 6.85 37.32-18.79 36.08-25.34z" fill="#fff"/><path d="M190.24 432.34c-1.85 11.4-.71 23.94-.65 35.48 0 6.2.19 13.81.31 19.37a1.28 1.28 0 0 0 2.55 0c-.12-5.31-.16-12.73-.23-18.69s-.09-11.79-.08-17.69.62-12.26 0-18.21c-.1-1-1.72-1.44-1.91-.26zM289.8 432.63c-.55 2.67-.28 5.55-.3 8.26q-.09 9.44-.14 18.88c-.05 9 0 19.78-.06 27.86a1.28 1.28 0 0 0 2.55 0c0-8.08.1-18.9.1-27.86v-18.51c0-2.83.3-5.84-.25-8.63a1 1 0 0 0-1.88 0z" fill="#1e1e1e"/><path d="M478.52 463.26c-.06-4.76-.22-9.53-.2-14.3 0-5.3 1.57-13.85-5-16.19-5.34-1.92-12.76-1.06-18.34-1.23-2.36-.07-4.71-.09-7.07-.09H101.22c-21.56 0-43.12.12-64.67.07-3.4 0-6.79-.07-10.19 0-6.18.15-14.84-.28-16.3 7.39a.7.7 0 0 0 0 .25c-.88 9.42-.41 19.09-.52 28.54-.09 6.45-1.87 17.18 6.16 18.81a87.43 87.43 0 0 0 18.18 1.64h63.59c41 0 273.75-.48 349.12-.66a186.49 186.49 0 0 0 20.33-1c4.63-.52 9.52-.51 10.91-5.68 1.43-5.33.77-11.93.69-17.55zm-5.67 20c-2.64 1.26-6.55 1.09-9.44 1.32-3.3.27-6.61.45-9.92.56-9.76.35-19.57.12-29.34.14l-64.06.14c-35 .07-196.5.45-242.28.66-21.33.1-87.92.48-89.78.39-4.13-.18-10.14 0-13.91-1.92-3.17-1.6-2.93-6.84-3-9.91-.12-2.77 0-5.55 0-8.32.06-8.89-.43-18 .38-26.89v-.06c1.83-8.9 18.93-6 26.05-5.95h8.08l34.94.05c39.67 0 210.1.06 255.64.08h98.08c5.65 0 26.71.27 31.58.56 3.15.18 7.2-.19 9.26 2.74 2.26 3.23 1 8.9 1 12.63 0 4.86.12 9.73.18 14.6.05 5.45 1.44 16.84-3.46 19.19zM189.74 233.7c-1.12 8.21-.56 16.85-.61 25.12-.07 11.43-.06 22.87 0 34.31 0 14.09.18 29.76.3 43.1a1.28 1.28 0 0 0 2.55 0c-.12-13.14-.16-28.64-.24-42.53q-.09-16.9-.09-33.81c0-8.58.68-17.37 0-25.93-.07-1-1.75-1.42-1.91-.26zM289.76 234.25c-1.21 11.23-.34 23-.38 34.27l-.23 54.84c0 4 .05 9.75 0 12.87a1.28 1.28 0 0 0 2.55 0c.08-28.59.18-59.66.18-89.11a128.48 128.48 0 0 0-.21-12.87 1 1 0 0 0-1.95 0z" fill="#1e1e1e"/><path d="M478.52 300.28q-.09-18.64-.16-37.28c0-3.79-.07-7.57-.05-11.35 0-5 1.5-11.34-2-15.42s-12-3-16.88-3.17c-2.87-.11-5.75-.21-8.63-.24h-336c-26 0-52 .15-77.95.07h-7.8c-6.54.07-17.39-1.09-19 7.42a.7.7 0 0 0 0 .25c-.69 7.52-.24 15.3-.3 22.83q-.15 19.33-.24 38.66-.06 9.23-.13 18.46c0 3.83-.7 11.31 2.48 14.23 2.31 2.13 7.62 2.1 10.57 2.48a83.22 83.22 0 0 0 11 .57H82.06q60.41 0 120.81-.2l239.7-.53a221.3 221.3 0 0 0 24.29-1c5.87-.66 10.25-.84 11.09-7.46 1.23-9.33.61-19 .57-28.32zm-2.21 1.72c0 4.45.07 15.3 0 16.28-.07 3.15.49 12.23-2.5 14.15-2.32 1.49-6.62 1.29-9.26 1.53-3.69.33-7.4.53-11.1.66-11 .39-78.93.24-101.81.29-37.3.08-204.46.44-250.75.65-18.68.09-63.49.29-67.21.34h-.18c-5.86.06-12.41.07-18.07-1.65-5.43-1.61-4.33-10.46-4.29-15.25.13-19.29-.29-71.53.3-78.23v-.06c1.81-8.82 18.08-6 24.77-6 .62 0 39.8.07 53.72.07h282.28c25.95 0 86.22.22 89.79.38 3.12.14 7.62-.34 10.57.85 5.65 2.28 3.53 11.64 3.55 16.79.03 4.47.15 37.2.19 49.2z" fill="#1e1e1e"/><path d="M191.13 81.45c.21-4.35-5.27.19-5.4 3-.31 6.48 1.29 38.35-1 40.25-3.42 3.05-144.74 2.32-159.55 1-2.89-.27-5.89 6.55-2.58 6.86 14 1.3 124.92.38 139.13.31 7.42 0 19.52 1.74 25.27-3.05 8.4-5.92 3.74-40.14 4.13-48.37z" opacity=".2"/><path d="M186 120.07c-.19 2.55-.75 4.57-2.87 5.87-.53.32-157.31.15-160.91 0-1.55-.07-6.06 0-7.05-3.25-1-1.25-.41-44.49.51-46 1.66-2.7 5.75-3.09 8.83-3.2 3.68-.13 150.11-2 158.27.3 2.4 2 3.68 7.63 3.78 10.82s-.42 32.9-.56 35.46z" fill="#f78100" opacity=".85"/><path d="M181.38 74.07c-3.86-1.58-158-.28-160.08.57-4.13 1.69-4.78 5.79-5.16 9.77a358.35 358.35 0 0 0-1.48 39.32c.07 4.41 5.45-.14 5.4-3-.18-10.87.71-38.74 1.78-39.91s28.84-1.23 39.49-1.29c25.69-.14 97.65.73 100.61.7 4.78-.06 11.18-1.51 15.69.34 2.91 1.19 6.48-5.38 3.75-6.5z" fill="#fff" opacity=".2"/><path d="M186.62 112.25c.13-6.07.47-12.13.49-18.2 0-3.72-.07-16.14-1.07-18.22-1.52-3.19-5.78-3.19-8.87-3.51-10.59-1.1-148.84-.19-152.71.06-3.44.22-8.34.26-9.73 3.93-2 5.24-1.22 12.44-1.25 17.94 0 4-.32 21.7.2 26.58.41 3.92 1.38 5.47 5.44 6 10.65 1.32 66.14.49 82.94.42 16.29-.06 71.73-.25 75.74-.44 1.79-.08 4.85.38 6.43-.55 4.05-2.38 2.41-10.28 2.42-13.84a.7.7 0 0 0-.03-.17zm-4.33 12.41c-2.32.9-14.45.33-17.19.32-3.19 0-104.29.6-130.6.38-1.32 0-10.75-.29-14.13-.61-4.52-.41-4.6-3.21-4.71-7.24-.2-7.71.23-28.3.33-30.82.12-3.1-.74-9.4 2.5-11.06 4.44-2.28 12.23-1.29 17.08-1.37 2.64 0 67.85-.12 97.82-.21 7.71 0 31.41 0 35.55-.14S181 73 183.76 76.34c2.06 2.48 1.73 15.49 1.74 18.14 0 3.24-.24 15.08-.3 17.76a.8.8 0 0 0 0 .15c-.2 3.51 1.31 10.61-2.91 12.27z" fill="#f78100"/><path d="M291.69 107c.12-9-.89-17.88-.53-27 .18-4.36-5.29.18-5.4 3-.32 7.73 2.07 39.16-2 41-2.81 1.27-56.64.87-80.09.91-2.92 0-5.78 6.86-2.58 6.86 24.61 0 49.43.87 74-.38 5.25-.26 10.54-.26 13.73-5.1 3.53-5.29 2.79-13.22 2.87-19.29z" opacity=".2"/><path d="M196.69 74.67c3-2.45 84.82-3.14 87.87-.12 2.26 3.71 1.94 47 1 48.52-3.34 4.47-81.81 3.19-88.48.9-3.31-1.97-3.37-46.84-.39-49.3z" fill="#f78100" opacity=".85"/><path d="M284.35 75.37c-9.72-4.34-84-2.08-86.74.57-5 4.87-3.87 37-.93 45.26 1.53 4.34 7.37-2.18 6.24-5.37-2.63-7.44-2.48-15.07-2.22-22.85.08-2.24.17-4.48.17-6.72a38 38 0 0 1-.3-4.5c.23.17 16.87-.89 24.36-1q12.91-.17 25.84-.11c9.39 0 20.42-1.37 29.08 2.5 3.43 1.54 7.77-6.32 4.5-7.78z" fill="#fff" opacity=".2"/><path d="M287.1 83c-.23-3.53.23-9-3.87-10-5-1.26-10.79-.78-15.87-.86-7.3-.1-14.62 0-21.92 0-9.77 0-19.53-.05-29.29 0-4.9 0-9.79.41-14.66.87-1.32.12-3.58-.05-4.8.66-2.52 1.49-2 4.92-2 7.35v.14c-.67 9.85-.43 19.79-.77 29.66-.12 3.58-.83 12.34 2.88 14.44 1.82 1 5 .86 7 1a73.62 73.62 0 0 0 8.91.17c17.46-.92 34.95.52 52.39-.11 5.7-.21 11.41-.1 17.1-.38 5-.23 5.08-3.71 5.13-8.1.09-11.57.55-23.28-.23-34.84zm-1.69 23.83c-.13 3.41-.34 6.83-.37 10.25 0 3.18.56 6-3.34 6.61-5.19.75-46.33 0-61.45.09-4.72 0-9.39.58-14.13.38-2.3-.1-7.35.38-8.85-1.4-2.2-2.63-1.51-9.66-1.45-12.88.2-9.56-.23-19.17.27-28.71a.66.66 0 0 0 0-.15c.11-1.55.13-4.94 1.58-5.74a8 8 0 0 1 2.42-.27c2.78-.26 13.84-.88 16.58-.88 7.59 0 51.92.12 54 .17 2.68.07 5.35.12 8 .29 3.26.21 5.07-.14 5.73 3.25 1.08 5.53.37 11.14.66 16.71.21 4.1.51 8.17.35 12.28z" fill="#f78100"/><path d="M291.89 245.56c-.05-4.41-5.44.14-5.41 3 .31 23.34.41 74.36 0 76.37-.41 2.38-6.46 5.83-5.77 5.78-2.67.39-65.5-.24-74.91-.2-2.93 0-5.79 6.88-2.58 6.87 22.39-.1 72.69 0 75.27-.33a15.94 15.94 0 0 0 13.35-14.2c1.16-13.35.21-65.01.05-77.29z" opacity=".2"/><path d="M196.31 239.58c1.84-1.09 85.43-3.6 89.19 1.67 2.17 2.48 1.59 84.85 0 87.67-2.41 3.85-83.29 2.17-86.77 1.2-1.27-.35-2.21-2.1-3.22-3-2.38-1.98-2.24-86.31.8-87.54z" fill="#f78100" opacity=".85"/><path d="M283.61 240.56c-15.52-.21-76.74-2.1-83.08-.22-2.77.83-5.4 3.9-4.48 6.8a13.27 13.27 0 0 0-1.44 3.05c-.91 2.8 0 68.63 1.54 75.51.8 3.63 5.8-1.74 5.21-4.47-2.66-12.17-1.64-52-1.73-58.87-.06-4.6-.74-13.65 3.43-15.27s32.73 0 38.48 0c13.16.09 26.32.14 39.49.32 2.97.05 5.8-6.81 2.58-6.85z" fill="#fff" opacity=".2"/><path d="M287.66 287.12c-.14-11.43-.51-22.87-.24-34.29.08-3.29 1.09-8.29-.4-11.31-1.2-2.45-4.67-3.15-7.16-3.51-5.43-.78-11.3-.13-16.84-.13-14.34 0-54.38 0-60.06.23-2 .07-6.31-.63-7.78 1.13-1.73 2.07-1.24 10.76-1.23 10.82-.64 10.85-.85 55.63-.52 67.1.1 3.52-.38 7.79 1.24 11 1.38 2.76 3.57 2.84 6.39 3.16 5.06.58 64.05.87 68.41.71 4.16-.15 10.56.87 14.48-1 3.18-1.55 3.82-5.43 4.05-8.64.83-11.54-.19-23.7-.34-35.27zM285.78 321c-.13 3.42-.49 7.38-4.55 8.34-2.56.6-75.89.15-79.07-.16-2.69-.27-4.68 0-5.82-3-.92-2.42-.58-5.56-.65-8.11-.35-11.61-1-57.08-.32-68.09v-.13c.25-2.53-.06-8.28 1.9-9.61 1.79-1.22 7.67-.33 10-.4 4.23-.13 56.26 0 59.94.08 3.23 0 6.48-.16 9.71 0 2.43.09 6.89.23 8.26 2.89.92 1.78.23 6.09.18 8-.21 9.81.57 66.24.42 70.19z" fill="#f78100"/><path d="M478.24 80.41c-.24-4.42-5.57.13-5.41 3 .35 6.32-.16 26.14-.19 29.78 0 2.85.24 9.77-2.58 11-1.72.74-148.26.49-161.76.66-2.92 0-5.77 6.9-2.58 6.86 26.85-.34 129.61 1 154-.84 4.84-.36 10.44-.13 14.32-3.62 5.75-5.19 4.71-37.47 4.2-46.84z" opacity=".2"/><path d="M297.28 74.11c4-1.56 173.13-2.58 174.31.3 1 1.26 1.94 46.42 1 47.9-1.67 2.7-6.25 2.08-9.34 2.19-3.68.13-163.53 2-166.24-.3-2.36-2.01-3.52-47.05.27-50.09z" fill="#f78100" opacity=".85"/><path d="M466.66 73.9c-13.25-.37-112.93 1.87-135.7 1.55-3.37 0-20.46-2.24-24.83-.78-.12 0-.23-.09-.36-.12-8.25-1.85-8.18 12.79-8.56 17.4-.8 9.37-2.78 21.72 1.36 30.52 1.3 2.77 5.9-3 4.65-5.66-2.47-5.26-1.46-13.31-1.21-19 .14-3 1.13-14.47 1.15-14.69a6.57 6.57 0 0 0 3.24-2.72c3.35-.38 13.22 1.58 14.2 1.63 3.34.19 30.31.23 40.46.1 20.59-.27 89.31-1.8 103-1.42 2.94.13 5.84-6.71 2.6-6.81z" fill="#fff" opacity=".2"/><path d="M472.84 74.47c-1.4-2.66-5.28-2.45-7.9-2.53-28.3-.88-118.28 0-134.89 0h-16.46c-3.63.09-7.28.43-10.9.72-1.61.12-4-.06-5.46.74-4.55 2.46-2.6 11.75-2.61 15.58a.66.66 0 0 0 0 .15c-.21 8.26-.44 16.42-.22 24.68.07 2.9-.68 9.37 2.37 11.18s9.82 1 13.38 1c11.51 0 23 .14 34.55.13q50.17 0 100.35-.16c2.9 0 5.8 0 8.71-.07 5-.13 11.06.74 16-.34 3.73-.81 3.86-4.82 4-8 .43-9-.15-17.85-.1-26.85.06-4.58 1.41-11.98-.82-16.23zm-1.3 43.11c-.18 3.22-.16 5.48-3.81 5.84-2.7.28-5.52.11-8.23.16-3.82.07-7.64.17-11.46.17q-45.29.07-90.56.19c-10.61 0-21.27.4-31.87.16-7.86-.18-15.74.32-23.6-.17-2.92-.18-4.68.16-5.42-3.05-.8-3.4-.51-7.3-.64-10.77-.14-4-.15-7.92-.07-11.92.06-3 .11-6 .19-9v-.15c.14-3.71-1-9.52 1.31-12.69 1.59-2.19 5.06-1.72 7.72-1.89 3.63-.23 7.25-.49 10.89-.5h52c30.51 0 61-.06 91.55.08 2.52 0 8.18-.66 10.24.58 3.59 2.16 1.57 14.12 1.62 17.72 0 3.41.3 6.83.45 10.25.29 4.99-.05 10.02-.31 14.99z" fill="#f78100"/><path d="M477.45 245c-.16-4.42-5.51.14-5.41 3 .41 11.49.41 77.81.1 78.57-1.51 3.7-7.14 3.51-10.36 3.72-15.9 1-137.22.87-153.92.57-2.92-.05-5.81 6.81-2.58 6.86 35.47.64 149 .13 158.2-.94 17.88-.68 14.28-13.65 14.48-18.32.39-9.53.04-58.53-.51-73.46z" opacity=".2"/><path d="M296.52 239.1c2.93-1.28 173.65-1.79 175.29.32 1 1.26 1.39 87.63.48 89.11-1.67 2.7-16.65 2.36-20.33 2.49 0 0-153.6.17-154.62-.68-.27-.23-2.25-4-2.25-4s-.46-86.09 1.43-87.24z" fill="#f78100" opacity=".85"/><path d="M467.35 239.89c-14.26-.94-132.72 1.14-147.52.69-5.27-.16-12.16-2.38-17.26-.55-3.66 1.31-4.72 4.77-5.24 8.25-2 13.3-1.67 70.1-.64 77.68.6 4.42 5.8-.12 5.41-3-2.07-15.24-.14-75.9.49-77.46 0 1 13.23 1.93 15.73 2 33.32.67 66.73-.74 100.06-1.08 15.42-.16 31-.66 46.39.36 2.91.22 5.86-6.67 2.58-6.89z" fill="#fff" opacity=".2"/><path d="M474 308.54c0-2.59-.06-5.18-.1-7.77q-.21-16.65-.41-33.31c-.1-8.59 1-17.75-.13-26.21-.7-5.37-5-3.88-9.57-4-3.63-.09-7.27-.25-10.9-.28-14.81-.15-29.63.11-44.43.16q-33.66.13-67.3.27-10.78 0-21.56.09h-4.17c-2.55 0-5.11-.06-7.66 0-3 .06-7.76-.42-10.67.58-4.55 1.57-2.65 12.51-2.66 16a.9.9 0 0 0 0 .16c-.13 17.25-.4 34.5-.6 51.74 0 4 .1 8.09.18 12.14s-1.34 11.38 3.57 13.09c4.72 1.64 11 1.19 15.89 1.07 3.85-.1 7.66 0 11.49.11 36.83.94 73.81-.11 110.65-.19h25.32c3.19 0 10 .46 12-2.89 1.37-2.36.6-6.41.69-9 .12-3.96.37-7.87.37-11.76zm-2.24 0c0 3.14-.21 6.28-.31 9.42-.09 2.62.87 9.3-1.35 10.86-2 1.4-6.22 1-8.56 1.06-2.8.08-5.59 0-8.38 0H442.8q-55.73.09-111.44.22c-4.33 0-8.66-.2-13-.16a154.54 154.54 0 0 1-16.53-.25c-1.08-.11-3 0-4-.57-2.21-1.33-1.8-5.13-1.81-7.27 0-4.26-.27-8.52-.33-12.78-.26-16.44.1-32.92.15-49.36v-5.52a.74.74 0 0 0 0-.14c.09-2.56-.13-5.13.07-7.68.08-1 .21-5.09 1-6 1.58-1.76 8.64-1 10.8-1 3 0 6 .05 8.95.05h15.87l60.34-.17 53.63-.17c4 0 8 0 12.05.14 3.34.09 6.71 0 10 .26 2 .15 2-.24 2.58 1.75.44 1.43.2 3.47.2 4.95 0 4.21-.21 8.42-.19 12.63.17 16.57.76 33.19.61 49.69z" fill="#f78100"/><path d="M190.66 245.13c0-4.41-5.44.14-5.4 3 .15 11.46.35 64.81.29 67.76-.08 3.75 1.15 10.11-2.29 12.38-4.81 3.17-139.17 2.46-156.32 2-2.92-.08-5.82 6.78-2.58 6.86 35.55.91 152.08-.3 157.68-2.08 11.83-3.74 8.73-13.49 8.92-22.18.16-7.74-.1-52.87-.3-67.74z" opacity=".2"/><path d="M13.91 247.56c.19-2.55 4.35-7.86 6.94-8.06 1.28-.36 161.42-1.87 163.77 1.59 2.35 6.91 1.46 82.39.55 83.87-1.67 2.7-4.28 5.09-7.37 5.2-3.68.13-154.83 1-155.85.17-5.34-1.59-7.5-8.1-7.6-11.3s-.63-68.91-.44-71.47z" fill="#f78100" opacity=".85"/><path d="M181.4 240.56c-30.25-1.27-131.41-.88-151.67-.42-4.67.1-15.86-2.66-15.07 12-.34 7.24-1.29 55.3.54 71.74.49 4.43 5.73-.11 5.41-3-1.5-13.41-.55-73.74-.48-74.34.46.46 3.21.53 3.05.51 2.47.37 77.38-1.22 112.19-.64 14.47.24 29 .36 43.45 1 2.91.14 5.84-6.71 2.58-6.85z" fill="#fff" opacity=".2"/><path d="M186.73 295.08c0-10.5 0-38.31.05-41.71 0-3.55.86-9.15-1-12.33-2.33-4-12.5-2.6-16.09-2.77-1.61-.07-34.76 0-49.75.06l-81.1.34c-6.61 0-14.58-1.56-20.6 1-6.37 2.73-5 10-5.05 15.54a1 1 0 0 0 0 .17c0 16-.15 52.18-.13 54.19.05 5.41-1.34 15.15 3.5 19.14 6 4.95 15.75 2.43 22.7 2.68 2.1.08 4.12.45 6.22.47 35.06.34 114.55-.15 119.22-.21s9.85.11 14.57-.64c7.42-1.19 7.45-6.77 7.68-13.07.31-7.65-.23-15.19-.22-22.86zm-1.93 21.25c-.07 1.81 0 3.74-.2 5.55-.6 4.38-2.59 6.65-6.94 7.07-4.08.39-8.3.38-12.4.45-3.09.05-6.18 0-9.27 0q-51.46.07-102.93.22c-3.07 0-6.21.22-9.27 0a67.78 67.78 0 0 0-10-.19c-5.15.4-13 .88-16.42-3.49s-2.32-12-2.4-17.35c-.23-16.19-.2-32.4-.3-48.6v-4.65a.7.7 0 0 0 0-.14c.2-5.54-.93-12.82 6.11-14.25 4.42-.9 9.27-.37 13.76-.34h17.6l55.07-.17 50.28-.16c3.13 0 6.27-.09 9.4 0s6.25.29 9.37.43c4.43.21 7.7-.4 8.18 4.89.3 3.26.18 6.55.17 9.82-.07 15.83-.83 31.85-.15 47.67.22 4.48.54 8.69.34 13.24z" fill="#f78100"/><path d="M191.27 443.7c-.57-4.42-5.78.11-5.41 3 .28 2.19.31 26.48-.64 31.27a20.71 20.71 0 0 1-4.76 3.18c-3.83 1.58-142.38 1.17-152 1-2.92 0-5.81 6.8-2.58 6.86 28.36.5 141.34-.76 148.79-1.44 3.51-.32 8.13-.2 11-2.59a16.63 16.63 0 0 0 4.53-6.9c1.33-4.78 1.38-31.94 1.07-34.38z" opacity=".2"/><path d="M14.21 444.6c.19-2.56 3.13-6.51 5.25-7.81 2.62-.54 155.55.28 159.15.45 1.56.08 5.91 3.68 6.92 4.94s.54 34.57-.37 36.05c-1.67 2.7-5.26 3.08-8.34 3.19-3.68.13-152.84 1.32-156.33.36-1.27-.36-6.25-7.28-6.35-10.48s-.14-24.15.07-26.7z" fill="#f78100" opacity=".85"/><path d="M181.79 437.38c-12.38-.75-56.15 1.47-65.69 1.47-17.57 0-76.3-.48-88-1.74-3.63-.39-7.28-1.68-10 1.35s-3.4 7.63-3.14 11.52c0 .55-.21 17.49.23 25.64.23 4.43 5.56-.12 5.4-3-.52-9.8-.95-19.57.9-29.25.77.1 6.67.87 9 1.07 5.22.44 27.36 1.15 33.2 1.2 7 .06 58.77.14 77.64 0 12.68-.11 25.31-2.16 38-1.39 2.8.17 5.74-6.67 2.46-6.87z" fill="#fff" opacity=".2"/><path d="M187.27 459.69c-.07-4.94.31-9.91-.27-14.82-.42-3.53-.73-6.12-4.21-7.52-4.67-1.87-10.44-1.59-15.37-1.7-24.81-.53-49.68 0-74.49 0H35.85c-5.78 0-14-1.74-19 1.66-4.68 3.19-3.45 10.11-3.55 14.89a.58.58 0 0 0 0 .19v9.69c0 4.44-.84 9.62.84 13.83 3 7.54 11.31 7.53 18.11 7.45 10.31-.12 130.49-.43 133.31-.48 7.56-.14 20.71 1.87 21.71-8.48.49-4.79.07-9.82 0-14.71zm-2.17 13.46c-.86 6.79-4.59 7-10.12 7.2-3.08.12-13.34.34-15.4.34-27.53.12-109.41.64-122.81.8-4.62.06-10.37.91-14.61-.54-8.35-2.86-7.19-11.32-7.31-18.49q-.09-5-.14-10.07v-.12c.23-3.82-.75-9.91 2.42-12.81 2.73-2.5 8.16-1.83 11.56-1.83 2.2 0 4.4.05 6.6.06 3.08 0 35 .05 47.81.05l79.85.06c3.21 0 6.34.1 9.55.27 2.58.13 5.43 0 7.89.79 4.22 1.44 4.28 4 4.58 7.93.36 4.57 0 9.22 0 13.82.11 4.1.65 8.5.13 12.54z" fill="#f78100"/><path d="M292.24 469.63c-.13-8.77-.45-17.51-.18-26.28.13-4.38-5.32.17-5.41 3-.23 7.39-.15 31.3-.87 33.66-1.85 3.67-76.15 1.45-82.28 1.38-2.92 0-5.8 6.82-2.58 6.86 16.61.2 66.54.77 74.86.17 3.68-.26 8.24-.27 11.33-2.62a20.81 20.81 0 0 0 3.25-4.7c1.83-3.69 1.94-7.39 1.88-11.47z" opacity=".2"/><path d="M286.46 474.17c-.2 2.55.35 5.26-1.77 6.56-2.14 2.18-86.15 2.71-88.34-.59-1-1.26-2.12-35.89 0-39.21 1.67-2.7 5.25-3.08 8.34-3.19 3.68-.13 77.24-.67 79.08.79 4.29 3.66 2.88 33.09 2.69 35.64z" fill="#f78100" opacity=".85"/><path d="M280.88 438.64c-6.84-.48-61.82 0-68.95.15-5.68.15-12.39-.35-14.52 6.23-.2.6-2.37 6.92-2.4 8.69-.14 8.28 1.59 17 2.41 25.21.44 4.43 5.69-.11 5.4-3-.44-4.49-1.57-20-2-22.9h.09a40.87 40.87 0 0 1 7-3.62 8.65 8.65 0 0 0 3.25-3.81c2.17 0 46.87-.94 48.91-1.06 6.26-.37 12 .58 18.22 1 2.92.18 5.88-6.66 2.59-6.89z" fill="#fff" opacity=".2"/><path d="M287.15 466.5a.51.51 0 0 0 0-.13c.19-4 .47-7.88.38-11.86s1.39-13.69-2.6-16.65c-2.73-2-8.6-1.58-11.77-1.72s-6.56.31-9.87.33c-15.63.13-31.28-.39-46.92-.26-5.24 0-10.85-.16-16 .49-6.18.77-6.06 6.17-6.26 11.27-.22 5.61 0 10.87.2 16.42.19 4.66-1.44 10.74.23 15.19 1.46 3.88 7.82 3 11.15 3.14 3.65.16 7.28.37 10.93.37h49.16c6 0 12 .3 17.91-1 6.36-1.42 3.51-10.77 3.46-15.59zm-1.57 10.22c-.56 4.12-4.33 4-8 4.26-4.07.32-8.19.1-12.27.07-5.92 0-45.1.23-58.74-.42-2.38-.11-7.84.46-9.48-1.35s-.85-6.3-.79-8.66c.09-3.79 0-7.38-.25-11.16-.33-5.43-1.63-18.9 5.24-20.55 2.93-.71 6.8-.15 9.82-.25 1.67-.06 3.35-.14 5-.16 13.84-.13 27.69.16 41.53.19 6.74 0 13.45-.72 20.17-.22 3.74.28 6.31.14 7.44 4.39.95 3.55.48 8 .63 11.65.15 3.95 0 7.87-.18 11.82v.17c-.2 3.33.3 6.93-.12 10.22z" fill="#f78100"/><path d="M478.59 444c0-4.4-5.43.15-5.4 3 .07 9.65.14 19.33-.28 29 0 .19-3.21 4.32-4.12 4.51-3.07.64-152 .84-165.29.8-2.92 0-5.79 6.85-2.58 6.86 29.2.1 58.4.55 87.6.5 13.27 0 26.51-.55 39.78-.76 12.32-.2 25.31 1.27 37.54-.36 5.51-.74 11.21-3.2 12.1-9.15 1.68-11.17.74-23.13.65-34.4z" opacity=".2"/><path d="M297.13 438.61c7.93-3.33 167.33-2.42 174.74.59 2.31 4.19.93 39.1 0 40.58-1.27 2-169.41 4.81-174.81-.6-4.21-3.29-3.42-37.65.07-40.57z" fill="#f78100" opacity=".85"/><path d="M469.08 440.48a23 23 0 0 0-11.57-1.64 2.87 2.87 0 0 0-1.76 1.05c-1.39-.09-16.58-.37-22.83 0-4.37.23-8.71.28-13.08.25-11.24-.09-83.34-1.84-108.13-1.51-4.81.06-9.66-.12-12.9 4.26-5 6.76-2.57 28-1.62 34.95.6 4.42 5.8-.11 5.41-3-.73-5.35-1-21.56-.72-24.27.09-1.06-.13-3.18.46-4s.58-.62 1.92-.9c2.79-.59 88.43 1.16 112 1.37 4.07 0 24.61-.91 30.85-.59s12.49 1 18.78.8c2.16-.16 6.16-5.54 3.19-6.77z" fill="#fff" opacity=".2"/><path d="M474.52 460.44c-.14-2.31-.57-4.45-.53-6.8.07-3.84 1.19-10.83-1.06-14.25s-9.73-2.75-13.16-2.9c-2.23-.1-4.46-.23-6.69-.25h-11.62c-16.13 0-100.44-.18-126.46.09-5.68.06-13.51-.52-18.75 2.14a.65.65 0 0 0-.33.37c-1.64 1.71-1.65 5.15-1.85 7.3-.41 4.35-.43 19.42-.33 22.58.09 3-.27 8.49 2 10.91s7.12 2.46 10.12 2.69c5 .38 20.26.84 23 .84 32.1 0 114.54-.51 123.65-.67 3.69-.06 7.37-.38 11.05-.39 2.24 0 4.95.64 7.07-.35 3.87-1.8 3.31-7.13 3.45-10.7s.65-7.13.44-10.61zm-2.31 2.69c-.13 2.91-.36 11.35-.64 12.54-.69 2.92-3 4.33-6 4.23-10-.35-20.33.36-30.38.42q-47 .26-94 .56c-7.43.05-31.58-.17-36.23-.56a21 21 0 0 1-5.1-.88c-3.84-1.36-3.94-4.18-4.23-7.8a189.21 189.21 0 0 1-.33-20.49c.08-2.83-.54-9.19 1.7-11.4 3.36-1.55 7.83-1.05 11.43-1.29 2.22-.14 8.15-.24 8.9-.23 4.09 0 109.51-.2 135.84.13 1.89 0 12.45 0 15.35 1 3.82 1.35 3.3 5.39 3.35 8.83.13 4.92.57 10.05.34 14.94z" fill="#f78100"/><path d="M344.45 26.88a.71.71 0 0 0-1.36 0c-.08.44-.14.89-.19 1.34a5.73 5.73 0 0 0-5.28-1.39c-2.35.68-3.28 2.85-3.56 5.12a6.13 6.13 0 0 0 3.17 6.22 5.66 5.66 0 0 0 5.48-.74 6.16 6.16 0 0 1-.26 1.78c-1.11 3.23-5 2.4-7.08 1.16a1 1 0 0 0-1.24 1.63c2.61 2.45 7.74 1.86 9.78-1.14 1.07-1.57.9-3.53.87-5.35a56.22 56.22 0 0 0-.33-8.63zm-6.33 9.5c-1.9-.75-2.6-3-2.32-4.86s1.15-3.26 3.1-3.43c1.62-.13 2.57.86 3.89 1.38-.11 1.82-.06 3.65-.11 5.46V35c-1.28 1.06-2.86 2.05-4.56 1.38zM354.25 26.53l-.14-.09a1.22 1.22 0 0 0-1.25 0 14.36 14.36 0 0 0-2.65 1.77 2.78 2.78 0 0 0-.8-1.61.23.23 0 0 0-.3 0c-1.07 1.17-.68 2.86-.71 4.37 0 2.24-.09 4.5-.2 6.74-.07 1.29 1.94 1.29 2 0 .1-2.25.17-4.48.1-6.74v-.37a10.86 10.86 0 0 1 2-1.35c.75-.37 1.94-.43 2.3-1.27a1.1 1.1 0 0 0-.35-1.45zM358 26.89a.75.75 0 0 0-1 .26l-.06.13a.74.74 0 0 0 .12.85 38.63 38.63 0 0 1-.2 4.43c0 1.84-.05 3.67 0 5.51a1 1 0 0 0 1.9 0V30.6c-.13-1.04.32-3.1-.76-3.71zM357.65 24.27h.07a.94.94 0 0 0 .55-1.32.87.87 0 0 0-.63-.74c-.92-.28-1.57.92-1.07 1.64a1 1 0 0 0 1.08.42zM372.61 22.2a.72.72 0 0 0-1.41-.2 26.36 26.36 0 0 0-.92 5.41 6.4 6.4 0 0 0-4.28-1.18 5.63 5.63 0 0 0-4.42 5.67c0 2.38 1.21 5 3.5 6a5.23 5.23 0 0 0 5.37-1c0 .42.08.84.13 1.25.12 1.14 1.9 1.19 1.83 0-.3-5.43.29-10.65.2-15.95zm-2.76 12.46a3.25 3.25 0 0 1-4.54 1.34 4.88 4.88 0 0 1-1.89-4.58 3.57 3.57 0 0 1 3.8-3.46 7.24 7.24 0 0 1 2.95 1.4c0 1.64 0 3.29.1 4.91a.72.72 0 0 0-.42.39zM389.77 26.76a8.41 8.41 0 0 0-3.39 0 5.06 5.06 0 0 0-4.18 4.84c-.34 4.6 4.74 9.88 8.95 5.86.81-.77-.4-2-1.21-1.22-3.38 3.09-6.64-2.48-5.71-5.46.6-2 2.35-2.32 4.15-2.36 1.17 0 1.63.45 2.64.67a.44.44 0 0 0 .43-.73c-.66-.78-.57-1.36-1.68-1.6zM404.85 29.43c-.21-2.88-5.1-3-7.07-2.18-2.56 1.12-3.85 5.28-2.78 7.77 1.21 2.82 5.74 4.51 8.29 2.62a6.4 6.4 0 0 0 1.54-8.13.24.24 0 0 0 .02-.08zM403 35.49c-1.79 2-6.13.68-6.35-2.11-.14-1.82.81-4.1 2.67-4.55a5.77 5.77 0 0 1 3.8.47.71.71 0 0 0 .09.65 4.61 4.61 0 0 1-.21 5.54zM417.1 27.13c-1.88-1.47-4.63-.29-6.31 1.34a9.12 9.12 0 0 0-.2-1.29c-.13-.57-.86-.46-1 0a15.3 15.3 0 0 0-.69 5.26 18.84 18.84 0 0 0 .3 5.36c.21.76 1.55.89 1.68 0a36.9 36.9 0 0 0 0-5.36v-2.37c2-1.2 5.37-3.66 6-.07a30.13 30.13 0 0 1 0 6.91c-.07 1.3 2.11 1.29 2 0-.16-2.14-.09-4.31-.28-6.45a4.56 4.56 0 0 0-1.5-3.33zM426.61 35.88c-1.06 1.18-1.22-2.59-1.22-2.79 0-1.15 0-2.3-.05-3.45v-.86a5.72 5.72 0 0 0 1.44-.35c.9-.35.9-2-.25-1.86-.42.05-.83.11-1.24.18 0-.92-.11-1.83-.23-2.74s-1.46-.59-1.55.21a25.76 25.76 0 0 0-.16 2.78h-.27c-.47 0-1.88.05-1.61.93v.12a.8.8 0 0 0 .55.55 10.54 10.54 0 0 0 1.29.19v2.31c0 1.69-.29 3.77.4 5.37.8 1.84 3.24 2.37 4.34.55.61-.89-.7-1.95-1.44-1.14zM437.91 27.43c-1.91-2.26-5.7-1.41-7.5.55A.63.63 0 0 0 431 29c.93-.2 1.73-.74 2.65-1 2.12-.5 3.24.73 3.52 2.64.07.48.12.95.16 1.43-3-1.53-8-1.05-7.31 3.24a3.72 3.72 0 0 0 3.63 3 5.87 5.87 0 0 0 4-1.44v.7c.09 1.2 2 1.22 1.89 0-.11-2.06-.23-4.12-.41-6.17a7 7 0 0 0-1.22-3.97zm-3.2 8.91c-1 .25-2.51 0-2.73-1.23-.51-2.81 3.59-2 5.49-1.43l.06 1a9.05 9.05 0 0 1-2.82 1.66zM444.33 27.48a.7.7 0 0 0-1.39 0 31 31 0 0 0-.06 5.45c.08 1.47 0 3 .68 4.33a.68.68 0 0 0 1.24-.16c.4-1.43 0-3.05-.12-4.53-.12-1.7-.14-3.4-.35-5.09zM444 24.19a1.24 1.24 0 0 0 .86-.83.8.8 0 0 0-.2-.76.81.81 0 0 0-.93-.35 1.46 1.46 0 0 0-.65.37c-.66.59.06 1.94.92 1.57zM456.5 26.37c-1.86-1.06-4.67.65-6.08 2.54a17.46 17.46 0 0 0-.22-1.77c-.13-.63-1.2-.66-1.3 0a35.09 35.09 0 0 0-.19 5.8c0 1.33-.42 3.63.3 4.79.53.85 2.11.29 1.7-.72-.55-1.31-.12-3.75-.18-5.19v-1.63c1.92-1.13 5.1-3.63 5.87-.62.62 2.4.36 5.55.24 8-.07 1.33 2.13 1.33 2.06 0-.14-2.47-.15-5-.38-7.42-.19-1.43-.46-3.01-1.82-3.78zM466.4 26.58a5.85 5.85 0 0 0-4 7.93c1.58 3.4 6.48 4.41 9.39 2.16.61-.48-.08-1.34-.7-1.21-2.44.53-5.34 1.36-6.93-1.32a3.84 3.84 0 0 1-.32-.76 24.24 24.24 0 0 0 5.43-.37c1.06-.1 3.49.14 3.84-1.27.31-1.26-1.37-3.37-2.19-4.2a4.68 4.68 0 0 0-4.52-.96zm3.92 4.57l-1.78.19a37.2 37.2 0 0 0-4.82.33 4.09 4.09 0 0 1 4.46-3.48c1 .15 2.73 1.42 2.78 2.6.04.48.57.21-.64.36zM482.37 26.89c-1.14-.87-3.34.24-4.33 1-.21.16-.43.34-.64.53 0-.24 0-.49-.07-.74a.68.68 0 0 0-1.35 0 36 36 0 0 0 .3 10.15c.19 1 1.58.67 1.63-.22.07-1.64-.18-3.32-.27-5 0-.66-.07-1.32-.1-2 .73-.18 1.34-1.06 1.94-1.43a4.66 4.66 0 0 1 1.35-.54c.54-.14 1.08-.06 1.54-.41a.79.79 0 0 0 0-1.34z" fill="#1e1e1e"/></svg>