<svg xmlns="http://www.w3.org/2000/svg" viewBox="0 0 490 520"><path d="M474 74.5c-42.59-9.36-80.08-11.56-122.87-3.36C272.3 69.29 82.92 72.16 62 69.88 47.62 64.39 2.73 58 8.37 100c-.34.94 1.71 149.73-1.85 160.67-1.77 5.46-2.08 23 4.85 23.53 26.18 1.93 166.3 10.79 175.45 0 4.34 3.31 209 5.23 214.66 1l61.3 4c27.22 1.81 14.59-79 14-108.37-.68-30.09 1.68-105.35-2.78-106.33z" fill="#fff"/><path d="M190.2 68.85c-1.34 19.87-.83 40-1 59.92q-.22 28.71-.15 57.42.06 41.82.53 83.66c.06 5 .22 11.16.29 15.56a1.28 1.28 0 0 0 2.55 0c-.78-49.58-.93-99.19-.75-148.77.09-22.55 1.17-45.26.45-67.79a1 1 0 0 0-2 0zM289.76 69.57c-.87 19.89-.05 40 0 59.87q0 28.51-.05 57-.1 41.06-.36 82.12v15.42a1.28 1.28 0 0 0 2.55 0c.34-48.11.5-98 .4-146.63-.05-22.53.74-45.32-.54-67.82a1 1 0 0 0-1.95 0z" fill="#1e1e1e"/><path d="M475.42 129.08c-15-.37-30-.53-45-.66q-22-.19-44-.21-32.49 0-65 .08-54.47.15-108.92.38l-175 .73q-13.63 0-27.27.12a1.25 1.25 0 0 0 0 2.5q92.37-.3 184.74-.79 57.93-.25 115.86-.47 34.58-.1 69.16-.14 22.71 0 45.42.13c14.56.09 29.13.35 43.7.28h6.37a1 1 0 0 0 0-1.92zM477 229.43c-15.54-.22-31.07-.21-46.6-.23q-55.66-.07-111.34-.06H29.63c-5.81 0-12.39-.86-18.15 0a5.47 5.47 0 0 1-.81 0 1.26 1.26 0 0 0 0 2.51h408.89c12.82 0 25.65 0 38.48-.05 5.7 0 12.51.93 18.14-.16a4.49 4.49 0 0 1 .82 0 1 1 0 0 0 0-1.93z" fill="#1e1e1e"/><path d="M478.58 257.05c0-10.68-.5-154.45-.3-171.55.07-6.06 1.45-14.59-6.22-16.38-6.48-1.5-14.2-1-20.82-1.07-2.51 0-379.09.16-413.72.12h-2.76c-7.2 0-22.8-2.62-24.72 7.4a.7.7 0 0 0 0 .25c-1.08 10-1 200.12-.22 203.71.54 2.57 1.3 4.34 3.81 5.3 5.28 2 12.44 2.13 18 2.13h3.8c12.19-.08 125.67-.3 170.22-.4 41.08-.09 232-.32 246.69-.6 5.6-.1 11.44.17 17-.62 4.08-.57 7.64-1.88 8.5-6.29 1.36-6.96.76-14.91.74-22zm-6.86 25.5c-2.42 1.19-16 1-19.37 1.1-7.15.14-155.53.37-201.13.48-53.18.12-194.61.47-212.13.57-1.69 0-15-.21-19.67-.93-3.15-.48-6-.42-7.38-3.85-.82-2.11-.66-4.9-.71-7.14-.91-43.67-.12-170.25 0-189.81 0-2.29-.12-4.67.1-7a.11.11 0 0 0 0-.06c1.8-8.78 18.17-6 24.94-6 .91 0 405.56.06 414.69.16 5.68.06 11.4.27 17.07.69 2.25.17 3.92.11 5.7 1.57 3.32 2.73 2.45 7.48 2.35 11.32v20.72q.09 76.55.17 153.09c0 6.94 1.65 21.99-4.63 25.09z" fill="#1e1e1e"/><path d="M191.13 81.47c.21-4.35-5.27.19-5.4 3-.31 6.49 1.29 38.36-1 40.26-3.42 3-144.74 2.32-159.55.94-2.89-.27-5.89 6.56-2.58 6.86 14 1.3 124.92.39 139.13.32 7.42 0 19.52 1.73 25.27-3.06 8.4-5.87 3.74-40.09 4.13-48.32z" opacity=".2"/><path d="M186 120.08c-.19 2.56-.75 4.58-2.87 5.87-.53.33-157.31.16-160.91 0-1.55-.08-6.06 0-7.05-3.25-1-1.26-.41-44.49.51-46 1.66-2.7 5.75-3.08 8.83-3.19 3.68-.13 150.11-2 158.27.3 2.4 2 3.68 7.62 3.78 10.82s-.42 32.9-.56 35.45z" fill="#f78100" opacity=".85"/><path d="M181.38 74.09c-3.86-1.58-158-.28-160.08.56-4.13 1.69-4.78 5.8-5.16 9.78a358.35 358.35 0 0 0-1.48 39.32c.07 4.41 5.45-.14 5.4-3-.18-10.87.71-38.74 1.78-39.91s28.84-1.23 39.49-1.29c25.69-.14 97.65.73 100.61.69 4.78 0 11.18-1.5 15.69.34 2.91 1.2 6.48-5.37 3.75-6.49z" fill="#fff" opacity=".2"/><path d="M186.62 112.26c.13-6.06.47-12.13.49-18.19 0-3.72-.07-16.14-1.07-18.23-1.52-3.18-5.78-3.18-8.87-3.5-10.59-1.1-148.84-.19-152.71.06-3.44.21-8.34.26-9.73 3.93-2 5.24-1.22 12.44-1.25 17.94 0 4-.32 21.7.2 26.58.41 3.92 1.38 5.47 5.44 6 10.65 1.32 66.14.49 82.94.42 16.29-.06 71.73-.25 75.74-.44 1.79-.08 4.85.37 6.43-.55 4.05-2.38 2.41-10.28 2.42-13.84a.66.66 0 0 0-.03-.18zm-4.33 12.41c-2.32.91-14.45.33-17.19.32-3.19 0-104.29.6-130.6.39-1.32 0-10.75-.29-14.13-.61-4.52-.42-4.6-3.21-4.71-7.24-.2-7.71.23-28.31.33-30.83.12-3.09-.74-9.4 2.5-11.06 4.44-2.27 12.23-1.28 17.08-1.36 2.64 0 67.85-.13 97.82-.21 7.71 0 31.41 0 35.55-.14S181 73 183.76 76.36c2.06 2.47 1.73 15.48 1.74 18.14 0 3.24-.24 15.08-.3 17.76a.66.66 0 0 0 0 .15c-.2 3.51 1.31 10.59-2.91 12.26z" fill="#f78100"/><path d="M291.69 107c.12-9-.89-17.88-.53-26.95.18-4.37-5.29.18-5.4 3-.32 7.73 2.07 39.15-2 41-2.81 1.27-56.64.87-80.09.9-2.92 0-5.78 6.87-2.58 6.87 24.61 0 49.43.87 74-.38 5.25-.27 10.54-.26 13.73-5.1 3.53-5.34 2.79-13.25 2.87-19.34z" opacity=".2"/><path d="M196.69 74.69c3-2.45 84.82-3.14 87.87-.12 2.26 3.71 1.94 47 1 48.52-3.34 4.47-81.81 3.19-88.48.9-3.31-1.93-3.37-46.85-.39-49.3z" fill="#f78100" opacity=".85"/><path d="M284.35 75.38c-9.72-4.34-84-2.07-86.74.58-5 4.86-3.87 37-.93 45.25 1.53 4.35 7.37-2.17 6.24-5.36-2.63-7.44-2.48-15.07-2.22-22.85.08-2.24.17-4.48.17-6.72a38.14 38.14 0 0 1-.3-4.5c.23.17 16.87-.89 24.36-1q12.91-.17 25.84-.11c9.39 0 20.42-1.37 29.08 2.5 3.43 1.54 7.77-6.33 4.5-7.79z" fill="#fff" opacity=".2"/><path d="M287.1 83c-.23-3.53.23-9-3.87-10-5-1.25-10.79-.77-15.87-.85-7.3-.11-14.62 0-21.92 0h-29.29c-4.9 0-9.79.41-14.66.87-1.32.12-3.58 0-4.8.66-2.52 1.49-2 4.92-2 7.35v.14c-.67 9.85-.43 19.79-.77 29.66-.12 3.58-.83 12.33 2.88 14.43 1.82 1 5 .87 7 1a71.62 71.62 0 0 0 8.91.16c17.46-.91 34.95.53 52.39-.1 5.7-.21 11.41-.11 17.1-.38 5-.24 5.08-3.71 5.13-8.1.09-11.55.55-23.26-.23-34.84zm-1.69 23.83c-.13 3.41-.34 6.83-.37 10.24 0 3.19.56 6-3.34 6.62-5.19.75-46.33 0-61.45.09-4.72 0-9.39.58-14.13.38-2.3-.1-7.35.38-8.85-1.41-2.2-2.63-1.51-9.66-1.45-12.87.2-9.56-.23-19.17.27-28.71a.66.66 0 0 0 0-.15c.11-1.55.13-4.94 1.58-5.75a8.29 8.29 0 0 1 2.42-.26c2.78-.27 13.84-.89 16.58-.88 7.59 0 51.92.11 54 .17 2.68.06 5.35.11 8 .29 3.26.21 5.07-.15 5.73 3.25 1.08 5.53.37 11.14.66 16.71.21 4.12.51 8.19.35 12.3z" fill="#f78100"/><path d="M291.89 141.15c-.05-4.41-5.44.14-5.41 3 .31 23.34.41 74.36 0 76.38-.41 2.37-6.46 5.82-5.77 5.77-2.67.39-65.5-.24-74.91-.19-2.93 0-5.79 6.87-2.58 6.86 22.39-.1 72.69.05 75.27-.33a15.94 15.94 0 0 0 13.35-14.2c1.16-13.35.21-65.01.05-77.29z" opacity=".2"/><path d="M196.31 135.17c1.84-1.09 85.43-3.6 89.19 1.67 2.17 2.48 1.59 84.85 0 87.67-2.41 3.85-83.29 2.17-86.77 1.2-1.27-.35-2.21-2.1-3.22-3-2.38-1.98-2.24-86.31.8-87.54z" fill="#f78100" opacity=".85"/><path d="M283.61 136.15c-15.52-.21-76.74-2.1-83.08-.21-2.77.82-5.4 3.89-4.48 6.79a13.47 13.47 0 0 0-1.44 3.05c-.91 2.8 0 68.63 1.54 75.51.8 3.63 5.8-1.74 5.21-4.47-2.66-12.17-1.64-52-1.73-58.87-.06-4.59-.74-13.65 3.43-15.27s32.73 0 38.48 0c13.16.1 26.32.14 39.49.32 2.97.05 5.8-6.8 2.58-6.85z" fill="#fff" opacity=".2"/><path d="M287.66 182.71c-.14-11.42-.51-22.87-.24-34.29.08-3.29 1.09-8.29-.4-11.31-1.2-2.45-4.67-3.15-7.16-3.51-5.43-.78-11.3-.13-16.84-.13-14.34 0-54.38 0-60.06.23-2 .08-6.31-.63-7.78 1.13-1.73 2.07-1.24 10.76-1.23 10.82-.64 10.85-.85 55.63-.52 67.1.1 3.52-.38 7.79 1.24 11 1.38 2.76 3.57 2.84 6.39 3.16 5.06.58 64.05.87 68.41.71 4.16-.15 10.56.87 14.48-1 3.18-1.54 3.82-5.42 4.05-8.64.83-11.54-.19-23.7-.34-35.27zm-1.88 33.91c-.13 3.42-.49 7.38-4.55 8.34-2.56.6-75.89.15-79.07-.16-2.69-.27-4.68 0-5.82-3-.92-2.42-.58-5.56-.65-8.11-.35-11.61-1-57.08-.32-68.09v-.13c.25-2.53-.06-8.28 1.9-9.61 1.79-1.22 7.67-.33 10-.4 4.23-.13 56.26 0 59.94.08 3.23 0 6.48-.16 9.71 0 2.43.1 6.89.23 8.26 2.89.92 1.78.23 6.09.18 8-.21 9.78.57 66.21.42 70.19z" fill="#f78100"/><path d="M478.24 80.43c-.24-4.43-5.57.12-5.41 3 .35 6.32-.16 26.14-.19 29.78 0 2.84.24 9.77-2.58 11-1.72.74-148.26.49-161.76.66-2.92 0-5.77 6.9-2.58 6.86 26.85-.34 129.61 1 154-.84 4.84-.36 10.44-.13 14.32-3.62 5.75-5.19 4.71-37.47 4.2-46.84z" opacity=".2"/><path d="M297.28 74.13c4-1.56 173.13-2.58 174.31.3 1 1.25 1.94 46.42 1 47.9-1.67 2.7-6.25 2.08-9.34 2.19-3.68.13-163.53 2-166.24-.3-2.36-2.02-3.52-47.05.27-50.09z" fill="#f78100" opacity=".85"/><path d="M466.66 73.91c-13.25-.36-112.93 1.88-135.7 1.55-3.37 0-20.46-2.23-24.83-.77a2.17 2.17 0 0 0-.36-.12c-8.25-1.85-8.18 12.79-8.56 17.39-.8 9.38-2.78 21.73 1.36 30.53 1.3 2.77 5.9-3 4.65-5.67-2.47-5.25-1.46-13.3-1.21-18.94.14-3 1.13-14.47 1.15-14.69a6.57 6.57 0 0 0 3.24-2.72c3.35-.39 13.22 1.57 14.2 1.63 3.34.19 30.31.23 40.46.09 20.59-.26 89.31-1.79 103-1.42 2.94.08 5.84-6.77 2.6-6.86z" fill="#fff" opacity=".2"/><path d="M472.84 74.49c-1.4-2.66-5.28-2.45-7.9-2.53-28.3-.89-118.28 0-134.89 0h-16.46c-3.63.09-7.28.43-10.9.71-1.61.13-4 0-5.46.75-4.55 2.46-2.6 11.75-2.61 15.58a.66.66 0 0 0 0 .15c-.21 8.26-.44 16.42-.22 24.68.07 2.9-.68 9.37 2.37 11.18s9.82 1 13.38 1c11.51 0 23 .14 34.55.13q50.17 0 100.35-.16c2.9 0 5.8 0 8.71-.07 5-.13 11.06.74 16-.34 3.73-.81 3.86-4.82 4-8.05.43-9-.15-17.85-.1-26.85.06-4.53 1.41-11.93-.82-16.18zm-1.3 43.11c-.18 3.22-.16 5.48-3.81 5.84-2.7.27-5.52.11-8.23.16-3.82.07-7.64.17-11.46.17q-45.29.08-90.56.19c-10.61 0-21.27.4-31.87.16-7.86-.18-15.74.31-23.6-.17-2.92-.18-4.68.16-5.42-3-.8-3.41-.51-7.3-.64-10.77-.14-4-.15-7.92-.07-11.92.06-3 .11-6 .19-9v-.15c.14-3.71-1-9.52 1.31-12.69 1.59-2.19 5.06-1.72 7.72-1.89 3.63-.23 7.25-.5 10.89-.5h52c30.51 0 61-.07 91.55.07 2.52 0 8.18-.65 10.24.59 3.59 2.15 1.57 14.12 1.62 17.72 0 3.41.3 6.83.45 10.24.29 4.95-.05 9.98-.31 14.95z" fill="#f78100"/><path d="M477.45 140.59c-.16-4.42-5.51.13-5.41 3 .41 11.49.41 77.81.1 78.57-1.51 3.7-7.14 3.51-10.36 3.72-15.9 1.05-137.22.87-153.92.57-2.92 0-5.81 6.81-2.58 6.86 35.47.64 149 .13 158.2-.94 17.88-.68 14.28-13.65 14.48-18.32.39-9.53.04-58.52-.51-73.46z" opacity=".2"/><path d="M296.52 134.69c2.93-1.28 173.65-1.79 175.29.32 1 1.26 1.39 87.63.48 89.11-1.67 2.7-16.65 2.36-20.33 2.49 0 0-153.6.18-154.62-.68-.27-.23-2.25-4-2.25-4s-.46-86.09 1.43-87.24z" fill="#f78100" opacity=".85"/><path d="M467.35 135.48c-14.26-.94-132.72 1.15-147.52.69-5.27-.16-12.16-2.38-17.26-.55-3.66 1.31-4.72 4.77-5.24 8.25-2 13.3-1.67 70.1-.64 77.68.6 4.42 5.8-.12 5.41-3-2.07-15.25-.14-75.91.49-77.47 0 1 13.23 1.93 15.73 2 33.32.68 66.73-.74 100.06-1.08 15.42-.16 31-.66 46.39.37 2.91.17 5.86-6.67 2.58-6.89z" fill="#fff" opacity=".2"/><path d="M474 204.13c0-2.59-.06-5.18-.1-7.77q-.21-16.65-.41-33.31c-.1-8.59 1-17.75-.13-26.21-.7-5.37-5-3.88-9.57-4-3.63-.09-7.27-.25-10.9-.28-14.81-.15-29.63.11-44.43.16q-33.66.14-67.3.27l-21.56.09h-4.17c-2.55 0-5.11-.06-7.66 0-3 .06-7.76-.42-10.67.58-4.55 1.57-2.65 12.52-2.66 16a.76.76 0 0 0 0 .16c-.13 17.25-.4 34.5-.6 51.75 0 4 .1 8.08.18 12.13s-1.34 11.38 3.57 13.09c4.72 1.64 11 1.19 15.89 1.07 3.85-.1 7.66 0 11.49.11 36.83.94 73.81-.11 110.65-.19h25.32c3.19 0 10 .46 12-2.89 1.37-2.36.6-6.41.69-9 .12-3.96.37-7.89.37-11.76zm-2.24 0c0 3.14-.21 6.28-.31 9.42-.09 2.63.87 9.3-1.35 10.86-2 1.4-6.22 1-8.56 1.07-2.8.07-5.59 0-8.38 0H442.8q-55.73.09-111.44.23c-4.33 0-8.66-.21-13-.17a154.54 154.54 0 0 1-16.53-.25c-1.08-.11-3 0-4-.57-2.21-1.33-1.8-5.13-1.81-7.27 0-4.26-.27-8.51-.33-12.78-.26-16.44.1-32.91.15-49.36v-5.52a.74.74 0 0 0 0-.14c.09-2.56-.13-5.13.07-7.68.08-.95.21-5.09 1-5.95 1.58-1.77 8.64-1 10.8-1 3 0 6 .05 8.95.05h15.87l60.34-.17 53.63-.17c4 0 8 0 12.05.14 3.34.09 6.71 0 10 .26 2 .15 2-.24 2.58 1.75.44 1.43.2 3.47.2 4.95 0 4.21-.21 8.42-.19 12.63.17 16.54.76 33.08.61 49.63z" fill="#f78100"/><path d="M190.66 140.72c0-4.41-5.44.14-5.4 3 .15 11.46.35 64.81.29 67.76-.08 3.75 1.15 10.12-2.29 12.38-4.81 3.17-139.17 2.46-156.32 2-2.92-.08-5.82 6.78-2.58 6.86 35.55.92 152.08-.3 157.68-2.07 11.83-3.75 8.73-13.5 8.92-22.19.16-7.74-.1-52.92-.3-67.74z" opacity=".2"/><path d="M13.91 143.16c.19-2.56 4.35-7.87 6.94-8.07 1.28-.36 161.42-1.87 163.77 1.6 2.35 6.91 1.46 82.38.55 83.86-1.67 2.7-4.28 5.09-7.37 5.2-3.68.13-154.83 1-155.85.17-5.34-1.59-7.5-8.1-7.6-11.3s-.63-68.91-.44-71.46z" fill="#f78100" opacity=".85"/><path d="M181.4 136.15c-30.25-1.27-131.41-.88-151.67-.42-4.67.1-15.86-2.66-15.07 12-.34 7.24-1.29 55.3.54 71.75.49 4.42 5.73-.12 5.41-3-1.5-13.41-.55-73.74-.48-74.34.46.46 3.21.53 3.05.51 2.47.38 77.38-1.22 112.19-.64 14.47.24 29 .37 43.45 1 2.91.13 5.84-6.72 2.58-6.86z" fill="#fff" opacity=".2"/><path d="M186.73 190.67c0-10.5 0-38.31.05-41.71s.86-9.15-1-12.33c-2.33-4-12.5-2.6-16.09-2.77-1.61-.07-34.76 0-49.75.06l-81.1.34c-6.61 0-14.58-1.55-20.6 1-6.37 2.73-5 10-5.05 15.54a1 1 0 0 0 0 .17c0 16.05-.15 52.18-.13 54.19.05 5.41-1.34 15.15 3.5 19.14 6 4.95 15.75 2.43 22.7 2.68 2.1.08 4.12.45 6.22.47 35.06.34 114.55-.15 119.22-.21s9.85.11 14.57-.64c7.42-1.19 7.45-6.77 7.68-13.07.31-7.65-.23-15.19-.22-22.86zm-1.93 21.25c-.07 1.81 0 3.75-.2 5.55-.6 4.39-2.59 6.65-6.94 7.07-4.08.39-8.3.39-12.4.45h-9.27q-51.46.08-102.93.22c-3.07 0-6.21.22-9.27 0a67.78 67.78 0 0 0-10-.19c-5.15.4-13 .88-16.42-3.49s-2.32-12-2.4-17.34c-.23-16.2-.2-32.41-.3-48.61v-4.65a.7.7 0 0 0 0-.14c.2-5.54-.93-12.82 6.11-14.25 4.42-.9 9.27-.37 13.76-.34h17.6l55.07-.16 50.28-.17c3.13 0 6.27-.09 9.4 0s6.25.29 9.37.43c4.43.21 7.7-.4 8.18 4.89.3 3.26.18 6.55.17 9.82-.07 15.83-.83 31.86-.15 47.67.22 4.48.54 8.69.34 13.24z" fill="#f78100"/><path d="M191.27 241.82c-.57-4.43-5.78.11-5.41 3 .28 2.18.31 26.48-.64 31.27a20.71 20.71 0 0 1-4.76 3.18c-3.83 1.58-142.38 1.17-152 1-2.92 0-5.81 6.8-2.58 6.86 28.36.5 141.34-.76 148.79-1.44 3.51-.32 8.13-.2 11-2.59a16.7 16.7 0 0 0 4.53-6.9c1.33-4.79 1.38-31.95 1.07-34.38z" opacity=".2"/><path d="M14.21 242.71c.19-2.55 3.13-6.5 5.25-7.8 2.62-.54 155.55.28 159.15.45 1.56.08 5.91 3.68 6.92 4.94s.54 34.57-.37 36.05c-1.67 2.7-5.26 3.08-8.34 3.19-3.68.13-152.84 1.32-156.33.35-1.27-.35-6.25-7.27-6.35-10.47s-.14-24.15.07-26.71z" fill="#f78100" opacity=".85"/><path d="M181.79 235.49c-12.38-.75-56.15 1.47-65.69 1.48-17.57 0-76.3-.48-88-1.75-3.63-.39-7.28-1.67-10 1.35s-3.4 7.64-3.14 11.52c0 .55-.21 17.49.23 25.65.23 4.43 5.56-.12 5.4-3-.52-9.8-.95-19.57.9-29.25.77.1 6.67.87 9 1.06 5.22.44 27.36 1.16 33.2 1.21 7 .06 58.77.14 77.64 0 12.68-.1 25.31-2.15 38-1.38 2.8.15 5.74-6.69 2.46-6.89z" fill="#fff" opacity=".2"/><path d="M187.27 257.81c-.07-4.94.31-9.91-.27-14.82-.42-3.54-.73-6.13-4.21-7.52-4.67-1.88-10.44-1.59-15.37-1.7-24.81-.53-49.68 0-74.49 0H35.85c-5.78 0-14-1.73-19 1.67-4.68 3.18-3.45 10.11-3.55 14.89a.58.58 0 0 0 0 .19v9.68c0 4.44-.84 9.63.84 13.84 3 7.54 11.31 7.53 18.11 7.45 10.31-.12 130.49-.43 133.31-.49 7.56-.14 20.71 1.88 21.71-8.47.49-4.8.07-9.84 0-14.72zm-2.17 13.45c-.86 6.8-4.59 7-10.12 7.21-3.08.12-13.34.33-15.4.34-27.53.12-109.41.64-122.81.8-4.62.06-10.37.91-14.61-.55-8.35-2.86-7.19-11.31-7.31-18.48q-.09-5-.14-10.07v-.12c.23-3.82-.75-9.92 2.42-12.82 2.73-2.49 8.16-1.82 11.56-1.83 2.2 0 4.4.06 6.6.07 3.08 0 35 0 47.81.05l79.85.06c3.21 0 6.34.09 9.55.26 2.58.14 5.43 0 7.89.8 4.22 1.43 4.28 4 4.58 7.92.36 4.58 0 9.23 0 13.82.11 4.1.65 8.5.13 12.54z" fill="#f78100"/><path d="M292.24 267.75c-.13-8.77-.45-17.51-.18-26.29.13-4.37-5.32.18-5.41 3-.23 7.38-.15 31.3-.87 33.66-1.85 3.67-76.15 1.45-82.28 1.37-2.92 0-5.8 6.83-2.58 6.86 16.61.21 66.54.78 74.86.18 3.68-.26 8.24-.28 11.33-2.63a20.75 20.75 0 0 0 3.25-4.69c1.83-3.68 1.94-7.38 1.88-11.46z" opacity=".2"/><path d="M286.46 272.29c-.2 2.55.35 5.26-1.77 6.56-2.14 2.18-86.15 2.71-88.34-.59-1-1.26-2.12-35.89 0-39.21 1.67-2.7 5.25-3.09 8.34-3.2 3.68-.12 77.24-.67 79.08.8 4.29 3.66 2.88 33.09 2.69 35.64z" fill="#f78100" opacity=".85"/><path d="M280.88 236.76c-6.84-.49-61.82 0-68.95.15-5.68.14-12.39-.35-14.52 6.22-.2.6-2.37 6.93-2.4 8.7-.14 8.28 1.59 17 2.41 25.21.44 4.43 5.69-.12 5.4-3-.44-4.49-1.57-20-2-22.9h.09a40.92 40.92 0 0 1 7-3.63 8.61 8.61 0 0 0 3.25-3.8c2.17 0 46.87-.94 48.91-1.06 6.26-.38 12 .58 18.22 1 2.92.17 5.88-6.65 2.59-6.89z" fill="#fff" opacity=".2"/><path d="M287.15 264.61a.43.43 0 0 0 0-.12c.19-4 .47-7.88.38-11.86s1.39-13.69-2.6-16.65c-2.73-2-8.6-1.58-11.77-1.73s-6.56.31-9.87.34c-15.63.13-31.28-.39-46.92-.26-5.24 0-10.85-.16-16 .49-6.18.77-6.06 6.17-6.26 11.27-.22 5.61 0 10.86.2 16.42.19 4.65-1.44 10.74.23 15.18 1.46 3.88 7.82 3 11.15 3.14 3.65.17 7.28.38 10.93.38h49.16c6 0 12 .3 17.91-1 6.36-1.42 3.51-10.78 3.46-15.6zm-1.57 10.22c-.56 4.12-4.33 4-8 4.27-4.07.32-8.19.09-12.27.07-5.92 0-45.1.22-58.74-.42-2.38-.11-7.84.46-9.48-1.36s-.85-6.3-.79-8.65c.09-3.79 0-7.38-.25-11.16-.33-5.44-1.63-18.9 5.24-20.55 2.93-.71 6.8-.15 9.82-.26 1.67-.05 3.35-.14 5-.15 13.84-.13 27.69.16 41.53.19 6.74 0 13.45-.72 20.17-.22 3.74.28 6.31.14 7.44 4.38.95 3.55.48 8 .63 11.66.15 3.95 0 7.87-.18 11.82v.16c-.2 3.39.3 6.93-.12 10.22z" fill="#f78100"/><path d="M478.59 242.14c0-4.4-5.43.15-5.4 3 .07 9.65.14 19.32-.28 29 0 .19-3.21 4.32-4.12 4.5-3.07.64-152 .85-165.29.81-2.92 0-5.79 6.85-2.58 6.86 29.2.1 58.4.55 87.6.49 13.27 0 26.51-.54 39.78-.76 12.32-.19 25.31 1.27 37.54-.36 5.51-.73 11.21-3.2 12.1-9.14 1.68-11.19.74-23.15.65-34.4z" opacity=".2"/><path d="M297.13 236.73c7.93-3.34 167.33-2.43 174.74.59 2.31 4.18.93 39.1 0 40.58-1.27 2-169.41 4.8-174.81-.61-4.21-3.29-3.42-37.64.07-40.56z" fill="#f78100" opacity=".85"/><path d="M469.08 238.6a23 23 0 0 0-11.57-1.6 2.87 2.87 0 0 0-1.76 1c-1.39-.09-16.58-.37-22.83 0-4.37.23-8.71.28-13.08.25-11.24-.09-83.34-1.84-108.13-1.51-4.81.06-9.66-.12-12.9 4.26-5 6.76-2.57 28-1.62 35 .6 4.42 5.8-.11 5.41-3-.73-5.35-1-21.57-.72-24.27.09-1.06-.13-3.19.46-4.05s.58-.62 1.92-.91c2.79-.58 88.43 1.17 112 1.38 4.07 0 24.61-.91 30.85-.59s12.49 1 18.78.8c2.16-.16 6.16-5.53 3.19-6.76z" fill="#fff" opacity=".2"/><path d="M474.52 258.56c-.14-2.31-.57-4.45-.53-6.81.07-3.83 1.19-10.82-1.06-14.24s-9.73-2.75-13.16-2.9c-2.23-.1-4.46-.23-6.69-.26h-11.62c-16.13 0-100.44-.18-126.46.09-5.68.06-13.51-.52-18.75 2.14a.65.65 0 0 0-.33.37c-1.64 1.71-1.65 5.15-1.85 7.3-.41 4.34-.43 19.41-.33 22.57.09 3-.27 8.5 2 10.92s7.12 2.45 10.12 2.69c5 .38 20.26.84 23 .84 32.1 0 114.54-.51 123.65-.67 3.69-.07 7.37-.39 11.05-.39 2.24 0 4.95.63 7.07-.35 3.87-1.8 3.31-7.13 3.45-10.7s.65-7.16.44-10.6zm-2.31 2.69c-.13 2.91-.36 11.35-.64 12.54-.69 2.91-3 4.33-6 4.22-10-.34-20.33.37-30.38.43q-47 .26-94 .56c-7.43.05-31.58-.17-36.23-.57a20.56 20.56 0 0 1-5.1-.87c-3.84-1.37-3.94-4.18-4.23-7.8a189.25 189.25 0 0 1-.33-20.49c.08-2.83-.54-9.2 1.7-11.4 3.36-1.55 7.83-1.05 11.43-1.29 2.22-.15 8.15-.24 8.9-.24 4.09 0 109.51-.19 135.84.14 1.89 0 12.45 0 15.35 1 3.82 1.35 3.3 5.39 3.35 8.82.13 4.93.57 10.06.34 14.95z" fill="#f78100"/><path d="M18 104.74c.33-.08.64-.2 1-.31z" fill="#fff"/><path d="M2.63 481.34c.59-1.28.41-2.77.48-4.15a13.27 13.27 0 0 0-.42-4.48.71.71 0 0 0-1.36 0 13.27 13.27 0 0 0-.43 4.48c0 1.38-.13 2.87.46 4.15a.74.74 0 0 0 1.27 0zM5.91 494.43c-.29-1-1.14-1.74-1.4-2.85a36.42 36.42 0 0 0-1.09-4.5c-.22-.59-1.21-.75-1.36 0a9.64 9.64 0 0 0 .63 5.8c.47 1.14 1.25 2.7 2.71 2.46a.75.75 0 0 0 .51-.91zM20.07 496.33c-1.35-.73-3.23-.61-4.73-.8a22.34 22.34 0 0 0-4.9-.22c-.62.05-1.06 1-.35 1.32a13.44 13.44 0 0 0 4.64 1.08c1.57.11 3.68.55 5.16 0a.75.75 0 0 0 .18-1.35zM470.45 495.52c-1.15-.95-3.65-.52-5-.57a21.65 21.65 0 0 0-5.74.43.71.71 0 0 0 0 1.36 21.64 21.64 0 0 0 5.74.41c1.4 0 3.88.39 5-.58a.76.76 0 0 0 0-1.05zM485.58 486.35c-.57.82-.46 2.14-.61 3.09a5 5 0 0 1-1.49 3.3c-1.9 1.67-4.62 1.88-7 2.3-.86.14-.54 1.3.19 1.39 3.21.38 6.18.16 8.55-2.29a6.48 6.48 0 0 0 1.67-3.66c.21-1.22.6-3 0-4.13a.75.75 0 0 0-1.28 0zM485.71 76.2c-.48 1.24-.19 6.74.18 8a.72.72 0 0 0 1.37 0c.36-1.21.65-6.71.17-8a.9.9 0 0 0-1.72 0zM482 60.39c1.39 1.52 2.63 2.23 3.21 4.38.45 1.7.52 3.55.81 5.28.11.7 1.21.66 1.36 0 .85-3.69 0-10.44-4.85-10.92-.68-.07-.92.83-.53 1.26zM465 59.55c1.44.82 9.76.78 12 .42.71-.11.65-1.21 0-1.36-2.23-.54-10.53-1.1-12-.34a.74.74 0 0 0 0 1.28zM162.91 59c1.38 1.12 4.66.53 6.31.58a32.5 32.5 0 0 0 7-.42.71.71 0 0 0 0-1.36 33.16 33.16 0 0 0-7-.42c-1.66.05-4.93-.55-6.31.58a.73.73 0 0 0 0 1zM142.12 59c1.12 1.09 10 .59 12.12.16a.71.71 0 0 0 0-1.36c-2.14-.43-11-.94-12.12.16a.75.75 0 0 0 0 1zM120.84 59.15c1.63 1.09 12.31.44 14.88 0a.71.71 0 0 0 0-1.36c-2.57-.41-13.25-1-14.88 0a.75.75 0 0 0 0 1.28zM100.9 59c1.21 1.1 10.33.59 12.54.16a.72.72 0 0 0 0-1.37c-2.21-.42-11.32-.94-12.54.16a.76.76 0 0 0 0 1.05zM84.2 58.88c.88 1.18 8.78.76 10.71.31a.72.72 0 0 0 0-1.37c-1.93-.44-9.83-.86-10.71.31a.72.72 0 0 0 0 .75zM67 59c.73.87 9.09.58 11 .15a.7.7 0 0 0 0-1.35c-1.95-.43-10.31-.72-11 .15A.77.77 0 0 0 67 59zM49.81 59c.72.87 9 .59 11 .16a.7.7 0 0 0 0-1.35c-1.94-.43-10.26-.71-11 .16a.74.74 0 0 0 0 1zM32.86 59c.74.87 9.14.59 11.09.16a.72.72 0 0 0 0-1.37c-2-.43-10.35-.72-11.09.16a.78.78 0 0 0 0 1.05zM14.21 59.29c2.45.53 5.15.27 7.65.3a32.67 32.67 0 0 0 5.77-.4.72.72 0 0 0 0-1.37 27.83 27.83 0 0 0-5.77-.5c-2.49 0-5.24-.14-7.65.54a.75.75 0 0 0 0 1.43zM331.7 59c1.38 1.12 4.66.53 6.31.58a32.5 32.5 0 0 0 7-.42.71.71 0 0 0 0-1.36 33.16 33.16 0 0 0-7-.42c-1.66.05-4.93-.55-6.31.58a.73.73 0 0 0 0 1zM309.91 59c1.34 1.12 10.81.59 13.13.16a.71.71 0 0 0 0-1.36c-2.32-.43-11.78-1-13.13.16a.73.73 0 0 0 0 1zM288 59c1.21 1.1 10.32.59 12.53.16a.71.71 0 0 0 0-1.36c-2.21-.43-11.32-.95-12.53.15a.74.74 0 0 0 0 1.05zM269.69 59c.74.87 9.1.59 11 .16a.71.71 0 0 0 0-1.36c-1.94-.43-10.3-.72-11 .16a.77.77 0 0 0 0 1zM253 58.88c.88 1.18 8.78.76 10.71.31a.72.72 0 0 0 0-1.37c-1.93-.44-9.83-.86-10.71.31a.72.72 0 0 0 0 .75zM235.82 59c.73.87 9.09.58 11 .16a.71.71 0 0 0 0-1.36c-2-.43-10.31-.72-11 .15a.77.77 0 0 0 0 1.05zM442.85 59c1.35 1.12 10.81.59 13.13.16a.71.71 0 0 0 0-1.36c-2.32-.43-11.78-1-13.13.16a.74.74 0 0 0 0 1zM421.08 59c1.22 1.1 10.32.59 12.54.16a.71.71 0 0 0 0-1.36c-2.22-.43-11.32-.95-12.54.15a.76.76 0 0 0 0 1.05zM401.85 59c1.21 1.1 10.32.59 12.54.16a.72.72 0 0 0 0-1.37c-2.22-.42-11.32-.94-12.54.16a.74.74 0 0 0 0 1.05zM379.81 59.15c1.34 1 11.54.44 13.94 0a.72.72 0 0 0 0-1.37c-2.4-.4-12.6-.94-13.94 0a.76.76 0 0 0 0 1.28zM354 59.14c2 1.14 6 .43 8.21.48a54.65 54.65 0 0 0 8.68-.43c.67-.09.67-1.27 0-1.37a54.65 54.65 0 0 0-8.68-.43c-2.24 0-6.18-.66-8.21.48a.74.74 0 0 0 0 1.27zM218.6 59c.73.87 9.05.59 11 .16a.7.7 0 0 0 0-1.35c-1.94-.43-10.26-.71-11 .16a.74.74 0 0 0 0 1zM201.65 59c.74.87 9.14.59 11.09.16a.72.72 0 0 0 0-1.37c-2-.43-10.35-.72-11.09.16a.78.78 0 0 0 0 1.05zM183 59.29c2.44.53 5.14.27 7.64.3a32.67 32.67 0 0 0 5.77-.4.72.72 0 0 0 0-1.37 27.83 27.83 0 0 0-5.77-.5c-2.49 0-5.24-.14-7.64.54a.75.75 0 0 0 0 1.43zM328.33 496.31c-1.37-1.12-4.65-.53-6.31-.58a32.41 32.41 0 0 0-7 .42.71.71 0 0 0 0 1.36 33.06 33.06 0 0 0 7 .42c1.67-.05 4.93.55 6.31-.58a.73.73 0 0 0 0-1zM349.12 496.31c-1.11-1.09-10-.59-12.12-.16a.71.71 0 0 0 0 1.36c2.14.43 11 .94 12.12-.15a.74.74 0 0 0 0-1.05zM370.41 496.19c-1.64-1.09-12.32-.44-14.88 0a.71.71 0 0 0 0 1.36c2.56.41 13.24 1.05 14.88 0a.76.76 0 0 0 0-1.28zM390.34 496.31c-1.21-1.1-10.32-.58-12.53-.16a.72.72 0 0 0 0 1.37c2.21.42 11.32.94 12.53-.16a.74.74 0 0 0 0-1.05zM407 496.46c-.87-1.18-8.78-.76-10.7-.31a.72.72 0 0 0 0 1.37c1.92.44 9.83.86 10.7-.31a.72.72 0 0 0 0-.75zM424.22 496.31c-.74-.87-9.1-.58-11-.15a.7.7 0 0 0 0 1.35c1.94.43 10.3.72 11-.15a.78.78 0 0 0 0-1.05zM440.05 496.46l.06.14a.87.87 0 0 0-.62-.62c-1.46-.49-3.46-.24-5-.28a13.84 13.84 0 0 0-4.06.45.72.72 0 0 0 0 1.37 13.84 13.84 0 0 0 4.06.45c1.52 0 3.52.21 5-.28a.87.87 0 0 0 .62-.62c-.05.37 0-.44-.06-.61zM454.57 496.14a.88.88 0 0 0-.62-.62c-1.39-.49-7.34-.19-8.66.17a.72.72 0 0 0 0 1.37c1.32.36 7.27.66 8.66.17a.88.88 0 0 0 .62-.62 1.24 1.24 0 0 0 0-.43zM159.54 496.31c-1.37-1.12-4.65-.53-6.31-.58a32.41 32.41 0 0 0-7 .42.71.71 0 0 0 0 1.36 33.06 33.06 0 0 0 7 .42c1.67-.05 4.93.55 6.31-.58a.73.73 0 0 0 0-1zM181.33 496.31c-1.34-1.12-10.8-.58-13.12-.16a.71.71 0 0 0 0 1.36c2.32.43 11.78 1 13.12-.15a.74.74 0 0 0 0-1.05zM203.27 496.31c-1.21-1.1-10.32-.59-12.53-.16a.71.71 0 0 0 0 1.36c2.21.43 11.31.95 12.53-.15a.76.76 0 0 0 0-1.05zM221.55 496.31c-.73-.87-9.09-.59-11-.16a.71.71 0 0 0 0 1.36c2 .43 10.31.72 11-.16a.75.75 0 0 0 0-1zM238.25 496.46c-.88-1.17-8.78-.76-10.7-.31a.72.72 0 0 0 0 1.37c1.92.45 9.82.86 10.7-.31a.72.72 0 0 0 0-.75zM255.43 496.31c-.74-.87-9.1-.58-11-.15a.7.7 0 0 0 0 1.35c1.94.43 10.3.72 11-.15a.78.78 0 0 0 0-1.05zM53 496.31c-.66-.86-3.82-.53-5.14-.58a21 21 0 0 0-5.6.42.71.71 0 0 0 0 1.36 20.64 20.64 0 0 0 5.6.42c1.32-.05 4.47.28 5.14-.57a.77.77 0 0 0 0-1.05zM35.12 496c-1.33-.48-3.24-.23-4.64-.27a11.5 11.5 0 0 0-3.78.45.71.71 0 0 0 0 1.36 11.75 11.75 0 0 0 3.78.46c1.4-.05 3.31.2 4.64-.28a.9.9 0 0 0 0-1.72zM71.89 496.31c-1.21-1.1-10.32-.59-12.53-.16a.71.71 0 0 0 0 1.36c2.21.43 11.31.95 12.53-.15a.74.74 0 0 0 0-1.05zM89.39 496.31c-1.21-1.1-10.32-.58-12.53-.16a.72.72 0 0 0 0 1.37c2.21.42 11.32.94 12.53-.16a.74.74 0 0 0 0-1.05zM111.43 496.2c-1.34-1-11.53-.45-13.93-.05a.72.72 0 0 0 0 1.37c2.4.4 12.59.94 13.93 0a.74.74 0 0 0 0-1.27zM137.24 496.2c-2-1.14-6-.43-8.21-.48a54.58 54.58 0 0 0-8.67.43.72.72 0 0 0 0 1.37 54.58 54.58 0 0 0 8.64.48c2.24-.05 6.18.66 8.21-.48a.74.74 0 0 0 0-1.27zM272.65 496.32c-.73-.87-9.06-.59-11-.16a.7.7 0 0 0 0 1.35c1.93.43 10.26.71 11-.16a.76.76 0 0 0 0-1zM289.59 496.31c-.73-.87-9.13-.59-11.09-.16a.72.72 0 0 0 0 1.37c2 .43 10.35.72 11.09-.16a.76.76 0 0 0 0-1.05zM308.24 496.05c-2.44-.53-5.15-.27-7.65-.3a32.81 32.81 0 0 0-5.77.4.72.72 0 0 0 0 1.37 28 28 0 0 0 5.77.5c2.5 0 5.24.14 7.65-.54a.75.75 0 0 0 0-1.43zM2.71 70.5c.51-1.78.1-3.6.42-5.39.53-2.94 3.14-4.45 5.73-5.4.71-.25.67-1.43-.18-1.39-3.17.16-5.94 1.46-7.16 4.57a13.51 13.51 0 0 0-.24 7.61.75.75 0 0 0 1.43 0zM487.44 103.2c.83-1.45.78-9.77.42-12-.11-.7-1.21-.64-1.36 0-.54 2.24-1.1 10.53-.34 12a.75.75 0 0 0 1.28 0zM486.93 405.28c1.12-1.37.52-4.65.57-6.31a33.06 33.06 0 0 0-.41-7 .72.72 0 0 0-1.37 0 33.06 33.06 0 0 0-.41 7c0 1.67-.56 4.93.57 6.31a.74.74 0 0 0 1.05 0zM486.92 426.07c1.1-1.11.59-10 .16-12.12a.71.71 0 0 0-1.36 0c-.43 2.14-.94 11 .16 12.12a.73.73 0 0 0 1 0zM487 447.36c1.09-1.64.45-12.32 0-14.88a.71.71 0 0 0-1.36 0c-.41 2.56-1.05 13.24 0 14.88a.76.76 0 0 0 1.28 0zM486.92 467.29c1.11-1.21.59-10.32.16-12.53a.71.71 0 0 0-1.36 0c-.43 2.21-1 11.32.16 12.53a.73.73 0 0 0 1 0zM487.26 481.46c.47-1.18.23-3 .27-4.23a9.51 9.51 0 0 0-.45-3.44.71.71 0 0 0-1.36 0 9.74 9.74 0 0 0-.46 3.44c0 1.25-.19 3 .28 4.23a.9.9 0 0 0 1.72 0zM486.93 236.49c1.12-1.37.52-4.65.57-6.31a33.06 33.06 0 0 0-.41-7 .72.72 0 0 0-1.37 0 33.06 33.06 0 0 0-.41 7c0 1.67-.56 4.93.57 6.31a.74.74 0 0 0 1.05 0zM486.93 258.28c1.11-1.34.58-10.8.15-13.12a.71.71 0 0 0-1.36 0c-.42 2.32-1 11.78.16 13.12a.74.74 0 0 0 1.05 0zM486.92 280.22c1.11-1.21.59-10.32.16-12.53a.71.71 0 0 0-1.36 0c-.43 2.21-1 11.31.16 12.53a.75.75 0 0 0 1 0zM486.92 298.5c.87-.73.59-9.09.16-11a.71.71 0 0 0-1.36 0c-.43 2-.71 10.31.16 11a.75.75 0 0 0 1 0zM486.77 315.2c1.18-.88.76-8.78.31-10.7a.71.71 0 0 0-1.36 0c-.45 1.92-.87 9.82.3 10.7a.72.72 0 0 0 .75 0zM486.92 332.37c.87-.73.59-9.09.16-11a.71.71 0 0 0-1.36 0c-.43 1.94-.72 10.3.16 11a.75.75 0 0 0 1 0zM486.93 125.34c1.11-1.34.58-10.8.15-13.12a.71.71 0 0 0-1.36 0c-.42 2.32-1 11.77.16 13.12a.74.74 0 0 0 1.05 0zM486.92 147.11c1.11-1.21.59-10.32.16-12.53a.71.71 0 0 0-1.36 0c-.43 2.21-1 11.31.16 12.53a.73.73 0 0 0 1 0zM486.92 166.34c1.11-1.21.59-10.32.16-12.53a.71.71 0 0 0-1.36 0c-.43 2.21-1 11.32.16 12.53a.73.73 0 0 0 1 0zM487 188.39c1-1.35.45-11.54 0-13.94a.71.71 0 0 0-1.36 0c-.41 2.4-1 12.59 0 13.94a.76.76 0 0 0 1.28 0zM487 214.19c1.13-2 .42-6 .47-8.21a54.58 54.58 0 0 0-.43-8.67.71.71 0 0 0-1.36 0 53.43 53.43 0 0 0-.43 8.67c0 2.24-.67 6.18.47 8.21a.75.75 0 0 0 1.28 0zM486.92 349.6c.86-.73.58-9.06.15-11a.7.7 0 0 0-1.35 0c-.43 1.93-.71 10.26.16 11a.77.77 0 0 0 1 0zM486.92 366.54c.87-.73.59-9.14.16-11.09a.72.72 0 0 0-1.37 0c-.43 2-.71 10.35.16 11.09a.76.76 0 0 0 1.05 0zM487.18 385.19c.53-2.44.27-5.15.31-7.65a33.8 33.8 0 0 0-.41-5.77.72.72 0 0 0-1.37 0 28.66 28.66 0 0 0-.5 5.77c0 2.5-.14 5.24.55 7.65a.74.74 0 0 0 1.42 0zM.94 76.2c-.47 1.24-.19 6.74.18 8a.72.72 0 0 0 1.37 0c.37-1.21.65-6.71.17-8a.9.9 0 0 0-1.72 0zM2.67 103.2c.83-1.45.78-9.77.43-12-.11-.7-1.21-.64-1.37 0-.54 2.24-1.1 10.53-.34 12a.75.75 0 0 0 1.28 0zM2.16 405.28c1.12-1.37.53-4.65.57-6.31a33.06 33.06 0 0 0-.41-7A.72.72 0 0 0 1 392a33.06 33.06 0 0 0-.41 7c0 1.67-.55 4.93.57 6.31a.74.74 0 0 0 1.05 0zM2.16 426.07c1.09-1.11.58-10 .16-12.12A.72.72 0 0 0 1 414c-.43 2.14-.94 11 .16 12.12a.74.74 0 0 0 1.05 0zM2.27 447.36c1.09-1.64.45-12.32 0-14.88a.72.72 0 0 0-1.37 0c-.4 2.56-1 13.24 0 14.88a.76.76 0 0 0 1.28 0zM2.16 467.29c1.1-1.21.58-10.32.15-12.53a.71.71 0 0 0-1.36 0c-.43 2.24-.95 11.32.16 12.53a.74.74 0 0 0 1.05 0zM2.16 236.49c1.12-1.37.53-4.65.57-6.31a33.06 33.06 0 0 0-.41-7 .72.72 0 0 0-1.37 0 33.06 33.06 0 0 0-.41 7c0 1.67-.55 4.93.57 6.31a.74.74 0 0 0 1.05 0zM2.17 258.32c1.12-1.34.59-10.81.16-13.12a.71.71 0 0 0-1.36 0c-.43 2.31-1 11.77.16 13.12a.73.73 0 0 0 1 0zM2.16 280.22c1.1-1.21.58-10.32.16-12.53a.72.72 0 0 0-1.37 0C.53 269.9 0 279 1.11 280.22a.76.76 0 0 0 1.05 0zM2.15 298.5c.87-.73.59-9.09.16-11a.71.71 0 0 0-1.36 0c-.43 2-.71 10.31.16 11a.75.75 0 0 0 1 0zM2 315.2c1.18-.87.76-8.78.31-10.7a.71.71 0 0 0-1.36 0c-.45 1.92-.87 9.82.31 10.7a.7.7 0 0 0 .74 0zM2.15 332.37c.87-.73.59-9.09.16-11a.71.71 0 0 0-1.36 0c-.43 1.94-.71 10.3.16 11a.75.75 0 0 0 1 0zM2.16 125.34c1.11-1.34.58-10.8.16-13.12a.72.72 0 0 0-1.37 0c-.42 2.32-1 11.77.16 13.12a.74.74 0 0 0 1.05 0zM2.16 147.11c1.1-1.21.58-10.32.16-12.53a.72.72 0 0 0-1.37 0c-.42 2.21-.95 11.32.16 12.53a.74.74 0 0 0 1.05 0zM2.16 166.34c1.1-1.21.58-10.32.15-12.53a.71.71 0 0 0-1.36 0c-.43 2.19-.95 11.32.16 12.53a.74.74 0 0 0 1.05 0zM2.27 188.39c1-1.35.45-11.54 0-13.94a.71.71 0 0 0-1.36 0C.54 176.85 0 187 1 188.39a.76.76 0 0 0 1.28 0zM2.27 214.19c1.14-2 .42-6 .47-8.21a54.58 54.58 0 0 0-.43-8.67.71.71 0 0 0-1.36 0A54.58 54.58 0 0 0 .52 206c0 2.24-.67 6.18.47 8.21a.75.75 0 0 0 1.28 0zM2.15 349.6c.87-.73.58-9.06.16-11a.71.71 0 0 0-1.36 0c-.42 1.93-.71 10.26.16 11a.77.77 0 0 0 1 0zM2.15 366.54c.88-.73.59-9.14.16-11.09a.71.71 0 0 0-1.36 0c-.44 2-.72 10.35.15 11.09a.76.76 0 0 0 1 0zM2.42 385.19c.53-2.44.27-5.15.3-7.65a33.8 33.8 0 0 0-.41-5.77.71.71 0 0 0-1.36 0 28 28 0 0 0-.51 5.77c0 2.5-.13 5.24.55 7.65a.75.75 0 0 0 1.43 0z" fill="#919191"/><path d="M344.45 26.63a.71.71 0 0 0-1.36 0c-.08.45-.14.9-.19 1.35a5.7 5.7 0 0 0-5.28-1.4c-2.35.69-3.28 2.85-3.56 5.12a6.13 6.13 0 0 0 3.17 6.22 5.63 5.63 0 0 0 5.48-.74 6.29 6.29 0 0 1-.26 1.79c-1.11 3.23-5 2.39-7.08 1.15a1 1 0 0 0-1.24 1.61c2.61 2.45 7.74 1.86 9.78-1.14 1.07-1.57.9-3.53.87-5.34a56.3 56.3 0 0 0-.33-8.62zm-6.33 9.5c-1.9-.75-2.6-3-2.32-4.86s1.2-3.27 3.1-3.42c1.62-.14 2.57.85 3.89 1.38-.11 1.81-.06 3.65-.11 5.45v.08c-1.28 1.06-2.86 2.04-4.56 1.37zM354.25 26.28l-.14-.09a1.22 1.22 0 0 0-1.25 0 14.36 14.36 0 0 0-2.65 1.81 2.73 2.73 0 0 0-.8-1.6.21.21 0 0 0-.3 0c-1.07 1.17-.68 2.85-.71 4.36 0 2.25-.09 4.5-.2 6.75-.07 1.28 1.94 1.28 2 0 .1-2.26.17-4.49.1-6.75v-.36a10.44 10.44 0 0 1 2-1.36c.75-.37 1.94-.42 2.3-1.26a1.11 1.11 0 0 0-.35-1.5zM358 26.64a.75.75 0 0 0-1 .27l-.06.12a.74.74 0 0 0 .12.85 38.8 38.8 0 0 1-.2 4.44c0 1.83-.05 3.67 0 5.5a1 1 0 0 0 1.9 0v-7.47c-.13-1.04.32-3.1-.76-3.71zM357.65 24h.07a.94.94 0 0 0 .55-1.32.88.88 0 0 0-.63-.74c-.92-.28-1.57.92-1.07 1.65a1 1 0 0 0 1.08.41zM372.61 22a.72.72 0 0 0-1.41-.19 26.36 26.36 0 0 0-.92 5.41A6.33 6.33 0 0 0 366 26a5.61 5.61 0 0 0-4.42 5.66c0 2.38 1.21 5 3.5 6a5.23 5.23 0 0 0 5.37-1c0 .42.08.84.13 1.25.12 1.15 1.9 1.2 1.83 0-.3-5.43.29-10.65.2-15.91zm-2.76 12.47a3.26 3.26 0 0 1-4.54 1.34 4.9 4.9 0 0 1-1.89-4.58c.21-2 1.67-3.71 3.8-3.46a7.08 7.08 0 0 1 2.95 1.39c0 1.64 0 3.3.1 4.92a.66.66 0 0 0-.42.34zM389.77 26.51a8.41 8.41 0 0 0-3.39 0 5.06 5.06 0 0 0-4.18 4.84c-.34 4.61 4.74 9.89 8.95 5.86.81-.77-.4-2-1.21-1.21-3.38 3.08-6.64-2.48-5.71-5.47.6-2 2.35-2.32 4.15-2.36 1.17 0 1.63.46 2.64.67a.44.44 0 0 0 .43-.73c-.66-.78-.57-1.33-1.68-1.6zM404.85 29.18c-.21-2.88-5.1-3-7.07-2.17-2.56 1.11-3.85 5.27-2.78 7.77 1.21 2.81 5.74 4.5 8.29 2.62a6.41 6.41 0 0 0 1.54-8.14.19.19 0 0 0 .02-.08zM403 35.25c-1.79 2-6.13.67-6.35-2.11-.14-1.82.81-4.11 2.67-4.56a5.71 5.71 0 0 1 3.8.48.71.71 0 0 0 .09.65 4.61 4.61 0 0 1-.21 5.54zM417.1 26.89c-1.88-1.48-4.63-.3-6.31 1.33a9.12 9.12 0 0 0-.2-1.29c-.13-.57-.86-.45-1 0a15.33 15.33 0 0 0-.69 5.27 18.79 18.79 0 0 0 .3 5.35c.21.77 1.55.89 1.68 0a36.76 36.76 0 0 0 0-5.35v-2.38c2-1.2 5.37-3.66 6-.07a30.13 30.13 0 0 1 0 6.91c-.07 1.3 2.11 1.29 2 0-.16-2.14-.09-4.31-.28-6.44a4.54 4.54 0 0 0-1.5-3.33zM426.61 35.64c-1.06 1.17-1.22-2.6-1.22-2.79 0-1.15 0-2.3-.05-3.45v-.87a5.72 5.72 0 0 0 1.44-.35c.9-.35.9-2-.25-1.85-.42 0-.83.11-1.24.17 0-.92-.11-1.83-.23-2.74s-1.46-.58-1.55.21a25.76 25.76 0 0 0-.16 2.78h-.27c-.47 0-1.88 0-1.61.93v.11a.78.78 0 0 0 .55.55 10.53 10.53 0 0 0 1.29.2v2.31c0 1.68-.29 3.76.4 5.36.8 1.84 3.24 2.37 4.34.55.61-.88-.7-1.94-1.44-1.12zM437.91 27.19c-1.91-2.27-5.7-1.42-7.5.54a.64.64 0 0 0 .62 1.06c.93-.21 1.73-.75 2.65-1 2.12-.51 3.24.73 3.52 2.64.07.47.12.94.16 1.42-3-1.53-8-1.05-7.31 3.24a3.71 3.71 0 0 0 3.63 3 5.82 5.82 0 0 0 4-1.44v.7c.09 1.2 2 1.22 1.89 0-.11-2-.23-4.12-.41-6.17a6.92 6.92 0 0 0-1.25-3.99zm-3.2 8.91c-1 .24-2.51 0-2.73-1.23-.51-2.82 3.59-2 5.49-1.44l.06 1a9.28 9.28 0 0 1-2.82 1.67zM444.33 27.23a.7.7 0 0 0-1.39 0 31.11 31.11 0 0 0-.06 5.46c.08 1.47 0 3 .68 4.33a.69.69 0 0 0 1.24-.16c.4-1.44 0-3.06-.12-4.54-.12-1.69-.14-3.4-.35-5.09zM444 23.94a1.24 1.24 0 0 0 .86-.82.82.82 0 0 0-.2-.77.83.83 0 0 0-.93-.35 1.46 1.46 0 0 0-.65.37c-.66.63.06 1.94.92 1.57zM456.5 26.12c-1.86-1.05-4.67.65-6.08 2.54a17.82 17.82 0 0 0-.22-1.77c-.13-.63-1.2-.65-1.3 0a35.09 35.09 0 0 0-.19 5.8c0 1.34-.42 3.63.3 4.79.53.85 2.11.3 1.7-.71-.55-1.31-.12-3.75-.18-5.2v-1.63c1.92-1.13 5.1-3.63 5.87-.62.62 2.4.36 5.55.24 8-.07 1.33 2.13 1.33 2.06 0-.14-2.47-.15-5-.38-7.42-.19-1.43-.46-3.01-1.82-3.78zM466.4 26.34a5.84 5.84 0 0 0-4 7.92c1.58 3.4 6.48 4.42 9.39 2.16.61-.48-.08-1.34-.7-1.2-2.44.52-5.34 1.35-6.93-1.33a3.76 3.76 0 0 1-.32-.75 24.82 24.82 0 0 0 5.43-.38c1.06-.1 3.49.15 3.84-1.27.31-1.25-1.37-3.37-2.19-4.2a4.65 4.65 0 0 0-4.52-.95zm3.92 4.56l-1.78.2a37.13 37.13 0 0 0-4.82.32 4.1 4.1 0 0 1 4.46-3.48c1 .16 2.73 1.43 2.78 2.61.04.45.57.21-.64.35zM482.37 26.64c-1.14-.86-3.34.24-4.33 1a7.65 7.65 0 0 0-.64.54c0-.25 0-.5-.07-.74a.68.68 0 0 0-1.35 0 35.9 35.9 0 0 0 .3 10.14c.19 1 1.58.67 1.63-.22.07-1.64-.18-3.32-.27-5 0-.66-.07-1.32-.1-2 .73-.19 1.34-1.07 1.94-1.43a5 5 0 0 1 1.35-.55c.54-.13 1.08-.06 1.54-.41a.79.79 0 0 0 0-1.33z" fill="#1e1e1e"/></svg>