<svg xmlns="http://www.w3.org/2000/svg" viewBox="0 0 490 216"><path d="M481.75 24.93c-42.58-7.41-86.08-9.14-128.87-2.66-77.33-1.43-337.35-2.55-339.92 1-6.49 4.34-11.47 15.62-8.84 21.8C0 66.37 5.82 163.5 2.27 172.16c-1.78 4.32-1.39 19.36 5.55 19.76 78.75-6.13 129.68 3 156 2.05 34.07-9.65 144.92 1.65 306.74.77 24.59 1.27 14.6-62.46 14-85.72-3.1-56.02 7.78-84.08-2.81-84.09z" fill="#c9c9c9"/><path d="M2.33 105.11c8.14-.22 103.57-5.83 192.18-2.61C197.23 92 193 31.8 193.34 21c-24.16.16-114.68 2.09-135.63.29C43.36 16.93 0 12.3 4.12 45.07c-.34.74-2.75 26.76-1.79 60.04z" fill="#fff"/><path d="M192.44 21.54c-1.41 18.2-.84 36.75-1 55q-.18 23.11-.15 46.22.06 29.85.54 59.7c.06 3 .23 7.42.29 9.73.05 1.64 2.6 1.65 2.55 0-.92-35.27-.91-72.85-.73-108.83.09-20.54 1.29-41.3.43-61.82a1 1 0 0 0-1.95 0zM290.51 22.26c-1 18.22-.09 36.69-.1 54.94q0 23-.13 46.05-.15 29.66-.55 59.3c0 3 0 7.37-.05 9.64a1.28 1.28 0 0 0 2.55 0c.6-35.07.75-72.41.72-108.19 0-20.48.86-41.29-.49-61.74a1 1 0 0 0-1.95 0z" fill="#1e1e1e"/><path d="M482.16 102.25c-27.12-.65-54.27-.5-81.4-.52q-59.33 0-118.64.1-63.1.12-126.22.32-51.06.15-102.12.34l-32.84.13c-4.81 0-10.62-.85-15.37.07a3.64 3.64 0 0 1-.66 0 1.26 1.26 0 0 0 0 2.51l39.4-.16 97.11-.35q62.47-.21 125-.37 60.57-.15 121.16-.18c29.23 0 58.47.35 87.7.07h6.92a1 1 0 0 0 0-1.92zM483.74 148.12q-42.25.74-84.51 1-59.79.41-119.6.33-62.83 0-125.69-.21-50.5-.16-101-.41l-32.34-.16c-4.69 0-10.38-1-15-.08a3.86 3.86 0 0 1-.68 0 1.25 1.25 0 0 0 0 2.5q19.26.12 38.53.21 47.94.24 95.89.38 62.14.19 124.28.23 61 0 121.92-.29c30.16-.17 60.4 0 90.54-1.23l7.67-.33a1 1 0 0 0 0-1.92z" fill="#1e1e1e"/><path d="M485.34 172.17c0-8.7-.36-125-.31-133 0-4.89 1.46-11-2-15.07-1.72-2-3.63-2.3-6.07-2.55-4.57-.48-9.21-.58-13.81-.74-8-.27-432.87 0-434.5 0-7.17 0-22-2.39-23.84 7.41a.75.75 0 0 0 0 .26c-.5 5.61-.66 158.87 1.08 161.18 2 2.67 6.46 2.58 9.51 3 4.56.69 454.66 0 460.42-.72 4.08-.53 7.71-1.69 8.76-6s.77-9.26.76-13.77zm-2.25.26c0 .56-.24 8.55-.48 9.77-1 5.18-3.5 7.31-8.4 7.71-5.74.48-11.6.41-17.36.47-2.82 0-423.85 1.07-427.43 1.1-2.52 0-5 .06-7.54-.09-5.16-.3-13.38.49-15-5.45-1-3.4-1.08-152.34-.66-157.24v-.05c1.83-8.92 19.68-6 26.37-6 .84 0 434.12.4 437.7.58 5.58.29 11.81-.55 12.76 6.8.45 3.46-.16 7.15-.15 10.66.1 43.94.5 87.84.19 131.74z" fill="#1e1e1e"/><path d="M195.49 33.48c-.88-4.94-8-2.34-7.57 1.7.58 6.11.14 25-.06 26.9-.43 6-10.24 6.79-13.63 7-30.41 1.62-122.73 1.61-153.18 1.09-4.09-.07-7.64 8.53-3.11 8.61 18.15.31 107.26 1 125.41.67 9.05-.17 33.08-.51 40.63-2.3 14.63-3.47 11.89-11.94 11.92-23.28.02-8.12 1.03-12.39-.41-20.39z" opacity=".2"/><path d="M9 35.74c.27-3.18 2.87-8.06 5.89-9.68 2-1.73 166.75-1.73 171.58 1.75 1.42 1.56 3.81 31.85 0 37.3-2.37 3.37-7.47 3.85-11.86 4-5.23.16-160.33 1.45-161.78.39C9.42 67 9 65 8.87 61S8.69 38.92 9 35.74z" fill="#f78100" opacity=".85"/><path d="M63.66 53.82a1.05 1.05 0 1 0-1 1.34h.07a1 1 0 0 0 1-1.27zM67.3 44.5c-.27 3.19.33 6.41.18 9.62-.06 1.38 2.09 1.38 2.15 0a73.69 73.69 0 0 0-.45-9.62.94.94 0 0 0-1.88 0zM68.17 41.56h.07a1 1 0 0 0 .64-.67 1.63 1.63 0 0 0 .11-.23 1.54 1.54 0 0 0 0-.77.9.9 0 0 0-1.5-.39c-.2.24-.42.37-.52.69a1 1 0 0 0 .1.94 1 1 0 0 0 1.1.43zM76.29 53.33c-1 1.1-1.39-3.24-1.4-3.43-.08-.94-.15-1.87-.2-2.81v-1.62h1.43c1.62 0 1.39-2.59-.3-2.25a8.07 8.07 0 0 1-1.1.14 11.13 11.13 0 0 0-.24-2.45c-.16-.73-1.07-.56-1.31 0a8.48 8.48 0 0 0-.58 2.48H72c-1 0-1.35 1.67-.26 1.87.27.05.53.08.8.11 0 .9.08 1.81.13 2.66a19.12 19.12 0 0 0 .72 5.59c.76 2 3.14 2.83 4.49.92.63-.93-.82-2.03-1.59-1.21zM85.63 43.63a5.6 5.6 0 0 0-5.93 3.17 7.37 7.37 0 0 0-.49 1.66.89.89 0 0 0-.09.8 5.19 5.19 0 0 0 2 4.68c2.33 1.72 5.44 1.2 7.66-.44 1.06-.78.08-2.56-1-1.8-1.43 1-3 1.71-4.75 1A3 3 0 0 1 81.1 50c2.87.06 5.78-.2 8.64-.33a1.11 1.11 0 0 0 1.06-1.4 6.6 6.6 0 0 0-5.17-4.64zM81.36 48c1.16-3.46 4.82-2.64 6.58-.39-2.19.02-4.4.12-6.58.39zM107.45 43.47a5.41 5.41 0 0 0-5.71 2 3.47 3.47 0 0 0-.85-.93 4.2 4.2 0 0 0-5.78.23 4.4 4.4 0 0 0-.27-.77.69.69 0 0 0-1.2 0c-.63 1.42-.4 3-.4 4.49v5.65a1.08 1.08 0 0 0 2.16 0c0-1.88-.06-3.77-.1-5.65v-1.62a6 6 0 0 1 1.89-1.38 2.14 2.14 0 0 1 3 1.56c.32 2.29-.18 5-.28 7.27-.06 1.39 2.08 1.38 2.16 0 .12-2.18.23-4.41.15-6.6a4.55 4.55 0 0 1 2.29-2.1 3.24 3.24 0 0 1 1.32-.35c1 .08 1.57 1.32 1.71 2.25.31 2.13-.28 4.47-.28 6.61 0 1.41 2 1.35 2.15 0a34.84 34.84 0 0 0 .11-7.36c-.17-1.4-.67-2.77-2.07-3.3zM116.86 47.83a24.46 24.46 0 0 0-4.81.67c-.5.35-.75 1.2.16 1.49a23.64 23.64 0 0 0 4.61 0c1.44-.07 1.48-2.23.04-2.16zM129.41 48.14c-.13-1.43-.34-3-1.47-4-1.83-1.61-6-.85-7.27 1.14a.76.76 0 0 0 .85 1.1c2.08-.72 5.27-2.07 5.68 1.17 0 .32.07.64.1 1a5.7 5.7 0 0 0-4.81-.92 4.46 4.46 0 0 0-2.92 4.86c.5 3.85 5.39 3.63 8.1 1.62v.4c.1 1.43 2.34 1.43 2.23 0-.15-2.12-.28-4.25-.49-6.37zm-4.49 5.06c-1.23.36-3.37.38-3.38-1.33 0-3.7 3.89-2.16 5.93-1.23v.66a6.33 6.33 0 0 1-2.55 1.9z" fill="#1e1e1e"/><path d="M184 25.82c-15.5.22-162.65-.54-166.13.53C9.28 29 9.58 38.66 9.12 45.93c-.37 5.81-1.38 9.52.39 19.21.65 3.55 3.79 1.28 5.68-.25a10.58 10.58 0 0 0 3.73-9.7c-1.27-7 .44-12.52.68-15.58 1.25 0 17.17-1.23 24.24-.39 8.21 1 87.85 1 96.11.88 13-.12 25.92-.37 38.88-.56 5.84-.08 11.54-13.81 5.17-13.72z" fill="#fff" opacity=".2"/><path d="M189.07 41.83c0-4.33 1.29-13.91-3.85-15.89-6.37-2.44-15.22-.94-21.89-1.05-3.71-.06-7.42-.06-11.14-.1-13.7-.12-98.86-.24-112.56-.35-6.18-.05-12.37-.26-18.54.09-4.25.24-9 .63-11.37 4.68C6.93 34 8.33 40.12 8.28 45.3a.66.66 0 0 0 0 .15c-.19 10-1.18 18.32.91 21.81 1.9 3.17 3.78 3.45 7 3.6 23 1.08 117.64.19 140.64-.09 3.72 0 7.43-.15 11.15-.3 6.62-.26 17.95 1 20.54-7.14 1.48-4.56.53-17.06.55-21.5zm-2.15 14.64c0 3 .15 6.47-2 8.77-3.71 3.86-12 2.76-16.87 3-3.32.13-6.64.24-10 .28-21.1.23-113.67.55-134.77.34-2.81 0-7.12.69-9.83-.27-4.63-1.65-3.66-9.78-3.79-13.6-.1-2.89.12-9.59.12-9.64.29-5.2-1.59-14.12 3.83-17.39 4.68-2.83 13.31-1.6 18.65-1.54l8.53.1c11 .12 93.4.23 104.37.33 8.44.09 16.89.29 25.33.26 4 0 9.24-.61 13.13.64s3.21 7.37 3.3 11c.08 3.75.14 5.91 0 17.72z" fill="#f78100"/><path d="M481.75 24.93c-42.58-7.41-86.08-9.14-128.87-2.66-77.33-1.43-337.35-2.55-339.92 1-6.49 4.34-11.47 15.62-8.84 21.8C0 66.37 5.82 163.5 2.27 172.16c-1.78 4.32-1.39 19.36 5.55 19.76 78.75-6.13 129.68 3 156 2.05 34.07-9.65 144.92 1.65 306.74.77 24.59 1.27 14.6-62.46 14-85.72-3.1-56.02 7.78-84.08-2.81-84.09z" fill="#c9c9c9"/><path d="M2.33 105.11c8.14-.22 103.57-5.83 192.18-2.61C197.23 92 193 31.8 193.34 21c-24.16.16-114.68 2.09-135.63.29C43.36 16.93 0 12.3 4.12 45.07c-.34.74-2.75 26.76-1.79 60.04z" fill="#fff"/><path d="M192.44 21.54c-1.41 18.2-.84 36.75-1 55q-.18 23.11-.15 46.22.06 29.85.54 59.7c.06 3 .23 7.42.29 9.73.05 1.64 2.6 1.65 2.55 0-.92-35.27-.91-72.85-.73-108.83.09-20.54 1.29-41.3.43-61.82a1 1 0 0 0-1.95 0zM290.51 22.26c-1 18.22-.09 36.69-.1 54.94q0 23-.13 46.05-.15 29.66-.55 59.3c0 3 0 7.37-.05 9.64a1.28 1.28 0 0 0 2.55 0c.6-35.07.75-72.41.72-108.19 0-20.48.86-41.29-.49-61.74a1 1 0 0 0-1.95 0z" fill="#1e1e1e"/><path d="M482.16 102.25c-27.12-.65-54.27-.5-81.4-.52q-59.33 0-118.64.1-63.1.12-126.22.32-51.06.15-102.12.34l-32.84.13c-4.81 0-10.62-.85-15.37.07a3.64 3.64 0 0 1-.66 0 1.26 1.26 0 0 0 0 2.51l39.4-.16 97.11-.35q62.47-.21 125-.37 60.57-.15 121.16-.18c29.23 0 58.47.35 87.7.07h6.92a1 1 0 0 0 0-1.92zM483.74 148.12q-42.25.74-84.51 1-59.79.41-119.6.33-62.83 0-125.69-.21-50.5-.16-101-.41l-32.34-.16c-4.69 0-10.38-1-15-.08a3.86 3.86 0 0 1-.68 0 1.25 1.25 0 0 0 0 2.5q19.26.12 38.53.21 47.94.24 95.89.38 62.14.19 124.28.23 61 0 121.92-.29c30.16-.17 60.4 0 90.54-1.23l7.67-.33a1 1 0 0 0 0-1.92z" fill="#1e1e1e"/><path d="M485.34 172.17c0-8.7-.36-125-.31-133 0-4.89 1.46-11-2-15.07-1.72-2-3.63-2.3-6.07-2.55-4.57-.48-9.21-.58-13.81-.74-8-.27-432.87 0-434.5 0-7.17 0-22-2.39-23.84 7.41a.75.75 0 0 0 0 .26c-.5 5.61-.66 158.87 1.08 161.18 2 2.67 6.46 2.58 9.51 3 4.56.69 454.66 0 460.42-.72 4.08-.53 7.71-1.69 8.76-6s.77-9.26.76-13.77zm-2.25.26c0 .56-.24 8.55-.48 9.77-1 5.18-3.5 7.31-8.4 7.71-5.74.48-11.6.41-17.36.47-2.82 0-423.85 1.07-427.43 1.1-2.52 0-5 .06-7.54-.09-5.16-.3-13.38.49-15-5.45-1-3.4-1.08-152.34-.66-157.24v-.05c1.83-8.92 19.68-6 26.37-6 .84 0 434.12.4 437.7.58 5.58.29 11.81-.55 12.76 6.8.45 3.46-.16 7.15-.15 10.66.1 43.94.5 87.84.19 131.74z" fill="#1e1e1e"/><path d="M195.49 33.48c-.88-4.94-8-2.34-7.57 1.7.58 6.11.14 25-.06 26.9-.43 6-10.24 6.79-13.63 7-30.41 1.62-122.73 1.61-153.18 1.09-4.09-.07-7.64 8.53-3.11 8.61 18.15.31 107.26 1 125.41.67 9.05-.17 33.08-.51 40.63-2.3 14.63-3.47 11.89-11.94 11.92-23.28.02-8.12 1.03-12.39-.41-20.39z" opacity=".2"/><path d="M9 35.74c.27-3.18 2.87-8.06 5.89-9.68 2-1.73 166.75-1.73 171.58 1.75 1.42 1.56 3.81 31.85 0 37.3-2.37 3.37-7.47 3.85-11.86 4-5.23.16-160.33 1.45-161.78.39C9.42 67 9 65 8.87 61S8.69 38.92 9 35.74z" fill="#f78100" opacity=".85"/><path d="M63.66 53.82a1.05 1.05 0 1 0-1 1.34h.07a1 1 0 0 0 1-1.27zM67.3 44.5c-.27 3.19.33 6.41.18 9.62-.06 1.38 2.09 1.38 2.15 0a73.69 73.69 0 0 0-.45-9.62.94.94 0 0 0-1.88 0zM68.17 41.56h.07a1 1 0 0 0 .64-.67 1.63 1.63 0 0 0 .11-.23 1.54 1.54 0 0 0 0-.77.9.9 0 0 0-1.5-.39c-.2.24-.42.37-.52.69a1 1 0 0 0 .1.94 1 1 0 0 0 1.1.43zM76.29 53.33c-1 1.1-1.39-3.24-1.4-3.43-.08-.94-.15-1.87-.2-2.81v-1.62h1.43c1.62 0 1.39-2.59-.3-2.25a8.07 8.07 0 0 1-1.1.14 11.13 11.13 0 0 0-.24-2.45c-.16-.73-1.07-.56-1.31 0a8.48 8.48 0 0 0-.58 2.48H72c-1 0-1.35 1.67-.26 1.87.27.05.53.08.8.11 0 .9.08 1.81.13 2.66a19.12 19.12 0 0 0 .72 5.59c.76 2 3.14 2.83 4.49.92.63-.93-.82-2.03-1.59-1.21zM85.63 43.63a5.6 5.6 0 0 0-5.93 3.17 7.37 7.37 0 0 0-.49 1.66.89.89 0 0 0-.09.8 5.19 5.19 0 0 0 2 4.68c2.33 1.72 5.44 1.2 7.66-.44 1.06-.78.08-2.56-1-1.8-1.43 1-3 1.71-4.75 1A3 3 0 0 1 81.1 50c2.87.06 5.78-.2 8.64-.33a1.11 1.11 0 0 0 1.06-1.4 6.6 6.6 0 0 0-5.17-4.64zM81.36 48c1.16-3.46 4.82-2.64 6.58-.39-2.19.02-4.4.12-6.58.39zM107.45 43.47a5.41 5.41 0 0 0-5.71 2 3.47 3.47 0 0 0-.85-.93 4.2 4.2 0 0 0-5.78.23 4.4 4.4 0 0 0-.27-.77.69.69 0 0 0-1.2 0c-.63 1.42-.4 3-.4 4.49v5.65a1.08 1.08 0 0 0 2.16 0c0-1.88-.06-3.77-.1-5.65v-1.62a6 6 0 0 1 1.89-1.38 2.14 2.14 0 0 1 3 1.56c.32 2.29-.18 5-.28 7.27-.06 1.39 2.08 1.38 2.16 0 .12-2.18.23-4.41.15-6.6a4.55 4.55 0 0 1 2.29-2.1 3.24 3.24 0 0 1 1.32-.35c1 .08 1.57 1.32 1.71 2.25.31 2.13-.28 4.47-.28 6.61 0 1.41 2 1.35 2.15 0a34.84 34.84 0 0 0 .11-7.36c-.17-1.4-.67-2.77-2.07-3.3zM116.86 47.83a24.46 24.46 0 0 0-4.81.67c-.5.35-.75 1.2.16 1.49a23.64 23.64 0 0 0 4.61 0c1.44-.07 1.48-2.23.04-2.16zM129.41 48.14c-.13-1.43-.34-3-1.47-4-1.83-1.61-6-.85-7.27 1.14a.76.76 0 0 0 .85 1.1c2.08-.72 5.27-2.07 5.68 1.17 0 .32.07.64.1 1a5.7 5.7 0 0 0-4.81-.92 4.46 4.46 0 0 0-2.92 4.86c.5 3.85 5.39 3.63 8.1 1.62v.4c.1 1.43 2.34 1.43 2.23 0-.15-2.12-.28-4.25-.49-6.37zm-4.49 5.06c-1.23.36-3.37.38-3.38-1.33 0-3.7 3.89-2.16 5.93-1.23v.66a6.33 6.33 0 0 1-2.55 1.9z" fill="#1e1e1e"/><path d="M184 25.82c-15.5.22-162.65-.54-166.13.53C9.28 29 9.58 38.66 9.12 45.93c-.37 5.81-1.38 9.52.39 19.21.65 3.55 3.79 1.28 5.68-.25a10.58 10.58 0 0 0 3.73-9.7c-1.27-7 .44-12.52.68-15.58 1.25 0 17.17-1.23 24.24-.39 8.21 1 122 .51 135 .32 5.83-.08 11.53-13.81 5.16-13.72z" fill="#fff" opacity=".2"/><path d="M189.07 41.83c0-4.33 1.29-13.91-3.85-15.89-6.37-2.44-15.22-.94-21.89-1.05-3.71-.06-136.07-.71-142.24-.36-4.25.24-9 .63-11.37 4.68C6.93 34 8.33 40.12 8.28 45.3a.66.66 0 0 0 0 .15c-.19 10-1.18 18.32.91 21.81 1.9 3.17 3.78 3.45 7 3.6 23 1.08 148.07-.24 151.79-.39 6.62-.26 17.95 1 20.54-7.14 1.48-4.56.53-17.06.55-21.5zm-2.15 14.64c0 3 .15 6.47-2 8.77-3.71 3.86-12 2.76-16.87 3-3.32.13-151.86 1.31-154.57.35-4.63-1.65-3.66-9.78-3.79-13.6-.1-2.89.12-9.59.12-9.64.29-5.2-1.59-14.12 3.83-17.39 4.68-2.83 13.31-1.6 18.65-1.54 2.84 0 129.79.72 138.23.69 4 0 9.24-.61 13.13.64s3.21 7.37 3.3 11c.05 3.75.11 5.91-.03 17.72z" fill="#f78100"/></svg>