<svg xmlns="http://www.w3.org/2000/svg" viewBox="0 0 490 216"><path d="M481.75 25c-42.59-7.41-86.08-9.14-128.87-2.66-77.34-1.43-337.35-2.56-339.92 1C6.46 27.68 1.48 39 4.11 45.14 0 66.44 5.82 163.57 2.27 172.23.49 176.55.88 191.59 7.82 192c78.75-6.13 129.68 3 156 2 34.07-9.65 144.92 1.65 306.74.77 24.59 1.27 14.6-62.46 14-85.72C481.46 53 492.34 25 481.75 25z" fill="#c9c9c9"/><path d="M2.33 105.18c8.14-.22 103.57-5.83 192.18-2.61 2.72-10.5-1.5-70.7-1.17-81.51-24.16.16-114.68 2.09-135.63.29C43.36 17 0 12.37 4.12 45.14c-.34.74-2.75 26.76-1.79 60.04z" fill="#fff"/><path d="M192.44 21.61c-1.41 18.2-.84 36.75-1 55q-.18 23.11-.15 46.22.06 29.85.54 59.7c.06 3 .23 7.42.29 9.73.05 1.64 2.6 1.65 2.55 0-.92-35.27-.91-72.85-.73-108.83.09-20.54 1.29-41.3.43-61.82a1 1 0 0 0-1.95 0zM290.51 22.33c-1 18.22-.09 36.69-.1 54.94q0 23-.13 46.05-.15 29.66-.55 59.3c0 3 0 7.37-.05 9.64a1.28 1.28 0 0 0 2.55 0c.6-35.07.75-72.41.72-108.19 0-20.49.86-41.29-.49-61.74a1 1 0 0 0-1.95 0z" fill="#1e1e1e"/><path d="M482.16 102.32c-27.12-.65-54.27-.5-81.4-.52q-59.33 0-118.64.1-63.1.1-126.22.32-51.06.15-102.12.34l-32.84.13c-4.81 0-10.62-.85-15.37.07a3.64 3.64 0 0 1-.66 0 1.26 1.26 0 0 0 0 2.51l39.4-.16 97.11-.35q62.47-.23 125-.37 60.57-.15 121.16-.18c29.23 0 58.47.35 87.7.07h6.92a1 1 0 0 0 0-1.92zM483.74 148.19q-42.25.74-84.51 1-59.79.41-119.6.33-62.83 0-125.69-.21-50.5-.16-101-.41l-32.34-.16c-4.69 0-10.38-.95-15-.08a3.86 3.86 0 0 1-.68 0 1.25 1.25 0 0 0 0 2.5q19.26.12 38.53.21 47.94.24 95.89.38 62.14.2 124.28.23 61 0 121.92-.29c30.16-.17 60.4 0 90.54-1.23l7.67-.33a1 1 0 0 0 0-1.92z" fill="#1e1e1e"/><path d="M195.49 47.12c-.88-4.93-8-2.34-7.57 1.7.58 6.11.14 25.05-.06 26.9-.43 6-10.24 6.79-13.63 7-30.41 1.62-122.73 1.62-153.18 1.09-4.09-.07-7.64 8.53-3.11 8.61 18.15.31 107.26 1 125.41.68 9.05-.18 33.08-.52 40.63-2.31 14.63-3.46 11.89-11.94 11.92-23.28.02-8.12 1.03-12.39-.41-20.39z" opacity=".2"/><path d="M9 49.38c.27-3.17 2.87-8.05 5.89-9.67C16.8 38 181.6 38 186.43 41.45c1.42 1.57 3.81 31.86 0 37.31-2.37 3.36-7.47 3.84-11.86 4-5.23.16-160.33 1.46-161.78.39-3.4-2.51-3.81-4.51-4-8.49s-.1-22.1.21-25.28z" fill="#f78100" opacity=".85"/><path d="M63.66 67.47a1.05 1.05 0 1 0-1 1.33h.07a1 1 0 0 0 1-1.26zM67.3 58.14c-.27 3.2.33 6.41.18 9.62-.06 1.38 2.09 1.38 2.15 0a73.69 73.69 0 0 0-.45-9.62.94.94 0 0 0-1.88 0zM68.17 55.21h.07a.94.94 0 0 0 .64-.67 1.63 1.63 0 0 0 .11-.23 1.55 1.55 0 0 0 0-.77.9.9 0 0 0-1.5-.39c-.2.24-.42.37-.52.69a1 1 0 0 0 .1.94 1 1 0 0 0 1.1.43zM76.29 67c-1 1.1-1.39-3.24-1.4-3.42-.08-.94-.15-1.88-.2-2.82v-1.62h1.43c1.62 0 1.39-2.58-.3-2.24a8.06 8.06 0 0 1-1.1.13 11.25 11.25 0 0 0-.24-2.45c-.16-.72-1.07-.55-1.31 0a8.63 8.63 0 0 0-.58 2.42H72c-1 0-1.35 1.67-.26 1.87.27.05.53.08.8.11 0 .91.08 1.81.13 2.66a19.12 19.12 0 0 0 .72 5.59c.76 2 3.14 2.83 4.49.92.63-.9-.82-2-1.59-1.15zM85.63 57.27a5.62 5.62 0 0 0-5.93 3.17 7.37 7.37 0 0 0-.49 1.66.89.89 0 0 0-.09.8 5.21 5.21 0 0 0 2 4.69c2.33 1.71 5.44 1.2 7.66-.45 1.06-.78.08-2.56-1-1.8-1.43 1-3 1.72-4.75 1a3 3 0 0 1-1.88-2.67c2.87.05 5.78-.2 8.64-.34a1.1 1.1 0 0 0 1.06-1.39 6.62 6.62 0 0 0-5.22-4.67zm-4.27 4.34c1.16-3.46 4.82-2.63 6.58-.39-2.19.06-4.4.15-6.58.39zM107.45 57.11a5.43 5.43 0 0 0-5.71 2 3.47 3.47 0 0 0-.85-.93 4.2 4.2 0 0 0-5.78.23 4.4 4.4 0 0 0-.27-.77.7.7 0 0 0-1.2 0c-.63 1.43-.4 3-.4 4.5v5.64a1.08 1.08 0 0 0 2.16 0c0-1.88-.06-3.76-.1-5.64v-1.62a6 6 0 0 1 1.89-1.39 2.14 2.14 0 0 1 3 1.56c.32 2.29-.18 5-.28 7.28-.06 1.39 2.08 1.38 2.16 0 .12-2.18.23-4.42.15-6.61a4.53 4.53 0 0 1 2.29-2.09 3.1 3.1 0 0 1 1.32-.36c1 .09 1.57 1.32 1.71 2.26.31 2.13-.28 4.46-.28 6.6 0 1.41 2 1.36 2.15 0a34.83 34.83 0 0 0 .11-7.36c-.17-1.41-.67-2.78-2.07-3.3zM116.86 61.47a25.23 25.23 0 0 0-4.81.67c-.5.35-.75 1.2.16 1.49a23.65 23.65 0 0 0 4.61 0c1.44-.07 1.48-2.22.04-2.16zM129.41 61.78c-.13-1.43-.34-3-1.47-4-1.83-1.61-6-.85-7.27 1.14a.76.76 0 0 0 .85 1.1c2.08-.71 5.27-2.06 5.68 1.18 0 .32.07.64.1 1a5.67 5.67 0 0 0-4.81-.92 4.45 4.45 0 0 0-2.92 4.85c.5 3.85 5.39 3.64 8.1 1.63v.4c.1 1.42 2.34 1.43 2.23 0-.15-2.16-.28-4.26-.49-6.38zm-4.49 5.06c-1.23.37-3.37.39-3.38-1.33 0-3.7 3.89-2.15 5.93-1.22v.66a6.4 6.4 0 0 1-2.55 1.89z" fill="#1e1e1e"/><path d="M184 39.47c-15.5.22-162.65-.54-166.13.53-8.59 2.63-8.29 12.3-8.75 19.57-.37 5.81-1.38 9.53.39 19.21.65 3.56 3.79 1.28 5.68-.25a10.57 10.57 0 0 0 3.73-9.69c-1.27-7 .44-12.53.68-15.58 1.25 0 17.17-1.24 24.24-.4 8.21 1 122 .51 135 .33 5.83-.09 11.53-13.82 5.16-13.72z" fill="#fff" opacity=".2"/><path d="M189.07 55.47c0-4.33 1.29-13.91-3.85-15.88-6.37-2.44-15.24-.94-21.89-1.05-3.71-.07-136.07-.71-142.24-.36-4.25.24-9 .62-11.37 4.67-2.79 4.79-1.39 10.92-1.44 16.09a.76.76 0 0 0 0 .16c-.19 10-1.18 18.31.91 21.8 1.9 3.18 3.78 3.45 7 3.6 23 1.08 148.07-.24 151.79-.38 6.62-.27 17.95 1 20.54-7.14 1.48-4.57.53-17.07.55-21.51zm-2.15 14.65c0 3 .15 6.46-2 8.76-3.71 3.86-12 2.76-16.87 3-3.32.13-123.64.84-144.74.62-2.81 0-7.12.7-9.83-.27-4.68-1.69-3.71-9.83-3.84-13.65-.1-2.88.12-9.58.12-9.64.29-5.2-1.59-14.12 3.83-17.39C18.27 38.73 26.9 40 32.24 40c2.84 0 129.79.72 138.23.69 4 0 9.24-.6 13.13.65s3.21 7.36 3.3 11c.1 3.8.16 5.96.02 17.78z" fill="#f78100"/><path d="M485.34 172.24c0-8.7-.36-125-.31-133 0-4.89 1.46-11-2-15.07-1.72-2-3.63-2.3-6.07-2.55-4.57-.48-9.21-.58-13.81-.74-8-.27-432.87 0-434.5 0-7.17 0-22-2.38-23.84 7.42a.75.75 0 0 0 0 .26c-.5 5.61-.66 158.87 1.08 161.18 2 2.67 6.46 2.58 9.51 3 4.56.69 454.66 0 460.42-.72 4.08-.53 7.71-1.69 8.76-6s.77-9.27.76-13.78zm-2.25.26c0 .56-.24 8.55-.48 9.77-1 5.18-3.5 7.31-8.4 7.71-5.74.48-11.6.41-17.36.47-2.82 0-423.85 1.07-427.43 1.1-2.52 0-5 .06-7.54-.09-5.16-.3-13.38.49-15-5.45-1-3.4-1.08-152.34-.66-157.24v-.05c1.83-8.93 19.68-6 26.37-6 .84 0 434.12.4 437.7.58 5.58.29 11.81-.55 12.76 6.8.45 3.46-.16 7.15-.15 10.66.1 43.93.5 87.84.19 131.74z" fill="#1e1e1e"/></svg>