<svg xmlns="http://www.w3.org/2000/svg" viewBox="0 0 490 438"><title>dddgrid-gap</title><path d="M9.19,163.31a20.75,20.75,0,0,0-3.75,3.74.72.72,0,0,0-.38.61v.12a.8.8,0,0,0,1,.76c.92-.18,1.86-1.2,2.72-2.15.09,4,.09,8.05.29,12.06a1,1,0,0,0,1.9,0c0-4.76-.24-9.53-.3-14.3A1,1,0,0,0,9.19,163.31Z" fill="#1e1e1e"/><path d="M21.82,169a7.36,7.36,0,0,0-5.11,1.33l-.06-1.8-.06-1.73a15.53,15.53,0,0,1,0-1.63,16.72,16.72,0,0,1,3,0c1.27,0,2.54,0,3.81-.16a.86.86,0,0,0,0-1.72c-1.64-.12-3.31,0-4.95,0-.93,0-2.56-.18-3.31.51s-.42,2.11-.4,3c0,1.73.1,3.47.14,5.2a1,1,0,0,0,1.74.53A13,13,0,0,1,20,171c2-.36,3.48.46,3.44,2.61-.08,3.83-4.79,4.43-7.18,2.41-1-.82-2.36.5-1.42,1.42,3.55,3.48,10.47,1.58,10.53-3.83C25.37,171.42,24.11,169.31,21.82,169Z" fill="#1e1e1e"/><path d="M36,168a6.06,6.06,0,0,0-5.49,1.45,10.62,10.62,0,0,0-.28-1.27.57.57,0,0,0-1.1,0c-.72,2.24-.47,4.76-.5,7.09,0,2.7-.1,5.4-.09,8.11a1.08,1.08,0,0,0,2.15,0c0-1.41,0-2.82,0-4.22a5.23,5.23,0,0,0,5.19-.13,6.52,6.52,0,0,0,3.42-5.71C39.28,171.16,38.24,168.66,36,168Zm-5,8.67a.91.91,0,0,0-.35-.26c0-.38,0-.76,0-1.14,0-1.23.06-2.49,0-3.74a12.06,12.06,0,0,1,3-1.58c2-.46,3,.72,3.39,2.49C37.84,175.59,33.78,179.83,31.05,176.67Z" fill="#1e1e1e"/><path d="M47.1,174.3a39.6,39.6,0,0,0,3.22-5.12c.63-.66-.44-2.15-1.3-1.23a33.71,33.71,0,0,0-3.31,4.53l-.33-.43c-1-1.42-1.82-3.18-3.27-4.2-.72-.5-1.62.57-1.12,1.19a62.17,62.17,0,0,0,3.47,5.22,24.13,24.13,0,0,0-2.72,4.36c-.39.92.67,2,1.49,1.15a21.63,21.63,0,0,0,2.68-3.64c.86,1.08,1.74,2.14,2.66,3.16s2.39-.48,1.49-1.48S48.05,175.49,47.1,174.3Z" fill="#1e1e1e"/><path d="M217.77,52.06c0,1.63-.1,3.25-.11,4.88a.4.4,0,0,0,.8,0c0-1.63.08-3.25.11-4.88a.4.4,0,0,0-.8,0Z" fill="#757575"/><path d="M217.83,44.21c0,1.39,0,2.78,0,4.18a.4.4,0,0,0,.8,0c0-1.4,0-2.79,0-4.18a.4.4,0,0,0-.8,0Z" fill="#757575"/><path d="M218.09,43.9h-4.67a.4.4,0,0,0,0,.8h4.67a.4.4,0,0,0,0-.8Z" fill="#757575"/><path d="M192.78,52.06c0,1.63.1,3.25.11,4.88a.4.4,0,0,0,.8,0c0-1.63-.08-3.25-.11-4.88a.4.4,0,0,0-.8,0Z" fill="#757575"/><path d="M192.72,44.21c0,1.39,0,2.78,0,4.18a.4.4,0,0,0,.8,0c0-1.4,0-2.79,0-4.18a.4.4,0,0,0-.8,0Z" fill="#757575"/><path d="M193.26,44.7h4.67a.4.4,0,0,0,0-.8h-4.67a.4.4,0,0,0,0,.8Z" fill="#757575"/><g opacity="0.85"><path d="M195.8,152c-.19,2.55-2.49,7.32-5,7.26-1.32,0-110.69,2.52-113.55-1.29s-1.43-87.34-.52-88.82c1.67-2.7,5.75-4.09,8.84-4.19,3.68-.13,99.63-2.54,103.91-.36,4.49,2.29,6.25,7.28,6.35,10.48S196,149.47,195.8,152Z" fill="#f78100"/></g><path d="M190.35,65.13c-16.22-2.61-91.26-1.77-99.22-.48C72.6,67.68,77,90.31,77,104.07c0,2.19-.55,39,.89,50.09,1,7.78,8.56,1.59,10.17-2.56,4.62-11.91,1.08-23.09-.4-34.8.07-4,.34-36.84.23-38.5,1.3.22,8-.55,9.78-.52,14.77.32,29.52.38,44.3.07,14.4-.3,28.91-1.3,43.2,1C190.89,79.77,197,66.2,190.35,65.13Z" fill="#fff" opacity="0.2"/><path d="M195.45,67.14c-2.7-4.36-9.34-4.88-13.95-5-5.09-.19-10.14.16-15.23-.05-4.13-.17-8.34.15-12.47.22q-23.58.41-47.17.83c-3.63.07-7.27.11-10.9.21-5.2.16-13.32-1-17.79,2.33-4,3-3.12,9.13-3.29,13.51-.52,13.34,0,26.74.19,40.09q.1,9.61.22,19.23c0,2.67-.07,5.34-.09,8,0,3.26-.79,9,1.14,11.89s7.47,2.22,10.46,2.36,6.26.34,9.4.38c4.76.06,9.54,0,14.31,0l47.61,0,15.75,0,4.83,0c4.4,0,10.94.94,14.84-1.75,4.82-3.32,3.33-10.1,3.32-15a1,1,0,0,0,0-.18c.08-11.89.31-23.79.46-35.68l.27-20.58c0-1.12.05-2.25,0-3.37C197.34,79.39,198.33,71.8,195.45,67.14Zm-2.72,89.92c-2.68,2.44-8.1,1.77-11.44,1.77-2.29,0-4.59-.05-6.88-.07H161.92L118,158.69c-9.53,0-19.07.17-28.59-.27-2.68-.13-6.69.38-9.27-.55s-2.44-3.16-2.58-5.62c-.24-4,0-8.05,0-12.08,0-4.65-.09-9.3-.14-13.95q-.18-19.52-.36-39c0-2,.06-4,.14-6.09.12-2.94-.25-6.31.38-9.17,1.52-6.87,8.15-5.62,13.55-5.81,4.05-.14,8.09-.24,12.15-.31,25.14-.43,50.46-.24,75.52-1.09,4.76-.17,13-.16,15.11,5.22,1.26,3.2.78,7.46.91,10.82.08,2.08.14,4.15.14,6.23q0,9.78,0,19.56c0,12.54.07,25.09,0,37.64a.42.42,0,0,0,0,.16C194.73,148.16,196,154.13,192.73,157.06Z" fill="#1e1e1e"/><path d="M204,78.11c-.56-9.69-7.79-1-7.57,4.2.31,7.55.28,61.38-.58,69.07-.38,3.38-1.22,6.26-4.71,7.29-3.22.94-71.84.67-102.49-.14-4.08-.1-8.15,9.49-3.61,9.61,17.81.47,96.86.78,104.32-1,15.15-3.67,13.73-22.5,14.22-34.48q.57-13.65,1.13-27.29C205,96.23,203.23,87.14,204,78.11Z" opacity="0.2"/><path d="M485.44,127.83c.13-12.41,0-24.82-.28-37.22-.15-7.21-.33-14.42-.58-21.63-.22-6.19-7.71.18-7.57,4.2.55,15.72.69,69,.6,71.56-.06,2-.58,7.67-6.55,9.37s-79.19,2.1-99,1.76c-4.09-.07-8.13,9.53-3.61,9.61,19.12.33,76.62-.67,86.24-.91,6.81-.17,16.6.53,22.49-3.43C487.68,154.11,485.34,138.76,485.44,127.83Z" opacity="0.2"/><g opacity="0.85"><path d="M357.35,68a7.23,7.23,0,0,1,5-7.27c4.19-1.41,103.43-.26,107-.08,1.55.07,6.25,1.07,7.63,5,.53,1.52.14,77.19,0,81.11-.07,1.76-1.71,8.15-9.42,8.28s-99.79,1.75-103.27.78c-1.27-.35-6.89-7.71-7-10.9S357.42,70.54,357.35,68Z" fill="#f78100"/></g><path d="M469.55,60.42c-17.79-.37-87.22,2.52-104.3-.43-4.66-.8-9.21,7.43-7.78,11.34,2.06,5.67.07,64.35,1.09,77,.72,8.86,11.28-.24,10.82-6q-1.61-20-1.47-40c0-6.81,1-25.07,1.14-27.42,14,1.29,27.8.2,42-.55,17.78-.93,35.59-.56,53.38-.18C470.23,74.27,476,60.56,469.55,60.42Z" fill="#fff" opacity="0.2"/><path d="M478.2,128.08c0-7.79-.1-37.7-.12-44.86,0-6.24,1.42-13.83-1.12-19.63s-14.38-4.61-19.44-4.7c-4.36-.06-80.55,0-81.9,0-4.69,0-11.64-1.1-15.77,1.74-4.83,3.32-3.33,10.1-3.32,15a.53.53,0,0,0,0,.19c0,12.3-.24,50.06-.27,56.64,0,6.94-2.31,15.91,3.35,21.16,5,4.65,11.58,3.8,17.89,3.74,5.81-.07,74.51-.57,78.64-.65,7.24-.14,20.65,1.9,21.95-8C479,142.06,478.23,134.86,478.2,128.08Zm-2.63,20c-1.23,5.78-5.15,5.51-9.87,5.69-3.08.12-6.17.26-9.26.32s-6.08,0-9.12.06c-24.29.18-48.61.12-72.9.65-3.32.07-7,.46-10.15-1-5.1-2.36-5.81-7.17-5.71-12.17.05-2.79.14-5.56.12-8.35q-.09-9.78-.16-19.57c-.1-12.63-.28-25.27-.3-37.9,0,0,0-.1,0-.16.16-3.81-1.06-9.77,2.16-12.7,2.69-2.45,8.1-1.77,11.44-1.78,2.3,0,4.59.06,6.89.07,4.42,0,8.84,0,13.26,0l44.07.05c10.15,0,20.37-.31,30.51.45,3.15.24,7.13.36,8.39,3.83.74,2,.62,12.69.61,15.56,0,5.42,0,10.85,0,16.28,0,12.33.11,24.66,0,37C475.57,138.74,476.47,143.84,475.57,148.07Z" fill="#1e1e1e"/><path d="M342.3,102.93q0-16.44,0-32.9c0-2.37-1.9-3.11-3.85-2.23-2.21,1-3.72,4.11-3.72,6.43,0,8.71,5.27,74.68-.93,79.44S250.2,157.13,230.42,158c-4.08.19-8,9.81-3.61,9.61,19.46-.89,39-2.15,58.45-1.13A184.89,184.89,0,0,0,321.75,165c7.64-1.09,16.06-.89,18.8-9.42C343.36,146.78,342.3,111,342.3,102.93Z" opacity="0.2"/><g opacity="0.85"><path d="M216.27,69.22c.19-2.56,1.85-7.86,8.88-7.81,3.75-.2,99.5.28,103.11.45,1.55.08,8.43-1.84,7.61,12.91,0,1.94.16,69.29,0,73.21-.07,1.76.06,8.13-9.42,8.28-3.68.12-100.42,1.32-103.91.35-5.47-.94-6.25-7.28-6.35-10.47S216.07,71.77,216.27,69.22Z" fill="#f78100"/></g><path d="M332.33,62.08c-16.23-1.95-109.22-3.4-112.81,2.3-4.78,7.59-4,75.46-4,86.08,0,3.3,2.74,4.55,5.52,3.18,3.13-1.55,5.31-5.78,5.3-9.19,0-9.22-.32-18.42-.52-27.64-.16-7,0-40,.1-42.65,0-.27,7.09-.71,9.26-.65,4.34.12,8.67.26,13,.35,8.78.18,61.44.6,78.94,1.94C333,76.25,338.9,62.87,332.33,62.08Z" fill="#fff" opacity="0.2"/><path d="M337.23,102c-.07-6.41-.15-24.57-.13-27.24,0-3.27.78-9-1.14-11.9s-7.47-2.22-10.46-2.35-6.26-.35-9.4-.39c-4.77-.06-9.54,0-14.31,0l-47.62,0-20.57,0c-4.4,0-10.94-.93-14.84,1.75-4.83,3.32-3.33,10.1-3.32,15a1,1,0,0,0,0,.18c-.08,11.89-.78,58.51-.77,59.63,0,5.16-1,12.75,1.91,17.4,2.7,4.36,9.34,4.88,13.95,5.05,5.08.19,23.57-.09,27.7-.17q23.58-.4,47.17-.83c3.63-.06,7.27-.11,10.9-.21,5.2-.15,13.31,1,17.79-2.33,4-3,3.12-9.13,3.29-13.51C337.93,128.76,337.39,115.36,337.23,102Zm-2.74,47.3c-1.52,6.87-8.16,5.63-13.55,5.81-4.05.14-8.09.24-12.15.31-25.14.43-50.46.24-75.52,1.1-4.76.16-13,.15-15.11-5.23-1.26-3.2-.79-7.46-.91-10.82-.08-2.08-.14-4.14-.14-6.23q0-9.78,0-19.55c0-12.55-.07-25.1,0-37.65a.42.42,0,0,0,0-.16c.16-3.81-1-9.78,2.17-12.7,2.68-2.45,8.1-1.78,11.44-1.78,2.29,0,15.21.08,19.37.09,14.65,0,63-.11,72.53.32,2.68.13,6.69-.38,9.27.56s2.44,3.15,2.58,5.62c.24,4,.07,21.38.12,26q.18,19.5.36,39C335,136.09,335.12,146.45,334.49,149.31Z" fill="#1e1e1e"/><path d="M203,254.11c.19-17.66-.65-35.33.06-53,.1-2.39-2-3.08-3.85-2.23-2.28,1-3.62,4.09-3.72,6.43-.6,15,.38,60.18.11,67.7-.14,4-.88,7.74-5.42,8.7-3.79.79-71.42-.72-101.3,1.26-4.06.27-8,9.9-3.61,9.61,17.55-1.17,35.13-.58,52.7-.28,16.44.28,34.22,1.26,50.43-2.15C205,286.67,202.87,267.11,203,254.11Z" opacity="0.2"/><g opacity="0.85"><path d="M76.09,195.13c.31-7.85,7.57-7.73,8.89-7.8,3.75-.2,99.5.28,103.1.45,1.56.07,5.75,3,6.76,4.3s1,77.9.86,81.82c-.07,1.75.1,9.1-9.41,8.27-3.68.13-100.42,2.32-103.91,1.36-1.27-.35-6.64.24-6.35-11.48C76.11,268.91,76,197.69,76.09,195.13Z" fill="#f78100"/></g><path d="M189.26,187.31c-19.68.5-102.18-.69-102.89-.74-12.2-.89-10.68,14.59-8.42,17.48-.1.86-3,62.75.67,75.62,2.1,7.28,12-3.53,10.41-8.94-2.08-7.22-2-15.15-2.2-22.62s-.26-15,0-22.44,2.56-24.39,3-25.08c2.87,0,17.06,1.2,21.36,1.33q12.3.38,24.61.23c16.12-.16,32.24-.71,48.35-1.12C189.94,200.88,195.6,187.15,189.26,187.31Z" fill="#fff" opacity="0.2"/><path d="M197.41,263.12c0-1.52,0-3,0-4.56-.08-7.25-.43-37.56-.52-45.47-.07-6.08.51-12.41-.41-18.39-.68-4.44-2.53-6.89-7.15-7.94-4-.91-8.7-.63-12.79-.71-4.32-.08-8.65,0-13,0-16.39,0-60,0-65.48,0s-12-1.26-17.16.55c-3.86,1.35-5.3,4.66-5.7,8.48a.56.56,0,0,0,0,.23c-.76,12.78-.37,25.72-.5,38.52-.14,13.69-1.37,28.18.2,41.82.39,3.39,1.15,7.19,4.68,8.35,3.91,1.28,9,1.15,13.06,1,6.11-.16,49.92-.61,65.77-.9,5.3-.1,22-.46,25-.54,4-.11,8.76.65,11.48-2.85C198.46,276.31,197.31,268.42,197.41,263.12Zm-2.62,1c-.14,3.46,0,7-.44,10.46-.55,4.75-2.26,6.13-6.74,6.33-4.21.19-8.44.25-12.66.35-4,.09-8,.14-11.94.21l-45.31.8c-4,.07-8,.37-11.94.22a104.55,104.55,0,0,0-11.06-.13,57.26,57.26,0,0,1-6.68,0c-2.11-.11-6.22.26-8-.89-4.34-2.78-2.93-14.71-3-19,0-1.48,0-3,0-4.46q0-11.06-.07-22.11c0-13.41-.78-27.07,0-40.46a.14.14,0,0,1,0-.06c1.46-9.84,12.87-7.05,20.08-7,4.07,0,8.14,0,12.21,0l44.7.06,18.26,0c5.38,0,11.3-.5,16.5.63,8.25,1.79,5.63,14,5.69,20.49q.09,9.41.19,18.81C194.67,240.27,195.27,252.25,194.79,264.1Z" fill="#1e1e1e"/><path d="M484.26,252.92c.15-18.48-.6-36.95,0-55.42.08-2.39-2-3.09-3.85-2.23-2.27,1-3.64,4.09-3.72,6.43-.52,16.63.91,73.32-1.17,76.22-4.39,6.11-100.71.39-104.16,1.93-3.7,1.64-5.55,11.19.15,8.65,2-.91,10.48.57,14,.76,7.34.41,71.66,0,80.67-1,7.55-.82,12.21-4.38,15.44-11.47C485,269.57,484.19,260.68,484.26,252.92Z" opacity="0.2"/><g opacity="0.85"><path d="M477.06,272.53c.34,3.58-3,6.89-5,7.27-1.3.25-108.58.16-110.1-.38-4.79-1.7-4.6-9.44-4.54-12.44,0-2-.56-75.65.35-77.13,1.67-2.7,6-4.25,9.05-4.36,3.68-.13,100.52-1.61,103.91-.36,5.48,2,6.25,7.28,6.35,10.48S476.82,270,477.06,272.53Z" fill="#f78100"/></g><path d="M472.63,187.2c-12.58-3.3-104.53-2.6-108.81-.33-3,1.6-6.05,6.53-5.59,10.45-1.68,4.13-.55,13.13-.54,13.15s.53,48.11-.47,61.86c-.42,5.88,14.14,2.39,11-9.17.77-10.78,1.49-21.58,1.58-32.4,0-5.76-1.36-26.27-1.39-26.48.38-3.18,3.47-3.46,4.06-3.53,6.66-.69,44.43-2.15,56.64-2,12.7.16,25.84-.6,38.31,2.17C473.05,202.16,479.28,189,472.63,187.2Z" fill="#fff" opacity="0.2"/><path d="M476.7,187.64c-2.69-4.36-9.33-4.87-13.94-5-5.09-.19-59.15.72-74.87,1-3.64.07-7.27.11-10.91.22-5.2.15-13.31-1-17.79,2.32-4,3-3.12,9.13-3.28,13.51-.52,13.34,0,26.74.18,40.09.08,6.41.16,24.57.13,27.25,0,3.27-.78,9,1.15,11.89s7.47,2.22,10.46,2.36,6.26.34,9.39.38c4.77.06,80.9,0,82.51,0,4.4,0,10.93.93,14.83-1.75,4.83-3.33,3.33-10.11,3.32-15a.53.53,0,0,0,0-.18c.09-12.24.78-58.51.78-59.63C478.6,199.89,479.58,192.3,476.7,187.64ZM474,277.56c-2.69,2.45-8.1,1.77-11.44,1.77-2.3,0-98.59,0-101.18-1s-2.43-3.16-2.58-5.62c-.23-4,0-8.05,0-12.08,0-4.65-.43-57-.35-59.07.11-2.94-.25-6.31.38-9.16,1.51-6.87,8.15-5.63,13.54-5.82,4.05-.14,8.1-.23,12.15-.3,25.15-.44,50.47-.25,75.52-1.1,4.76-.16,13-.16,15.11,5.22,1.26,3.2.79,7.47.92,10.82.07,2.09.14,4.15.14,6.23,0,6.49.06,44.44,0,57.2,0,.06,0,.1,0,.16C476,268.67,477.21,274.63,474,277.56Z" fill="#1e1e1e"/><g opacity="0.85"><path d="M216.27,193c.19-2.55,4.41-7,5-7.26,3.56-1.74,103.42-.26,107-.09,1.55.08,6.53-.74,7.66,4,.37,1.56.11,78.22,0,82.14-.07,1.75-1.81,6.17-3.2,7.22-3.36,2.52-106.4,2.81-107.61,2.25-7.32-3.34-8.77-8.12-8.87-11.31S216.07,195.6,216.27,193Z" fill="#f78100"/></g><path d="M330.8,184.73c-19.09.35-106.47.36-107.27.58-3.17.9-6.41,4.94-6.76,8.65-.66,2-1,68.78.71,76.31.78,3.49,13.57.79,10.41-8.95-3.43-10.55-.18-23.07-.13-34.09,0-5.77-.76-27-.79-27.48l7.83-.15,11.85-.21,26.66-.49,52.33-1C331.48,197.85,337.17,184.62,330.8,184.73Z" fill="#fff" opacity="0.2"/><path d="M337.53,252.45q-.15-12.09-.27-24.17L337,207.52c0-1.64,0-3.27,0-4.9.09-4.32,1.46-10.82-.32-14.89C334.11,181.82,321,184,316.33,184s-9.43,0-14.14,0l-48.43,0c-5.27,0-19.93,0-22,0-3.67,0-9-.53-12.18,1.58-3.39,2.26-3.91,6.84-4.2,10.59a1.6,1.6,0,0,0,0,.23c-.74,12.92-.18,26-.21,39q0,10.56,0,21.13c0,6.52-2.13,14.78,1.7,20.32,5.79,8.39,17.94,5.68,26.54,6.06,3.6.16,7.18.08,10.8,0l47.37-.84c4.53-.08,9.07-.13,13.6-.25,8.84-.23,21.13,1.92,22.48-9.82C338.39,265.71,337.61,258.83,337.53,252.45Zm-2.65,20.41c-1.85,8-13.22,6.13-19.48,6.28-3.32.09-79.77,1.65-85.35,1.18-4-.34-9.09-1.64-11.34-5.4-2.14-3.58-1.08-8.57-1.05-12.49,0-1.73-.21-18.78-.28-25.58-.14-13.43-1.07-27.14-.29-40.56,0,0,0-.09,0-.14.33-2.74.84-6.59,3.16-8.41s5.93-1.39,8.59-1.47,16.44,0,20.51,0c14.9,0,65,.08,75.17.05,2.79,0,8.33-.34,10,2.75,1,1.83.22,5.94.17,8-.06,2.82-.17,5.63-.17,8.44,0,5.34.53,41.16.51,53.71C335,263.57,335.86,268.66,334.88,272.86Z" fill="#1e1e1e"/><path d="M342.76,217.32c-.36-6.9-1.07-14.07.11-20.93s-6.6-2.57-7.36,1.87c-1.15,6.68,1.36,62,1.13,71.76-.09,3.87-1.53,7.74-5.67,9.06s-89.9,3.42-100,1.48c-4-.76-8.31,8.71-3.61,9.61,9.13,1.75,19,.44,28.2.31,14.48-.22,28.85,1,43.37.22,7.64-.43,35.57-1.39,39.77-6.78s4.41-12.24,4.54-19.08C343.38,256.38,343.15,224.73,342.76,217.32Z" opacity="0.2"/><path d="M203.34,325.78c-.29-6.19-7.76.18-7.57,4.21.89,19.35,2,69-2.1,73.31s-21.78,2.92-28.2,3.19c-25.26,1.05-50.61-.36-75.88,0-4.09.05-8.08,9.66-3.61,9.6,22.43-.28,44.83.64,67.25.28,11-.18,23.63-1.36,34.51-2.69,6.89-.84,9.67-1.1,12.15-8.28s3-14.94,3.4-22.5C204.32,363.84,204.21,344.81,203.34,325.78Z" opacity="0.2"/><g opacity="0.85"><path d="M76.09,318.94c-.14-8.17,7.57-7.74,8.89-7.81,3.75-.2,99.5.28,103.1.46,1.56.07,8.08.53,7.62,12.9,0,1.94.16,69.29,0,73.21-.07,1.76,1.93,8-9.41,8.28-3.68.13-105.35,1.76-106.37.91-2.39-2-3.79-7.84-3.89-11S76.14,321.5,76.09,318.94Z" fill="#f78100"/></g><path d="M190.42,311.19c-17.93-1-97.73,1.42-106.6,1.75-4,.14-7.31,4.45-7.83,8.19-.9,6.36-.45,66.91,1,80.91.92,8.86,11.42-.23,10.81-6-1.4-13.45,0-27-1.4-40.45-.68-6.4.35-12.14,1-18.48.36-3.67-.3-7.33-.74-11a169.58,169.58,0,0,1,18.57-1.07c8.79.21,17.5,1,26.3.88,17.92-.28,35.8-2.06,53.73-1C191.09,325.24,197,311.56,190.42,311.19Z" fill="#fff" opacity="0.2"/><path d="M197.39,379.71c-.11-7.85-.19-15.71-.28-23.56-.08-7.32-.3-24.53-.3-25.81,0-4.45,1.38-11.71-.85-15.91-2.14-4-7.85-4.08-11.85-4.13q-9.21-.09-18.42-.12c-17-.1-61.85-.26-67.25-.28-6.23,0-13.57-1.36-19.13,2-5.36,3.29-4,9.31-4,14.67a1.06,1.06,0,0,0,0,.19c-.09,12.54-.66,50.79-.75,57.38,0,2.64,0,5.27.12,7.91.1,4.05-.34,11,2.54,14.33,1.83,2.11,5.86,1.88,8.42,2.12,6.08.55,12.12-.46,18.16.17,3.86.4,67.62-.92,71.44-1,5.16-.12,10.48.13,15.61-.42,3.53-.39,5.18-3.14,5.9-6.57C198.16,394.06,197.48,386.55,197.39,379.71Zm-2.54,6c0,2-.15,4.06-.23,6.09-.13,3.15.58,8.8-1.74,11.31-2.84,3.09-11.33,1.72-15.49,1.83-3.57.1-7.15.15-10.72.21l-44,.79c-5.14.09-10.3.31-15.44.28-1.62,0-3.12-.23-4.75-.36-5.21-.4-10.4.53-15.64.13-1.9-.15-5.77.18-7.35-1-2-1.41-2.06-7.15-2.21-9.2-.26-3.57-.33-7.18-.35-10.76,0-6.25,0-12.51,0-18.77,0-13.18-.07-26.37,0-39.56a.75.75,0,0,0,0-.16c.2-4.71-1.11-10.12,3.88-13,2.91-1.7,6.5-1.46,9.73-1.46,2.35,0,4.7.06,7,.07,4.33,0,8.66.05,13,.08l45.7.26c10.26.06,21.23-1,31.44.26,6.35.74,6.68,5.21,6.69,10.59,0,2.91-.14,5.81-.13,8.72,0,5.74.12,11.48.17,17.23C194.64,361.46,195,373.62,194.85,385.74Z" fill="#1e1e1e"/><path d="M484.34,321.3c2.31-6.58-5-5.76-6.79-.64-1.24,3.53-.29,72.93-1,74.93-1.06,3.15-1.63,5.47-4.83,6.33-5,1.33-84,1.22-104.26,1.18-4.08,0-8.1,9.59-3.61,9.6,17.27,0,91.74-1,99.39-1.94,6.58-.83,13.49-2.33,17.3-8.27s3.63-14,4-20.95C485.33,369.79,483.89,323,484.34,321.3Z" opacity="0.2"/><g opacity="0.85"><path d="M357.35,315.61c.19-2.55.16-4.53,5-7.27s103.43-.25,107-.08c1.55.07,8.08-.61,7.61,12.9,0,1.95.47,61.46.47,61.46L477,394.38c-.07,1.75-1,8.07-9.42,8.27-3.67.13-100.42,1.32-103.9.36-1.27-.36-6.38-4.61-6.36-10.48C357.19,389.39,357.16,318.16,357.35,315.61Z" fill="#f78100"/></g><path d="M469.78,307.81c-18.08.73-89-1.41-106.33,1.53-4.59.78-7.13,7.2-6.47,11.22,2.17,13.33,1.3,67.85,1.47,74.73.08,3.29,4.65,7.47,7.48,6.07,3.08-1.52,5.39-5.8,5.3-9.19-.16-6.63-1.59-13.05-2.82-19.54a66,66,0,0,1-.36-20.89,144.59,144.59,0,0,0,.6-29.9c14.51-1.32,29.12.18,43.67.6,17.44.5,34.88-.21,52.3-.91,3.51-.14,6.19-3.28,7.33-6.42C472.65,313.21,473.35,307.67,469.78,307.81Z" fill="#fff" opacity="0.2"/><path d="M478.1,329.61c0-2.49,0-5,.07-7.48,0-3.51.42-9.3-1.62-12.37-2.33-3.51-9.33-2.82-12.79-3-2.37-.1-4.74-.23-7.11-.26-5.27-.07-48.62-.29-65-.38-4.52,0-9-.07-13.56-.07a100.92,100.92,0,0,0-13.8.8c-3.18.45-6.46,1.63-7.55,4.88-1.24,3.69-.18,7.76-.18,11.54a1,1,0,0,0,0,.18c-.08,12.54-.66,50.8-.74,57.38a77.64,77.64,0,0,0,.43,7.91c.4,4.53-.3,10.51,3.66,13.72,3,2.39,7.43,2.33,11,2.51,4.51.23,9,.22,13.54.45,3.39.17,67.45-1.44,71.87-1.57,5-.15,10.69.36,15.61-.9s6-4.85,6.3-9.51C479.12,379.12,478.18,336.53,478.1,329.61Zm-2,52.2c0,3.69-.26,7.38-.46,11.07-.12,2.29,0,5.17-2.27,6.73-1.66,1.14-3.92,1.08-5.83,1.22-3.65.26-70.44,2.59-95,1.61a54.19,54.19,0,0,1-6.73-.44c-5.37-.91-6.37-4.69-6.79-9.47-.32-3.58-.81-7.15-.86-10.75-.07-6.26,0-12.52,0-18.77,0-13.19-.07-26.38,0-39.56,0-.06,0-.1,0-.16.17-3.77-1.42-10.08,1.91-12.8,2.46-2,6.85-1.62,9.81-1.8,2.56-.17,14.3-.27,17.62-.24,14.63.11,63.54.18,73.34.64,3.19.15,7-.25,10.1.59,4.15,1.13,4.14,3.41,4.48,7.16s.08,7.31.08,11C475.6,333,476.2,369,476.1,381.81Z" fill="#1e1e1e"/><path d="M344.36,376.7c.12-12.41-.61-51.64-.86-58.85-.22-6.19-7.71.18-7.57,4.2.54,15.72.69,69,.6,71.56-.07,2-1.68,9.77-6.39,10-4.52.6-79.35,1.5-99.12,1.16-4.09-.07-8.14,9.52-3.61,9.6,19.12.33,102.84-.38,108.72-4.34C346.6,403,344.25,387.63,344.36,376.7Z" opacity="0.2"/><g opacity="0.85"><path d="M216.27,316.85c.51-7.23,7.56-7.73,8.88-7.8,3.75-.2,99.5.28,103.11.45,1.55.07,6.52,2.19,6.85,5.77.15,1.6,3.68,79.43-.81,86.43-3.24,5-103.28,3.05-111.75,2.54-5.93-2.5-6.25-7.27-6.35-10.47S216.07,319.4,216.27,316.85Z" fill="#f78100"/></g><path d="M327.57,309.57c-2.59.47-84.89,1.12-102.21,1.4-4.87.08-9.93,10-7.26,12.9-3.51,4.92-4,62.64.84,77.83,2.34,7.26,12.14-3.58,10.41-8.95-3.85-12-1.64-24.38-.86-36.65.37-5.85-.85-27.53-.87-28,2.51-.27,42.1-2.86,42.29-2.88,13.35.19,27.34,1.42,40.67-.39A109.34,109.34,0,0,0,325,323.06C330.54,322.06,335.17,308.2,327.57,309.57Z" fill="#fff" opacity="0.2"/><path d="M337.23,349.65q-.11-9.61-.22-19.23c-.06-5.54,2.14-14.54-2.23-18.73-5-4.83-12.77-3.88-19.22-3.92-5.13,0-10.26,0-15.39,0l-47.65,0q-7.35,0-14.71,0c-5.95,0-15-2.08-19.29,2.91-3.89,4.54-3.09,8-3.08,13.81a1.06,1.06,0,0,0,0,.19c-.08,11.89-.31,23.78-.46,35.67L214.75,381c0,1.13-.05,2.25,0,3.38,0,5.15-1,12.74,1.91,17.4,2.7,4.35,9.33,4.87,13.95,5,5.08.19,10.14-.16,15.23.05,4.13.18,8.34-.14,12.47-.21l47.17-.83c3.63-.07,7.27-.11,10.9-.22,5.2-.15,13.31,1,17.79-2.33,4-3,3.12-9.13,3.29-13.5C337.93,376.39,337.38,363,337.23,349.65Zm-4.94,51.7c-2.9,2-8.08,1.29-11.35,1.41-4.05.14-8.09.23-12.15.3-25.13.44-50.47.15-75.52,1.1-4.91.18-12.8.11-15.11-5.22-1.32-3.08-.78-7.49-.91-10.82-.08-2.09-.14-4.15-.14-6.23q0-9.78,0-19.56c0-12.55-.07-25.1,0-37.64a.47.47,0,0,0,0-.17c.16-3.77-.53-7.45,1.68-10.74s4.43-3.57,8.17-3.69c3.39-.11,6.77,0,10.16,0,3.82,0,7.65,0,11.47,0l42.69.05c9.18,0,18.41-.29,27.59.11,5.61.24,14.76-.67,15.56,6.94.41,3.84,0,7.73,0,11.58,0,4.61.08,9.23.13,13.85.12,13.14.36,26.28.36,39.42,0,1.9-.07,3.79-.14,5.7C334.73,391.25,335.69,399.06,332.29,401.35Z" fill="#1e1e1e"/><path d="M185.45,20.87a28.06,28.06,0,0,0-3.76,3.28c-.42.47,0,1.47.68,1.18a8.18,8.18,0,0,0,2.65-1.8c-.35,4.23-.25,8.53-.51,12.75-.09,1.3,2.05,1.32,2,0,0-5,.45-10,.09-14.92A.71.71,0,0,0,185.45,20.87Z" fill="#1e1e1e"/><path d="M197.33,20.43a.7.7,0,0,0-.71.36.57.57,0,0,0-.27-.07c-8.38-.55-9.66,15.92-.87,16.42C204.09,37.63,205.42,21.1,197.33,20.43Zm-2.4,14.74c-3-.65-3.73-4-3.54-6.6a7.25,7.25,0,0,1,5.13-6.6.57.57,0,0,0,.19-.1.81.81,0,0,0,.38.27C202.85,23.94,201.85,36.67,194.93,35.17Z" fill="#1e1e1e"/><path d="M212.63,25.08A6.69,6.69,0,0,0,207.15,27a10.2,10.2,0,0,0-.32-1.35c-.17-.54-1.1-.65-1.2,0a50.64,50.64,0,0,0-.21,7.19c-.06,2.52-.27,5.06-.16,7.58a.92.92,0,0,0,1.84,0c.15-1.49.2-3,.22-4.51a5.94,5.94,0,0,0,5,.58c3.08-.88,4.43-3.07,4.47-6.24C216.8,27.65,215.41,25.21,212.63,25.08Zm.05,9.23c-1.7.73-4.35.9-5.18-1.17a2,2,0,0,0-.14-.25v-.08c0-1.26.07-2.55,0-3.83a5.32,5.32,0,0,1,3.57-2c2.05-.2,3.75.22,4,2.64C215.07,31.52,214.54,33.5,212.68,34.31Z" fill="#1e1e1e"/><path d="M226.8,25.09a30.52,30.52,0,0,0-3.86,3.7c-1-1.34-2.08-2.93-3.62-3.48-.42-.15-.74.3-.67.68.32,1.61,1.83,3.06,2.94,4.36-1,1.19-1.94,2.41-2.87,3.6a.77.77,0,0,0-.51.48l-.2.44c-.43,1,.82,2.24,1.61,1.25,1.08-1.36,2.24-2.66,3.4-4q1.65,2.09,3.28,4.19c.81,1,2.27-.42,1.46-1.45l-3.38-4.27c1.31-1.47,2.59-2.95,3.75-4.52C228.75,25.27,227.48,24.55,226.8,25.09Z" fill="#1e1e1e"/><path d="M358.34,52.06c0,1.63-.11,3.25-.11,4.88a.4.4,0,0,0,.8,0c0-1.63.08-3.25.11-4.88a.4.4,0,0,0-.8,0Z" fill="#757575"/><path d="M358.39,44.21c0,1.39,0,2.78,0,4.18a.4.4,0,0,0,.8,0c0-1.4,0-2.79,0-4.18a.4.4,0,0,0-.8,0Z" fill="#757575"/><path d="M358.66,43.9H354a.4.4,0,0,0,0,.8h4.68a.4.4,0,0,0,0-.8Z" fill="#757575"/><path d="M333.35,52.06c0,1.63.1,3.25.1,4.88a.4.4,0,0,0,.8,0c0-1.63-.07-3.25-.1-4.88a.4.4,0,0,0-.8,0Z" fill="#757575"/><path d="M333.29,44.21c0,1.39,0,2.78,0,4.18a.4.4,0,0,0,.8,0c0-1.4,0-2.79,0-4.18a.4.4,0,0,0-.8,0Z" fill="#757575"/><path d="M333.82,44.7h4.68a.4.4,0,0,0,0-.8h-4.68a.4.4,0,0,0,0,.8Z" fill="#757575"/><path d="M326,20.87a28.79,28.79,0,0,0-3.77,3.28c-.41.47,0,1.47.69,1.18a8.28,8.28,0,0,0,2.65-1.8c-.36,4.23-.25,8.53-.52,12.75-.08,1.3,2.05,1.32,2,0,0-5,.45-10,.09-14.92A.71.71,0,0,0,326,20.87Z" fill="#1e1e1e"/><path d="M337.89,20.43a.69.69,0,0,0-.7.36.6.6,0,0,0-.27-.07c-8.39-.55-9.67,15.92-.87,16.42C344.66,37.63,346,21.1,337.89,20.43Zm-2.4,14.74c-3-.65-3.73-4-3.54-6.6a7.25,7.25,0,0,1,5.14-6.6.69.69,0,0,0,.19-.1.72.72,0,0,0,.38.27C343.42,23.94,342.41,36.67,335.49,35.17Z" fill="#1e1e1e"/><path d="M353.2,25.08A6.68,6.68,0,0,0,347.72,27a10.2,10.2,0,0,0-.32-1.35c-.17-.54-1.1-.65-1.21,0a53.78,53.78,0,0,0-.21,7.19c-.05,2.52-.27,5.06-.15,7.58a.92.92,0,0,0,1.84,0c.15-1.49.19-3,.22-4.51a5.94,5.94,0,0,0,5,.58c3.08-.88,4.42-3.07,4.46-6.24C357.37,27.65,356,25.21,353.2,25.08Zm.05,9.23c-1.7.73-4.35.9-5.19-1.17a.89.89,0,0,0-.14-.25v-.08c0-1.26.07-2.55,0-3.83a5.32,5.32,0,0,1,3.58-2c2.05-.2,3.75.22,4,2.64C355.64,31.52,355.11,33.5,353.25,34.31Z" fill="#1e1e1e"/><path d="M367.36,25.09a30.52,30.52,0,0,0-3.86,3.7c-1-1.34-2.07-2.93-3.61-3.48-.43-.15-.75.3-.68.68.32,1.61,1.83,3.06,3,4.36-1,1.19-2,2.41-2.87,3.6a.78.78,0,0,0-.52.48c-.07.15-.13.3-.2.44-.43,1,.82,2.24,1.61,1.25,1.09-1.36,2.24-2.66,3.41-4l3.27,4.19c.82,1,2.28-.42,1.46-1.45-1.12-1.43-2.25-2.85-3.37-4.27,1.3-1.47,2.59-2.95,3.75-4.52C369.32,25.27,368.05,24.55,367.36,25.09Z" fill="#1e1e1e"/><path d="M65.76,159.52c1.62,0,3.25.11,4.87.11a.4.4,0,0,0,0-.8c-1.62,0-3.25-.08-4.87-.11a.4.4,0,0,0,0,.8Z" fill="#757575"/><path d="M57.9,159.47c1.4,0,2.79,0,4.18,0a.4.4,0,0,0,0-.8c-1.39,0-2.78,0-4.18,0a.4.4,0,0,0,0,.8Z" fill="#757575"/><path d="M57.6,159.2c0,1.56,0,3.12,0,4.68a.4.4,0,0,0,.8,0c0-1.56,0-3.12,0-4.68a.4.4,0,0,0-.8,0Z" fill="#757575"/><path d="M65.76,188.27c1.62,0,3.25-.1,4.87-.11a.4.4,0,0,0,0-.8c-1.62,0-3.25.08-4.87.11a.4.4,0,0,0,0,.8Z" fill="#757575"/><path d="M57.9,188.33h4.18a.4.4,0,0,0,0-.8H57.9a.4.4,0,0,0,0,.8Z" fill="#757575"/><path d="M58.4,187.8c0-1.56,0-3.12,0-4.68a.4.4,0,0,0-.8,0c0,1.56,0,3.12,0,4.68a.4.4,0,0,0,.8,0Z" fill="#757575"/><path d="M9.19,286.72a20.43,20.43,0,0,0-3.75,3.74.72.72,0,0,0-.38.61v.12a.79.79,0,0,0,1,.75c.92-.18,1.86-1.19,2.72-2.14.09,4,.09,8.05.29,12.06a1,1,0,0,0,1.9,0c0-4.77-.24-9.54-.3-14.3A1,1,0,0,0,9.19,286.72Z" fill="#1e1e1e"/><path d="M21.82,292.44a7.36,7.36,0,0,0-5.11,1.33l-.06-1.8-.06-1.74a15.33,15.33,0,0,1,0-1.62,16.72,16.72,0,0,1,3,0c1.27,0,2.54,0,3.81-.16a.86.86,0,0,0,0-1.72c-1.64-.12-3.31,0-4.95,0-.93,0-2.56-.18-3.31.51s-.42,2.11-.4,3c0,1.74.1,3.47.14,5.21a1,1,0,0,0,1.74.53A12.67,12.67,0,0,1,20,294.41c2-.37,3.48.46,3.44,2.61-.08,3.83-4.79,4.43-7.18,2.41-1-.82-2.36.5-1.42,1.42,3.55,3.48,10.47,1.57,10.53-3.83C25.37,294.83,24.11,292.72,21.82,292.44Z" fill="#1e1e1e"/><path d="M36,291.41a6.06,6.06,0,0,0-5.49,1.45,11.23,11.23,0,0,0-.28-1.28.58.58,0,0,0-1.1,0c-.72,2.25-.47,4.76-.5,7.1,0,2.7-.1,5.4-.09,8.1a1.08,1.08,0,0,0,2.15,0c0-1.4,0-2.81,0-4.21a5.23,5.23,0,0,0,5.19-.13,6.52,6.52,0,0,0,3.42-5.71C39.28,294.57,38.24,292.07,36,291.41Zm-5,8.66a.88.88,0,0,0-.35-.25c0-.38,0-.76,0-1.14,0-1.23.06-2.49,0-3.74a12.06,12.06,0,0,1,3-1.58c2-.46,3,.72,3.39,2.49C37.84,299,33.78,303.24,31.05,300.07Z" fill="#1e1e1e"/><path d="M47.1,297.7a40.18,40.18,0,0,0,3.22-5.11c.63-.66-.44-2.16-1.3-1.23a33.61,33.61,0,0,0-3.31,4.52c-.11-.14-.23-.28-.33-.43-1-1.41-1.82-3.17-3.27-4.19-.72-.51-1.62.57-1.12,1.19,1.06,1.79,2.23,3.53,3.47,5.22A24.13,24.13,0,0,0,41.74,302c-.39.92.67,2,1.49,1.14a20.85,20.85,0,0,0,2.68-3.64c.86,1.09,1.74,2.15,2.66,3.17s2.39-.48,1.49-1.49S48.05,298.9,47.1,297.7Z" fill="#1e1e1e"/><path d="M65.76,282.93c1.62,0,3.25.1,4.87.11a.4.4,0,0,0,0-.8c-1.62,0-3.25-.08-4.87-.11a.4.4,0,0,0,0,.8Z" fill="#757575"/><path d="M57.9,282.87h4.18a.4.4,0,0,0,0-.8H57.9a.4.4,0,0,0,0,.8Z" fill="#757575"/><path d="M57.6,282.61c0,1.56,0,3.11,0,4.67a.4.4,0,0,0,.8,0c0-1.56,0-3.11,0-4.67a.4.4,0,0,0-.8,0Z" fill="#757575"/><path d="M65.76,311.68c1.62,0,3.25-.11,4.87-.11a.4.4,0,0,0,0-.8c-1.62,0-3.25.08-4.87.11a.4.4,0,0,0,0,.8Z" fill="#757575"/><path d="M57.9,311.74l4.18,0a.4.4,0,0,0,0-.8l-4.18,0a.4.4,0,0,0,0,.8Z" fill="#757575"/><path d="M58.4,311.2c0-1.56,0-3.12,0-4.68a.4.4,0,0,0-.8,0c0,1.56,0,3.12,0,4.68a.4.4,0,0,0,.8,0Z" fill="#757575"/></svg>