<svg xmlns="http://www.w3.org/2000/svg" viewBox="0 0 490 378"><title>dddgrid-template-areas</title><path d="M1.6,323.29c-2.14,9,5.52,22.76,15.47,22.67,25.06-.23,322.1,2.72,410.35,7.34,4.86.26,5.68-5.17,5.36-9.42,64.12,24,52-47.21,50.88-67.86s3.58-189.37-1-229.71c2.5-3.19,7.32-25.48-14.14-25.75-28.87-.87-57.73,1.26-86.6.39C357,20.2,260,18.94,234.43,19.68,184,21.13,60.25,18,9.94,22.75c-6.28.59-6,8.4-4.82,12.83.36,1.35.13,262.59,1.16,264.6Q4.33,311.81,1.6,323.29Z" fill="#fff"/><path d="M482.18,43.2c0-3.64.5-7.3.26-10.92-.93-13.83-19.24-11-28.77-11.22-5.81-.13-56.86-.23-76.58-.23-31.84,0-344.82,0-352.09.17-5.53.15-12.47-.19-17.24,3.09s-3.42,8.1-3.61,13.27a.78.78,0,0,0,0,.22Q4.13,59.42,4,81.26C3.85,113.69,2.47,310,2.9,326.45c.19,7-.64,16.06,6.92,19.36,5.85,2.54,13.49,2.56,19.73,2.87,8.33.41,36.93.19,43,.17L436,347.67c12.09,0,24.57.74,36.5-1,4.63-.68,9.45-2.08,10.59-7.17.94-4.19,1-9.08,1.12-13.37C484.22,324.62,482.32,63.17,482.18,43.2Zm-1.5,293.64c-.86,4.47-2.71,6-6.55,6.83-7.63,1.65-15.91,1-23.66,1.17-5.87.1-57.09.32-76.83.39-31.73.1-336,1.22-344.09.83-6.36-.31-20,.39-22.82-6.74-1.64-4.2-1.19-9.59-1.23-14.14,0-6.36.33-284.12.34-287.67a.83.83,0,0,0,0-.15c.25-5.2-1.21-10,4.69-12.55,3.84-1.67,8.38-1.57,12.51-1.66,7.67-.16,36.67,0,42.28,0q35.36,0,70.73.06l200,.06h78.07c12.89,0,46.62.4,50.6.49,4.17.1,9.47-.22,12.79,2.79,3.83,3.48,2.29,10.05,2.22,14.64,0,1.51.57,88,.76,117.56q.31,50.35.65,100.69.19,31.4.39,62.79C481.52,323.53,481,335,480.68,336.84Z" fill="#1e1e1e"/><path d="M125.83,21c-1.4,27.58-1,55.34-1.17,82.94q-.27,42.63-.18,85.27.09,66,.7,132c.08,8.4.25,16.8.35,25.19a1.28,1.28,0,0,0,2.55,0c-.3-24.38-.42-48.79-.6-73.18q-.58-79.29-.37-158.59c.11-31.18,1.15-62.43.67-93.61a1,1,0,0,0-2,0Z" fill="#1e1e1e"/><path d="M245.74,23c-.74,27.42,0,54.94,0,82.38q0,42.68-.17,85.34-.23,65.73-.7,131.46c-.06,8.41,0,16.83-.1,25.24a1.28,1.28,0,0,0,2.55,0c.19-24.24.41-48.48.53-72.73q.39-78.93.4-157.86c0-31.24.69-62.62-.54-93.83a1,1,0,0,0-1.95,0Z" fill="#1e1e1e"/><path d="M364,22c-.74,27.62,0,55.33,0,83q0,42.66-.17,85.32-.22,66-.7,132.09c-.06,8.41,0,16.82-.1,25.22a1.28,1.28,0,0,0,2.55,0q.3-36.62.53-73.25.39-79.35.4-158.7c0-31.17.68-62.49-.54-93.64a1,1,0,0,0-2,0Z" fill="#1e1e1e"/><path d="M481.36,129.92c-30.52-.7-61.08-.55-91.61-.57q-60.48,0-121,.12-61.53.14-123.06.38-49,.18-97.93.4l-31.14.15c-4.52,0-10-.79-14.43.08a3.62,3.62,0,0,1-.66,0,1.25,1.25,0,0,0,0,2.5q18.5-.11,37-.18,46.39-.23,92.8-.41,60.69-.26,121.39-.42,61.37-.18,122.73-.22c32.27,0,64.56.27,96.84.14l9-.06a1,1,0,0,0,0-1.92Z" fill="#1e1e1e"/><path d="M482.42,238.78c-31.9.44-63.8.95-95.7,1.18q-60.51.45-121,.38t-120.79-.24q-47.52-.18-95-.47l-29.76-.19c-4.32,0-9.64-.91-13.92-.09a4.44,4.44,0,0,1-.63,0,1.25,1.25,0,0,0,0,2.5q17.87.15,35.72.25,45.08.27,90.14.45,59.51.22,119,.26,61.17,0,122.35-.33c33.25-.21,66.54-.3,99.77-1.38,3.28-.11,6.57-.26,9.85-.39a1,1,0,0,0,0-1.92Z" fill="#1e1e1e"/><path d="M487.63,39c-3.18-7.11-12.71,3.8-10.41,9,.25.57-1.2,46.94.36,65.51.88,10.44-6.23,11.58-7.56,11.84-13,2.54-417.43,3-445.16,2.12-5.84-.18-2.31,11.4,4.19,11.6,25.76.8,43,.1,68.78.84,13.1.37,49.26-.64,54.26-.55,27.08.52,248.65,2,275.74,1.44,14.42-.28,26-.81,40.26-3.23,7.82-1.33,15.31-3.11,18.52-11.38C491.06,115.75,488.68,41.41,487.63,39Z" opacity="0.2"/><g opacity="0.85"><path d="M8.66,36.29c.27-3.18,3.12-10.48,13.24-10.37,1.81-.45,446.78-.6,448.2,1,9.18,2.26,7.79,12.57,7.7,16.31-.06,2.42.23,67,0,71.87-.1,2.19,1.05,10.21-13.39,10.31-5.23.16-435.6,4.69-446.32.44-8.93-3.55-8.89-9.07-9-13S8.39,39.47,8.66,36.29Z" fill="#f78100"/></g><path d="M471.68,29.09c-23.76-1.63-449.55-3.45-452.79-1.7-6.48,3.5-8.91,11.19-9.37,18-.52,7.69.91,66.77.93,72,0,3.3,2.73,4.55,5.51,3.18,3.13-1.55,5.31-5.78,5.3-9.19,0-6.37-.93-30.18-.94-34.9,0-7,0-36.38,0-36.68,2.73,0,16.4.12,19.71.2l25.63.65c30.42.73,60.87,1.2,91.3.24,10.37-.33,163.54-1,229.74-.12,26.57.35,53.31.19,79.83,2C472.34,43.21,478.26,29.54,471.68,29.09ZM10.13,100.47l0,.33Q10.15,100.65,10.13,100.47Zm0,.46c0,.09,0,.19.05.29C10.29,101.63,10.3,102.22,10.18,100.93ZM20.54,91.6c0-.27,0-.42,0,0Z" fill="#fff" opacity="0.2"/><path d="M479.39,90.7l-.57-33.9c-.05-3.33-.09-6.64,0-10,.11-4.75,1.3-14.8-2.89-18.26-5.23-4.32-16.11-2.82-22.21-3.06-1.17-.05-2.34-.1-3.51-.11-24.25-.29-48.52-.05-72.77-.07l-139.71-.16L101,25C79.82,25,58.6,25,37.38,25c-7.06,0-15.74-.63-22.52,1.53C6.25,29.29,8.15,38.84,8,45.85A1,1,0,0,0,8,46c0,18.15-.12,36.3-.17,54.44a147.33,147.33,0,0,0,.54,15c.86,8.53,6.36,10.89,14.19,12.11a65.5,65.5,0,0,0,15.07.39c4.4-.31,8.44.15,12.81.36.47,0,.95,0,1.42,0,25.86.53,51.78-.1,77.64-.14q71-.13,142-.52l130.6-.5,37.93-.16c2.64,0,5.29,0,7.93,0,2.86,0,5.73-.15,8.59-.24,6.28-.19,17.38,1.24,21.07-5.51,1.87-3.42,1.37-8,1.58-11.76.14-2.55.34-5.11.36-7.66C479.6,98.11,479.46,94.4,479.39,90.7Zm-2.46,19.51a50.34,50.34,0,0,1-.35,6.51c-1.07,5.66-4.4,6.92-9.47,7.38-6.84.63-13.8.61-20.67.63l-26.86.1-115.68.44-142,.58q-49.48.21-99,.54c-9.25,0-18.67-.59-27.84,0-6,.35-12.36.08-18.13-1.73-7.2-2.27-6.93-9-7.22-15.24-.16-3.57-.29-7.1-.29-10.67l0-32.15c0-6.86,0-13.72,0-20.58a.5.5,0,0,0,0-.13c.25-6.4-1.69-15.54,6.5-17.74C21.68,26.58,28.75,27,34.64,26.9h3.53l7.67,0L81.18,27l123.27.2,141.15.2,94.66.15c3,0,6,0,9,0,7.09,0,15.33-.75,22.06,1.42,4.82,1.56,4.87,5.28,5.2,9.85.29,3.9,0,7.79,0,11.69,0,2.82.09,5.63.14,8.44l.51,33.39c.05,3.22.18,6.45.15,9.67C477.3,104.76,477.07,107.49,476.93,110.21Z" fill="#f78100"/><path d="M218.63,79A4.63,4.63,0,0,0,216,75.28c-1.49-.57-3.5.17-4.8,1.42a15.12,15.12,0,0,0-.52-5.69c-.28-.75-1.64-.72-1.52.21.63,4.83.25,10,.12,14.81a1,1,0,0,0,2,0q-.09-3.61-.07-7.23A15.57,15.57,0,0,1,213,77.45a2.17,2.17,0,0,1,2-.37c1.36.26,1.6,1.14,1.75,2.51.24,2.28.25,4.6.51,6.89a1.11,1.11,0,1,0,2.19-.3C219,83.79,219.07,81.34,218.63,79Z" fill="#1e1e1e"/><path d="M228.24,74.92c-2.47,0-5.51,2.63-6.11,5-1.39,5.52,6.16,10.74,10.16,6,.85-1-.65-2.46-1.43-1.44-2.31,3-6.73.39-7.05-2.83,2.8.88,6.45.25,9.2,0a1,1,0,0,0,1-1.25C233.45,77.65,231.28,74.87,228.24,74.92Zm-1.07,5.18a17.73,17.73,0,0,0-3.29.33,0,0,0,0,1,0,0,5.87,5.87,0,0,1,4.35-3.52c1.7,0,2.88,1.41,3.47,2.9C230.2,79.91,228.69,80,227.17,80.1Z" fill="#1e1e1e"/><path d="M246,80.28c0-1.44,0-2.91-1-4-1.51-1.61-6.19-1.67-7.15.5a.4.4,0,0,0,.15.56c2.11.91,5.17-1.62,6.13,1.5a8,8,0,0,1,.31,1.75,5.19,5.19,0,0,0-3.22-1.31,4.41,4.41,0,0,0-4.38,3.07,3.71,3.71,0,0,0,2,4.4,5.51,5.51,0,0,0,5.36-.62c0,.34-.06.66-.08,1-.09,1.28,2.07,1.29,2,0C246,84.82,246,82.55,246,80.28ZM244,84.79a8.71,8.71,0,0,1-3.66.36,1.81,1.81,0,0,1-1.38-2.68,2.87,2.87,0,0,1,3.26-1.17,11.63,11.63,0,0,1,2.34,1.09c0,.81-.08,1.62-.16,2.42A.54.54,0,0,0,244,84.79Z" fill="#1e1e1e"/><path d="M258.64,71.21a42.2,42.2,0,0,0-.31,5.44,5.3,5.3,0,0,0-4.56-1.35c-2.84.59-4.35,3.28-4.31,6A5.82,5.82,0,0,0,254,87.05,6,6,0,0,0,258.67,86a.76.76,0,0,1,0,.15,1,1,0,0,0,2,0c.11-4.88.4-10.33-.49-15.13C260,70.07,258.74,70.43,258.64,71.21Zm-3.47,14a4.06,4.06,0,0,1-4-4.16c-.08-2.24,1.2-4.37,3.67-4.35,1.54,0,2.44,1,3.52,1.79,0,1.59.11,3.19.19,4.76A4.48,4.48,0,0,1,255.17,85.17Z" fill="#1e1e1e"/><path d="M269.46,75.06a6.45,6.45,0,0,0-5.93,4.26c-1.8,5.35,5.85,10.53,10,6.66.88-.81-.4-2-1.29-1.29-2.38,2-6.29-.07-7-2.82,2.8.4,5.8.08,8.6.09a1,1,0,0,0,.95-1.24C274.28,78.18,272.35,75.13,269.46,75.06Zm-4.32,5.38a3.52,3.52,0,0,1,.29-1c.69-1.44,2.68-2.83,4.36-2.41A4.44,4.44,0,0,1,272.51,80,31.78,31.78,0,0,0,265.14,80.44Z" fill="#1e1e1e"/><path d="M284.49,75.45a3.34,3.34,0,0,0-3.58.51,4.23,4.23,0,0,0-1.17,1.48,1.57,1.57,0,0,0-.09.23,2.2,2.2,0,0,0-1.06-1.79.15.15,0,0,0-.17,0c-1.07,1-.42,2.72-.32,4.07.16,2.13.16,4.26.15,6.4a.89.89,0,0,0,1.77,0,53.23,53.23,0,0,0-.22-6.8c0-.26,0-.55-.05-.84a8.49,8.49,0,0,1,1.84-1.32A4,4,0,0,1,284,77.1.89.89,0,0,0,284.49,75.45Z" fill="#1e1e1e"/><path d="M281.52,186.93a6.29,6.29,0,0,0-5.43,3.8,6.38,6.38,0,0,0-.43,1.72c-.33.27-.42.85,0,1,.35,4,5.27,6.61,9.22,4.5,1-.55.09-2.17-.92-1.57a4.39,4.39,0,0,1-6.63-2.78c1,0,2-.12,3-.17,1.7-.08,3.4-.05,5.1-.17a.91.91,0,0,0,.85-1.12C285.76,189.63,284.5,186.92,281.52,186.93Zm-4.19,5a4.23,4.23,0,0,1,3.09-3.23c2.18-.55,3.52.91,4,2.8A25,25,0,0,0,277.33,191.89Z" fill="#1e1e1e"/><path d="M304.53,186.81c-1.9-.84-4.82.42-6.27,2.19a2.65,2.65,0,0,0-1.05-1.56c-1.57-1-4.16.11-5.62,1.69a2.33,2.33,0,0,0-.95-1.74.2.2,0,0,0-.22,0c-1.14,1-.64,2.79-.62,4.2,0,2.17.1,4.35-.05,6.52-.08,1.18,1.85,1.2,1.86,0,0-2.31.15-4.62,0-6.93V191c.56-.43,1-.95,1.64-1.35a4.08,4.08,0,0,1,1.55-.79c1.23-.16,1.94.77,2.05,2A51,51,0,0,1,297,198c-.07,1.3,2,1.3,2,0a44.87,44.87,0,0,0-.36-6.85c0-.15,0-.31-.05-.48a12.36,12.36,0,0,1,1.87-1.51c.79-.45,2.84-1.31,3.55-.39.56.73.32,3,.33,3.93a20.85,20.85,0,0,1-.38,5,1.14,1.14,0,1,0,2.24.3,57,57,0,0,0-.11-7.73C305.9,189,305.84,187.39,304.53,186.81Z" fill="#1e1e1e"/><path d="M317,187.08a5.41,5.41,0,0,0-5.27,2.62,4.52,4.52,0,0,0-1-2.3.1.1,0,0,0-.16,0c-1.24,1.8-.65,4.26-.62,6.37,0,2.87.06,5.74.08,8.61a1.08,1.08,0,0,0,2.16,0c0-1.33,0-2.65-.06-4a5.62,5.62,0,0,0,5,.66,6.66,6.66,0,0,0,4.16-6.43C321.26,190.14,319.65,187.47,317,187.08Zm2.17,5.87c-.24,3.66-4.18,5.85-6.87,2.9a.83.83,0,0,0-.27-.19c0-.82-.06-1.63-.1-2.45s0-1.58-.08-2.37a6.7,6.7,0,0,1,3.33-2C317.83,188.25,319.32,190.63,319.16,193Z" fill="#1e1e1e"/><path d="M327.82,196.81c-1.27.86-1.35-4.17-1.36-4.47,0-1-.06-2-.1-3a4.59,4.59,0,0,0,1.17,0c1.53-.26.72-2.9-.88-2.1a2.12,2.12,0,0,1-.36.1c0-.39,0-.79-.06-1.18a8.66,8.66,0,0,0-.1-1.25.77.77,0,0,0-.66-.57.43.43,0,0,0,0-.07l0-.16c0-.25-.3-.26-.41-.11a5.3,5.3,0,0,0-.86,3.31,3.05,3.05,0,0,0-1.89.34.39.39,0,0,0-.08.61,3.34,3.34,0,0,0,2,.79c0,.42.06.84.07,1.23a30.72,30.72,0,0,0,.31,6.22c.47,1.93,3,4.11,4.37,1.56C329.49,197.3,328.63,196.26,327.82,196.81Z" fill="#1e1e1e"/><path d="M340.42,187.43c0-.27-.38-.28-.55-.14-2.36,1.85-3,5.51-4,8.78-1.38-2.75-2.57-5.61-4.11-8.27a.84.84,0,0,0-.75-.43c-.1,0-.34,0-.44.08l-.18.17a.86.86,0,0,0-.23.86,84.15,84.15,0,0,0,4.25,9.74,1.06,1.06,0,0,0,.44.47,6.31,6.31,0,0,1-3.66,3.48c-1.21.4-.71,2.29.53,1.93,2.77-.81,4-3,5.07-5.49.85-2.06,1.67-4.13,2.48-6.2C339.93,190.64,340.69,189.31,340.42,187.43Z" fill="#1e1e1e"/><path d="M253.87,149c0-3.3-2.71-4.57-5.51-3.19-3.11,1.54-6.14,5.75-6.1,9.15.56,46.05-.35,58.6-.35,72.6,0,3.91-6.68,8-8,8C223.05,236.16,39.69,238,27,237.11c-5.82-.38-11.73,12.79-5.16,13.22,11.68.78,190.89-1.62,202.36-2.12,9.27-.4,18.07-.67,24.31-8.62,4.69-6,3.33-14.69,3.51-22C252.25,209.94,254.18,174.05,253.87,149Z" opacity="0.2"/><g opacity="0.85"><path d="M242,228.4c-.27,3.18-2.1,7.86-11.05,9.12-.84.12-215-1.61-217.07-1.83a5.31,5.31,0,0,1-4.68-5.8c.05-2.43.17-78,.39-82.86.1-2.19,1-10.8,13.39-10.31,5.23-.16,200.59-1.53,203.62-1.53,16.89,0,15.85,10.16,16,14.14S242.24,225.22,242,228.4Z" fill="#1ab3e2"/></g><path d="M231.28,137.51c-42.74-3.7-208.87-2.49-213.25.26-5,3.13-7.27,8.9-7.57,14.57-.51,9.64-.1,61.63-.12,77.91,0,3.3,2.75,4.55,5.52,3.18,3.14-1.56,5.3-5.77,5.3-9.19,0-14.06.51-70.24.47-74.68l13.62.31c39.66.88,79.23-1.38,118.87-1.59q36.06-.19,72,2.95C231.93,151.73,237.89,138.08,231.28,137.51Z" fill="#fff" opacity="0.2"/><path d="M241.3,139.78c-5-7.27-19.14-6.34-26.65-5.88-7.33.44-14.71-.31-22.08-.24q-68.19.61-136.36,1.28c-5.47.05-10.94.07-16.41.16-6.77.11-13.84-.12-20.55.79-3.14.43-6.47,1.34-8.46,4-2.82,3.79-2,10-2.18,14.45-.87,19.43-.24,38.91-.45,58.35-.05,4.25-.28,8.49-.1,12.74.11,2.62-.12,6.95,1.5,9.21,1.3,1.83,4,2,6,2.24,5.52.57,11.16.5,16.7.72,4.4.18,8.79.16,13.2.17l64.42.17,75,.2,23.52,0c8.42,0,17.14.86,25.44-.49,10.77-1.76,9.15-11.36,9.32-19.87a1,1,0,0,0,0-.17c.19-18.68.81-37.38.76-56.06C243.86,155.27,245.13,145.39,241.3,139.78Zm-7.86,96c-5.77,1-12,.54-17.84.47-1.36,0-2.72,0-4.08,0l-17.78-.07-67.45-.23-68.09-.22L39,235.65c-1.07,0-2.15,0-3.22,0-4.14-.08-8.29-.33-12.43-.5-3.74-.16-10.73.76-12.47-3-1.36-2.94-.79-8.06-.77-11.27,0-2.93.16-5.85.19-8.77,0-3.72,0-7.45,0-11.17q.06-17.1.14-34.2c0-4.14.16-8.24.35-12.38.11-2.42,0-4.92.33-7.32.67-5.2,2.3-7.73,7.17-8.73,6-1.22,12.71-.68,18.83-.86,4-.12,8-.12,12.05-.15q65.54-.61,131.07-1.27l18.38-.19c2.39,0,4.69.39,7.09.51,5.46.27,10.89-.71,16.35-.56,6.79.2,16.74.64,18.92,8.41,1.64,5.85,1,12.9,1,19L242,176.07q-.12,17.34-.23,34.68c0,2.32,0,4.64-.05,6.95a.7.7,0,0,0,0,.14C241.34,225.34,243.27,234.08,233.44,235.81Z" fill="#00a6e8"/><path d="M118.55,190.62a3.46,3.46,0,0,0-2.11-3.19,5.67,5.67,0,0,0-5.68,1.48,2.23,2.23,0,0,0-.91-1.16c-1.71-1.09-4.42.14-6.12,1.72,0-.31,0-.62-.08-.92a.82.82,0,0,0-1.64,0,57.37,57.37,0,0,0,.55,10.32c.16.85,1.34.55,1.41-.19a42.55,42.55,0,0,0-.09-7.48,16.89,16.89,0,0,1,1.59-1.06,4.38,4.38,0,0,1,1.77-.78c.43-.22.83-.09,1.19.4q1.26.17.87,1.26a24.26,24.26,0,0,1-.13,3.29c0,1.34,0,2.69.1,4s2,1.24,1.94,0a60.39,60.39,0,0,1-.24-6.59c0-.13,0-.27,0-.4.53-.44.88-1,1.46-1.47,1.21-.9,3.47-1.06,4.08.5a10.53,10.53,0,0,1,.09,3.32c0,1.39,0,2.77-.05,4.16s2.21,1.36,2.13,0C118.55,195.46,118.82,193,118.55,190.62Z" fill="#1e1e1e"/><path d="M130.16,188.36c-1.82-1.62-6.48-1.08-7.76,1a.69.69,0,0,0,.77,1,10.44,10.44,0,0,1,3.11-.77c1.4-.06,2.7-.1,2.93,1.5.07.49.11,1,.14,1.5-3-2-8.93-1-8,3.31a4.78,4.78,0,0,0,5,3.78,7.79,7.79,0,0,0,3-1,1,1,0,0,0,1.89,0c0-2.17,0-4.34-.1-6.51C131.2,190.87,131.22,189.3,130.16,188.36Zm-3.87,9.29a2.36,2.36,0,0,1-2.46-1.21,1.78,1.78,0,0,1-.32-1.95c1.15-2,4.07-.75,5.92,0,0,.6,0,1.19,0,1.79C128.9,197.08,127.06,197.56,126.29,197.65Z" fill="#1e1e1e"/><path d="M136.61,188a.48.48,0,0,0-.82,0c-.88,1.41-.51,3.16-.48,4.77.05,2-.11,4.09,0,6.11.06,1.05,1.69,1.41,1.93.27a24.9,24.9,0,0,0,.25-6C137.44,191.5,137.67,189.4,136.61,188Z" fill="#1e1e1e"/><path d="M136.33,185.19l.07,0a.94.94,0,0,0,.66-1c0-.08.05-.16.07-.25a.74.74,0,0,0-.52-.91,1.34,1.34,0,0,0-1.29.29,1.13,1.13,0,0,0-.11,1.41A1,1,0,0,0,136.33,185.19Z" fill="#1e1e1e"/><path d="M149,187.76c-1.64-1.19-4.53-.38-6,1.18,0-.25,0-.5-.06-.75-.1-.81-1.45-1.21-1.59-.21a44.18,44.18,0,0,0-.26,5.4,29.72,29.72,0,0,0,.07,5.42.9.9,0,0,0,1.72,0,28,28,0,0,0,.18-5c0-1.05,0-2.1,0-3.16,1.9-.8,5-3.68,5.72.06a22,22,0,0,1-.28,7.23,1.21,1.21,0,1,0,2.38.32C151.15,195.31,151.75,189.78,149,187.76Z" fill="#1e1e1e"/><path d="M479.18,152.59c-1.48,14.62-1.22,74.4-1.1,78.57,0,.79-1.65,4.79-6.84,5-5,.22-76.23.94-87.76.39-5.83-.28-9.69,13.41-3.16,13.72,11.17.54,80.23-.42,95.83-.85,7.61-.2,13.33-7.64,13.15-15.05-.09-3.52-.61-18.28-.54-29.63.29-45.08.87-54.12.9-54.49v-.05c0-.07,0-.16,0-.3C490.68,140.16,479.84,146.08,479.18,152.59Z" opacity="0.2"/><g opacity="0.85"><path d="M477.8,224.78c-.43,2,1.47,9.58-3.3,10.58-1.18.25-98.09,1.85-99.3,1.22-4.4-2.26-6.41-7.8-6.27-10.13.09-1.51.82-81.65,1.16-84.69.16-1.37,1.74-4.95,3.78-6.09,3.74-2.1,97.14-.51,99.22.42a8.26,8.26,0,0,1,4.37,6.12C477.68,144.64,478.23,222.79,477.8,224.78Z" fill="#e85858"/></g><path d="M474.35,138.38c-13.33-4.18-93.8-5-98.76-2.16a12.87,12.87,0,0,0-6.33,9.43c-.12,1.35,1.4,70.29,1.19,82.35-.06,3.32,2.78,4.54,5.51,3.18,3.18-1.57,5.24-5.75,5.3-9.18.23-12.78-.83-25.6-1.17-38.37-.21-7.94.08-31.4.36-35.17,0,0,0-.08,0-.12,1.2,0,10.82.14,14.43.13,7.95,0,15.9-.11,23.85-.16,6.83-.05,13.67-.09,20.5.09,9.23.24,18.72.18,27.61,3C472.89,153.27,479.77,140.08,474.35,138.38Z" fill="#fff" opacity="0.2"/><path d="M478.72,213.79c.06-7.91.26-49,0-61.65-.07-3.92.37-8.08-.87-11.85-1.51-4.59-4.28-5.68-8.86-5.82-5.95-.19-11.88-.46-17.84-.53-16.77-.21-58.17-.18-62.1,0-4.45.2-18.92-2.32-20.22,4.61-.68,3.64-.05,8.46-.11,12.17-.12,7.46-.6,54.05-.77,69.87-.05,3.78-.72,8.49.88,12,2.77,6.08,12.58,5.33,18.29,5.34,17.37,0,34.73-.24,52.1-.45,6.28-.07,12.57-.09,18.85-.25,4.13-.11,8.25-.38,12.37-.67,2.5-.18,5.44,0,7.06-2.26,2-2.78.72-6.51,1-9.62a.53.53,0,0,0,0-.13C479,221.05,478.7,217.28,478.72,213.79Zm-5.62,20.69c-3.77,1-61.15,1.25-77.71,1.33-6.08,0-12.18.28-18.21-.71-5.16-.85-7.14-3.11-7.2-8.59,0-1.35,0-2.71.06-4.06q.25-20.1.49-40.2c.15-12.78.2-25.57.6-38.35a24,24,0,0,1,.07-3.18c1.16-6.62,11.38-4.2,16.4-4.41,3-.14,6.15-.23,9.25-.24q21.66,0,43.31.05c6.58,0,13.16.07,19.73.24,1.78,0,3.55.15,5.32.24,4.51.23,9.13-.56,10.71,4.92.84,2.92.46,6.09.53,9.1.27,11.8.68,52.37.73,60.86,0,4.11.58,8.78,0,12.86a.39.39,0,0,0-.05.13C476.54,228.44,478.29,233.13,473.1,234.48Z" fill="#c93d3d"/><path d="M389.88,192.41c-1.06-.23-3.69-.54-2.49-2.8.47-.89,1.81-1.09,2.71-1.05,1.36.05,1.91,1.14,3.13,1.26a.51.51,0,0,0,.42-.24l.15-.26a.94.94,0,0,0,0-1c-2-2.88-8.07-2.41-8.24,1.65-.08,1.86,1.26,3.07,2.88,3.66s5.37,1.07,3.13,3.81c-1.45,1.78-4,.89-5.2-.66-.59-.76-1.8.37-1.08,1.08,2.43,2.42,9.33,2.75,9-2.14C394.12,193.43,391.74,192.81,389.88,192.41Z" fill="#1e1e1e"/><path d="M397.74,188.05a22.07,22.07,0,0,0-.06,5.14c0,1.94,0,3.87,0,5.81a.93.93,0,0,0,1.86,0c.3-3.25.67-7.89-.61-10.95C398.7,187.56,397.88,187.4,397.74,188.05Z" fill="#1e1e1e"/><path d="M398.21,183.37a1.65,1.65,0,0,0-.64,1.23,1.06,1.06,0,0,0,.92,1.05,1.08,1.08,0,0,0,1.17-.76,3.74,3.74,0,0,0,.12-.45,1,1,0,0,0,.06-.39A1,1,0,0,0,398.21,183.37Z" fill="#1e1e1e"/><path d="M413.34,198.27a1.11,1.11,0,0,0-.46-.33c.67.05.47-6.63.48-7.46a40.19,40.19,0,0,0-.3-7.11.64.64,0,0,0-1.23,0,29.81,29.81,0,0,0-.38,5.43,5.42,5.42,0,0,0-4.3-1.64c-2.49.45-4,3.2-4.27,5.49s.46,6.07,3,7.12c1.74.74,4-.57,5.4-2.07a4.71,4.71,0,0,0,.42,1.65,1,1,0,0,0,1.52.19l.08-.09a.91.91,0,0,0,.14-1.09Zm-5.2-.52c-3.16,1.27-3.95-3.5-3.61-5.29s1.9-4.05,4.06-3.31a16.47,16.47,0,0,1,2.88,1.86c0,.4,0,.8,0,1.2,0,.89-.14,2-.21,3.14C410.09,195.93,409.33,197.27,408.14,197.75Z" fill="#1e1e1e"/><path d="M422.5,187.44a5.44,5.44,0,0,0-5.73,3.41,7.62,7.62,0,0,0,2.07,7.41c2.24,2,5.68,1.35,8,0,1.14-.66.08-2.46-1-1.75-1.93,1.24-4.9,2.09-6.49-.17a6.63,6.63,0,0,1-1-2.26c2.77.58,5.9.32,8.67.23.55,0,1.17-.61.92-1.2C426.8,190.3,425.87,187.67,422.5,187.44Zm-4.27,5.08a3.9,3.9,0,0,1,.2-1.09c.62-1.7,2.4-2.25,4.07-2.07s2.49,1.6,3.12,3A64.93,64.93,0,0,0,418.23,192.52Z" fill="#1e1e1e"/><path d="M438,187.5a6.27,6.27,0,0,0-4.93,2.05c0-2.07,0-4.24-1-6.06a.25.25,0,0,0-.45.06c-1,2.32-.55,5.16-.51,7.64s-.2,5.26.33,7.79a.82.82,0,0,0,1.57,0c.07-.37.13-.75.17-1.13a4.72,4.72,0,0,0,6,.68,7.36,7.36,0,0,0,3-6.41C442,189.72,440.58,187.68,438,187.5Zm.81,8.77a3.19,3.19,0,0,1-2.93,1.17c-.92-.15-1.66-1.12-2.46-1.58l-.11,0c0-1.51-.1-3-.18-4.52a7.53,7.53,0,0,1,3.14-1.74c2.19-.48,3.79.57,3.89,2.84A5.69,5.69,0,0,1,438.85,196.27Z" fill="#1e1e1e"/><path d="M453.23,188.84c-1.59-2.12-5.39-1.19-7.23,0a.7.7,0,0,0,.54,1.28c1.09-.19,2.39-.81,3.51-.7,1.91.19,2.14,1.46,2.25,3.12v.17a5.94,5.94,0,0,0-4.15-.92,3.55,3.55,0,0,0-3.34,4c.29,4.18,4.8,4.52,7.7,2.7,0,.12,0,.24,0,.35,0,1.3,2.09,1.28,2,0-.14-2-.24-3.94-.36-5.91C454.08,191.58,454.09,190,453.23,188.84Zm-3.33,8.87c-1.69.42-3.42-.48-3.34-2.38.08-1.68,2.13-1.87,3.4-1.59.84.19,1.61.56,2.43.81,0,.57.05,1.15.07,1.72A6.42,6.42,0,0,1,449.9,197.71Z" fill="#1e1e1e"/><path d="M464.62,188.87c-.05-.08-.1-.16-.14-.24a1.09,1.09,0,0,0-1.2-.49,5.34,5.34,0,0,0-2.51,1.2,4,4,0,0,0-.35.37,5.32,5.32,0,0,0-.65-1.76.46.46,0,0,0-.83.11c-.62,1.52-.34,3.38-.34,5,0,1.9-.18,3.83,0,5.71.09,1,1.74,1.45,2,.26a27.7,27.7,0,0,0,.15-6c0-.45,0-.93-.06-1.42a5.78,5.78,0,0,1,2.63-1.36C464.11,190.65,465.22,189.86,464.62,188.87Z" fill="#1e1e1e"/><path d="M488.66,261.53c-.19-3.25-2.61-4.62-5.51-3.18a10.84,10.84,0,0,0-5.3,9.18c1.27,21.38,1,60.87.89,66-.07,2.42-3.59,4.35-6.85,7-9.78.95-423,2.28-444.39,1.85-5.84-.12-11.63,13.59-5.16,13.72,37.93.77,316.08-.94,354-1.08,22.75-.08,42,.76,64.73.69,13.36,0,27.27,0,40.47-1.87,3.53-.5,6.26-6.65,7-9.58C489.89,339.15,490,283.29,488.66,261.53Z" opacity="0.2"/><g opacity="0.85"><path d="M11.26,248.26c1.22-2,1.38-1.82,4.34-1.88,8.41-.15,437.6.07,445.68,0,19-.12,17.22,7.68,17.08,10-.09,1.51.17,75.56-.17,78.6-.15,1.36-2.81,7.06-16.29,6.42-8.25.1-437.91,1.63-440,.7-11.45-1.57-12.46-5.57-12.68-8.05S7.44,251,11.26,248.26Z" fill="#5bbb5d"/></g><path d="M472.37,248.49c-4.87-2.48-160.34-3.91-196.51-4-39.26-.13-176.07.77-205.19,1.94-16.55.67-37.06,3.46-49.2-.1a9.5,9.5,0,0,0-12.29,9.22c0,1.92,0,70.84.06,78.57,0,3.3,4.07,7.6,6.85,6.22,3.13-1.55,5.32-4.28,5.3-7.69-.07-14.53-.42-69.68-.44-72.18a53.36,53.36,0,0,0,8.52,1.24c7.27.51,28.12-1.19,31.3-1.35,10-.47,89.44-1.89,119.18-2.06,66.56-.36,133.14-.31,199.68,1,12.5.25,70.84,4.2,87.58,3.93C472.53,263.13,479.43,249.67,472.37,248.49Z" fill="#fff" opacity="0.2"/><path d="M479.88,313.89q-.11-18.67-.3-37.35c-.06-7.36.64-15.16-.2-22.48-1.06-9.29-11.84-8.64-19.13-8.75-25.6-.4-51.23-.09-76.84-.11l-145.65-.13q-71.14,0-142.3,0c-22.56,0-45.28-.73-67.84.19-4.74.2-10.55-.31-15.14,1-5.13,1.46-3.39,7.46-3.82,11.38a.37.37,0,0,0,0,.15c-1.12,7.18-.38,15.08-.48,22.29q-.24,18-.39,36.09c-.06,6.82-2,19.52,4,23.82,4.23,3.05,10.8,3.2,15.9,3.39,6.07.23,12.15.27,18.22.32,24.88.21,49.77,0,74.65,0q68.75-.11,137.49-.4,72-.22,144.05-.47l46.2-.16c8.09,0,27,2.3,30.37-6C481.32,330,479.91,320.74,479.88,313.89Zm-2.24,13.4c0,4.6,0,9.52-4.95,11.51-4.71,1.89-10.15,1.51-15.18,1.53l-33.92.12-129.89.41q-71.47.24-142.95.49-36.93.12-73.87.37-11.14.09-22.28.08c-11.34,0-23.56,1.08-34.77-1.05a22.74,22.74,0,0,1-5.27-1.32c-4.63-2.11-4.53-6.06-4.87-10.24-.11-1.45-.25-2.89-.28-4.35-.07-3.4,0-6.81.05-10.2q.09-17.53.24-35.07c.07-7-.76-14.82.38-21.78h0a1,1,0,0,0,.06-.18c.4-3.19-1.19-8.15,2.78-9.79,2.23-.92,6.08-.38,8.47-.48,3.14-.14,6.29-.33,9.43-.37,2.51,0,5,0,7.53,0q18,0,36,0,64,.09,128,.12,73.35.06,146.69.15,50.21.08,100.41.17l9.83,0c.64,0,1.28,0,1.92,0a75.64,75.64,0,0,1,8.5.79c1.34.19,3.58.25,4.81.92,2.56,1.39,2.71,4.77,2.77,7.28.44,19.41.3,38.87.37,58.28C477.65,318.93,477.68,323.11,477.64,327.29Z" fill="#3aaf3a"/><path d="M216,289.49a13.72,13.72,0,0,0-.26,1.94,6.52,6.52,0,0,0-1.93.26.74.74,0,0,0-.18,1.34,5.35,5.35,0,0,0,2,.6c0,.74,0,1.47,0,2.17a34.25,34.25,0,0,0,.21,7.09c.21,1.1,1.72.72,1.81-.24.14-1.49-.42-5.49-.29-8.86a4.4,4.4,0,0,0,2.42-.37,1.09,1.09,0,0,0-.26-2,4.4,4.4,0,0,0-1.89-.14c.34-1.66,1-2.81,2.4-2.81a.71.71,0,0,0,.49-1.2C218.8,285.18,216.47,287.48,216,289.49Z" fill="#1e1e1e"/><path d="M231.38,292.92a.77.77,0,0,0-.26-.07c-1.81-2.76-6.18-1.85-8.09.4a6.59,6.59,0,0,0,.2,8.62,6.15,6.15,0,0,0,8.45.22C233.83,300,234.51,294.55,231.38,292.92Zm-.68,7.37a4.43,4.43,0,0,1-5.87.54,4.56,4.56,0,0,1-1.06-5.9c1.57-2.58,4.15-2.3,6.47-1.29a.5.5,0,0,0,0,.13c.33.91,1,1.61,1.3,2.53A4.1,4.1,0,0,1,230.7,300.29Z" fill="#1e1e1e"/><path d="M245.74,293.36a.85.85,0,0,0-.12-.26,5.07,5.07,0,0,0-7.78-.42,6.85,6.85,0,0,0-.29,9,5.74,5.74,0,0,0,8.3.67C248,300.27,248.35,295.24,245.74,293.36Zm-.89,7.57a4.17,4.17,0,0,1-6-.4c-3.22-3.76,1.26-9.83,5.5-6.46a.72.72,0,0,0,.32.15s0,.06,0,.08C245.68,296.3,246.67,299.11,244.85,300.93Z" fill="#1e1e1e"/><path d="M252.81,293.34a11.91,11.91,0,0,0,2.47-.29c1.17-.27,1-2.27-.29-2.13l-2,.24a3.61,3.61,0,0,0-.84-2.67.18.18,0,0,0-.24,0,3.54,3.54,0,0,0-1.12,2.73,3.13,3.13,0,0,0-1.68.35.67.67,0,0,0-.14,1.05,2.81,2.81,0,0,0,1.83.7c0,.19,0,.38,0,.57,0,2.21-.27,4.8.29,7,.5,2,3.18,4.12,4.63,1.73a.84.84,0,0,0-.93-1.22c-2.83.78-2-5.94-2-7.47C252.79,293.71,252.8,293.53,252.81,293.34Z" fill="#1e1e1e"/><path d="M264,291.65c-2.62-.24-5.87,1.35-6.48,4.07-1.32,5.85,5.78,10.67,10.22,6.07a1,1,0,0,0-1.37-1.37c-2.79,2.45-7,1.17-7.39-2.61,2.93.31,6,.07,8.92.15a1,1,0,0,0,1-1A5.29,5.29,0,0,0,264,291.65Zm-4.9,4.53c.95-3.65,6.47-3.84,7.64-.18A40.56,40.56,0,0,0,259.05,296.18Z" fill="#1e1e1e"/><path d="M277.66,291.07a5.56,5.56,0,0,1-.83.08,3,3,0,0,0-1,.42,10.18,10.18,0,0,0-1.53,1.25,6.18,6.18,0,0,0-.68.73c-.1-.47-.21-.92-.34-1.35a.7.7,0,0,0-.51-.51l-.16,0a.56.56,0,0,0-.61.25c-.54,1.23,0,3.06.1,4.35.12,2.07-.1,4.15,0,6.22a1,1,0,0,0,1.93,0,27.49,27.49,0,0,0-.06-6.71c.55-.43,1.06-1.08,1.56-1.48a6.7,6.7,0,0,1,1.32-.93c.45-.19.92-.05,1.38-.22C279.5,292.65,278.94,290.57,277.66,291.07Z" fill="#1e1e1e"/></svg>