<svg xmlns="http://www.w3.org/2000/svg" viewBox="0 0 375 255"><path d="M369.36 37.54c.12-4.71 18.11-22.1-100.86-12.7C206.87 14.4 83.71 31.74 46 23.63c-10.81-5.29-47.95-5.09-40.39 29-4.2 29.57 1.94 53.89.24 118.76 8 32.94-7.8 37.85 2 58.8 19.73 1.86 38.72-1.48 58.46.18s164.07 9.92 244.61.78c59.6 10.18 51.44-1.54 58-16.1 6.08-43.05-7.58-46.18.44-177.51z" fill="#c9c9c9"/><path d="M370.43 209.25c-3.52-9.2-1-69.81-1.1-71-.56-8.09-6.31-9.81-13.34-10.32-11.73-.85-83-1.18-107 1-23.38 2.17-203.38-3.35-229.92-1.39-7.09.52-19 9.11-12.68 27.08-.94 3.11-.4 69 2.3 75 2.77 6.18 8.68 5.53 14.35 5 6.35-.57 69.08-4.89 94.13-5.4 25.7-.52 158.48 9.5 237.73 2.58 5.1-.07 17.71-8.07 15.53-22.55z" fill="#ffdb00"/><path d="M127.61 21.93c-1.55 22.51-1.16 106-1.13 125 0 24.3.77 81.72.83 84.74a1.28 1.28 0 0 0 2.56 0c-1-44.68.69-184.6-.31-209.7a1 1 0 0 0-2 0z" fill="#1e1e1e"/><path d="M365.38 125.39c-53.1-1.52-345.47 1.32-356.74 1.44a1.26 1.26 0 0 0 0 2.51c32-.32 216.83-1.78 277.28-1.94 26.49-.07 53 .12 79.46-.09a1 1 0 0 0 0-1.92z" fill="#1e1e1e"/><path d="M369.67 212.87c.07-5.36-.32-165.83-.33-172.13 0-6.79 2.15-17.5-6.86-18.81-10.7-1.55-22-1-32.81-1-17.22 0-300 0-303.45.09-6.44.1-16.62-.87-18.21 7.41a.69.69 0 0 0 0 .25c-1.1 12.16-.22 24.81-.28 37-.12 24.84-.58 144.76-.57 148.55 0 4.46-.67 10.12 1.34 14.25 1 2 2.26 2.53 4.37 3.05a70.39 70.39 0 0 0 15.84 1.78c28.12.3 290.39-.47 318.11-1.14 6.56-.16 19.77 1.91 22.05-6.53 1.06-3.9.74-8.64.8-12.77zm-2.25 1c-.21 7 .06 14.93-8.89 15.7-5.68.48-22.71.48-25.45.49l-301.65 1a86.58 86.58 0 0 1-16.55-1.41c-5.55-1-5.41-5.76-5.52-10.53v-5.9c-.08-14.35-.13-130.9 0-174.83 0-3.14-.19-6.39.07-9.52v-.05c1.86-9 19.49-6 26.29-5.95l305.83.13c5.91 0 20.88.72 22.11 1.2 3.91 1.55 3.8 6.43 3.7 9.92 0 1.49.74 140.11.06 178.87-.01.33.01.62 0 .9z" fill="#1e1e1e"/><path d="M247.3 24.43c-1.1 22.4-.1 45.08-.11 67.51 0 18.66-.69 135-.73 137.8a1.28 1.28 0 0 0 2.56 0c.62-42.4 1.7-180.43.23-205.31a1 1 0 0 0-1.95 0z" fill="#1e1e1e"/></svg>