<svg xmlns="http://www.w3.org/2000/svg" viewBox="0 0 490 410"><path d="M395.19 309.37c7.27-6.43 2.13-96.24 1.25-101.08 1.52-27.42-.45-149.11-.09-150.47 1.16-4.43 1.46-12.23-4.82-12.83-50.31-4.8-148.43-1.25-174-1.2-24.93.05-132.51-3.86-161.38-3C49.13 41 38.54 48.21 42 66.55c-4.56 40.35 5.84 117.82-1 183-4.25 60-.88 84.78 3.76 94.54 5.14 17 42.61 9.39 47.13 8.94-.33 4.25.49 8.68 5.36 8.43 88.24-4.63 123.59-6.16 212-6.54q37.59-.15 75.18.2c10 .09 17.61-13.68 15.47-22.67q-2.76-11.45-4.71-23.08z" fill="#fff"/><path d="M397 332.4c0-6-1.41-260.81-1.45-267.44 0-6.43 2.25-15.55-3.53-19.65-3.87-2.75-9.79-2-14.24-2.09-3.61-.1-25.75-.29-31.68-.29-51.72 0-282.77 0-288.57.23-3.79.16-8.63.16-11.64 2.87-3.38 3-2.28 7.18-2.4 11.25a.78.78 0 0 0 0 .22c-.08 36-.3 72-.45 108-.21 51.22-.66 164-.63 169.16 0 3.16.17 6.32.43 9.47.82 9.76 9.52 10.35 17.81 11 9.17.7 44.23.21 50.6.18 52.93-.19 242.94-.92 249.4-.95 9.33 0 19.32 1 28.39-1.05 9.6-2.18 7.96-12.9 7.96-20.91zm-3 8.33c-.32 4.62-.37 8.81-5.67 10-6.39 1.46-13.64.74-20.17.86-3.74.08-48 .24-66.34.31-54.23.19-212.61.84-213.67.81-9.72-.27-19.6.52-29.29-.41-2.91-.28-6.23-.45-9-1.52-4.52-1.74-4.33-5.63-4.56-9.66-.09-1.79-.23-3.57-.27-5.36 0-1.23.11-275.79.11-278.35a.94.94 0 0 0 0-.16c.19-4.57-1-8.75 4.21-11 3-1.3 6.77-1 10-1.08 5-.09 28.37 0 33.73 0 21.53 0 281.66.34 285.56.44s9.7-.7 12.67 2.21 1.79 8.74 1.74 12.54c0 2.76 1.08 230.66 1.29 272.67 0 .97-.22 6.03-.34 7.7z" fill="#1e1e1e"/><path d="M90.27 43.26C89 68 89.47 92.8 89.34 117.51q-.21 39.92-.15 79.83.06 65.21.5 130.4c.06 8.44.2 16.89.28 25.33a1.28 1.28 0 0 0 2.56 0c-.22-24.22-.29-48.45-.43-72.66q-.42-76.59-.29-153.18c.07-28 1-56 .41-84a1 1 0 0 0-2 0zM146.68 44.08c-.72 24.55-.07 49.19-.09 73.75q0 40.3-.13 80.6-.18 64.62-.53 129.25c-.05 8.46 0 16.93-.05 25.39a1.28 1.28 0 0 0 2.55 0c.14-24.27.32-48.55.4-72.82q.27-76 .27-152c0-28 .66-56.18-.47-84.18a1 1 0 0 0-1.95 0zM291.37 44.08c-.73 24.72-.07 49.54-.09 74.28q0 39.93-.13 79.87-.18 65.25-.53 130.49c-.05 8.45 0 16.9-.05 25.35a1.28 1.28 0 0 0 2.56 0c.13-24.24.31-48.48.39-72.72q.27-76.64.27-153.27c0-28 .65-56.06-.47-84a1 1 0 0 0-1.95 0zM349 44.08c-1 24.78-.41 49.69-.46 74.49q-.09 40.07-.08 80.12 0 64.53.1 129.06c0 8.44.12 16.88.14 25.32a1.28 1.28 0 0 0 2.56 0c-.06-24 0-48-.08-72q-.15-76-.14-151.93c0-28.33.78-56.76-.09-85.07a1 1 0 0 0-1.95 0z" fill="#1e1e1e"/><path d="M394.57 109.42c-51.7-1.53-103.56-.56-155.28-.43q-80.43.2-160.85.66l-33.73.2a1.26 1.26 0 0 0 0 2.52q47.45-.3 94.89-.51 88.86-.44 177.73-.55c25.74 0 51.5.23 77.24 0a1 1 0 0 0 0-1.92zM396.07 220.43c-53.09.73-106.16 1.3-159.26 1.29s-106.22-.23-159.34-.61l-32.76-.24a1.26 1.26 0 0 0 0 2.51q46.5.41 93 .59c59.33.27 118.65.39 178-.06 26.79-.21 53.64-.19 80.39-1.56a1 1 0 0 0 0-1.92zM361.2 19.75c-1.46 1.91-2.59 4.1-4.05 6a.56.56 0 0 0 .49.84c1.85-.12 3.7-.07 5.55-.17a.65.65 0 0 0 0-1.3 44.83 44.83 0 0 0-5.55.35l.49.84a28.08 28.08 0 0 0 4-6.21c.24-.58-.6-.8-.92-.39z" fill="#1e1e1e"/><path d="M361.27 19.81a58 58 0 0 0-.27 9 .63.63 0 0 0 1.25 0c-.05-3 .2-6 0-8.92 0-.5-.86-.7-1-.12zM369.44 19.57c-4.6-1.62-6.17 8.22-2 9.58 2.34.77 3.89-.63 4.23-2.87.29-1.86.41-5.49-1.7-6.42a.57.57 0 0 0-.57 1c1.09.75 1.18 2.56 1.19 3.71a4.92 4.92 0 0 1-.18 2c-.34.77-1.38 2-2.38 1.56a3.92 3.92 0 0 1-1.59-2.1 5 5 0 0 1-.1-2.07c.2-1.71 1-3.39 3-3.36.58 0 .64-.79.13-1zM373.93 22.45a13.93 13.93 0 0 0-.13 4c0 1.51 0 3-.06 4.54 0 .82 1.23.81 1.27 0 .08-1.62.09-3.25.05-4.87a10 10 0 0 0-.48-3.74c-.12-.3-.57-.18-.65.09z" fill="#1e1e1e"/><path d="M375 24.76a3.64 3.64 0 0 1 2-1.41c1.25-.15 1.86 1 1.87 2.14a3.84 3.84 0 0 1-.49 2.15c-.81 1.21-2.23.53-2.83-.46a.63.63 0 0 0-1.08.64 3.11 3.11 0 0 0 3.61 1.62c1.54-.5 2.06-2.29 2.06-3.75a3.46 3.46 0 0 0-2.22-3.51c-1.67-.5-2.81.78-3.46 2.14-.17.35.26.76.57.44zM381.12 22.61a6.39 6.39 0 0 0 1.81 3.18c1 1.18 2.1 2.31 3.18 3.44.59.61 1.51-.31.94-.94-1-1-1.95-2.05-2.92-3.09-.81-.88-1.39-2.36-2.47-2.9-.22-.11-.57 0-.54.31z" fill="#1e1e1e"/><path d="M386.09 22.17c-2.23 1.35-4 4.11-5.3 6.29-.45.74.76 1.44 1.15.67a18.27 18.27 0 0 1 2.42-3.51 17.76 17.76 0 0 0 2.33-2.86.44.44 0 0 0-.6-.59z" fill="#1e1e1e"/><path d="M289.94 32.81c0 1.62-.1 3.24-.11 4.87a.4.4 0 0 0 .8 0c0-1.63.08-3.25.11-4.87a.4.4 0 0 0-.8 0zM290 25v4.18a.4.4 0 0 0 .8 0V25a.4.4 0 0 0-.8 0zM149.51 32.81c0 1.79-.1 3.58-.11 5.37a.4.4 0 0 0 .8 0c0-1.79.08-3.58.11-5.37a.4.4 0 0 0-.8 0zM149.57 25v4.68a.4.4 0 0 0 .8 0V25a.4.4 0 0 0-.8 0z" fill="#757575"/><path d="M155.34 24.74c-1.79 0-3.58-.1-5.38-.11a.4.4 0 0 0 0 .8c1.8 0 3.59.08 5.38.11a.4.4 0 0 0 0-.8zM163.19 24.8h-4.67a.4.4 0 0 0 0 .8h4.67a.4.4 0 0 0 0-.8zM172.25 24.72c-1.79 0-3.59 0-5.38.06a.4.4 0 0 0 0 .8c1.79 0 3.59 0 5.38-.06a.4.4 0 0 0 0-.8zM180.8 24.55l-4.68.09a.4.4 0 0 0 0 .8l4.68-.09a.4.4 0 0 0 0-.8zM189.92 24.74c-1.79 0-3.58-.1-5.37-.11a.4.4 0 0 0 0 .8c1.79 0 3.58.08 5.37.11a.4.4 0 0 0 0-.8zM197.78 24.8h-4.68a.4.4 0 0 0 0 .8h4.68a.4.4 0 0 0 0-.8zM246.32 24.55l-4.68.09a.4.4 0 0 0 0 .8l4.68-.09a.4.4 0 0 0 0-.8zM255.44 24.74c-1.79 0-3.58-.1-5.37-.11a.4.4 0 0 0 0 .8c1.79 0 3.58.08 5.37.11a.4.4 0 0 0 0-.8zM263.3 24.8h-4.68a.4.4 0 0 0 0 .8h4.68a.4.4 0 0 0 0-.8zM290.27 24.64h-4.68a.4.4 0 0 0 0 .8h4.68a.4.4 0 0 0 0-.8zM346.73 32.81c0 1.62-.1 3.24-.11 4.87a.4.4 0 0 0 .8 0c0-1.63.08-3.25.11-4.87a.4.4 0 0 0-.8 0zM346.79 25v4.18a.4.4 0 0 0 .8 0V25a.4.4 0 0 0-.8 0z" fill="#757575"/><path d="M347.06 24.64h-4.68a.4.4 0 0 0 0 .8h4.68a.4.4 0 0 0 0-.8zM272.35 24.72c-1.79 0-3.58 0-5.38.06a.4.4 0 0 0 0 .8c1.8 0 3.59 0 5.38-.06a.4.4 0 0 0 0-.8zM280.9 24.55l-4.68.09a.4.4 0 0 0 0 .8l4.68-.09a.4.4 0 0 0 0-.8zM294.46 32.81c0 1.62.1 3.24.11 4.87a.4.4 0 0 0 .8 0c0-1.63-.08-3.25-.11-4.87a.4.4 0 0 0-.8 0zM294.4 25v4.18a.4.4 0 0 0 .8 0V25a.4.4 0 0 0-.8 0z" fill="#757575"/><path d="M294.93 25.44h4.68a.4.4 0 0 0 0-.8h-4.68a.4.4 0 0 0 0 .8zM351.16 32.81c0 1.62.1 3.24.11 4.87a.4.4 0 0 0 .8 0c0-1.63-.08-3.25-.11-4.87a.4.4 0 0 0-.8 0zM351.1 25v4.18a.4.4 0 0 0 .8 0V25a.4.4 0 0 0-.8 0z" fill="#757575"/><path d="M351.63 25.44h2.18a.4.4 0 0 0 0-.8h-2.18a.4.4 0 0 0 0 .8zM391.89 32.81c0 1.62-.1 3.24-.11 4.87a.4.4 0 0 0 .8 0c0-1.63.08-3.25.11-4.87a.4.4 0 0 0-.8 0zM392 25v4.18a.4.4 0 0 0 .8 0V25a.4.4 0 0 0-.8 0z" fill="#757575"/><path d="M392.22 24.64H390a.4.4 0 0 0 0 .8h2.18a.4.4 0 0 0 0-.8z" fill="#757575"/><path d="M311.34 19.23c-1.48 0-2.95 0-4.44-.05a.63.63 0 0 0-.61.61 23.32 23.32 0 0 0 .14 4.42.66.66 0 0 0 1 .55 4.9 4.9 0 0 1 2.53-.56 1.58 1.58 0 0 1 .83 2.54c-1 1.56-2.89 1-3.82-.21-.55-.69-1.56.3-1 1 1.79 2.15 5.45 1.86 6.28-1.05a2.93 2.93 0 0 0-.85-3.09c-1.29-1-3.32-.3-4.62.28l.93.38a21.57 21.57 0 0 1-.16-4.25l-.62.62a36.54 36.54 0 0 0 4.44 0c.78-.05.79-1.23 0-1.21zM319.46 20.57c0-2.35-3.61-1.36-4.63-.22-1.66 1.86-1.21 5.49.18 7.36 1.26 1.7 3.66 2 4.91.12a7.16 7.16 0 0 0-.28-7.67c-.48-.63-1.57 0-1.09.64a5.43 5.43 0 0 1 1 3.38c0 1.48-.59 4.59-2.86 3.46-1.3-.65-1.69-2.81-1.67-4.07a4.08 4.08 0 0 1 .32-1.74c.34-.69 2.43-2.42 3.34-1.06a.4.4 0 0 0 .75-.2zM322.68 22.33a58.28 58.28 0 0 0-.38 8.77c0 1.09 1.76.73 1.38-.19l-.08-.21a.61.61 0 0 0-1.09-.14l-.11.19 1.31.35a59.19 59.19 0 0 0 0-8.63c-.08-.53-.94-.8-1.05-.14z" fill="#1e1e1e"/><path d="M323.5 25.48a5.55 5.55 0 0 1 1.62-2.09 2 2 0 0 1 1.65-.41c.66.28.69 1 .75 1.57.09 1 .09 2.5-1 2.94a2.07 2.07 0 0 1-2.35-1c-.37-.83-1.59-.11-1.22.72a3.5 3.5 0 0 0 3.9 1.65c2-.62 2.21-2.88 2-4.62s-1.18-2.87-2.94-2.48a3.91 3.91 0 0 0-3.07 3.51.39.39 0 0 0 .72.19zM329.65 22.46c1.33 2.25 3.43 4.22 5.14 6.19.73.85 2-.63 1-1.25h-.07a.65.65 0 0 0-.66 0h-.08l1 .12c-1.76-1.92-3.46-4.2-5.54-5.79-.44-.33-1 .31-.73.73z" fill="#1e1e1e"/><path d="M334.29 22.08a55.19 55.19 0 0 0-4.61 5.81l1.24.52v-.18a.64.64 0 0 0-1-.55l-.14.1a.72.72 0 1 0 1 1 56.65 56.65 0 0 0 4.39-6 .59.59 0 0 0-.92-.71zM56.31 19.75c-1.47 1.91-2.59 4.1-4.05 6a.56.56 0 0 0 .49.84c1.85-.12 3.7-.07 5.55-.17a.65.65 0 0 0 0-1.3 44.83 44.83 0 0 0-5.55.35l.48.84a28.13 28.13 0 0 0 4-6.21c.23-.58-.61-.8-.92-.39z" fill="#1e1e1e"/><path d="M56.38 19.81a56.81 56.81 0 0 0-.27 9 .62.62 0 0 0 1.24 0c0-3 .2-6 0-8.92 0-.5-.85-.7-.94-.12zM64.55 19.57c-4.6-1.62-6.17 8.22-2 9.58 2.34.77 3.89-.63 4.23-2.87.29-1.86.4-5.49-1.7-6.42a.57.57 0 0 0-.57 1c1.09.75 1.18 2.56 1.19 3.71a5.1 5.1 0 0 1-.18 2c-.34.77-1.38 2-2.38 1.56a4 4 0 0 1-1.6-2.1 5.15 5.15 0 0 1-.09-2.07c.2-1.71 1-3.39 3-3.36.58 0 .64-.79.13-1zM69 22.45a13.93 13.93 0 0 0-.13 4c0 1.51 0 3-.06 4.54 0 .82 1.23.81 1.27 0 .08-1.62.09-3.25 0-4.87a9.81 9.81 0 0 0-.47-3.74c-.13-.3-.57-.18-.65.09z" fill="#1e1e1e"/><path d="M70.11 24.76c.56-.58 1.15-1.31 2-1.41 1.25-.15 1.86 1 1.88 2.14a4 4 0 0 1-.49 2.15c-.82 1.21-2.24.53-2.83-.46a.63.63 0 0 0-1.09.64 3.12 3.12 0 0 0 3.61 1.62c1.55-.5 2.06-2.29 2.07-3.75A3.46 3.46 0 0 0 73 22.18c-1.67-.5-2.82.78-3.47 2.14-.16.35.27.76.57.44zM76.23 22.61A6.39 6.39 0 0 0 78 25.79c1 1.18 2.1 2.31 3.18 3.44.59.61 1.51-.31.93-.94-1-1-2-2.05-2.91-3.09-.81-.88-1.39-2.36-2.47-2.9-.22-.11-.57 0-.54.31z" fill="#1e1e1e"/><path d="M81.2 22.17c-2.23 1.35-4 4.11-5.3 6.29-.45.74.76 1.44 1.15.67a18.22 18.22 0 0 1 2.41-3.51 16.75 16.75 0 0 0 2.33-2.86.43.43 0 0 0-.59-.59z" fill="#1e1e1e"/><path d="M144.29 32.81c0 1.62-.1 3.24-.11 4.87a.4.4 0 0 0 .8 0c0-1.63.08-3.25.11-4.87a.4.4 0 0 0-.8 0zM144.35 25v4.18a.4.4 0 0 0 .8 0V25a.4.4 0 0 0-.8 0z" fill="#757575"/><path d="M144.62 24.64h-4.68a.4.4 0 0 0 0 .8h4.68a.4.4 0 0 0 0-.8zM92 32.81c0 1.62.1 3.24.11 4.87a.4.4 0 0 0 .8 0c0-1.63-.08-3.25-.11-4.87a.4.4 0 0 0-.8 0zM92 25v4.18a.4.4 0 0 0 .8 0V25a.4.4 0 0 0-.8 0z" fill="#757575"/><path d="M92.49 25.44h4.68a.4.4 0 0 0 0-.8h-4.68a.4.4 0 0 0 0 .8zM46.27 32.81c0 1.62.1 3.24.1 4.87a.4.4 0 0 0 .8 0c0-1.63-.07-3.25-.1-4.87a.4.4 0 0 0-.8 0zM46.21 25v4.18a.4.4 0 0 0 .8 0V25a.4.4 0 0 0-.8 0z" fill="#757575"/><path d="M46.74 25.44h2.18a.4.4 0 0 0 0-.8h-2.18a.4.4 0 0 0 0 .8zM87 32.81c0 1.62-.1 3.24-.11 4.87a.4.4 0 0 0 .8 0c0-1.63.08-3.25.11-4.87a.4.4 0 0 0-.8 0zM87.06 25v4.18a.4.4 0 0 0 .8 0V25a.4.4 0 0 0-.8 0z" fill="#757575"/><path d="M87.33 24.64h-2.18a.4.4 0 0 0 0 .8h2.18a.4.4 0 0 0 0-.8z" fill="#757575"/><path d="M108.91 19.23c-1.49 0-3 0-4.44-.05a.63.63 0 0 0-.62.61 22.52 22.52 0 0 0 .15 4.42.65.65 0 0 0 1 .55 4.9 4.9 0 0 1 2.53-.56 1.58 1.58 0 0 1 .83 2.54c-1 1.56-2.89 1-3.82-.21-.55-.69-1.56.3-1 1 1.79 2.15 5.46 1.86 6.28-1.05a2.93 2.93 0 0 0-.85-3.09c-1.29-1-3.32-.3-4.62.28l.93.38a21.57 21.57 0 0 1-.16-4.25l-.61.62a36.54 36.54 0 0 0 4.44 0c.77-.05.79-1.23 0-1.21zM117 20.57c0-2.35-3.61-1.36-4.63-.22-1.66 1.86-1.21 5.49.18 7.36 1.26 1.7 3.66 2 4.91.12a7.18 7.18 0 0 0-.27-7.67c-.49-.63-1.58 0-1.1.64a5.43 5.43 0 0 1 1 3.38c0 1.48-.59 4.59-2.86 3.46-1.3-.65-1.69-2.81-1.67-4.07a4.08 4.08 0 0 1 .32-1.74c.34-.69 2.43-2.42 3.34-1.06a.4.4 0 0 0 .75-.2zM120.24 22.33a58.28 58.28 0 0 0-.38 8.77c0 1.09 1.77.73 1.39-.19l-.09-.21a.61.61 0 0 0-1.09-.14l-.11.19 1.31.35a59.19 59.19 0 0 0 0-8.63c-.07-.53-.94-.8-1.05-.14z" fill="#1e1e1e"/><path d="M121.07 25.48a5.43 5.43 0 0 1 1.61-2.09 2 2 0 0 1 1.66-.41c.65.28.68 1 .74 1.57.09 1 .09 2.5-1 2.94a2.07 2.07 0 0 1-2.35-1c-.38-.83-1.6-.11-1.23.72a3.5 3.5 0 0 0 3.9 1.65c2-.62 2.21-2.88 2-4.62s-1.19-2.87-3-2.48a3.91 3.91 0 0 0-3.07 3.51.39.39 0 0 0 .73.19zM127.21 22.46c1.33 2.25 3.44 4.22 5.14 6.19.74.85 2-.63 1-1.25h-.07a.65.65 0 0 0-.66 0h-.08l1 .12c-1.76-1.92-3.46-4.2-5.54-5.79-.44-.33-1 .31-.73.73z" fill="#1e1e1e"/><path d="M131.86 22.08c-1.77 1.68-3.1 3.91-4.62 5.81l1.24.52v-.18a.64.64 0 0 0-1-.55l-.14.1a.72.72 0 1 0 1 1c1.43-2 3.24-3.84 4.39-6a.58.58 0 0 0-.91-.71zM207.87 23.18c1.46-.7 3.21-.94 3.33 1.2.07 1.18 0 2.38 0 3.56a.64.64 0 0 0 1.27 0c0-1.71.53-4.45-.77-5.84s-3.37-.81-4.5.24c-.46.44.13 1.09.65.84z" fill="#1e1e1e"/><path d="M212 25.48c-1.15-1.35-5.22-1.67-5.16.83.07 2.67 3.74 2.5 5.16 1.07.58-.58-.27-1.38-.88-.88a3.23 3.23 0 0 1-1.6.65c-.64.09-2-.29-1.3-1.15s2.55 0 3.38.17a.42.42 0 0 0 .4-.69zM215.63 22.32a.53.53 0 0 0-.08-.61.54.54 0 0 0-.76 0c-.42.39-.27 1.05-.27 1.56a16.31 16.31 0 0 0 .13 2.52c.2 1.16.77 2.49 2.07 2.71a2.67 2.67 0 0 0 2.69-1.5c.76-1.47.3-3.2.67-4.74l-1.2-.26v6.06a.64.64 0 0 0 1.28 0c0-2-.08-4-.08-6.06a.61.61 0 0 0-1.19-.16c-.35 1.35.23 4.8-1.53 5.22-2.1.5-1.46-4.08-1.7-5.21l-.25.61-.61-.08a.49.49 0 0 0 .75-.1zM222.52 20.05c-.4 1.48-1.22 10.84 2.73 8.33a.66.66 0 1 0-.81-1c-.86.71-1-1.72-1-2v-2a20.86 20.86 0 0 0 0-3.26c-.06-.43-.72-.38-.82 0z" fill="#1e1e1e"/><path d="M221.46 22.69a4.51 4.51 0 0 0 1.46.29 4.41 4.41 0 0 0 1.7-.08.62.62 0 0 0 0-1.18c-.87-.22-1.82.1-2.71-.1-.61-.14-1.09.8-.45 1.07zM229 21.46c-2-.45-3 1.86-2.95 3.48a4.12 4.12 0 0 0 .85 2.62 3.31 3.31 0 0 0 2.69.83 3.55 3.55 0 0 0 3-4 3.48 3.48 0 0 0-3.91-3 .62.62 0 0 0 .17 1.21c2.68-.16 3.49 3.89.77 4.51a2.05 2.05 0 0 1-1.86-.42 3.2 3.2 0 0 1-.5-1.73 2.16 2.16 0 0 1 1.7-2.49.52.52 0 0 0 0-1zM3.88 285.9c1.46-.7 3.21-.94 3.33 1.19.07 1.18 0 2.39 0 3.57a.64.64 0 0 0 1.28 0c0-1.71.52-4.45-.78-5.84s-3.36-.81-4.49.24c-.46.44.13 1.08.65.84z" fill="#1e1e1e"/><path d="M8 288.2c-1.16-1.35-5.23-1.68-5.16.82.07 2.68 3.74 2.51 5.16 1.08.57-.58-.28-1.39-.88-.88a3.25 3.25 0 0 1-1.61.64c-.63.1-2-.28-1.3-1.15s2.56 0 3.39.18a.42.42 0 0 0 .4-.69zM11.64 285a.5.5 0 0 0-.08-.61.56.56 0 0 0-.77 0c-.42.39-.26 1.05-.26 1.57a16.18 16.18 0 0 0 .13 2.51c.2 1.16.77 2.5 2.07 2.72a2.65 2.65 0 0 0 2.68-1.51c.77-1.46.31-3.19.68-4.74l-1.18-.16v6.07a.64.64 0 0 0 1.28 0c0-2-.08-4.05-.09-6.07a.6.6 0 0 0-1.18-.16c-.35 1.35.23 4.81-1.54 5.23-2.09.5-1.45-4.09-1.69-5.22l-.25.62-.61-.08a.49.49 0 0 0 .75-.1zM18.53 282.76c-.4 1.49-1.23 10.85 2.72 8.34a.66.66 0 1 0-.8-1c-.87.7-1-1.72-1.05-2v-2a19.83 19.83 0 0 0-.05-3.27c-.06-.43-.71-.37-.81 0z" fill="#1e1e1e"/><path d="M17.47 285.41a4.25 4.25 0 0 0 1.46.28 4.41 4.41 0 0 0 1.7-.07.62.62 0 0 0 0-1.19c-.88-.21-1.83.11-2.71-.09-.61-.14-1.09.8-.45 1.07zM25 284.18c-2-.46-3 1.85-2.95 3.48a4 4 0 0 0 .85 2.62 3.26 3.26 0 0 0 2.69.82 3.56 3.56 0 0 0 3-4 3.49 3.49 0 0 0-3.91-3 .62.62 0 0 0 .17 1.22c2.68-.17 3.49 3.89.77 4.51a2 2 0 0 1-1.86-.43 3.06 3.06 0 0 1-.5-1.72 2.17 2.17 0 0 1 1.7-2.5.51.51 0 0 0 0-1z" fill="#1e1e1e"/><path d="M24.93 114.17c1.79 0 3.58-.11 5.37-.11a.4.4 0 0 0 0-.8c-1.79 0-3.58.08-5.37.11a.4.4 0 0 0 0 .8zM17.07 114.23h4.68a.4.4 0 0 0 0-.8h-4.68a.4.4 0 0 0 0 .8zM33.86 114.23h4.68a.4.4 0 0 0 0-.8h-4.68a.4.4 0 0 0 0 .8z" fill="#757575"/><path d="M17.66 119.19c0-1.79-.1-3.58-.11-5.37a.4.4 0 0 0-.8 0c0 1.79.08 3.58.11 5.37a.4.4 0 0 0 .8 0zM17.72 127.05v-4.68a.4.4 0 0 0-.8 0v4.68a.4.4 0 0 0 .8 0zM24.93 48.17c1.79 0 3.58-.11 5.37-.11a.4.4 0 0 0 0-.8c-1.79 0-3.58.07-5.37.11a.4.4 0 0 0 0 .8zM17.07 48.22h4.68a.4.4 0 0 0 0-.8h-4.68a.4.4 0 0 0 0 .8zM33.86 48.22h4.68a.4.4 0 0 0 0-.8h-4.68a.4.4 0 0 0 0 .8z" fill="#757575"/><path d="M17.66 53.19c0-1.79-.1-3.58-.11-5.37a.4.4 0 0 0-.8 0c0 1.79.08 3.58.11 5.37a.4.4 0 0 0 .8 0zM17.72 61.05v-4.68a.4.4 0 0 0-.8 0v4.68a.4.4 0 0 0 .8 0zM24.93 219.31c1.79 0 3.58.1 5.37.1a.4.4 0 0 0 0-.8c-1.79 0-3.58-.07-5.37-.1a.4.4 0 0 0 0 .8zM17.07 219.25h4.68a.4.4 0 0 0 0-.8h-4.68a.4.4 0 0 0 0 .8zM33.86 219.25h4.68a.4.4 0 0 0 0-.8h-4.68a.4.4 0 0 0 0 .8z" fill="#757575"/><path d="M16.86 213.48c0 1.79-.1 3.58-.11 5.37a.4.4 0 0 0 .8 0c0-1.79.08-3.58.11-5.37a.4.4 0 0 0-.8 0zM16.92 205.62v4.68a.4.4 0 0 0 .8 0v-4.68a.4.4 0 0 0-.8 0zM17.64 136.1c0-1.79 0-3.58.06-5.37a.4.4 0 0 0-.8 0c0 1.79 0 3.58-.06 5.37a.4.4 0 0 0 .8 0zM24.93 107.52c1.79 0 3.58.11 5.37.11a.4.4 0 0 0 0-.8c-1.79 0-3.58-.07-5.37-.11a.4.4 0 0 0 0 .8zM17.07 107.47h4.68a.4.4 0 0 0 0-.8h-4.68a.4.4 0 0 0 0 .8zM33.86 107.47h4.68a.4.4 0 0 0 0-.8h-4.68a.4.4 0 0 0 0 .8z" fill="#757575"/><path d="M16.86 101.7c0 1.79-.1 3.58-.11 5.37a.4.4 0 0 0 .8 0c0-1.79.08-3.58.11-5.37a.4.4 0 0 0-.8 0zM16.92 93.84v4.68a.4.4 0 0 0 .8 0v-4.68a.4.4 0 0 0-.8 0zM16.92 64.44v4.68a.4.4 0 0 0 .8 0v-4.68a.4.4 0 0 0-.8 0zM17.47 144.66l.09-4.68a.4.4 0 0 0-.8 0l-.09 4.68a.4.4 0 0 0 .8 0zM17.47 153.85l.09-4.67a.4.4 0 0 0-.8 0l-.09 4.67a.4.4 0 0 0 .8 0zM24.93 226.38c1.79 0 3.58-.11 5.37-.11a.4.4 0 0 0 0-.8c-1.79 0-3.58.07-5.37.11a.4.4 0 0 0 0 .8zM17.07 226.43h4.68a.4.4 0 0 0 0-.8h-4.68a.4.4 0 0 0 0 .8zM33.86 226.43h4.68a.4.4 0 0 0 0-.8h-4.68a.4.4 0 0 0 0 .8z" fill="#757575"/><path d="M17.66 231.4c0-1.79-.1-3.58-.11-5.37a.4.4 0 0 0-.8 0c0 1.79.08 3.58.11 5.37a.4.4 0 0 0 .8 0zM17.72 239.26v-4.68a.4.4 0 0 0-.8 0v4.68a.4.4 0 0 0 .8 0zM17.64 248.31c0-1.79 0-3.58.06-5.37a.4.4 0 0 0-.8 0c0 1.79 0 3.58-.06 5.37a.4.4 0 0 0 .8 0zM17.47 256.86l.09-4.67a.4.4 0 0 0-.8 0l-.09 4.67a.4.4 0 0 0 .8 0zM17.72 184v-4.68a.4.4 0 0 0-.8 0V184a.4.4 0 0 0 .8 0zM17.64 193c0-1.79 0-3.58.06-5.38a.4.4 0 0 0-.8 0c0 1.8 0 3.59-.06 5.38a.4.4 0 0 0 .8 0zM17.72 266.25v-4.68a.4.4 0 0 0-.8 0v4.68a.4.4 0 0 0 .8 0zM17.64 275.3c0-1.79 0-3.58.06-5.38a.4.4 0 0 0-.8 0c0 1.8 0 3.59-.06 5.38a.4.4 0 0 0 .8 0zM24.93 350.66c1.79 0 3.58.11 5.37.11a.4.4 0 0 0 0-.8c-1.79 0-3.58-.07-5.37-.11a.4.4 0 0 0 0 .8zM17.07 350.61h4.68a.4.4 0 0 0 0-.8h-4.68a.4.4 0 0 0 0 .8zM33.86 350.61h4.68a.4.4 0 0 0 0-.8h-4.68a.4.4 0 0 0 0 .8z" fill="#757575"/><path d="M16.86 344.84c0 1.79-.1 3.58-.11 5.37a.4.4 0 0 0 .8 0c0-1.79.08-3.58.11-5.37a.4.4 0 0 0-.8 0zM16.92 337v4.68a.4.4 0 0 0 .8 0V337a.4.4 0 0 0-.8 0zM16.84 327.93c0 1.79 0 3.58.06 5.37a.4.4 0 0 0 .8 0c0-1.79 0-3.58-.06-5.37a.4.4 0 0 0-.8 0zM16.67 319.38l.09 4.67a.4.4 0 0 0 .8 0l-.09-4.67a.4.4 0 0 0-.8 0zM16.92 310v4.67a.4.4 0 0 0 .8 0V310a.4.4 0 0 0-.8 0zM16.84 300.94c0 1.79 0 3.59.06 5.38a.4.4 0 0 0 .8 0c0-1.79 0-3.59-.06-5.38a.4.4 0 0 0-.8 0zM17.47 201.59l.09-4.68a.4.4 0 0 0-.8 0l-.09 4.68a.4.4 0 0 0 .8 0z" fill="#757575"/><path d="M6.45 78.62c1 0 2-.62 3-.47 1.83.27 1.22 1.77.43 2.76-1.19 1.52-2.81 2.62-3.88 4.26a.6.6 0 0 0 .52.9 27.21 27.21 0 0 1 5.33.44c.89.18 1.24-1.22.37-1.34a24.74 24.74 0 0 0-5.7-.3l.53.9c1.41-2.1 5.57-4 4.94-7-.21-1-.6-1.72-1.68-1.88-1.29-.18-3.22 0-4.12 1a.42.42 0 0 0 .29.72zM19.83 76.67c-1.7-.18-3.44-.17-5.15-.18a.63.63 0 0 0-.6.79c.36 1.62-.41 3.55.16 5.08a.6.6 0 0 0 .43.43c.75.11 1.09-.46 1.74-.78 1.07-.52 3.26-.89 3.05 1.43s-3.06 2.24-4.11.76c-.46-.67-1.56 0-1.08.63a3.55 3.55 0 0 0 4.43 1.38 3.46 3.46 0 0 0 1.84-4.3A3.07 3.07 0 0 0 17 80.45a5.17 5.17 0 0 0-1.51.64 5.4 5.4 0 0 0-.74.51q.88.06.6-.78a9.18 9.18 0 0 0-.06-3.82l-.61.79a49.22 49.22 0 0 0 5.15.09.58.58 0 0 0 0-1.16zM24.63 77a1.88 1.88 0 0 0-2.57 1.15 2.24 2.24 0 1 0 4.2 1.53c.33-.93-.41-2.59-1.52-2.56a.49.49 0 0 0-.34.83c.33.31.83.58.85 1.11 0 .68-.92 1.09-1.45.87a1.14 1.14 0 0 1-.57-1.47c.21-.49.84-.62 1.31-.74.31-.07.41-.59.09-.72zM29.24 76.93a42.06 42.06 0 0 0-5.69 8.8.56.56 0 0 0 1 .56c1-1.37 1.87-2.91 2.79-4.36s1.94-2.87 2.74-4.39c.25-.48-.41-1.07-.8-.61zM30.07 82a2.35 2.35 0 0 0-2.91 1.08 2.53 2.53 0 0 0 1.15 3.13c2.55 1.37 4.45-3.08 2.15-4.25a.55.55 0 0 0-.56 1c1.26.87 0 3.16-1.22 2a1.59 1.59 0 0 1-.4-.77.7.7 0 0 1 .33-.77 2.74 2.74 0 0 1 1.39-.64.4.4 0 0 0 .11-.79zM1.33 164a12.18 12.18 0 0 0 2.48-2l-1-.43a35.44 35.44 0 0 0-.1 4 21.08 21.08 0 0 1 .13 4.2c-.12.78 1.08 1.12 1.2.33a16.09 16.09 0 0 0-.09-3.92 29.44 29.44 0 0 1 .07-4.6c.06-.56-.68-.75-1-.43-.72.64-1.47 1.22-2.23 1.8-.61.46-.08 1.46.61 1zM11.61 161.85c-1.36-1.71-3.81-1.09-4.91.58a6.87 6.87 0 0 0 0 6.72c1.32 1.83 4.11 1.32 5.23-.44 1.25-2 1.55-5.29-.24-7a.59.59 0 0 0-.83.84 4.11 4.11 0 0 1 .62 4 4 4 0 0 1-1 2 2 2 0 0 1-3.3-1c-.72-2.4.44-7.3 3.71-4.84.54.4 1-.41.66-.85zM19.83 161.59c-4.55-3.8-7.47 5.43-4 8.27 1.81 1.49 4.27.2 5.18-1.65 1.15-2.32.83-5.5-1.34-7.07-.55-.39-1.25.51-.73 1a4.31 4.31 0 0 1 1.22 4.71c-.46 1.56-2 3.18-3.58 1.94-1.24-.94-1.3-3.05-1-4.45a3.25 3.25 0 0 1 1.27-2.12 3.21 3.21 0 0 1 2.5.24c.44.14.85-.5.47-.82zM23.07 163.86a53.28 53.28 0 0 0-.32 8.75.62.62 0 0 0 1.24 0c.12-2.85.28-5.76.17-8.61 0-.59-1-.79-1.09-.14z" fill="#1e1e1e"/><path d="M24.07 166.21a3.63 3.63 0 0 1 2.43-1.44c1.33-.16 1.72.84 1.72 2 0 1-.25 1.89-1.34 2.05-.81.12-2.26-.2-2.48-1.1s-1.42-.47-1.27.35c.3 1.6 2.35 2.13 3.75 2.06a2.82 2.82 0 0 0 2.69-3.06c0-1.41-.49-3.13-2.05-3.46a3.86 3.86 0 0 0-4.21 2.14.46.46 0 0 0 .76.45zM30.45 163.93a8.22 8.22 0 0 0 1.72 3.52 11.19 11.19 0 0 0 2.56 3c.78.57 1.5-.71.75-1.28A13 13 0 0 1 33 166a10 10 0 0 0-1.88-2.47.42.42 0 0 0-.63.36z" fill="#1e1e1e"/><path d="M35.35 163.7c-1.15.35-2 1.72-2.7 2.61a30.56 30.56 0 0 0-2.65 3.28c-.39.62.48 1.25 1 .76a37.17 37.17 0 0 0 2.75-3.25c.68-.82 1.89-1.88 2-3 0-.25-.15-.53-.44-.44z" fill="#1e1e1e"/><path d="M404.8 46.05h-4.68a.4.4 0 0 0 0 .8h4.68a.4.4 0 0 0 0-.8zM413.86 46l-5.38.06a.4.4 0 0 0 0 .8l5.38-.06a.4.4 0 0 0 0-.8zM404.8 109.84h-4.68a.4.4 0 0 0 0 .8h4.68a.4.4 0 0 0 0-.8zM413.86 109.76l-5.38.06a.4.4 0 0 0 0 .8l5.38-.06a.4.4 0 0 0 0-.8zM404.8 221h-4.68a.4.4 0 0 0 0 .8h4.68a.4.4 0 0 0 0-.8zM413.86 220.93l-5.38.06a.4.4 0 0 0 0 .8l5.38-.06a.4.4 0 0 0 0-.8zM404.8 350.39h-4.68a.4.4 0 0 0 0 .8h4.68a.4.4 0 0 0 0-.8zM413.86 350.31l-5.38.06a.4.4 0 0 0 0 .8l5.38-.06a.4.4 0 0 0 0-.8z" fill="#757575"/><path d="M36.89 376.42c-1.32-.78-2.42-.25-2.72 1.27a17.71 17.71 0 0 0 0 3.09c0 1.52-.08 3-.14 4.55 0 .81 1.3.8 1.25 0-.09-1.3-.18-2.6-.23-3.9 0-.65-.48-4.94 1.33-4.12.59.27 1.1-.54.52-.89z" fill="#1e1e1e"/><path d="M33.11 380.06a6.23 6.23 0 0 0 3.2.33c.73-.12.5-1.18-.17-1.23s-1.06.06-1.58.06a10 10 0 0 0-1.45.14c-.39.06-.29.58 0 .7zM38.69 376.48a.71.71 0 0 0-.36 1.2.61.61 0 0 0 1-.42.57.57 0 0 0-.64-.78zM38.22 379.39a16.59 16.59 0 0 0 0 2.73c0 1 0 2 .09 3.05a.56.56 0 0 0 1.11 0 20.72 20.72 0 0 0 0-3.05 12 12 0 0 0-.29-2.73c-.1-.39-.81-.46-.87 0zM41.1 379.46a53.7 53.7 0 0 0 0 6 .56.56 0 0 0 1.12 0c.16-1.83-.45-4.78 2-5.45.57-.16.3-1.08-.25-.88a3.92 3.92 0 0 0-2.36 2.15c-.57 1.32-.33 2.78-.46 4.18h1.12a38.39 38.39 0 0 0-.23-6.07c-.1-.56-.88-.36-.92.12zM49.8 379.76c-1.16-1.63-4.12-1.33-4.5.83a1.61 1.61 0 0 0 1.32 1.84c.71.22 1.62.28 2 1 .7 1.32-1.88 1.85-2.38.56a.57.57 0 0 0-1.1.3c.48 1.92 4 2.38 4.64.34a2.32 2.32 0 0 0-1-2.59c-.53-.37-1.26-.32-1.75-.64-1.1-.73-.41-1.42.41-1.54a2.42 2.42 0 0 1 1.67.52c.39.22 1-.24.66-.65zM52.53 377.16A8.37 8.37 0 0 0 52 381a11.79 11.79 0 0 0 .33 3.84c.43 1.19 2.16 1.82 2.61.31a.57.57 0 0 0-.94-.55c-.45.46-.66-1.51-.68-1.8-.06-.7-.07-1.4-.06-2.1a16.82 16.82 0 0 0 0-3.4.4.4 0 0 0-.73-.09z" fill="#1e1e1e"/><path d="M50.91 379.71a2 2 0 0 0 1.48.59 3.19 3.19 0 0 0 1.79-.06.53.53 0 0 0 0-.92 4.51 4.51 0 0 0-1.6-.19 2.61 2.61 0 0 0-1.52 0 .4.4 0 0 0-.15.54zM57.07 376.63c.46.06 1.79.25 1.51-.12.12.15 0 .94 0 1.13v3.73c0 2-.07 3.95-.1 5.92l.58-.59h-2.17c-.79 0-.79 1.27 0 1.24l2.17-.08a.61.61 0 0 0 .59-.59l.09-5.7a35.55 35.55 0 0 0 0-5.46.59.59 0 0 0-.42-.42 7.37 7.37 0 0 0-2.25-.09.51.51 0 0 0 0 1zM30.73 375.23a3.54 3.54 0 0 0-1.91 0 .6.6 0 0 0-.43.57c0 3.73 0 7.47-.09 11.21a.59.59 0 0 0 .58.58 18.41 18.41 0 0 0 2.1-.06c.77-.1.81-1.31 0-1.24s-1.4.12-2.1.14l.58.58c0-2 0-4 .05-6v-3.73a3.75 3.75 0 0 1 0-1.16v-.25c-.49.42.9.41 1 .4.54-.05.76-.9.14-1zM74.84 386.93c-.74-.12-1.49-.2-2.23-.27l.59.6q.06-5.5.14-11l-.59.59h2.17c.8 0 .8-1.27 0-1.24l-2.17.09a.59.59 0 0 0-.58.58l-.15 11a.6.6 0 0 0 .59.59 16.23 16.23 0 0 0 2.09.08c.54 0 .73-.91.14-1zM110 388.32a3.34 3.34 0 0 0 2-.08.61.61 0 0 0 .29-.52c0-3.73 0-7.47.09-11.21a.59.59 0 0 0-.58-.58 18.41 18.41 0 0 0-2.1.06c-.77.1-.81 1.31 0 1.24s1.4-.12 2.1-.14l-.58-.58c0 2.24 0 4.47-.06 6.71 0 1.24-.12 2.51 0 3.75a2 2 0 0 1 0 .73c.46-.76-.68-.46-1.15-.38s-.47.88 0 1zM78.3 376.79a51.1 51.1 0 0 0 0 8.57c0 .79 1.3.79 1.25 0-.2-2.86 0-5.72-.19-8.57a.54.54 0 0 0-1.08 0zM82.22 379.87l.1-.09-.89-.37c-.17 1.93 0 4 0 5.9a.63.63 0 0 0 1.25 0 23.39 23.39 0 0 0-.24-6c-.16-.7-1.27-.32-1 .39v.11a.43.43 0 0 0 .67.09zM81.65 376.72c-.75.34.07 1.47.68.87a.64.64 0 0 0 0-.9.65.65 0 0 0-1 .17.54.54 0 0 0 0 .56l.05.07c.24.31.85.36.94-.12l-.33.25h.09l-.52-.14v-.51l.35-.15h-.06l.34.15v.33-.07a.39.39 0 0 0-.57-.43zM85.44 379.58v-.05c.4-.65-.8-1.07-.91-.38a15.78 15.78 0 0 0 0 3.15 28.07 28.07 0 0 0 .18 3.17c.11.68 1.09.45 1.14-.16a25 25 0 0 0-.08-3.24 15 15 0 0 0-.25-2.92l-.35.61-.48-.27v.1c.06.38.64.33.72 0z" fill="#1e1e1e"/><path d="M85.58 381.31c.75-.75 3-2.19 3.35-.39a16 16 0 0 1 .07 4.48c-.09.82 1.29.85 1.32 0a25.38 25.38 0 0 0-.16-4.27 2.93 2.93 0 0 0-1-2.17c-1.42-.94-3.68.71-4.2 2-.13.32.33.54.55.33zM92.63 382.86c1.67.08 3.35 0 5 .11a.66.66 0 0 0 .63-.82c-.24-1.51-1-3.21-2.73-3.13A3.73 3.73 0 0 0 92 381.4a3.41 3.41 0 0 0 1.31 3.77 4 4 0 0 0 4.48 0c.71-.43 0-1.56-.64-1.11-1.64 1.09-4.56.38-4.19-2a2.27 2.27 0 0 1 2.31-1.85c1.35-.06 1.64 1.23 1.81 2.3l.62-.82a24.73 24.73 0 0 0-5.16.14c-.62.09-.43 1 .14 1.05zM101 378.3c.9-.79 3.45-1.89 3.9 0a4 4 0 0 1-.58 2.2c-.89 1.64-2.78 2.9-4.15 4.11a.61.61 0 0 0 .42 1 39.68 39.68 0 0 1 5.56.12c.86.07.86-1.27 0-1.33a38.22 38.22 0 0 0-5.56 0l.43 1c2.11-1.85 5.4-4.06 5.05-7.33-.32-3-4.34-2.1-5.83-.59-.5.5.24 1.22.76.77zM130.1 375.82a3.06 3.06 0 0 0-1.64-.1.53.53 0 0 0-.51.51c-.09 3.79-.19 7.57-.29 11.36a.54.54 0 0 0 .54.54c.73-.06 1.44-.16 2.15-.29s.43-1.36-.31-1.14a6.38 6.38 0 0 1-1.84.35l.54.54c.08-3.79.15-7.57.23-11.36l-.51.51a3.54 3.54 0 0 1 1.52 0c.5.05.61-.78.12-.89zM164 375.76l.58.32v-.05l-.5.64a11 11 0 0 1 2 .16l-.6-.6c.08 2.19.05 4.39.06 6.59v3.54c0 .18.1.75 0 .9.44-.68-1.3-.31-1.72-.33-.74 0-.71 1.22 0 1.13s1.54 0 2.29-.11a.59.59 0 0 0 .56-.43 31.85 31.85 0 0 0 .06-5.17v-6.12a.61.61 0 0 0-.6-.6c-.77-.06-1.69-.34-2.34.17-.37.29 0 .86.36.87h.06a.48.48 0 0 0 .47-.47.45.45 0 0 0-.56-.43zM133.48 377a13 13 0 0 0-.25 3.94v4.5a.54.54 0 0 0 1.08 0v-4.5a12.66 12.66 0 0 0-.25-3.94.33.33 0 0 0-.62 0zM136.48 379.57c-.19 1.81 0 3.74 0 5.57a.62.62 0 0 0 1.24 0 18.46 18.46 0 0 0-.22-5.7c-.15-.59-.92-.4-1 .13zM137.28 377.49a.81.81 0 0 0 .33-.44.51.51 0 0 0-.35-.62.65.65 0 0 0-.68.2.58.58 0 0 0 .25 1 .49.49 0 0 0 .49-.13s.3-.44.12-.21h-.71l.07.09-.13-.31v.12c0 .26.33.5.57.32zM139.56 379.44a47.43 47.43 0 0 0 0 5.84.53.53 0 0 0 1.06 0c.11-1.2.33-5.73 2.33-5.31 1.21.25 1 1.55 1 2.47v2.62a.64.64 0 0 0 1.27 0 23.78 23.78 0 0 0-.19-4.55 1.92 1.92 0 0 0-2-1.58c-3 .07-3.16 4.13-3.39 6.35h1.06a47.36 47.36 0 0 0-.16-5.84.47.47 0 0 0-.94 0zM147.34 382.75a34.19 34.19 0 0 0 5.45.1.6.6 0 0 0 .6-.6 3.1 3.1 0 0 0-2.6-3.4 3.77 3.77 0 0 0-3.54 2.54c-1.22 3.28 2.92 6.28 5.64 4.16.57-.45-.24-1.27-.81-.81-1.89 1.55-4.8-1-3.77-3.13a3 3 0 0 1 2-1.62 2 2 0 0 1 1.88 2.26l.6-.6a29.15 29.15 0 0 0-5.45.21.47.47 0 0 0 0 .89zM155.51 378.3c.57-.32 4.57-2.08 4.09.63-.21 1.2-2 1.47-2.92 1.64-.61.11-.46 1.09.14 1.07a4 4 0 0 1 1.33.07c.88.29 1.77 1.45 1.19 2.42a2.18 2.18 0 0 1-3.67-.23c-.28-.6-1.18-.08-.89.52a3.27 3.27 0 0 0 5.49.26 2.83 2.83 0 0 0 0-3c-.77-1.12-2.21-1.19-3.44-1.14v1.09c2-.1 4.82-1.46 3.88-3.94s-4.36-1.37-5.75-.12c-.4.35.11 1 .56.72zM260 375.92a14.74 14.74 0 0 0-2.1-.17.52.52 0 0 0-.53.52c.16 2.38.12 4.75.1 7.12a30.13 30.13 0 0 0 0 4 .42.42 0 0 0 .31.31 15.24 15.24 0 0 0 1.92.22c.72.07.75-1.16 0-1.15-.27 0-1.79-.22-1.38.38a3.21 3.21 0 0 1 0-.62c0-1 .05-1.94.08-2.91.07-2.45.11-4.92.07-7.38l-.53.53a14.36 14.36 0 0 0 2 .07c.51 0 .69-.85.13-.95zM267.68 380c-.62-1.19-2.55-1.11-3.66-.77a3.27 3.27 0 0 0-2.18 3.09 3.57 3.57 0 0 0 5.7 2.93c.57-.42 0-1.39-.56-1a2.48 2.48 0 0 1-4.06-1.64c-.22-2.47 2.42-2.86 4.18-2.07a.43.43 0 0 0 .58-.58zM275.07 380.6c-.51-1.93-3-2.25-4.51-1.3a3.6 3.6 0 0 0-.86 5.08c.95 1.33 3 2.31 4.39 1s2.34-3.54 1-5.19c-.4-.49-1.22.15-.87.67.74 1.12.28 2.24-.49 3.21-.95 1.2-2.29.8-3.14-.34a2.53 2.53 0 0 1 .36-3.55c1.34-1 2.43-.17 3.42.77a.41.41 0 0 0 .69-.39zM277 376.86a68.88 68.88 0 0 1 0 8.5c-.07.78 1.13.77 1.2 0a37.35 37.35 0 0 0-.07-8.65c-.09-.62-1.11-.47-1.09.15zM284.42 376.33a13 13 0 0 0-2.32 2.89c-.77 1.11-1.47 2.25-2.15 3.41a.61.61 0 0 0 .52.9 38.86 38.86 0 0 0 5.71 0 .62.62 0 0 0 0-1.24c-1.89-.11-3.82.08-5.71.08l.51.89c.63-1.1 1.29-2.18 2-3.24a23.34 23.34 0 0 0 2.09-3.16.41.41 0 0 0-.64-.5z" fill="#1e1e1e"/><path d="M284.42 376.76a12.2 12.2 0 0 0-.21 4c0 1.49-.12 3-.06 4.49 0 .66 1.09.89 1.21.17a21 21 0 0 0 .1-4.34 15.69 15.69 0 0 0-.34-4.28.37.37 0 0 0-.7 0zM288.63 382.73a5.45 5.45 0 0 0 1.93.23c.71 0 .72-1.11 0-1.12a5.6 5.6 0 0 0-1.83.11c-.29.12-.47.62-.1.78zM296.9 379.76c-1.53-1.78-5.44-1.37-4.55 1.59.27.89 1.25 1.12 2 1.39.5.17 1.37.32 1.68.81.67 1.09-1.1 1.37-1.68 1.28A2.25 2.25 0 0 1 293 384c-.45-.53-1.3.31-.77.76a3.68 3.68 0 0 0 3.81.68c1.06-.36 1.84-1.3 1.11-2.4s-1.87-1.18-2.93-1.51c-.61-.18-1-.3-.93-1 .21-1.61 2.35-.5 3.1 0 .46.29.88-.34.55-.72zM299.28 377.56a26 26 0 0 0 0 6.83 1.55 1.55 0 0 0 2.29 1.25.56.56 0 1 0-.43-1c-1.38.67-1-3.12-1-3.69.06-1.12.09-2.25.09-3.37a.49.49 0 0 0-1 0z" fill="#1e1e1e"/><path d="M298.32 379.88a4.81 4.81 0 0 0 1.61.12 2.75 2.75 0 0 0 1.56-.14.55.55 0 0 0-.28-1h-1.58a2.92 2.92 0 0 0-1.41.24.45.45 0 0 0 .1.81zM303.79 380.51c1.41-.23 3.44-1.18 3.63 1.08a30.75 30.75 0 0 1 0 3.84.6.6 0 0 0 1.19 0c0-1.14.07-2.28 0-3.42a3.35 3.35 0 0 0-.78-2.51 3.53 3.53 0 0 0-4.44.34.4.4 0 0 0 .39.67z" fill="#1e1e1e"/><path d="M308.11 382.52c-1.29-1.55-5.31-1.43-5.12 1.19s3.94 2.15 5.22.68c.45-.52-.27-1.26-.76-.76a3.08 3.08 0 0 1-1.48.88c-.77.18-2 .05-1.94-1 .07-1.78 2.82-.57 3.73-.42a.35.35 0 0 0 .35-.58zM310.06 379.44c-.16 1.88.15 3.8.15 5.69 0 .71 1.14.71 1.11 0a34.27 34.27 0 0 0-.33-5.82c-.12-.55-.89-.37-.93.13z" fill="#1e1e1e"/><path d="M311 381.61a5.25 5.25 0 0 1 2-1.61c.65-.26.36-1.31-.29-1.05a3.93 3.93 0 0 0-2.41 2.15c-.23.41.34.89.66.51zM315.49 377.44a20.67 20.67 0 0 0-.2 3.34 11.94 11.94 0 0 0 .22 3.53c.36 1.21 1.65 2 2.67 1 .48-.46-.15-1.34-.73-.94-1.11.77-1-3.61-1-3.85a19.65 19.65 0 0 0-.09-3.07.45.45 0 0 0-.86 0z" fill="#1e1e1e"/><path d="M314.53 380a6.18 6.18 0 0 0 1.66.25 5.25 5.25 0 0 0 1.68 0 .57.57 0 0 0 0-1.1 8.12 8.12 0 0 0-1.56-.08 12.84 12.84 0 0 0-1.64 0 .52.52 0 0 0-.14 1zM320.45 376.64c-.07 0 1.45 0 1.07-.2.29.17-.15-.41.06-.05s0 .84 0 1.09c0 1.37 0 2.73-.06 4.09s-.09 2.7-.1 4.05a13.45 13.45 0 0 1 0 1.58l.6-.46a11.78 11.78 0 0 0-1.68 0c-.87 0-.86 1.41 0 1.34.56 0 1.12-.06 1.68-.1a.64.64 0 0 0 .63-.63c-.13-1.17 0-3.43 0-5.13a48.86 48.86 0 0 0 .08-6.05.6.6 0 0 0-.42-.55 3.91 3.91 0 0 0-2 .11.46.46 0 0 0 .13.9zM339.43 375.67a4.9 4.9 0 0 0-1.79.06c-.25 0-.53.2-.5.5a71.57 71.57 0 0 1-.1 11.34.56.56 0 0 0 .54.54 9 9 0 0 0 1.72 0c.73 0 .74-1.17 0-1.14a16.43 16.43 0 0 1-1.72 0l.55.55c-.24-3.77.36-7.59 0-11.34l-.5.49 1.79-.08a.49.49 0 0 0 0-1zM364.64 376.54a7.89 7.89 0 0 0 2 .33l-.58-.58c-.44 3.69-.13 7.45-.43 11.15l.6-.6c-.69.05-1.37.1-2.06.13a.63.63 0 1 0 .17 1.25 9.92 9.92 0 0 1 1.89-.18.61.61 0 0 0 .6-.6c.3-3.7.21-7.44.4-11.15a.6.6 0 0 0-.59-.59c-.62.05-1.25.07-1.88.11a.37.37 0 0 0-.1.73zM345.1 376.37c-1.52-.37-2.3.46-2.52 1.92a46.72 46.72 0 0 0-.07 7.1.6.6 0 0 0 1.2 0c0-1.27-.15-2.54-.2-3.8s-.48-4.37 1.46-4.28a.48.48 0 0 0 .13-.94z" fill="#1e1e1e"/><path d="M341.24 379.77c.38.39.9.19 1.38.23a8.52 8.52 0 0 0 1.82 0 .56.56 0 0 0 .15-1.09 2.31 2.31 0 0 0-1 0c-.34 0-.65-.07-1-.07a1.68 1.68 0 0 0-1.44.45.39.39 0 0 0 .06.47zM346.31 379.31a7.07 7.07 0 0 0-.13 2.83c0 1.05 0 2.12.12 3.17a.55.55 0 0 0 1.09 0c.07-1.13 0-2.27 0-3.4a6.23 6.23 0 0 0-.34-2.69c-.17-.33-.59-.19-.71.09zM346.73 376.69a.58.58 0 0 0-.47.2.62.62 0 0 0-.1.64 1.1 1.1 0 0 0 0 .25.46.46 0 0 0 .67.27.92.92 0 0 0 .44-.8.57.57 0 0 0-.54-.56zM348.71 379.23a7.46 7.46 0 0 0 1.12 2.67c.57 1.09 1.18 2.16 1.81 3.21a.58.58 0 0 0 1 0q1.22-2.79 2.42-5.59c.29-.67-.7-1.26-1-.58-.81 1.86-1.61 3.73-2.42 5.59h1c-.6-1-1.16-2-1.72-3a8.09 8.09 0 0 0-1.59-2.53c-.22-.18-.65-.09-.62.26zM356.59 382.79c1.54-.41 3.07 0 4.62-.11a1 1 0 0 0 1-1.4 3.1 3.1 0 0 0-4.46-2.13 3.89 3.89 0 0 0-1.41 5.24c1.08 1.72 4.14 1.55 5.56.42.62-.49-.28-1.44-.88-.88a2.78 2.78 0 0 1-2.16.46c-.87-.06-1.54-.28-1.79-1.2a2.58 2.58 0 0 1 2-3.23 1.73 1.73 0 0 1 1.77.91s.24.92.44.64a8.66 8.66 0 0 1-1.24 0 7.4 7.4 0 0 0-3.74.44.47.47 0 0 0 .36.86zM382.11 375.67a5.57 5.57 0 0 0-2.37-.08.59.59 0 0 0-.43.57c.29 2.43.36 4.9.43 7.34a38.84 38.84 0 0 0 0 4.18.46.46 0 0 0 .33.33 13.13 13.13 0 0 0 2.07.24c.79.06.78-1.29 0-1.22-.15 0-1.81 0-1.47.37a2.74 2.74 0 0 1 0-.7c-.08-1.05 0-2.15 0-3.2 0-1.39.05-2.77 0-4.16 0-.57-.05-1.14-.09-1.7-.08-1.27.12-1.07 1.36-.94.59.06.7-.89.14-1zM409.74 376.82a13.5 13.5 0 0 0 1.68.08l-.6-.6a107.75 107.75 0 0 0 .37 11.08l.54-.53c-.75 0-1.5 0-2.25-.06s-.77 1.24 0 1.2 1.5-.06 2.25-.07a.53.53 0 0 0 .54-.54C412 383.7 412 380 412 376.3a.62.62 0 0 0-.6-.6 13.49 13.49 0 0 0-1.68.07.55.55 0 0 0 0 1.05zM384.73 382.78a14.1 14.1 0 0 0 4.63.06c.66-.08 1.49-.18 1.5-1a4 4 0 0 0-1.49-2.51 2.61 2.61 0 0 0-2.61-.44c-1.92.82-2.62 3.75-1.55 5.44a3.5 3.5 0 0 0 5.27.4c.49-.57-.33-1.4-.83-.83a2.3 2.3 0 0 1-3.56-.4c-.6-1.09.06-3.6 1.56-3.65a2 2 0 0 1 1.64 1.09c.07.12.47.77.4.85s-.75-.06-.78-.06c-1.35 0-2.71.07-4.06.13-.51 0-.67.81-.12.93zM393 379.32a10 10 0 0 0 0 2.79v3.13a.57.57 0 0 0 1.13 0v-3.36a7.13 7.13 0 0 0-.38-2.65c-.14-.32-.63-.21-.71.09z" fill="#1e1e1e"/><path d="M393.76 381.14c.94-.46 3.26-2 3.54-.18a20.67 20.67 0 0 1 0 4c0 .77 1.23.76 1.17 0-.09-1.15-.1-2.3-.15-3.45a3.17 3.17 0 0 0-.73-2.23c-1.08-1-3.55.36-4.34 1.21a.41.41 0 0 0 .49.64zM405.58 376.74a54 54 0 0 0-.26 8.44c0 .59 1 .79 1.09.15a27 27 0 0 0-.05-8.7c-.1-.47-.73-.29-.78.11z" fill="#1e1e1e"/><path d="M406.29 380.37a3.81 3.81 0 0 0-3.61-1.33 3 3 0 0 0-2.08 2.88 3.5 3.5 0 0 0 1.72 3.44c1.33.54 2.71-.38 3.46-1.43.27-.37-.24-.81-.61-.6-.6.35-1.25 1.05-2 1-1.12 0-1.51-1.56-1.47-2.44s.47-1.9 1.51-2a3.08 3.08 0 0 1 2.38 1.12c.47.46 1.07-.21.7-.7z" fill="#1e1e1e"/><path d="M91.5 363.47v-4.68a.4.4 0 0 0-.8 0v4.68a.4.4 0 0 0 .8 0zM91.58 372.52c0-1.79 0-3.58-.06-5.37a.4.4 0 0 0-.8 0c0 1.79 0 3.58.06 5.37a.4.4 0 0 0 .8 0zM291.61 367.84v4.68a.4.4 0 0 0 .8 0v-4.68a.4.4 0 0 0-.8 0zM291.53 358.79c0 1.79.05 3.58.06 5.38a.4.4 0 0 0 .8 0c0-1.8 0-3.59-.06-5.38a.4.4 0 0 0-.8 0zM350.62 363.47v-4.68a.4.4 0 0 0-.8 0v4.68a.4.4 0 0 0 .8 0zM350.7 372.52c0-1.79 0-3.58-.06-5.37a.4.4 0 0 0-.8 0c0 1.79 0 3.58.06 5.37a.4.4 0 0 0 .8 0zM393.86 363.47v-4.68a.4.4 0 0 0-.8 0v4.68a.4.4 0 0 0 .8 0zM393.94 372.52c0-1.79 0-3.58-.06-5.37a.4.4 0 0 0-.8 0c0 1.79 0 3.58.06 5.37a.4.4 0 0 0 .8 0zM148 364v-5.18a.4.4 0 0 0-.8 0V364a.4.4 0 0 0 .8 0zM148.1 372.52c0-1.62 0-3.25-.06-4.87a.4.4 0 0 0-.8 0c0 1.62 0 3.25.06 4.87a.4.4 0 0 0 .8 0zM45.44 363.47v-4.68a.4.4 0 0 0-.8 0v4.68a.4.4 0 0 0 .8 0zM45.52 372.52q0-2.68-.06-5.37a.4.4 0 0 0-.8 0q0 2.69.06 5.37a.4.4 0 0 0 .8 0z" fill="#757575"/><path d="M422.53 40.35a12.17 12.17 0 0 0-2.47-.43.51.51 0 0 0-.5.5q-.3 5.85-.25 11.7a.52.52 0 0 0 .52.53H422a.55.55 0 0 0 0-1.1l-2.2.05.52.52c-.1-3.9 0-7.8.2-11.7l-.49.5c.79.07 1.57.17 2.37.2a.39.39 0 0 0 .1-.77zM425.29 43.82c-.15 2 0 4.11 0 6.15a.5.5 0 0 0 1 0 28.66 28.66 0 0 0-.07-6.28c-.09-.55-.88-.36-.92.13z" fill="#1e1e1e"/><path d="M426.25 45.69c0 .06.35-.23.39-.26l.52-.38a2.15 2.15 0 0 1 1.2-.39.56.56 0 1 0-.15-1.1 4.25 4.25 0 0 0-1.83.77c-.35.27-1.1.83-.87 1.36.12.31.67.43.74 0zM435.18 44.3c-1.48-1.46-3-1.35-4.51-.09a3.35 3.35 0 0 0-.48 4.72 3 3 0 0 0 4.27.86c1.52-1.19 1.69-3.59 1-5.24-.26-.59-1.29-.16-1.05.44a3.73 3.73 0 0 1-.13 3.32c-.8 1.27-2.3 1-3.17-.06a2.21 2.21 0 0 1 .22-3.14c1.14-1 2-.82 3.33-.09a.46.46 0 0 0 .56-.72zM437.17 43.92c.47 2 1.24 4 1.84 6 .12.41.78.57 1 .13.89-2 1.77-3.92 2.7-5.87l-1-.13c.72 1.94 1.24 3.94 2 5.87.17.44.88.54 1 0 .46-2 1.29-3.88 1.85-5.85a.57.57 0 0 0-1.1-.3c-.51 2-1.14 3.92-1.75 5.87h1c-.7-1.94-1.2-4-1.93-5.89-.15-.4-.79-.6-1-.13-.93 2-1.85 4-2.71 6h1c-.72-2-1.28-4.06-2.12-6-.19-.45-.86-.12-.76.33zM448.45 43.78a24.56 24.56 0 0 1 2.06-1.88l-.87-.5a60.72 60.72 0 0 1-.19 8.53c-.06.76 1.13.76 1.19 0a71.4 71.4 0 0 0 .16-8.53.58.58 0 0 0-.87-.49c-.74.43-2.55 1.65-2.3 2.66a.49.49 0 0 0 .82.21zM452.25 47.17c.28.31.71.26 1.1.25h1.48c.81 0 .8-1.3 0-1.25a18.22 18.22 0 0 1-2.21.14.52.52 0 0 0-.37.89zM461.58 44.09c-1.12-1.21-4.63-1.38-4.58.87a2.29 2.29 0 0 0 1 1.84 6.66 6.66 0 0 0 1.75.82c1.14.45 1.26 1.71-.09 1.9a2.44 2.44 0 0 1-1.91-.69c-.54-.5-1.35.31-.81.81a3.38 3.38 0 0 0 3.32.78 2.08 2.08 0 0 0 1.47-2.23c-.2-1.19-1.43-1.42-2.38-1.8-.58-.24-1.41-.67-1.35-1.43.08-1.09 2.38-.6 2.9-.18a.49.49 0 0 0 .7-.69zM463.92 42a18.23 18.23 0 0 0 .18 7c.28 1.05 1.15 1.94 2.16 1 .5-.45-.33-1.2-.78-.6-.21.28-.52-1.17-.53-1.25a21.81 21.81 0 0 1-.25-2.42 32.73 32.73 0 0 1 .11-3.7c0-.5-.81-.62-.89-.12z" fill="#1e1e1e"/><path d="M463.24 44.51a14.14 14.14 0 0 1 1.46.06 4.12 4.12 0 0 0 1.31 0c.72-.11.55-1.29-.17-1.25a16.84 16.84 0 0 0-2.75 0c-.65.13-.47 1.1.15 1.12zM468.37 45.14c.5-.15 1-.32 1.5-.43 1.16-.25 1.83.16 2 1.3s-.11 2.56 0 3.83c.06.75 1.25.76 1.18 0-.15-1.81.59-4.18-.72-5.72-1-1.21-3.22-.68-4.36.12-.43.3-.18 1.06.38.9z" fill="#1e1e1e"/><path d="M472.72 47.3c-1.06-1.74-5-1.76-5.17.66a2.27 2.27 0 0 0 1.92 2.36c1.28.24 2.61-.63 3.5-1.47.5-.46-.17-1.38-.74-1a11.25 11.25 0 0 1-1.56 1.1c-.78.4-2 .33-2.21-.75s1.06-1.37 1.89-1.19a7.18 7.18 0 0 1 1.76.86.45.45 0 0 0 .61-.61zM474.81 43.88a17.75 17.75 0 0 0 .16 2.91v2.93c0 .71 1 .69 1.09 0 .13-1.84.24-4.31-.52-6-.18-.39-.69-.13-.73.2z" fill="#1e1e1e"/><path d="M475.87 45.85a3.74 3.74 0 0 1 1.54-1.22.57.57 0 1 0-.44-1 3.51 3.51 0 0 0-1.89 1.8c-.17.44.49.8.79.46zM480 41.89a23.71 23.71 0 0 0-.18 3.86 14.86 14.86 0 0 0 .13 3.59 1.52 1.52 0 0 0 2.67.67c.59-.53-.3-1.43-.88-.87s-.68-1.56-.68-1.53v-1.86c0-1.24 0-2.5-.1-3.73-.05-.48-.83-.69-.92-.13z" fill="#1e1e1e"/><path d="M478.9 44.13c.27.49.91.44 1.41.46a8.48 8.48 0 0 0 1.95 0 .62.62 0 0 0 0-1.19 10.57 10.57 0 0 0-1.95 0c-.51 0-1.11-.07-1.41.42a.34.34 0 0 0 0 .35zM485.38 41.09a8.88 8.88 0 0 0 2.06.27l-.59-.59c0 2.06.08 4.13.11 6.2v3.76c0 .23-.12.78 0 1-.39-.7.79-.06 0-.45a5.42 5.42 0 0 0-1.56 0c-.8-.06-.81 1.25 0 1.25a14.11 14.11 0 0 0 2.25-.07.6.6 0 0 0 .4-.71c-.57-3.2 0-7.45-.08-10.93a.6.6 0 0 0-.59-.59 5.09 5.09 0 0 0-2.06.08.43.43 0 0 0 0 .83zM457.31 111.14a14.17 14.17 0 0 0 4.64.06c.66-.07 1.49-.18 1.5-1a3.91 3.91 0 0 0-1.5-2.5 2.59 2.59 0 0 0-2.61-.45c-1.91.82-2.62 3.75-1.55 5.44a3.51 3.51 0 0 0 5.28.4c.49-.57-.34-1.4-.83-.83a2.3 2.3 0 0 1-3.56-.4c-.6-1.09.06-3.6 1.56-3.65a2 2 0 0 1 1.64 1.09c.07.12.47.77.4.86.05-.07-.76-.07-.78-.07-1.35 0-2.71.07-4.06.13-.51 0-.67.81-.13.93zM465.62 107.68a10 10 0 0 0 0 2.79v3.13a.57.57 0 0 0 1.14 0v-3.36a7.4 7.4 0 0 0-.37-2.65c-.14-.32-.63-.21-.71.09z" fill="#1e1e1e"/><path d="M466.35 109.5c.93-.46 3.26-2 3.54-.18a21.59 21.59 0 0 1 0 4c0 .76 1.24.75 1.18 0-.09-1.16-.1-2.31-.16-3.46a3.13 3.13 0 0 0-.72-2.23c-1.08-1-3.55.36-4.34 1.21a.41.41 0 0 0 .49.64zM477.67 105.1a54 54 0 0 0-.26 8.44c0 .59 1 .79 1.09.15a27 27 0 0 0-.06-8.69c-.09-.48-.72-.3-.77.1z" fill="#1e1e1e"/><path d="M478.37 108.74a3.8 3.8 0 0 0-3.6-1.34 3 3 0 0 0-2.08 2.88 3.48 3.48 0 0 0 1.72 3.44c1.32.54 2.71-.38 3.46-1.42.26-.38-.25-.82-.61-.61-.6.35-1.26 1.06-2 1-1.13 0-1.51-1.56-1.47-2.44s.46-1.9 1.51-2a3.08 3.08 0 0 1 2.38 1.12c.46.46 1.07-.21.69-.69zM422.46 103.71a6.13 6.13 0 0 0-2.09-.12.45.45 0 0 0-.43.43c-.05 3.79 0 7.69-.29 11.47a.55.55 0 0 0 .55.55 7.58 7.58 0 0 0 1.58.07.63.63 0 1 0-.17-1.25l-1.41.08.55.55c.11-3.78.25-7.69.05-11.47l-.55.41a20.58 20.58 0 0 0 2.07.28.51.51 0 0 0 .14-1zM425.28 107.58a23.94 23.94 0 0 0 0 5.8.51.51 0 0 0 1 0 36.17 36.17 0 0 0-.18-5.8.42.42 0 0 0-.8 0z" fill="#1e1e1e"/><path d="M426.15 109.87c.11-.4.61-.69.93-.9a5.52 5.52 0 0 1 1.15-.55c.72-.25.42-1.39-.31-1.14-1 .35-2.75 1.27-2.45 2.59a.35.35 0 0 0 .68 0zM434.33 107.71a3.21 3.21 0 0 0-4.48 1.06c-.82 1.52-.61 4 1 4.91a3.62 3.62 0 0 0 4.68-1.24 3.3 3.3 0 0 0-1.22-4.63c-.54-.26-1.23.47-.69.89a2.55 2.55 0 0 1 1.21 2.61 2.4 2.4 0 0 1-3.11 1.56c-1.32-.42-1.49-2.15-1-3.31.51-1.32 2-1.36 3.2-1.11.39.08.81-.44.43-.74zM437.08 107.77c.71 2 1.37 4 2 6a.56.56 0 0 0 1 .14 38.46 38.46 0 0 0 2.29-6.09l-.94.24c1.12 1.42 1.47 4 2 5.69a.56.56 0 0 0 1 .13 8.35 8.35 0 0 0 .79-2.3c.41-1.33.83-2.65 1.32-4 .25-.67-.83-1-1.08-.29-.43 1.17-.79 2.37-1.17 3.56a9.08 9.08 0 0 1-.81 2.42l1 .14c-.62-2-1-4.55-2.3-6.19-.28-.35-.81-.1-.93.25a34 34 0 0 1-2.16 5.83l1 .13a38.8 38.8 0 0 0-2.17-6.13.51.51 0 0 0-.92.39zM448.22 107.57a15.1 15.1 0 0 0 2.37-1.94l-.92-.38c.07 2.77.12 5.54.08 8.31a.56.56 0 0 0 1.11 0c0-2.77 0-5.54-.11-8.31a.55.55 0 0 0-.92-.38 10.24 10.24 0 0 0-2.14 2.17c-.22.33.21.72.53.53zM452.41 111.13a2.11 2.11 0 0 0 1.27.16 7 7 0 0 0 1.29 0c.73-.17.46-1.12-.16-1.2a6.47 6.47 0 0 0-1.32 0 1.61 1.61 0 0 0-1.17.36.45.45 0 0 0 .09.7zM482.23 105.05a4 4 0 0 0 .91.06h.69c-.3-.48-.42-.56-.36-.22v2.55c0 2.69-.06 5.38-.13 8.07l.59-.59a9.92 9.92 0 0 0-2.1.28.62.62 0 0 0 .33 1.2 13.33 13.33 0 0 1 1.77-.29.62.62 0 0 0 .6-.6c0-2.43.08-4.86.1-7.29 0-1.14.3-2.85-.17-3.93a.54.54 0 0 0-.46-.29 6.5 6.5 0 0 0-1.76.07c-.46.09-.48.89 0 1zM422.59 215.16c-1 .09-2.15-.45-2.63.62-.32.73 0 2.28 0 3.05q0 4.13-.07 8.26a.56.56 0 0 0 .54.54 15.17 15.17 0 0 0 2.43 0c.71 0 .71-1.17 0-1.1a14.09 14.09 0 0 1-2.43 0l.53.54.06-7a22.23 22.23 0 0 1 0-3.74c.16-.77 0-.19 0-.2.52-.23 1.2.13 1.78-.16a.46.46 0 0 0-.23-.85zM480.57 216.05a2.58 2.58 0 0 0 2.09.23l-.74-.42c.46 1.8-.05 4.28-.14 6.11 0 1.15-.11 2.29-.18 3.44 0 .22 0 .8-.07 1 .24-.37-.71-.31-1.29-.32a.6.6 0 0 0 0 1.19 13.33 13.33 0 0 0 2-.08.57.57 0 0 0 .41-.41 27.64 27.64 0 0 0 .34-5.46c.08-1.78.51-4 .09-5.76a.61.61 0 0 0-.74-.42c-.51.07-1 .12-1.56.14a.42.42 0 0 0-.21.78zM426 216.82a9.4 9.4 0 0 1-.19 2c0 .57-.06 1.15-.06 1.72A13.32 13.32 0 0 0 426 224c.31 1.07 1.44 2 2.4 1a.52.52 0 0 0-.74-.74c-.52.43-.79-2.55-.8-2.83v-2.58c0-.69.5-2.09-.33-2.46a.38.38 0 0 0-.55.42z" fill="#1e1e1e"/><path d="M424.74 219.16a4.86 4.86 0 0 0 1.82.24 3.9 3.9 0 0 0 1.67-.12c.74-.33.1-1.42-.64-1.09.2 0 .16-.05-.11 0h-1.26a3.89 3.89 0 0 0-1.48.23.43.43 0 0 0 0 .75zM429.9 216a81.25 81.25 0 0 0-.14 8.69.58.58 0 0 0 1.15 0 38.73 38.73 0 0 0-.09-8.81c-.09-.57-.87-.36-.92.12z" fill="#1e1e1e"/><path d="M430.66 220.61c.82-.32 2.86-1.61 3.66-.9.48.41.2 1.61.17 2.2a20.37 20.37 0 0 0-.07 2.59c0 .57 1 .79 1.07.14a25.69 25.69 0 0 0 .26-4 2.2 2.2 0 0 0-.79-2.08 3.21 3.21 0 0 0-2.38 0 3.48 3.48 0 0 0-2.36 1.45c-.15.28.1.71.44.58zM437.72 218.72a5.94 5.94 0 0 0-.25 2.42v3.48a.62.62 0 0 0 1.24 0 43.87 43.87 0 0 0-.07-5.5.57.57 0 0 0-.4-.52h-.17a.35.35 0 0 0-.38.16zM437.5 216.84a.59.59 0 0 0 1-.55.61.61 0 0 0-1.16 0 .78.78 0 0 0 .37.91.63.63 0 0 0 .86-.23v-.05a.59.59 0 0 0-.09-.68l-.16-.13c-.2-.08-.2-.08 0 0l.18.43v-.08l-.76.58h.07l-.33-.25v.06l-.05-.39v.07l.21-.28h-.05a.41.41 0 0 0-.15.54zM440.91 218.63a7.82 7.82 0 0 0-.14 2.9v3.28c0 .79 1.19.78 1.22 0q.07-1.76 0-3.51a6 6 0 0 0-.41-2.76.36.36 0 0 0-.65.09z" fill="#1e1e1e"/><path d="M442 220.73a2.48 2.48 0 0 1 1.91-1.38c.65-.11.5-1.18-.16-1.16a2.65 2.65 0 0 0-2.5 2.34.41.41 0 0 0 .75.2zM450.9 216.54l.21-.15-.75-.58a23.74 23.74 0 0 0 0 9c.12.65 1.19.5 1.16-.15-.12-2.91-.07-5.78-.12-8.68a.51.51 0 1 0-1 .13v.25a.35.35 0 0 0 .51.21z" fill="#1e1e1e"/><path d="M450.73 219.27a3.13 3.13 0 0 0-3.72-.85c-1.31.75-1.59 2.39-1.45 3.77a2.94 2.94 0 0 0 2 2.8c1.39.33 2.2-.89 3-1.78.39-.44-.13-1.24-.67-.87a15 15 0 0 0-1.21 1.18c-1.09.93-1.81-.49-1.92-1.41s-.06-2.19.84-2.67 1.91.22 2.74.51c.42.14.62-.4.39-.68zM453.08 222.07a3.13 3.13 0 0 0 2.61 0 .61.61 0 0 0-.47-1.12 3.62 3.62 0 0 1-1 .15 4.61 4.61 0 0 0-1 0 .53.53 0 0 0-.13 1zM457.84 216.05c-.52 2.67-.13 5.73-.1 8.45a.67.67 0 0 0 1.34 0c0-2.72.29-5.79-.3-8.45a.49.49 0 0 0-.94 0zM461.43 219.29l.06-.07-.67.08-.13-.49a20.67 20.67 0 0 0 .06 5.93c.1.69 1.1.46 1.14-.15a30.39 30.39 0 0 0-.21-5.64c-.06-.44-.7-.76-.94-.26a.73.73 0 0 0-.06.48c.07.36.54.33.71.09zM461.16 217.19c.63 0 .82-.65.59-1.13a.6.6 0 0 0-1-.12.77.77 0 0 0-.2.75c.17.82 1.52.42 1.22-.33v-.09l-.06.48v-.07l-1 .12-.08-.39a.53.53 0 0 0 .45.78zM463.75 218.8a7.25 7.25 0 0 0-.09 2.75c0 1 .08 2 .15 3.07.06.77 1.22.78 1.2 0 0-1.09-.08-2.19-.14-3.29a6.82 6.82 0 0 0-.36-2.63c-.17-.35-.65-.2-.76.1z" fill="#1e1e1e"/><path d="M465 221c.33-.74 2.5-2.55 3.11-1.33a5.15 5.15 0 0 1 .13 2.11 21.79 21.79 0 0 1-.24 2.42c-.17 1.21 1.63 1.07 1.36 0v-.11a.64.64 0 0 0-1.07-.28l-.08.08 1.2.5a23.41 23.41 0 0 0 0-4.35 2.08 2.08 0 0 0-1.11-1.87c-1.68-.64-3.56 1.11-4.11 2.5-.18.45.6.79.8.33zM471.78 221.86a14.09 14.09 0 0 0 4.35.2c1.05 0 1.62-.54 1.46-1.67-.31-2.24-3.21-2.59-4.92-1.79-1.92.9-1.69 3.88-.59 5.32a3.45 3.45 0 0 0 5 .46c.57-.51-.28-1.35-.84-.84-2.65 2.42-5.69-2.89-2.91-3.94a3.52 3.52 0 0 1 1.82-.11 1.57 1.57 0 0 1 1 .7c.31.56 0 .57-.47.65-1.31.2-2.67-.14-4 .12a.47.47 0 0 0 0 .9zM423 344.84a18 18 0 0 0-2.2-.11.51.51 0 0 0-.51.51v7.16a23.29 23.29 0 0 0 0 4.09.61.61 0 0 0 .57.44c.68 0 1.36-.06 2-.09s.78-1.33 0-1.24a11.6 11.6 0 0 0-1.87.15c1-.3.11.86.39.08s-.07-2.15-.08-2.92v-7.67l-.52.52a16.15 16.15 0 0 0 2.2 0 .46.46 0 0 0 0-.91zM426.23 345.72c-.51 2.84-.17 5.95-.19 8.83a.57.57 0 0 0 1.13 0c0-2.88.37-6-.1-8.83a.44.44 0 0 0-.84 0zM429.58 349.52a11.53 11.53 0 0 1 1.6-.53 2.42 2.42 0 0 1 1-.09c.69.16.94 1 1 1.65.15 1.31.16 2.65.18 4 0 .76 1.23.75 1.18 0-.08-1.17-.11-2.34-.21-3.51a4.48 4.48 0 0 0-.7-2.58c-1.06-1.24-3.31-.55-4.43.24-.4.28-.17 1.05.36.85z" fill="#1e1e1e"/><path d="M434.08 351.73a4.46 4.46 0 0 0-3.53-1.16 1.93 1.93 0 0 0-1.73 2c.37 2.72 3.55 2.69 5.23 1.25.47-.41-.17-1.27-.68-.88-1 .78-3.3 1.56-3.45-.5s3-.3 3.79-.07a.39.39 0 0 0 .37-.65zM441 348.94c-1-1.49-4.62-1.41-4.75.77a2.09 2.09 0 0 0 1.53 1.92c.71.26 2.19.31 2.24 1.35.06 1.46-2.28 1-2.81.3a.55.55 0 1 0-.87.68c1.23 1.47 4.63 1.61 4.79-.83a2.11 2.11 0 0 0-1.53-2.08c-.72-.28-2.3-.31-2.17-1.33.17-1.28 2.32-.61 3-.16.36.25.85-.25.61-.62zM443.5 346.29a8.12 8.12 0 0 0-.41 3.22 20.55 20.55 0 0 0 .17 4 1.52 1.52 0 0 0 2.42 1.16c.66-.33.08-1.26-.57-1-1.07.46-.91-3.54-.91-3.88a13.26 13.26 0 0 0-.08-3.45c-.07-.26-.5-.36-.62-.08z" fill="#1e1e1e"/><path d="M442.16 348.61v.06a.62.62 0 0 0 .55.42c.88.11 1.78.13 2.67.16a.63.63 0 0 0 0-1.26c-.89 0-1.78-.05-2.67 0a.55.55 0 0 0-.49.28.52.52 0 0 0-.08.37zM446.74 351.93a1.85 1.85 0 0 0 1.31.11c.51-.06 1 .06 1.5 0 .67-.13.5-1 0-1.19a3 3 0 0 0-1.49 0 4 4 0 0 0-1.32.35.44.44 0 0 0 0 .75zM451.43 345.75c-.35 2.83.09 5.91 0 8.77 0 .75 1.13.74 1.16 0 .08-2 .12-3.94.05-5.91 0-.89.27-2.66-.63-3.18a.39.39 0 0 0-.57.32zM454.58 348.36a29.22 29.22 0 0 0-.07 6.06.57.57 0 0 0 1.13 0 36 36 0 0 0-.16-6.06c-.06-.44-.83-.44-.9 0zM454.85 345.82a.55.55 0 0 0-.27.48.46.46 0 0 0 .45.46.62.62 0 0 0 .5-.95.55.55 0 0 0-.72-.19.59.59 0 0 0-.27.27c-.2.46.25 1.09.75.76h.08a.54.54 0 0 0-.41-1h-.09l.7.53v-.06l-.15.38-.64.08h.06l-.24-.3.08-.29h.65l-.05-.06.12.3v-.07a.39.39 0 0 0-.58-.33zM457.84 348.16a8 8 0 0 0-.22 2.86v3.23a.6.6 0 0 0 1.19 0v-3.23a8.27 8.27 0 0 0-.25-2.86.36.36 0 0 0-.69 0z" fill="#1e1e1e"/><path d="M458.52 350.09c.37-.19.66-.49 1-.69a2.13 2.13 0 0 1 .76-.32 1.2 1.2 0 0 1 1.38 1.06 13.21 13.21 0 0 1 .34 4.11c0 .81 1.29.82 1.27 0a24 24 0 0 0-.33-3.79 3.35 3.35 0 0 0-1.14-2.34c-1.14-.76-3.56.2-3.85 1.55a.38.38 0 0 0 .55.42zM465 351.88c1.75.09 3.52-.07 5.27 0a.64.64 0 0 0 .6-.79c-.38-1.37-1.1-3.23-2.77-3.32a3.79 3.79 0 0 0-3.51 2.43 3.48 3.48 0 0 0 1.28 3.73 4.38 4.38 0 0 0 4.53.39c.7-.32.09-1.37-.61-1-1.67.79-4.43-.1-4.25-2.32a2.46 2.46 0 0 1 2.4-2c1.08.09 1.48 1.65 1.73 2.49l.6-.79a28.73 28.73 0 0 0-5.41.24c-.61.12-.42 1 .14 1zM473.67 345.63a5.07 5.07 0 0 0 2.09.16l-.53-.54c-.09 3.69 0 7.4-.35 11.08l.58-.58c-.61 0-1.23 0-1.84-.07-.77 0-.78 1.21 0 1.2h1.84a.57.57 0 0 0 .57-.57c-.12-3.69.16-7.39.27-11.08a.54.54 0 0 0-.54-.53 5.07 5.07 0 0 0-2.09.16.44.44 0 0 0 0 .75z" fill="#1e1e1e"/></svg>