<svg xmlns="http://www.w3.org/2000/svg" viewBox="0 0 490 356"><path d="M389.12 261.1c14.84-17.55 2-47.71 6.11-75.28.39-8.28 0-109.71.12-114.54 0-1 18.87-59.75-42.93-46.25-1.74-.2-155.17-4.86-193.6-3.51-29.41-12.41-44.27 11.48-102.35.27-50.8-5.42-35 25.82-35 25.89-12.65 15 .17 28.14-.13 30.81-1.2 10.76-1.07 68.72-1.94 70.61-2.18 4.71-8.58 24-1 43.66-6.89 12.68 3.49 42.41-1.13 82.63 2.63 19 24.7 29.46 60 20.32 27.09 11.87 97.76.37 151 2.66 23.69-.19 89.07-3.08 90.78-3.36-.23 7.12 52.68 6.19 58.44 5.68 25.76-1.82 21.17-32.84 11.63-39.59z" fill="#fff"/><path d="M62.88 22.43c-1.24 21.68-.37 267.45-.3 274.26a1.28 1.28 0 0 0 2.55 0c-.23-21.52-.89-154.38-.76-199.28.08-25 1-50 .46-75a1 1 0 0 0-1.95 0zM114.69 23.16c-.72 21.78-.06 43.66-.07 65.45 0 23.63-.71 200.6-.76 208.08a1.28 1.28 0 0 0 2.55 0c.15-21.4.33-42.81.42-64.22.19-44.94.94-184.55-.19-209.31a1 1 0 0 0-2 0zM294.7 23.16c-.72 21.86-.14 113.2-.21 137q-.19 57.42-.56 114.85c-.05 7.54 0 15.08-.06 22.62a1.28 1.28 0 0 0 2.55 0c.14-20.8 1.36-249.59.23-274.42a1 1 0 0 0-1.95 0zM349.35 296.69c1-21.89.32-266.12.3-273.53a1.28 1.28 0 0 0-2.55 0c.06 21.18-.56 248.58.3 273.53a1 1 0 0 0 2 0z" fill="#1e1e1e"/><path d="M391.89 83.59C337.11 82.06 31 84 19 84a1.25 1.25 0 0 0 0 2.5c33.67-.2 345.69-.83 372.92-1a1 1 0 0 0 0-1.92zM393.47 180.27c-56.43.75-362.85.54-374.5.44a1.26 1.26 0 0 0 0 2.51c33.18.27 346.19.34 374.5-1a1 1 0 0 0 0-1.92z" fill="#1e1e1e"/><path d="M402.86 26.33h-4.67a.4.4 0 0 0 0 .8h4.67a.4.4 0 0 0 0-.8zM411.92 26.25c-1.79 0-3.58 0-5.38.06a.4.4 0 0 0 0 .8c1.8 0 3.59 0 5.38-.06a.4.4 0 0 0 0-.8zM402.86 84h-4.67a.4.4 0 0 0 0 .8h4.67a.4.4 0 0 0 0-.8zM411.92 83.92l-5.38.06a.4.4 0 0 0 0 .8l5.38-.06a.4.4 0 0 0 0-.8zM402.86 180.87h-4.67a.4.4 0 0 0 0 .8h4.67a.4.4 0 0 0 0-.8zM411.92 180.79c-1.79 0-3.58 0-5.38.06a.4.4 0 0 0 0 .8c1.8 0 3.59 0 5.38-.06a.4.4 0 0 0 0-.8zM402.86 294.16h-4.67a.4.4 0 0 0 0 .8h4.67a.4.4 0 0 0 0-.8zM411.92 294.08c-1.79 0-3.58 0-5.38.06a.4.4 0 0 0 0 .8c1.8 0 3.59 0 5.38-.06a.4.4 0 0 0 0-.8z" fill="#757575"/><path d="M7.46 323.78a6.23 6.23 0 0 0 3.2.33c.73-.12.5-1.18-.17-1.22a13.43 13.43 0 0 0-3 .19c-.39.07-.28.58 0 .7zM13 320.2a.71.71 0 0 0-.36 1.2.61.61 0 0 0 1-.42.57.57 0 0 0-.64-.78zM25.27 323.43a1.93 1.93 0 0 0 1.48.59 3.2 3.2 0 0 0 1.79-.06.54.54 0 0 0 0-.92 5.12 5.12 0 0 0-1.61-.19 2.61 2.61 0 0 0-1.52 0 .39.39 0 0 0-.14.54z" fill="#1e1e1e"/><path d="M11.24 320.15c-1.32-.79-2.42-.25-2.72 1.26a17.82 17.82 0 0 0 0 3.1c0 1.51-.08 3-.14 4.54 0 .8 1.3.8 1.25 0-.09-1.3-.17-2.59-.23-3.89 0-.66-.48-4.94 1.34-4.13.58.27 1.09-.54.5-.88zM13.45 323.12c-.11-.4-.81-.47-.87 0a15.44 15.44 0 0 0 0 2.72c0 1 0 2 .09 3.05a.56.56 0 0 0 1.11 0 20.72 20.72 0 0 0 0-3.05 12.37 12.37 0 0 0-.33-2.72zM18.31 322.8a4.13 4.13 0 0 0-1.82 1.28c0-.34-.06-.69-.12-1-.09-.56-.87-.36-.92.12a53.7 53.7 0 0 0 0 5.95.56.56 0 0 0 1.12 0c.17-1.83-.44-4.78 1.95-5.45.6-.17.33-1.1-.21-.9zM23.16 325.79c-.53-.37-1.26-.32-1.75-.64-1.1-.72-.41-1.41.41-1.53a2.45 2.45 0 0 1 1.68.51c.39.22.94-.24.65-.65-1.16-1.62-4.12-1.33-4.5.83a1.61 1.61 0 0 0 1.35 1.84c.71.23 1.62.28 2 1 .71 1.31-1.88 1.84-2.37.55a.58.58 0 0 0-1.11.31c.48 1.91 4 2.38 4.64.33a2.33 2.33 0 0 0-1-2.55zM28.3 328.27c-.44.47-.66-1.51-.68-1.8-.06-.7-.07-1.4-.06-2.1a17.58 17.58 0 0 0 .06-3.4.41.41 0 0 0-.74-.09 8.66 8.66 0 0 0-.58 3.79 11.51 11.51 0 0 0 .34 3.84c.43 1.2 2.15 1.81 2.61.31a.57.57 0 0 0-.95-.55zM34.09 319.85a.57.57 0 0 0-.41-.41 7.1 7.1 0 0 0-2.25-.1.51.51 0 0 0 0 1c.45.05 1.79.24 1.51-.13.11.15 0 3.62 0 4.86 0 1.78-.06 3.56-.09 5.34h-1.6c-.79 0-.79 1.26 0 1.23l2.17-.08A.6.6 0 0 0 34 331c0-1.9.07-3.8.1-5.69a35.68 35.68 0 0 0-.01-5.46zM5.33 330c-.51 0-1 .08-1.52.1 0-1.81 0-3.62.06-5.44v-3.72a4.42 4.42 0 0 1 0-1.15A3.08 3.08 0 0 0 5 320c.53-.05.75-.91.13-1a3.5 3.5 0 0 0-1.9 0 .61.61 0 0 0-.44.57c0 3.74 0 7.48-.09 11.21a.59.59 0 0 0 .58.58 16.37 16.37 0 0 0 2.1-.06c.72-.13.76-1.3-.05-1.3zM47.78 319.31l-2.17.08a.59.59 0 0 0-.61.61l-.15 11a.6.6 0 0 0 .59.59 13.29 13.29 0 0 0 2.09.08c.54 0 .73-.91.14-1s-1.09-.14-1.63-.19c0-3.3.08-6.6.12-9.9h1.59a.62.62 0 0 0 .03-1.27zM84.74 319.66a16.36 16.36 0 0 0-2.1 0c-.76.1-.81 1.31 0 1.24l1.52-.11c0 2-.09 10-.08 10.16-.21-.17-.86 0-1.19 0-.52.09-.47.88 0 1a3.34 3.34 0 0 0 2-.08.58.58 0 0 0 .29-.51c0-3.74 0-7.48.09-11.21a.57.57 0 0 0-.53-.49zM51.16 320.51a51.1 51.1 0 0 0 0 8.57c0 .79 1.29.79 1.23 0-.2-2.86 0-5.72-.18-8.57a.54.54 0 0 0-1.05 0zM54.31 323.14c-.17 1.93.06 3.95 0 5.9a.62.62 0 0 0 1.23 0 23 23 0 0 0-.23-6c-.14-.65-1-.44-1 .1zM54.54 321.4a.51.51 0 0 0 .66-.09.65.65 0 0 0 0-.9c-.33-.34-.77-.15-1 .18a.52.52 0 0 0 0 .55v.07a.56.56 0 0 0 .34.19zm.51-.78zM62.09 322.69c-1.09-.73-2.67.08-3.58 1.08q0-.37-.12-.75v-.1c-.13-.4-.87-.54-1 0a16.57 16.57 0 0 0 0 3.15 27.94 27.94 0 0 0 .18 3.17c.11.68 1.1.45 1.14-.15a27.08 27.08 0 0 0-.08-3.25v-.89c.86-.77 2.9-2 3.21-.26a15.64 15.64 0 0 1 .09 4.48c-.09.82 1.28.85 1.32 0a25.26 25.26 0 0 0-.16-4.26 2.9 2.9 0 0 0-1-2.22zM68.41 322.74a3.75 3.75 0 0 0-3.6 2.38 3.41 3.41 0 0 0 1.31 3.77 4 4 0 0 0 4.48 0c.71-.42 0-1.55-.64-1.1-1.44.95-3.85.53-4.18-1.22 1.57.07 3.16 0 4.73.11a.65.65 0 0 0 .62-.82c-.23-1.49-.95-3.19-2.72-3.12zm-2.56 2.73a2.3 2.3 0 0 1 2.23-1.56c1 0 1.42.65 1.64 1.45a25 25 0 0 0-3.87.11zM79 328.14a38.08 38.08 0 0 0-3.85-.05c1.93-1.64 4.06-3.59 3.77-6.24-.32-3-4.34-2.11-5.83-.6-.5.5.24 1.22.76.77.9-.78 3.45-1.89 3.9 0a3.83 3.83 0 0 1-.58 2.2c-.88 1.64-2.78 2.9-4.15 4.11a.61.61 0 0 0 .42 1 41.26 41.26 0 0 1 5.56.12c.83.09.84-1.25 0-1.31zM98 330.42a6.34 6.34 0 0 1-1.29.29l.21-10.31a3.8 3.8 0 0 1 1 0c.51.05.62-.77.12-.88a2.92 2.92 0 0 0-1.63-.11.53.53 0 0 0-.51.51q-.14 5.69-.29 11.36a.53.53 0 0 0 .54.54 19.48 19.48 0 0 0 2.15-.29c.77-.11.46-1.32-.3-1.11zM134.68 326.09c0-2 0-4.08-.05-6.12a.62.62 0 0 0-.6-.6c-.77-.06-1.69-.34-2.34.17-.37.29 0 .87.36.88h.07a6.59 6.59 0 0 1 1.32.08c.06 2 0 4 .05 6.06v3.54a5.35 5.35 0 0 1 0 .65c-.15-.31-1.41-.06-1.76-.07-.74 0-.71 1.21 0 1.13s1.54 0 2.29-.12c.23 0 .52-.16.56-.43a33 33 0 0 0 .1-5.17zM102.08 320.68a.33.33 0 0 0-.62 0 13 13 0 0 0-.25 3.94v4.5a.55.55 0 0 0 1.09 0v-4.5a12.66 12.66 0 0 0-.22-3.94zM104.46 323.29c-.19 1.81 0 3.75 0 5.57 0 .81 1.17.79 1.24 0a18.47 18.47 0 0 0-.22-5.7c-.19-.58-.96-.4-1.02.13zM104.81 321.32a.49.49 0 0 0 .49-.12s.24-.35.17-.27l.08-.17a.5.5 0 0 0-.35-.61.63.63 0 0 0-.68.19.59.59 0 0 0 .29.98zM113 324.23a1.92 1.92 0 0 0-2-1.58 2.65 2.65 0 0 0-2.4 1.58c0-.36 0-.72-.09-1.07a.47.47 0 0 0-.94 0 47.42 47.42 0 0 0 0 5.84.53.53 0 0 0 1.06 0c.1-1.2.33-5.73 2.33-5.31 1.21.25 1 1.55 1 2.47v2.62c0 .87 1.3.81 1.26 0a23.81 23.81 0 0 0-.22-4.55zM118.77 322.58a3.75 3.75 0 0 0-3.54 2.53 3.8 3.8 0 0 0-.18.7.5.5 0 0 0 0 .38c-.1 2.81 3.44 5 5.85 3.09.57-.45-.24-1.28-.81-.81-1.53 1.25-3.74-.2-4-1.92 1.54.14 3.15 0 4.68 0a.6.6 0 0 0 .6-.6 3.09 3.09 0 0 0-2.6-3.37zm-2.53 2.88s0-.08.05-.13a3 3 0 0 1 2-1.62 1.8 1.8 0 0 1 1.83 1.66 31.37 31.37 0 0 0-3.88.09zM128.67 321.42c-.9-2.38-4.35-1.36-5.74-.12-.4.36.11 1 .56.72s4.57-2.08 4.09.63c-.21 1.2-2 1.47-2.92 1.64-.61.12-.46 1.09.14 1.07a4 4 0 0 1 1.33.07c.87.29 1.77 1.45 1.19 2.42a2.18 2.18 0 0 1-3.67-.23c-.28-.6-1.18-.08-.89.52a3.27 3.27 0 0 0 5.49.26 2.81 2.81 0 0 0 0-3 2.32 2.32 0 0 0-.93-.78 2.49 2.49 0 0 0 1.35-3.2zM262.47 320.59c.51 0 .69-.85.13-.95a14.74 14.74 0 0 0-2.1-.17.53.53 0 0 0-.53.53c.16 2.37.12 4.74.1 7.11a30.26 30.26 0 0 0 0 4 .43.43 0 0 0 .31.3 15.24 15.24 0 0 0 1.92.22c.72.07.75-1.16 0-1.15-.21 0-1.18-.13-1.39.1 0-.15.19-7.79.16-10.06a11.5 11.5 0 0 0 1.4.07zM269.54 328a2.48 2.48 0 0 1-4.06-1.64c-.21-2.47 2.42-2.86 4.18-2.06a.43.43 0 0 0 .58-.59c-.62-1.19-2.55-1.1-3.66-.77a3.29 3.29 0 0 0-2.18 3.09 3.57 3.57 0 0 0 5.7 2.93c.57-.38.01-1.34-.56-.96zM277.4 323.8c-.79-1.45-2.94-1.64-4.27-.78a3.59 3.59 0 0 0-.87 5.08c1 1.34 3 2.31 4.4 1s2.33-3.54 1-5.19a.41.41 0 0 0-.26-.11zm-1.1 4c-.95 1.2-2.28.8-3.14-.34a2.54 2.54 0 0 1 .36-3.55c1.26-1 2.29-.26 3.24.6v.08c.77 1.15.31 2.27-.46 3.24zM279.52 320.58a71.07 71.07 0 0 1 0 8.51c-.07.77 1.13.76 1.2 0a38 38 0 0 0-.06-8.66c-.14-.62-1.16-.43-1.14.15zM288.74 326h-.68v-1.21a15.69 15.69 0 0 0-.34-4.28.41.41 0 0 0-.68-.39 13 13 0 0 0-2.32 2.89c-.77 1.1-1.47 2.24-2.14 3.4a.6.6 0 0 0 .51.9c1.21 0 2.45.1 3.68.08V329c0 .54 1.08.87 1.2.16a11.29 11.29 0 0 0 .15-1.83h.67a.62.62 0 0 0-.05-1.33zm-4.63.05c.46-.78.92-1.57 1.42-2.33.37-.55.79-1.1 1.19-1.66v3.91zM293.12 325.56a5.27 5.27 0 0 0-1.82.12c-.3.11-.48.61-.11.77a5.45 5.45 0 0 0 1.93.23c.72.03.72-1.11 0-1.12zM296.74 325.27c-.6-.19-1-.3-.92-1 .2-1.62 2.34-.51 3.09-.05.46.29.88-.34.56-.72-1.54-1.78-5.45-1.36-4.56 1.59.27.9 1.26 1.12 2.06 1.4.49.16 1.36.31 1.67.8.67 1.09-1.1 1.38-1.68 1.28a2.3 2.3 0 0 1-1.44-.82c-.45-.53-1.29.31-.76.77a3.68 3.68 0 0 0 3.8.67c1.07-.36 1.84-1.3 1.12-2.4s-1.88-1.2-2.94-1.52zM303.72 328.34c-1.39.67-1-3.12-1-3.68v-.92a2.22 2.22 0 0 0 1.3-.16.55.55 0 0 0-.28-1h-1v-1.28a.49.49 0 0 0-1 0c0 .42-.06.85-.09 1.29a2 2 0 0 0-1 .23.45.45 0 0 0 .11.81 2.17 2.17 0 0 0 .78.12 16.7 16.7 0 0 0 .18 4.38 1.56 1.56 0 0 0 2.3 1.26.56.56 0 1 0-.3-1.05zM306 323.56a.4.4 0 0 0 .39.67c1.41-.23 3.44-1.17 3.64 1.08v.39c-1.65-.93-4.62-.53-4.45 1.74s2.8 2.24 4.41 1.31v.41c0 .76 1.2.76 1.19 0 0-1.15.07-2.29 0-3.43a3.35 3.35 0 0 0-.78-2.51 3.53 3.53 0 0 0-4.4.34zm4.05 3.79a3 3 0 0 1-1.48.88c-.77.19-2 0-1.94-1 .06-1.62 2.34-.76 3.44-.48v.58s-.07.01-.07.02zM315.31 322.67a4.94 4.94 0 0 0-1.45.82c-.08.08-.14.16-.21.24 0-.23 0-.47-.1-.7-.12-.55-.89-.37-.93.13-.16 1.88.15 3.81.15 5.69 0 .72 1.15.71 1.12 0-.05-1.24 0-2.52-.1-3.77a4.74 4.74 0 0 1 1.81-1.36c.64-.25.4-1.31-.29-1.05zM320 328.08c-1.12.78-1-3.61-1-3.85V324a5 5 0 0 0 1.44-.05.58.58 0 0 0 0-1.11 6.83 6.83 0 0 0-1.43-.07 12.11 12.11 0 0 0-.09-1.59c-.06-.44-.8-.42-.87 0a13.23 13.23 0 0 0-.16 1.53 4.85 4.85 0 0 0-.66 0 .53.53 0 0 0-.14 1 5 5 0 0 0 .77.17v.61a11.7 11.7 0 0 0 .23 3.54c.36 1.2 1.64 2 2.66 1 .47-.47-.16-1.35-.75-.95zM325.28 319.9a.6.6 0 0 0-.42-.55 4 4 0 0 0-2 .11.46.46 0 0 0 .12.9c-.07 0 1.13-.17 1.15-.16.07.25-.06 3.73-.09 5.1s-.09 4.87-.1 5.15h-1.12c-.86 0-.85 1.41 0 1.34.56-.05 1.12-.06 1.68-.1.31 0 .66-.27.62-.62-.12-1.18 0-3.43.06-5.13a51.08 51.08 0 0 0 .1-6.04zM339.3 323.49c.38.39.9.2 1.39.23a8.42 8.42 0 0 0 1.81 0 .56.56 0 0 0 .15-1.09 2.31 2.31 0 0 0-1 0c-.33 0-.65-.07-1-.07a1.69 1.69 0 0 0-1.45.45.39.39 0 0 0 .06.47zM344.8 320.41a.59.59 0 0 0-.57.84.71.71 0 0 0 0 .25.46.46 0 0 0 .67.27.9.9 0 0 0 .44-.8.58.58 0 0 0-.54-.56zM337.49 319.4a4.69 4.69 0 0 0-1.79.05c-.24 0-.52.21-.49.5a72.77 72.77 0 0 1-.11 11.34.55.55 0 0 0 .55.54 8.89 8.89 0 0 0 1.71 0c.74 0 .74-1.17 0-1.14a11.81 11.81 0 0 1-1.19 0c-.15-3.43.31-6.9.06-10.32l1.26-.06a.48.48 0 0 0 0-.91zM364.69 319.42c-.63.05-1.26.07-1.88.11a.38.38 0 0 0-.1.74 7 7 0 0 0 1.34.26c-.34 3.33-.12 6.72-.34 10.07l-1.5.09a.63.63 0 1 0 .17 1.25 9.17 9.17 0 0 1 1.89-.17.62.62 0 0 0 .6-.6c.3-3.71.21-7.45.4-11.16a.59.59 0 0 0-.58-.59z" fill="#1e1e1e"/><path d="M343.16 320.1c-1.52-.38-2.3.45-2.52 1.92a45.33 45.33 0 0 0-.06 7.09.6.6 0 0 0 1.19 0c0-1.27-.15-2.53-.2-3.8s-.48-4.37 1.46-4.28a.48.48 0 0 0 .13-.93zM345.08 322.94c-.17-.33-.59-.19-.71.1a7.19 7.19 0 0 0-.13 2.82c0 1.06 0 2.12.12 3.17a.55.55 0 0 0 1.09 0c.07-1.13 0-2.27 0-3.4a6.1 6.1 0 0 0-.37-2.69zM352.12 322.66l-2 4.59c-.39-.67-.78-1.35-1.16-2a8.25 8.25 0 0 0-1.58-2.53c-.22-.18-.66-.08-.63.26a7.64 7.64 0 0 0 1.12 2.67c.57 1.09 1.18 2.16 1.81 3.22a.59.59 0 0 0 1 0q1.21-2.8 2.42-5.59c.32-.71-.68-1.28-.98-.62zM355.77 322.88a3.89 3.89 0 0 0-1.41 5.24c1.08 1.71 4.14 1.54 5.56.41.62-.49-.28-1.44-.88-.88a2.75 2.75 0 0 1-2.15.46c-.88-.06-1.55-.27-1.8-1.2a2.42 2.42 0 0 1-.07-.47c1.41-.26 2.83.09 4.25 0a1 1 0 0 0 1-1.4 3.09 3.09 0 0 0-4.5-2.16zm2.27 2.33a11.44 11.44 0 0 0-2.87.11 2.33 2.33 0 0 1 1.89-1.64 1.74 1.74 0 0 1 1.77.91 2.16 2.16 0 0 0 .29.66c-.31.01-1.01-.04-1.12-.04zM380.24 330.76c-.13 0-1.37 0-1.51.22v-.56c-.08-1.05 0-2.15 0-3.2 0-1.39.06-2.77 0-4.16 0-.57-.05-1.13-.08-1.7-.09-1.27.11-1.07 1.36-.94.59.06.69-.88.13-1a5.41 5.41 0 0 0-2.37-.08.59.59 0 0 0-.43.56c.29 2.43.36 4.9.43 7.34a38.84 38.84 0 0 0 0 4.18.49.49 0 0 0 .33.34 14.39 14.39 0 0 0 2.08.23c.82.01.82-1.3.06-1.23zM410.08 320a.61.61 0 0 0-.6-.6 15.55 15.55 0 0 0-1.67.07.55.55 0 0 0 0 1.05 7.59 7.59 0 0 0 1.07.07c0 3.31 0 6.65.33 9.95h-1.67c-.77 0-.77 1.24 0 1.2s1.5-.06 2.26-.07a.56.56 0 0 0 .54-.54c-.34-3.71-.24-7.41-.26-11.13zM387.43 326.57c.65-.08 1.48-.19 1.49-1a3.86 3.86 0 0 0-1.49-2.5 2.59 2.59 0 0 0-2.61-.45 3.69 3.69 0 0 0-2 3c-.43.11-.54.79 0 .9a3.32 3.32 0 0 0 .48 1.54 3.5 3.5 0 0 0 5.27.4c.49-.57-.33-1.4-.83-.83a2.3 2.3 0 0 1-3.56-.4 1.71 1.71 0 0 1-.17-.54 17.29 17.29 0 0 0 3.42-.12zm-1.72-3a2 2 0 0 1 1.64 1.09c.08.12.47.77.41.86.05-.07-.76-.07-.78-.07l-3 .1c.21-1 .81-1.96 1.73-1.99zM395.67 323c-.85-.77-2.57-.09-3.65.65a3.64 3.64 0 0 0-.22-.71c-.13-.32-.62-.21-.7.09a9.65 9.65 0 0 0 0 2.79v3.14a.57.57 0 0 0 1.13 0v-3.37-.9c1.06-.58 3-1.68 3.22 0a20.76 20.76 0 0 1 0 4c0 .76 1.24.75 1.18 0-.1-1.16-.11-2.31-.16-3.46a3.18 3.18 0 0 0-.8-2.23zM403.65 320.46c-.12.91-.19 1.87-.23 2.83a3.77 3.77 0 0 0-2.68-.53 3 3 0 0 0-2.07 2.88c-.08 1.27.44 2.91 1.71 3.44a2.82 2.82 0 0 0 3-.87v.69c0 .6 1 .79 1.09.15a27 27 0 0 0-.05-8.69c-.09-.48-.72-.3-.77.1zm-.41 6.59c-.61.35-1.26 1.06-2 1-1.13 0-1.52-1.55-1.48-2.44s.47-1.9 1.51-2a2.81 2.81 0 0 1 2.09.85v2.49z" fill="#1e1e1e"/><path d="M64.36 307.19v-4.68a.4.4 0 0 0-.8 0v4.68a.4.4 0 0 0 .8 0zM64.44 316.25l-.06-5.38a.4.4 0 0 0-.8 0l.06 5.38a.4.4 0 0 0 .8 0zM294.17 311.57v4.68a.4.4 0 0 0 .8 0v-4.68a.4.4 0 0 0-.8 0zM294.09 302.51c0 1.8.05 3.59.06 5.38a.4.4 0 0 0 .8 0c0-1.79 0-3.58-.06-5.38a.4.4 0 0 0-.8 0zM348.68 307.19v-4.68a.4.4 0 0 0-.8 0v4.68a.4.4 0 0 0 .8 0zM348.76 316.25c0-1.8 0-3.59-.06-5.38a.4.4 0 0 0-.8 0c0 1.79 0 3.58.06 5.38a.4.4 0 0 0 .8 0zM391.92 307.19v-4.68a.4.4 0 0 0-.8 0v4.68a.4.4 0 0 0 .8 0zM392 316.25l-.06-5.38a.4.4 0 0 0-.8 0l.06 5.38a.4.4 0 0 0 .8 0zM116 307.69v-5.18a.4.4 0 0 0-.8 0v5.18a.4.4 0 0 0 .8 0zM116.08 316.25c0-1.63 0-3.25-.06-4.88a.4.4 0 0 0-.8 0c0 1.63 0 3.25.06 4.88a.4.4 0 0 0 .8 0zM19.79 307.19v-4.68a.4.4 0 0 0-.8 0v4.68a.4.4 0 0 0 .8 0zM19.87 316.25c0-1.8 0-3.59-.06-5.38a.4.4 0 0 0-.8 0c0 1.79 0 3.58.06 5.38a.4.4 0 0 0 .8 0z" fill="#757575"/><path d="M395.05 261q-.07-36-.11-71.94l-.2-144.72c0-6.41 2.32-16.2-3.13-20.33-1.75-1.33-3.78-1.39-5.89-1.57-4.62-.41-44.66-.77-58-.77l-285 .08c-7.17 0-22-2.39-23.84 7.42a.76.76 0 0 0 0 .26c-1.16 12.34-.23 25.21-.28 37.57-.11 27-.69 216.37-.55 219.08s.18 6.09 1.84 8.25c2.19 2.85 8 2.8 11.27 3.22 5.77.73 11.58.54 17.37.52 16.83-.06 331.75-.86 337.29-1.64 4-.56 7.34-1.81 8.47-6s.77-23.99.76-29.43zm-2.22 16.63c-.08 5.74.8 14.58-6.08 16.45-6 1.65-27.61.83-31.3.85-18.54 0-166.74.47-222.31.65-22 .07-92.31 1.27-104.9-.67-2.57-.39-5.66-.3-7.07-2.93-.84-1.58-.79-4.11-.88-5.84-.13-2.33-.1-9.11-.1-10.17 0-6.4-.19-243.34.06-246.36v-.05c1.83-8.94 19.65-6 26.43-5.95 1.1 0 316.45.13 321 .15 1.07 0 18.25.56 19.86.94 5 1.21 5.39 5.67 5.26 10.18-1.13 38.44-.07 77.05 0 115.51-.03 42.38.62 84.82.03 127.22zM420.59 20.63a12.15 12.15 0 0 0-2.47-.42.49.49 0 0 0-.49.49q-.31 5.85-.26 11.71a.53.53 0 0 0 .52.52h2.2a.55.55 0 0 0 0-1.1h-1.69c-.07-3.54 0-7.09.19-10.63.63.07 1.26.13 1.9.16a.39.39 0 0 0 .1-.73zM426.27 23.84a4.33 4.33 0 0 0-1.82.77l-.1.07c0-.23 0-.47-.07-.7-.09-.56-.89-.37-.92.12-.16 2 0 4.11 0 6.15 0 .64.95.63 1 0a41.84 41.84 0 0 0 .11-4.35c.11-.07.6-.44.77-.56a2 2 0 0 1 1.2-.39.56.56 0 1 0-.17-1.11zM433.26 24.61c-1.48-1.46-3-1.35-4.51-.09a3.35 3.35 0 0 0-.48 4.72 3 3 0 0 0 4.27.86c1.52-1.19 1.69-3.59 1-5.24a.43.43 0 0 0-.28-.25zm-1 4c-.8 1.27-2.3 1-3.17-.06a2.21 2.21 0 0 1 .22-3.14c1.06-1 1.92-.84 3.07-.22v.1a3.76 3.76 0 0 1-.08 3.3zM443.49 24a92.85 92.85 0 0 1-1.27 4.32c-.46-1.45-.88-2.91-1.42-4.33-.15-.4-.79-.61-1-.14q-1.11 2.34-2.13 4.69c-.52-1.57-1-3.16-1.66-4.68-.2-.44-.87-.11-.77.33.48 2 1.25 4 1.84 6 .13.41.78.57 1 .13q1.06-2.34 2.14-4.67c.51 1.51 1 3.05 1.54 4.54.17.44.88.54 1 0 .46-2 1.29-3.88 1.85-5.85a.57.57 0 0 0-1.12-.34zM448 21.19c-.74.43-2.55 1.65-2.3 2.66a.5.5 0 0 0 .82.22c.45-.38.83-.8 1.23-1.2a64.21 64.21 0 0 1-.22 7.34c-.07.76 1.12.76 1.19 0a71.39 71.39 0 0 0 .15-8.53.58.58 0 0 0-.87-.49zM452.89 26.42a16.4 16.4 0 0 1-2.21.14.52.52 0 0 0-.37.89c.28.31 2.09.23 2.58.22.81-.02.8-1.29 0-1.25zM457.39 26.67c-.58-.24-1.41-.67-1.35-1.43.08-1.09 2.38-.6 2.91-.18a.49.49 0 0 0 .69-.69c-1.12-1.21-4.63-1.37-4.58.87a2.29 2.29 0 0 0 1 1.84 6.72 6.72 0 0 0 1.76.82c1.13.45 1.25 1.71-.1 1.9a2.44 2.44 0 0 1-1.91-.69c-.54-.5-1.35.32-.81.81a3.41 3.41 0 0 0 3.33.78 2.1 2.1 0 0 0 1.47-2.23c-.23-1.19-1.46-1.42-2.41-1.8zM462.77 24.85a4.42 4.42 0 0 0 1.31 0c.71-.11.54-1.28-.17-1.25a10.23 10.23 0 0 1-1.11 0c0-.41 0-.83.07-1.24s-.81-.63-.88-.12-.12.89-.16 1.35a3.94 3.94 0 0 0-.68.08c-.65.13-.47 1.1.15 1.12h.44a15.9 15.9 0 0 0 .43 4.49c.27 1.05 1.14 1.95 2.15 1 .5-.45-.33-1.2-.78-.6-.21.29-.52-1.17-.53-1.25a21.81 21.81 0 0 1-.25-2.42v-1.2zM470.41 24.4c-1-1.21-3.22-.68-4.35.12a.49.49 0 0 0 .38.9c.5-.15 1-.32 1.49-.43 1.17-.25 1.83.16 2 1.3a4.9 4.9 0 0 1 0 .54c-1.53-.92-4.21-.58-4.38 1.42a2.28 2.28 0 0 0 1.92 2.35A3.45 3.45 0 0 0 470 30a.66.66 0 0 0 0 .14c.06.76 1.25.76 1.18 0a8.52 8.52 0 0 1 0-1.13.55.55 0 0 0 0-.5c.05-1.51.17-3.01-.77-4.11zm-3.89 4.12c-.21-1.13 1.06-1.37 1.89-1.19a5.6 5.6 0 0 1 1.58.75v.34a7.16 7.16 0 0 1-1.24.85c-.75.4-2.02.33-2.23-.75zM475 23.87a4.36 4.36 0 0 0-1.18.79 4.68 4.68 0 0 0-.25-.69c-.17-.4-.69-.14-.73.19a17.75 17.75 0 0 0 .16 2.91V30c0 .71 1.05.69 1.1 0a22.08 22.08 0 0 0 0-4.06 3.19 3.19 0 0 1 1.36-1 .57.57 0 1 0-.46-1.07zM479.81 29.42c-.73.71-.69-1.56-.68-1.53 0-.62 0-1.24-.05-1.86v-1.12a5.79 5.79 0 0 0 1.25 0 .62.62 0 0 0 0-1.19 5.91 5.91 0 0 0-1.26-.05c0-.45 0-.89-.08-1.33s-.83-.69-.92-.13-.11 1-.14 1.48a1 1 0 0 0-1 .41.34.34 0 0 0 0 .35 1 1 0 0 0 .92.44V26a14.37 14.37 0 0 0 .14 3.59 1.51 1.51 0 0 0 2.66.67c.61-.5-.27-1.4-.84-.84zM486.17 32c-.57-3.2 0-7.45-.08-10.93a.6.6 0 0 0-.59-.59 5.28 5.28 0 0 0-2.06.08.43.43 0 0 0 0 .83 6.17 6.17 0 0 0 1.48.23c0 1.88.1 9.73.09 9.93a6.76 6.76 0 0 0-1.49 0c-.79-.06-.81 1.25 0 1.25a14.07 14.07 0 0 0 2.25-.07.58.58 0 0 0 .4-.73zM460 85.36c.66-.08 1.49-.18 1.5-1a3.93 3.93 0 0 0-1.5-2.51 2.59 2.59 0 0 0-2.6-.44 3.71 3.71 0 0 0-2 3c-.42.11-.53.8 0 .91a3.25 3.25 0 0 0 .48 1.54 3.5 3.5 0 0 0 5.27.39c.49-.56-.33-1.4-.83-.82a2.3 2.3 0 0 1-3.56-.4 2.14 2.14 0 0 1-.18-.54 16.56 16.56 0 0 0 3.42-.13zm-1.71-3a2.07 2.07 0 0 1 1.64 1.1c.07.12.47.77.4.85s-.75-.06-.78-.06l-3 .09c.23-.99.83-1.95 1.75-1.99zM468.26 81.81c-.86-.78-2.58-.1-3.65.64a3.55 3.55 0 0 0-.22-.7c-.14-.32-.63-.21-.71.09a10 10 0 0 0 0 2.78v3.14a.57.57 0 0 0 1.14 0V84.4v-.91c1-.57 3-1.68 3.22 0a21.48 21.48 0 0 1 0 4c0 .77 1.23.75 1.17 0-.09-1.15-.1-2.3-.16-3.45a3.11 3.11 0 0 0-.79-2.23zM475.73 79.26c-.11.91-.18 1.86-.23 2.82a3.68 3.68 0 0 0-2.67-.52 3 3 0 0 0-2.08 2.88c-.08 1.26.45 2.91 1.72 3.43a2.78 2.78 0 0 0 3-.87v.7c0 .59 1 .79 1.09.14a27.24 27.24 0 0 0-.05-8.69c-.1-.47-.73-.29-.78.11zm-.41 6.59c-.6.35-1.25 1.05-2 1-1.13 0-1.51-1.56-1.47-2.44s.47-1.9 1.51-2a2.81 2.81 0 0 1 2.09.85v2.49zM420.52 77.87a6.1 6.1 0 0 0-2.09-.12.43.43 0 0 0-.43.43c-.05 3.79 0 7.69-.29 11.47a.56.56 0 0 0 .55.55 7 7 0 0 0 1.58.06.63.63 0 1 0-.17-1.24h-.84c.1-3.44.2-7 .05-10.4.5.08 1 .16 1.5.2a.51.51 0 0 0 .14-.95zM426 81.44a5.53 5.53 0 0 0-1.75 1c0-.22 0-.45-.09-.66a.42.42 0 0 0-.8 0 24.45 24.45 0 0 0 0 5.8c0 .65 1 .66 1 0v-3.74a3 3 0 0 1 .81-.67 5.13 5.13 0 0 1 1.16-.55c.67-.29.38-1.43-.33-1.18zM432.52 82.05a.36.36 0 0 0-.13-.18 3.22 3.22 0 0 0-4.48 1c-.81 1.53-.61 4 1 4.92a3.61 3.61 0 0 0 4.68-1.25 3.28 3.28 0 0 0-1.07-4.49zm.39 3.42A2.41 2.41 0 0 1 429.8 87c-1.32-.43-1.49-2.15-1-3.31s1.66-1.33 2.76-1.19a.46.46 0 0 0 .18.33 2.53 2.53 0 0 1 1.17 2.64zM443.59 81.52c-.43 1.18-.79 2.38-1.17 3.57-.09.27-.16.61-.25 1a12.62 12.62 0 0 0-1.85-4.58c-.28-.35-.81-.1-.93.25-.52 1.5-.93 3.12-1.57 4.61a28.49 28.49 0 0 0-1.76-4.78.51.51 0 0 0-.92.39c.72 2 1.38 4 2 6a.56.56 0 0 0 1 .13 27.08 27.08 0 0 0 1.9-4.92 34.17 34.17 0 0 1 1.47 4.77.57.57 0 0 0 1 .13 8 8 0 0 0 .78-2.31c.41-1.32.83-2.64 1.32-3.94.31-.69-.77-.99-1.02-.32zM447.89 79a10.43 10.43 0 0 0-2.14 2.16c-.22.34.21.73.54.54a8.45 8.45 0 0 0 1.47-1.13c.05 2.37.08 4.75.06 7.12a.55.55 0 0 0 1.1 0c0-2.77 0-5.54-.11-8.31a.55.55 0 0 0-.92-.38zM452.87 84.22a6.47 6.47 0 0 0-1.32 0 1.61 1.61 0 0 0-1.17.36.45.45 0 0 0 .09.69 2 2 0 0 0 1.27.16 6.17 6.17 0 0 0 1.29 0c.73-.18.46-1.13-.16-1.21zM482.53 78.45a.58.58 0 0 0-.48-.28 6.41 6.41 0 0 0-1.75.08c-.47.08-.49.89 0 1a3.86 3.86 0 0 0 .9.06h.33v2.34q0 3.77-.13 7.52a9.5 9.5 0 0 0-1.51.24.62.62 0 0 0 .32 1.19 17.64 17.64 0 0 1 1.77-.29.61.61 0 0 0 .6-.59c0-2.43.08-4.86.1-7.3.02-1.17.32-2.88-.15-3.97zM420.87 186.42a13.25 13.25 0 0 1-1.89 0v-6.47c0-1.17.08-3.89.09-3.95.51-.21 1.19.14 1.76-.15a.46.46 0 0 0-.23-.85c-1 .09-2.15-.45-2.62.62-.32.73 0 2.28-.06 3.05q0 4.13-.07 8.26a.56.56 0 0 0 .54.54 15.17 15.17 0 0 0 2.43 0c.76 0 .76-1.12.05-1.05zM481.14 175.41a.61.61 0 0 0-.74-.42c-.51.07-1 .12-1.55.14a.42.42 0 0 0-.22.78 2.34 2.34 0 0 0 1.45.33c.27 1.74-.16 3.93-.24 5.59 0 1.15-.11 2.29-.18 3.44a6.45 6.45 0 0 1 0 .86c0-.23-.82-.2-1.33-.2a.6.6 0 0 0 0 1.19 13.28 13.28 0 0 0 2-.08.55.55 0 0 0 .41-.41 26.9 26.9 0 0 0 .34-5.46c.05-1.78.48-4.01.06-5.76zM426.29 179.14c.73-.33.1-1.42-.64-1.09.2 0 .16-.05-.11 0H425c.1-.69.18-1.5-.42-1.77a.38.38 0 0 0-.55.42 4 4 0 0 1-.1 1.38 2.89 2.89 0 0 0-1.12.21.43.43 0 0 0 0 .75 2.89 2.89 0 0 0 1 .21v1.21a13.78 13.78 0 0 0 .26 3.45c.3 1.07 1.43 2 2.39 1a.52.52 0 0 0-.74-.74c-.52.43-.78-2.55-.79-2.83v-2a3.14 3.14 0 0 0 1.36-.2zM433 178.4a3.21 3.21 0 0 0-2.38 0 5.63 5.63 0 0 0-1.47.58 23.53 23.53 0 0 0-.29-3.29c-.09-.57-.87-.36-.92.12a83.91 83.91 0 0 0-.14 8.69.58.58 0 0 0 1.15 0c.1-1.38.19-2.83.2-4.28 1-.46 2.54-1.29 3.21-.69.48.41.2 1.61.17 2.2a20.37 20.37 0 0 0-.07 2.59c0 .57 1 .79 1.07.14a25.69 25.69 0 0 0 .26-4 2.2 2.2 0 0 0-.79-2.06zM436.33 178.46h-.16a.34.34 0 0 0-.38.16 5.8 5.8 0 0 0-.26 2.42v3.48a.62.62 0 0 0 1.24 0 42 42 0 0 0-.07-5.5.56.56 0 0 0-.37-.56zM435.81 177.05a.62.62 0 0 0 .85-.22v-.05a.58.58 0 0 0-.14-.71.6.6 0 0 0-1.12.08.77.77 0 0 0 .41.9zm.79-.74zM441.77 178.05a2.79 2.79 0 0 0-1.91 1 2.86 2.86 0 0 0-.24-.61.36.36 0 0 0-.64.09 7.61 7.61 0 0 0-.15 2.9c0 1.09 0 2.19-.05 3.28 0 .78 1.19.78 1.22 0q.08-1.75 0-3.51v-.58a2.51 2.51 0 0 1 1.91-1.37c.67-.15.52-1.25-.14-1.2zM448.44 175.69a18 18 0 0 0-.38 2.8 3 3 0 0 0-3-.19c-1.31.75-1.59 2.39-1.45 3.77a3 3 0 0 0 2 2.8c1.15.28 1.9-.53 2.58-1.32.05.38.11.75.17 1.11.12.65 1.19.5 1.16-.15-.13-2.91-.07-5.78-.12-8.68a.5.5 0 0 0-.96-.14zm-.44 6.51a15 15 0 0 0-1.21 1.18c-1.09.93-1.81-.49-1.92-1.41s-.05-2.19.85-2.67c.74-.41 1.58 0 2.32.34 0 .84 0 1.68.08 2.51zM453.28 180.85a3.57 3.57 0 0 1-1 .15 4.59 4.59 0 0 0-1 0c-.45.06-.5.77-.13 1a3.13 3.13 0 0 0 2.61 0 .62.62 0 0 0-.48-1.15zM455.9 175.91c-.51 2.68-.13 5.73-.09 8.45a.67.67 0 0 0 1.33 0c0-2.72.28-5.79-.3-8.45a.49.49 0 0 0-.94 0zM458.84 178.58a1.13 1.13 0 0 0 0 .15.17.17 0 0 1 0 .07v.1a21.5 21.5 0 0 0 .06 5.61.58.58 0 0 0 1.16 0 31.28 31.28 0 0 0-.21-5.64c-.12-.47-.76-.79-1.01-.29zM458.86 176.87a.52.52 0 0 0 .36.18.61.61 0 0 0 .6-.34.45.45 0 0 0 .08-.31.9.9 0 0 0-.09-.48.61.61 0 0 0-1-.12.75.75 0 0 0-.19.75.51.51 0 0 0 .24.32zM466.39 178c-1.31-.5-2.72.45-3.55 1.55a3.69 3.69 0 0 0-.27-1c-.17-.35-.65-.2-.76.1a7.25 7.25 0 0 0-.09 2.75c0 1 .09 2.05.16 3.07.05.77 1.22.78 1.2 0 0-1.09-.09-2.19-.15-3.29V181a.3.3 0 0 0 .15-.16c.34-.75 2.5-2.55 3.11-1.33a5 5 0 0 1 .14 2.11 21.81 21.81 0 0 1-.25 2.42.69.69 0 1 0 1.37.18 24.31 24.31 0 0 0 .05-4.35 2.1 2.1 0 0 0-1.11-1.87zM470.74 178.46c-1.93.9-1.7 3.88-.6 5.32a3.45 3.45 0 0 0 5 .46c.57-.51-.27-1.35-.84-.84-1.64 1.51-3.44 0-3.89-1.56a18.12 18.12 0 0 0 3.75.08c1 0 1.61-.54 1.45-1.67-.27-2.25-3.17-2.58-4.87-1.79zm3.07 2.24c-1.13.17-2.3-.06-3.44.05a1.62 1.62 0 0 1 1.07-1.3 3.62 3.62 0 0 1 1.82-.1 1.59 1.59 0 0 1 1 .7c.34.56.04.57-.45.65zM421 289.52a.46.46 0 0 0 0-.91 17.91 17.91 0 0 0-2.2-.11.51.51 0 0 0-.51.51v7.16a22.36 22.36 0 0 0 0 4.09.59.59 0 0 0 .57.44c.67 0 1.36-.06 2-.09s.78-1.33 0-1.24c-.44.05-1 0-1.43.07a14 14 0 0 0-.12-2.76v-7.14a15.91 15.91 0 0 0 1.69-.02zM424.29 289.48c-.5 2.85-.16 6-.19 8.84a.57.57 0 0 0 1.13 0c0-2.88.38-6-.1-8.84a.44.44 0 0 0-.84 0zM431.71 292.2c-1.06-1.24-3.31-.55-4.43.24-.4.28-.17 1.05.36.85a11.53 11.53 0 0 1 1.6-.53 2.42 2.42 0 0 1 1-.09c.69.16.94 1 1 1.65v.58a4.14 4.14 0 0 0-2.69-.56 1.93 1.93 0 0 0-1.73 2c.33 2.39 2.82 2.66 4.56 1.71a1.85 1.85 0 0 0 0 .23c0 .75 1.22.75 1.17 0-.08-1.17-.11-2.34-.2-3.51a4.47 4.47 0 0 0-.64-2.57zm-3.73 4c-.13-1.68 2.28-.65 3.4-.22v.73c-1 .8-3.25 1.55-3.38-.49zM437.64 294.82c-.72-.28-2.3-.31-2.17-1.33.17-1.28 2.32-.61 3-.16.36.25.86-.25.61-.62-1-1.49-4.61-1.41-4.75.77a2.08 2.08 0 0 0 1.54 1.92c.7.26 2.18.31 2.23 1.35.07 1.46-2.28 1.05-2.81.3a.55.55 0 1 0-.87.68c1.23 1.47 4.63 1.61 4.79-.83a2.11 2.11 0 0 0-1.57-2.08zM442.29 293h1.17a.63.63 0 0 0 0-1.25h-1.12a5.72 5.72 0 0 0-.15-1.6c-.07-.26-.51-.36-.63-.08a4.87 4.87 0 0 0-.37 1.67h-.4a.55.55 0 0 0-.49.28.51.51 0 0 0-.08.36v.07a.61.61 0 0 0 .54.42h.37v.39a21.37 21.37 0 0 0 .17 4 1.52 1.52 0 0 0 2.42 1.16c.67-.33.09-1.26-.57-1-1.07.46-.9-3.54-.9-3.88s.03-.36.04-.54zM447.61 294.59a3 3 0 0 0-1.48 0 3.91 3.91 0 0 0-1.32.35.44.44 0 0 0 0 .75 1.82 1.82 0 0 0 1.3.11c.51-.06 1 .05 1.5 0 .67-.15.5-1.01 0-1.21zM450.06 289.2a.39.39 0 0 0-.57.32c-.35 2.83.09 5.91 0 8.77 0 .75 1.13.74 1.16 0 .09-2 .12-3.94.05-5.91-.04-.89.3-2.66-.64-3.18zM452.64 292.13a29.22 29.22 0 0 0-.07 6.06.57.57 0 0 0 1.13 0 35 35 0 0 0-.16-6.06c-.06-.44-.83-.44-.9 0zM452.77 290.39h.06a.37.37 0 0 0 .24.08.64.64 0 0 0 .54-.41.61.61 0 0 0 .05-.18.51.51 0 0 0-.07-.24v-.08a.55.55 0 0 0-.72-.19.59.59 0 0 0-.27.27.66.66 0 0 0 .17.75zM459.88 291.89a3 3 0 0 0-3.16.53 2.72 2.72 0 0 0-.13-.49.35.35 0 0 0-.68 0 7.82 7.82 0 0 0-.23 2.86v3.23a.6.6 0 0 0 1.19 0v-3.23-1.1a7.85 7.85 0 0 1 .76-.52 2.2 2.2 0 0 1 .76-.32 1.2 1.2 0 0 1 1.38 1.06 13.21 13.21 0 0 1 .35 4.11c0 .8 1.28.81 1.26 0a25.28 25.28 0 0 0-.32-3.79 3.36 3.36 0 0 0-1.18-2.34zM466.2 291.51a3.81 3.81 0 0 0-3.52 2.42 3.49 3.49 0 0 0 1.28 3.74 4.38 4.38 0 0 0 4.53.39c.7-.33.09-1.36-.61-1-1.4.65-3.56.14-4.12-1.36 1.53 0 3.07-.07 4.6 0a.64.64 0 0 0 .6-.79c-.38-1.45-1.1-3.31-2.76-3.4zm-2.53 3a2.46 2.46 0 0 1 2.36-1.85c.79.07 1.22.91 1.49 1.69a29.1 29.1 0 0 0-3.85.17zM474.36 289a.53.53 0 0 0-.53-.53 5.05 5.05 0 0 0-2.09.16.43.43 0 0 0 0 .75 3.26 3.26 0 0 0 1.54.17c-.07 3.31 0 6.63-.3 9.93l-1.3-.05c-.77 0-.77 1.2 0 1.2h1.84a.59.59 0 0 0 .58-.57c-.1-3.66.15-7.35.26-11.06z" fill="#1e1e1e"/><path d="M302.83 102.7c.05-5.83-11.54-6-11.61 6-.25 46.05-.35 161.27-.35 175.27 0 3.91-6.68 8-8.05 8.05-10.81.56-229.35 2.35-242 1.51-5.82-.38-11.73 12.79-5.16 13.22 11.68.78 55.94.38 67.46.26 22.6-.23 158.61-1.88 170.08-2.38 9.27-.4 18.07-.67 24.31-8.62 4.69-6 3.83-37.35 4-45.05.39-25.71 1.12-123.2 1.32-148.26z" opacity=".2"/><path d="M290.93 282.29c-.27 3.18-1 9.64-12.63 9.72-5.34.25-240 .65-245.12.44-2.21-.1-13.38 3.63-10.83-16.07.06-2.43.77-170.75 1-175.63-.82-10 9-10.18 13.39-10.31C42 90.28 275.19 87.75 280.15 89c12.05 4 10.73 10.11 10.87 14.09s.18 176.02-.09 179.2z" fill="#1ab3e2" opacity=".85"/><path d="M280.24 91.22c-68.4-5.9-223-1.26-231.71-1.5-7.37-.19-15.1-1.42-20.33 5-4.47 5.47-4 12.39-4 19 0 5.11-.07 146.05-.08 172.93 0 3.3 2.74 4.55 5.51 3.18 3.14-1.56 5.3-5.78 5.3-9.19Q35 209.82 35 139c0-10.43.3-34.2.33-35.77 2 0 23.6.56 32.36.61 32.72.19 65.43-.91 98.14-1.5 36.44-.67 72.91-.52 109.25 2.62 5.81.49 11.77-13.17 5.16-13.74z" fill="#fff" opacity=".2"/><path d="M292.24 106c-.19-5.38 0-12-5.19-15.24-6.53-4.07-16.62-3.67-23.94-3.18-5.75.38-39.87-.08-51.28 0-37.78.29-157.17 1.21-159.35 1.26-7 .13-14.57-.34-21.44 1-6.11 1.2-8.44 4.94-8.83 10.91-1.9 29.37-.18 144.19-.82 172-.12 5.14-1.21 12.69 1.09 17.49 1.68 3.52 7 3.11 10.27 3.25 6.27.26 39.85.54 50.37.49 37.85-.18 160.26-1 183.61-.86 6.18 0 16 1.51 21.2-2.66s3.54-11.87 3.68-17.72c0-.07.3-54.38.46-81.48.17-28.4 1.14-56.9.17-85.26zm-3.7 181.14c-3.35 4.89-11.23 4.07-16.47 4.12-3.43 0-214.36 1.15-238 .2-2.61-.11-7.57.41-9.32-1.62s-1.23-6.77-1.3-9.23c-.11-3.95.35-130 .39-161.62 0-6-.17-12.28.66-18.22.49-3.51 1.27-6.66 4.81-8.06a20.5 20.5 0 0 1 6.12-1.07c4.68-.29 183.29-1.83 198.25-2 4.13 0 23.1.58 28.55.21 8.24-.57 24.34-2 27.16 8.06 1.45 5.2.91 11.74 1 17.09 0 2.94-.22 157.65-.22 157.7-.23 4.59 1.11 10.4-1.63 14.42z" fill="#00a6e8"/><path d="M123.62 206.05a1.08 1.08 0 0 0 0 2.15 1.08 1.08 0 0 0 0-2.15zM129.9 191.91a1 1 0 0 0-1.52.88.94.94 0 0 0 .86 1 .87.87 0 0 0 .67-.06h.07a.9.9 0 0 0 .46-.81 1.07 1.07 0 0 0-.54-1.01zM129.76 196.72a.29.29 0 0 0-.45-.06c-1.06 1.37-.78 3.22-.82 4.89 0 2.17.15 4.34.07 6.5 0 1 1.58 1.22 1.72.23a41.1 41.1 0 0 0 0-5.87c-.05-1.81.48-4.12-.52-5.69zM137.32 206.62c-1.42.88-1.28-5.75-1.27-6.26 0-.85.07-1.71.12-2.57a5.31 5.31 0 0 0 1.92-.14.9.9 0 0 0 0-1.72 4.37 4.37 0 0 0-1.85-.13 16.31 16.31 0 0 0-.09-2c-.1-.82-1.29-1.12-1.54-.21a20.78 20.78 0 0 0-.39 2.43 5.53 5.53 0 0 0-1.8.54.66.66 0 0 0 .16 1.2 6 6 0 0 0 1.47.08c-.39 5.23-.07 12.85 4.24 10.43 1.09-.59.09-2.27-.97-1.65zM146.22 195.9a5.73 5.73 0 0 0-5.53 4.76 6.51 6.51 0 0 0 10 6.62c1-.67 0-2.34-.94-1.61a4.64 4.64 0 0 1-7.34-2.6c2.79.51 5.9-.33 8.67-.3a1 1 0 0 0 .87-1.52c-1.17-2.51-2.53-5.32-5.73-5.35zm-3.88 5.27c.36-2.29 2.66-4.51 5-3.14a6.05 6.05 0 0 1 2.16 2.74c-2.36.04-4.78.23-7.16.4zM171.67 199.33a3.82 3.82 0 0 0-1.9-3.2c-1.8-.78-4.56.62-6 2.37a2.81 2.81 0 0 0-1.12-2.11c-1.68-1.1-4.31 0-5.8 1.62a9.39 9.39 0 0 0-.37-1.67.64.64 0 0 0-1.22 0c-.69 1.64-.38 3.55-.25 5.29.15 2 .18 4 .37 6 .1 1 1.68 1.4 1.89.25a19.46 19.46 0 0 0-.09-5.8c-.06-.53-.09-1.09-.12-1.65 1.42-.86 3.35-3.55 4.68-1.82.29.39.07 1.8.07 2.23l.05 2.33a21.08 21.08 0 0 0 .25 4.13.89.89 0 0 0 1.71 0 33.87 33.87 0 0 0 0-6.83c1.67-1.29 5.41-3.82 5.67-.38.18 2.41.05 4.85.22 7.28a1.15 1.15 0 1 0 2.27-.31c-.44-2.6.02-5.17-.31-7.73zM178.58 201.65a23 23 0 0 0-3.61-.19c-.76.07-1.3 1.22-.44 1.62a12.69 12.69 0 0 0 4.05.81c1.42.11 1.42-2.16 0-2.24zM193.11 201c-.48-2.14-2.08-4.51-4.43-4.82a4.8 4.8 0 0 0-3.8 1.37 21.21 21.21 0 0 0-.7-5.52c-.18-.61-1.25-.73-1.36 0a43 43 0 0 0 0 7.18c.06 2.71-.16 5.48.16 8.17.11.92 1.63 1.37 1.81.24 0-.17 0-.35.06-.52 1.88 1.21 4.12 2.13 6.16.65s2.62-4.47 2.1-6.75zm-2.48 4.23c-1.45 2.39-4 .94-5.57-.33 0-1.7 0-3.4-.08-5.09v-.24c1.08-1.14 2.87-2 4.26-1.34a4.72 4.72 0 0 1 2.08 3.44 5.46 5.46 0 0 1-.69 3.52z" fill="#1e1e1e"/></svg>