<svg xmlns="http://www.w3.org/2000/svg" viewBox="0 0 490 356"><path d="M389.12 263.11c14.84-17.54 2-47.7 6.11-75.28.39-8.27 0-109.71.12-114.53 0-1 18.87-59.75-42.93-46.25-1.74-.2-155.17-4.86-193.6-3.51-29.38-12.4-44.24 11.45-102.32.28-50.8-5.43-35 25.81-35 25.88-12.65 15 .17 28.15-.13 30.82-1.2 10.76-1.07 68.72-1.94 70.61-2.18 4.71-8.58 23.95-1 43.66-6.89 12.68 3.49 42.4-1.13 82.63 2.63 19 24.7 29.46 60 20.32 27.09 11.87 97.76.37 151 2.66 23.69-.19 89.07-3.08 90.78-3.36-.23 7.11 52.68 6.19 58.44 5.68 25.73-1.84 21.14-32.86 11.6-39.61z" fill="#fff"/><path d="M62.88 24.45c-1.24 21.68-.37 267.45-.3 274.26a1.28 1.28 0 0 0 2.55 0c-.23-21.53-.89-154.39-.76-199.28.08-25 1-50 .46-75a1 1 0 0 0-1.95 0zM114.69 25.18c-.72 21.77-.06 43.66-.07 65.45 0 23.63-.71 200.6-.76 208.08a1.28 1.28 0 0 0 2.55 0c.15-21.4.33-42.82.42-64.22.19-44.94.94-184.55-.19-209.31a1 1 0 0 0-2 0zM294.7 25.18c-.72 21.85-.14 113.19-.21 136.94q-.19 57.44-.56 114.86c-.05 7.53 0 15.08-.06 22.61a1.28 1.28 0 0 0 2.55 0c.14-20.79 1.36-249.59.23-274.41a1 1 0 0 0-1.95 0zM349.35 298.71c1-21.9.32-266.12.3-273.53a1.28 1.28 0 0 0-2.55 0c.06 21.18-.56 248.58.3 273.53a1 1 0 0 0 2 0z" fill="#1e1e1e"/><path d="M391.89 85.61C337.11 84.08 31 86 19 86.05a1.26 1.26 0 0 0 0 2.51c33.67-.2 345.69-.83 372.92-1a1 1 0 0 0 0-1.92zM393.47 182.28c-56.43.76-362.85.55-374.5.45a1.25 1.25 0 0 0 0 2.5c33.18.28 346.19.35 374.5-1a1 1 0 0 0 0-1.93z" fill="#1e1e1e"/><path d="M402.86 28.35h-4.67a.4.4 0 0 0 0 .8h4.67a.4.4 0 0 0 0-.8zM411.92 28.27l-5.38.06a.4.4 0 0 0 0 .8l5.38-.06a.4.4 0 0 0 0-.8zM402.86 86h-4.67a.4.4 0 0 0 0 .8h4.67a.4.4 0 0 0 0-.8zM411.92 85.93c-1.79 0-3.58 0-5.38.06a.4.4 0 0 0 0 .8c1.8 0 3.59 0 5.38-.06a.4.4 0 0 0 0-.8zM402.86 182.89h-4.67a.4.4 0 0 0 0 .8h4.67a.4.4 0 0 0 0-.8zM411.92 182.81l-5.38.05a.4.4 0 0 0 0 .8h5.38a.4.4 0 0 0 0-.8zM402.86 296.18h-4.67a.4.4 0 0 0 0 .8h4.67a.4.4 0 0 0 0-.8zM411.92 296.1l-5.38.06a.4.4 0 0 0 0 .8l5.38-.06a.4.4 0 0 0 0-.8z" fill="#757575"/><path d="M7.46 325.79a6.13 6.13 0 0 0 3.2.34c.73-.13.5-1.18-.17-1.22a13.43 13.43 0 0 0-3 .19c-.39.06-.28.58 0 .69zM13 322.22a.71.71 0 0 0-.36 1.2.62.62 0 0 0 1-.42.57.57 0 0 0-.64-.78zM25.27 325.45a2 2 0 0 0 1.48.59 3.2 3.2 0 0 0 1.79-.06.54.54 0 0 0 0-.92 4.84 4.84 0 0 0-1.61-.19 2.53 2.53 0 0 0-1.52 0 .39.39 0 0 0-.14.54z" fill="#1e1e1e"/><path d="M11.24 322.16c-1.32-.78-2.42-.25-2.72 1.27a17.71 17.71 0 0 0 0 3.09c0 1.52-.08 3-.14 4.55 0 .8 1.3.8 1.25 0-.09-1.3-.17-2.6-.23-3.9 0-.65-.48-4.94 1.34-4.12a.51.51 0 0 0 .5-.89zM13.45 325.13c-.11-.39-.81-.46-.87 0a15.56 15.56 0 0 0 0 2.73c0 1 0 2 .09 3a.56.56 0 0 0 1.11 0 20.59 20.59 0 0 0 0-3 12.53 12.53 0 0 0-.33-2.73zM18.31 324.82a4.12 4.12 0 0 0-1.82 1.27c0-.34-.06-.68-.12-1-.09-.56-.87-.36-.92.13a53.52 53.52 0 0 0 0 5.94.56.56 0 0 0 1.12 0c.17-1.82-.44-4.78 1.95-5.44.6-.18.33-1.1-.21-.9zM23.16 327.81c-.53-.37-1.26-.32-1.75-.64-1.1-.73-.41-1.42.41-1.54a2.46 2.46 0 0 1 1.68.52c.39.22.94-.24.65-.65-1.16-1.63-4.12-1.33-4.5.83a1.62 1.62 0 0 0 1.35 1.84c.71.22 1.62.28 2 1 .71 1.32-1.88 1.84-2.37.56a.58.58 0 0 0-1.11.3c.48 1.92 4 2.38 4.64.34a2.32 2.32 0 0 0-1-2.56zM28.3 330.29c-.44.46-.66-1.51-.68-1.8-.06-.7-.07-1.4-.06-2.1a17.59 17.59 0 0 0 .06-3.4.41.41 0 0 0-.74-.09 8.66 8.66 0 0 0-.58 3.79 11.53 11.53 0 0 0 .34 3.84c.43 1.2 2.15 1.81 2.61.31a.57.57 0 0 0-.95-.55zM34.09 321.87a.58.58 0 0 0-.41-.42 7.4 7.4 0 0 0-2.25-.09.51.51 0 0 0 0 1c.45.06 1.79.25 1.51-.12.11.15 0 3.62 0 4.86 0 1.78-.06 3.56-.09 5.34h-1.6c-.79 0-.79 1.26 0 1.23l2.17-.09A.59.59 0 0 0 34 333c0-1.9.07-3.8.1-5.7a35.55 35.55 0 0 0-.01-5.43zM5.33 332.05c-.51.05-1 .08-1.52.11 0-1.81 0-3.63.06-5.44v-3.73a4.35 4.35 0 0 1 0-1.14A2.79 2.79 0 0 0 5 322c.53-.05.75-.9.13-1a3.6 3.6 0 0 0-1.9 0 .63.63 0 0 0-.44.58c0 3.73 0 7.47-.09 11.21a.59.59 0 0 0 .58.58 18.41 18.41 0 0 0 2.1-.06c.72-.12.76-1.31-.05-1.26zM47.78 321.32l-2.17.09a.58.58 0 0 0-.61.59l-.15 11a.6.6 0 0 0 .59.6 14.6 14.6 0 0 0 2.09.07c.54 0 .73-.9.14-1s-1.09-.14-1.63-.2c0-3.3.08-6.6.12-9.9h1.59a.62.62 0 0 0 .03-1.25zM84.74 321.67a18.41 18.41 0 0 0-2.1.06c-.76.1-.81 1.31 0 1.24l1.52-.11c0 2-.09 10-.08 10.15-.21-.17-.86 0-1.19.05-.52.08-.47.88 0 1a3.34 3.34 0 0 0 2-.08.61.61 0 0 0 .29-.52c0-3.73 0-7.47.09-11.21a.59.59 0 0 0-.53-.58zM51.16 322.53a51 51 0 0 0 0 8.56c0 .8 1.29.8 1.23 0-.2-2.85 0-5.71-.18-8.56a.54.54 0 0 0-1.05 0zM54.31 325.16c-.17 1.93.06 4 0 5.9a.62.62 0 0 0 1.23 0 23 23 0 0 0-.23-6c-.14-.65-1-.44-1 .1zM54.54 323.42a.52.52 0 0 0 .66-.09.64.64 0 1 0-1-.73.54.54 0 0 0 0 .56v.07a.71.71 0 0 0 .34.19zm.51-.78zM62.09 324.7c-1.09-.72-2.67.08-3.58 1.09q0-.37-.12-.75v-.05-.1c-.13-.4-.87-.54-1 0a16.57 16.57 0 0 0 0 3.15 28.07 28.07 0 0 0 .18 3.17c.11.68 1.1.45 1.14-.16a27.18 27.18 0 0 0-.08-3.25v-.88c.86-.77 2.9-2 3.21-.27a15.66 15.66 0 0 1 .09 4.48c-.09.83 1.28.86 1.32 0a25.3 25.3 0 0 0-.16-4.26 2.93 2.93 0 0 0-1-2.17zM68.41 324.76a3.74 3.74 0 0 0-3.6 2.38 3.41 3.41 0 0 0 1.31 3.77 4 4 0 0 0 4.48 0c.71-.43 0-1.56-.64-1.11-1.44 1-3.85.53-4.18-1.21 1.57.07 3.16 0 4.73.1a.64.64 0 0 0 .62-.81c-.23-1.49-.95-3.2-2.72-3.12zm-2.56 2.73a2.32 2.32 0 0 1 2.23-1.57c1 0 1.42.66 1.64 1.46a23.81 23.81 0 0 0-3.87.11zM79 330.16c-1.29-.09-2.57-.09-3.85-.06 1.93-1.63 4.06-3.58 3.77-6.24-.32-3-4.34-2.1-5.83-.59-.5.5.24 1.22.76.77.9-.79 3.45-1.89 3.9 0a3.87 3.87 0 0 1-.58 2.2c-.88 1.64-2.78 2.9-4.15 4.11a.61.61 0 0 0 .42 1 39.68 39.68 0 0 1 5.56.12c.83.09.84-1.25 0-1.31zM98 332.44a6.32 6.32 0 0 1-1.29.28l.21-10.31a3.43 3.43 0 0 1 1 0c.51.05.62-.78.12-.89a2.92 2.92 0 0 0-1.63-.1.53.53 0 0 0-.51.51c-.09 3.79-.19 7.57-.29 11.36a.54.54 0 0 0 .54.54c.73-.06 1.43-.16 2.15-.29s.46-1.32-.3-1.1zM134.68 328.11c0-2 0-4.09-.05-6.12a.61.61 0 0 0-.6-.6c-.77-.06-1.69-.35-2.34.17-.37.29 0 .86.36.87h.07a6.61 6.61 0 0 1 1.32.09c.06 2 0 4 .05 6.06v3.54a5.21 5.21 0 0 1 0 .65c-.15-.32-1.41-.07-1.76-.08-.74 0-.71 1.22 0 1.13s1.54 0 2.29-.11c.23 0 .52-.16.56-.43a33 33 0 0 0 .1-5.17zM102.08 322.7a.32.32 0 0 0-.62 0 13 13 0 0 0-.25 3.94v4.5a.55.55 0 0 0 1.09 0v-4.5a12.64 12.64 0 0 0-.22-3.94zM104.46 325.31c-.19 1.81 0 3.74 0 5.57 0 .81 1.17.78 1.24 0a18.46 18.46 0 0 0-.22-5.7c-.19-.59-.96-.4-1.02.13zM104.81 323.33a.49.49 0 0 0 .49-.13s.24-.34.17-.27 0-.09.08-.16a.52.52 0 0 0-.35-.62.65.65 0 0 0-.68.2.58.58 0 0 0 .29.98zM113 326.24a1.94 1.94 0 0 0-2-1.58 2.67 2.67 0 0 0-2.4 1.58c0-.35 0-.71-.09-1.06a.47.47 0 0 0-.94 0 47.43 47.43 0 0 0 0 5.84.53.53 0 0 0 1.06 0c.1-1.2.33-5.73 2.33-5.31 1.21.25 1 1.55 1 2.47v2.62c0 .87 1.3.81 1.26 0a23.91 23.91 0 0 0-.22-4.56zM118.77 324.59a3.84 3.84 0 0 0-3.72 3.24.5.5 0 0 0 0 .38c-.1 2.81 3.44 5 5.85 3.08.57-.45-.24-1.27-.81-.81-1.53 1.26-3.74-.19-4-1.91 1.54.14 3.15 0 4.68 0a.6.6 0 0 0 .6-.6 3.1 3.1 0 0 0-2.6-3.38zm-2.53 2.89s0-.09.05-.13a3 3 0 0 1 2-1.63 1.81 1.81 0 0 1 1.83 1.67 31.37 31.37 0 0 0-3.88.09zM128.67 323.44c-.9-2.39-4.35-1.37-5.74-.12-.4.35.11 1 .56.72s4.57-2.08 4.09.63c-.21 1.2-2 1.47-2.92 1.64-.61.11-.46 1.09.14 1.07a4 4 0 0 1 1.33.07c.87.29 1.77 1.45 1.19 2.42a2.19 2.19 0 0 1-3.67-.23c-.28-.6-1.18-.08-.89.52a3.26 3.26 0 0 0 5.49.25 2.79 2.79 0 0 0 0-3 2.25 2.25 0 0 0-.93-.78 2.49 2.49 0 0 0 1.35-3.19zM262.47 322.6c.51 0 .69-.84.13-.94a16.37 16.37 0 0 0-2.1-.18.54.54 0 0 0-.53.53c.16 2.38.12 4.74.1 7.12a30.13 30.13 0 0 0 0 4 .44.44 0 0 0 .31.31 17.35 17.35 0 0 0 1.92.22c.72.07.75-1.16 0-1.15-.21 0-1.18-.13-1.39.1 0-.15.19-7.79.16-10.06a11.51 11.51 0 0 0 1.4.05zM269.54 330.06a2.48 2.48 0 0 1-4.06-1.64c-.21-2.47 2.42-2.87 4.18-2.07a.43.43 0 0 0 .58-.58c-.62-1.19-2.55-1.11-3.66-.77a3.29 3.29 0 0 0-2.18 3.09 3.57 3.57 0 0 0 5.7 2.92c.57-.41.01-1.38-.56-.95zM277.4 325.81c-.79-1.44-2.94-1.63-4.27-.77a3.59 3.59 0 0 0-.87 5.08c1 1.33 3 2.3 4.4 1s2.33-3.54 1-5.19a.43.43 0 0 0-.26-.12zm-1.1 4c-.95 1.2-2.28.8-3.14-.34a2.55 2.55 0 0 1 .36-3.56c1.26-1 2.29-.26 3.24.61a.26.26 0 0 0 0 .08c.77 1.16.31 2.28-.46 3.25zM279.52 322.6a70.9 70.9 0 0 1 0 8.5c-.07.77 1.13.77 1.2 0a37.91 37.91 0 0 0-.06-8.65c-.14-.62-1.16-.45-1.14.15zM288.74 328h-.68v-1.21a15.69 15.69 0 0 0-.34-4.28.41.41 0 0 0-.68-.39 13.27 13.27 0 0 0-2.32 2.89 48.57 48.57 0 0 0-2.14 3.41.6.6 0 0 0 .51.9c1.21 0 2.45.09 3.68.08v1.6c0 .53 1.08.88 1.2.17a11.29 11.29 0 0 0 .15-1.83l.67-.05a.62.62 0 0 0-.05-1.29zm-4.63.06c.46-.79.92-1.57 1.42-2.33.37-.55.79-1.1 1.19-1.66v3.91zM293.12 327.58a5.52 5.52 0 0 0-1.82.11c-.3.12-.48.62-.11.78a5.45 5.45 0 0 0 1.93.23c.72.03.72-1.12 0-1.12zM296.74 327.28c-.6-.18-1-.3-.92-1 .2-1.61 2.34-.5 3.09 0 .46.29.88-.34.56-.72-1.54-1.78-5.45-1.37-4.56 1.59.27.89 1.26 1.12 2.06 1.39.49.17 1.36.32 1.67.81.67 1.08-1.1 1.37-1.68 1.28a2.3 2.3 0 0 1-1.44-.82c-.45-.53-1.29.31-.76.76a3.66 3.66 0 0 0 3.8.68c1.07-.36 1.84-1.31 1.12-2.4s-1.88-1.24-2.94-1.57zM303.72 330.36c-1.39.67-1-3.12-1-3.69v-.91a2.22 2.22 0 0 0 1.3-.16.55.55 0 0 0-.28-1h-1v-1.27a.49.49 0 0 0-1 0c0 .41-.06.85-.09 1.29a2 2 0 0 0-1 .22.45.45 0 0 0 .11.81 2.16 2.16 0 0 0 .78.13 16.72 16.72 0 0 0 .18 4.38 1.56 1.56 0 0 0 2.3 1.25.56.56 0 1 0-.3-1.05zM306 325.58a.4.4 0 0 0 .39.67c1.41-.23 3.44-1.18 3.64 1.08v.39c-1.65-.93-4.62-.54-4.45 1.73s2.8 2.25 4.41 1.31v.41a.6.6 0 0 0 1.19 0c0-1.14.07-2.28 0-3.42a3.35 3.35 0 0 0-.78-2.51 3.52 3.52 0 0 0-4.4.34zm4.05 3.79a3.08 3.08 0 0 1-1.48.88c-.77.18-2 .05-1.94-1 .06-1.62 2.34-.76 3.44-.48v.57zM315.31 324.69a4.73 4.73 0 0 0-1.45.82 2.41 2.41 0 0 0-.21.24c0-.23 0-.47-.1-.7-.12-.55-.89-.37-.93.13-.16 1.87.15 3.8.15 5.69 0 .71 1.15.71 1.12 0-.05-1.24 0-2.52-.1-3.78a4.71 4.71 0 0 1 1.81-1.35c.64-.26.4-1.31-.29-1.05zM320 330.1c-1.12.77-1-3.61-1-3.85V326a4.64 4.64 0 0 0 1.44-.06.58.58 0 0 0 0-1.11 8.51 8.51 0 0 0-1.43-.07 11.86 11.86 0 0 0-.09-1.58.45.45 0 0 0-.87 0 13 13 0 0 0-.16 1.53 4.85 4.85 0 0 0-.66 0 .52.52 0 0 0-.14 1 3.42 3.42 0 0 0 .77.17v.62a11.62 11.62 0 0 0 .23 3.53c.36 1.21 1.64 2 2.66 1 .47-.46-.16-1.33-.75-.93zM325.28 321.92a.6.6 0 0 0-.42-.55 3.87 3.87 0 0 0-2 .11.46.46 0 0 0 .12.9c-.07 0 1.13-.17 1.15-.17.07.26-.06 3.74-.09 5.1s-.09 4.88-.1 5.15h-1.12c-.86 0-.85 1.41 0 1.33.56-.05 1.12-.06 1.68-.1.31 0 .66-.26.62-.62-.12-1.17 0-3.43.06-5.13a50.92 50.92 0 0 0 .1-6.02zM339.3 325.51c.38.39.9.19 1.39.23a8.42 8.42 0 0 0 1.81 0 .55.55 0 0 0 .15-1.08 2.31 2.31 0 0 0-1 0c-.33 0-.65-.07-1-.07a1.66 1.66 0 0 0-1.45.45.39.39 0 0 0 .06.47zM344.8 322.43a.59.59 0 0 0-.57.84.72.72 0 0 0 0 .25.46.46 0 0 0 .67.27.91.91 0 0 0 .44-.81.57.57 0 0 0-.54-.55zM337.49 321.41a4.9 4.9 0 0 0-1.79.06c-.24 0-.52.2-.49.5a72.66 72.66 0 0 1-.11 11.33.56.56 0 0 0 .55.55 8.89 8.89 0 0 0 1.71 0c.74 0 .74-1.17 0-1.14h-1.19c-.15-3.43.31-6.9.06-10.32l1.26-.06a.49.49 0 0 0 0-.92zM364.69 321.44c-.63.05-1.26.06-1.88.11a.37.37 0 0 0-.1.73 6.37 6.37 0 0 0 1.34.27c-.34 3.33-.12 6.72-.34 10.07l-1.5.09a.63.63 0 1 0 .17 1.24 9.92 9.92 0 0 1 1.89-.17.62.62 0 0 0 .6-.6c.3-3.7.21-7.44.4-11.15a.59.59 0 0 0-.58-.59z" fill="#1e1e1e"/><path d="M343.16 322.11c-1.52-.37-2.3.46-2.52 1.92a45.47 45.47 0 0 0-.06 7.1.6.6 0 0 0 1.19 0c0-1.27-.15-2.54-.2-3.8s-.48-4.37 1.46-4.28a.48.48 0 0 0 .13-.94zM345.08 325c-.17-.33-.59-.19-.71.09a7.21 7.21 0 0 0-.13 2.82c0 1.06 0 2.13.12 3.18a.55.55 0 0 0 1.09 0c.07-1.13 0-2.27 0-3.4a6.08 6.08 0 0 0-.37-2.69zM352.12 324.68l-2 4.59c-.39-.68-.78-1.35-1.16-2a8.25 8.25 0 0 0-1.58-2.53c-.22-.18-.66-.09-.63.26a7.64 7.64 0 0 0 1.12 2.67c.57 1.09 1.18 2.16 1.81 3.21a.58.58 0 0 0 1 0q1.21-2.79 2.42-5.59c.32-.7-.68-1.29-.98-.61zM355.77 324.89a3.89 3.89 0 0 0-1.41 5.24c1.08 1.72 4.14 1.54 5.56.42.62-.49-.28-1.44-.88-.88a2.75 2.75 0 0 1-2.15.46c-.88-.06-1.55-.28-1.8-1.2a2.65 2.65 0 0 1-.07-.48c1.41-.26 2.83.1 4.25 0a1 1 0 0 0 1-1.4 3.1 3.1 0 0 0-4.5-2.16zm2.27 2.34a11.44 11.44 0 0 0-2.87.11 2.31 2.31 0 0 1 1.89-1.64 1.72 1.72 0 0 1 1.77.91 2.27 2.27 0 0 0 .29.66c-.31.01-1.01-.04-1.12-.04zM380.24 332.78c-.13 0-1.37 0-1.51.22v-.56c-.08-1.06 0-2.15 0-3.2 0-1.39.06-2.77 0-4.16 0-.57-.05-1.14-.08-1.7-.09-1.27.11-1.07 1.36-.94.59.05.69-.89.13-1a5.57 5.57 0 0 0-2.37-.08.61.61 0 0 0-.43.57c.29 2.42.36 4.9.43 7.34a38.84 38.84 0 0 0 0 4.18.46.46 0 0 0 .33.33 13.12 13.12 0 0 0 2.08.24c.82-.02.82-1.31.06-1.24zM410.08 322a.61.61 0 0 0-.6-.6 11.67 11.67 0 0 0-1.67.07.55.55 0 0 0 0 1.05 9.45 9.45 0 0 0 1.07.07c0 3.3 0 6.65.33 9.94h-1.67c-.77 0-.77 1.24 0 1.2s1.5-.06 2.26-.07a.54.54 0 0 0 .54-.54c-.34-3.68-.24-7.39-.26-11.12zM387.43 328.58c.65-.08 1.48-.18 1.49-1a3.88 3.88 0 0 0-1.49-2.51 2.61 2.61 0 0 0-2.61-.44 3.67 3.67 0 0 0-2 3c-.43.12-.54.8 0 .91a3.36 3.36 0 0 0 .48 1.54 3.5 3.5 0 0 0 5.27.39c.49-.56-.33-1.39-.83-.82a2.3 2.3 0 0 1-3.56-.4 1.8 1.8 0 0 1-.17-.54 16.58 16.58 0 0 0 3.42-.13zm-1.72-3a2.06 2.06 0 0 1 1.64 1.1c.08.12.47.77.41.85s-.76-.06-.78-.06l-3 .09c.21-.99.81-1.95 1.73-1.99zM395.67 325c-.85-.78-2.57-.1-3.65.65a3.44 3.44 0 0 0-.22-.71c-.13-.32-.62-.21-.7.09a9.65 9.65 0 0 0 0 2.79v3.13a.57.57 0 0 0 1.13 0v-3.36-.91c1.06-.57 3-1.68 3.22 0a20.66 20.66 0 0 1 0 4c0 .77 1.24.75 1.18 0-.1-1.15-.11-2.3-.16-3.45a3.17 3.17 0 0 0-.8-2.23zM403.65 322.48c-.12.91-.19 1.86-.23 2.82a3.72 3.72 0 0 0-2.68-.52 3 3 0 0 0-2.07 2.88c-.08 1.26.44 2.91 1.71 3.43a2.8 2.8 0 0 0 3-.87v.7c0 .59 1 .79 1.09.15a27 27 0 0 0-.05-8.7c-.09-.47-.72-.29-.77.11zm-.41 6.59c-.61.35-1.26 1.05-2 1-1.13 0-1.52-1.56-1.48-2.44s.47-1.9 1.51-2a2.81 2.81 0 0 1 2.09.85v2.49z" fill="#1e1e1e"/><path d="M64.36 309.21v-4.68a.4.4 0 0 0-.8 0v4.68a.4.4 0 0 0 .8 0zM64.44 318.26l-.06-5.37a.4.4 0 0 0-.8 0l.06 5.37a.4.4 0 0 0 .8 0zM294.17 313.58v4.68a.4.4 0 0 0 .8 0v-4.68a.4.4 0 0 0-.8 0zM294.09 304.53q0 2.69.06 5.37a.4.4 0 0 0 .8 0q0-2.68-.06-5.37a.4.4 0 0 0-.8 0zM348.68 309.21v-4.68a.4.4 0 0 0-.8 0v4.68a.4.4 0 0 0 .8 0zM348.76 318.26c0-1.79 0-3.58-.06-5.37a.4.4 0 0 0-.8 0c0 1.79 0 3.58.06 5.37a.4.4 0 0 0 .8 0zM391.92 309.21v-4.68a.4.4 0 0 0-.8 0v4.68a.4.4 0 0 0 .8 0zM392 318.26l-.06-5.37a.4.4 0 0 0-.8 0l.06 5.37a.4.4 0 0 0 .8 0zM116 309.71v-5.18a.4.4 0 0 0-.8 0v5.18a.4.4 0 0 0 .8 0zM116.08 318.26c0-1.62 0-3.25-.06-4.87a.4.4 0 0 0-.8 0c0 1.62 0 3.25.06 4.87a.4.4 0 0 0 .8 0zM19.79 309.21v-4.68a.4.4 0 0 0-.8 0v4.68a.4.4 0 0 0 .8 0zM19.87 318.26c0-1.79 0-3.58-.06-5.37a.4.4 0 0 0-.8 0c0 1.79 0 3.58.06 5.37a.4.4 0 0 0 .8 0z" fill="#757575"/><path d="M395.05 263q-.07-36-.11-71.95l-.2-144.72c0-6.4 2.32-16.19-3.13-20.33-1.75-1.32-3.78-1.38-5.89-1.56-4.62-.41-44.66-.77-58-.77-54.59 0-283.26.08-285 .08-7.17 0-22-2.39-23.84 7.41a.75.75 0 0 0 0 .26c-1.12 12.36-.19 25.24-.24 37.63-.11 27-.69 216.38-.55 219.09s.18 6.09 1.84 8.25c2.19 2.84 8 2.8 11.27 3.21 5.77.73 11.58.55 17.37.53 16.83-.07 331.75-.86 337.29-1.64 4-.57 7.34-1.81 8.47-6s.73-24.03.72-29.49zm-2.22 16.62c-.08 5.75.8 14.59-6.08 16.46-6 1.64-27.61.83-31.3.84-18.54.05-166.74.48-222.31.66-22 .07-92.31 1.27-104.9-.67-2.57-.4-5.66-.3-7.07-2.94-.84-1.57-.79-4.1-.88-5.83-.13-2.33-.1-9.12-.1-10.17 0-6.4-.19-243.35.06-246.37 1.83-8.94 19.65-6 26.43-6 1.1 0 316.45.13 321 .15 1.07 0 18.25.56 19.86.95 5 1.21 5.39 5.67 5.26 10.17-1.13 38.45-.07 77.06 0 115.52-.03 42.39.62 84.84.03 127.23zM420.59 22.65a12.17 12.17 0 0 0-2.47-.43.51.51 0 0 0-.49.5q-.31 5.85-.26 11.7a.53.53 0 0 0 .52.52h2.2a.55.55 0 0 0 0-1.1h-1.69c-.07-3.55 0-7.09.19-10.63.63.06 1.26.13 1.9.16a.39.39 0 0 0 .1-.72zM426.27 25.85a4.35 4.35 0 0 0-1.82.78l-.1.07c0-.23 0-.48-.07-.71-.09-.55-.89-.37-.92.13-.16 2 0 4.11 0 6.14a.5.5 0 0 0 1 0 41.57 41.57 0 0 0 .11-4.34l.77-.57a2.15 2.15 0 0 1 1.2-.39.56.56 0 1 0-.17-1.11zM433.26 26.62c-1.48-1.47-3-1.35-4.51-.09a3.35 3.35 0 0 0-.48 4.72 3 3 0 0 0 4.27.85c1.52-1.18 1.69-3.58 1-5.23a.45.45 0 0 0-.28-.25zm-1 4c-.8 1.27-2.3 1-3.17-.06a2.22 2.22 0 0 1 .22-3.15c1.06-1 1.92-.83 3.07-.22v.11a3.76 3.76 0 0 1-.08 3.31zM443.49 26a92.85 92.85 0 0 1-1.27 4.32c-.46-1.45-.88-2.91-1.42-4.34-.15-.4-.79-.61-1-.13-.74 1.55-1.45 3.12-2.13 4.69-.52-1.57-1-3.16-1.66-4.68-.2-.45-.87-.12-.77.32.48 2 1.25 4 1.84 6 .13.4.78.57 1 .13q1.06-2.34 2.14-4.68c.51 1.52 1 3.06 1.54 4.55.17.43.88.54 1 0 .46-2 1.29-3.88 1.85-5.85a.57.57 0 0 0-1.12-.33zM448 23.2c-.74.43-2.55 1.66-2.3 2.67a.5.5 0 0 0 .82.21c.45-.37.83-.79 1.23-1.19a64.21 64.21 0 0 1-.22 7.34c-.07.76 1.12.76 1.19 0a71.39 71.39 0 0 0 .15-8.53.59.59 0 0 0-.87-.5zM452.89 28.44a16.38 16.38 0 0 1-2.21.13c-.48 0-.66.59-.37.9s2.09.23 2.58.22c.81-.02.8-1.3 0-1.25zM457.39 28.68c-.58-.23-1.41-.67-1.35-1.43.08-1.08 2.38-.59 2.91-.17a.49.49 0 0 0 .69-.7c-1.12-1.2-4.63-1.37-4.58.87a2.29 2.29 0 0 0 1 1.85 7.06 7.06 0 0 0 1.76.82c1.13.45 1.25 1.7-.1 1.9a2.47 2.47 0 0 1-1.91-.69c-.54-.5-1.35.31-.81.8a3.39 3.39 0 0 0 3.33.79 2.11 2.11 0 0 0 1.47-2.23c-.23-1.2-1.46-1.42-2.41-1.81zM462.77 26.87a4.78 4.78 0 0 0 1.31 0c.71-.12.54-1.29-.17-1.25a10.23 10.23 0 0 1-1.11 0c0-.42 0-.83.07-1.25s-.81-.63-.88-.12-.12.9-.16 1.36a3.94 3.94 0 0 0-.68.08c-.65.13-.47 1.1.15 1.12h.44a15.94 15.94 0 0 0 .43 4.5c.27 1.05 1.14 1.94 2.15 1 .5-.46-.33-1.2-.78-.6-.21.28-.52-1.17-.53-1.25a21.81 21.81 0 0 1-.25-2.42v-1.21zM470.41 26.42c-1-1.22-3.22-.68-4.35.11-.44.31-.19 1.07.38.9s1-.31 1.49-.42c1.17-.25 1.83.16 2 1.3a4.55 4.55 0 0 1 0 .53c-1.53-.91-4.21-.58-4.38 1.42a2.28 2.28 0 0 0 1.92 2.36A3.46 3.46 0 0 0 470 32a.75.75 0 0 0 0 .15c.06.75 1.25.76 1.18 0a8.52 8.52 0 0 1 0-1.13.57.57 0 0 0 0-.51c.05-1.45.17-2.99-.77-4.09zm-3.89 4.11c-.21-1.12 1.06-1.36 1.89-1.18a5.6 5.6 0 0 1 1.58.75v.33a7.21 7.21 0 0 1-1.24.86c-.75.39-2.02.33-2.23-.76zM475 25.88a4.36 4.36 0 0 0-1.18.79 5.13 5.13 0 0 0-.25-.69c-.17-.4-.69-.13-.73.2a17.75 17.75 0 0 0 .16 2.91v2.93c0 .7 1.05.69 1.1 0a22.07 22.07 0 0 0 0-4.06 3.11 3.11 0 0 1 1.36-1 .57.57 0 1 0-.46-1.08zM479.81 31.44c-.73.71-.69-1.56-.68-1.53 0-.62 0-1.24-.05-1.86v-1.12a5.79 5.79 0 0 0 1.25 0 .62.62 0 0 0 0-1.19 6.65 6.65 0 0 0-1.26-.06c0-.44 0-.88-.08-1.32s-.83-.69-.92-.13-.11 1-.14 1.48a1.05 1.05 0 0 0-1 .4.36.36 0 0 0 0 .36 1 1 0 0 0 .92.43v1.19a14.29 14.29 0 0 0 .14 3.58 1.51 1.51 0 0 0 2.66.68c.61-.57-.27-1.47-.84-.91zM486.17 34c-.57-3.2 0-7.46-.08-10.93a.6.6 0 0 0-.59-.59 5.28 5.28 0 0 0-2.06.07.44.44 0 0 0 0 .84 6.16 6.16 0 0 0 1.48.22c0 1.89.1 9.74.09 9.94a6.76 6.76 0 0 0-1.49 0c-.79-.06-.81 1.25 0 1.24a14.07 14.07 0 0 0 2.25-.06.59.59 0 0 0 .4-.73zM460 87.38c.66-.08 1.49-.19 1.5-1a3.93 3.93 0 0 0-1.5-2.51 2.62 2.62 0 0 0-2.6-.45 3.72 3.72 0 0 0-2 3c-.42.11-.53.79 0 .9a3.28 3.28 0 0 0 .48 1.55 3.5 3.5 0 0 0 5.27.39c.49-.57-.33-1.4-.83-.83a2.3 2.3 0 0 1-3.56-.39 2.14 2.14 0 0 1-.18-.54 16.56 16.56 0 0 0 3.42-.12zm-1.71-3a2.08 2.08 0 0 1 1.64 1.09c.07.12.47.77.4.86.05-.07-.75-.07-.78-.06l-3 .09c.23-1 .83-1.95 1.75-1.99zM468.26 83.83c-.86-.78-2.58-.1-3.65.64a3.64 3.64 0 0 0-.22-.71c-.14-.31-.63-.2-.71.09a10 10 0 0 0 0 2.79v3.14a.57.57 0 0 0 1.14 0v-3.36-.91c1-.58 3-1.68 3.22 0a21.48 21.48 0 0 1 0 4c0 .76 1.23.75 1.17 0-.09-1.15-.1-2.3-.16-3.46a3.09 3.09 0 0 0-.79-2.22zM475.73 81.28c-.11.91-.18 1.86-.23 2.82a3.74 3.74 0 0 0-2.67-.53 3 3 0 0 0-2.08 2.88c-.08 1.27.45 2.92 1.72 3.44a2.78 2.78 0 0 0 3-.87v.69c0 .6 1 .8 1.09.15a27.24 27.24 0 0 0-.05-8.69c-.1-.47-.73-.3-.78.11zm-.41 6.58c-.6.36-1.25 1.06-2 1-1.13 0-1.51-1.55-1.47-2.44s.47-1.9 1.51-2a2.78 2.78 0 0 1 2.09.86v2.49a.23.23 0 0 0-.13.09zM420.52 79.88a6.36 6.36 0 0 0-2.09-.12.45.45 0 0 0-.43.43c-.05 3.8 0 7.7-.29 11.48a.57.57 0 0 0 .55.55 7 7 0 0 0 1.58.06.63.63 0 1 0-.17-1.25h-.84c.1-3.44.2-7 .05-10.4.5.08 1 .16 1.5.21s.7-.84.14-.96zM426 83.45a5.38 5.38 0 0 0-1.75 1c0-.22 0-.45-.09-.67a.42.42 0 0 0-.8 0 24.54 24.54 0 0 0 0 5.81c0 .65 1 .66 1 0v-3.74a3 3 0 0 1 .81-.68 5.09 5.09 0 0 1 1.16-.54c.67-.29.38-1.43-.33-1.18zM432.52 84.07a.32.32 0 0 0-.13-.18 3.21 3.21 0 0 0-4.48 1c-.81 1.53-.61 4 1 4.91a3.61 3.61 0 0 0 4.68-1.24 3.28 3.28 0 0 0-1.07-4.49zm.39 3.42a2.41 2.41 0 0 1-3.11 1.56c-1.32-.43-1.49-2.16-1-3.31s1.66-1.34 2.76-1.19a.48.48 0 0 0 .18.33 2.52 2.52 0 0 1 1.17 2.61zM443.59 83.54c-.43 1.17-.79 2.37-1.17 3.56-.09.28-.16.62-.25 1a12.62 12.62 0 0 0-1.85-4.58c-.28-.36-.81-.11-.93.24-.52 1.5-.93 3.13-1.57 4.61a28.71 28.71 0 0 0-1.76-4.77c-.26-.5-1.11-.16-.92.38.72 2 1.38 4 2 6a.56.56 0 0 0 1 .13 26.9 26.9 0 0 0 1.9-4.93 34.17 34.17 0 0 1 1.51 4.82.57.57 0 0 0 1 .14 8.08 8.08 0 0 0 .78-2.31c.41-1.32.83-2.65 1.32-3.94.27-.72-.81-1.02-1.06-.35zM447.89 81.05a10.19 10.19 0 0 0-2.14 2.16c-.22.34.21.73.54.54a9 9 0 0 0 1.47-1.13c.05 2.37.08 4.74.06 7.12a.55.55 0 0 0 1.1 0c0-2.77 0-5.54-.11-8.31a.55.55 0 0 0-.92-.38zM452.87 86.23a7.28 7.28 0 0 0-1.32 0 1.66 1.66 0 0 0-1.17.37.45.45 0 0 0 .09.69 2.11 2.11 0 0 0 1.27.16 6.93 6.93 0 0 0 1.29 0c.73-.18.46-1.13-.16-1.22zM482.53 80.47a.56.56 0 0 0-.48-.28 6.83 6.83 0 0 0-1.75.07c-.47.09-.49.9 0 1a3.86 3.86 0 0 0 .9 0h.33v2.34q0 3.75-.13 7.52a8.48 8.48 0 0 0-1.51.24c-.78.2-.45 1.34.32 1.19a13.33 13.33 0 0 1 1.77-.29.61.61 0 0 0 .6-.59c0-2.44.08-4.87.1-7.3.02-1.11.32-2.82-.15-3.9zM420.87 188.43a11.93 11.93 0 0 1-1.89 0v-6.46c0-1.18.08-3.89.09-4 .51-.22 1.19.14 1.76-.15a.46.46 0 0 0-.23-.85c-1 .09-2.15-.45-2.62.62-.32.73 0 2.28-.06 3 0 2.76-.05 5.51-.07 8.27a.55.55 0 0 0 .54.53 15.17 15.17 0 0 0 2.43 0c.76.09.76-1.03.05-.96zM481.14 177.42a.62.62 0 0 0-.74-.42 11.45 11.45 0 0 1-1.55.14.43.43 0 0 0-.22.79 2.34 2.34 0 0 0 1.45.33c.27 1.73-.16 3.92-.24 5.59 0 1.15-.11 2.29-.18 3.43a6.45 6.45 0 0 1 0 .86c0-.23-.82-.19-1.33-.19a.59.59 0 0 0 0 1.18 13.28 13.28 0 0 0 2-.07.56.56 0 0 0 .41-.42 26.76 26.76 0 0 0 .34-5.45c.05-1.78.48-4.01.06-5.77zM426.29 181.15c.73-.33.1-1.41-.64-1.08H425c.1-.69.18-1.51-.42-1.77a.38.38 0 0 0-.55.42 3.94 3.94 0 0 1-.1 1.37 3.32 3.32 0 0 0-1.12.21.44.44 0 0 0 0 .76 2.89 2.89 0 0 0 1 .21v1.21a13.7 13.7 0 0 0 .26 3.44c.3 1.08 1.43 2 2.39 1 .47-.49-.23-1.16-.74-.74s-.78-2.54-.79-2.82v-2a2.88 2.88 0 0 0 1.36-.21zM433 180.42a3.21 3.21 0 0 0-2.38 0 5.3 5.3 0 0 0-1.47.58 23.68 23.68 0 0 0-.29-3.3c-.09-.56-.87-.36-.92.13a83.91 83.91 0 0 0-.14 8.69.58.58 0 0 0 1.15 0c.1-1.38.19-2.83.2-4.28 1-.46 2.54-1.3 3.21-.7.48.42.2 1.62.17 2.21a20.26 20.26 0 0 0-.07 2.58c0 .57 1 .8 1.07.15a25.69 25.69 0 0 0 .26-4 2.19 2.19 0 0 0-.79-2.06zM436.33 180.47h-.16a.35.35 0 0 0-.38.15 5.83 5.83 0 0 0-.26 2.43v3.48a.62.62 0 0 0 1.24 0 42 42 0 0 0-.07-5.5.57.57 0 0 0-.37-.56zM435.81 179.07a.62.62 0 0 0 .85-.22v-.06a.56.56 0 0 0-.14-.7.6.6 0 0 0-1.12.08.77.77 0 0 0 .41.9zm.79-.74zM441.77 180.07a2.75 2.75 0 0 0-1.91 1 2.86 2.86 0 0 0-.24-.61.35.35 0 0 0-.64.08 7.66 7.66 0 0 0-.15 2.91c0 1.09 0 2.18-.05 3.27a.61.61 0 0 0 1.22 0q.08-1.76 0-3.51v-.57a2.46 2.46 0 0 1 1.91-1.37c.67-.16.52-1.27-.14-1.2zM448.44 177.7a18 18 0 0 0-.38 2.8 3 3 0 0 0-3-.19c-1.31.75-1.59 2.39-1.45 3.77a3 3 0 0 0 2 2.8c1.15.27 1.9-.53 2.58-1.32.05.38.11.75.17 1.11.12.65 1.19.5 1.16-.16-.13-2.91-.07-5.77-.12-8.67a.5.5 0 0 0-.96-.14zm-.49 6.52a13.48 13.48 0 0 0-1.21 1.18c-1.09.92-1.81-.49-1.92-1.41s-.05-2.19.85-2.68c.74-.4 1.58 0 2.32.35 0 .84 0 1.68.08 2.51a.31.31 0 0 0-.07.05zM453.28 182.87a3.25 3.25 0 0 1-1 .14 5.35 5.35 0 0 0-1 0c-.45.06-.5.77-.13 1a3.13 3.13 0 0 0 2.61 0 .61.61 0 0 0-.48-1.14zM455.9 177.93c-.51 2.67-.13 5.72-.09 8.44a.67.67 0 0 0 1.33 0c0-2.72.28-5.78-.3-8.44a.49.49 0 0 0-.94 0zM458.84 180.6a1 1 0 0 0 0 .14.13.13 0 0 1 0 .06v.11a21.5 21.5 0 0 0 .06 5.61.58.58 0 0 0 1.16 0 31.43 31.43 0 0 0-.21-5.65c-.12-.45-.76-.77-1.01-.27zM458.86 178.88a.48.48 0 0 0 .36.18.59.59 0 0 0 .6-.33.47.47 0 0 0 .08-.31.9.9 0 0 0-.09-.48.62.62 0 0 0-1-.13.76.76 0 0 0-.19.76.46.46 0 0 0 .24.31zM466.39 180c-1.31-.49-2.72.46-3.55 1.56a3.51 3.51 0 0 0-.27-1c-.17-.35-.65-.21-.76.1a7.25 7.25 0 0 0-.09 2.75c0 1 .09 2 .16 3.07.05.76 1.22.78 1.2 0 0-1.1-.09-2.2-.15-3.29V183a.3.3 0 0 0 .15-.16c.34-.75 2.5-2.55 3.11-1.33a5 5 0 0 1 .14 2.1 22 22 0 0 1-.25 2.43.69.69 0 1 0 1.37.18 24.44 24.44 0 0 0 .05-4.36 2.13 2.13 0 0 0-1.11-1.86zM470.74 180.48c-1.93.89-1.7 3.88-.6 5.32a3.47 3.47 0 0 0 5 .46c.57-.51-.27-1.35-.84-.84-1.64 1.5-3.44 0-3.89-1.56a18.84 18.84 0 0 0 3.75.08c1 0 1.61-.55 1.45-1.67-.27-2.27-3.17-2.59-4.87-1.79zm3.07 2.24c-1.13.17-2.3-.06-3.44 0a1.6 1.6 0 0 1 1.07-1.29 3.51 3.51 0 0 1 1.82-.1 1.56 1.56 0 0 1 1 .7c.34.59.04.61-.45.69zM421 291.54a.46.46 0 0 0 0-.91 17.91 17.91 0 0 0-2.2-.12.52.52 0 0 0-.51.52v7.15a22.47 22.47 0 0 0 0 4.1.57.57 0 0 0 .57.43c.67 0 1.36-.06 2-.08s.78-1.33 0-1.25c-.44.05-1 0-1.43.07a14 14 0 0 0-.12-2.75v-7.14a15.91 15.91 0 0 0 1.69-.02zM424.29 291.5c-.5 2.85-.16 5.95-.19 8.84a.57.57 0 0 0 1.13 0c0-2.89.38-6-.1-8.84a.44.44 0 0 0-.84 0zM431.71 294.22c-1.06-1.24-3.31-.55-4.43.23-.4.28-.17 1.06.36.86a11.58 11.58 0 0 1 1.6-.54 2.6 2.6 0 0 1 1-.08c.69.16.94 1 1 1.65v.57a4.2 4.2 0 0 0-2.69-.56 1.94 1.94 0 0 0-1.73 2c.33 2.39 2.82 2.65 4.56 1.7a1.69 1.69 0 0 0 0 .23c0 .76 1.22.75 1.17 0-.08-1.16-.11-2.34-.2-3.5a4.45 4.45 0 0 0-.64-2.56zm-3.73 4c-.13-1.68 2.28-.66 3.4-.22v.73c-1 .79-3.25 1.55-3.38-.49zM437.64 296.84c-.72-.29-2.3-.32-2.17-1.33.17-1.28 2.32-.62 3-.17.36.26.86-.25.61-.61-1-1.5-4.61-1.41-4.75.76a2.07 2.07 0 0 0 1.54 1.92c.7.27 2.18.31 2.23 1.36.07 1.45-2.28 1.05-2.81.3a.55.55 0 1 0-.87.67c1.23 1.48 4.63 1.62 4.79-.83a2.1 2.1 0 0 0-1.57-2.07zM442.29 295h1.17a.63.63 0 0 0 0-1.25h-1.12a5.69 5.69 0 0 0-.15-1.6c-.07-.26-.51-.36-.63-.08a4.87 4.87 0 0 0-.37 1.67h-.4a.57.57 0 0 0-.49.27.55.55 0 0 0-.08.37v.07a.59.59 0 0 0 .54.41h.37c.13 0 0 .26 0 .4a21.4 21.4 0 0 0 .17 4 1.52 1.52 0 0 0 2.42 1.16c.67-.34.09-1.26-.57-1-1.07.47-.9-3.53-.9-3.88s.03-.35.04-.54zM447.61 296.6a3.09 3.09 0 0 0-1.48 0 3.89 3.89 0 0 0-1.32.34.44.44 0 0 0 0 .76 1.82 1.82 0 0 0 1.3.11c.51-.06 1 .05 1.5 0 .67-.14.5-1.01 0-1.21zM450.06 291.22a.38.38 0 0 0-.57.32c-.35 2.83.09 5.9 0 8.76a.58.58 0 0 0 1.16 0c.09-2 .12-3.93.05-5.9-.04-.89.3-2.67-.64-3.18zM452.64 294.15a29.13 29.13 0 0 0-.07 6.05.57.57 0 0 0 1.13 0 34.94 34.94 0 0 0-.16-6.05c-.06-.45-.83-.44-.9 0zM452.77 292.4h.06a.36.36 0 0 0 .24.07.63.63 0 0 0 .54-.4.61.61 0 0 0 .05-.18.48.48 0 0 0-.07-.23v-.08a.54.54 0 0 0-.72-.19.59.59 0 0 0-.27.27.64.64 0 0 0 .17.74zM459.88 293.91a3 3 0 0 0-3.16.53 2.83 2.83 0 0 0-.13-.5.36.36 0 0 0-.68 0 7.84 7.84 0 0 0-.23 2.86v3.23a.6.6 0 0 0 1.19 0v-3.23-1.09c.25-.18.49-.37.76-.53a2.41 2.41 0 0 1 .76-.32 1.22 1.22 0 0 1 1.38 1.07 13.18 13.18 0 0 1 .35 4.1c0 .81 1.28.82 1.26 0a25.15 25.15 0 0 0-.32-3.78 3.34 3.34 0 0 0-1.18-2.34zM466.2 293.53a3.81 3.81 0 0 0-3.52 2.42 3.49 3.49 0 0 0 1.28 3.74 4.36 4.36 0 0 0 4.53.38c.7-.32.09-1.36-.61-1-1.4.65-3.56.14-4.12-1.36 1.53 0 3.07-.08 4.6-.05a.63.63 0 0 0 .6-.78c-.38-1.4-1.1-3.27-2.76-3.35zm-2.53 3a2.44 2.44 0 0 1 2.36-1.85c.79.06 1.22.91 1.49 1.69a26.05 26.05 0 0 0-3.85.17zM474.36 291a.53.53 0 0 0-.53-.53 5.05 5.05 0 0 0-2.09.15.44.44 0 0 0 0 .76 3.4 3.4 0 0 0 1.54.17c-.07 3.31 0 6.63-.3 9.93h-1.3c-.77 0-.77 1.2 0 1.2h1.84a.59.59 0 0 0 .58-.58c-.1-3.68.15-7.37.26-11.1z" fill="#1e1e1e"/><path d="M354.48 203.65c-.2-3.24-2.61-4.62-5.52-3.18a10.84 10.84 0 0 0-5.3 9.19c1.27 21.37 1.06 70.36.9 75.45-.08 2.42.23 5.05-3 7.7-9.78.94-182 1.56-203.49 1.13-5.84-.11-11.63 13.6-5.16 13.73 37.94.76 69.85-.94 107.79-1.08 22.74-.09 93.5.69 106.69-1.19 3.53-.5 6.26-5.15 7-8.08 1.32-5.05 1.38-71.91.09-93.67z" opacity=".2"/><path d="M119.94 199.73c.43-2-1.25-8.86 3.3-10.59 5.22-2 195.77-.75 203.85-.62 3.49.06 17.29-2 17.08 10-.09 1.51 2.24 90.27-1.29 93-3.74 2.09-211 2.39-217.57 2.3-3.65-1-5.31-5.7-5.53-8.18s-.27-83.93.16-85.91z" fill="#e85858" opacity=".85"/><path d="M338.18 191.62c-10.31-4.13-215-6.51-216.38-.07-1 4.88-1.71 6.43-1.08 10.62.75 4.89.28 63.9.4 88.07 0 3.3 2.73 4.56 5.51 3.18 3.13-1.55 5.32-5.78 5.31-9.18-.09-16.37-.43-78.94-.44-81.69l.21.06a59 59 0 0 0 13 1.36c8.93.08 62.56-3.66 80.49-3.73 55.71-.34 89.69 5.39 107.84 5.1 5.3-.09 12.21-12.55 5.14-13.72z" fill="#fff" opacity=".2"/><path d="M345.17 285.9c-.06-23.25.05-79 .05-83.61 0-2.94.35-6.13-.7-8.91-2.32-6.18-11.13-5.66-16.65-5.89-1.89-.08-185.1-.31-186.92-.27-5.54.12-12.06-.32-17.46 1-5.64 1.35-3.83 7.23-4.29 11.54a.71.71 0 0 0 0 .15c-1.21 7.89-.3 16.64-.36 24.58-.09 13.31-.26 47.79-.22 51.73.06 5.08-.95 11.6 2.35 15.95s11.29 2.76 16 2.93c6.42.24 110.94-.69 156.79-.78 9.81 0 38.28.12 42.66-.09 2.53-.13 6.74-.39 8.26-2.88 1.02-1.6.49-3.7.49-5.45zm-2.26 0c0 3.19-1.08 5.41-4.67 5.88s-25.3.19-32.35.21c-42.11.07-84.32-.72-126.42.37-12.94.34-25.89.69-38.84.6-2.08 0-4.14-.07-6.22-.17-5-.25-11.41 1.14-13.19-5-1.19-4.09-.63-8.85-.65-13.15-.1-22.42.05-74.75.05-74.76a1.15 1.15 0 0 0 .06-.17c.46-3.55-1.3-8.13 3.21-9.77 2.52-.91 6.51-.41 9.15-.53 3.26-.16 6.51-.31 9.77-.32 6.62 0 178.5.32 183.93.46 2.22.06 11.14.75 12.87 1.53 3.15 1.43 3.43 4.39 3.49 7.48.05 2.28-.19 84.24-.19 87.34z" fill="#c93d3d"/><path d="M196.8 246.83a1.24 1.24 0 0 0-1.28.21h-.06a.86.86 0 0 0-.23.3v.06a1.24 1.24 0 0 0 .19 1.44 1.27 1.27 0 0 0 2.17-.94 1.25 1.25 0 0 0-.79-1.07zM202 237.75a.22.22 0 0 0-.32 0c-1.19 1.06-.85 3.06-.9 4.54a31.5 31.5 0 0 0 .11 6.22.87.87 0 0 0 1.67 0 38 38 0 0 0 .16-6.22c.03-1.49.45-3.42-.72-4.54zM200.9 234.16a.82.82 0 0 0 1.48.2 1 1 0 0 0 .16-.65.76.76 0 0 0-.17-.5.78.78 0 0 0-.77-.2h-.08a.85.85 0 0 0-.59 1zM210.52 247.13c-2.83.74-2-6-2-7.12v-1.14c.52 0 1 .06 1.56.12 1.31.14 1.34-2.18 0-2.07a13.32 13.32 0 0 1-1.55 0 11.19 11.19 0 0 0-.36-2.77.59.59 0 0 0-1.13 0 11.89 11.89 0 0 0-.45 2.73 2.44 2.44 0 0 0-1.49.36.48.48 0 0 0-.1.73 2.45 2.45 0 0 0 1.54.68v1.85c0 1.93-.32 4.12.25 6s2.69 3.52 4.53 2c.75-.5-.02-1.58-.8-1.37zM218.9 236.8c-2.51.08-4.5 2.5-5.19 4.72a5.83 5.83 0 0 0 1.91 6.37c2.27 1.84 5.28 1.7 7.8.48 1.27-.62.12-2.66-1.12-1.92-2.83 1.69-6.89.53-7.31-2.58 3 .13 6-.14 9-.27a1 1 0 0 0 .85-1.48c-1.48-2.18-2.84-5.41-5.94-5.32zm-3.79 5.33v-.22c.58-2 2.75-4.38 4.94-3a7.17 7.17 0 0 1 2.2 2.78c-2.35.07-4.76.15-7.14.44zM242.72 237.46c-2.13-.94-4.73.28-6.25 2.06a3.56 3.56 0 0 0-1.73-2 4.71 4.71 0 0 0-5.12 1.17l-.06-.28a.77.77 0 0 0-.55-.55c.32.08-.26-.12-.33-.08-1.22.69-.61 2.51-.56 3.67.09 2.3 0 4.6-.13 6.89-.07 1.3 1.89 1.27 2 0a37.29 37.29 0 0 0-.06-7.83c.53-.36 1-.82 1.55-1.13 1.63-.89 3.25-.27 3.45 1.73a32.68 32.68 0 0 1-.42 6.84c-.17 1.36 2.21 1.43 2.17 0-.06-1.79.5-4.71.14-7.07 1.85-1.44 5.21-3.46 5.72-.39a18.36 18.36 0 0 1-.14 3.47c-.06 1.31-.08 2.62-.09 3.93a1.23 1.23 0 0 0 2.45 0c-.08-2.38-.18-4.78-.38-7.15-.11-1.29-.32-2.69-1.66-3.28zM251.16 242.12a11.42 11.42 0 0 0-3.6.08.81.81 0 0 0 0 1.54 11.71 11.71 0 0 0 3.6.38c1.29.06 1.28-1.94 0-2zM264.21 246.24c-1.4.33-2.56 1.18-4.07 1.13a3.92 3.92 0 0 1-3.88-3.61 4.81 4.81 0 0 1 1.91-4.58c1.44-1 3.93-1.09 5.07.39a.64.64 0 0 0 1.16-.48c-.32-2.21-3.42-2.55-5.18-2.13a6.28 6.28 0 0 0-4.68 5.36 6 6 0 0 0 3 6.56c2.24 1.17 5.88 1 7.61-1a1 1 0 0 0-.94-1.64z" fill="#1e1e1e"/></svg>