<svg xmlns="http://www.w3.org/2000/svg" viewBox="0 0 490 356"><path d="M13 319.31a.72.72 0 0 0-.36 1.21.62.62 0 0 0 1-.43.58.58 0 0 0-.64-.78z" fill="#1e1e1e"/><path d="M389.12 260.21c14.84-17.55 2-47.71 6.11-75.28.39-8.28 0-109.71.12-114.54 0-1 18.87-59.75-42.93-46.25-1.74-.2-155.17-4.86-193.6-3.51-29.38-12.4-44.24 11.45-102.32.28-50.8-5.42-35 25.82-35 25.89-12.65 15 .17 28.15-.13 30.82-1.2 10.75-1.07 68.71-1.94 70.6-2.18 4.71-8.58 23.95-1 43.66-6.89 12.68 3.49 42.41-1.13 82.63 2.63 19 24.7 29.47 60 20.33 27.09 11.86 97.76.37 151 2.65 23.69-.19 89.07-3.07 90.78-3.36-.23 7.12 52.68 6.19 58.44 5.68 25.73-1.81 21.14-32.81 11.6-39.6z" fill="#fff"/><path d="M62.88 21.54c-1.24 21.68-.37 267.46-.3 274.26a1.28 1.28 0 0 0 2.55 0c-.23-21.52-.89-154.38-.76-199.28.08-25 1-50 .46-75a1 1 0 0 0-1.95 0zM114.69 22.27c-.72 21.78-.06 43.66-.07 65.45 0 23.64-.71 200.6-.76 208.08a1.28 1.28 0 0 0 2.55 0c.15-21.4.33-42.81.42-64.22.19-44.93.94-184.54-.19-209.31a1 1 0 0 0-2 0zM294.7 22.27c-.72 21.86-.14 113.2-.21 137q-.19 57.42-.56 114.85c-.05 7.54 0 15.09-.06 22.62a1.28 1.28 0 0 0 2.55 0c.14-20.79 1.36-249.59.23-274.42a1 1 0 0 0-1.95 0zM349.35 295.8c1-21.89.32-266.12.3-273.53a1.28 1.28 0 0 0-2.55 0c.06 21.18-.56 248.58.3 273.53a1 1 0 0 0 2 0z" fill="#1e1e1e"/><path d="M391.89 82.7C337.11 81.18 31 83.08 19 83.15a1.25 1.25 0 0 0 0 2.5c33.67-.2 345.69-.83 372.92-1a1 1 0 0 0 0-1.93zM393.47 179.38c-56.43.75-362.85.54-374.5.44a1.26 1.26 0 0 0 0 2.51c33.18.27 346.19.34 374.5-1a1 1 0 0 0 0-1.92z" fill="#1e1e1e"/><path d="M402.86 25.44h-4.67a.4.4 0 0 0 0 .8h4.67a.4.4 0 0 0 0-.8zM411.92 25.36c-1.79 0-3.58.05-5.38.06a.4.4 0 0 0 0 .8c1.8 0 3.59 0 5.38-.06a.4.4 0 0 0 0-.8zM402.86 83.11h-4.67a.4.4 0 0 0 0 .8h4.67a.4.4 0 0 0 0-.8zM411.92 83c-1.79 0-3.58 0-5.38.06a.4.4 0 0 0 0 .8c1.8 0 3.59 0 5.38-.06a.4.4 0 0 0 0-.8zM402.86 180h-4.67a.4.4 0 0 0 0 .8h4.67a.4.4 0 0 0 0-.8zM411.92 179.9c-1.79 0-3.58 0-5.38.06a.4.4 0 0 0 0 .8c1.8 0 3.59 0 5.38-.06a.4.4 0 0 0 0-.8zM402.86 293.27h-4.67a.4.4 0 0 0 0 .8h4.67a.4.4 0 0 0 0-.8zM411.92 293.19c-1.79 0-3.58.05-5.38.06a.4.4 0 0 0 0 .8c1.8 0 3.59 0 5.38-.06a.4.4 0 0 0 0-.8z" fill="#757575"/><path d="M7.46 322.89a6.23 6.23 0 0 0 3.2.34c.73-.13.5-1.19-.17-1.23a14 14 0 0 0-3 .19c-.39.07-.28.58 0 .7zM25.27 322.55a2 2 0 0 0 1.48.58 3.29 3.29 0 0 0 1.79-.05.55.55 0 0 0 0-.93 5.12 5.12 0 0 0-1.61-.19 2.61 2.61 0 0 0-1.52 0 .41.41 0 0 0-.14.55z" fill="#1e1e1e"/><path d="M11.24 319.26c-1.32-.78-2.42-.25-2.72 1.26a17.83 17.83 0 0 0 0 3.1c0 1.52-.08 3-.14 4.54 0 .81 1.3.8 1.25 0-.09-1.29-.17-2.59-.23-3.89 0-.66-.48-4.94 1.34-4.12.58.26 1.09-.55.5-.89zM13.45 322.23c-.11-.4-.81-.46-.87 0a15.55 15.55 0 0 0 0 2.73c0 1 0 2 .09 3a.56.56 0 0 0 1.11 0 20.57 20.57 0 0 0 0-3 12.46 12.46 0 0 0-.33-2.73zM18.31 321.92a4 4 0 0 0-1.82 1.27c0-.34-.06-.68-.12-1-.09-.56-.87-.36-.92.12a53.68 53.68 0 0 0 0 5.95.56.56 0 0 0 1.12 0c.17-1.82-.44-4.78 1.95-5.44.6-.18.33-1.11-.21-.9zM23.16 324.9c-.53-.36-1.26-.32-1.75-.64-1.1-.72-.41-1.41.41-1.53a2.41 2.41 0 0 1 1.68.52c.39.21.94-.25.65-.66-1.16-1.62-4.12-1.32-4.5.83a1.61 1.61 0 0 0 1.35 1.84c.71.23 1.62.28 2 1 .71 1.31-1.88 1.84-2.37.55a.58.58 0 0 0-1.11.31c.48 1.92 4 2.38 4.64.33a2.33 2.33 0 0 0-1-2.55zM28.3 327.39c-.44.46-.66-1.51-.68-1.81-.06-.7-.07-1.4-.06-2.1a17.49 17.49 0 0 0 .06-3.39.41.41 0 0 0-.74-.1 8.68 8.68 0 0 0-.58 3.79 11.59 11.59 0 0 0 .34 3.85c.43 1.19 2.15 1.8 2.61.31a.57.57 0 0 0-.95-.55zM34.09 319a.58.58 0 0 0-.41-.41 7.4 7.4 0 0 0-2.25-.1.51.51 0 0 0 0 1c.45.06 1.79.25 1.51-.13.11.15 0 3.62 0 4.87 0 1.78-.06 3.56-.09 5.33h-1.6c-.79 0-.79 1.26 0 1.23l2.17-.08a.6.6 0 0 0 .59-.59c0-1.89.07-3.79.1-5.69a35.68 35.68 0 0 0-.02-5.43zM5.33 329.15c-.51 0-1 .08-1.52.1q0-2.72.06-5.43v-3.73a4.42 4.42 0 0 1 0-1.15 2.84 2.84 0 0 0 1 .14c.53-.05.75-.9.13-1a3.5 3.5 0 0 0-1.9 0 .62.62 0 0 0-.44.57c0 3.74 0 7.48-.09 11.21a.58.58 0 0 0 .58.58 16.36 16.36 0 0 0 2.1-.05c.85-.11.89-1.31.08-1.24zM47.78 318.42l-2.17.08a.59.59 0 0 0-.58.59l-.15 11a.6.6 0 0 0 .59.59 13.29 13.29 0 0 0 2.09.08c.54 0 .73-.91.14-1s-1.09-.14-1.63-.19c0-3.3.08-6.6.12-9.9h1.59a.62.62 0 0 0 0-1.25zM84.74 318.77a14.74 14.74 0 0 0-2.1.06c-.76.1-.81 1.3 0 1.23.51 0 1-.08 1.52-.1 0 2-.09 10-.08 10.15-.21-.17-.86 0-1.19 0-.52.09-.47.88 0 1a3.27 3.27 0 0 0 2-.08.58.58 0 0 0 .29-.51c0-3.74 0-7.48.09-11.21a.59.59 0 0 0-.53-.54zM51.16 319.62a51.09 51.09 0 0 0 0 8.57c0 .8 1.29.79 1.23 0-.2-2.86 0-5.72-.18-8.57a.54.54 0 0 0-1.05 0zM54.31 322.25c-.17 1.93.06 3.95 0 5.9a.62.62 0 0 0 1.23 0 23 23 0 0 0-.23-6c-.14-.65-1-.44-1 .1zM54.54 320.52a.53.53 0 0 0 .66-.09.67.67 0 0 0 0-.91c-.33-.34-.77-.15-1 .18a.52.52 0 0 0 0 .55v.07a.64.64 0 0 0 .34.2zm.51-.79zM62.09 321.8c-1.09-.73-2.67.08-3.58 1.08 0-.25-.07-.5-.12-.74v-.06-.1c-.13-.41-.87-.55-1 0a16.57 16.57 0 0 0 0 3.15 27.81 27.81 0 0 0 .18 3.17c.11.68 1.1.46 1.14-.15a27.18 27.18 0 0 0-.08-3.25v-.89c.86-.76 2.9-2 3.21-.26a15.64 15.64 0 0 1 .09 4.48c-.09.83 1.28.86 1.32 0A25.26 25.26 0 0 0 63 324a2.93 2.93 0 0 0-.91-2.2zM68.41 321.85a3.75 3.75 0 0 0-3.6 2.39 3.4 3.4 0 0 0 1.31 3.76 4 4 0 0 0 4.48 0c.71-.42 0-1.55-.64-1.1-1.44.95-3.85.53-4.18-1.21 1.57.06 3.16 0 4.73.1a.65.65 0 0 0 .62-.82c-.23-1.49-.95-3.19-2.72-3.12zm-2.56 2.73a2.3 2.3 0 0 1 2.23-1.58c1 0 1.42.65 1.64 1.46a23.81 23.81 0 0 0-3.87.12zM79 327.25a38.08 38.08 0 0 0-3.85-.05c1.93-1.63 4.06-3.59 3.77-6.24-.32-3-4.34-2.11-5.83-.59-.5.5.24 1.21.76.76.9-.78 3.45-1.88 3.9 0a3.83 3.83 0 0 1-.58 2.2c-.88 1.64-2.78 2.91-4.15 4.12a.6.6 0 0 0 .42 1 41.26 41.26 0 0 1 5.56.12c.83.09.84-1.26 0-1.32zM98 329.54a6.32 6.32 0 0 1-1.29.28l.21-10.31a3.43 3.43 0 0 1 1 0 .45.45 0 0 0 .12-.89 2.83 2.83 0 0 0-1.63-.1.52.52 0 0 0-.51.5q-.14 5.69-.29 11.37a.54.54 0 0 0 .54.54c.73-.07 1.43-.16 2.15-.3s.46-1.31-.3-1.09zM134.68 325.2c0-2 0-4.08-.05-6.12a.62.62 0 0 0-.6-.6c-.77-.05-1.69-.34-2.34.17-.37.3 0 .87.36.88h.07a7.43 7.43 0 0 1 1.32.08c.06 2 0 4 .05 6.06v3.54a5.49 5.49 0 0 1 0 .65c-.15-.31-1.41-.06-1.76-.07-.74 0-.71 1.22 0 1.13s1.54 0 2.29-.12c.23 0 .52-.15.56-.42a33.17 33.17 0 0 0 .1-5.18zM102.08 319.79a.33.33 0 0 0-.62 0 13 13 0 0 0-.25 3.94v4.5a.55.55 0 0 0 1.09 0v-4.5a12.68 12.68 0 0 0-.22-3.94zM104.46 322.41c-.19 1.81 0 3.74 0 5.57 0 .8 1.17.78 1.24 0a18.52 18.52 0 0 0-.22-5.71c-.19-.58-.96-.39-1.02.14zM104.81 320.43a.52.52 0 0 0 .49-.13s.24-.35.17-.27l.08-.16a.52.52 0 0 0-.35-.62.63.63 0 0 0-.68.19.59.59 0 0 0 .29.99zM113 323.34a1.93 1.93 0 0 0-2-1.58 2.65 2.65 0 0 0-2.4 1.58c0-.36 0-.71-.09-1.06a.47.47 0 0 0-.94 0 47.27 47.27 0 0 0 0 5.83.53.53 0 0 0 1.06 0c.1-1.2.33-5.72 2.33-5.31 1.21.26 1 1.55 1 2.48v2.61c0 .87 1.3.81 1.26 0a23.81 23.81 0 0 0-.22-4.55zM118.77 321.69a3.75 3.75 0 0 0-3.54 2.54 3.51 3.51 0 0 0-.18.69.5.5 0 0 0 0 .38c-.1 2.81 3.44 5 5.85 3.09.57-.45-.24-1.28-.81-.81-1.53 1.25-3.74-.2-4-1.92 1.54.15 3.15 0 4.68 0a.61.61 0 0 0 .6-.6 3.1 3.1 0 0 0-2.6-3.37zm-2.53 2.89l.05-.14a3 3 0 0 1 2-1.62 1.81 1.81 0 0 1 1.83 1.66 31.37 31.37 0 0 0-3.88.1zM128.67 320.53c-.9-2.38-4.35-1.36-5.74-.12-.4.36.11 1 .56.73s4.57-2.09 4.09.62c-.21 1.2-2 1.47-2.92 1.65-.61.11-.46 1.08.14 1.07a3.71 3.71 0 0 1 1.33.06c.87.29 1.77 1.46 1.19 2.43a2.18 2.18 0 0 1-3.67-.24c-.28-.59-1.18-.07-.89.52a3.27 3.27 0 0 0 5.49.26 2.81 2.81 0 0 0 0-3 2.22 2.22 0 0 0-.93-.77 2.5 2.5 0 0 0 1.35-3.21zM262.47 319.7c.51 0 .69-.85.13-.94a14.75 14.75 0 0 0-2.1-.18.53.53 0 0 0-.53.53c.16 2.37.12 4.74.1 7.11a30.28 30.28 0 0 0 0 4 .43.43 0 0 0 .31.3 15.24 15.24 0 0 0 1.92.22c.72.08.75-1.15 0-1.14-.21 0-1.18-.14-1.39.1 0-.16.19-7.8.16-10.07a9.86 9.86 0 0 0 1.4.07zM269.54 327.16a2.48 2.48 0 0 1-4.06-1.64c-.21-2.48 2.42-2.87 4.18-2.07a.43.43 0 0 0 .58-.59c-.62-1.19-2.55-1.1-3.66-.76a3.26 3.26 0 0 0-2.18 3.08 3.57 3.57 0 0 0 5.7 2.93c.57-.42.01-1.38-.56-.95zM277.4 322.91c-.79-1.45-2.94-1.63-4.27-.78a3.59 3.59 0 0 0-.87 5.08c1 1.34 3 2.31 4.4 1s2.33-3.53 1-5.19a.41.41 0 0 0-.26-.11zm-1.1 4c-.95 1.2-2.28.8-3.14-.34a2.54 2.54 0 0 1 .36-3.55c1.26-1 2.29-.26 3.24.6a.32.32 0 0 0 0 .09c.77 1.15.31 2.29-.46 3.23zM279.52 319.69a71.07 71.07 0 0 1 0 8.51c-.07.77 1.13.76 1.2 0a38 38 0 0 0-.06-8.66c-.14-.62-1.16-.47-1.14.15zM288.74 325.1h-.68v-1.21a15.62 15.62 0 0 0-.34-4.27.41.41 0 0 0-.68-.39 13 13 0 0 0-2.32 2.89c-.77 1.1-1.47 2.24-2.14 3.41a.59.59 0 0 0 .51.89c1.21 0 2.45.1 3.68.09v1.6c0 .53 1.08.88 1.2.16a11.11 11.11 0 0 0 .15-1.83c.23 0 .45 0 .67-.05a.62.62 0 0 0-.05-1.29zm-4.63 0c.46-.78.92-1.56 1.42-2.32.37-.56.79-1.1 1.19-1.66v3.9zM293.12 324.68a5 5 0 0 0-1.82.11c-.3.11-.48.61-.11.77a5.45 5.45 0 0 0 1.93.24c.72.03.72-1.12 0-1.12zM296.74 324.38c-.6-.19-1-.3-.92-1 .2-1.62 2.34-.51 3.09 0 .46.28.88-.34.56-.72-1.54-1.78-5.45-1.37-4.56 1.58.27.9 1.26 1.13 2.06 1.4.49.17 1.36.31 1.67.8.67 1.09-1.1 1.38-1.68 1.29a2.39 2.39 0 0 1-1.44-.82c-.45-.53-1.29.3-.76.76a3.66 3.66 0 0 0 3.8.67c1.07-.36 1.84-1.3 1.12-2.4s-1.88-1.23-2.94-1.56zM303.72 327.45c-1.39.68-1-3.12-1-3.68v-.92a2.08 2.08 0 0 0 1.3-.16.55.55 0 0 0-.28-1h-1v-1.28a.49.49 0 0 0-1 0c0 .42-.06.85-.09 1.29a2.13 2.13 0 0 0-1 .23.45.45 0 0 0 .11.81 2.17 2.17 0 0 0 .78.12 16.7 16.7 0 0 0 .18 4.38 1.56 1.56 0 0 0 2.3 1.26.56.56 0 1 0-.3-1.05zM306 322.67a.41.41 0 0 0 .39.68c1.41-.23 3.44-1.18 3.64 1.07v.4c-1.65-.94-4.62-.54-4.45 1.73s2.8 2.24 4.41 1.31v.41a.6.6 0 0 0 1.19 0c0-1.14.07-2.29 0-3.43a3.36 3.36 0 0 0-.78-2.51 3.53 3.53 0 0 0-4.4.34zm4.05 3.79a3 3 0 0 1-1.48.88c-.77.19-2 .05-1.94-1 .06-1.62 2.34-.77 3.44-.49v.58zM315.31 321.79a4.53 4.53 0 0 0-1.45.82 2.41 2.41 0 0 0-.21.24c0-.24 0-.47-.1-.7-.12-.56-.89-.38-.93.12-.16 1.88.15 3.81.15 5.69 0 .72 1.15.72 1.12 0-.05-1.24 0-2.51-.1-3.77a4.74 4.74 0 0 1 1.81-1.36c.64-.25.4-1.31-.29-1.04zM320 327.19c-1.12.78-1-3.61-1-3.85v-.25a5 5 0 0 0 1.44 0 .58.58 0 0 0 0-1.11 6.83 6.83 0 0 0-1.43-.07 12.11 12.11 0 0 0-.09-1.59c-.06-.43-.8-.42-.87 0a13.17 13.17 0 0 0-.16 1.54 4.85 4.85 0 0 0-.66 0 .52.52 0 0 0-.14 1 5 5 0 0 0 .77.17v.61a11.66 11.66 0 0 0 .23 3.54c.36 1.2 1.64 2 2.66 1 .47-.51-.16-1.39-.75-.99zM325.28 319a.58.58 0 0 0-.42-.55 3.87 3.87 0 0 0-2 .1.46.46 0 0 0 .12.9l1.15-.16c.07.25-.06 3.73-.09 5.1s-.09 4.87-.1 5.15h-1.12c-.86.05-.85 1.41 0 1.34.56-.05 1.12-.06 1.68-.1.31 0 .66-.27.62-.62-.12-1.17 0-3.43.06-5.13a50.92 50.92 0 0 0 .1-6.03zM339.3 322.6c.38.4.9.2 1.39.24a8.42 8.42 0 0 0 1.81 0 .56.56 0 0 0 .15-1.09 2.48 2.48 0 0 0-1 0c-.33 0-.65-.06-1-.07a1.72 1.72 0 0 0-1.45.45.39.39 0 0 0 .06.47zM344.8 319.53a.58.58 0 0 0-.48.19.59.59 0 0 0-.09.64.71.71 0 0 0 0 .25.45.45 0 0 0 .67.27.89.89 0 0 0 .44-.8.56.56 0 0 0-.54-.55zM337.49 318.51a4.69 4.69 0 0 0-1.79.05c-.24 0-.52.21-.49.5a72.77 72.77 0 0 1-.11 11.34.55.55 0 0 0 .55.54 8.89 8.89 0 0 0 1.71.05c.74 0 .74-1.18 0-1.15a11.81 11.81 0 0 1-1.19 0c-.15-3.43.31-6.9.06-10.32l1.26-.06a.48.48 0 0 0 0-.95zM364.69 318.54l-1.88.1a.38.38 0 0 0-.1.74 7 7 0 0 0 1.34.26c-.34 3.34-.12 6.73-.34 10.07-.5 0-1 .08-1.5.1a.63.63 0 1 0 .17 1.24 9.17 9.17 0 0 1 1.89-.17.62.62 0 0 0 .6-.6c.3-3.71.21-7.45.4-11.16a.57.57 0 0 0-.58-.58z" fill="#1e1e1e"/><path d="M343.16 319.21c-1.52-.37-2.3.45-2.52 1.92a45.35 45.35 0 0 0-.06 7.09.6.6 0 0 0 1.19 0c0-1.27-.15-2.53-.2-3.8s-.48-4.37 1.46-4.28a.48.48 0 0 0 .13-.93zM345.08 322.05c-.17-.33-.59-.18-.71.1a7.19 7.19 0 0 0-.13 2.82c0 1.06 0 2.12.12 3.18a.55.55 0 0 0 1.09 0c.07-1.13 0-2.28 0-3.41a6.1 6.1 0 0 0-.37-2.69zM352.12 321.77l-2 4.59c-.39-.67-.78-1.34-1.16-2a8.08 8.08 0 0 0-1.58-2.52c-.22-.18-.66-.09-.63.26a7.59 7.59 0 0 0 1.12 2.66c.57 1.09 1.18 2.16 1.81 3.22a.59.59 0 0 0 1 0c.81-1.86 1.62-3.73 2.42-5.59.32-.71-.68-1.3-.98-.62zM355.77 322a3.89 3.89 0 0 0-1.41 5.24c1.08 1.71 4.14 1.54 5.56.41.62-.49-.28-1.43-.88-.88a2.71 2.71 0 0 1-2.15.46c-.88-.06-1.55-.27-1.8-1.2a2.42 2.42 0 0 1-.07-.47c1.41-.26 2.83.09 4.25 0a1 1 0 0 0 1-1.4 3.09 3.09 0 0 0-4.5-2.16zm2.27 2.33a11.44 11.44 0 0 0-2.87.12 2.34 2.34 0 0 1 1.89-1.65 1.74 1.74 0 0 1 1.77.91 2.16 2.16 0 0 0 .29.66c-.31 0-1.01-.05-1.12-.05zM380.24 329.87c-.13 0-1.37 0-1.51.23v-.57c-.08-1 0-2.14 0-3.2 0-1.38.06-2.77 0-4.16 0-.56-.05-1.13-.08-1.7-.09-1.27.11-1.06 1.36-.94.59.06.69-.88.13-1a5.57 5.57 0 0 0-2.37-.08.59.59 0 0 0-.43.56c.29 2.43.36 4.9.43 7.34a38.84 38.84 0 0 0 0 4.18.47.47 0 0 0 .33.34 14.39 14.39 0 0 0 2.08.23c.82.04.82-1.3.06-1.23zM410.08 319.13a.6.6 0 0 0-.6-.59 11.67 11.67 0 0 0-1.67.07.54.54 0 0 0 0 1 6.34 6.34 0 0 0 1.07.07c0 3.31 0 6.65.33 9.95h-1.67c-.77 0-.77 1.24 0 1.2s1.5-.06 2.26-.07a.55.55 0 0 0 .54-.54c-.34-3.69-.24-7.39-.26-11.09zM387.43 325.68c.65-.08 1.48-.19 1.49-1a3.88 3.88 0 0 0-1.49-2.51 2.64 2.64 0 0 0-2.61-.45 3.69 3.69 0 0 0-2 3c-.43.11-.54.79 0 .9a3.4 3.4 0 0 0 .48 1.55 3.5 3.5 0 0 0 5.27.39c.49-.57-.33-1.4-.83-.83a2.3 2.3 0 0 1-3.56-.39 1.77 1.77 0 0 1-.17-.55 16.58 16.58 0 0 0 3.42-.11zm-1.72-3a2 2 0 0 1 1.64 1.09c.08.12.47.77.41.86.05-.07-.76-.07-.78-.06-1 0-2 .05-3 .09.21-1 .81-1.96 1.73-1.99zM395.67 322.13c-.85-.78-2.57-.1-3.65.64a3.64 3.64 0 0 0-.22-.71c-.13-.31-.62-.2-.7.09a9.65 9.65 0 0 0 0 2.79v3.14a.57.57 0 0 0 1.13 0v-3.36-.91c1.06-.58 3-1.68 3.22 0a20.66 20.66 0 0 1 0 4c0 .76 1.24.75 1.18 0-.1-1.15-.11-2.3-.16-3.46a3.14 3.14 0 0 0-.8-2.22zM403.65 319.57c-.12.92-.19 1.87-.23 2.83a3.77 3.77 0 0 0-2.68-.53 3 3 0 0 0-2.07 2.88c-.08 1.27.44 2.91 1.71 3.44a2.8 2.8 0 0 0 3-.87v.69c0 .6 1 .8 1.09.15a27 27 0 0 0-.05-8.69c-.09-.47-.72-.3-.77.1zm-.41 6.59c-.61.36-1.26 1.06-2 1-1.13 0-1.52-1.55-1.48-2.44s.47-1.9 1.51-2a2.81 2.81 0 0 1 2.09.85v2.5a.19.19 0 0 0-.12.09z" fill="#1e1e1e"/><path d="M64.36 306.3v-4.67a.4.4 0 0 0-.8 0v4.67a.4.4 0 0 0 .8 0zM64.44 315.36l-.06-5.36a.4.4 0 0 0-.8 0l.06 5.38a.4.4 0 0 0 .8 0zM294.17 310.68v4.68a.4.4 0 0 0 .8 0v-4.68a.4.4 0 0 0-.8 0zM294.09 301.63q0 2.69.06 5.37a.4.4 0 0 0 .8 0q0-2.69-.06-5.37a.4.4 0 0 0-.8 0zM348.68 306.3v-4.67a.4.4 0 0 0-.8 0v4.67a.4.4 0 0 0 .8 0zM348.76 315.36c0-1.79 0-3.59-.06-5.38a.4.4 0 0 0-.8 0c0 1.79 0 3.59.06 5.38a.4.4 0 0 0 .8 0zM391.92 306.3v-4.67a.4.4 0 0 0-.8 0v4.67a.4.4 0 0 0 .8 0zM392 315.36l-.06-5.38a.4.4 0 0 0-.8 0l.06 5.38a.4.4 0 0 0 .8 0zM116 306.8v-5.17a.4.4 0 0 0-.8 0v5.17a.4.4 0 0 0 .8 0zM116.08 315.36c0-1.63 0-3.25-.06-4.88a.4.4 0 0 0-.8 0c0 1.63 0 3.25.06 4.88a.4.4 0 0 0 .8 0zM19.79 306.3v-4.67a.4.4 0 0 0-.8 0v4.67a.4.4 0 0 0 .8 0zM19.87 315.36c0-1.79 0-3.59-.06-5.38a.4.4 0 0 0-.8 0c0 1.79 0 3.59.06 5.38a.4.4 0 0 0 .8 0z" fill="#757575"/><path d="M395.05 260.1q-.07-36-.11-72l-.2-144.72c0-6.41 2.32-16.19-3.13-20.33-1.75-1.33-3.78-1.38-5.89-1.57-4.62-.4-44.66-.77-58-.76-54.59 0-283.26.08-285 .07-7.17 0-22-2.39-23.84 7.42a.76.76 0 0 0 0 .26c-1.12 12.36-.19 25.24-.24 37.63-.11 27-.69 216.38-.55 219.08s.18 6.09 1.84 8.25c2.19 2.85 8 2.81 11.27 3.22 5.77.73 11.58.55 17.37.52 16.83-.06 331.75-.86 337.29-1.64 4-.56 7.34-1.81 8.47-6s.73-23.97.72-29.43zm-2.22 16.62c-.08 5.74.8 14.58-6.08 16.45-6 1.65-27.61.84-31.3.85-18.54.05-166.74.48-222.31.66-22 .07-92.31 1.27-104.9-.67-2.57-.4-5.66-.3-7.07-2.94-.84-1.58-.79-4.1-.88-5.84-.13-2.33-.1-9.11-.1-10.16 0-6.41-.19-243.35.06-246.37v-.05c1.83-8.94 19.65-6 26.43-5.95 1.1 0 316.45.13 321 .15 1.07 0 18.25.56 19.86.95 5 1.21 5.39 5.66 5.26 10.17-1.13 38.44-.07 77.06 0 115.51-.03 42.4.62 84.85.03 127.24zM420.59 19.74a12.15 12.15 0 0 0-2.47-.42.5.5 0 0 0-.49.49q-.31 5.85-.26 11.71a.53.53 0 0 0 .52.52h2.2a.55.55 0 0 0 0-1.1h-1.69c-.07-3.54 0-7.09.19-10.62.63.06 1.26.13 1.9.15a.39.39 0 0 0 .1-.73zM426.27 23a4.33 4.33 0 0 0-1.82.77l-.1.08c0-.24 0-.48-.07-.71-.09-.55-.89-.37-.92.12-.16 2 0 4.12 0 6.15a.5.5 0 0 0 1 0 41.76 41.76 0 0 0 .11-4.35c.11-.07.6-.44.77-.56a2.07 2.07 0 0 1 1.2-.39.56.56 0 1 0-.17-1.11zM433.26 23.72c-1.48-1.46-3-1.35-4.51-.09a3.35 3.35 0 0 0-.48 4.72 3 3 0 0 0 4.27.86c1.52-1.19 1.69-3.58 1-5.24a.43.43 0 0 0-.28-.25zm-1 4c-.8 1.28-2.3 1-3.17-.06a2.21 2.21 0 0 1 .22-3.14c1.06-1 1.92-.83 3.07-.22v.1a3.76 3.76 0 0 1-.08 3.3zM443.49 23.12c-.38 1.46-.82 2.89-1.27 4.33-.46-1.45-.88-2.92-1.42-4.34-.15-.4-.79-.61-1-.13q-1.11 2.32-2.13 4.68c-.52-1.57-1-3.15-1.66-4.67-.2-.45-.87-.12-.77.32.48 2 1.25 4 1.84 6 .13.4.78.56 1 .12q1.06-2.34 2.14-4.67c.51 1.52 1 3.05 1.54 4.54.17.44.88.55 1 0 .46-2 1.29-3.88 1.85-5.85a.57.57 0 0 0-1.12-.33zM448 20.3c-.74.43-2.55 1.65-2.3 2.66a.5.5 0 0 0 .82.22c.45-.37.83-.8 1.23-1.19a64 64 0 0 1-.22 7.33c-.07.77 1.12.76 1.19 0a71.23 71.23 0 0 0 .15-8.52.58.58 0 0 0-.87-.5zM452.89 25.54a18.2 18.2 0 0 1-2.21.13.52.52 0 0 0-.37.89c.28.31 2.09.24 2.58.22.81-.01.8-1.29 0-1.24zM457.39 25.78c-.58-.24-1.41-.67-1.35-1.43.08-1.09 2.38-.6 2.91-.17a.49.49 0 0 0 .69-.7c-1.12-1.2-4.63-1.37-4.58.87a2.27 2.27 0 0 0 1 1.84 7.09 7.09 0 0 0 1.76.83c1.13.45 1.25 1.7-.1 1.89a2.44 2.44 0 0 1-1.91-.69c-.54-.5-1.35.32-.81.81a3.41 3.41 0 0 0 3.33.79 2.11 2.11 0 0 0 1.47-2.23c-.23-1.2-1.46-1.43-2.41-1.81zM462.77 24a4.11 4.11 0 0 0 1.31 0c.71-.11.54-1.28-.17-1.25h-1.11c0-.42 0-.84.07-1.25s-.81-.63-.88-.12-.12.89-.16 1.35a5.25 5.25 0 0 0-.68.08c-.65.13-.47 1.11.15 1.12h.44a15.9 15.9 0 0 0 .43 4.49c.27 1.05 1.14 2 2.15 1 .5-.46-.33-1.21-.78-.6-.21.28-.52-1.18-.53-1.26a21.81 21.81 0 0 1-.25-2.42v-1.2zM470.41 23.51c-1-1.21-3.22-.67-4.35.12a.49.49 0 0 0 .38.9c.5-.14 1-.32 1.49-.43 1.17-.25 1.83.16 2 1.3a4.9 4.9 0 0 1 0 .54c-1.53-.92-4.21-.58-4.38 1.42a2.29 2.29 0 0 0 1.92 2.36 3.46 3.46 0 0 0 2.42-.63.65.65 0 0 0 0 .14c.06.76 1.25.76 1.18 0a8.37 8.37 0 0 1 0-1.12.57.57 0 0 0 0-.51c.16-1.45.28-2.98-.66-4.09zm-3.89 4.12c-.21-1.13 1.06-1.36 1.89-1.18a5.86 5.86 0 0 1 1.58.74v.34a7.16 7.16 0 0 1-1.24.85c-.75.4-2.02.34-2.23-.75zM475 23a4.36 4.36 0 0 0-1.18.79 5.13 5.13 0 0 0-.25-.69c-.17-.4-.69-.14-.73.2a17.87 17.87 0 0 0 .16 2.91v2.92c0 .71 1.05.7 1.1 0a22.08 22.08 0 0 0 0-4.06 3.19 3.19 0 0 1 1.36-1A.57.57 0 1 0 475 23zM479.81 28.53c-.73.71-.69-1.56-.68-1.52 0-.63 0-1.25-.05-1.87v-1.12a5.22 5.22 0 0 0 1.25 0 .62.62 0 0 0 0-1.19 5.91 5.91 0 0 0-1.26-.05c0-.45 0-.89-.08-1.33s-.83-.69-.92-.12-.11 1-.14 1.47a1.06 1.06 0 0 0-1 .41.36.36 0 0 0 0 .36 1 1 0 0 0 .92.43v1.18a14.35 14.35 0 0 0 .14 3.59 1.51 1.51 0 0 0 2.66.67c.61-.57-.27-1.44-.84-.91zM486.17 31.1c-.57-3.2 0-7.46-.08-10.94a.61.61 0 0 0-.59-.59 5.28 5.28 0 0 0-2.06.08.43.43 0 0 0 0 .83 5.71 5.71 0 0 0 1.48.23c0 1.88.1 9.73.09 9.93a7.43 7.43 0 0 0-1.49 0c-.79-.05-.81 1.25 0 1.25a14.07 14.07 0 0 0 2.25-.07.57.57 0 0 0 .4-.72zM460 84.47c.66-.08 1.49-.18 1.5-1A3.91 3.91 0 0 0 460 81a2.57 2.57 0 0 0-2.6-.45 3.71 3.71 0 0 0-2 3c-.42.12-.53.8 0 .91a3.25 3.25 0 0 0 .48 1.54 3.5 3.5 0 0 0 5.27.4c.49-.57-.33-1.4-.83-.83a2.3 2.3 0 0 1-3.56-.4 2 2 0 0 1-.18-.54 16.56 16.56 0 0 0 3.42-.16zm-1.71-3a2 2 0 0 1 1.64 1.09c.07.12.47.77.4.86.05-.07-.75-.07-.78-.07-1 0-2 .06-3 .09.23-.98.83-1.94 1.75-1.97zM468.26 80.92c-.86-.77-2.58-.09-3.65.65a3.64 3.64 0 0 0-.22-.71c-.14-.32-.63-.21-.71.09a10 10 0 0 0 0 2.79v3.13a.57.57 0 0 0 1.14 0v-3.36-.9c1-.58 3-1.69 3.22 0a21.49 21.49 0 0 1 0 4c0 .77 1.23.76 1.17 0-.09-1.15-.1-2.3-.16-3.45a3.13 3.13 0 0 0-.79-2.24zM475.73 78.37c-.11.91-.18 1.86-.23 2.83a3.69 3.69 0 0 0-2.67-.53 3 3 0 0 0-2.08 2.88 3.49 3.49 0 0 0 1.72 3.45 2.79 2.79 0 0 0 3-.87v.69c0 .59 1 .79 1.09.15a27.24 27.24 0 0 0-.05-8.69c-.1-.49-.73-.28-.78.09zm-.41 6.63c-.6.35-1.25 1.06-2 1-1.13 0-1.51-1.56-1.47-2.44s.47-1.9 1.51-2a2.81 2.81 0 0 1 2.09.85v2.49zM420.52 77a6.1 6.1 0 0 0-2.09-.12.44.44 0 0 0-.43.43c-.05 3.79 0 7.69-.29 11.47a.55.55 0 0 0 .55.55 7 7 0 0 0 1.58.06.63.63 0 1 0-.17-1.24l-.84.05c.1-3.44.2-7 .05-10.4.5.08 1 .16 1.5.2a.51.51 0 0 0 .14-1zM426 80.55a5.53 5.53 0 0 0-1.75 1c0-.22 0-.44-.09-.66a.42.42 0 0 0-.8 0 24.45 24.45 0 0 0 0 5.8c0 .66 1 .66 1 0v-3.74a3 3 0 0 1 .81-.67 5.6 5.6 0 0 1 1.16-.55c.67-.29.38-1.43-.33-1.18zM432.52 81.16a.41.41 0 0 0-.13-.18 3.21 3.21 0 0 0-4.48 1.02c-.81 1.52-.61 4 1 4.91a3.62 3.62 0 0 0 4.68-1.24 3.3 3.3 0 0 0-1.07-4.51zm.39 3.42a2.4 2.4 0 0 1-3.11 1.56c-1.32-.42-1.49-2.15-1-3.31s1.66-1.33 2.76-1.18a.46.46 0 0 0 .18.32 2.54 2.54 0 0 1 1.17 2.61zM443.59 80.64c-.43 1.17-.79 2.37-1.17 3.56-.09.28-.16.61-.25 1a12.62 12.62 0 0 0-1.85-4.58c-.28-.35-.81-.1-.93.25-.52 1.5-.93 3.13-1.57 4.61a28.49 28.49 0 0 0-1.76-4.78.51.51 0 0 0-.92.39c.72 2 1.38 4 2 6a.56.56 0 0 0 1 .13 26.8 26.8 0 0 0 1.9-4.92 34.17 34.17 0 0 1 1.47 4.77.57.57 0 0 0 1 .13 8 8 0 0 0 .78-2.3c.41-1.33.83-2.65 1.32-3.95.31-.69-.77-.95-1.02-.31zM447.89 78.14a10.48 10.48 0 0 0-2.14 2.17c-.22.33.21.72.54.53a8.45 8.45 0 0 0 1.47-1.13c.05 2.38.08 4.75.06 7.12a.55.55 0 0 0 1.1 0c0-2.77 0-5.54-.11-8.31a.55.55 0 0 0-.92-.38zM452.87 83.33a6.47 6.47 0 0 0-1.32 0 1.61 1.61 0 0 0-1.17.36.45.45 0 0 0 .09.69 2 2 0 0 0 1.27.16 6.17 6.17 0 0 0 1.29 0c.73-.18.46-1.13-.16-1.21zM482.53 77.56a.55.55 0 0 0-.48-.27 6 6 0 0 0-1.75.07c-.47.08-.49.89 0 1a3.86 3.86 0 0 0 .9.06h.33v2.33q0 3.77-.13 7.53a8.48 8.48 0 0 0-1.51.24c-.78.2-.45 1.33.32 1.18a15.15 15.15 0 0 1 1.77-.28.62.62 0 0 0 .6-.6c0-2.43.08-4.86.1-7.29.02-1.17.32-2.88-.15-3.97zM420.87 185.53a13.25 13.25 0 0 1-1.89 0v-6.46c0-1.18.08-3.9.09-4 .51-.21 1.19.14 1.76-.15a.46.46 0 0 0-.23-.85c-1 .1-2.15-.45-2.62.62-.32.73 0 2.28-.06 3.05 0 2.75-.05 5.51-.07 8.26a.55.55 0 0 0 .54.54 15.17 15.17 0 0 0 2.43 0c.76.04.76-1.08.05-1.01zM481.14 174.52a.61.61 0 0 0-.74-.42 13.32 13.32 0 0 1-1.55.14.43.43 0 0 0-.22.79 2.33 2.33 0 0 0 1.45.32c.27 1.74-.16 3.93-.24 5.6 0 1.14-.11 2.29-.18 3.43a6.45 6.45 0 0 1 0 .86c0-.23-.82-.19-1.33-.2a.6.6 0 0 0 0 1.19 13.28 13.28 0 0 0 2-.08.55.55 0 0 0 .41-.41 26.8 26.8 0 0 0 .34-5.45c.05-1.79.48-4.01.06-5.77zM426.29 178.25c.73-.33.1-1.41-.64-1.09H425c.1-.69.18-1.5-.42-1.76a.38.38 0 0 0-.55.42 4 4 0 0 1-.1 1.37 3.09 3.09 0 0 0-1.12.21.43.43 0 0 0 0 .75 2.89 2.89 0 0 0 1 .21v1.21A13.75 13.75 0 0 0 424 183c.3 1.08 1.43 2 2.39 1a.52.52 0 0 0-.74-.74c-.52.43-.78-2.55-.79-2.83v-2a3 3 0 0 0 1.43-.18zM433 177.51a3.26 3.26 0 0 0-2.38 0 5.63 5.63 0 0 0-1.47.58 23.53 23.53 0 0 0-.29-3.29c-.09-.57-.87-.36-.92.12a84.05 84.05 0 0 0-.14 8.7.58.58 0 0 0 1.15 0c.1-1.38.19-2.83.2-4.28 1-.47 2.54-1.3 3.21-.7.48.42.2 1.62.17 2.21a20.21 20.21 0 0 0-.07 2.58c0 .57 1 .79 1.07.15a25.82 25.82 0 0 0 .26-4 2.2 2.2 0 0 0-.79-2.07zM436.33 177.57h-.16a.33.33 0 0 0-.38.15 5.8 5.8 0 0 0-.26 2.42v3.49a.62.62 0 0 0 1.24 0 42 42 0 0 0-.07-5.5.56.56 0 0 0-.37-.56zM435.81 176.17a.62.62 0 0 0 .85-.23v-.05a.58.58 0 0 0-.14-.71.61.61 0 0 0-1.12.08.79.79 0 0 0 .41.91zm.79-.74zM441.77 177.17a2.71 2.71 0 0 0-1.91 1 2.67 2.67 0 0 0-.24-.61.35.35 0 0 0-.64.08 7.62 7.62 0 0 0-.15 2.9c0 1.1 0 2.19-.05 3.28 0 .79 1.19.78 1.22 0q.08-1.75 0-3.51v-.57a2.5 2.5 0 0 1 1.91-1.38c.67-.15.52-1.22-.14-1.19zM448.44 174.8a17.67 17.67 0 0 0-.38 2.8 3 3 0 0 0-3-.2c-1.31.76-1.59 2.39-1.45 3.77a3 3 0 0 0 2 2.81c1.15.27 1.9-.54 2.58-1.33.05.38.11.75.17 1.11.12.66 1.19.51 1.16-.15-.13-2.91-.07-5.78-.12-8.68a.5.5 0 0 0-.96-.13zm-.49 6.52a14.88 14.88 0 0 0-1.21 1.17c-1.09.93-1.81-.49-1.92-1.41s-.05-2.18.85-2.67c.74-.4 1.58 0 2.32.34 0 .84 0 1.69.08 2.51zM453.28 180a3.25 3.25 0 0 1-1 .15 5.35 5.35 0 0 0-1 0c-.45.06-.5.77-.13 1a3.13 3.13 0 0 0 2.61 0 .62.62 0 0 0-.48-1.15zM455.9 175c-.51 2.68-.13 5.73-.09 8.45a.67.67 0 0 0 1.33 0c0-2.72.28-5.79-.3-8.45a.49.49 0 0 0-.94 0zM458.84 177.7a.74.74 0 0 0 0 .14.13.13 0 0 1 0 .06v.1a21.49 21.49 0 0 0 .06 5.61.58.58 0 0 0 1.16 0 31.28 31.28 0 0 0-.21-5.64c-.12-.46-.76-.78-1.01-.27zM458.86 176a.48.48 0 0 0 .36.18.6.6 0 0 0 .6-.33.5.5 0 0 0 .08-.32.9.9 0 0 0-.09-.48.62.62 0 0 0-1-.12.76.76 0 0 0-.19.76.49.49 0 0 0 .24.31zM466.39 177.13c-1.31-.5-2.72.45-3.55 1.55a3.53 3.53 0 0 0-.27-1c-.17-.36-.65-.21-.76.09a7.26 7.26 0 0 0-.09 2.75c0 1 .09 2 .16 3.08.05.76 1.22.78 1.2 0 0-1.1-.09-2.2-.15-3.3v-.17a.33.33 0 0 0 .15-.16c.34-.75 2.5-2.56 3.11-1.34a5 5 0 0 1 .14 2.11 21.81 21.81 0 0 1-.25 2.42.69.69 0 1 0 1.37.18 24.31 24.31 0 0 0 .05-4.35 2.1 2.1 0 0 0-1.11-1.86zM470.74 177.57c-1.93.9-1.7 3.88-.6 5.32a3.45 3.45 0 0 0 5 .46c.57-.5-.27-1.35-.84-.83-1.64 1.5-3.44 0-3.89-1.57a18.12 18.12 0 0 0 3.75.08c1 0 1.61-.54 1.45-1.67-.27-2.24-3.17-2.58-4.87-1.79zm3.07 2.24c-1.13.18-2.3-.06-3.44.05a1.59 1.59 0 0 1 1.07-1.29 3.41 3.41 0 0 1 1.82-.1 1.54 1.54 0 0 1 1 .69c.34.56.04.58-.45.65zM421 288.64a.46.46 0 0 0 0-.91 17.91 17.91 0 0 0-2.2-.12.52.52 0 0 0-.51.51v7.16a22.46 22.46 0 0 0 0 4.1.59.59 0 0 0 .57.43c.67 0 1.36-.06 2-.09s.78-1.33 0-1.24c-.44 0-1 0-1.43.07a14 14 0 0 0-.12-2.76v-7.13c.57.01 1.13.02 1.69-.02zM424.29 288.6c-.5 2.84-.16 5.95-.19 8.83a.57.57 0 0 0 1.13 0c0-2.88.38-6-.1-8.83a.44.44 0 0 0-.84 0zM431.71 291.32c-1.06-1.25-3.31-.56-4.43.23-.4.28-.17 1.05.36.86a11.58 11.58 0 0 1 1.6-.54 2.42 2.42 0 0 1 1-.09c.69.16.94 1 1 1.65v.58a4.14 4.14 0 0 0-2.69-.56 1.93 1.93 0 0 0-1.73 2c.33 2.39 2.82 2.66 4.56 1.71a1.77 1.77 0 0 0 0 .23c0 .76 1.22.75 1.17 0-.08-1.17-.11-2.34-.2-3.51a4.44 4.44 0 0 0-.64-2.56zm-3.73 4c-.13-1.69 2.28-.66 3.4-.22v.73c-1 .79-3.25 1.54-3.38-.49zM437.64 293.93c-.72-.28-2.3-.31-2.17-1.33.17-1.27 2.32-.61 3-.16.36.26.86-.25.61-.62-1-1.49-4.61-1.41-4.75.77a2.08 2.08 0 0 0 1.54 1.92c.7.26 2.18.31 2.23 1.35.07 1.46-2.28 1.05-2.81.31a.55.55 0 1 0-.87.67c1.23 1.48 4.63 1.62 4.79-.83a2.12 2.12 0 0 0-1.57-2.08zM442.29 292.08l1.17.05a.63.63 0 0 0 0-1.26h-1.12a5.72 5.72 0 0 0-.15-1.6c-.07-.26-.51-.36-.63-.08a4.87 4.87 0 0 0-.37 1.67h-.4a.58.58 0 0 0-.49.28.54.54 0 0 0-.08.37v.06a.6.6 0 0 0 .54.42h.37v.39a21.47 21.47 0 0 0 .17 4 1.52 1.52 0 0 0 2.42 1.15c.67-.33.09-1.25-.57-1-1.07.46-.9-3.53-.9-3.88.02-.15.03-.36.04-.57zM447.61 293.7a3.09 3.09 0 0 0-1.48 0 3.91 3.91 0 0 0-1.32.35.44.44 0 0 0 0 .75 1.82 1.82 0 0 0 1.3.11c.51-.06 1 .06 1.5 0 .67-.15.5-1.01 0-1.21zM450.06 288.31a.39.39 0 0 0-.57.33c-.35 2.82.09 5.9 0 8.76a.58.58 0 0 0 1.16 0c.09-2 .12-3.94.05-5.9-.04-.9.3-2.67-.64-3.19zM452.64 291.25a29.12 29.12 0 0 0-.07 6.05.57.57 0 0 0 1.13 0 34.88 34.88 0 0 0-.16-6.05.47.47 0 0 0-.9 0zM452.77 289.5l.06.05a.36.36 0 0 0 .24.07.62.62 0 0 0 .54-.41.48.48 0 0 0 .05-.18.48.48 0 0 0-.07-.23v-.08a.53.53 0 0 0-.72-.19.51.51 0 0 0-.27.27.65.65 0 0 0 .17.7zM459.88 291a3 3 0 0 0-3.16.54 2.83 2.83 0 0 0-.13-.5.36.36 0 0 0-.68 0 7.82 7.82 0 0 0-.23 2.86v3.23a.6.6 0 0 0 1.19 0v-3.23-1.1c.25-.17.49-.37.76-.52a2.41 2.41 0 0 1 .76-.32 1.21 1.21 0 0 1 1.38 1.06 13.21 13.21 0 0 1 .35 4.11c0 .8 1.28.81 1.26 0a25.15 25.15 0 0 0-.32-3.78 3.36 3.36 0 0 0-1.18-2.35zM466.2 290.63a3.8 3.8 0 0 0-3.52 2.42 3.48 3.48 0 0 0 1.28 3.73 4.36 4.36 0 0 0 4.53.39c.7-.32.09-1.36-.61-1-1.4.65-3.56.14-4.12-1.35 1.53 0 3.07-.08 4.6 0a.64.64 0 0 0 .6-.79c-.38-1.46-1.1-3.32-2.76-3.4zm-2.53 3a2.46 2.46 0 0 1 2.36-1.85c.79.07 1.22.92 1.49 1.7a27.49 27.49 0 0 0-3.85.15zM474.36 288.14a.54.54 0 0 0-.53-.54 5.05 5.05 0 0 0-2.09.16.44.44 0 0 0 0 .76 3.54 3.54 0 0 0 1.54.17c-.07 3.31 0 6.62-.3 9.92l-1.3-.05c-.77 0-.77 1.2 0 1.2h1.84a.6.6 0 0 0 .58-.58c-.1-3.66.15-7.35.26-11.04z" fill="#1e1e1e"/><path d="M353.27 37.77c-3.17-7.11-12.7 3.8-10.41 8.94.26.58-1.61 93.86.37 117.38.88 10.44-6.23 11.58-7.56 11.84-13 2.54-224.37 2.48-252.11 1.62-5.83-.18-2.3 11.4 4.19 11.6 25.77.8 95.5 1.46 108.59.89 5-.21 67 1.88 94.14 1.34 14.41-.28 29-.82 43.26-3.24 7.82-1.33 15.31-3.1 18.51-11.38 8.15-10.76 2.08-136.63 1.02-138.99z" opacity=".2"/><path d="M66.24 35.51c.28-3.17 3.42-8.44 7.06-9 1.84-.31 241.83-.74 241.83-.74 5.12.21 25.9 1.15 27.28 2.75 3.42 4 1.43 132.89 1.21 137.77-.09 2.19-1.72 10.75-15.18 10.22-5.23.16-242.46 3.54-253.26-.05-6.88-2.3-8.89-9.07-9-13S66 38.69 66.24 35.51z" fill="#f78100" opacity=".85"/><path d="M337.33 28.31c-25.93-1.79-255.64-4-260.26-1-4.79 3.14-7.29 8.85-8.07 14.36-1.76 12.41.07 96.93.15 126.32 0 3.31 2.74 4.56 5.51 3.19C77.8 169.63 80 165.41 80 162c-.07-24-1.07-96.7-.87-109.09.05-3 .52-12.19.69-14.09h.09c1.31.36 11.74.28 15.37.37 26 .66 52 1.42 78.07 1.52 25.8.1 51.53-1.23 77.31-1.49 27.22-.28 54.39 1 81.54 2.85 5.8.37 11.7-13.3 5.13-13.76z" fill="#fff" opacity=".2"/><path d="M344.58 77.89c-.08-10 .26-41.2-.64-46.68-.62-3.78-1.93-4.93-5.78-5.52-7.27-1.11-15.05-1-22.4-1-21.92-.23-209.16-.21-229 0-5.16.06-12.55-.69-16.58 3.31-4.56 4.46-2.87 11.43-3 17.08 0 .07-1 100.36-.7 110.47.18 5.43-.74 12.75 2.56 17.51 3.2 4.61 10.22 5.22 15.32 5.74 3.78.38 230.63-.73 232.94-.8 6.63-.21 14.63.78 21-1.6 5.16-1.93 6.09-6.11 6.33-11.15 1.43-29.06.2-58.25-.05-87.36zm-2.17 86.44c-.15 3.13-.07 6.87-3 8.89A12.21 12.21 0 0 1 334 175c-3.86.52-17.31.73-20.1.77-6.69.1-217.11 1-223.72 1.06a50.7 50.7 0 0 1-13-1.5c-5.31-1.4-7.68-4.59-8.17-10-.43-4.65-.5-9.44-.57-14.12 0-3.47.27-103.68.28-106 0-.05-.61-8.39.58-12.19 2.06-6.57 9.24-6.29 14.85-6.41 4.23-.1 241.06.42 249.93.86 2.62.13 6.23-.17 7.53 2.39 1.2 2.37.8 6.32.85 9 .09 3.76.37 79.63.58 108.59-.04 5.61-.37 11.23-.63 16.88z" fill="#f78100"/><path d="M172.31 111.91a1.05 1.05 0 1 0-1 1.33h.07a1 1 0 0 0 1-1.26zM176 102.58c-.26 3.2.34 6.41.19 9.62-.06 1.38 2.08 1.38 2.15 0a77.36 77.36 0 0 0-.45-9.62 1 1 0 0 0-1.89 0zM176.83 99.64h.07a.92.92 0 0 0 .63-.67.7.7 0 0 0 .11-.23 1.44 1.44 0 0 0 0-.77.9.9 0 0 0-1.49-.39c-.2.24-.42.37-.53.69a1.07 1.07 0 0 0 .11.94 1 1 0 0 0 1.1.43zM184.94 111.41c-1 1.1-1.38-3.24-1.4-3.43-.07-.93-.15-1.87-.19-2.81v-1.62h1.43c1.62 0 1.38-2.58-.3-2.24a8.25 8.25 0 0 1-1.1.13 11.77 11.77 0 0 0-.24-2.45c-.16-.72-1.08-.55-1.31 0a8.56 8.56 0 0 0-.59 2.48h-.61c-1 0-1.34 1.67-.25 1.87.26 0 .53.08.79.11 0 .91.09 1.81.14 2.66a19.12 19.12 0 0 0 .72 5.59c.76 2 3.14 2.83 4.48.92.66-.93-.8-2.03-1.57-1.21zM194.28 101.71a5.61 5.61 0 0 0-5.93 3.17 7.9 7.9 0 0 0-.48 1.66.89.89 0 0 0-.09.8 5.23 5.23 0 0 0 2 4.69c2.33 1.71 5.45 1.2 7.67-.45 1.05-.78.08-2.56-1.05-1.8-1.44 1-3 1.72-4.76 1a3.08 3.08 0 0 1-1.88-2.68c2.88.06 5.79-.19 8.65-.33a1.1 1.1 0 0 0 1.06-1.39 6.64 6.64 0 0 0-5.19-4.67zM190 106c1.16-3.46 4.82-2.63 6.58-.39-2.18.11-4.39.2-6.58.39zM216.1 101.55a5.4 5.4 0 0 0-5.7 2 3.47 3.47 0 0 0-.85-.93 4.2 4.2 0 0 0-5.78.23 4.4 4.4 0 0 0-.27-.77.7.7 0 0 0-1.21 0c-.62 1.43-.4 3-.39 4.49v5.65a1.08 1.08 0 0 0 2.16 0c0-1.88-.07-3.76-.1-5.65v-1.61a6 6 0 0 1 1.88-1.39 2.15 2.15 0 0 1 3 1.56c.32 2.29-.18 5-.28 7.27-.06 1.39 2.08 1.38 2.16 0 .12-2.17.23-4.41.14-6.6a4.66 4.66 0 0 1 2.3-2.1 3.24 3.24 0 0 1 1.32-.35c1 .09 1.57 1.32 1.71 2.26.31 2.12-.29 4.46-.29 6.6a1.08 1.08 0 0 0 2.16 0 35.52 35.52 0 0 0 .11-7.36c-.17-1.39-.66-2.78-2.07-3.3zM225.52 105.91a25 25 0 0 0-4.81.67c-.51.35-.75 1.2.16 1.49a23.64 23.64 0 0 0 4.61 0c1.44-.07 1.52-2.22.04-2.16zM238.07 106.22c-.14-1.43-.34-3-1.48-4-1.82-1.61-6-.85-7.26 1.14a.76.76 0 0 0 .85 1.1c2.08-.71 5.27-2.06 5.68 1.18 0 .31.07.64.1 1a5.68 5.68 0 0 0-4.81-.92 4.43 4.43 0 0 0-2.92 4.85c.5 3.85 5.39 3.64 8.1 1.63v.4c.1 1.42 2.34 1.43 2.23 0-.15-2.13-.28-4.26-.49-6.38zm-4.49 5.06c-1.23.37-3.37.39-3.38-1.33 0-3.7 3.89-2.15 5.92-1.22v.66a6.4 6.4 0 0 1-2.54 1.89z" fill="#1e1e1e"/></svg>