<svg xmlns="http://www.w3.org/2000/svg" viewBox="0 0 490 330"><path d="M218.33 267.28c1.68-8.14 1.3-199.77.38-205.52.47-1.19 2.95-13.5-2.87-14.17-34.12-4-146.71-4.2-166.29-3.48-4.75.18-14.18 8.32-9.6 21.4-3.09 33.49 1.45 66.83 1.31 100.4-.07 17.2-6.64 111.27.58 130.24 5.94 14.24 28.9 7.81 32 7.44-.22 3.53.34 5.13 3.64 4.92 59.82-3.85 116.52-3.38 133.52-3.19 6.75.07 15.37-8.41 7.33-38.04z" fill="#fff"/><path d="M220.15 292.68v-10.26q-.09-20.44-.17-40.88-.19-58.21-.41-116.45c-.08-23.55-.48-47.12-.24-70.67 0-2.11.48-4.43-.25-6.45-2-5.56-11.18-3.92-15.66-4h-7.66L149 44c-30.49 0-61 .13-91.46.1-3.83 0-7.65 0-11.48.16-5.31.2-6.16 3-6 8a1 1 0 0 0 0 .17c0 20.94-.18 41.89-.27 62.83q-.26 58.21-.45 116.44c0 21-.64 42-.1 63 .17 6.6.9 9.68 8 10.59 5.73.74 11.61.24 17.37.4 3.34.09 6.7 0 10 0q25.08-.1 50.15-.21l55.94-.24 17.36-.07c5.73 0 12.22.9 17.66-.67 5.28-1.5 4.41-7.31 4.43-11.82zm-2.62 1.81s-.09 2.25-.19 2.7c-.27 1.25-1.2 4-2.31 4.76-.66.48-3.05.33-4.13.38-3 .14-6 .14-8.93.17s-5.69 0-8.53 0l-46.83.18c-27.33.11-54.86 1.19-82.18.34-3.91-.13-7.78 0-11.68 0-2.23 0-5.21.16-7.28-.67-3-1.21-3.47-4-3.58-6.93v-1.77-8.51-36.88q0-55.38-.09-110.76l-.14-81v-4a1.08 1.08 0 0 0 0-.19c0-6.65 3.4-6.06 8.06-6.08h24.77q25.83.06 51.66.07c27.44 0 55-.56 82.39.18 1.44 0 3.35-.25 4.73.15 4.44 1.26 3.61 4.5 3.56 7.3V67.46l.12 40.27q.17 56.19.31 112.37c.06 24.26.37 48.54.17 72.8.09.57.11 1.1.1 1.59z" fill="#1e1e1e"/><path d="M127.67 44.72c-.93 16.34-.53 32.81-.58 49.17q-.12 32.7 0 65.4.08 59.73.38 119.45c0 8.17.17 17.74.21 25.27a1.28 1.28 0 0 0 2.55 0c-.13-22.63-.19-47.31-.3-70.58q-.31-65.85-.35-131.68c0-19 .58-38 .08-57a1 1 0 0 0-2 0z" fill="#1e1e1e"/><path d="M217.18 172.69c-27-.14-54.09.52-81.14.45q-39.34-.09-78.68-.52l-16.29-.18a1.25 1.25 0 0 0 0 2.5c44.64.57 89.3.88 134 .58 14-.09 28.15.06 42.16-.91a1 1 0 0 0 0-1.92z" fill="#1e1e1e"/><path d="M483.36 34.37c0 1.63-.11 3.25-.11 4.87a.4.4 0 0 0 .8 0c0-1.62.08-3.24.11-4.87a.4.4 0 0 0-.8 0zM483.42 26.51v4.18a.4.4 0 0 0 .8 0v-4.18a.4.4 0 0 0-.8 0zM401.17 34.37c0 1.79-.1 3.58-.1 5.37a.4.4 0 0 0 .8 0c0-1.79.07-3.58.1-5.37a.4.4 0 0 0-.8 0zM401.23 26.51v4.68a.4.4 0 0 0 .8 0v-4.68a.4.4 0 0 0-.8 0z" fill="#757575"/><path d="M407 26.31c-1.79 0-3.58-.1-5.37-.11a.4.4 0 0 0 0 .8c1.79 0 3.58.08 5.37.11a.4.4 0 0 0 0-.8zM414.86 26.37h-4.68a.4.4 0 0 0 0 .8h4.68a.4.4 0 0 0 0-.8zM423.91 26.29l-5.37.05a.4.4 0 0 0 0 .8l5.37-.05a.4.4 0 0 0 0-.8zM483.68 26.21H479a.4.4 0 0 0 0 .8h4.68a.4.4 0 0 0 0-.8zM465.76 26.29l-5.37.05a.4.4 0 0 0 0 .8l5.37-.05a.4.4 0 0 0 0-.8zM474.32 26.11l-4.68.09a.4.4 0 0 0 0 .8l4.68-.09a.4.4 0 0 0 0-.8zM126.2 34.41c0 1.63-.1 3.25-.11 4.88a.4.4 0 0 0 .8 0c0-1.63.08-3.25.11-4.88a.4.4 0 0 0-.8 0zM126.26 26.56v4.18a.4.4 0 0 0 .8 0v-4.18a.4.4 0 0 0-.8 0zM44.1 34.41c0 1.8-.1 3.59-.11 5.38a.4.4 0 0 0 .8 0c0-1.79.08-3.58.11-5.38a.4.4 0 0 0-.8 0zM44.16 26.56v4.68a.4.4 0 0 0 .8 0v-4.68a.4.4 0 0 0-.8 0z" fill="#757575"/><path d="M48.43 26.35c-1.29 0-2.58-.1-3.87-.11a.4.4 0 0 0 0 .8c1.29 0 2.58.09 3.87.11a.4.4 0 0 0 0-.8zM56.79 26.41h-4.68a.4.4 0 0 0 0 .8h4.68a.4.4 0 0 0 0-.8zM64.34 26.33c-1.29 0-2.58.05-3.88.06a.4.4 0 0 0 0 .8c1.3 0 2.59 0 3.88-.06a.4.4 0 0 0 0-.8zM126.52 26.25h-3.67a.4.4 0 0 0 0 .8h3.67a.4.4 0 0 0 0-.8zM110.6 26.33c-1.45 0-2.91.05-4.37.06a.4.4 0 0 0 0 .8c1.46 0 2.92 0 4.37-.06a.4.4 0 0 0 0-.8zM118.66 26.16l-4.18.09a.4.4 0 0 0 0 .8l4.18-.09a.4.4 0 0 0 0-.8z" fill="#757575"/><path d="M84.72 22.44c-.64-1.51-3.59-.62-4.5.4-1.66 1.86-1.21 5.49.18 7.36 1.26 1.7 3.66 2 4.91.12a7.15 7.15 0 0 0-.31-7.66.6.6 0 0 0-.28-.22zm-2.61 7.7c-1.31-.65-1.7-2.82-1.68-4.08a4 4 0 0 1 .33-1.74c.31-.63 2.08-2.12 3.08-1.33a.54.54 0 0 0 .1.3 5.43 5.43 0 0 1 1 3.38c.06 1.49-.56 4.6-2.83 3.47zM91.24 24.28a4.16 4.16 0 0 0-2.07 1.2v-.52c-.07-.53-.94-.79-1.05-.14a59.69 59.69 0 0 0-.38 8.77c0 1 1.5.78 1.41 0s.06-1.88.1-2.83a3.6 3.6 0 0 0 3 .62c2-.62 2.21-2.88 2-4.62s-1.25-2.87-3.01-2.48zm.65 5.72a2.08 2.08 0 0 1-2.35-1 .55.55 0 0 0-.27-.29V27.3a4.12 4.12 0 0 1 1.23-1.43 2 2 0 0 1 1.65-.41c.66.28.69 1 .75 1.57.1.97.1 2.51-1.01 2.97zM101.28 30c-.73-.8-1.45-1.65-2.19-2.49a20.27 20.27 0 0 0 1.48-2.25.58.58 0 0 0-.92-.7 18.49 18.49 0 0 0-1.6 1.8 19.43 19.43 0 0 0-2.31-2.15c-.44-.34-1 .3-.73.73a19.38 19.38 0 0 0 2 2.73c-.67.91-1.32 1.84-2 2.7a.7.7 0 1 0 1.1.86c.6-.81 1.25-1.61 1.9-2.42.71.78 1.42 1.54 2.08 2.31s1.91-.44 1.19-1.12zM74.56 25.79A3.91 3.91 0 0 0 72 27.15c.11-2.4 1.75-4.79 4.3-3.15.53.35 1.18-.47.68-.89-2.25-1.89-5.17-.22-5.86 2.38-.6 2.26-.18 6.45 2.87 6.61a3.65 3.65 0 0 0 3.24-5 2.72 2.72 0 0 0-2.67-1.31zm-2 4a3.33 3.33 0 0 1-.45-1c.8-1 3.39-3.06 4-.71.49 2.05-2.24 3.54-3.52 1.69z" fill="#1e1e1e"/><path d="M214.18 34.41c0 1.63-.1 3.25-.11 4.88a.4.4 0 0 0 .8 0c0-1.63.08-3.25.11-4.88a.4.4 0 0 0-.8 0zM214.24 26.56v4.18a.4.4 0 0 0 .8 0v-4.18a.4.4 0 0 0-.8 0zM132.08 34.41c0 1.8-.1 3.59-.1 5.38a.4.4 0 0 0 .8 0c0-1.79.07-3.58.1-5.38a.4.4 0 0 0-.8 0zM132.14 26.56v4.68a.4.4 0 0 0 .8 0v-4.68a.4.4 0 0 0-.8 0z" fill="#757575"/><path d="M136.41 26.35c-1.29 0-2.58-.1-3.87-.11a.4.4 0 0 0 0 .8c1.29 0 2.58.09 3.87.11a.4.4 0 0 0 0-.8zM144.77 26.41h-4.68a.4.4 0 0 0 0 .8h4.68a.4.4 0 0 0 0-.8zM152.32 26.33l-3.87.06a.4.4 0 0 0 0 .8l3.87-.06a.4.4 0 0 0 0-.8zM214.5 26.25h-3.67a.4.4 0 0 0 0 .8h3.67a.4.4 0 0 0 0-.8zM198.59 26.33l-4.38.06a.4.4 0 0 0 0 .8l4.38-.06a.4.4 0 0 0 0-.8zM206.64 26.16l-4.18.09a.4.4 0 0 0 0 .8l4.18-.09a.4.4 0 0 0 0-.8z" fill="#757575"/><path d="M172.7 22.44c-.64-1.51-3.59-.62-4.5.4-1.66 1.86-1.21 5.49.18 7.36 1.26 1.7 3.66 2 4.91.12a7.15 7.15 0 0 0-.28-7.66.56.56 0 0 0-.31-.22zm-2.61 7.7c-1.31-.65-1.69-2.82-1.67-4.08a4 4 0 0 1 .32-1.74c.31-.63 2.08-2.12 3.08-1.33a.54.54 0 0 0 .1.3 5.43 5.43 0 0 1 1 3.38c.01 1.49-.56 4.6-2.83 3.47zM179.22 24.28a4.16 4.16 0 0 0-2.07 1.2c0-.17 0-.34-.05-.52-.07-.53-.94-.79-1-.14a58.34 58.34 0 0 0-.37 8.77c0 1 1.49.78 1.4 0s.06-1.88.11-2.83a3.57 3.57 0 0 0 3 .62c2-.62 2.21-2.88 2-4.62s-1.24-2.87-3.02-2.48zm.66 5.71a2.09 2.09 0 0 1-2.36-1 .55.55 0 0 0-.27-.29v-1.41a4.12 4.12 0 0 1 1.23-1.43 2 2 0 0 1 1.65-.41c.66.28.69 1 .75 1.57.12.98.12 2.52-1 2.98zM189.26 30c-.73-.8-1.45-1.65-2.19-2.49a20.27 20.27 0 0 0 1.48-2.25.58.58 0 0 0-.92-.7 18.49 18.49 0 0 0-1.6 1.8 19.43 19.43 0 0 0-2.31-2.15c-.44-.34-1 .3-.73.73a19.38 19.38 0 0 0 2 2.73c-.67.91-1.32 1.84-2 2.7a.7.7 0 1 0 1.1.86c.6-.81 1.25-1.61 1.9-2.42.71.78 1.42 1.54 2.08 2.31s1.93-.44 1.19-1.12zM162.54 25.79a3.91 3.91 0 0 0-2.6 1.36c.12-2.4 1.75-4.79 4.3-3.15.53.35 1.18-.47.69-.89-2.26-1.89-5.18-.22-5.87 2.38-.6 2.26-.18 6.45 2.87 6.61a3.66 3.66 0 0 0 3.25-5 2.75 2.75 0 0 0-2.64-1.31zm-2 4a3.33 3.33 0 0 1-.45-1c.8-1 3.39-3.06 4-.71.49 2.05-2.24 3.54-3.52 1.69z" fill="#1e1e1e"/><path d="M303.41 34.41c0 1.63-.11 3.25-.11 4.88a.4.4 0 0 0 .8 0c0-1.63.08-3.25.11-4.88a.4.4 0 0 0-.8 0zM303.46 26.56v4.18a.4.4 0 0 0 .8 0v-4.18a.4.4 0 0 0-.8 0zM221.31 34.41c0 1.8-.1 3.59-.11 5.38a.4.4 0 0 0 .8 0c0-1.79.08-3.58.11-5.38a.4.4 0 0 0-.8 0zM221.37 26.56v4.68a.4.4 0 0 0 .8 0v-4.68a.4.4 0 0 0-.8 0z" fill="#757575"/><path d="M225.64 26.35c-1.29 0-2.58-.1-3.88-.11a.4.4 0 0 0 0 .8c1.3 0 2.59.09 3.88.11a.4.4 0 0 0 0-.8zM234 26.41h-4.67a.4.4 0 0 0 0 .8H234a.4.4 0 0 0 0-.8zM241.55 26.33l-3.88.06a.4.4 0 0 0 0 .8l3.88-.06a.4.4 0 0 0 0-.8zM303.73 26.25h-3.68a.4.4 0 0 0 0 .8h3.68a.4.4 0 0 0 0-.8zM287.81 26.33c-1.46 0-2.91.05-4.37.06a.4.4 0 0 0 0 .8c1.46 0 2.91 0 4.37-.06a.4.4 0 0 0 0-.8zM295.86 26.16l-4.17.09a.4.4 0 0 0 0 .8l4.17-.09a.4.4 0 0 0 0-.8z" fill="#757575"/><path d="M261.93 22.44c-.64-1.51-3.59-.62-4.5.4-1.66 1.86-1.21 5.49.18 7.36a2.93 2.93 0 0 0 4.91.12 7.17 7.17 0 0 0-.28-7.66.64.64 0 0 0-.31-.22zm-2.62 7.7c-1.3-.65-1.69-2.82-1.67-4.08a4 4 0 0 1 .33-1.74c.3-.63 2.08-2.12 3.07-1.33a.55.55 0 0 0 .11.3 5.43 5.43 0 0 1 1 3.38c0 1.49-.56 4.6-2.84 3.47zM268.44 24.28a4.13 4.13 0 0 0-2.06 1.2c0-.17 0-.34-.06-.52-.07-.53-.93-.79-1.05-.14a61.1 61.1 0 0 0-.37 8.77c0 1 1.5.78 1.4 0s.07-1.88.11-2.83a3.57 3.57 0 0 0 3 .62c2-.62 2.22-2.88 2-4.62s-1.2-2.87-2.97-2.48zm.66 5.72a2.08 2.08 0 0 1-2.35-1 .59.59 0 0 0-.27-.29V27.3a4.26 4.26 0 0 1 1.24-1.43 2 2 0 0 1 1.65-.41c.66.28.69 1 .75 1.57.09.97.09 2.51-1.02 2.97zM278.49 30c-.73-.8-1.45-1.65-2.19-2.49a18.86 18.86 0 0 0 1.47-2.25.58.58 0 0 0-.91-.7 18.49 18.49 0 0 0-1.6 1.8 18.77 18.77 0 0 0-2.26-2.13c-.43-.34-1 .3-.72.73a20.11 20.11 0 0 0 2 2.73c-.66.91-1.32 1.84-2 2.7a.7.7 0 1 0 1.1.86c.6-.81 1.25-1.61 1.89-2.42.71.78 1.43 1.54 2.09 2.31s1.87-.46 1.13-1.14zM251.77 25.79a3.91 3.91 0 0 0-2.6 1.36c.11-2.4 1.75-4.79 4.3-3.15.53.35 1.18-.47.68-.89-2.26-1.89-5.17-.22-5.86 2.38-.6 2.26-.18 6.45 2.87 6.61a3.65 3.65 0 0 0 3.24-5 2.72 2.72 0 0 0-2.63-1.31zm-2 4a3.33 3.33 0 0 1-.45-1c.8-1 3.39-3.06 4-.71.49 2.05-2.24 3.54-3.52 1.69z" fill="#1e1e1e"/><path d="M393.33 34.41c0 1.63-.1 3.25-.11 4.88a.4.4 0 0 0 .8 0c0-1.63.08-3.25.11-4.88a.4.4 0 0 0-.8 0zM393.39 26.56v4.18a.4.4 0 0 0 .8 0v-4.18a.4.4 0 0 0-.8 0zM311.24 34.41c0 1.8-.11 3.59-.11 5.38a.4.4 0 0 0 .8 0c0-1.79.07-3.58.11-5.38a.4.4 0 0 0-.8 0zM311.29 26.56v4.68a.4.4 0 0 0 .8 0v-4.68a.4.4 0 0 0-.8 0z" fill="#757575"/><path d="M315.56 26.35c-1.29 0-2.58-.1-3.87-.11a.4.4 0 0 0 0 .8c1.29 0 2.58.09 3.87.11a.4.4 0 0 0 0-.8zM323.92 26.41h-4.68a.4.4 0 0 0 0 .8h4.68a.4.4 0 0 0 0-.8zM331.47 26.33l-3.87.06a.4.4 0 0 0 0 .8l3.87-.06a.4.4 0 0 0 0-.8zM393.66 26.25H390a.4.4 0 0 0 0 .8h3.68a.4.4 0 0 0 0-.8zM377.74 26.33l-4.38.06a.4.4 0 0 0 0 .8l4.38-.06a.4.4 0 0 0 0-.8zM385.79 26.16l-4.18.09a.4.4 0 0 0 0 .8l4.18-.09a.4.4 0 0 0 0-.8z" fill="#757575"/><path d="M351.85 22.44c-.64-1.51-3.59-.62-4.49.4-1.67 1.86-1.22 5.49.18 7.36 1.26 1.7 3.65 2 4.9.12a7.17 7.17 0 0 0-.27-7.66.62.62 0 0 0-.32-.22zm-2.61 7.7c-1.3-.65-1.69-2.82-1.67-4.08a4.14 4.14 0 0 1 .32-1.74c.31-.63 2.11-2.12 3.11-1.32a.55.55 0 0 0 .11.3 5.42 5.42 0 0 1 1 3.38c-.03 1.48-.6 4.59-2.87 3.46zM358.37 24.28a4.16 4.16 0 0 0-2.07 1.2c0-.17 0-.34-.05-.52-.07-.53-.94-.79-1.05-.14a59.69 59.69 0 0 0-.37 8.77c0 1 1.49.78 1.4 0s.07-1.88.11-2.83a3.57 3.57 0 0 0 3 .62c2-.62 2.21-2.88 2-4.62s-1.21-2.87-2.97-2.48zM359 30a2.08 2.08 0 0 1-2.35-1 .64.64 0 0 0-.27-.29V27.3a4.12 4.12 0 0 1 1.23-1.43 2 2 0 0 1 1.66-.41c.65.28.69 1 .74 1.57.12.97.13 2.51-1.01 2.97zM368.41 30c-.73-.8-1.45-1.65-2.19-2.49a17.79 17.79 0 0 0 1.48-2.25.58.58 0 0 0-.91-.7 16.19 16.19 0 0 0-1.6 1.8 20.31 20.31 0 0 0-2.32-2.15c-.44-.34-1 .3-.73.73a19.38 19.38 0 0 0 2 2.73c-.67.91-1.32 1.84-2 2.7a.71.71 0 1 0 1.11.86c.59-.81 1.25-1.61 1.89-2.42.71.78 1.42 1.54 2.08 2.31s1.93-.44 1.19-1.12zM341.69 25.79a3.94 3.94 0 0 0-2.6 1.36c.12-2.4 1.75-4.79 4.3-3.15.53.35 1.19-.47.69-.89-2.26-1.89-5.18-.22-5.86 2.38-.6 2.26-.19 6.45 2.87 6.61a3.65 3.65 0 0 0 3.24-5 2.75 2.75 0 0 0-2.64-1.31zm-2 4a3.31 3.31 0 0 1-.44-1c.79-1 3.38-3.06 4-.71.48 2.05-2.25 3.54-3.53 1.69z" fill="#1e1e1e"/><path d="M22.68 48.87c1.79 0 3.58-.1 5.37-.11a.4.4 0 0 0 0-.8c-1.79 0-3.58.08-5.37.11a.4.4 0 0 0 0 .8zM14.82 48.93h4.68a.4.4 0 0 0 0-.8h-4.68a.4.4 0 0 0 0 .8zM31.61 48.93h4.68a.4.4 0 0 0 0-.8h-4.68a.4.4 0 0 0 0 .8z" fill="#757575"/><path d="M15.41 53.4c0-1.63-.1-3.25-.1-4.87a.4.4 0 0 0-.8 0c0 1.62.07 3.24.1 4.87a.4.4 0 0 0 .8 0zM15.47 61.26v-4.68a.4.4 0 0 0-.8 0v4.68a.4.4 0 0 0 .8 0zM22.68 171c1.79 0 3.58.1 5.37.11a.4.4 0 0 0 0-.8c-1.79 0-3.58-.08-5.37-.11a.4.4 0 0 0 0 .8zM14.82 171h4.68a.4.4 0 0 0 0-.8h-4.68a.4.4 0 0 0 0 .8zM31.61 171h4.68a.4.4 0 0 0 0-.8h-4.68a.4.4 0 0 0 0 .8z" fill="#757575"/><path d="M14.61 165.68c0 1.63-.1 3.25-.1 4.88a.4.4 0 0 0 .8 0c0-1.63.07-3.25.1-4.88a.4.4 0 0 0-.8 0zM14.67 157.83v4.67a.4.4 0 0 0 .8 0v-4.67a.4.4 0 0 0-.8 0zM15.39 69.81c0-1.63 0-3.25.06-4.88a.4.4 0 0 0-.8 0c0 1.63 0 3.25-.06 4.88a.4.4 0 0 0 .8 0zM15.22 78.36l.09-4.68a.4.4 0 0 0-.8 0l-.09 4.68a.4.4 0 0 0 .8 0zM15.22 87.56l.09-4.68a.4.4 0 0 0-.8 0l-.09 4.68a.4.4 0 0 0 .8 0zM15.22 95.36l.09-4.67a.4.4 0 0 0-.8 0l-.09 4.67a.4.4 0 0 0 .8 0zM15.47 136.19v-4.68a.4.4 0 0 0-.8 0v4.68a.4.4 0 0 0 .8 0zM15.39 145.24c0-1.79 0-3.58.06-5.37a.4.4 0 0 0-.8 0c0 1.79 0 3.58-.06 5.37a.4.4 0 0 0 .8 0zM15.39 127.21c0-1.63 0-3.25.06-4.88a.4.4 0 0 0-.8 0c0 1.63 0 3.25-.06 4.88a.4.4 0 0 0 .8 0zM15.22 153.79l.09-4.67a.4.4 0 0 0-.8 0l-.09 4.67a.4.4 0 0 0 .8 0z" fill="#757575"/><path d="M14.29 103.46c-.64-1.51-3.59-.62-4.5.4-1.66 1.86-1.21 5.49.18 7.36 1.26 1.69 3.66 2 4.91.12a7.16 7.16 0 0 0-.28-7.67.69.69 0 0 0-.31-.21zm-2.62 7.69c-1.3-.65-1.69-2.81-1.67-4.07a4 4 0 0 1 .33-1.75c.31-.62 2.08-2.11 3.08-1.33a.57.57 0 0 0 .1.31 5.43 5.43 0 0 1 1 3.38c.01 1.48-.51 4.6-2.84 3.46zM20.81 105.29a4.1 4.1 0 0 0-2.07 1.21c0-.17 0-.35-.06-.52-.06-.53-.93-.8-1-.14a59.69 59.69 0 0 0-.38 8.77c0 1 1.5.77 1.41 0s.06-1.88.1-2.83a3.6 3.6 0 0 0 3 .62c2-.62 2.21-2.88 2-4.62-.28-1.6-1.24-2.88-3-2.49zm.65 5.71a2.06 2.06 0 0 1-2.35-1 .55.55 0 0 0-.27-.29v-1.42a4.09 4.09 0 0 1 1.23-1.42 2 2 0 0 1 1.65-.41c.66.28.69 1 .75 1.57.1 1.02.1 2.53-1.01 2.97zM30.85 111c-.73-.8-1.45-1.65-2.19-2.49a20.27 20.27 0 0 0 1.48-2.25.59.59 0 0 0-.92-.71 18.62 18.62 0 0 0-1.6 1.81 20.39 20.39 0 0 0-2.31-2.16c-.44-.33-1 .31-.73.73a20.2 20.2 0 0 0 2 2.74c-.66.91-1.31 1.84-2 2.7a.7.7 0 1 0 1.1.86c.6-.81 1.25-1.61 1.9-2.42.7.78 1.42 1.54 2.08 2.3s1.93-.41 1.19-1.11zM5.06 102.94c-2.28-.62-5 1.56-4.19 4s3.68 1.82 5.25.48a4.84 4.84 0 0 1-.46 2c-.7 1.39-2.4 2.41-3.73 1.06a.68.68 0 0 0-1 1c2.07 2 5 .63 6-1.78.81-1.93.64-6.08-1.87-6.76zm.83 3.25c-.88 1-3.89 2.45-3.94-.1a2.21 2.21 0 0 1 1.81-2c1.09-.21 1.6.48 2 1.35a3.83 3.83 0 0 1 .21.68z" fill="#1e1e1e"/><path d="M22.68 179.12c1.79 0 3.58-.11 5.37-.11a.4.4 0 0 0 0-.8c-1.79 0-3.58.07-5.37.11a.4.4 0 0 0 0 .8zM14.82 179.17h4.68a.4.4 0 0 0 0-.8h-4.68a.4.4 0 0 0 0 .8zM31.61 179.17h4.68a.4.4 0 0 0 0-.8h-4.68a.4.4 0 0 0 0 .8z" fill="#757575"/><path d="M15.41 183.64c0-1.62-.1-3.25-.1-4.87a.4.4 0 0 0-.8 0c0 1.62.07 3.25.1 4.87a.4.4 0 0 0 .8 0zM15.47 191.5v-4.68a.4.4 0 0 0-.8 0v4.68a.4.4 0 0 0 .8 0zM22.68 301.75c1.79 0 3.58.11 5.37.11a.4.4 0 0 0 0-.8c-1.79 0-3.58-.08-5.37-.11a.4.4 0 0 0 0 .8zM14.82 301.7h4.68a.4.4 0 0 0 0-.8h-4.68a.4.4 0 0 0 0 .8zM31.61 301.7h4.68a.4.4 0 0 0 0-.8h-4.68a.4.4 0 0 0 0 .8z" fill="#757575"/><path d="M14.61 296.43c0 1.62-.1 3.24-.1 4.87a.4.4 0 0 0 .8 0c0-1.63.07-3.25.1-4.87a.4.4 0 0 0-.8 0zM14.67 288.57v4.68a.4.4 0 0 0 .8 0v-4.68a.4.4 0 0 0-.8 0zM15.39 199.55c0-1.46 0-2.91.06-4.37a.4.4 0 0 0-.8 0c0 1.46 0 2.91-.06 4.37a.4.4 0 0 0 .8 0zM15.22 208.1l.09-4.67a.4.4 0 0 0-.8 0l-.09 4.67a.4.4 0 0 0 .8 0zM15.22 217.3l.09-4.67a.4.4 0 0 0-.8 0l-.09 4.67a.4.4 0 0 0 .8 0zM15.22 225.49l.09-4.68a.4.4 0 0 0-.8 0l-.09 4.68a.4.4 0 0 0 .8 0zM15.47 266.93v-4.68a.4.4 0 0 0-.8 0v4.68a.4.4 0 0 0 .8 0zM15.39 276c0-1.8 0-3.59.06-5.38a.4.4 0 0 0-.8 0c0 1.79 0 3.58-.06 5.38a.4.4 0 0 0 .8 0zM15.39 258c0-1.63 0-3.25.06-4.88a.4.4 0 0 0-.8 0c0 1.63 0 3.25-.06 4.88a.4.4 0 0 0 .8 0zM15.22 284.54l.09-4.68a.4.4 0 0 0-.8 0l-.09 4.68a.4.4 0 0 0 .8 0z" fill="#757575"/><path d="M14.29 233.7c-.64-1.51-3.59-.61-4.5.4-1.66 1.86-1.21 5.49.18 7.37a2.94 2.94 0 0 0 4.91.11 7.15 7.15 0 0 0-.28-7.66.64.64 0 0 0-.31-.22zm-2.62 7.7c-1.3-.65-1.69-2.82-1.67-4.08a4 4 0 0 1 .33-1.74c.31-.63 2.08-2.12 3.08-1.33a.54.54 0 0 0 .1.3 5.43 5.43 0 0 1 1 3.38c.01 1.49-.51 4.6-2.84 3.47zM20.81 235.54a4.16 4.16 0 0 0-2.07 1.2c0-.17 0-.34-.06-.51-.06-.54-.93-.8-1-.15a59.77 59.77 0 0 0-.38 8.78c0 1 1.5.77 1.41 0s.06-1.87.1-2.83a3.6 3.6 0 0 0 3 .62c2-.62 2.21-2.88 2-4.62-.28-1.61-1.24-2.88-3-2.49zm.65 5.71a2.08 2.08 0 0 1-2.35-1 .55.55 0 0 0-.27-.29v-1.41a4.12 4.12 0 0 1 1.23-1.43 2 2 0 0 1 1.65-.41c.66.28.69 1 .75 1.57.1 1.02.1 2.52-1.01 2.97zM30.85 241.28c-.73-.8-1.45-1.65-2.19-2.49a20.27 20.27 0 0 0 1.48-2.25.58.58 0 0 0-.92-.7 19.75 19.75 0 0 0-1.6 1.8 19.43 19.43 0 0 0-2.31-2.15c-.44-.34-1 .3-.73.73a20.11 20.11 0 0 0 2 2.73c-.66.92-1.31 1.84-2 2.7a.7.7 0 1 0 1.1.86c.6-.81 1.25-1.61 1.9-2.41.7.77 1.42 1.53 2.08 2.3s1.93-.46 1.19-1.12zM5.06 233.19c-2.28-.62-5 1.56-4.19 4s3.68 1.82 5.25.48a4.88 4.88 0 0 1-.46 2.05c-.7 1.39-2.4 2.4-3.73 1-.62-.63-1.59.35-1 1 2.07 2 5 .63 6-1.78.81-1.94.64-6.07-1.87-6.75zm.83 3.25c-.88 1-3.89 2.44-3.94-.1a2.21 2.21 0 0 1 1.81-2c1.09-.21 1.6.48 2 1.35a4.11 4.11 0 0 1 .21.68z" fill="#1e1e1e"/><path d="M469.54 302.28c-1.14-1-3.65-.53-5-.57a21.24 21.24 0 0 0-5.74.42.71.71 0 0 0 0 1.36 21.64 21.64 0 0 0 5.74.41c1.4 0 3.88.39 5-.58a.73.73 0 0 0 0-1zM484.67 293.1c-.57.82-.45 2.14-.61 3.09a5 5 0 0 1-1.49 3.3c-1.9 1.67-4.62 1.89-7 2.3-.86.15-.53 1.31.19 1.39 3.21.38 6.18.16 8.55-2.29a6.49 6.49 0 0 0 1.68-3.66c.2-1.22.59-3 0-4.13a.75.75 0 0 0-1.28 0zM484.8 64.75c-.47 1.24-.19 6.74.18 8a.72.72 0 0 0 1.37 0c.37-1.21.65-6.71.17-8a.9.9 0 0 0-1.72 0zM481.13 48.94c1.39 1.52 2.62 2.24 3.2 4.38.45 1.7.52 3.55.81 5.29.11.69 1.22.65 1.36 0 .85-3.7 0-10.45-4.85-10.93-.68-.07-.92.83-.52 1.26zM464.09 48.1c1.45.83 9.76.78 12 .42.71-.11.65-1.21 0-1.36-2.23-.54-10.52-1.1-12-.34a.74.74 0 0 0 0 1.28zM330.8 47.59c1.37 1.12 4.65.52 6.31.57a33.06 33.06 0 0 0 7-.41.72.72 0 0 0 0-1.37 33.74 33.74 0 0 0-7-.42c-1.67 0-4.93-.55-6.31.58a.74.74 0 0 0 0 1.05zM309 47.58c1.35 1.12 10.81.59 13.13.16a.71.71 0 0 0 0-1.36c-2.32-.43-11.78-1-13.13.16a.75.75 0 0 0 0 1zM287.07 47.58c1.21 1.11 10.32.59 12.53.16a.71.71 0 0 0 0-1.36c-2.21-.43-11.31-1-12.53.16a.73.73 0 0 0 0 1zM442 47.58c1.34 1.12 10.8.59 13.12.16a.71.71 0 0 0 0-1.36c-2.32-.43-11.78-1-13.12.16a.73.73 0 0 0 0 1zM420.18 47.58c1.21 1.11 10.32.59 12.53.16a.71.71 0 0 0 0-1.36c-2.21-.43-11.32-1-12.53.16a.73.73 0 0 0 0 1zM400.94 47.58c1.21 1.11 10.33.59 12.54.16a.71.71 0 0 0 0-1.36c-2.21-.43-11.32-1-12.54.15a.76.76 0 0 0 0 1zM378.9 47.7c1.35 1 11.54.45 13.94 0a.71.71 0 0 0 0-1.36c-2.4-.41-12.59-1-13.94 0a.76.76 0 0 0 0 1.28zM353.09 47.7c2 1.13 6 .42 8.22.47a54.58 54.58 0 0 0 8.67-.43c.67-.09.67-1.27 0-1.37a54.58 54.58 0 0 0-8.67-.42c-2.24 0-6.18-.67-8.22.47a.75.75 0 0 0 0 1.28zM243.21 47.59c1.37 1.12 4.65.52 6.31.57a33.06 33.06 0 0 0 7-.41.72.72 0 0 0 0-1.37 33.74 33.74 0 0 0-7-.42c-1.67 0-4.93-.55-6.31.58a.74.74 0 0 0 0 1.05zM222.41 47.58c1.12 1.1 10 .59 12.13.16a.71.71 0 0 0 0-1.36c-2.14-.43-11-.94-12.13.16a.75.75 0 0 0 0 1zM264.85 47.58c1.44 1.12 11.15.58 13.54.16a.72.72 0 0 0 0-1.37c-2.39-.42-12.1-1-13.54.16a.75.75 0 0 0 0 1zM464.09 174.17c1.45.82 9.76.78 12 .42.71-.11.65-1.21 0-1.36-2.23-.54-10.52-1.1-12-.34a.74.74 0 0 0 0 1.28zM330.8 173.65c1.37 1.12 4.65.53 6.31.58a32.41 32.41 0 0 0 7-.42.71.71 0 0 0 0-1.36 33.74 33.74 0 0 0-7-.42c-1.67.05-4.93-.55-6.31.58a.73.73 0 0 0 0 1zM309 173.65c1.35 1.12 10.81.59 13.13.16a.71.71 0 0 0 0-1.36c-2.32-.43-11.78-1-13.13.16a.75.75 0 0 0 0 1zM287.07 173.65c1.21 1.1 10.32.59 12.53.16a.71.71 0 0 0 0-1.36c-2.21-.43-11.31-.95-12.53.15a.74.74 0 0 0 0 1.05zM442 173.65c1.34 1.12 10.8.59 13.12.16a.71.71 0 0 0 0-1.36c-2.32-.43-11.78-1-13.12.16a.73.73 0 0 0 0 1zM420.18 173.65c1.21 1.1 10.32.59 12.53.16a.71.71 0 0 0 0-1.36c-2.21-.43-11.32-.95-12.53.15a.74.74 0 0 0 0 1.05zM400.94 173.65c1.21 1.1 10.33.59 12.54.16a.71.71 0 0 0 0-1.36c-2.21-.43-11.32-.95-12.54.15a.76.76 0 0 0 0 1.05zM265.48 173.65c1.34 1.12 10.8.59 13.12.16a.71.71 0 0 0 0-1.36c-2.32-.43-11.77-1-13.12.16a.73.73 0 0 0 0 1zM243.71 173.65c1.21 1.1 10.32.59 12.53.16a.71.71 0 0 0 0-1.36c-2.21-.43-11.32-.95-12.53.15a.74.74 0 0 0 0 1.05zM224.47 173.65c1.22 1.1 10.33.59 12.54.16a.71.71 0 0 0 0-1.36c-2.21-.43-11.32-.95-12.54.15a.76.76 0 0 0 0 1.05zM378.9 173.77c1.35 1 11.54.44 13.94 0a.72.72 0 0 0 0-1.37c-2.4-.4-12.59-.94-13.94.05a.76.76 0 0 0 0 1.28zM353.09 173.77c2 1.13 6 .42 8.22.47a54.58 54.58 0 0 0 8.67-.43c.67-.09.67-1.27 0-1.37a54.58 54.58 0 0 0-8.67-.43c-2.24.05-6.18-.66-8.22.48a.75.75 0 0 0 0 1.28zM322.43 303.06c-1.38-1.12-4.66-.53-6.31-.57a33.11 33.11 0 0 0-7 .41.72.72 0 0 0 0 1.37 33.15 33.15 0 0 0 7 .41c1.66-.05 4.92.55 6.31-.57a.76.76 0 0 0 0-1.05zM343.22 303.06c-1.12-1.09-10-.58-12.13-.16a.72.72 0 0 0 0 1.37c2.14.42 11 .93 12.13-.16a.76.76 0 0 0 0-1.05zM364.5 303c-1.63-1.09-12.32-.45-14.88-.05a.72.72 0 0 0 0 1.37c2.56.4 13.25 1.05 14.88 0a.75.75 0 0 0 0-1.28zM384.43 303.06c-1.21-1.1-10.32-.58-12.53-.16a.72.72 0 0 0 0 1.37c2.21.43 11.32 1 12.53-.16a.74.74 0 0 0 0-1.05zM401.13 303.21c-.87-1.17-8.77-.75-10.7-.3a.71.71 0 0 0 0 1.36c1.93.45 9.83.87 10.7-.31a.72.72 0 0 0 0-.75zM418.31 303.07c-.73-.87-9.1-.59-11-.16a.71.71 0 0 0 0 1.36c2 .43 10.3.71 11-.16a.77.77 0 0 0 0-1zM435.14 303.22c-.84-1.18-3.7-.67-4.94-.72a20.17 20.17 0 0 0-5.65.41.71.71 0 0 0 0 1.36 20.17 20.17 0 0 0 5.65.41c1.25-.05 4.1.46 4.94-.72a.7.7 0 0 0 0-.74zM452.59 302.72c-.87-1.18-8.78-.76-10.7-.31a.71.71 0 0 0 0 1.36c1.92.45 9.82.87 10.7-.31a.7.7 0 0 0 0-.74zM302.33 302.8c-2.25-.56-4.82-.27-7.15-.3a28.17 28.17 0 0 0-5.27.41.71.71 0 0 0 0 1.36 24 24 0 0 0 5.27.51c2.3 0 4.95.15 7.15-.55a.75.75 0 0 0 0-1.43zM262.69 303.06c-1.15-1.1-4.4-.53-5.85-.57a27.56 27.56 0 0 0-6.42.41.72.72 0 0 0 0 1.37 28.12 28.12 0 0 0 6.42.41c1.46 0 4.7.53 5.85-.57a.74.74 0 0 0 0-1.05zM282.48 303.06c-1.11-1.09-10-.58-12.12-.16a.72.72 0 0 0 0 1.37c2.14.42 11 .93 12.12-.16a.74.74 0 0 0 0-1.05zM242.6 302.8c-2.44-.53-5.15-.27-7.65-.3a32.81 32.81 0 0 0-5.77.41.71.71 0 0 0 0 1.36 28.67 28.67 0 0 0 5.77.51c2.5 0 5.24.13 7.65-.55a.75.75 0 0 0 0-1.43zM486.53 91.75c.83-1.45.78-9.76.43-12-.11-.7-1.21-.64-1.37 0-.54 2.24-1.1 10.53-.34 12a.75.75 0 0 0 1.28 0zM486.13 288.48c1-1.26.43-5 .47-6.61a33.46 33.46 0 0 0-.43-6.93.71.71 0 0 0-1.36 0 34.17 34.17 0 0 0-.43 6.93c0 1.65-.5 5.35.47 6.61a.76.76 0 0 0 1.28 0zM486 225c1.12-1.37.52-4.65.57-6.31a33.06 33.06 0 0 0-.41-7 .72.72 0 0 0-1.37 0 33.06 33.06 0 0 0-.41 7c0 1.67-.55 4.93.57 6.31a.74.74 0 0 0 1 0zM486 246.83c1.11-1.34.58-10.8.16-13.12a.72.72 0 0 0-1.37 0c-.42 2.32-1 11.78.16 13.12a.74.74 0 0 0 1 0zM486.13 268.31c1-1.28.43-5 .47-6.66a34.75 34.75 0 0 0-.42-7 .72.72 0 0 0-1.37 0 34.76 34.76 0 0 0-.43 7c0 1.67-.5 5.38.47 6.66a.76.76 0 0 0 1.28 0zM486 113.89c1.11-1.34.58-10.8.16-13.12a.72.72 0 0 0-1.37 0c-.42 2.32-1 11.78.16 13.12a.74.74 0 0 0 1 0zM486 135.66c1.1-1.21.58-10.32.15-12.53a.71.71 0 0 0-1.36 0c-.43 2.21-.95 11.32.16 12.53a.74.74 0 0 0 1 0zM486 154.9c1.11-1.21.59-10.33.16-12.54a.71.71 0 0 0-1.36 0c-.43 2.21-.95 11.32.16 12.54a.75.75 0 0 0 1 0zM486.13 176.94c1-1.35.45-11.54 0-13.94a.71.71 0 0 0-1.36 0c-.41 2.4-.95 12.59 0 13.94a.76.76 0 0 0 1.28 0zM486.13 202.75c1.14-2 .42-6 .47-8.22a54.58 54.58 0 0 0-.43-8.67.71.71 0 0 0-1.36 0 54.58 54.58 0 0 0-.43 8.67c.05 2.24-.67 6.18.47 8.22a.75.75 0 0 0 1.28 0zM306.51 68.17a47.19 47.19 0 0 0 .31 8.53.72.72 0 0 0 1.37 0 36.08 36.08 0 0 0 .23-9.16c-.21-.66-.6-1.22-1.29-.83a8 8 0 0 0-.62 1.46zM308.37 95.75c.83-1.45.78-9.76.42-12-.11-.7-1.21-.64-1.36 0-.54 2.24-1.1 10.53-.34 12a.75.75 0 0 0 1.28 0zM308.37 58.9c.66-1.11.46-2.65.59-3.9a14.4 14.4 0 0 0-.17-5 .71.71 0 0 0-1.36 0 16.13 16.13 0 0 0-.64 5c0 1.27-.3 2.74.3 3.9a.75.75 0 0 0 1.28 0zM307.85 300.44c.88-.74.59-9.14.16-11.09a.71.71 0 0 0-1.36 0c-.43 1.95-.72 10.35.16 11.09a.77.77 0 0 0 1 0zM307.86 225c1.12-1.37.52-4.65.57-6.31a33.06 33.06 0 0 0-.41-7 .72.72 0 0 0-1.37 0 33.06 33.06 0 0 0-.41 7c0 1.67-.55 4.93.57 6.31a.74.74 0 0 0 1.05 0zM307.86 246.83c1.11-1.34.58-10.8.16-13.12a.72.72 0 0 0-1.37 0c-.42 2.32-1 11.78.16 13.12a.74.74 0 0 0 1.05 0zM307.86 117.89c1.11-1.34.58-10.8.16-13.12a.72.72 0 0 0-1.37 0c-.42 2.32-1 11.78.16 13.12a.74.74 0 0 0 1.05 0zM307.86 139.66c1.1-1.21.58-10.32.15-12.53a.71.71 0 0 0-1.36 0c-.43 2.21-.95 11.32.16 12.53a.74.74 0 0 0 1.05 0zM307.85 158.9c1.11-1.21.59-10.33.16-12.54a.71.71 0 0 0-1.36 0c-.43 2.21-.95 11.32.16 12.54a.75.75 0 0 0 1 0zM307.85 180.59c1.13-1.44.59-11.19.17-13.59a.72.72 0 0 0-1.37 0c-.43 2.4-1 12.14.15 13.59a.74.74 0 0 0 1.05 0zM308 202.25c1.1-1.74.44-12.74 0-15.39a.71.71 0 0 0-1.36 0c-.41 2.65-1.07 13.65 0 15.39a.76.76 0 0 0 1.28 0zM307.85 266.29c1.1-1.2.58-10.28.16-12.48a.71.71 0 0 0-1.36 0c-.43 2.2-.95 11.27.16 12.48a.73.73 0 0 0 1 0zM397.22 202.39c1.09-1.17.52-4.42.57-5.89a28 28 0 0 0-.42-6.47.71.71 0 0 0-1.36 0 28 28 0 0 0-.42 6.47c.05 1.48-.52 4.72.58 5.89a.74.74 0 0 0 1.05 0zM395.82 171c-.82 1.45-.78 9.77-.42 12 .11.71 1.21.64 1.36 0 .54-2.23 1.1-10.53.34-12a.75.75 0 0 0-1.28 0zM395.71 211.32l.14-.06a.87.87 0 0 0-.62.62c-.49 1.48-.24 3.49-.28 5a14.14 14.14 0 0 0 .45 4.1.72.72 0 0 0 1.37 0 14.14 14.14 0 0 0 .45-4.1c0-1.55.21-3.56-.28-5a.87.87 0 0 0-.62-.62c.36.07-.43 0-.61.06zM395.56 266.64c-1.12 1.36-.56 4.66-.56 6.36a32.5 32.5 0 0 0 .42 7 .71.71 0 0 0 1.36 0 32.5 32.5 0 0 0 .42-7c-.05-1.66.55-4.93-.58-6.31a.73.73 0 0 0-1 0zM395.56 247.3c-.87.74-.58 9.1-.15 11a.7.7 0 0 0 1.35 0c.43-1.94.72-10.3-.15-11a.78.78 0 0 0-1.05 0zM396.34 148.83c-1.12 1.35-.59 10.81-.16 13.13a.71.71 0 0 0 1.36 0c.43-2.32 1-11.78-.16-13.13a.73.73 0 0 0-1 0zM396.34 127.06c-1.1 1.21-.59 10.32-.16 12.53a.71.71 0 0 0 1.36 0c.43-2.21.95-11.31-.15-12.53a.76.76 0 0 0-1.05 0zM396.34 107.83c-1.1 1.21-.59 10.32-.16 12.54a.71.71 0 0 0 1.36 0c.43-2.22.95-11.32-.15-12.54a.74.74 0 0 0-1.05 0zM396.34 50.31c-1.1 1.22-.59 10.33-.16 12.54a.71.71 0 0 0 1.36 0c.43-2.21.95-11.32-.15-12.54a.76.76 0 0 0-1.05 0zM396.22 85.79c-1 1.34-.45 11.53 0 13.94a.72.72 0 0 0 1.37 0c.4-2.41.94-12.6-.05-13.94a.76.76 0 0 0-1.28 0zM396.49 69.31c-1.17.8-.67 3.68-.72 4.89a20 20 0 0 0 .41 5.58.72.72 0 0 0 1.37 0 20 20 0 0 0 .45-5.58c0-1.21.45-4.09-.72-4.89a.72.72 0 0 0-.75 0zM395.57 228.58c-.87.73-.59 9.06-.16 11a.7.7 0 0 0 1.35 0c.43-1.93.71-10.26-.16-11a.76.76 0 0 0-1 0zM396.61 298.56c.87-.74.59-9.14.16-11.09a.72.72 0 0 0-1.37 0c-.43 1.95-.72 10.35.16 11.09a.78.78 0 0 0 1.05 0zM306.8 272.37c-.88.78-.52 4-.57 5.42a23.5 23.5 0 0 0 .41 5.92.72.72 0 0 0 1.37 0 23.5 23.5 0 0 0 .41-5.92c0-1.41.32-4.63-.57-5.42a.76.76 0 0 0-1.05 0z" fill="#919191"/><path d="M488.5 187.23c0-2.55-2-3.54-4.25-2.47-2.46 1.2-2.88 1.74-2.85 4.37.44 35.64 1.63 97.42-1.5 105.75-.38 5.12-57.24 4.32-67.24 3.67-4.59-.3-9.27 7.19-4.07 7.52 9.22.6 48.72.29 57.78-.09 7.32-.31 13.49-.52 18.42-6.67 3.7-4.62 3.24-13.4 3.38-19 .15-5.97.56-73.69.33-93.08z" opacity=".2"/><path d="M480.67 294.69c-2.06 8.11-78.17 3.68-79.3 2.47-1.33-8.33-2.65-112.82.77-115.74 2.73-6.55 72.46-4.36 76.21-1.44 7.14 3.84 2.53 112.25 2.32 114.71z" fill="#1ab3e2" opacity=".85"/><path d="M471.77 177.47c-15.17-.1-57.15-1.2-62 .42-8.84 3-9.28 11.59-9.29 19.35 0 9.64 0 73.06-.06 95.13 0 3.31 9.8 5.06 10.82-6 0-17.62.2-94.92.23-96.3 3.65.31 7.72-.2 11.23-.18l43.92.3c5.84.04 11.59-12.68 5.15-12.72z" fill="#fff" opacity=".2"/><path d="M482.92 197.89c0-6.25 1.44-16.49-5.51-19.71-6.64-3.1-58.17-1.83-65.9-1.36-3.58.21-7.86.69-10.17 3.8a8.75 8.75 0 0 0-1.47 4.41 117.89 117.89 0 0 0-.59 12.61c-.16 9.39 0 79.44 0 82.73 0 4.22-2.28 16.25 2.95 18.23 3.82 1.44 9.08 1 13.09 1.17 2.44.12 4.87.23 7.31.23 7.26 0 37.95-.57 46-.81 3.13-.1 6.78.13 9.59-1.43 5.33-3 3.87-14.63 3.86-14.69.11-24.66.92-81.31.84-85.18zm-5.67 98.25c-1.92 1.08-4.71 1-6.84 1.06s-20.1.35-27.1.45c-11.05.16-22.06.53-33.1-.22-3-.2-7.52.54-8.56-2.63-1.37-4.18-.37-10.14-.33-14.43 0-2.64.17-69.65.21-80.59 0-6.77-1.65-18.42 6.28-20.28 7.23-1.69 15.7-.78 23.19-.76 12.64 0 25.44-.5 38.07.21a23 23 0 0 1 5.67.72c5.46 1.74 5.48 5.53 5.67 10.24.1 2.69.24 5.39.26 8.09v10.8c-.11 24.77 0 74.39 0 74.44-.25 4.22 1.11 10.37-3.42 12.9z" fill="#00a6e8"/><path d="M415.39 247.27a.83.83 0 0 0 0 1.66.83.83 0 0 0 0-1.66zM420.17 236.56a.82.82 0 0 0-1.22.7.79.79 0 0 0 .89.78.82.82 0 0 0 .33-.07h.06a.73.73 0 0 0 .37-.64.88.88 0 0 0-.43-.77zM420.05 240.22a.23.23 0 0 0-.36 0c-.86 1-.62 2.44-.65 3.71 0 1.63.11 3.27 0 4.91 0 .77 1.27 1 1.37.18a28.75 28.75 0 0 0 0-4.45c.02-1.39.44-3.19-.36-4.35zM425.73 247.68c-1 .61-.9-4.32-.89-4.7 0-.62.05-1.26.09-1.89a3.72 3.72 0 0 0 1.42-.12.72.72 0 0 0 0-1.37 3.11 3.11 0 0 0-1.37-.11 11.64 11.64 0 0 0-.08-1.45.63.63 0 0 0-1.23-.17 14.2 14.2 0 0 0-.3 1.82 3.87 3.87 0 0 0-1.34.41.53.53 0 0 0 .13 1 3.83 3.83 0 0 0 1.07.07c-.29 4 0 9.73 3.28 7.88.87-.52.07-1.91-.78-1.37zM432.49 239.57a4.39 4.39 0 0 0-4.23 3.63 5 5 0 0 0 7.65 5.05.74.74 0 1 0-.91-1.17 3.39 3.39 0 0 1-5.29-2c2.08.36 4.41-.26 6.47-.24a.82.82 0 0 0 .7-1.22c-.88-1.9-1.96-4.03-4.39-4.05zm-2.88 4v-.08c.3-1.65 2-3.21 3.71-2.21a4.39 4.39 0 0 1 1.59 2c-1.76 0-3.55.13-5.3.27zM451.77 242.2a2.93 2.93 0 0 0-1.47-2.46c-1.35-.58-3.41.43-4.49 1.74A2.07 2.07 0 0 0 445 240c-1.26-.83-3.24 0-4.38 1.16a7.4 7.4 0 0 0-.28-1.17c-.13-.37-.74-.56-.93-.12a7.62 7.62 0 0 0-.28 3.8c.11 1.61.14 3.23.31 4.84.08.79 1.33 1.12 1.51.2a14.76 14.76 0 0 0-.06-4.4c-.05-.4-.07-.82-.1-1.24a3 3 0 0 1 .26-.22c.68-.56 1.88-1.81 2.84-1.31.58.31.39.91.4 1.54v1.76a16.26 16.26 0 0 0 .21 3.42.71.71 0 0 0 1.37 0 24.89 24.89 0 0 0 0-5.18c1.18-.88 3.62-2.58 4.12-.71a12 12 0 0 1 0 2.94c0 1 .12 2 .19 3a.92.92 0 1 0 1.82-.25c-.33-1.98 0-3.93-.23-5.86zM457 243.91a16.71 16.71 0 0 0-2.73-.14c-.61.07-1 1-.35 1.3a9.19 9.19 0 0 0 3.08.63c1.08.11 1.1-1.7 0-1.79zM468 243.42c-.37-1.63-1.59-3.43-3.38-3.67a3.62 3.62 0 0 0-2.83 1 15.46 15.46 0 0 0-.55-4.09c-.15-.49-1-.59-1.08 0a29.84 29.84 0 0 0 0 5.43 60.58 60.58 0 0 0 .13 6.18c.09.74 1.29 1.1 1.45.19v-.33c1.43.91 3.12 1.58 4.66.45a5.12 5.12 0 0 0 1.6-5.16zm-2 3.19c-1.06 1.79-3 .68-4.14-.25.05-1.27 0-2.56-.06-3.83v-.17c.82-.83 2.14-1.51 3.16-1a3.53 3.53 0 0 1 1.55 2.57 4.17 4.17 0 0 1-.51 2.68zM429.69 25.82c-.46.43.13 1.08.65.83 1.46-.69 3.21-.94 3.33 1.2v.54c-1.6-.81-4.43-.7-4.38 1.39.06 2.27 2.72 2.48 4.39 1.62a.64.64 0 0 0 1.27 0c0-1.71.52-4.45-.78-5.84s-3.36-.79-4.48.26zm3.89 4.18a3.17 3.17 0 0 1-1.61.65c-.64.09-2-.28-1.3-1.15s2.1-.18 3 .08v.36zM441.37 25.35c-.35 1.35.23 4.81-1.54 5.23-2 .48-1.51-3.74-1.67-5.07a.32.32 0 0 0 0-.13.57.57 0 0 0-.11-.22.56.56 0 0 0-.77 0c-.42.39-.26 1.05-.26 1.57a16.24 16.24 0 0 0 .13 2.51c.2 1.16.77 2.49 2.07 2.71a2.46 2.46 0 0 0 2.19-.82v.48a.64.64 0 0 0 1.27 0c0-2-.07-4-.08-6.06a.6.6 0 0 0-1.23-.2zM446.91 30.81c-.87.72-1-1.71-1.05-2v-2.32a3 3 0 0 0 1.24-.1.62.62 0 0 0 0-1.18 4 4 0 0 0-1.2-.06 9.66 9.66 0 0 0-.09-1.61c-.06-.43-.71-.37-.81 0a11.36 11.36 0 0 0-.24 1.61 2.21 2.21 0 0 1-.37 0 .59.59 0 0 0-.31 1.13 2.85 2.85 0 0 0 .59.16c-.14 3.11.27 7.24 3 5.47.84-.56-.01-1.71-.76-1.1zM455.05 27.85a3.49 3.49 0 0 0-3.91-3h-.1c-1.73-.1-2.66 2-2.57 3.54a4 4 0 0 0 .85 2.61 3.3 3.3 0 0 0 2.69.83 3.56 3.56 0 0 0 3.04-3.98zm-3 2.72a2 2 0 0 1-1.87-.43 3.13 3.13 0 0 1-.49-1.72 2.11 2.11 0 0 1 1.44-2.42.5.5 0 0 0 .18 0c2.69-.11 3.49 3.94.77 4.57z" fill="#1e1e1e"/><path d="M124.24 295.53c-2.19 8.2-74.54 4.39-78.07 1.69-3.36-10-4.49-114.21-.42-117 1.12-4.3 73.66-3.41 77.4-.49 4.35 1.8 1.31 113.34 1.09 115.8z" fill="#f78100" opacity=".85"/><path d="M131.71 187.42c-2.54-5.69-9.37 3-7.53 7.16.2.45-1.3 76.31.29 95.14.7 8.35-5 9.27-6.06 9.47-10.39 2-39.87 1.59-62.06.9-4.68-.14-1.45 8.72 3.75 8.89 20.62.63 45.37-.08 56.77-2 6.26-1.07 11.45-.48 14-7.11 1.09-2.81 1.09-6 1.22-9 .79-17.87 3.4-96.08-.38-103.45z" opacity=".2"/><path d="M120.26 178.48c-15.89-1.09-58.79-.83-62.92-.9-7.5-.12-10.6 1.47-12.64 8.89-1.06 3.86-.47 88.65-.47 106.58 0 9.08 10.83-2.6 10.82-6-.11-31.54-2-63.08-1-94.62 0-.16.16-1.54.25-2.79.08 0 13.45.3 17.91.43q21.48.67 42.93 2.14c5.78.39 11.69-13.28 5.12-13.73z" fill="#fff" opacity=".2"/><path d="M126.27 276c0-4.89-.09-9.78-.12-14.66q-.18-23.37-.34-46.73c-.07-10 .61-20.49-.35-30.52-.34-3.5-.69-5.73-4.44-6.5-5.5-1.14-11.79-.79-17.38-.88-6.46-.1-12.93 0-19.39 0H66.72c-5.84 0-14.35-1.5-19.69 1.52s-3.92 9.89-3.94 15c0 .07-.32 49-.33 73.43 0 3.77-.06 7.54 0 11.31.08 6.44-1.64 17.59 5.3 21.24 2.77 1.45 6.23 1.49 9.27 1.65 4.69.26 9.39.32 14.09.44 4.38.12 8.67.2 13 .11l23.68-.53c6.12-.14 15.48 1 17.35-6.6 1.43-5.64.87-12.38.82-18.28zm-5.42 21.22c-2.83 1.79-7.75 1.27-11.12 1.35l-21.6.46c-11.15.24-22.45.38-33.56-.62a15.5 15.5 0 0 1-4.27-.75c-5-2-4.85-6.17-5-10.58-.12-3.1-.25-6.2-.29-9.3v-10.42c0-24.66-.41-74.08-.41-74.13.2-4.46-1.17-10.56 3.41-13.37 2.57-1.58 6.68-1.15 9.58-1.19 3.44-.06 6.89 0 10.34 0H102.8c3.37 0 6.74.23 10.11.37 2.22.09 4.5.05 6.7.33 4.36.54 3.86 4.28 4 7.82.8 22.63.23 45.39.36 68 0 7.69.24 15.4.12 23.09-.09 4.58 1.24 16.12-3.24 18.97z" fill="#f78100"/><path d="M57.76 248.65a.84.84 0 1 0-.81 1.07.8.8 0 0 0 .77-1zM60.83 240.93c-.22 2.64.27 5.3.15 8 0 1.1 1.67 1.1 1.72 0a62.21 62.21 0 0 0-.37-8 .75.75 0 0 0-1.5 0zM61.51 238.48h.06a.82.82 0 0 0 .55-.64 1.4 1.4 0 0 0 0-.71.72.72 0 0 0-1.2-.32c-.31.39-.71.79-.34 1.32a.82.82 0 0 0 .93.35zM68.25 248.25c-.9 1-1.19-2.69-1.2-2.85-.07-.78-.13-1.55-.16-2.33v-1.33h1.22c1.29 0 1.1-2.06-.24-1.8a6.17 6.17 0 0 1-1 .12 9.37 9.37 0 0 0-.19-2.05c-.12-.58-.86-.45-1 0a7.11 7.11 0 0 0-.48 1.99h-.53a.77.77 0 0 0-.74.56v.17c-.07.51.5.76 1.24.88 0 .75.06 1.49.1 2.2a15.86 15.86 0 0 0 .6 4.61c.62 1.61 2.56 2.31 3.66.76.47-.7-.66-1.58-1.28-.93zM76 240.24a4.61 4.61 0 0 0-4.88 2.6 6.06 6.06 0 0 0-.4 1.38.7.7 0 0 0-.07.65 4.3 4.3 0 0 0 1.63 3.85 5.36 5.36 0 0 0 6.32-.37c.84-.62.06-2-.85-1.44-1.19.8-2.52 1.42-3.95.81a2.53 2.53 0 0 1-1.57-2.27c2.38.05 4.8-.16 7.17-.27a.89.89 0 0 0 .85-1.12 5.44 5.44 0 0 0-4.25-3.82zm-3.57 3.59v-.06c1-2.91 4.07-2.2 5.52-.29-1.87.07-3.72.15-5.56.35zM94 240.1a4.46 4.46 0 0 0-4.73 1.68 2.49 2.49 0 0 0-.7-.81 3.45 3.45 0 0 0-4.78.21 5.25 5.25 0 0 0-.22-.67c-.23-.5-.86-.25-1 .13a10.13 10.13 0 0 0-.25 3.89v4.36a.87.87 0 0 0 1.73 0c0-1.56 0-3.12-.08-4.67v-1.34a4.89 4.89 0 0 1 1.57-1.17A1.8 1.8 0 0 1 88 243a33.73 33.73 0 0 1-.23 6c-.05 1.11 1.67 1.1 1.73 0 .1-1.8.19-3.65.12-5.46a3.79 3.79 0 0 1 1.92-1.76 2.66 2.66 0 0 1 1.1-.3c.85.07 1.33 1.11 1.44 1.9.26 1.75-.23 3.69-.23 5.46a.86.86 0 0 0 1.72 0 28.84 28.84 0 0 0 .09-6.09A3 3 0 0 0 94 240.1zM101.79 243.71c-.7 0-1.4.12-2.09.19a5.7 5.7 0 0 0-1.88.36.65.65 0 0 0 .13 1.2 5.52 5.52 0 0 0 1.86.09c.65 0 1.3 0 2-.08 1.1-.08 1.13-1.81-.02-1.76zM112.15 243.94a4.7 4.7 0 0 0-1.22-3.26c-1.52-1.3-4.89-.69-6 .94a.61.61 0 0 0 .68.88c1.74-.62 4.39-1.71 4.73 1 0 .28.06.56.09.84a4.71 4.71 0 0 0-4-.78 3.65 3.65 0 0 0-2.4 4c.42 3.19 4.48 3 6.7 1.28v.39c.08 1.14 1.87 1.15 1.78 0-.09-1.77-.2-3.53-.36-5.29zm-3.68 4.21c-1 .31-2.82.32-2.84-1.12 0-3.11 3.27-1.81 5-1v.57a5.27 5.27 0 0 1-2.16 1.55z" fill="#1e1e1e"/></svg>