<svg xmlns="http://www.w3.org/2000/svg" viewBox="0 0 490 396"><path d="M271.77 323c.88-2.09 3.17-161.93 2.58-190.43-.31-15.45-1-59.18-2.09-66.37.58-1.47 3.59-17.08-3.59-17.69-42.64-5-183.32-4.75-207.78-3.85-15.16 4.11-14.11 22.93-12 26.24-3.86 41.88 4.45 147.18-.83 190-2.63 21.29-2.78 80.56 3.18 98.15 4.19 15.46 36.12 9.75 39.94 9.29-.27 4.41.42 6.41 4.55 6.15 74.79-4.81 145.65-4.23 166.89-4 20.83-8.63 10.25-39.49 9.15-47.49z" fill="#fff"/><path d="M273.9 355.6v-12.37q-.11-25.26-.19-50.54-.26-72.1-.5-144.2c-.1-30.13-.54-60.27-.3-90.4 0-2.34.44-4.77 0-7.08-1.52-8-13.76-5.89-19.6-5.95h-67.78c-38.1 0-76.19.13-114.29.1-4.52 0-9 0-13.55.16-7.12.21-8.31 2.87-8.36 9.78a.65.65 0 0 0 0 .2c0 25.92-.2 51.83-.29 77.75q-.27 72.63-.49 145.26c-.05 26.54-.66 53.15-.12 79.68.13 6.6.3 11.4 7.64 12.66 7.77 1.34 15.83.56 23.67.78 4 .11 8 0 12.06-.05l61.82-.25 70.31-.3 22-.1c7.15 0 14.85.76 21.8-.65 7.15-1.42 6.19-8.55 6.17-14.48zm-2.62 2.16c0 1.4-.2 2.8-.29 4.2-.31 4.53-2.7 5.56-6.74 5.86s-8.49.23-12.7.27h-10.56l-58.48.23-69.35.28c-11.14.05-22.38.55-33.51.14-4.76-.17-9.46 0-14.23 0a51.67 51.67 0 0 1-8.6-.67c-4.25-.73-5.4-4.37-5.6-8.27-.06-1.06-.09-2-.1-3.1v-10.47l.06-45.84q.06-69.35 0-138.67-.06-50.7-.11-101.39v-5.08a.71.71 0 0 0 0-.17c.09-3.79-.56-6.84 4.34-7.78a33.25 33.25 0 0 1 5.59-.02h31q32.16.06 64.32.06c34.39 0 68.87-.71 103.25.22 4 .11 9.62-.85 11 5 .32 1.39-.13 3.23-.15 4.63v17.13l.15 50.44q.21 70.37.4 140.74c.08 30.15.44 60.31.23 90.45.07.67.09 1.24.08 1.81z" fill="#1e1e1e"/><path d="M158.92 45.67c-1 20.45-.6 41-.67 61.49q-.12 40.89 0 81.78.12 74.69.5 149.37c0 10.17.19 21.83.25 31.34a1.28 1.28 0 0 0 2.55 0c-.18-29.43-.25-58.87-.39-88.3q-.37-82.38-.42-164.76c0-23.63.6-47.3.17-70.92a1 1 0 0 0-2 0z" fill="#1e1e1e"/><path d="M270.52 205.8c-66.67.16-133.3.68-200 0-6.7-.07-13.39-.13-20.08-.22a1.26 1.26 0 0 0 0 2.51c55.93.7 111.88 1.1 167.82.73 17.39-.11 34.86 0 52.23-1.08a1 1 0 0 0 0-1.92z" fill="#1e1e1e"/><path d="M268.84 35c0 1.63-.1 3.25-.11 4.87a.4.4 0 0 0 .8 0c0-1.62.08-3.24.11-4.87a.4.4 0 0 0-.8 0zM268.9 27.13v4.18a.4.4 0 0 0 .8 0v-4.18a.4.4 0 0 0-.8 0zM162.41 35c0 1.79-.1 3.58-.11 5.37a.4.4 0 0 0 .8 0c0-1.79.08-3.58.11-5.37a.4.4 0 0 0-.8 0zM162.47 27.13v4.68a.4.4 0 0 0 .8 0v-4.68a.4.4 0 0 0-.8 0z" fill="#757575"/><path d="M168.23 26.93c-1.79 0-3.58-.1-5.37-.11a.4.4 0 0 0 0 .8c1.79 0 3.58.08 5.37.11a.4.4 0 0 0 0-.8zM176.09 27h-4.68a.4.4 0 0 0 0 .8h4.68a.4.4 0 0 0 0-.8zM185.14 26.91l-5.37.05a.4.4 0 0 0 0 .8l5.37-.05a.4.4 0 0 0 0-.8zM275 35c0 1.79-.11 3.58-.11 5.37a.4.4 0 0 0 .8 0c0-1.79.07-3.58.11-5.37a.4.4 0 0 0-.8 0zM275 27.13v4.68a.4.4 0 0 0 .8 0v-4.68a.4.4 0 0 0-.8 0z" fill="#757575"/><path d="M279.81 26.93c-1.46 0-2.91-.11-4.37-.11a.4.4 0 0 0 0 .8c1.46 0 2.91.08 4.37.11a.4.4 0 0 0 0-.8zM286.67 27H283a.4.4 0 0 0 0 .8h3.68a.4.4 0 0 0 0-.8zM317 35c0 1.79.1 3.58.11 5.37a.4.4 0 0 0 .8 0c0-1.79-.08-3.58-.11-5.37a.4.4 0 0 0-.8 0zM316.91 27.13v4.68a.4.4 0 0 0 .8 0v-4.68a.4.4 0 0 0-.8 0z" fill="#757575"/><path d="M312.94 27.73c1.46 0 2.92-.11 4.38-.11a.4.4 0 0 0 0-.8c-1.46 0-2.92.08-4.38.11a.4.4 0 0 0 0 .8zM306.09 27.79h3.67a.4.4 0 0 0 0-.8h-3.67a.4.4 0 0 0 0 .8zM323.28 35c0 1.79-.1 3.58-.11 5.37a.4.4 0 0 0 .8 0c0-1.79.08-3.58.11-5.37a.4.4 0 0 0-.8 0zM323.34 27.13v4.68a.4.4 0 0 0 .8 0v-4.68a.4.4 0 0 0-.8 0z" fill="#757575"/><path d="M328.11 26.93c-1.46 0-2.92-.11-4.38-.11a.4.4 0 0 0 0 .8c1.46 0 2.92.08 4.38.11a.4.4 0 0 0 0-.8zM335 27h-3.68a.4.4 0 0 0 0 .8H335a.4.4 0 0 0 0-.8zM365.26 35c0 1.79.1 3.58.11 5.37a.4.4 0 0 0 .8 0c0-1.79-.08-3.58-.11-5.37a.4.4 0 0 0-.8 0zM365.2 27.13v4.68a.4.4 0 0 0 .8 0v-4.68a.4.4 0 0 0-.8 0z" fill="#757575"/><path d="M361.23 27.73c1.46 0 2.92-.11 4.38-.11a.4.4 0 0 0 0-.8c-1.46 0-2.92.08-4.38.11a.4.4 0 0 0 0 .8zM354.38 27.79h3.68a.4.4 0 0 0 0-.8h-3.68a.4.4 0 0 0 0 .8zM193.7 26.73l-4.68.09a.4.4 0 0 0 0 .8l4.68-.09a.4.4 0 0 0 0-.8zM242.2 27h-4.68a.4.4 0 0 0 0 .8h4.68a.4.4 0 0 0 0-.8zM269.17 26.83h-4.68a.4.4 0 0 0 0 .8h4.68a.4.4 0 0 0 0-.8zM251.25 26.91l-5.38.05a.4.4 0 0 0 0 .8l5.38-.05a.4.4 0 0 0 0-.8zM259.8 26.73l-4.68.09a.4.4 0 0 0 0 .8l4.68-.09a.4.4 0 0 0 0-.8zM475.51 35c0 1.63-.11 3.25-.11 4.87a.4.4 0 0 0 .8 0c0-1.62.08-3.24.11-4.87a.4.4 0 0 0-.8 0zM475.56 27.13v4.18a.4.4 0 0 0 .8 0v-4.18a.4.4 0 0 0-.8 0zM371.57 35c0 1.79-.1 3.58-.11 5.37a.4.4 0 0 0 .8 0c0-1.79.08-3.58.11-5.37a.4.4 0 0 0-.8 0zM371.63 27.13v4.68a.4.4 0 0 0 .8 0v-4.68a.4.4 0 0 0-.8 0z" fill="#757575"/><path d="M377.4 26.93c-1.79 0-3.58-.1-5.38-.11a.4.4 0 0 0 0 .8c1.8 0 3.59.08 5.38.11a.4.4 0 0 0 0-.8zM385.25 27h-4.67a.4.4 0 0 0 0 .8h4.67a.4.4 0 0 0 0-.8zM394.31 26.91l-5.38.05a.4.4 0 0 0 0 .8l5.38-.05a.4.4 0 0 0 0-.8zM402.86 26.73l-4.68.09a.4.4 0 0 0 0 .8l4.68-.09a.4.4 0 0 0 0-.8zM448.86 27h-4.68a.4.4 0 0 0 0 .8h4.68a.4.4 0 0 0 0-.8zM475.83 26.83h-4.68a.4.4 0 0 0 0 .8h4.68a.4.4 0 0 0 0-.8zM457.91 26.91l-5.37.05a.4.4 0 0 0 0 .8l5.37-.05a.4.4 0 0 0 0-.8zM466.46 26.73l-4.67.09a.4.4 0 0 0 0 .8l4.67-.09a.4.4 0 0 0 0-.8z" fill="#757575"/><path d="M298.88 23.23a.69.69 0 0 0-.32-.22c-.64-1.5-3.59-.61-4.5.41-1.66 1.86-1.21 5.49.19 7.36 1.26 1.69 3.65 2 4.9.12a7.18 7.18 0 0 0-.27-7.67zM296 30.71c-1.3-.65-1.69-2.81-1.67-4.08a4.14 4.14 0 0 1 .32-1.74c.31-.63 2.08-2.11 3.08-1.33a.51.51 0 0 0 .11.31 5.42 5.42 0 0 1 1 3.38c-.05 1.48-.62 4.6-2.84 3.46zM214.24 23c-.64-1.5-3.59-.61-4.5.41-1.66 1.86-1.21 5.49.18 7.36 1.26 1.69 3.65 2 4.91.12a7.18 7.18 0 0 0-.28-7.67.71.71 0 0 0-.31-.22zm-2.62 7.7c-1.3-.65-1.69-2.81-1.67-4.08a4 4 0 0 1 .33-1.74c.3-.63 2.08-2.11 3.07-1.33a.58.58 0 0 0 .11.31 5.43 5.43 0 0 1 1 3.38c0 1.49-.57 4.61-2.84 3.47zM220.75 24.85a4.15 4.15 0 0 0-2.07 1.21 4.36 4.36 0 0 0-.05-.52c-.07-.53-.93-.8-1-.14a61 61 0 0 0-.37 8.77c0 1 1.49.77 1.4 0s.07-1.88.11-2.83a3.57 3.57 0 0 0 3 .62c2-.62 2.21-2.89 2-4.62s-1.25-2.88-3.02-2.49zm.66 5.71a2.07 2.07 0 0 1-2.35-1 .57.57 0 0 0-.27-.28v-1.42a4.22 4.22 0 0 1 1.21-1.4 2 2 0 0 1 1.65-.41c.66.28.69 1 .74 1.57.13.99.13 2.5-.98 2.94zM230.79 30.59c-.73-.79-1.45-1.64-2.19-2.48a19.7 19.7 0 0 0 1.47-2.25.58.58 0 0 0-.91-.71A18.62 18.62 0 0 0 227.6 27a19.66 19.66 0 0 0-2.32-2.16c-.43-.33-1 .31-.72.73a20.2 20.2 0 0 0 2 2.74c-.67.91-1.32 1.83-2 2.69a.7.7 0 1 0 1.1.86c.6-.81 1.25-1.61 1.89-2.42.71.78 1.43 1.54 2.09 2.3s1.9-.49 1.15-1.15zM204.08 26.37a3.87 3.87 0 0 0-2.6 1.36c.11-2.4 1.75-4.79 4.3-3.15.53.34 1.18-.48.68-.89-2.26-1.9-5.17-.22-5.86 2.37-.6 2.27-.18 6.46 2.87 6.62a3.66 3.66 0 0 0 3.24-5 2.71 2.71 0 0 0-2.63-1.31zm-2 4a3.31 3.31 0 0 1-.45-1c.8-1 3.39-3.07 4-.72.49 2.05-2.25 3.55-3.52 1.7z" fill="#1e1e1e"/><path d="M157.49 35c0 1.63-.1 3.25-.11 4.87a.4.4 0 0 0 .8 0c0-1.62.08-3.24.11-4.87a.4.4 0 0 0-.8 0zM157.55 27.13v4.18a.4.4 0 0 0 .8 0v-4.18a.4.4 0 0 0-.8 0zM51.56 35c0 1.79-.11 3.58-.11 5.37a.4.4 0 0 0 .8 0c0-1.79.07-3.58.11-5.37a.4.4 0 0 0-.8 0zM51.61 27.13v4.68a.4.4 0 0 0 .8 0v-4.68a.4.4 0 0 0-.8 0z" fill="#757575"/><path d="M57.38 26.93c-1.79 0-3.58-.1-5.37-.11a.4.4 0 0 0 0 .8c1.79 0 3.58.08 5.37.11a.4.4 0 0 0 0-.8zM65.24 27h-4.68a.4.4 0 0 0 0 .8h4.68a.4.4 0 0 0 0-.8zM74.29 26.91l-5.37.09a.4.4 0 0 0 0 .8l5.37-.05a.4.4 0 0 0 0-.8zM82.84 26.73c-1.55 0-3.11.06-4.67.09a.4.4 0 0 0 0 .8c1.56 0 3.12-.05 4.67-.09a.4.4 0 0 0 0-.8zM130.84 27h-4.67a.4.4 0 0 0 0 .8h4.67a.4.4 0 0 0 0-.8zM157.82 26.83h-4.68a.4.4 0 0 0 0 .8h4.68a.4.4 0 0 0 0-.8zM139.9 26.91l-5.38.05a.4.4 0 0 0 0 .8l5.38-.05a.4.4 0 0 0 0-.8zM148.45 26.73l-4.68.09a.4.4 0 0 0 0 .8l4.68-.09a.4.4 0 0 0 0-.8z" fill="#757575"/><path d="M102.89 23c-.65-1.5-3.59-.61-4.5.41-1.66 1.86-1.21 5.49.18 7.36 1.26 1.69 3.65 2 4.91.12a7.18 7.18 0 0 0-.28-7.67.71.71 0 0 0-.31-.22zm-2.62 7.7c-1.3-.65-1.69-2.81-1.67-4.08a4.14 4.14 0 0 1 .32-1.74c.31-.63 2.08-2.11 3.08-1.33a.58.58 0 0 0 .11.31 5.5 5.5 0 0 1 1 3.38c0 1.49-.57 4.61-2.84 3.47zM109.4 24.85a4.1 4.1 0 0 0-2.07 1.21v-.52c-.07-.53-.93-.8-1-.14a61 61 0 0 0-.37 8.77c0 1 1.49.77 1.4 0s.07-1.88.11-2.83a3.57 3.57 0 0 0 3 .62c2-.62 2.21-2.89 2-4.62s-1.3-2.88-3.07-2.49zm.66 5.71a2.07 2.07 0 0 1-2.35-1 .61.61 0 0 0-.27-.28v-1.42a4.19 4.19 0 0 1 1.23-1.42 2 2 0 0 1 1.66-.41c.65.28.69 1 .74 1.57.1 1.01.1 2.52-1.01 2.96zM119.44 30.59c-.73-.79-1.45-1.64-2.18-2.48a19.7 19.7 0 0 0 1.47-2.25.58.58 0 0 0-.91-.71 17.38 17.38 0 0 0-1.6 1.81 20.48 20.48 0 0 0-2.32-2.16c-.44-.33-1 .31-.73.73a21.16 21.16 0 0 0 2 2.74c-.67.91-1.32 1.83-2 2.69a.71.71 0 1 0 1.11.86c.59-.81 1.25-1.61 1.89-2.42.71.78 1.43 1.54 2.09 2.3s1.93-.45 1.18-1.11zM92.72 26.37a3.87 3.87 0 0 0-2.59 1.36c.11-2.4 1.74-4.79 4.29-3.15.54.34 1.19-.48.69-.89-2.26-1.9-5.18-.22-5.86 2.37-.6 2.27-.18 6.46 2.87 6.62a3.66 3.66 0 0 0 3.24-5 2.74 2.74 0 0 0-2.64-1.31zm-2 4a3.31 3.31 0 0 1-.45-1c.8-1 3.39-3.07 4-.72.5 2.05-2.27 3.55-3.51 1.7z" fill="#1e1e1e"/><path d="M30.13 51c1.79 0 3.58-.1 5.37-.11a.4.4 0 0 0 0-.8c-1.79 0-3.58.08-5.37.11a.4.4 0 0 0 0 .8zM22.27 51H27a.4.4 0 0 0 0-.8h-4.73a.4.4 0 0 0 0 .8zM39.06 51h4.68a.4.4 0 0 0 0-.8h-4.68a.4.4 0 0 0 0 .8z" fill="#757575"/><path d="M22.87 56c0-1.8-.11-3.59-.11-5.38a.4.4 0 0 0-.8 0c0 1.79.08 3.58.11 5.38a.4.4 0 0 0 .8 0zM22.93 63.83v-4.68a.4.4 0 0 0-.8 0v4.68a.4.4 0 0 0 .8 0zM30.13 203.43c1.79 0 3.58.11 5.37.11a.4.4 0 0 0 0-.8c-1.79 0-3.58-.07-5.37-.11a.4.4 0 0 0 0 .8zM22.27 203.38h4.68a.4.4 0 0 0 0-.8h-4.68a.4.4 0 0 0 0 .8zM39.06 203.38h4.68a.4.4 0 0 0 0-.8h-4.68a.4.4 0 0 0 0 .8z" fill="#757575"/><path d="M22.07 197.61c0 1.79-.11 3.58-.11 5.37a.4.4 0 0 0 .8 0c0-1.79.08-3.58.11-5.37a.4.4 0 0 0-.8 0zM22.13 189.75v4.68a.4.4 0 0 0 .8 0v-4.68a.4.4 0 0 0-.8 0zM22.85 72.88v-5.37a.4.4 0 0 0-.8 0c0 1.79 0 3.58-.05 5.37a.4.4 0 0 0 .8 0zM22.67 81.44c0-1.56.06-3.12.09-4.68a.4.4 0 0 0-.8 0c0 1.56-.05 3.12-.09 4.68a.4.4 0 0 0 .8 0zM22.67 90.64c0-1.56.06-3.12.09-4.68a.4.4 0 0 0-.8 0c0 1.56-.05 3.12-.09 4.68a.4.4 0 0 0 .8 0zM22.85 100.51v-5.38a.4.4 0 0 0-.8 0c0 1.79 0 3.59-.05 5.38a.4.4 0 0 0 .8 0zM22.67 109.06c0-1.56.06-3.12.09-4.68a.4.4 0 0 0-.8 0c0 1.56-.05 3.12-.09 4.68a.4.4 0 0 0 .8 0zM22.93 168.11v-4.67a.4.4 0 0 0-.8 0v4.67a.4.4 0 0 0 .8 0zM22.85 177.17v-5.38a.4.4 0 0 0-.8 0c0 1.79 0 3.59-.05 5.38a.4.4 0 0 0 .8 0zM22.85 159.13v-5.37a.4.4 0 0 0-.8 0c0 1.79 0 3.58-.05 5.37a.4.4 0 0 0 .8 0zM22.67 185.72c0-1.56.06-3.12.09-4.68a.4.4 0 0 0-.8 0c0 1.56-.05 3.12-.09 4.68a.4.4 0 0 0 .8 0z" fill="#757575"/><path d="M21.74 126.72c-.64-1.51-3.59-.62-4.5.4-1.66 1.86-1.21 5.49.19 7.36 1.26 1.7 3.65 2 4.9.12a7.18 7.18 0 0 0-.27-7.67.66.66 0 0 0-.32-.21zm-2.61 7.7c-1.3-.65-1.69-2.82-1.67-4.08a4.14 4.14 0 0 1 .32-1.74c.31-.63 2.08-2.12 3.08-1.34a.51.51 0 0 0 .11.31A5.42 5.42 0 0 1 22 131c0 1.44-.6 4.55-2.87 3.42zM28.26 128.55a4.1 4.1 0 0 0-2.07 1.21c0-.17 0-.35-.05-.52-.07-.53-.94-.79-1.05-.14a59.69 59.69 0 0 0-.37 8.77c0 1 1.49.77 1.4 0 0-.93.07-1.88.11-2.83a3.57 3.57 0 0 0 3 .62c2-.62 2.21-2.88 2-4.62-.23-1.6-1.23-2.87-2.97-2.49zm.66 5.71a2.06 2.06 0 0 1-2.35-1 .64.64 0 0 0-.27-.29v-1.41a4 4 0 0 1 1.23-1.43 2 2 0 0 1 1.66-.41c.65.28.69 1 .74 1.57.07 1.02.07 2.53-1.01 2.97zM38.3 134.29c-.73-.8-1.45-1.65-2.19-2.49a17.79 17.79 0 0 0 1.48-2.25.58.58 0 0 0-.91-.71 17.25 17.25 0 0 0-1.6 1.81 20.31 20.31 0 0 0-2.32-2.15c-.44-.34-1 .3-.73.72a18.91 18.91 0 0 0 2 2.74c-.67.91-1.32 1.84-2 2.7a.71.71 0 1 0 1.11.86c.59-.81 1.24-1.61 1.89-2.42.71.78 1.42 1.54 2.08 2.3s1.89-.4 1.19-1.11zM12.52 126.2c-2.29-.62-5 1.56-4.2 4s3.68 1.82 5.25.48a4.52 4.52 0 0 1-.46 2c-.69 1.4-2.4 2.41-3.73 1.06-.61-.63-1.59.34-1 1 2.06 2 5 .63 6-1.78.81-1.96.62-6.08-1.86-6.76zm.82 3.26c-.88 1-3.89 2.44-3.93-.1a2.19 2.19 0 0 1 1.8-2c1.09-.21 1.61.48 2 1.35a3.81 3.81 0 0 1 .2.68s-.05.04-.07.07z" fill="#1e1e1e"/><path d="M30.13 213.32c1.79 0 3.58-.1 5.37-.11a.4.4 0 0 0 0-.8c-1.79 0-3.58.08-5.37.11a.4.4 0 0 0 0 .8zM22.27 213.38H27a.4.4 0 0 0 0-.8h-4.73a.4.4 0 0 0 0 .8zM39.06 213.38h4.68a.4.4 0 0 0 0-.8h-4.68a.4.4 0 0 0 0 .8z" fill="#757575"/><path d="M22.87 218.35c0-1.8-.11-3.59-.11-5.38a.4.4 0 0 0-.8 0c0 1.79.08 3.58.11 5.38a.4.4 0 0 0 .8 0zM22.93 226.2v-4.68a.4.4 0 0 0-.8 0v4.68a.4.4 0 0 0 .8 0zM30.13 365.8c1.79 0 3.58.11 5.37.11a.4.4 0 0 0 0-.8c-1.79 0-3.58-.07-5.37-.11a.4.4 0 0 0 0 .8zM22.27 365.75h4.68a.4.4 0 0 0 0-.8h-4.68a.4.4 0 0 0 0 .8zM39.06 365.75h4.68a.4.4 0 0 0 0-.8h-4.68a.4.4 0 0 0 0 .8z" fill="#757575"/><path d="M22.07 360c0 1.79-.11 3.58-.11 5.37a.4.4 0 0 0 .8 0c0-1.79.08-3.58.11-5.37a.4.4 0 0 0-.8 0zM22.13 352.12v4.68a.4.4 0 0 0 .8 0v-4.68a.4.4 0 0 0-.8 0zM22.85 235.26v-5.38a.4.4 0 0 0-.8 0c0 1.79 0 3.58-.05 5.38a.4.4 0 0 0 .8 0zM22.67 243.81c0-1.56.06-3.12.09-4.68a.4.4 0 0 0-.8 0c0 1.56-.05 3.12-.09 4.68a.4.4 0 0 0 .8 0zM22.67 253c0-1.56.06-3.12.09-4.68a.4.4 0 0 0-.8 0c0 1.56-.05 3.12-.09 4.68a.4.4 0 0 0 .8 0zM22.85 262.88v-5.38a.4.4 0 0 0-.8 0c0 1.79 0 3.59-.05 5.38a.4.4 0 0 0 .8 0zM22.67 271.43c0-1.56.06-3.12.09-4.68a.4.4 0 0 0-.8 0c0 1.56-.05 3.12-.09 4.68a.4.4 0 0 0 .8 0zM22.93 330.48v-4.67a.4.4 0 0 0-.8 0v4.67a.4.4 0 0 0 .8 0zM22.85 339.54v-5.38a.4.4 0 0 0-.8 0c0 1.79 0 3.59-.05 5.38a.4.4 0 0 0 .8 0zM22.85 321.5v-5.37a.4.4 0 0 0-.8 0c0 1.79 0 3.58-.05 5.37a.4.4 0 0 0 .8 0zM22.67 348.09c0-1.56.06-3.12.09-4.68a.4.4 0 0 0-.8 0c0 1.56-.05 3.12-.09 4.68a.4.4 0 0 0 .8 0z" fill="#757575"/><path d="M21.74 289.09c-.64-1.51-3.59-.62-4.5.4-1.66 1.86-1.21 5.49.19 7.36 1.26 1.7 3.65 2 4.9.12a7.18 7.18 0 0 0-.27-7.67.66.66 0 0 0-.32-.21zm-2.61 7.7c-1.3-.65-1.69-2.82-1.67-4.08a4.14 4.14 0 0 1 .32-1.74c.31-.63 2.08-2.12 3.08-1.34a.51.51 0 0 0 .11.31 5.42 5.42 0 0 1 1 3.38c.03 1.49-.57 4.6-2.84 3.47zM28.26 290.92a4.1 4.1 0 0 0-2.07 1.21c0-.17 0-.35-.05-.52-.07-.53-.94-.79-1.05-.14a59.69 59.69 0 0 0-.37 8.77c0 1 1.49.77 1.4 0 0-.93.07-1.88.11-2.83a3.57 3.57 0 0 0 3 .62c2-.62 2.21-2.88 2-4.62-.23-1.6-1.23-2.87-2.97-2.49zm.66 5.72a2.08 2.08 0 0 1-2.35-1 .64.64 0 0 0-.27-.29v-1.41a4.12 4.12 0 0 1 1.23-1.43 2 2 0 0 1 1.66-.41c.65.28.69 1 .74 1.57.07 1.01.07 2.52-1.01 2.97zM38.3 296.66c-.73-.8-1.45-1.65-2.19-2.49a17.79 17.79 0 0 0 1.48-2.25.58.58 0 0 0-.91-.71 17.25 17.25 0 0 0-1.6 1.81 20.31 20.31 0 0 0-2.32-2.15c-.44-.34-1 .3-.73.72a18.91 18.91 0 0 0 2 2.74c-.67.91-1.32 1.84-2 2.7a.71.71 0 1 0 1.11.86c.59-.81 1.24-1.61 1.89-2.42.71.78 1.42 1.54 2.08 2.3s1.89-.44 1.19-1.11zM12.52 288.57c-2.29-.62-5 1.56-4.2 4s3.68 1.82 5.25.48a4.52 4.52 0 0 1-.46 2c-.69 1.4-2.4 2.41-3.73 1.06-.61-.63-1.59.34-1 1 2.06 2 5 .63 6-1.78.81-1.93.62-6.08-1.86-6.76zm.82 3.26c-.88 1-3.89 2.44-3.93-.1a2.19 2.19 0 0 1 1.8-2c1.09-.21 1.61.48 2 1.35a4.07 4.07 0 0 1 .2.68s-.05.04-.07.07z" fill="#1e1e1e"/><path d="M461.69 368.56c-1.15-.95-3.65-.52-5-.56a21.24 21.24 0 0 0-5.74.42.71.71 0 0 0 0 1.36 21.64 21.64 0 0 0 5.74.41c1.4-.05 3.88.39 5-.58a.76.76 0 0 0 0-1.05zM476.82 359.39c-.57.82-.46 2.14-.61 3.09a5 5 0 0 1-1.49 3.3c-1.9 1.67-4.62 1.88-7 2.3-.86.15-.54 1.3.19 1.39 3.21.38 6.18.16 8.55-2.29a6.45 6.45 0 0 0 1.67-3.66c.21-1.22.6-3 0-4.13a.75.75 0 0 0-1.28 0zM477 64.37c-.48 1.24-.19 6.74.18 7.95a.72.72 0 0 0 1.37 0c.36-1.21.65-6.71.17-7.95a.9.9 0 0 0-1.72 0zM473.27 48.56c1.4 1.52 2.63 2.23 3.21 4.38.45 1.7.52 3.55.81 5.29.11.69 1.21.65 1.36 0 .85-3.7 0-10.45-4.85-10.93-.68-.07-.92.83-.53 1.26zM456.24 47.72c1.44.83 9.76.78 12 .42.71-.11.65-1.21 0-1.36-2.23-.54-10.53-1.1-12-.34a.74.74 0 0 0 0 1.28zM322.94 47.21c1.38 1.11 4.66.52 6.31.57a32.5 32.5 0 0 0 7-.42.71.71 0 0 0 0-1.36 33.84 33.84 0 0 0-7-.42c-1.66.05-4.93-.55-6.31.58a.74.74 0 0 0 0 1.05zM301.15 47.2c1.35 1.12 10.81.59 13.13.16a.71.71 0 0 0 0-1.36c-2.32-.43-11.78-1-13.13.16a.73.73 0 0 0 0 1zM279.22 47.2c1.21 1.11 10.32.59 12.53.16a.71.71 0 0 0 0-1.36c-2.21-.43-11.32-1-12.53.16a.73.73 0 0 0 0 1zM434.09 47.2c1.35 1.12 10.81.59 13.13.16a.71.71 0 0 0 0-1.36c-2.32-.43-11.78-1-13.13.16a.74.74 0 0 0 0 1zM412.32 47.2c1.22 1.11 10.32.59 12.54.16a.71.71 0 0 0 0-1.36c-2.22-.43-11.32-1-12.54.16a.75.75 0 0 0 0 1zM393.09 47.2c1.21 1.11 10.32.59 12.54.16a.71.71 0 0 0 0-1.36c-2.22-.43-11.32-1-12.54.15a.74.74 0 0 0 0 1.05zM371.05 47.32c1.34 1 11.54.45 13.94 0A.71.71 0 0 0 385 46c-2.4-.41-12.6-1-13.94 0a.76.76 0 0 0 0 1.28zM345.24 47.32c2 1.13 6 .42 8.21.47a54.65 54.65 0 0 0 8.68-.43c.67-.09.67-1.27 0-1.37a54.65 54.65 0 0 0-8.68-.43c-2.24 0-6.18-.66-8.21.48a.75.75 0 0 0 0 1.28zM456.24 207.37c1.44.83 9.76.78 12 .43.71-.11.65-1.21 0-1.37-2.23-.54-10.53-1.1-12-.34a.74.74 0 0 0 0 1.28zM322.94 206.86c1.38 1.12 4.66.53 6.31.57a33.15 33.15 0 0 0 7-.41.72.72 0 0 0 0-1.37 33.15 33.15 0 0 0-7-.41c-1.66 0-4.93-.55-6.31.57a.74.74 0 0 0 0 1.05zM301.15 206.86c1.35 1.12 10.81.58 13.13.16a.72.72 0 0 0 0-1.37c-2.32-.42-11.78-1-13.13.16a.74.74 0 0 0 0 1.05zM279.22 206.86c1.21 1.1 10.32.58 12.53.16a.72.72 0 0 0 0-1.37c-2.21-.42-11.32-1-12.53.16a.74.74 0 0 0 0 1.05zM434.09 206.86c1.35 1.12 10.81.58 13.13.16a.72.72 0 0 0 0-1.37c-2.32-.42-11.78-1-13.13.16a.75.75 0 0 0 0 1.05zM412.32 206.86c1.22 1.1 10.32.58 12.54.16a.72.72 0 0 0 0-1.37c-2.22-.42-11.32-1-12.54.16a.76.76 0 0 0 0 1.05zM393.09 206.86c1.21 1.1 10.32.58 12.54.16a.72.72 0 0 0 0-1.37c-2.22-.42-11.32-1-12.54.16a.74.74 0 0 0 0 1.05zM371.05 207c1.34 1 11.54.45 13.94 0a.71.71 0 0 0 0-1.36c-2.4-.41-12.6-1-13.94 0a.76.76 0 0 0 0 1.28zM345.24 207c2 1.14 6 .43 8.21.47a53.49 53.49 0 0 0 8.68-.43.71.71 0 0 0 0-1.36 54.65 54.65 0 0 0-8.68-.43c-2.24.05-6.18-.66-8.21.47a.75.75 0 0 0 0 1.28zM314.57 369.35c-1.37-1.12-4.65-.53-6.31-.57a33.06 33.06 0 0 0-7 .41.71.71 0 0 0 0 1.36 32.41 32.41 0 0 0 7 .42c1.67-.05 4.93.55 6.31-.57a.74.74 0 0 0 0-1zM335.36 369.35c-1.11-1.09-10-.59-12.12-.16a.72.72 0 0 0 0 1.37c2.14.42 11 .93 12.12-.16a.74.74 0 0 0 0-1zM356.65 369.24c-1.64-1.1-12.32-.45-14.88-.05a.72.72 0 0 0 0 1.37c2.56.4 13.24 1.05 14.88-.05a.75.75 0 0 0 0-1.27zM376.58 369.35c-1.21-1.1-10.32-.58-12.53-.16a.72.72 0 0 0 0 1.37c2.21.42 11.32.95 12.53-.16a.74.74 0 0 0 0-1zM393.28 369.5c-.87-1.17-8.78-.75-10.7-.31a.72.72 0 0 0 0 1.37c1.92.45 9.83.87 10.7-.31a.72.72 0 0 0 0-.75zM410.46 369.36c-.74-.87-9.1-.59-11-.16a.71.71 0 0 0 0 1.36c1.94.43 10.3.71 11-.16a.77.77 0 0 0 0-1zM427.29 369.5c-.84-1.17-3.7-.66-5-.71a20.2 20.2 0 0 0-5.65.41.71.71 0 0 0 0 1.36 20.2 20.2 0 0 0 5.65.41c1.25-.05 4.11.46 5-.72a.72.72 0 0 0 0-.75zM444.74 369c-.88-1.18-8.78-.76-10.71-.31a.71.71 0 0 0 0 1.36c1.93.45 9.83.87 10.71-.31a.7.7 0 0 0 0-.74zM294.48 369.09c-2.44-.53-5.15-.27-7.65-.3a32.81 32.81 0 0 0-5.77.41.71.71 0 0 0 0 1.36 28.67 28.67 0 0 0 5.77.51c2.5 0 5.24.13 7.65-.55a.75.75 0 0 0 0-1.43zM478.68 91.37c.83-1.45.78-9.76.42-12-.11-.7-1.21-.64-1.36 0-.54 2.24-1.1 10.53-.34 12a.75.75 0 0 0 1.28 0zM478.5 354.5c.47-1.18.23-3 .27-4.23a9.51 9.51 0 0 0-.45-3.44.71.71 0 0 0-1.36 0 9.74 9.74 0 0 0-.46 3.44c0 1.25-.19 3.05.28 4.23a.9.9 0 0 0 1.72 0zM478.17 224.66c1.12-1.37.52-4.65.57-6.31a33.06 33.06 0 0 0-.41-7 .72.72 0 0 0-1.37 0 33.06 33.06 0 0 0-.41 7c0 1.67-.55 4.93.57 6.31a.74.74 0 0 0 1.05 0zM478.16 246.45c1.12-1.34.59-10.8.16-13.12a.71.71 0 0 0-1.36 0c-.43 2.32-1 11.78.16 13.12a.73.73 0 0 0 1 0zM478.16 268.39c1.11-1.21.59-10.32.16-12.53a.71.71 0 0 0-1.36 0c-.43 2.21-.95 11.31.16 12.53a.75.75 0 0 0 1 0zM478.16 286.67c.87-.73.59-9.09.16-11a.71.71 0 0 0-1.36 0c-.43 1.95-.71 10.31.16 11a.75.75 0 0 0 1 0zM478 303.37c1.18-.87.76-8.78.31-10.7a.71.71 0 0 0-1.36 0c-.45 1.92-.87 9.83.3 10.7a.72.72 0 0 0 .75 0zM478.16 320.55c.87-.74.59-9.1.16-11a.71.71 0 0 0-1.36 0c-.43 1.94-.72 10.3.16 11a.77.77 0 0 0 1 0zM478.16 113.51c1.12-1.34.59-10.8.16-13.12a.71.71 0 0 0-1.36 0c-.42 2.32-1 11.78.16 13.12a.73.73 0 0 0 1 0zM478.16 135.28c1.11-1.21.59-10.32.16-12.53a.71.71 0 0 0-1.36 0c-.43 2.21-.95 11.32.16 12.53a.73.73 0 0 0 1 0zM478.16 154.52c1.11-1.22.59-10.33.16-12.54a.71.71 0 0 0-1.36 0c-.43 2.21-.95 11.32.16 12.54a.75.75 0 0 0 1 0zM478.28 176.56c1-1.35.45-11.54 0-13.94a.71.71 0 0 0-1.36 0c-.41 2.4-.95 12.59 0 13.94a.76.76 0 0 0 1.28 0zM478.28 202.36c1.13-2 .42-6 .47-8.21a54.58 54.58 0 0 0-.43-8.67.71.71 0 0 0-1.36 0 53.43 53.43 0 0 0-.43 8.67c0 2.24-.67 6.18.47 8.21a.74.74 0 0 0 1.28 0zM478.16 337.77c.86-.73.58-9.06.15-11a.7.7 0 0 0-1.35 0c-.43 1.93-.71 10.26.16 11a.77.77 0 0 0 1 0zM318.4 67.79a47.28 47.28 0 0 0 .32 8.53.71.71 0 0 0 1.36 0 35.69 35.69 0 0 0 .23-9.17c-.2-.65-.59-1.21-1.29-.82a8.81 8.81 0 0 0-.62 1.46zM320.27 95.37c.82-1.45.77-9.76.42-12-.11-.7-1.21-.64-1.37 0-.53 2.24-1.1 10.53-.33 12a.75.75 0 0 0 1.28 0zM320.27 58.52c.65-1.11.46-2.65.59-3.9a14.9 14.9 0 0 0-.17-5 .71.71 0 0 0-1.36 0 15.56 15.56 0 0 0-.64 5c0 1.27-.31 2.74.3 3.9a.75.75 0 0 0 1.28 0zM319.6 365.84a2.25 2.25 0 0 0 .62-1.48c.09-1.09 0-2.2.1-3.29a19 19 0 0 0-.41-5.43.72.72 0 0 0-1.37 0 19 19 0 0 0-.41 5.43c.05 1.09 0 2.2.1 3.29a3.09 3.09 0 0 0 .14.91c.13.27.67.69.48.57a.72.72 0 0 0 .75 0zM319.75 224.66c1.12-1.37.53-4.65.58-6.31a33.06 33.06 0 0 0-.42-7 .71.71 0 0 0-1.36 0 32.41 32.41 0 0 0-.42 7c.05 1.67-.55 4.93.58 6.31a.73.73 0 0 0 1 0zM319.75 246.45c1.12-1.34.58-10.8.16-13.12a.71.71 0 0 0-1.36 0c-.43 2.32-1 11.78.15 13.12a.74.74 0 0 0 1.05 0zM319.75 268.39c1.1-1.21.59-10.32.16-12.53a.71.71 0 0 0-1.36 0c-.43 2.21-.95 11.31.15 12.53a.76.76 0 0 0 1.05 0zM319.75 286.67c.87-.73.58-9.09.16-11a.71.71 0 0 0-1.36 0c-.43 1.95-.72 10.31.16 11a.75.75 0 0 0 1 0zM319.6 303.37c1.17-.87.76-8.78.31-10.7a.72.72 0 0 0-1.37 0c-.45 1.92-.87 9.83.31 10.7a.72.72 0 0 0 .75 0zM319.75 320.55c.87-.74.58-9.1.15-11a.71.71 0 0 0-1.36 0c-.42 1.94-.71 10.3.16 11a.78.78 0 0 0 1.05 0zM319.75 117.51c1.12-1.34.58-10.8.16-13.12a.71.71 0 0 0-1.36 0c-.43 2.32-1 11.78.15 13.12a.74.74 0 0 0 1.05 0zM319.75 139.28c1.1-1.21.58-10.32.16-12.53a.71.71 0 0 0-1.36 0c-.43 2.21-.95 11.32.15 12.53a.74.74 0 0 0 1.05 0zM319.75 158.52c1.1-1.22.58-10.33.16-12.54a.72.72 0 0 0-1.37 0c-.42 2.21-1 11.32.16 12.54a.76.76 0 0 0 1.05 0zM319.75 180.21c1.13-1.44.58-11.19.16-13.59a.72.72 0 0 0-1.37 0c-.42 2.4-1 12.14.16 13.59a.75.75 0 0 0 1.05 0zM319.86 201.86c1.11-1.73.45-12.73.05-15.38a.72.72 0 0 0-1.37 0c-.4 2.65-1.06 13.65 0 15.38a.74.74 0 0 0 1.27 0zM319.74 336.63c.87-.73.59-9.06.16-11a.7.7 0 0 0-1.35 0c-.43 1.93-.71 10.26.16 11a.76.76 0 0 0 1 0zM368.89 202c1.1-1.17.53-4.42.57-5.89a28 28 0 0 0-.42-6.47.71.71 0 0 0-1.36 0 28 28 0 0 0-.41 6.47c0 1.48-.53 4.72.57 5.89a.74.74 0 0 0 1.05 0zM367.5 170.59c-.83 1.45-.78 9.77-.43 12 .11.71 1.21.64 1.37 0 .53-2.23 1.1-10.53.34-12a.75.75 0 0 0-1.28 0zM367.38 210.94l.14-.06a.87.87 0 0 0-.62.62c-.49 1.48-.23 3.49-.28 5a13.81 13.81 0 0 0 .46 4.1.71.71 0 0 0 1.36 0 14.14 14.14 0 0 0 .45-4.1c0-1.55.22-3.56-.27-5a.9.9 0 0 0-.63-.62c.36.07-.42 0-.61.06zM367.23 333.93c-1.12 1.38-.53 4.66-.57 6.31a33.15 33.15 0 0 0 .41 7 .72.72 0 0 0 1.37 0 33.15 33.15 0 0 0 .41-7c-.05-1.66.55-4.93-.57-6.31a.74.74 0 0 0-1 0zM367.38 317.4c-1.16.73-.67 3.64-.72 4.79a19.16 19.16 0 0 0 .41 5.45.72.72 0 0 0 1.37 0 19.16 19.16 0 0 0 .41-5.45c-.05-1.15.44-4.06-.72-4.79a.72.72 0 0 0-.75 0zM367.23 297.08c-1.1 1.21-.58 10.32-.16 12.53a.72.72 0 0 0 1.37 0c.42-2.21.95-11.31-.16-12.53a.76.76 0 0 0-1 0zM367.24 279.3c-.87.73-.59 9.09-.16 11a.71.71 0 0 0 1.36 0c.43-1.95.71-10.31-.16-11a.75.75 0 0 0-1 0zM367.39 262.6c-1.18.87-.76 8.78-.31 10.7a.71.71 0 0 0 1.36 0c.45-1.92.87-9.83-.31-10.7a.7.7 0 0 0-.74 0zM367.24 245.42c-.87.74-.59 9.1-.16 11a.71.71 0 0 0 1.36 0c.43-1.94.71-10.3-.16-11a.77.77 0 0 0-1 0zM368 148.45c-1.12 1.34-.58 10.81-.16 13.13a.72.72 0 0 0 1.37 0c.42-2.32 1-11.78-.16-13.13a.74.74 0 0 0-1.05 0zM368 126.68c-1.1 1.21-.58 10.32-.16 12.53a.72.72 0 0 0 1.37 0c.42-2.21.95-11.31-.16-12.53a.76.76 0 0 0-1.05 0zM368 107.45c-1.1 1.21-.58 10.32-.16 12.53a.72.72 0 0 0 1.37 0c.42-2.21.95-11.32-.16-12.53a.74.74 0 0 0-1.05 0zM368 49.93c-1.1 1.22-.58 10.33-.16 12.54a.72.72 0 0 0 1.37 0c.42-2.21.95-11.32-.16-12.54a.76.76 0 0 0-1.05 0zM367.9 85.41c-1 1.34-.45 11.53 0 13.94a.72.72 0 0 0 1.37 0c.41-2.41.95-12.6 0-13.94a.76.76 0 0 0-1.28 0zM368.16 68.93c-1.17.8-.66 3.68-.71 4.89a19.68 19.68 0 0 0 .41 5.58.71.71 0 0 0 1.36 0 19.68 19.68 0 0 0 .41-5.58c-.05-1.21.45-4.09-.72-4.89a.72.72 0 0 0-.75 0zM367.24 228.2c-.87.73-.58 9.06-.16 11a.71.71 0 0 0 1.36 0c.42-1.93.71-10.26-.16-11a.77.77 0 0 0-1 0zM368.28 364.84c.87-.73.59-9.13.16-11.08a.72.72 0 0 0-1.37 0c-.43 1.95-.71 10.35.16 11.08a.76.76 0 0 0 1 0zM318.85 340.54c.17-.07-.34.26-.48.56a2.6 2.6 0 0 0-.14 1c-.09 1-.06 2.07-.1 3.09a15.39 15.39 0 0 0 .41 4.84.72.72 0 0 0 1.37 0 17.54 17.54 0 0 0 .38-5.51 18.53 18.53 0 0 0-.12-3c-.18-.85-.6-1.27-1.32-1z" fill="#919191"/><path d="M483.09 223.22c0-3.29-3.22-4.57-6-3.18-3.11 1.54-3.65 2.25-3.6 5.65.55 46.05-.36 118.06-.36 132.06 0 3.91-6.68 7-8.05 7.05-10.81.56-64.66 1.85-77.31 1-5.82-.39-11.73 9.29-5.16 9.72 15.19.38 60.39.38 71.86-.12 9.26-.4 17.06-.67 23.3-8.62 4.69-6 3.84-11.69 4-19 .19-7.7 1.22-29.25 1.49-54.93.27-24.99.13-44.57-.17-69.63z" opacity=".2"/><path d="M473.47 355.58c.2 6.36-6.22 8.84-7.05 9.05-1.82.45-88.47 2.78-92.95-.62-1.43-1.57-1.64-10.6-1.55-14.34.05-2.43-1.22-129.06 2.52-134 2.37-3.36 7.47-4.34 11.86-4.47 5.23-.17 78.33-3.17 83.31 2.61 3.4 2.51 3.81 6.51 4 10.49s.14 128.1-.14 131.28z" fill="#1ab3e2" opacity=".85"/><path d="M460.61 211.33c-18.93-.14-71.35-1.59-77.24.68-10.92 4.19-9.6 17.26-9.6 26.74 0 12.1-.06 90.9-.08 118.2 0 3.3 2.74 4.55 5.51 3.18 3.14-1.56 5.3-5.78 5.31-9.19 0-22.27.15-125.28.2-126 1.5-.11 63.09.05 70.74.11 5.84.04 11.55-13.68 5.16-13.72z" fill="#fff" opacity=".2"/><path d="M474.94 231.18c-.21-6 .8-14.31-4.76-18.31-3.82-2.75-9.24-2.81-13.74-3-5.24-.25-30.88-.19-38.45-.2-9.28 0-18.5 0-27.77.33-5.48.17-12.93-.06-16.58 4.93-1.72 2.34-1.77 5.27-1.9 8.05-.23 4.57-.52 9.15-.61 13.73-.24 11.72 0 72.53-.07 91.19v14c0 4.42-.29 8.83-.1 13.25.12 2.88-.26 8.34 2.56 10.11 3.15 2 9.42 1.4 12.92 1.62 4.1.24 8.23.51 12.34.55 6.42.06 39.55-.65 49.68-.85 6.34-.13 16.88 1.25 22.05-2.8 5.42-4.24 3.57-11.86 3.66-17.73 0-.07.67-61 .85-91.44-.02-5.55-.02-21.15-.08-23.43zM471 360.38c-2.56 3.81-7.32 3.8-11.41 4-2.29.09-4.59.11-6.88.15q-13.54.27-27.09.46c-14.28.21-28.48.69-42.74-.41-2.2-.17-5.19-.05-7.27-.85-2.51-.95-2.27-3.4-2.49-6-.42-5.12-.09-10.24 0-15.37v-10.38q0-24.9.11-49.82 0-21.29.11-42.58v-2.79c.07-3.36.3-6.73.45-10.09.26-5.69.4-11.59 6.73-13.44 6.64-2 14.89-1.21 21.77-1.28h8.38c16.21.05 32.8-.87 49 .39 2.72.22 5.75.47 8.19 1.81 5 2.75 4.52 9.22 4.69 14.13.11 3 .27 6 .28 9 0 4.67 0 9.34-.06 14-.14 30.84-.07 61.69-.08 92.54v2.24c-.23 4.43 1.04 10.3-1.69 14.29z" fill="#00a6e8"/><path d="M393.78 283.72h.07a.89.89 0 0 0 .46-.8 1.05 1.05 0 0 0-.54-.93 1 1 0 1 0 0 1.74h.06l-.76.1h.07l-.56-.42v.07a.88.88 0 0 0 1.16.3zM393.19 286.69c-1.07 1.37-.79 3.22-.83 4.9 0 2.16.15 4.33.07 6.49 0 1 1.58 1.22 1.72.23a41.1 41.1 0 0 0 0-5.87c0-1.8.52-4.12-.48-5.69-.09-.14-.33-.21-.44-.06zM398.48 283.64c-.62 2.26-2.27 18 3.68 14.68 1.09-.61.09-2.34-1-1.67-1.42.88-1.28-5.74-1.27-6.26a49.29 49.29 0 0 0 .1-6.54c-.1-.82-1.29-1.12-1.54-.21z" fill="#1e1e1e"/><path d="M396.45 287.82a12.37 12.37 0 0 0 2.72 0 10.36 10.36 0 0 0 2.79-.14.89.89 0 0 0 0-1.71 11.77 11.77 0 0 0-5.67.65.66.66 0 0 0 .16 1.2zM405.08 292.79c3.08 1.09 6.71 0 9.9 0a1 1 0 0 0 .87-1.52c-1.2-2.51-2.56-5.32-5.76-5.35a5.73 5.73 0 0 0-5.53 4.76 6.52 6.52 0 0 0 10 6.63c1-.68 0-2.34-.94-1.62a4.68 4.68 0 0 1-7.48-4.22c.2-2.38 2.6-4.84 5.07-3.42 1.48.86 2.16 2.78 2.87 4.24l.87-1.52c-3.19 0-6.51.27-9.69.49a.78.78 0 0 0-.21 1.52zM419.17 286.37c-.69 1.65-.38 3.55-.25 5.29.15 2 .18 4 .37 6 .1 1 1.68 1.41 1.89.26a19.45 19.45 0 0 0-.09-5.8c-.2-1.87-.11-3.93-.7-5.72a.64.64 0 0 0-1.22 0z" fill="#1e1e1e"/><path d="M420.24 290.69c1.41 0 3.84-4.13 5.41-2.08.29.39.07 1.8.07 2.23v2.34a21 21 0 0 0 .25 4.12.89.89 0 0 0 1.71 0 38 38 0 0 0 0-7.23c0-1.29 0-2.85-1.2-3.64-2.25-1.49-6.22 1.06-6.84 3.32a.75.75 0 0 0 .19.73c.09.08.19.21.33.21z" fill="#1e1e1e"/><path d="M427.52 290.66c1.51-1.19 5.65-4.19 5.92-.57.18 2.41.05 4.86.22 7.28a1.15 1.15 0 1 0 2.27-.31c-.52-2.56-.05-5.14-.39-7.7a3.83 3.83 0 0 0-1.9-3.2c-2.38-1-6.41 1.74-6.82 4.09a.42.42 0 0 0 .7.41zM438.4 293.11a12.69 12.69 0 0 0 4.05.81c1.42.13 1.44-2.15 0-2.24a24.27 24.27 0 0 0-3.61-.19c-.76.08-1.31 1.22-.44 1.62zM446.69 282a43 43 0 0 0 0 7.18c.06 2.71-.16 5.48.16 8.17.11.93 1.63 1.37 1.81.24a40.94 40.94 0 0 0 .16-7.83 30.57 30.57 0 0 0-.76-7.76c-.18-.61-1.25-.72-1.36 0z" fill="#1e1e1e"/><path d="M448.2 290.33c.86-1.43 3.17-3 4.87-2.12a4.68 4.68 0 0 1 2.08 3.43 5.45 5.45 0 0 1-.65 3.58c-1.45 2.39-4 .94-5.57-.32a1 1 0 1 0-1.18 1.53c2 1.48 4.72 3.06 7.12 1.31 2-1.47 2.63-4.42 2.11-6.75-.48-2.14-2.08-4.51-4.43-4.82a5 5 0 0 0-5.23 3.79.48.48 0 0 0 .88.37zM411.57 26.44c-.47.43.12 1.08.64.83 1.47-.69 3.21-.94 3.34 1.2v.54c-1.61-.81-4.44-.7-4.38 1.39.06 2.27 2.71 2.48 4.38 1.62a.64.64 0 0 0 1.27 0c0-1.71.53-4.45-.77-5.84s-3.36-.8-4.48.26zm3.88 4.15a3.1 3.1 0 0 1-1.6.65c-.64.09-2-.28-1.3-1.15s2.1-.18 3 .08v.36a.75.75 0 0 0-.1.06zM423.25 26c-.35 1.35.23 4.81-1.54 5.23-2 .48-1.51-3.74-1.67-5.07a.59.59 0 0 0 0-.13.44.44 0 0 0-.1-.22.56.56 0 0 0-.77 0c-.42.39-.26 1.05-.26 1.57a15.09 15.09 0 0 0 .13 2.51c.19 1.16.76 2.49 2.06 2.71a2.45 2.45 0 0 0 2.19-.82v.48a.64.64 0 0 0 1.28 0c0-2-.07-4-.08-6.06a.6.6 0 0 0-1.24-.2zM428.79 31.43c-.87.72-1-1.71-1.05-2v-2-.32A3 3 0 0 0 429 27a.62.62 0 0 0 0-1.18 3.94 3.94 0 0 0-1.19-.06 10.87 10.87 0 0 0-.09-1.61c-.06-.43-.71-.37-.81 0a11 11 0 0 0-.25 1.61 2.46 2.46 0 0 1-.37 0 .59.59 0 0 0-.31 1.13 2.94 2.94 0 0 0 .6.16c-.14 3.11.26 7.24 3 5.47a.66.66 0 1 0-.79-1.09zM436.92 28.47a3.48 3.48 0 0 0-3.9-3h-.1c-1.74-.1-2.66 2-2.58 3.54a4 4 0 0 0 .86 2.61 3.29 3.29 0 0 0 2.68.83 3.55 3.55 0 0 0 3.04-3.98zm-3 2.72a2.07 2.07 0 0 1-1.87-.43 3.14 3.14 0 0 1-.5-1.72 2.14 2.14 0 0 1 1.41-2.4.36.36 0 0 0 .18 0c2.73-.13 3.54 3.92.86 4.55zM346.62 22.73a.58.58 0 0 0-.66-.12c-1.63-1-3.68.36-4.42 2-1 2.21-.81 5.19 1.22 6.8 1.87 1.48 4.24 0 5.08-1.82a6.1 6.1 0 0 0-1.22-6.86zm-2.49 7.94c-3.46-.91-2-8.62 1.75-6.83h.06a4.84 4.84 0 0 1 1.24 3.36c-.02 1.55-1.03 4-3.05 3.47z" fill="#1e1e1e"/><path d="M164.34 224c-3.17-7.1-11.7 3.81-9.41 8.95.26.57 1.16 95.92.37 118.88.88 10.43-6.23 11.58-7.57 11.84-13 2.53-50.44 2-78.17 1.12-5.84-.18-1.81 10.9 4.69 11.1 8.26.26 57.32-.09 71.56-2.51 7.81-1.33 14.3-.6 17.51-8.88 1.36-3.52 1.37-7.51 1.53-11.25.96-22.41 3.89-118.66-.51-129.25z" opacity=".2"/><path d="M53.86 221.71c.27-3.18 1.63-6.55 4.65-8.17 5.6-3.81 94-.83 95.45.74 2.92 3.41 1.78 134.7 1.56 139.58-.18 9.73-9 10.17-13.39 10.3-5.23.16-76 3-84.4-2.61-3.41-2.51-3.82-7-4-11s-.14-125.66.13-128.84z" fill="#f78100" opacity=".85"/><path d="M149.4 214.51c-25.43-1.75-51-3-76.46-3.22-18.17-.16-18.36 18.28-18.63 32-.34 17.57.78 92.17.84 111.89 0 3.3 2.73 4.56 5.51 3.18 3.13-1.55 5.31-5.78 5.3-9.18-.09-31.31-.92-62.6-1-93.9 0-7.52.77-27.5.93-30.18.54 0 20 .29 28.46.57q24.94.84 49.85 2.54c5.85.42 11.8-13.21 5.2-13.7z" fill="#fff" opacity=".2"/><path d="M157.13 317.32c-.23-31.13.49-62.41-.62-93.53-.12-3.37.37-9.18-3.08-11.06-1.94-1.06-14.59-1.44-18.47-1.6-7.17-.28-53.42-.26-56-.28-6.41 0-16.67-1.63-22.11 2.68s-3.57 11.83-3.66 17.74c.32 5.58-.66 60.24-.85 90.28 0 5.1-.12 10.2-.1 15.3 0 3.54.19 7.08.3 10.62.17 5.21-.06 11.61 4.62 15.06 3.36 2.47 8 2.64 12 2.88 5.47.32 11 .41 16.44.54 5.68.14 37-.19 47.07-.42 6.86-.16 18.85 1.53 22.7-5.5 1.51-2.78 1.3-6.19 1.42-9.26.21-4.1.39-27.52.34-33.45zM155 338.47c-.1 3.83-.31 7.66-.46 11.49-.22 5.4-.5 11-6.69 12.47-3.54.85-7.48.64-11.12.73q-13.77.31-27.54.59c-14.19.3-28.57.45-42.72-.8a18.83 18.83 0 0 1-5.89-1.24c-5.39-2.28-5.57-7.57-5.75-12.66-.14-3.94-.33-7.88-.37-11.82s0-8.09.05-12.13c.14-30.51.08-61 .1-91.53v-2.3c.22-4.5-1-10.37 1.64-14.37 3.21-4.77 10.49-4 15.53-4.08 4.12 0 27.34.08 34.83.09 7 0 30.63.37 35.43.57 2.84.12 6.3-.17 9 .67 3.55 1.1 3.08 5.15 3.24 8.38.54 10.69.15 21.5.21 32.2q.15 27 .31 54c.2 9.93.48 19.86.2 29.74z" fill="#f78100"/><path d="M71.18 298.1a1.05 1.05 0 1 0-1 1.34h.07a1 1 0 0 0 1-1.27zM74.82 288.78c-.27 3.19.33 6.41.19 9.62-.07 1.38 2.08 1.38 2.14 0a75.47 75.47 0 0 0-.44-9.62 1 1 0 0 0-1.89 0zM75.69 285.84h.08a.94.94 0 0 0 .63-.67.7.7 0 0 0 .11-.23 1.54 1.54 0 0 0 0-.77.9.9 0 0 0-1.5-.39c-.19.24-.42.37-.52.69a1 1 0 0 0 .11.94 1 1 0 0 0 1.09.43zM83.81 297.61c-1 1.09-1.38-3.24-1.4-3.43-.08-.94-.15-1.87-.19-2.81v-1.62h1.44c1.61 0 1.38-2.59-.31-2.25a10.15 10.15 0 0 1-1.09.14 11.77 11.77 0 0 0-.24-2.45c-.17-.73-1.08-.56-1.32 0a8.81 8.81 0 0 0-.58 2.48h-.62c-1 0-1.35 1.67-.26 1.87.27 0 .54.08.8.11 0 .9.08 1.8.13 2.66a19.46 19.46 0 0 0 .72 5.59c.77 2 3.15 2.83 4.49.92.62-.93-.8-2.03-1.57-1.21zM93.15 287.91a5.61 5.61 0 0 0-5.93 3.17 7.34 7.34 0 0 0-.48 1.66.89.89 0 0 0-.09.8 5.21 5.21 0 0 0 2 4.68c2.33 1.72 5.45 1.2 7.67-.44 1-.78.08-2.56-1.06-1.8-1.43 1-3 1.71-4.75 1a3.06 3.06 0 0 1-1.88-2.68c2.87.06 5.78-.2 8.64-.33a1.11 1.11 0 0 0 1.06-1.4 6.58 6.58 0 0 0-5.18-4.66zm-4.27 4.33c1.15-3.46 4.82-2.64 6.57-.39-2.18.06-4.39.15-6.57.39zM115 287.75a5.42 5.42 0 0 0-5.71 2 3.05 3.05 0 0 0-.85-.93 4.2 4.2 0 0 0-5.78.22 4.55 4.55 0 0 0-.26-.76.7.7 0 0 0-1.21 0c-.63 1.42-.4 2.95-.4 4.49v5.65a1.08 1.08 0 0 0 2.15 0c0-1.88-.06-3.77-.09-5.65v-1.62a5.82 5.82 0 0 1 1.88-1.38 2.14 2.14 0 0 1 3 1.56c.32 2.29-.17 5-.28 7.27-.06 1.39 2.08 1.38 2.16 0 .13-2.18.24-4.41.15-6.6a4.55 4.55 0 0 1 2.29-2.1 3.42 3.42 0 0 1 1.33-.36c1 .09 1.57 1.33 1.7 2.26.32 2.13-.28 4.46-.28 6.61a1.08 1.08 0 0 0 2.15 0A34.19 34.19 0 0 0 117 291c-.13-1.35-.62-2.73-2-3.25zM124.38 292.11a24.46 24.46 0 0 0-4.81.67h.05c-.51.35-.76 1.2.15 1.5a24.46 24.46 0 0 0 4.61 0c1.4-.08 1.44-2.28 0-2.17zM136.94 292.42c-.14-1.43-.34-3-1.48-4-1.83-1.61-6-.85-7.27 1.14a.76.76 0 0 0 .85 1.1c2.09-.72 5.28-2.07 5.69 1.17 0 .32.06.64.09 1a5.69 5.69 0 0 0-4.8-.92 4.44 4.44 0 0 0-2.92 4.86c.49 3.85 5.39 3.63 8.09 1.62v.4c.1 1.43 2.33 1.43 2.22 0-.13-2.12-.27-4.25-.47-6.37zm-4.5 5.06c-1.22.36-3.36.38-3.38-1.33 0-3.7 3.9-2.16 5.93-1.23v.66a6.27 6.27 0 0 1-2.55 1.9z" fill="#1e1e1e"/></svg>