<svg xmlns="http://www.w3.org/2000/svg" viewBox="0 0 490 216"><path d="M481.75 24.3c-42.59-7.41-86.08-9.14-128.87-2.66-77.34-1.43-337.35-2.56-339.92 1C6.46 27 1.48 38.26 4.11 44.44 0 65.74 5.82 162.87 2.27 171.53c-1.78 4.32-1.39 19.36 5.55 19.76 78.75-6.13 129.68 3 156 2.05 34.07-9.65 144.92 1.65 306.74.77 24.59 1.27 14.6-62.46 14-85.72-3.1-56.05 7.78-84.08-2.81-84.09z" fill="#c9c9c9"/><path d="M2.33 104.48c8.14-.22 103.57-5.83 192.18-2.61 2.72-10.5-1.5-70.7-1.17-81.51-24.16.16-114.68 2.09-135.63.29C43.36 16.3 0 11.67 4.11 44.44c-.33.74-2.74 26.76-1.78 60.04z" fill="#fff"/><path d="M192.44 20.91c-1.41 18.2-.84 36.75-1 55q-.18 23.11-.15 46.22.06 29.85.54 59.7c.06 3 .23 7.42.29 9.73.05 1.64 2.6 1.65 2.55 0-.92-35.27-.91-72.85-.73-108.83.09-20.54 1.29-41.3.43-61.82a1 1 0 0 0-1.95 0zM290.51 21.63c-1 18.22-.09 36.69-.1 54.94q0 23-.13 46.05-.15 29.65-.55 59.3c0 3 0 7.37-.05 9.64a1.28 1.28 0 0 0 2.55 0c.6-35.07.75-72.41.72-108.19 0-20.49.86-41.29-.49-61.74a1 1 0 0 0-1.95 0z" fill="#1e1e1e"/><path d="M482.16 101.62c-27.12-.65-54.27-.5-81.4-.52q-59.33 0-118.64.1-63.1.1-126.22.32-51.06.15-102.12.34l-32.84.14c-4.81 0-10.62-.85-15.37.07a3.64 3.64 0 0 1-.66 0 1.26 1.26 0 0 0 0 2.51l39.4-.16q48.56-.19 97.11-.35 62.47-.23 125-.37 60.57-.15 121.16-.18c29.23 0 58.47.35 87.7.07h6.92a1 1 0 0 0 0-1.92zM483.74 147.49q-42.25.73-84.51 1-59.79.41-119.6.33-62.83 0-125.69-.21-50.5-.17-101-.41L20.6 148c-4.69 0-10.38-1-15-.08a3.86 3.86 0 0 1-.68 0 1.25 1.25 0 0 0 0 2.5q19.26.12 38.53.21 47.94.24 95.89.38 62.14.19 124.28.23 61 0 121.92-.29c30.16-.17 60.4 0 90.54-1.23l7.67-.33a1 1 0 0 0 0-1.92z" fill="#1e1e1e"/><path d="M485.34 171.54c0-8.7-.36-125-.31-133 0-4.89 1.46-11-2-15.07-1.72-2-3.63-2.3-6.07-2.55-4.57-.48-9.21-.58-13.81-.74-8-.27-432.87 0-434.5 0-7.17 0-22-2.39-23.84 7.41a.75.75 0 0 0 0 .26c-.5 5.61-.66 158.87 1.08 161.18 2 2.67 6.46 2.59 9.51 3 4.56.69 454.66 0 460.42-.72 4.08-.53 7.71-1.69 8.76-6s.77-9.26.76-13.77zm-2.25.26c0 .56-.24 8.55-.48 9.77-1 5.18-3.5 7.31-8.4 7.71-5.74.48-11.6.41-17.36.47-2.82 0-423.85 1.07-427.43 1.1-2.52 0-5 .06-7.54-.09-5.16-.3-13.38.49-15-5.45-1-3.4-1.08-152.34-.66-157.24v-.05c1.83-8.92 19.68-6 26.37-6 .84 0 434.12.4 437.7.58 5.58.29 11.81-.55 12.76 6.8.45 3.46-.16 7.15-.15 10.66.1 43.94.5 87.85.19 131.74z" fill="#1e1e1e"/><path d="M123.91 32.85c-.89-4.94-8-2.34-7.57 1.7.58 6.11.38 47.1.13 53.36-.08 1.87.44 9.61-13.83 9.62-30.41 1.65-51.26 1.65-81.71 1.12-4.09-.07-7.63 8.53-3.11 8.61 18.15.31 35.8 1 53.94.68 9.06-.18 33.08-.52 40.64-2.31 14.62-3.46 11.89-41 11.91-52.39.02-8.12 1.04-12.39-.4-20.39z" opacity=".2"/><path d="M8.84 35.11c.27-3.18 2.87-8.06 5.89-9.68 1.95-1.73 95.27-1.73 100.11 1.74 1.43 1.57 3.82 61 0 66.43-2.37 3.36-7.46 3.84-11.85 4-5.21.13-88.84 1.4-90.29.4-3.4-2.51-3.81-4.51-3.95-8.49s-.18-51.22.09-54.4z" fill="#f78100" opacity=".85"/><path d="M29.3 69.42a1 1 0 1 0-1 1.33h.06a1 1 0 0 0 1-1.26zM32.94 60.09c-.26 3.2.34 6.41.19 9.62-.06 1.38 2.08 1.38 2.15 0a77.36 77.36 0 0 0-.45-9.62 1 1 0 0 0-1.89 0zM33.82 57.15h.07a.92.92 0 0 0 .63-.67.7.7 0 0 0 .11-.23 1.44 1.44 0 0 0 0-.77.9.9 0 0 0-1.49-.39c-.2.24-.42.37-.53.69a1.07 1.07 0 0 0 .11.94 1 1 0 0 0 1.1.43zM41.93 68.92c-1 1.1-1.38-3.24-1.39-3.43-.08-.93-.16-1.87-.2-2.81v-1.62h1.43c1.62 0 1.38-2.58-.3-2.25a6.9 6.9 0 0 1-1.1.14 11.77 11.77 0 0 0-.24-2.45c-.16-.73-1.08-.55-1.31 0a8.56 8.56 0 0 0-.59 2.5h-.61c-1 0-1.34 1.67-.25 1.87.26 0 .53.08.8.11 0 .91.08 1.81.13 2.66a19.12 19.12 0 0 0 .7 5.57c.76 2 3.14 2.83 4.48.92.68-.93-.78-2.03-1.55-1.21zM51.27 59.22a5.61 5.61 0 0 0-5.93 3.17 7.9 7.9 0 0 0-.48 1.66.89.89 0 0 0-.09.8 5.23 5.23 0 0 0 2 4.69c2.33 1.71 5.45 1.2 7.67-.45 1-.78.08-2.56-1-1.8-1.44 1-3 1.72-4.76 1a3 3 0 0 1-1.87-2.68c2.87.06 5.78-.19 8.64-.33a1.1 1.1 0 0 0 1.06-1.39 6.64 6.64 0 0 0-5.24-4.67zM47 63.55c1.16-3.46 4.82-2.63 6.58-.39-2.19.07-4.39.16-6.58.39zM73.1 59.06a5.41 5.41 0 0 0-5.71 2 3.47 3.47 0 0 0-.85-.93 4.2 4.2 0 0 0-5.78.23 4.4 4.4 0 0 0-.27-.77.71.71 0 0 0-1.21 0c-.62 1.43-.4 3-.39 4.49v5.65a1.08 1.08 0 0 0 2.16 0C61 67.83 61 66 61 64.06v-1.61a6 6 0 0 1 1.88-1.39 2.15 2.15 0 0 1 3 1.56c.32 2.29-.18 5-.28 7.27-.06 1.4 2.08 1.38 2.16 0 .12-2.17.23-4.41.14-6.6a4.66 4.66 0 0 1 2.3-2.1 3.24 3.24 0 0 1 1.32-.35c1 .09 1.57 1.32 1.71 2.26.31 2.12-.29 4.46-.29 6.6a1.08 1.08 0 0 0 2.16 0 35.52 35.52 0 0 0 .11-7.36C75 61 74.5 59.58 73.1 59.06zM82.51 63.42a25 25 0 0 0-4.81.67c-.51.36-.75 1.21.16 1.5a23.65 23.65 0 0 0 4.61 0c1.44-.08 1.53-2.23.04-2.17zM95.06 63.73c-.14-1.43-.34-3-1.48-4-1.82-1.61-6-.85-7.26 1.14a.76.76 0 0 0 .85 1.1c2.08-.71 5.27-2.06 5.68 1.18 0 .31.07.64.1 1a5.68 5.68 0 0 0-4.81-.92 4.43 4.43 0 0 0-2.92 4.85c.5 3.85 5.39 3.64 8.1 1.63v.4c.1 1.42 2.34 1.43 2.23 0-.15-2.11-.28-4.26-.49-6.38zm-4.49 5.06c-1.23.37-3.37.39-3.38-1.33 0-3.7 3.89-2.15 5.92-1.22v.66a6.4 6.4 0 0 1-2.54 1.89z" fill="#1e1e1e"/><path d="M112.41 25.19c-15.5.22-91.18-.54-94.67.53C9.17 28.36 9 38 8.5 45.3c-.37 5.81-1.88 37.64-.11 47.32.65 3.55 4.79 2.28 6.68.75a10.57 10.57 0 0 0 3.73-9.69c-1.27-7 .45-41.64.68-44.7 1.25 0 17.18-1.24 24.24-.39a191.31 191.31 0 0 0 24.65.87c13-.12 25.92-.36 38.88-.55 5.84-.08 11.53-13.81 5.16-13.72z" fill="#fff" opacity=".2"/><path d="M117.61 76.58c0-7.35-.14-30.94-.13-35.38s1.3-13.91-3.85-15.89c-6.37-2.44-15.24-.93-21.88-1C88 24.2 27.14 23.55 21 23.9c-4.26.24-9 .63-11.38 4.68-2.81 4.79-1.41 10.91-1.46 16.09a.66.66 0 0 0 0 .15c-.19 10-.63 20-.74 29.94 0 2.88.09 5.78.15 8.66.09 3.89-.59 8.83 1.5 12.32 1.9 3.17 3.78 3.45 7 3.6 23 1.08 76.59-.24 80.32-.38 6.61-.27 18 1 20.54-7.15 1.48-4.56.69-10.52.68-15.23zM115.33 85c0 3 .16 6.46-2 8.76-3.7 3.86-12 2.76-16.86 3-3.33.13-52.18.84-73.28.62-2.81 0-7.12.7-9.83-.27-4.63-1.64-3.65-9.78-3.79-13.6-.1-2.88-.1-28.64.09-38.61a.7.7 0 0 0 0-.14c.29-5.2-1.58-14.12 3.84-17.4 4.67-2.82 13.3-1.59 18.64-1.53 2.85 0 58.33.72 66.77.69 4 0 9.23-.61 13.12.64s3.22 7.37 3.3 11c.07 3.71.14 34.98 0 46.84z" fill="#f78100"/></svg>