<svg xmlns="http://www.w3.org/2000/svg" viewBox="0 0 490 216"><path d="M481.75 24.61c-42.58-7.41-86.08-9.14-128.87-2.61-77.33-1.43-337.35-2.56-339.92 1-6.49 4.29-11.47 15.57-8.84 21.74C0 66 5.82 163.18 2.27 171.84.49 176.16.88 191.2 7.82 191.6c78.76-6.14 129.68 3 156 2.05 34.07-9.65 144.92 1.64 306.74.77 24.59 1.27 14.6-62.46 14-85.72-3.1-56.05 7.78-84.08-2.81-84.09z" fill="#c9c9c9"/><path d="M2.33 105.13c8.14-.22 103.57-5.83 192.18-2.61C197.23 92 193 31.82 193.34 21c-24.16.16-114.68 2.09-135.63.29C43.36 17 0 12.32 4.11 45.09c-.33.74-2.74 26.76-1.78 60.04z" fill="#fff"/><path d="M192.44 21.56c-1.41 18.2-.84 36.75-1 55q-.18 23.11-.15 46.23.06 29.83.54 59.69c.06 3 .23 7.42.29 9.74.05 1.63 2.6 1.64 2.55 0-.92-35.28-.91-72.86-.73-108.84.09-20.54 1.29-41.3.43-61.82a1 1 0 0 0-1.95 0zM290.51 22.29c-1 18.21-.09 36.68-.1 54.93q0 23-.13 46.05-.15 29.65-.55 59.3c0 3 0 7.37-.05 9.65a1.28 1.28 0 0 0 2.55 0c.6-35.08.75-72.42.72-108.2 0-20.48.86-41.29-.49-61.73a1 1 0 0 0-1.95 0z" fill="#1e1e1e"/><path d="M482.16 102.27c-27.12-.65-54.27-.5-81.4-.52q-59.33 0-118.64.1-63.1.12-126.22.32-51.06.15-102.12.34l-32.84.13c-4.81 0-10.62-.85-15.37.07a4.82 4.82 0 0 1-.66 0 1.25 1.25 0 0 0 0 2.5q19.7-.09 39.4-.15 48.56-.19 97.11-.36 62.47-.21 125-.37 60.57-.15 121.16-.18c29.23 0 58.47.35 87.7.07h6.92a1 1 0 0 0 0-1.92zM483.74 148.14q-42.25.74-84.51 1-59.79.39-119.6.32-62.83 0-125.69-.21-50.5-.17-101-.41l-32.34-.16c-4.69 0-10.38-.95-15-.08a3.86 3.86 0 0 1-.68 0 1.25 1.25 0 0 0 0 2.5q19.26.12 38.53.21 47.94.24 95.89.38 62.14.19 124.28.23 61 0 121.92-.29c30.16-.17 60.4 0 90.54-1.23l7.67-.32a1 1 0 0 0 0-1.93z" fill="#1e1e1e"/><path d="M485.34 172.19c0-8.7-.36-125-.31-133 0-4.89 1.46-11-2-15.07-1.72-2-3.63-2.3-6.07-2.55-4.57-.48-9.21-.58-13.81-.74-8-.27-432.87 0-434.5 0-7.17 0-22-2.39-23.84 7.41a.75.75 0 0 0 0 .26c-.5 5.61-.66 158.87 1.08 161.18 2 2.67 6.46 2.59 9.51 3 4.56.69 454.66 0 460.42-.71 4.08-.54 7.71-1.69 8.76-6s.77-9.27.76-13.78zm-2.25.26c0 .57-.24 8.55-.48 9.77-1 5.18-3.5 7.31-8.4 7.71-5.74.48-11.6.41-17.36.47-2.82 0-423.85 1.07-427.43 1.1-2.52 0-5 .06-7.54-.09-5.16-.3-13.38.49-15-5.45-1-3.4-1.08-152.34-.66-157.24 1.83-8.92 19.68-6 26.37-6 .84 0 434.12.4 437.7.59 5.58.28 11.81-.55 12.76 6.8.45 3.45-.16 7.14-.15 10.65.1 43.89.5 87.8.19 131.69z" fill="#1e1e1e"/><path d="M161.55 33.5c-.89-4.94-8-2.34-7.57 1.7.58 6.11.38 47.1.13 53.37-.08 1.86.44 9.61-13.83 9.62-30.41 1.64-51.28 1.64-81.71 1.12-4.09-.08-7.64 8.52-3.11 8.6 18.14.31 35.79 1 53.94.68 9.06-.18 33.08-.52 40.63-2.31 14.63-3.46 11.9-41 11.92-52.39.05-8.12 1.05-12.39-.4-20.39z" opacity=".2"/><path d="M46.48 35.76c.27-3.18 2.86-8.06 5.89-9.68 1.94-1.73 95.29-1.73 100.11 1.75 1.43 1.56 3.82 61 0 66.42-2.37 3.36-7.47 3.84-11.86 4-5.23.16-88.86 1.46-90.31.39-3.4-2.51-3.81-4.51-4-8.49s-.1-51.21.17-54.39z" fill="#f78100" opacity=".85"/><path d="M66.94 70.07a1.05 1.05 0 1 0-1 1.33H66a1 1 0 0 0 1-1.26zM70.58 60.74c-.26 3.2.33 6.41.19 9.62-.07 1.38 2.08 1.38 2.15 0a77.36 77.36 0 0 0-.45-9.62 1 1 0 0 0-1.89 0zM71.45 57.81h.08a.91.91 0 0 0 .63-.67.7.7 0 0 0 .11-.23 1.55 1.55 0 0 0 0-.77.9.9 0 0 0-1.49-.39c-.2.24-.43.37-.53.69a1 1 0 0 0 .11.94 1 1 0 0 0 1.09.43zM79.57 69.57c-1 1.1-1.38-3.24-1.4-3.42-.08-.94-.15-1.88-.19-2.82v-1.62h1.44c1.62 0 1.38-2.58-.31-2.24a7.91 7.91 0 0 1-1.11.13 11.9 11.9 0 0 0-.24-2.45c-.17-.72-1.08-.55-1.31 0a8.64 8.64 0 0 0-.59 2.48h-.61c-1 0-1.34 1.67-.25 1.87.26 0 .53.08.79.11 0 .91.08 1.81.13 2.66a19.12 19.12 0 0 0 .73 5.59c.76 2 3.14 2.83 4.48.92.67-.93-.79-2.03-1.56-1.21zM88.91 59.87A5.62 5.62 0 0 0 83 63a7.34 7.34 0 0 0-.48 1.66.89.89 0 0 0-.09.8 5.23 5.23 0 0 0 2 4.69c2.33 1.71 5.45 1.2 7.67-.45 1.05-.78.08-2.56-1.06-1.8-1.43 1-3 1.72-4.75 1a3.06 3.06 0 0 1-1.88-2.67c2.88 0 5.79-.2 8.65-.34a1.11 1.11 0 0 0 1.06-1.39 6.64 6.64 0 0 0-5.21-4.63zm-4.27 4.34c1.15-3.46 4.82-2.63 6.57-.39-2.21.06-4.39.18-6.57.39zM110.73 59.71a5.44 5.44 0 0 0-5.71 2 3.27 3.27 0 0 0-.84-.93 4.2 4.2 0 0 0-5.78.22 4.4 4.4 0 0 0-.27-.77.71.71 0 0 0-1.21 0c-.62 1.43-.4 3-.39 4.5v5.64a1.08 1.08 0 0 0 2.15 0c0-1.88-.06-3.76-.09-5.64v-1.62a5.85 5.85 0 0 1 1.88-1.39 2.14 2.14 0 0 1 3 1.56c.33 2.29-.17 5-.27 7.28-.07 1.39 2.07 1.38 2.15 0 .13-2.18.24-4.42.15-6.61a4.57 4.57 0 0 1 2.29-2.09 3.15 3.15 0 0 1 1.33-.36c1 .09 1.57 1.32 1.71 2.26.31 2.13-.29 4.46-.29 6.6a1.08 1.08 0 0 0 2.16 0 34.83 34.83 0 0 0 .1-7.36c-.17-1.38-.66-2.77-2.07-3.29zM120.15 64.07a25.22 25.22 0 0 0-4.82.67c-.51.35-.75 1.2.15 1.49a23.75 23.75 0 0 0 4.62 0c1.44-.07 1.48-2.23.05-2.16zM132.7 64.38c-.14-1.43-.34-3-1.48-4-1.83-1.61-6-.85-7.26 1.14a.75.75 0 0 0 .84 1.1c2.09-.71 5.28-2.06 5.69 1.18 0 .32.06.64.09 1a5.65 5.65 0 0 0-4.8-.92 4.42 4.42 0 0 0-2.92 4.85c.5 3.85 5.39 3.64 8.09 1.63v.4c.1 1.42 2.34 1.43 2.22 0-.17-2.13-.27-4.26-.47-6.38zm-4.49 5.06c-1.23.37-3.37.39-3.39-1.33 0-3.7 3.9-2.15 5.93-1.22v.66a6.37 6.37 0 0 1-2.54 1.89z" fill="#1e1e1e"/><path d="M150.05 25.84c-15.5.22-91.19-.54-94.67.53C46.8 29 46.6 38.68 46.13 46c-.37 5.81-1.87 37.64-.1 47.33.65 3.55 4.79 2.27 6.68.74a10.57 10.57 0 0 0 3.73-9.69c-1.27-7 .44-41.64.68-44.7 1.24 0 17.17-1.23 24.24-.39a193 193 0 0 0 24.64.88c13-.12 25.93-.37 38.89-.56 5.84-.13 11.53-13.86 5.16-13.77z" fill="#fff" opacity=".2"/><path d="M155.25 77.23c0-7.35-.14-30.94-.13-35.38s1.29-13.91-3.85-15.88c-6.37-2.45-15.27-.97-21.89-1.06-3.71-.06-64.6-.71-70.77-.36-4.25.24-9 .63-11.37 4.68-2.79 4.77-1.4 10.91-1.44 16.09a.66.66 0 0 0 0 .15c-.19 10-.63 20-.75 29.94 0 2.89.1 5.78.16 8.66.09 3.89-.59 8.83 1.5 12.32 1.9 3.18 3.78 3.45 7 3.6 23 1.08 76.6-.24 80.32-.38 6.62-.26 17.95 1 20.55-7.14 1.47-4.57.68-10.53.67-15.24zM153 85.61c0 3 .16 6.46-2.05 8.76-3.71 3.86-12 2.76-16.87 2.95-3.32.13-52.17.84-73.27.62-2.82 0-7.12.7-9.83-.27-4.63-1.64-3.66-9.78-3.79-13.6-.1-2.88-.1-28.63.08-38.61v-.14c.28-5.2-1.59-14.12 3.83-17.39 4.68-2.83 13.31-1.6 18.65-1.54 2.84 0 58.32.72 66.76.69 4 0 9.24-.61 13.13.64s3.22 7.37 3.3 11c.06 3.8.17 35.07.06 46.89z" fill="#f78100"/></svg>