<svg xmlns="http://www.w3.org/2000/svg" viewBox="0 0 490 216"><path d="M481.75 24.27c-42.59-7.41-86.08-9.14-128.87-2.67-77.34-1.42-337.35-2.55-339.92 1C6.46 27 1.48 38.22 4.11 44.4 0 65.7 5.82 162.84 2.27 171.49c-1.78 4.32-1.39 19.36 5.55 19.77 78.75-6.14 129.68 3 156 2.05 34.07-9.65 144.92 1.64 306.74.76 24.59 1.27 14.6-62.45 14-85.72-3.1-56.04 7.78-84.07-2.81-84.08z" fill="#c9c9c9"/><path d="M2.33 104.45c8.14-.22 103.57-5.83 192.18-2.62 2.72-10.49-1.5-70.7-1.17-81.51-24.16.17-114.68 2.09-135.63.29C43.36 16.27 0 11.64 4.12 44.4c-.34.75-2.75 26.76-1.79 60.05z" fill="#fff"/><path d="M192.44 20.87c-1.41 18.2-.84 36.75-1 55q-.18 23.1-.15 46.22.06 29.85.54 59.69c.06 3 .23 7.42.29 9.74.05 1.64 2.6 1.64 2.55 0-.92-35.27-.91-72.86-.73-108.84.09-20.54 1.29-41.3.43-61.82a1 1 0 0 0-1.95 0zM290.51 21.6c-1 18.22-.09 36.69-.1 54.93q0 23-.13 46.06-.15 29.64-.55 59.29c0 3 0 7.37-.05 9.65a1.28 1.28 0 0 0 2.55 0c.6-35.07.75-72.42.72-108.19 0-20.49.86-41.3-.49-61.74a1 1 0 0 0-1.95 0z" fill="#1e1e1e"/><path d="M482.16 101.58c-27.12-.65-54.27-.5-81.4-.52q-59.33 0-118.64.1-63.1.12-126.22.32-51.06.17-102.12.35l-32.84.17c-4.81 0-10.62-.85-15.37.08a3.64 3.64 0 0 1-.66 0 1.25 1.25 0 0 0 0 2.5l39.4-.15q48.56-.19 97.11-.36 62.47-.21 125-.36 60.57-.15 121.16-.19c29.23 0 58.47.35 87.7.07h6.92a1 1 0 0 0 0-1.93zM483.74 147.46q-42.25.72-84.51 1-59.79.39-119.6.32-62.83 0-125.69-.21-50.5-.15-101-.4L20.6 148c-4.69 0-10.38-.94-15-.08a3.86 3.86 0 0 1-.68 0 1.25 1.25 0 0 0 0 2.5l38.53.22q47.94.23 95.89.38 62.14.19 124.28.22 61 0 121.92-.28c30.16-.18 60.4 0 90.54-1.24l7.67-.32a1 1 0 0 0 0-1.92z" fill="#1e1e1e"/><path d="M485.34 171.5c0-8.69-.36-125-.31-133 0-4.89 1.46-11-2-15.06-1.72-2-3.63-2.3-6.07-2.56-4.58-.48-9.21-.58-13.81-.73-8-.28-432.88 0-434.5 0-7.17 0-22-2.39-23.84 7.42a.76.76 0 0 0 0 .26c-.5 5.6-.66 158.87 1.08 161.18 2 2.67 6.46 2.58 9.51 3 4.55.68 454.66 0 460.42-.72 4.08-.54 7.7-1.69 8.76-6s.77-9.29.76-13.79zm-2.25.26c0 .57-.25 8.56-.48 9.77-1 5.18-3.5 7.31-8.4 7.72-5.74.47-11.6.4-17.36.46-2.82 0-423.85 1.07-427.43 1.1-2.52 0-5 .06-7.54-.09-5.16-.3-13.38.5-15-5.45-.99-3.39-1.12-152.34-.7-157.27v-.06C8 19.06 25.89 22 32.58 22c.84 0 434.12.4 437.7.58 5.58.28 11.81-.55 12.76 6.8.45 3.45-.16 7.14-.15 10.65.11 43.97.51 87.84.2 131.73z" fill="#1e1e1e"/><path d="M195.76 32.81c-.88-4.93-7.95-2.34-7.57 1.71.58 6.11.39 47.1.13 53.36-.07 1.87.44 9.61-13.82 9.62-30.41 1.65-122.73 1.64-153.18 1.12-4.09-.07-7.63 8.53-3.11 8.61 18.15.31 107.26 1 125.41.67 9-.17 33.08-.51 40.63-2.3 14.63-3.47 11.89-41.06 11.92-52.4.02-8.12 1.03-12.39-.41-20.39z" opacity=".2"/><path d="M9.23 35.07c.27-3.17 2.87-8 5.89-9.67 2-1.73 166.76-1.73 171.58 1.74 1.42 1.57 3.82 61 0 66.42-2.37 3.36-7.47 3.84-11.86 4-5.23.16-160.33 1.45-161.78.38-3.4-2.5-3.81-4.5-3.95-8.48S9 38.25 9.23 35.07z" fill="#f78100" opacity=".85"/><path d="M61.59 69.39a1.05 1.05 0 1 0-1 1.34h.07a1 1 0 0 0 1-1.27zM65.23 60.07c-.27 3.2.33 6.41.18 9.62-.06 1.38 2.09 1.38 2.15 0a73.69 73.69 0 0 0-.45-9.62.94.94 0 0 0-1.88 0zM66.1 57.13h.07a1 1 0 0 0 .64-.67 1.63 1.63 0 0 0 .11-.23 1.55 1.55 0 0 0 0-.77.9.9 0 0 0-1.5-.39c-.2.24-.42.37-.52.69a1 1 0 0 0 .1.94 1 1 0 0 0 1.1.43zM74.21 68.9c-1 1.1-1.38-3.24-1.39-3.43-.08-.93-.15-1.87-.2-2.81v-1.62h1.43c1.62 0 1.39-2.59-.3-2.25a8.07 8.07 0 0 1-1.1.14 11.13 11.13 0 0 0-.24-2.45c-.16-.73-1.07-.56-1.31 0a8.48 8.48 0 0 0-.58 2.52h-.61c-1 0-1.35 1.67-.26 1.87.27.05.53.08.8.11 0 .9.08 1.81.13 2.66a19.12 19.12 0 0 0 .72 5.59c.76 2 3.14 2.83 4.49.92.65-.97-.79-2.07-1.58-1.25zM83.56 59.2a5.6 5.6 0 0 0-5.93 3.17 7.37 7.37 0 0 0-.49 1.63.89.89 0 0 0-.09.8 5.2 5.2 0 0 0 2 4.68c2.34 1.72 5.45 1.21 7.67-.44 1.06-.78.08-2.56-1-1.8-1.43 1-3 1.71-4.75 1A3 3 0 0 1 79 65.57c2.87.06 5.78-.2 8.64-.33a1.11 1.11 0 0 0 1.06-1.39 6.61 6.61 0 0 0-5.14-4.65zm-4.27 4.33c1.16-3.46 4.82-2.64 6.58-.39-2.2.07-4.4.16-6.58.39zM105.38 59a5.41 5.41 0 0 0-5.71 2 3.47 3.47 0 0 0-.85-.93 4.2 4.2 0 0 0-5.78.23 4.4 4.4 0 0 0-.27-.77.69.69 0 0 0-1.2 0c-.63 1.42-.4 3-.4 4.49v5.65a1.08 1.08 0 0 0 2.16 0c0-1.88-.06-3.76-.1-5.65V62.4a6.13 6.13 0 0 1 1.92-1.4 2.14 2.14 0 0 1 3 1.56c.32 2.29-.18 5-.28 7.27-.06 1.39 2.08 1.38 2.16 0 .12-2.18.23-4.41.15-6.6a4.55 4.55 0 0 1 2.29-2.1 3.24 3.24 0 0 1 1.32-.35c1 .08 1.57 1.32 1.71 2.25.31 2.13-.28 4.47-.28 6.61 0 1.41 2 1.35 2.15 0a34.84 34.84 0 0 0 .11-7.36c-.2-1.34-.7-2.72-2.1-3.28zM114.79 63.4a24.46 24.46 0 0 0-4.81.67c-.5.35-.75 1.2.16 1.5a23.65 23.65 0 0 0 4.61 0c1.44-.08 1.48-2.24.04-2.17zM127.34 63.71c-.13-1.43-.34-3-1.47-4-1.83-1.61-6-.85-7.27 1.14a.76.76 0 0 0 .85 1.1c2.08-.71 5.27-2.07 5.68 1.17 0 .32.07.64.1 1a5.64 5.64 0 0 0-4.81-.92 4.44 4.44 0 0 0-2.92 4.85c.5 3.85 5.39 3.64 8.1 1.63v.4c.1 1.42 2.34 1.42 2.23 0-.15-2.08-.28-4.25-.49-6.37zm-4.49 5.06c-1.23.36-3.37.39-3.38-1.33 0-3.7 3.89-2.15 5.93-1.23v.66a6.33 6.33 0 0 1-2.55 1.9z" fill="#1e1e1e"/><path d="M184.26 25.16c-15.49.22-162.64-.54-166.13.53C9.56 28.32 9.35 38 8.89 45.26 8.52 51.07 7 82.9 8.78 92.59c.65 3.55 4.79 2.28 6.68.75a10.59 10.59 0 0 0 3.73-9.7c-1.27-7 .45-41.64.68-44.69 1.25 0 17.17-1.24 24.24-.4 8.21 1 87.85 1 96.11.88 13-.12 25.92-.37 38.88-.55 5.84-.09 11.54-13.82 5.16-13.72z" fill="#fff" opacity=".2"/><path d="M189.47 76.54c0-7.35-.14-30.93-.13-35.38s1.29-13.91-3.85-15.88c-6.37-2.44-15.24-.94-21.89-1.05-3.71-.07-136.07-.71-142.24-.36-4.25.24-9 .62-11.37 4.67C7.2 33.33 8.6 39.46 8.55 44.63a.76.76 0 0 0 0 .16c-.19 10-.65 35.71-.59 38.6.09 3.88-.59 8.82 1.5 12.32 1.9 3.17 3.78 3.44 7 3.59 23 1.08 148.06-.23 151.78-.38 6.62-.26 17.95 1 20.55-7.14 1.48-4.56.68-10.53.68-15.24zm-2.28 8.38c0 3 .15 6.47-2.05 8.76-3.71 3.86-12 2.77-16.87 3-3.32.13-123.64.83-144.74.61-2.81 0-7.12.7-9.83-.26-4.63-1.69-3.7-9.83-3.79-13.64-.1-2.89-.1-28.64.08-38.62a.33.33 0 0 0 0-.14c.29-5.2-1.58-14.12 3.84-17.39 4.67-2.82 13.3-1.59 18.64-1.54 2.84 0 101.93.33 112.9.44 8.44.08 16.89.28 25.33.26 4 0 9.24-.61 13.13.64s3.22 7.36 3.3 11c.12 3.79.2 35.07.06 46.88z" fill="#f78100"/></svg>