<svg xmlns="http://www.w3.org/2000/svg" viewBox="0 0 490 320"><path d="M476.18 71.67c-42.59-9.36-215-3.1-236-5.38-31.76-1.11-54.36-6.37-44.18 57.63.46 16.28 2.51 123-1 133.92-1.77 5.46-3.91 25.63 3 26.14 26.18 1.94 197.93 2.4 210.65-1.65 20.43 1.34 35.86 2.68 56.3 4 27.22 1.82 14.6-79 14-108.37-.65-30.07 1.61-60.62 3.34-90.58.11-2.28-1.66-14.73-6.11-15.71z" fill="#fff"/><path d="M295.63 66.63c-1.35 19.87-.83 40-1 59.92q-.21 28.71-.14 57.42.06 41.84.53 83.66c.06 5 .22 11.16.29 15.56a1.28 1.28 0 0 0 2.55 0c-.78-49.57-.94-99.19-.75-148.77.09-22.55 1.17-45.25.45-67.79a1 1 0 0 0-1.95 0zM375.76 67.36c-.87 19.89-.06 40-.05 59.87v57q-.09 41.07-.35 82.12v15.42a1.28 1.28 0 0 0 2.55 0c.35-48.1.5-98 .4-146.62 0-22.54.74-45.32-.53-67.82a1 1 0 0 0-1.95 0z" fill="#1e1e1e"/><path d="M475.52 126.86c-15-.37-25-.52-40-.66-14.67-.13-87.33-.19-109-.13-36.31.1-45.2.87-103.54 1.11l-27.27.13a1.25 1.25 0 0 0 0 2.5c61.58-.2 166.3-1.41 189.35-1.41q22.71 0 45.42.14c14.56.08 24.13.35 38.7.27h6.37a1 1 0 0 0 0-1.92zM477.1 227.22c-15.54-.22-26.1-.22-41.6-.22-37.11-.05-148.1-.14-186.89-.15h-33.47c-5.81 0-12.39-.87-18.15 0a5.48 5.48 0 0 1-.81 0 1.25 1.25 0 0 0 0 2.5h46.59c37.12 0 143.1.05 181.89 0h33.48c5.7 0 12.51.92 18.14-.17a4.49 4.49 0 0 1 .82 0 1 1 0 0 0 0-1.92z" fill="#1e1e1e"/><path d="M478.69 254.84c0-10.69-.51-154.46-.31-171.56.07-6.06 1.45-14.59-6.22-16.37-6.48-1.51-14.2-1-20.82-1.07-2.51 0-193.68.15-228.31.12h-2.76c-7.2 0-22.8-2.61-24.72 7.4a.76.76 0 0 0 0 .26c-1.08 10-.24 20.5-.28 30.51-.14 34.18-.7 169.6.06 173.19.54 2.57 1.3 4.34 3.81 5.3 5.28 2 12.44 2.14 18 2.13.67 0 124.47-.33 169-.43 41.08-.09 77.73-.44 83.28-1.22 4.08-.58 7.64-1.89 8.5-6.3 1.38-6.92.78-14.88.77-21.96zm-6.87 25.49c-2.42 1.2-6.54.8-9.22.87-3.38.08-19.46.31-26.62.32-14.29 0-193.86.86-211.38 1-1.69 0-15-.22-19.67-.93-3.15-.48-6-.43-7.38-3.86-.82-2.1-.66-4.9-.71-7.13-.91-43.67-.11-194.48.11-196.78v-.05c1.8-8.79 18.17-6 24.94-6 .91 0 158 .15 206.9.16 9.12 0 33.78.28 39.45.7 2.25.16 3.93.1 5.7 1.56 3.33 2.73 2.45 7.48 2.35 11.32 0 .83.1 122.78.14 173.81.02 6.86 1.65 21.91-4.61 25.01z" fill="#1e1e1e"/><path d="M296.5 79.26c.21-4.36-5.27.18-5.4 3-.31 6.49 1.29 38.35-1 40.26-3.42 3-64.33 2.32-79.14.94-2.9-.27-5.89 6.55-2.58 6.86 14 1.3 44.51.38 58.72.31 7.42 0 19.52 1.74 25.27-3 8.4-5.93 3.74-40.15 4.13-48.37z" opacity=".2"/><path d="M291.32 117.87c-.19 2.55-.75 4.57-2.87 5.87-.53.32-76.9.15-80.51 0-1.55-.07-6.06 0-7-3.24-1-1.26-.41-44.49.5-46 1.67-2.7 5.75-3.09 8.84-3.2 3.68-.12 69.7-2 77.86.3 2.4 2 3.69 7.63 3.78 10.82s-.41 32.9-.6 35.45z" fill="#f78100" opacity=".85"/><path d="M286.75 71.87c-3.86-1.58-77.61-.28-79.68.57-4.12 1.69-4.78 5.79-5.15 9.77a356 356 0 0 0-1.49 39.32c.07 4.42 5.46-.14 5.41-3-.18-10.87.7-38.74 1.77-39.91s56.74-.56 59.7-.59c4.78-.06 11.18-1.51 15.69.34 2.91 1.19 6.48-5.37 3.75-6.5z" fill="#fff" opacity=".2"/><path d="M292 110.05c.14-6.06.47-12.13.49-18.19 0-3.72-.07-16.15-1.07-18.23-1.52-3.19-5.78-3.19-8.87-3.51-10.59-1.1-16.79-.43-49.24-.36-3.8 0-19.2.18-23.06.42-3.44.22-8.34.27-9.74 3.93-2 5.24-1.21 12.45-1.25 17.94 0 4-.32 21.71.2 26.58.42 3.92 1.39 5.47 5.45 6 10.64 1.32 74.26.18 78.27 0 1.79-.09 4.86.37 6.43-.56 4-2.38 2.41-10.28 2.42-13.84a.7.7 0 0 0-.03-.18zm-4.33 12.41c-2.32.9-6.53.34-9 .38-2.73 0-5.47 0-8.21-.06-3.19 0-23.89.6-50.2.38-1.31 0-2.61-.06-3.93-.12-3.39-.16-6.81-.17-10.19-.48-4.53-.42-4.61-3.22-4.71-7.25-.21-7.71.22-28.3.32-30.82.12-3.09-.73-9.4 2.5-11.06 4.44-2.28 12.24-1.29 17.09-1.36 2.63 0-7.56-.13 22.41-.22 7.71 0 10.48-.35 18.19-.12 4.13.13 8.23.08 12.37 0s12.05-.9 14.81 2.43c2.06 2.48 1.73 15.49 1.74 18.14 0 3.24-.24 15.09-.3 17.77a.7.7 0 0 0 0 .14c-.16 3.49 1.32 10.61-2.9 12.25z" fill="#f78100"/><path d="M377 104.83c.12-9-.89-17.88-.53-27 .18-4.36-5.29.18-5.4 3-.32 7.73 2.07 39.16-2 41-2.81 1.26-35.71.86-59.16.9-2.92 0-5.79 6.86-2.58 6.86 24.6 0 28.5.88 53.08-.37 5.25-.27 10.54-.27 13.73-5.1 3.53-5.31 2.79-13.25 2.86-19.29z" opacity=".2"/><path d="M302.94 72.48c3-2.46 63.89-3.14 66.95-.12 2.25 3.7 1.93 47 1 48.52-3.34 4.46-60.88 3.19-67.56.89-3.33-1.93-3.33-46.84-.39-49.29z" fill="#f78100" opacity=".85"/><path d="M369.67 73.17c-9.72-4.34-63.1-2.08-65.81.57-5 4.87-3.88 37-.94 45.26 1.54 4.34 7.38-2.17 6.25-5.37-2.63-7.43-2.49-15.07-2.22-22.84.07-2.24-.29-10-.14-11.22.23.16 21.16-1.14 29.78-1.1 9.39 0 19.92-1.37 28.58 2.49 3.43 1.53 7.77-6.33 4.5-7.79z" fill="#fff" opacity=".2"/><path d="M372.42 80.81c-.23-3.53.23-9-3.87-10-4.95-1.26-10.79-.78-15.87-.85-7.3-.11-14.12 0-21.42 0h-8.87c-4.89 0-9.79.41-14.66.87-1.32.13-3.58 0-4.79.67-2.53 1.48-2 4.92-2.05 7.35a.5.5 0 0 0 0 .13c-.68 9.85-.44 19.8-.77 29.66-.13 3.58-.83 12.34 2.88 14.44 1.82 1 5 .87 7 1a75.67 75.67 0 0 0 8.91.16c17.45-.91 14 .52 31.46-.11 5.7-.2 11.41-.1 17.1-.37 5-.24 5.09-3.72 5.13-8.1.14-11.59.6-23.29-.18-34.85zm-1.69 23.82c-.13 3.42-.34 6.83-.37 10.25 0 3.18.56 6.05-3.33 6.61-5.19.75-25.42 0-40.54.09-4.72 0-9.39.59-14.12.39-2.31-.1-7.36.37-8.85-1.41-2.21-2.63-1.52-9.66-1.45-12.88.19-9.55-.23-19.16.27-28.71a.7.7 0 0 0 0-.14c.11-1.56.13-5 1.58-5.75a8.32 8.32 0 0 1 2.43-.27c2.77-.26 13.83-.88 16.58-.88 7.58 0 31 .12 33 .17 2.68.07 5.35.12 8 .29 3.26.21 5.07-.14 5.73 3.26 1.08 5.52.37 11.13.66 16.7.27 4.11.57 8.18.41 12.28z" fill="#f78100"/><path d="M377.21 138.94c0-4.41-5.44.14-5.4 3 .3 23.34.4 74.35 0 76.37-.41 2.37-6.46 5.82-5.77 5.78-2.67.39-44.58-.24-54-.2-2.92 0-5.78 6.88-2.58 6.86 22.39-.1 51.77.05 54.35-.33a15.92 15.92 0 0 0 13.35-14.19c1.19-13.35.21-65.01.05-77.29z" opacity=".2"/><path d="M302.55 133c1.85-1.09 64.51-3.59 68.27 1.68 2.17 2.47 1.59 84.84 0 87.66-2.41 3.85-62.36 2.17-65.85 1.21-1.27-.35-2.2-2.11-3.22-3-2.37-2.03-2.23-86.36.8-87.55z" fill="#f78100" opacity=".85"/><path d="M368.93 133.94c-15.52-.22-55.82-2.11-62.16-.22-2.77.82-5.4 3.9-4.47 6.79a13.51 13.51 0 0 0-1.45 3.05c-.9 2.8 0 68.63 1.55 75.52.79 3.62 5.8-1.75 5.2-4.48-2.65-12.16-1.63-52-1.72-58.87-.07-4.59-.75-13.64 3.43-15.26s32.72 0 38.47 0c13.17.1 5.4.15 18.57.33 2.92.04 5.8-6.8 2.58-6.86z" fill="#fff" opacity=".2"/><path d="M373 180.49c-.14-11.42-.51-22.86-.24-34.29.08-3.28 1.09-8.28-.4-11.31-1.2-2.45-4.67-3.14-7.16-3.5-5.43-.78-11.3-.14-16.84-.14-14.34 0-33.45 0-39.13.23-2 .08-6.32-.62-7.78 1.13-1.73 2.08-1.24 10.77-1.23 10.82-.65 10.85-1.35 55.64-1 67.11.1 3.52.12 7.78 1.75 11 1.38 2.76 3.57 2.84 6.38 3.16 5.07.58 43.14.87 47.49.71 4.16-.16 10.56.87 14.48-1 3.18-1.55 3.82-5.43 4.05-8.64.78-11.55-.24-23.7-.37-35.28zm-1.88 33.92c-.13 3.41-.49 7.37-4.55 8.33-2.56.61-55 .16-58.15-.16-2.68-.27-4.68 0-5.82-3-.92-2.42-.57-5.56-.65-8.1-.34-11.62-1-57.08-.32-68.09a.33.33 0 0 0 0-.13c.26-2.53-.06-8.28 1.9-9.62 1.8-1.22 7.67-.33 10-.4 4.23-.13 35.35 0 39 .08 3.23 0 6.48-.15 9.71 0 2.43.1 6.89.23 8.26 2.89.92 1.79.23 6.09.18 8-.21 9.79.57 66.22.42 70.2z" fill="#f78100"/><path d="M478.34 78.22c-.24-4.43-5.56.12-5.41 3 .35 6.32-.16 26.13-.19 29.78 0 2.84.24 9.76-2.58 11-1.72.74-62 .49-75.45.66-2.92 0-5.76 6.9-2.57 6.86 26.84-.34 43.29 1 67.67-.83 4.84-.37 10.44-.14 14.32-3.62 5.76-5.21 4.72-37.49 4.21-46.85z" opacity=".2"/><path d="M383.7 71.91c3.94-1.56 86.82-2.57 88 .3 1 1.26 1.94 46.42 1 47.9-1.67 2.7-6.25 2.09-9.34 2.19-3.68.13-77.21 2-79.93-.29-2.37-2.01-3.52-47.01.27-50.1z" fill="#f78100" opacity=".85"/><path d="M466.76 71.7c-13.25-.37-26.61 1.88-49.39 1.55-3.37 0-20.45-2.23-24.83-.78a2 2 0 0 0-.35-.11c-8.26-1.86-8.18 12.79-8.57 17.39-.79 9.37-2.78 21.72 1.36 30.52 1.3 2.77 5.9-3 4.65-5.66-2.47-5.25-1.45-13.31-1.2-19 .13-3 1.12-14.46 1.14-14.69a6.57 6.57 0 0 0 3.24-2.72c3.35-.38 3.86 2.39 10.85 1.73 20.5-1.94 46.81-1.8 60.52-1.42 2.92.13 5.82-6.72 2.58-6.81z" fill="#fff" opacity=".2"/><path d="M472.94 72.28c-1.4-2.67-5.28-2.47-7.9-2.54-16.07-.39-32 0-48.58 0H400c-3.63.09-7.28.43-10.9.72-1.6.13-4 0-5.46.74-4.55 2.46-2.59 11.76-2.6 15.58v.15c-.21 8.26-.44 16.42-.22 24.68.07 2.91-.68 9.38 2.38 11.18s9.82 1 13.37 1h48.59c2.9 0 5.81 0 8.71-.07 5-.13 11.06.74 16-.33 3.73-.82 3.86-4.82 4-8.06.43-9-.15-17.85-.1-26.85.05-4.55 1.4-11.95-.83-16.2zm-1.3 43.1c-.18 3.22-.16 5.48-3.81 5.85-2.69.27-5.52.1-8.23.15-3.82.07-7.64.17-11.46.18-30.19 0-51.85.66-59.72.18-2.92-.18-4.67.16-5.42-3.06-.79-3.4-.51-7.29-.64-10.76-.14-4-.15-7.93-.07-11.93.06-3 .11-6 .19-9v-.16c.14-3.7-1-9.52 1.31-12.69 1.59-2.19 5.06-1.72 7.73-1.89 3.63-.22 7.25-.49 10.89-.5h9.35c14.23 0 17.39 0 47.91.09 2.52 0 8.18-.65 10.24.58 3.59 2.16 1.57 14.12 1.62 17.72.05 3.41.3 6.84.45 10.25.26 4.99-.08 10.02-.34 14.99z" fill="#f78100"/><path d="M477.55 138.37c-.16-4.42-5.51.13-5.41 3 .41 11.49.41 77.81.1 78.57-1.51 3.7-7.14 3.51-10.36 3.73-15.9 1-50.91.87-67.61.57-2.92-.05-5.81 6.8-2.58 6.86 35.47.63 62.67.13 71.89-.94 17.88-.69 14.28-13.65 14.48-18.32.39-9.54.02-58.53-.51-73.47z" opacity=".2"/><path d="M382.93 132.47c2.93-1.28 87.34-1.78 89 .33 1 1.26 1.39 87.63.48 89.11-1.67 2.7-16.65 2.36-20.33 2.48 0 0-67.29.18-68.31-.68-.27-.22-2.25-4-2.25-4s-.47-86.09 1.41-87.24z" fill="#f78100" opacity=".85"/><path d="M467.45 133.27c-14.26-1-46.41 1.14-61.21.69-5.26-.16-12.16-2.38-17.26-.55-3.66 1.3-4.72 4.77-5.24 8.24-2 13.3-1.67 70.1-.63 77.68.6 4.42 5.8-.11 5.4-3-2.07-15.24-.13-75.9.49-77.46 0 1 1.15 1.23 34.48.89 15.42-.15 26-.65 41.39.37 2.91.19 5.86-6.64 2.58-6.86z" fill="#fff" opacity=".2"/><path d="M474.09 201.91c0-2.58-.06-5.18-.1-7.76q-.21-16.67-.41-33.32c-.1-8.58 1-17.74-.13-26.21-.7-5.37-5-3.88-9.57-4-3.63-.09-7.27-.24-10.9-.28-14.8-.14-39.79.49-47 .52h-11.83c-3 .06-7.76-.42-10.66.58-4.55 1.57-2.65 12.51-2.67 16a.76.76 0 0 0 0 .16c-.13 17.25-.4 34.5-.6 51.75 0 4.05.1 8.09.18 12.14s-1.34 11.38 3.57 13.08c4.72 1.64 11 1.2 15.9 1.07 3.84-.09 4 0 40.82-.07h10.75c3.19 0 6.38.05 9.57 0s10 .46 12-2.88c1.37-2.36.6-6.42.69-9 .15-3.97.37-7.88.39-11.78zm-2.24 0c0 3.13-.21 6.28-.31 9.42-.09 2.62.87 9.29-1.35 10.86-2 1.4-6.22 1-8.56 1.06-2.8.08-5.59 0-8.38 0h-10.36c-37.15.06-33.78 0-38.1.06a154.68 154.68 0 0 1-16.54-.25c-1.08-.1-3 0-4-.57-2.21-1.32-1.8-5.12-1.81-7.26 0-4.26-.27-8.52-.33-12.78-.26-16.45.1-32.92.15-49.36v-5.53a.49.49 0 0 0 0-.14c.09-2.55-.13-5.12.08-7.67.07-1 .2-5.1 1-6 1.58-1.76 8.64-1 10.8-1 3 0 6 .05 8.95.06h15.87c20.11-.05 9.78-.28 27.66-.34 4 0 8 0 12.05.15 3.34.09 6.71 0 10 .26 2 .14 2-.24 2.58 1.74.44 1.44.2 3.47.2 5 0 4.21-.21 8.41-.19 12.62.15 16.52.74 33.08.59 49.64z" fill="#f78100"/><path d="M296 138.51c0-4.41-5.44.14-5.4 3 .15 11.46.35 64.81.29 67.76-.08 3.75 1.15 10.11-2.29 12.38-4.81 3.17-58.76 2.46-75.91 2-2.92-.07-5.82 6.78-2.58 6.86 35.54.92 71.67-.3 77.27-2.07 11.83-3.75 8.73-13.49 8.92-22.19.19-7.75-.07-52.92-.3-67.74z" opacity=".2"/><path d="M199.69 140.8c.19-2.55 4.34-7.86 6.94-8.06 1.27-.36 81-1.87 83.37 1.59 2.35 6.91 1.46 82.39.54 83.86-1.66 2.7-4.28 5.1-7.37 5.21-3.68.13-74.43 1-75.45.17-5.34-1.59-7.5-8.1-7.6-11.3s-.63-68.91-.43-71.47z" fill="#f78100" opacity=".85"/><path d="M286.77 133.94c-30.25-1.27-51-.89-71.26-.43-4.67.11-15.87-2.65-15.07 12-.35 7.25-1.3 55.31.53 71.75.5 4.43 5.73-.11 5.41-3-1.49-13.42-.54-73.74-.47-74.35.45.46 3.21.54 3.05.51 2.47.38 2-1.21 36.78-.64 14.48.24 24 .37 38.45 1 2.91.14 5.81-6.7 2.58-6.84z" fill="#fff" opacity=".2"/><path d="M292.1 188.45v-41.71c0-3.41.86-9.15-1-12.32-2.33-4-12.5-2.61-16.09-2.77-1.61-.07-43.89.36-50.45.4s-14.57-1.56-20.6 1c-6.36 2.73-5 10-5 15.55a.76.76 0 0 0 0 .16c0 16.06-.16 52.19-.14 54.19.06 5.42-1.34 15.16 3.5 19.15 6 4.95 15.75 2.43 22.7 2.68 2.11.07 4.13.45 6.23.47 35.06.33 34.14-.15 38.81-.22s9.85.12 14.57-.64c7.42-1.19 7.46-6.76 7.68-13.07.33-7.65-.22-15.2-.21-22.87zm-1.93 21.25c-.06 1.81 0 3.75-.2 5.55-.6 4.39-2.59 6.66-6.94 7.07-4.08.4-8.3.39-12.4.46-3.09.05-6.18 0-9.26 0-34.32.06-38.35-.21-41.78.05-5.15.4-13 .89-16.42-3.48s-2.33-12-2.4-17.35c-.23-16.2-.2-32.4-.31-48.6v-4.66a.5.5 0 0 0 0-.13c.2-5.54-.94-12.82 6.1-14.25 4.43-.9 5.89-.55 11-.55 18.49 0 28.52-.11 45.28-.17 3.13 0 15.65.26 18.77.41 4.43.2 7.7-.41 8.18 4.88.3 3.26.18 6.55.17 9.83-.07 15.83-.83 31.85-.15 47.67.24 4.51.52 8.72.36 13.27z" fill="#f78100"/><path d="M296.64 239.6c-.57-4.42-5.78.12-5.41 3 .29 2.19.31 26.49-.64 31.28a20.79 20.79 0 0 1-4.76 3.17c-3.83 1.58-62 1.17-71.61 1-2.92-.05-5.82 6.81-2.58 6.86 28.35.51 60.93-.76 68.38-1.44 3.51-.32 8.13-.19 11-2.59a16.57 16.57 0 0 0 4.53-6.9c1.35-4.78 1.45-31.98 1.09-34.38z" opacity=".2"/><path d="M200 240.5c.19-2.55 3.13-6.5 5.26-7.8 2.62-.55 75.14.27 78.75.45 1.55.07 5.91 3.68 6.91 4.93s.54 34.57-.37 36c-1.67 2.7-5.25 3.09-8.34 3.19-3.68.13-72.44 1.32-75.92.36-1.27-.35-6.25-7.28-6.35-10.48s-.15-24.1.06-26.65z" fill="#f78100" opacity=".85"/><path d="M287.17 233.28c-12.39-.75-61.6 1-73.32-.27-3.63-.39-7.29-1.67-10 1.35s-3.41 7.63-3.14 11.52c0 .55-.22 17.49.22 25.64.24 4.43 5.56-.12 5.41-3-.53-9.8-1-19.57.89-29.24.78.09 6.68.87 9 1.06 5.22.44 22.37 1.16 28.2 1.2 12 .1-11.63.1 2.24 0 12.68-.1 25.31-2.16 38-1.39 2.83.17 5.77-6.67 2.5-6.87z" fill="#fff" opacity=".2"/><path d="M292.64 255.59c-.07-4.94.31-9.91-.27-14.82-.42-3.53-.73-6.12-4.2-7.52-4.68-1.87-4.78-1.67-29.59-1.66h-37c-5.77 0-14-1.74-19 1.66-4.69 3.19-3.45 10.11-3.56 14.89a.53.53 0 0 0 0 .19v9.69c0 4.44-.84 9.62.84 13.83 3 7.54 11.31 7.53 18.11 7.45 10.31-.11 50.08-.43 52.9-.48 7.56-.14 20.72 1.88 21.71-8.48.55-4.82.13-9.86.06-14.75zm-2.17 13.46c-.86 6.79-4.59 7-10.12 7.2-3.08.12-13.34.33-15.4.35-6 0-29 .63-42.41.79-4.62.06-10.36.91-14.61-.54-8.34-2.86-7.18-11.31-7.3-18.48-.06-3.36-.12-6.72-.15-10.08a.42.42 0 0 0 0-.12c.23-3.81-.74-9.91 2.43-12.81 2.73-2.49 8.16-1.83 11.55-1.83 2.2 0 4.4.05 6.6.06 3.09 0 30 .12 42.81.06 20.42-.1 19.43.28 21.89 1.12 4.22 1.43 4.28 4 4.58 7.92.36 4.57 0 9.22 0 13.82.11 4.1.66 8.49.13 12.54z" fill="#f78100"/><path d="M377.56 265.53c-.13-8.77-.45-17.5-.18-26.28.13-4.37-5.32.17-5.41 3-.23 7.39-.15 31.31-.87 33.66-1.85 3.68-55.23 1.45-61.35 1.38-2.93 0-5.81 6.82-2.58 6.86 16.61.2 45.61.78 53.93.18 12 .26 14-6.26 14.58-7.33 1.83-3.69 1.94-7.39 1.88-11.47z" opacity=".2"/><path d="M371.78 270.07c-.2 2.56.35 5.26-1.77 6.56-2.14 2.18-65.22 2.72-67.42-.59-1-1.26-2.12-35.89 0-39.21 1.66-2.7 5.25-3.08 8.33-3.19 3.68-.13 56.32-.67 58.16.8 4.3 3.65 2.92 33.08 2.7 35.63z" fill="#f78100" opacity=".85"/><path d="M366.2 234.54c-6.84-.48-40.9 0-48 .15-5.67.15-12.39-.35-14.52 6.23-.19.6-2.36 6.92-2.39 8.69-.14 8.28 1.58 17 2.4 25.21.44 4.43 5.69-.11 5.41-3-.45-4.49-1.57-20-2-22.9h.08a42 42 0 0 1 7-3.62 8.72 8.72 0 0 0 3.26-3.81c2.17 0 25.94-.94 28-1.06 6.26-.37 12 .58 18.22 1 2.87.18 5.83-6.66 2.54-6.89z" fill="#fff" opacity=".2"/><path d="M372.48 262.4v-.13c.19-4 .47-7.88.38-11.86s1.39-13.68-2.6-16.65c-2.73-2-8.6-1.58-11.77-1.72s-6.56.31-9.86.34c-15.64.12-10.36-.4-26-.27-5.25 0-10.85-.16-16.05.49-6.18.77-6.07 6.18-6.27 11.27-.22 5.61 0 10.87.21 16.43.18 4.65-1.44 10.73.23 15.18 1.46 3.88 7.81 3 11.15 3.14 3.64.16 7.28.37 10.93.37H327c8.18 0 15.87-.05 24 0 6 0 12 .3 17.91-1 6.46-1.42 3.61-10.77 3.57-15.59zm-1.58 10.22c-.56 4.12-4.33 4-8 4.27-4.07.31-8.19.09-12.27.06-5.92 0-24.18.23-37.82-.42-2.38-.11-7.84.46-9.48-1.35s-.84-6.3-.79-8.66c.1-3.79 0-7.38-.24-11.16-.33-5.43-1.64-18.89 5.23-20.55 2.93-.7 6.8-.15 9.82-.25 1.68-.06 3.35-.14 5-.16 13.84-.13 6.77.16 20.61.2 6.74 0 13.45-.73 20.17-.23 3.74.28 6.31.14 7.44 4.39.95 3.55.48 8 .63 11.65.15 4 0 7.87-.18 11.83v.16c-.19 3.33.32 6.93-.12 10.22z" fill="#f78100"/><path d="M478.69 239.93c0-4.41-5.43.14-5.4 3 .07 9.64.14 19.32-.28 29 0 .19-3.21 4.31-4.12 4.5-3.07.64-65.69.85-79 .8-2.92 0-5.79 6.85-2.58 6.86 29.2.1 20.9.55 50.1.5 13.28 0-17.3-.55-4-.76 12.32-.2 20.31 1.27 32.54-.36 5.51-.74 11.21-3.2 12.1-9.15 1.67-11.19.73-23.15.64-34.39z" opacity=".2"/><path d="M383.54 234.51c7.93-3.33 81-2.42 88.43.59 2.31 4.19.93 39.1 0 40.58-1.27 2-83.1 4.81-88.5-.6-4.21-3.29-3.42-37.65.07-40.57z" fill="#f78100" opacity=".85"/><path d="M469.18 236.39a22.92 22.92 0 0 0-11.57-1.65c-.63.06-13.34.69-19.59 1-4.37.23-15.11-1.6-39.9-1.27-4.81.06-9.66-.12-12.9 4.26-5 6.76-2.56 28-1.62 35 .61 4.42 5.8-.12 5.41-3-.73-5.35-1-21.56-.72-24.27.1-1.05-.13-3.18.46-4.05s.58-.62 1.92-.9c2.8-.59 22.66 1.57 30.71 1.37s19.61-.9 25.85-.59 12.49 1 18.78.8c2.14-.09 6.14-5.47 3.17-6.7z" fill="#fff" opacity=".2"/><path d="M474.62 256.34c-.13-2.31-.57-4.45-.53-6.8.07-3.84 1.19-10.83-1.06-14.25s-9.73-2.75-13.16-2.9c-2.23-.1-4.46-.23-6.69-.25h-6.62c-16.13 0-34.31.24-45.14.08-5.69-.08-13-.78-18.2 1.88a3.27 3.27 0 0 0-.89.63c-1.64 1.71-1.65 5.15-1.85 7.3-.41 4.35-.42 19.42-.33 22.58.09 3-.27 8.49 2 10.92 2.15 2.27 7.13 2.45 10.13 2.68 5 .39 51.19.33 60.31.17 3.68-.06 7.36-.38 11-.39 2.24 0 5 .64 7.07-.35 3.87-1.8 3.31-7.13 3.45-10.7s.72-7.12.51-10.6zm-2.31 2.66c-.13 2.91-.36 11.36-.64 12.54-.69 2.92-3 4.33-6 4.23-10-.35-15.33.37-25.38.42-31.34.17-44.28.39-48.92 0a20.57 20.57 0 0 1-5.11-.88c-3.84-1.36-3.94-4.18-4.23-7.79a191.83 191.83 0 0 1-.33-20.49c.08-2.84-.54-9.2 1.7-11.41 3.36-1.55 7.83-1.05 11.44-1.29 2.22-.14 8.14-.23 8.89-.23 4.09 0 23.2-.19 49.53.14 1.89 0 12.45 0 15.35 1 3.82 1.35 3.3 5.4 3.35 8.83.09 4.93.58 10.08.35 14.93z" fill="#f78100"/><path d="M6 291.78c-.29-1-1.14-1.74-1.4-2.85a36.26 36.26 0 0 0-1.09-4.49c-.22-.6-1.21-.75-1.36 0a9.62 9.62 0 0 0 .63 5.79c.47 1.15 1.25 2.71 2.71 2.46a.74.74 0 0 0 .51-.91zM20.17 293.68c-1.35-.72-3.23-.6-4.73-.8a23 23 0 0 0-4.9-.21c-.62 0-1.06 1-.35 1.31a13.45 13.45 0 0 0 4.64 1.09c1.57.11 3.68.55 5.16 0a.76.76 0 0 0 .18-1.36zM470.55 292.88c-1.15-1-3.65-.53-5-.57a21.24 21.24 0 0 0-5.74.42.72.72 0 0 0 0 1.37 21.64 21.64 0 0 0 5.74.4c1.4-.05 3.88.39 5-.58a.75.75 0 0 0 0-1zM485.68 283.71c-.57.81-.46 2.13-.61 3.08a5 5 0 0 1-1.49 3.3c-1.9 1.67-4.62 1.89-7 2.3-.86.15-.54 1.31.18 1.39 3.22.38 6.19.16 8.56-2.29a6.42 6.42 0 0 0 1.67-3.65c.21-1.23.6-3 0-4.13a.74.74 0 0 0-1.28 0zM485.81 74.34c-.48 1.23-.19 6.74.18 7.94a.72.72 0 0 0 1.37 0c.36-1.2.65-6.71.17-7.94a.9.9 0 0 0-1.72 0zM482.13 58.53c1.39 1.51 2.63 2.23 3.21 4.38.45 1.69.52 3.54.81 5.28.11.7 1.21.65 1.36 0 .85-3.7 0-10.45-4.85-10.93-.68-.07-.92.83-.53 1.27zM465.1 57.68c1.44.83 9.76.78 12 .43.71-.11.65-1.21 0-1.37-2.23-.54-10.53-1.1-12-.34a.74.74 0 0 0 0 1.28zM163 57.17c1.38 1.12 10.93.58 13.28.16a.72.72 0 0 0 0-1.37c-2.35-.42-11.9-1-13.28.16a.74.74 0 0 0 0 1.05zM142.22 57.17c1.12 1.09 10 .58 12.12.16a.72.72 0 0 0 0-1.37c-2.14-.43-11-.94-12.12.16a.76.76 0 0 0 0 1.05zM120.94 57.28c1.63 1.09 12.31.45 14.88 0a.72.72 0 0 0 0-1.37c-2.57-.4-13.25-1.05-14.88 0a.75.75 0 0 0 0 1.28zM101 57.17c1.21 1.1 10.33.58 12.54.15a.71.71 0 0 0 0-1.36c-2.21-.43-11.32-1-12.54.16a.76.76 0 0 0 0 1.05zM84.3 57c.88 1.18 8.78.76 10.71.31A.71.71 0 0 0 95 56c-1.93-.45-9.83-.87-10.71.31a.7.7 0 0 0 0 .74zM67.12 57.15c.73.87 9.09.59 11 .16a.72.72 0 0 0 0-1.37c-2-.43-10.31-.71-11 .16a.78.78 0 0 0 0 1zM49.91 57.16c.72.87 9.05.59 11 .16a.71.71 0 0 0 0-1.36c-1.93-.43-10.26-.71-11 .16a.75.75 0 0 0 0 1zM32.94 57.12c.73.87 9.14.59 11.09.16a.72.72 0 0 0 0-1.37c-2-.43-10.35-.72-11.09.16a.76.76 0 0 0 0 1zM14.31 57.43c2.45.53 11.48.2 13.42-.11a.71.71 0 0 0 0-1.36c-1.95-.37-11-.64-13.42 0a.75.75 0 0 0 0 1.43zM331.8 57.17c1.38 1.12 4.66.53 6.31.57a33.15 33.15 0 0 0 7-.41.72.72 0 0 0 0-1.37 33.15 33.15 0 0 0-7-.41c-1.66 0-4.93-.55-6.31.57a.74.74 0 0 0 0 1.05zM310 57.17c1.34 1.11 10.81.58 13.13.16a.72.72 0 0 0 0-1.37c-2.32-.42-11.78-1-13.13.16a.74.74 0 0 0 0 1.05zM288.08 57.17c1.21 1.1 10.32.58 12.53.16a.72.72 0 0 0 0-1.37c-2.21-.42-11.32-1-12.53.16a.74.74 0 0 0 0 1.05zM269.79 57.16c.73.87 9.1.59 11 .16a.71.71 0 0 0 0-1.36c-1.94-.43-10.3-.71-11 .16a.77.77 0 0 0 0 1zM253.09 57c.88 1.18 8.78.76 10.71.31a.71.71 0 0 0 0-1.36c-1.93-.45-9.83-.87-10.71.31a.7.7 0 0 0 0 .74zM235.92 57.16c.73.87 9.1.59 11 .16A.71.71 0 0 0 247 56c-2-.43-10.31-.71-11 .16a.76.76 0 0 0 0 1zM443 57.17c1.35 1.11 10.81.58 13.13.16a.72.72 0 0 0 0-1.37c-2.32-.42-11.78-1-13.13.16a.75.75 0 0 0 0 1.05zM421.18 57.17c1.22 1.1 10.32.58 12.54.16a.72.72 0 0 0 0-1.37c-2.22-.42-11.32-1-12.54.16a.76.76 0 0 0 0 1.05zM402 57.17c1.21 1.1 10.32.58 12.54.15a.71.71 0 0 0 0-1.36c-2.22-.43-11.32-1-12.54.16a.74.74 0 0 0 0 1.05zM379.91 57.28c1.34 1 11.54.45 13.94 0a.71.71 0 0 0 0-1.36c-2.4-.41-12.6-1-13.94 0a.76.76 0 0 0 0 1.28zM354.1 57.28c2 1.14 6 .42 8.21.47a54.52 54.52 0 0 0 8.67-.43A.71.71 0 0 0 371 56a54.46 54.46 0 0 0-8.67-.43c-2.24 0-6.18-.67-8.21.47a.75.75 0 0 0 0 1.28zM218.7 57.16c.73.87 9.05.58 11 .16a.71.71 0 0 0 0-1.36c-1.94-.42-10.26-.71-11 .16a.75.75 0 0 0 0 1zM201.75 57.16c.74.88 9.14.59 11.09.16a.71.71 0 0 0 0-1.36c-2-.44-10.35-.72-11.09.15a.78.78 0 0 0 0 1zM183.11 57.43c2.44.53 11.47.2 13.41-.11a.71.71 0 0 0 0-1.36c-2-.37-11-.64-13.41 0a.75.75 0 0 0 0 1.43zM328.43 293.66c-1.37-1.12-4.65-.53-6.31-.57a33.06 33.06 0 0 0-7 .41.72.72 0 0 0 0 1.37 33.06 33.06 0 0 0 7 .41c1.67 0 4.93.55 6.31-.57a.74.74 0 0 0 0-1zM349.22 293.66c-1.11-1.09-10-.58-12.12-.16a.72.72 0 0 0 0 1.37c2.14.43 11 .93 12.12-.16a.74.74 0 0 0 0-1zM370.51 293.55c-1.64-1.09-12.32-.45-14.88-.05a.72.72 0 0 0 0 1.37c2.56.4 13.24 1.05 14.88 0a.76.76 0 0 0 0-1.28zM390.44 293.66c-1.21-1.1-10.32-.58-12.53-.15a.71.71 0 0 0 0 1.36c2.21.43 11.32.95 12.53-.16a.74.74 0 0 0 0-1zM407.14 293.82c-.87-1.18-8.78-.76-10.7-.31a.71.71 0 0 0 0 1.36c1.92.45 9.83.87 10.7-.31a.7.7 0 0 0 0-.74zM424.32 293.67c-.74-.87-9.1-.59-11-.16a.71.71 0 0 0 0 1.36c1.94.43 10.3.71 11-.16a.77.77 0 0 0 0-1zM440.15 293.82l.06.13a.88.88 0 0 0-.62-.62c-1.46-.49-3.46-.23-5-.28a13.84 13.84 0 0 0-4.06.46.71.71 0 0 0 0 1.36 13.51 13.51 0 0 0 4.06.46c1.52-.05 3.52.21 5-.28a.88.88 0 0 0 .62-.62c0 .37 0-.45-.06-.61zM454.67 293.5a.91.91 0 0 0-.62-.63c-1.39-.48-7.34-.19-8.66.18a.71.71 0 0 0 0 1.36c1.32.37 7.27.67 8.66.18a.88.88 0 0 0 .62-.62 1.24 1.24 0 0 0 0-.43zM159.64 293.66c-1.37-1.12-4.65-.53-6.31-.57a33.06 33.06 0 0 0-7 .41.72.72 0 0 0 0 1.37 33.06 33.06 0 0 0 7 .41c1.67 0 4.93.55 6.31-.57a.74.74 0 0 0 0-1zM181.43 293.66c-1.34-1.11-10.8-.58-13.12-.16a.72.72 0 0 0 0 1.37c2.32.42 11.78 1 13.12-.16a.74.74 0 0 0 0-1zM203.37 293.66c-1.21-1.1-10.32-.58-12.53-.16a.72.72 0 0 0 0 1.37c2.21.42 11.31.95 12.53-.16a.76.76 0 0 0 0-1zM221.65 293.67c-.73-.87-9.09-.59-11-.16a.71.71 0 0 0 0 1.36c1.95.43 10.31.71 11-.16a.75.75 0 0 0 0-1zM238.35 293.82c-.87-1.18-8.78-.76-10.7-.31a.71.71 0 0 0 0 1.36c1.92.45 9.82.87 10.7-.31a.7.7 0 0 0 0-.74zM255.53 293.67c-.74-.87-9.1-.59-11-.16a.71.71 0 0 0 0 1.36c1.94.43 10.3.71 11-.16a.77.77 0 0 0 0-1zM53.1 293.66c-.66-.85-3.82-.52-5.14-.57a21 21 0 0 0-5.6.41.72.72 0 0 0 0 1.37 21 21 0 0 0 5.6.41c1.32 0 4.47.29 5.14-.57a.77.77 0 0 0 0-1zM35.22 293.33c-1.33-.49-3.24-.24-4.64-.28a12.06 12.06 0 0 0-3.78.45.72.72 0 0 0 0 1.37 12 12 0 0 0 3.78.45c1.4 0 3.31.21 4.64-.28a.9.9 0 0 0 0-1.71zM72 293.66c-1.21-1.1-10.32-.58-12.53-.16a.72.72 0 0 0 0 1.37c2.21.42 11.31.95 12.53-.16a.74.74 0 0 0 0-1zM89.5 293.66c-1.22-1.1-10.33-.58-12.54-.15a.71.71 0 0 0 0 1.36c2.21.43 11.32.95 12.54-.16a.76.76 0 0 0 0-1zM111.53 293.55c-1.34-1-11.53-.45-13.93 0a.71.71 0 0 0 0 1.36c2.4.41 12.59.95 13.93 0a.75.75 0 0 0 0-1.28zM137.34 293.55c-2-1.14-6-.42-8.21-.47a54.58 54.58 0 0 0-8.67.43.71.71 0 0 0 0 1.36 54.58 54.58 0 0 0 8.67.43c2.24-.05 6.18.67 8.21-.47a.75.75 0 0 0 0-1.28zM272.75 293.67c-.73-.87-9.06-.58-11-.16a.71.71 0 0 0 0 1.36c1.93.42 10.26.71 11-.16a.77.77 0 0 0 0-1zM289.69 293.67c-.73-.88-9.14-.59-11.09-.16a.71.71 0 0 0 0 1.36c2 .44 10.35.72 11.09-.15a.76.76 0 0 0 0-1.05zM308.34 293.4c-2.44-.53-5.15-.27-7.65-.3a33.8 33.8 0 0 0-5.77.41.71.71 0 0 0 0 1.36 28.67 28.67 0 0 0 5.77.51c2.5 0 5.24.13 7.65-.55a.75.75 0 0 0 0-1.43zM2.81 68.64c.51-1.78.1-3.61.42-5.39.53-2.94 3.14-4.46 5.73-5.4.71-.26.67-1.43-.18-1.39-3.17.15-5.94 1.45-7.16 4.56a13.55 13.55 0 0 0-.24 7.62.75.75 0 0 0 1.43 0zM487.54 101.33c.83-1.44.78-9.76.42-12-.11-.71-1.21-.65-1.36 0-.54 2.23-1.1 10.52-.34 12a.74.74 0 0 0 1.28 0zM487 234.63c1.12-1.38.52-4.66.57-6.31a33.15 33.15 0 0 0-.41-7 .72.72 0 0 0-1.37 0 33.84 33.84 0 0 0-.42 7c.05 1.66-.55 4.92.58 6.31a.75.75 0 0 0 1 0zM487 256.42c1.12-1.35.59-10.81.16-13.13a.71.71 0 0 0-1.36 0c-.42 2.32-1 11.78.16 13.13a.73.73 0 0 0 1 0zM487 278.35c1.11-1.21.59-10.32.16-12.53a.71.71 0 0 0-1.36 0c-.43 2.21-.95 11.32.16 12.53a.73.73 0 0 0 1 0zM487 123.48c1.12-1.35.59-10.81.16-13.13a.71.71 0 0 0-1.36 0c-.42 2.32-1 11.78.16 13.13a.75.75 0 0 0 1 0zM487 145.24c1.11-1.21.59-10.31.16-12.53a.71.71 0 0 0-1.36 0c-.43 2.22-.95 11.32.16 12.53a.73.73 0 0 0 1 0zM487 164.48c1.11-1.21.59-10.32.16-12.54a.71.71 0 0 0-1.36 0c-.43 2.22-.95 11.32.16 12.54a.73.73 0 0 0 1 0zM487.14 186.52c1-1.34.45-11.54 0-13.94a.71.71 0 0 0-1.36 0c-.41 2.4-.95 12.6 0 13.94a.76.76 0 0 0 1.28 0zM487.14 212.33c1.13-2 .42-6 .47-8.21a54.65 54.65 0 0 0-.43-8.68.71.71 0 0 0-1.36 0 53.49 53.49 0 0 0-.43 8.68c0 2.24-.67 6.18.47 8.21a.75.75 0 0 0 1.28 0zM1 74.34c-.47 1.23-.19 6.74.18 7.94a.72.72 0 0 0 1.37 0c.37-1.2.65-6.71.17-7.94a.9.9 0 0 0-1.72 0zM2.77 101.33c.83-1.44.78-9.76.43-12-.11-.71-1.21-.65-1.37 0-.54 2.23-1.1 10.52-.34 12a.74.74 0 0 0 1.28 0zM2.26 234.63c1.12-1.38.52-4.66.57-6.31a33.15 33.15 0 0 0-.41-7 .72.72 0 0 0-1.37 0 33.15 33.15 0 0 0-.41 7c0 1.66-.55 4.92.57 6.31a.75.75 0 0 0 1 0zM2.26 256.42c1.11-1.35.58-10.81.16-13.13a.72.72 0 0 0-1.37 0c-.42 2.32-1 11.78.16 13.13a.74.74 0 0 0 1 0zM2.26 278.35c1.1-1.21.58-10.32.16-12.53a.72.72 0 0 0-1.37 0c-.42 2.21-.95 11.32.16 12.53a.74.74 0 0 0 1 0zM2.26 123.48c1.11-1.35.58-10.81.16-13.13a.72.72 0 0 0-1.37 0c-.42 2.32-1 11.78.16 13.13a.76.76 0 0 0 1 0zM2.26 145.25c1.1-1.22.58-10.32.16-12.54a.72.72 0 0 0-1.37 0c-.43 2.22-.95 11.29.16 12.54a.76.76 0 0 0 1 0zM2.25 164.48c1.11-1.21.59-10.32.16-12.54a.71.71 0 0 0-1.36 0c-.43 2.22-.95 11.32.16 12.54a.74.74 0 0 0 1 0zM2.37 186.52c1-1.34.45-11.54 0-13.94a.71.71 0 0 0-1.36 0c-.41 2.4-.95 12.6 0 13.94a.76.76 0 0 0 1.28 0zM2.37 212.33c1.14-2 .42-6 .47-8.21a54.65 54.65 0 0 0-.43-8.68.71.71 0 0 0-1.36 0 54.65 54.65 0 0 0-.43 8.68c.05 2.24-.67 6.18.47 8.21a.75.75 0 0 0 1.28 0z" fill="#919191"/><path d="M344.55 24.76a.71.71 0 0 0-1.36 0c-.08.45-.14.9-.19 1.35a5.73 5.73 0 0 0-5.28-1.39c-2.35.68-3.28 2.84-3.56 5.11a6.14 6.14 0 0 0 3.17 6.23 5.68 5.68 0 0 0 5.48-.74 6.27 6.27 0 0 1-.26 1.78c-1.11 3.23-5 2.4-7.08 1.16a1 1 0 0 0-1.24 1.61c2.61 2.45 7.74 1.86 9.78-1.14 1.07-1.58.9-3.54.87-5.35a56.35 56.35 0 0 0-.33-8.62zm-6.33 9.51c-1.9-.76-2.6-3-2.31-4.86s1.14-3.26 3.09-3.41c1.62-.14 2.57.86 3.89 1.38-.11 1.82-.06 3.65-.11 5.46v.07c-1.28 1.09-2.86 2.03-4.56 1.36zM354.35 24.42l-.14-.1a1.24 1.24 0 0 0-1.25 0 15 15 0 0 0-2.65 1.78 2.75 2.75 0 0 0-.8-1.61.2.2 0 0 0-.29 0c-1.08 1.17-.69 2.86-.72 4.37 0 2.24-.09 4.5-.2 6.74-.07 1.29 1.94 1.29 2 0 .1-2.25.17-4.49.1-6.74v-.37a10.39 10.39 0 0 1 2-1.35c.75-.37 1.94-.43 2.3-1.27a1.1 1.1 0 0 0-.35-1.45zM358.05 24.77a.76.76 0 0 0-1 .27l-.06.12a.75.75 0 0 0 .12.86 36.58 36.58 0 0 1-.2 4.43c0 1.84-.05 3.67 0 5.5a1 1 0 0 0 1.9 0v-7.46c-.08-1.04.37-3.1-.76-3.72zM357.75 22.15h.07a.93.93 0 0 0 .55-1.31.88.88 0 0 0-.63-.75c-.92-.27-1.57.93-1.07 1.65a1 1 0 0 0 1.08.41zM372.71 20.09a.72.72 0 0 0-1.41-.2 26.58 26.58 0 0 0-.92 5.42 6.29 6.29 0 0 0-4.25-1.19 5.62 5.62 0 0 0-4.42 5.67c0 2.37 1.21 5 3.5 6a5.25 5.25 0 0 0 5.37-1c0 .42.08.84.13 1.25.12 1.14 1.9 1.19 1.83 0-.33-5.43.26-10.65.17-15.95zM370 32.55a3.25 3.25 0 0 1-4.54 1.34 4.89 4.89 0 0 1-1.89-4.58 3.57 3.57 0 0 1 3.8-3.46 7.34 7.34 0 0 1 2.95 1.39c0 1.65 0 3.3.1 4.92a.69.69 0 0 0-.42.39zM389.87 24.64a8.37 8.37 0 0 0-3.38 0 5 5 0 0 0-4.19 4.83c-.34 4.61 4.74 9.89 8.95 5.87.81-.77-.4-2-1.21-1.22-3.38 3.09-6.64-2.48-5.71-5.46.6-2 2.35-2.33 4.15-2.36 1.17 0 1.63.45 2.64.67a.45.45 0 0 0 .43-.74c-.66-.76-.55-1.32-1.68-1.59zM405 27.32c-.21-2.88-5.1-3-7.07-2.18-2.56 1.11-3.85 5.28-2.78 7.77 1.21 2.82 5.74 4.51 8.29 2.62a6.4 6.4 0 0 0 1.54-8.13.24.24 0 0 0 .02-.08zm-1.82 6.06c-1.79 2-6.13.67-6.35-2.11-.14-1.82.81-4.1 2.67-4.55a5.8 5.8 0 0 1 3.81.47.68.68 0 0 0 .08.65 4.61 4.61 0 0 1-.26 5.54zM417.2 25c-1.88-1.47-4.63-.29-6.31 1.33a9.59 9.59 0 0 0-.2-1.29c-.13-.57-.86-.45-1 0a15.33 15.33 0 0 0-.69 5.27 18.84 18.84 0 0 0 .3 5.36c.21.76 1.55.89 1.68 0a36.89 36.89 0 0 0 0-5.36v-2.37c2-1.2 5.37-3.66 6-.07a30.13 30.13 0 0 1 0 6.91c-.07 1.3 2.11 1.29 2 0-.16-2.15-.09-4.31-.28-6.45a4.56 4.56 0 0 0-1.5-3.33zM426.71 33.77c-1 1.17-1.22-2.59-1.22-2.79 0-1.15 0-2.3-.05-3.45v-.86a6.74 6.74 0 0 0 1.44-.35c.9-.35.9-2-.25-1.86l-1.24.17c0-.91-.1-1.82-.23-2.73s-1.46-.59-1.55.21a25.72 25.72 0 0 0-.16 2.77h-.27c-.47 0-1.88.05-1.61.93v.12a.8.8 0 0 0 .55.55 10.54 10.54 0 0 0 1.29.19v2.31c0 1.69-.29 3.77.4 5.36.8 1.84 3.24 2.37 4.34.56.61-.9-.7-1.9-1.44-1.13zM438 25.32c-1.91-2.26-5.7-1.41-7.5.54a.64.64 0 0 0 .62 1.06c.93-.2 1.73-.74 2.65-1 2.12-.5 3.24.73 3.52 2.64.07.47.12.95.16 1.43-3-1.54-8-1.05-7.31 3.23a3.72 3.72 0 0 0 3.63 3 5.85 5.85 0 0 0 4-1.44v.7c.09 1.2 2 1.22 1.89 0-.11-2.06-.23-4.12-.41-6.18a7 7 0 0 0-1.25-3.98zm-3.2 8.91c-1 .25-2.51 0-2.73-1.23-.51-2.82 3.59-2 5.5-1.44 0 .33 0 .65.05 1a9.25 9.25 0 0 1-2.81 1.67zM444.43 25.37a.7.7 0 0 0-1.39 0 31 31 0 0 0-.06 5.45c.08 1.47 0 3 .68 4.33a.69.69 0 0 0 1.24-.15c.4-1.43 0-3.06-.12-4.53-.12-1.71-.14-3.42-.35-5.1zM444.12 22.08a1.28 1.28 0 0 0 .86-.83 1 1 0 0 0-1.13-1.11 1.44 1.44 0 0 0-.65.36c-.68.6.04 1.94.92 1.58zM456.6 24.26c-1.86-1.06-4.67.65-6.08 2.54a17.66 17.66 0 0 0-.22-1.8c-.13-.63-1.2-.65-1.3 0a35.21 35.21 0 0 0-.19 5.81c0 1.33-.42 3.62.3 4.79.53.85 2.11.29 1.7-.72-.55-1.31-.12-3.75-.18-5.2 0-.54 0-1.08-.05-1.63 1.92-1.12 5.1-3.62 5.87-.61.62 2.4.36 5.55.24 8-.07 1.33 2.13 1.33 2.06 0-.14-2.48-.15-5-.38-7.43-.14-1.4-.37-3.01-1.77-3.75zM466.5 24.47a5.84 5.84 0 0 0-4 7.93c1.57 3.4 6.47 4.41 9.38 2.15.61-.47-.07-1.33-.7-1.2-2.43.53-5.34 1.36-6.93-1.33a3.53 3.53 0 0 1-.32-.75 24.84 24.84 0 0 0 5.43-.37c1.06-.1 3.49.14 3.84-1.28.31-1.25-1.37-3.37-2.19-4.19a4.65 4.65 0 0 0-4.51-.96zm3.92 4.53l-1.78.2a39 39 0 0 0-4.82.32 4.08 4.08 0 0 1 4.46-3.47c1 .15 2.73 1.42 2.78 2.6.02.51.57.24-.64.35zM482.47 24.78c-1.13-.87-3.34.24-4.33 1-.21.16-.43.34-.64.53 0-.25 0-.49-.07-.74a.68.68 0 0 0-1.35 0 35.88 35.88 0 0 0 .3 10.14c.19 1 1.58.68 1.63-.22.07-1.64-.18-3.31-.27-5 0-.66-.07-1.33-.09-2 .72-.18 1.33-1.07 1.93-1.43a5 5 0 0 1 1.35-.55c.54-.13 1.08-.06 1.54-.41a.79.79 0 0 0 0-1.32z" fill="#1e1e1e"/></svg>