<svg xmlns="http://www.w3.org/2000/svg" viewBox="0 0 490 320"><path d="M6 291.78c-.29-1-1.14-1.74-1.4-2.85a36.26 36.26 0 0 0-1.09-4.49c-.22-.6-1.21-.75-1.36 0a9.62 9.62 0 0 0 .63 5.79c.47 1.15 1.25 2.71 2.71 2.46a.74.74 0 0 0 .51-.91zM20.17 293.68c-1.35-.72-3.23-.6-4.73-.8a22.94 22.94 0 0 0-4.9-.21c-.61 0-1.06 1-.35 1.31a13.45 13.45 0 0 0 4.64 1.09c1.57.11 3.68.55 5.16 0a.76.76 0 0 0 .18-1.36zM470.55 292.88c-1.15-1-3.65-.53-5-.57a21.24 21.24 0 0 0-5.74.42.71.71 0 0 0 0 1.36 21.64 21.64 0 0 0 5.74.41c1.4-.05 3.88.39 5-.58a.75.75 0 0 0 0-1zM485.68 283.7c-.57.82-.46 2.14-.61 3.09a5 5 0 0 1-1.49 3.3c-1.9 1.67-4.62 1.89-7 2.3-.86.15-.54 1.31.19 1.39 3.21.38 6.18.16 8.55-2.29a6.42 6.42 0 0 0 1.67-3.65c.21-1.23.6-3 0-4.14a.75.75 0 0 0-1.28 0zM485.81 74.34c-.48 1.23-.19 6.74.18 7.94a.72.72 0 0 0 1.37 0c.36-1.2.65-6.71.17-7.94a.9.9 0 0 0-1.72 0zM482.13 58.53c1.4 1.51 2.63 2.23 3.21 4.37.45 1.7.52 3.55.81 5.29.11.7 1.21.65 1.36 0 .85-3.7 0-10.45-4.85-10.93-.68-.07-.92.83-.53 1.27zM465.1 57.68c1.44.83 9.76.78 12 .43.71-.11.65-1.21 0-1.37-2.23-.54-10.52-1.1-12-.34a.74.74 0 0 0 0 1.28zM163 57.17c1.38 1.12 10.93.58 13.28.16a.72.72 0 0 0 0-1.37c-2.35-.42-11.9-1-13.28.16a.74.74 0 0 0 0 1.05zM142.22 57.17c1.12 1.09 10 .58 12.12.16a.72.72 0 0 0 0-1.37c-2.13-.43-11-.94-12.12.16a.76.76 0 0 0 0 1.05zM120.94 57.28c1.63 1.09 12.31.45 14.88 0a.72.72 0 0 0 0-1.37c-2.57-.4-13.25-1.05-14.88 0a.75.75 0 0 0 0 1.28zM101 57.16c1.22 1.11 10.33.59 12.54.16a.71.71 0 0 0 0-1.36c-2.21-.43-11.32-1-12.54.16a.75.75 0 0 0 0 1zM84.3 57c.88 1.18 8.78.76 10.71.31A.71.71 0 0 0 95 56c-1.93-.45-9.83-.87-10.71.31a.7.7 0 0 0 0 .74zM67.13 57.16c.73.87 9.09.59 11 .16a.71.71 0 0 0 0-1.36c-1.94-.43-10.3-.72-11 .16a.76.76 0 0 0 0 1zM49.91 57.16c.72.87 9.05.59 11 .16a.71.71 0 0 0 0-1.36c-1.93-.43-10.26-.71-11 .16a.76.76 0 0 0 0 1zM33 57.16c.74.88 9.14.59 11.09.16a.71.71 0 0 0 0-1.36c-1.95-.44-10.35-.72-11.09.15a.78.78 0 0 0 0 1zM14.31 57.43c2.45.53 11.48.2 13.42-.11a.71.71 0 0 0 0-1.36c-1.95-.37-11-.64-13.42 0a.75.75 0 0 0 0 1.43zM331.8 57.17c1.38 1.12 4.66.52 6.31.57a33.15 33.15 0 0 0 7-.41.72.72 0 0 0 0-1.37 33.15 33.15 0 0 0-7-.41c-1.66 0-4.93-.55-6.31.57a.75.75 0 0 0 0 1.05zM310 57.17c1.35 1.11 10.81.58 13.13.16a.72.72 0 0 0 0-1.37c-2.32-.42-11.78-1-13.13.16a.74.74 0 0 0 0 1.05zM288.08 57.17c1.21 1.1 10.32.58 12.53.16a.72.72 0 0 0 0-1.37c-2.21-.42-11.32-1-12.53.16a.74.74 0 0 0 0 1.05zM269.79 57.16c.74.87 9.1.59 11 .16a.71.71 0 0 0 0-1.36c-1.94-.43-10.3-.71-11 .16a.77.77 0 0 0 0 1zM253.1 57c.87 1.18 8.77.76 10.7.31a.71.71 0 0 0 0-1.36c-1.93-.45-9.83-.87-10.7.31a.66.66 0 0 0 0 .74zM235.92 57.16c.73.87 9.1.59 11 .16A.71.71 0 0 0 247 56c-2-.43-10.31-.71-11 .16a.76.76 0 0 0 0 1zM443 57.17c1.35 1.11 10.81.58 13.13.16a.72.72 0 0 0 0-1.37c-2.32-.42-11.78-1-13.13.16a.76.76 0 0 0 0 1.05zM421.19 57.17c1.21 1.1 10.32.58 12.53.15a.71.71 0 0 0 0-1.36c-2.22-.43-11.32-1-12.53.16a.74.74 0 0 0 0 1.05zM402 57.16c1.21 1.11 10.32.59 12.54.16a.71.71 0 0 0 0-1.36c-2.22-.43-11.32-1-12.54.16a.73.73 0 0 0 0 1zM379.91 57.28c1.34 1 11.54.45 13.94 0a.71.71 0 0 0 0-1.36c-2.4-.41-12.6-1-13.94 0a.76.76 0 0 0 0 1.28zM354.1 57.28c2 1.14 6 .42 8.21.47a54.65 54.65 0 0 0 8.68-.43A.71.71 0 0 0 371 56a54.65 54.65 0 0 0-8.68-.43c-2.24 0-6.18-.67-8.21.47a.75.75 0 0 0 0 1.28zM218.7 57.16c.73.87 9.05.58 11 .16a.71.71 0 0 0 0-1.36c-1.94-.42-10.26-.71-11 .16a.76.76 0 0 0 0 1zM201.75 57.16c.74.88 9.14.59 11.09.16a.71.71 0 0 0 0-1.36c-2-.44-10.35-.72-11.09.15a.78.78 0 0 0 0 1zM183.11 57.43c2.44.53 11.47.2 13.41-.11a.71.71 0 0 0 0-1.36c-2-.37-11-.64-13.41 0a.75.75 0 0 0 0 1.43zM328.43 293.66c-1.37-1.12-4.65-.53-6.31-.57a33.06 33.06 0 0 0-7 .41.72.72 0 0 0 0 1.37 33.06 33.06 0 0 0 7 .41c1.67 0 4.93.55 6.31-.57a.74.74 0 0 0 0-1zM349.22 293.66c-1.11-1.09-10-.58-12.12-.16a.72.72 0 0 0 0 1.37c2.14.42 11 .93 12.12-.16a.74.74 0 0 0 0-1zM370.51 293.55c-1.64-1.09-12.32-.45-14.88-.05a.72.72 0 0 0 0 1.37c2.56.4 13.24 1.05 14.88 0a.76.76 0 0 0 0-1.28zM390.44 293.66c-1.21-1.1-10.32-.58-12.53-.16a.72.72 0 0 0 0 1.37c2.21.43 11.32.95 12.53-.16a.74.74 0 0 0 0-1zM407.14 293.81c-.87-1.17-8.78-.75-10.7-.3a.71.71 0 0 0 0 1.36c1.92.45 9.83.87 10.7-.31a.72.72 0 0 0 0-.75zM424.32 293.67c-.74-.87-9.1-.59-11-.16a.71.71 0 0 0 0 1.36c1.94.43 10.3.71 11-.16a.77.77 0 0 0 0-1zM440.15 293.82c0-.06 0 0 .06.13a.86.86 0 0 0-.62-.62c-1.46-.49-3.46-.23-5-.28a13.84 13.84 0 0 0-4.06.46.71.71 0 0 0 0 1.36 13.84 13.84 0 0 0 4.06.46c1.52-.05 3.52.21 5-.28a.86.86 0 0 0 .62-.62c0 .37 0-.45-.06-.61zM454.67 293.49a.91.91 0 0 0-.62-.63c-1.39-.48-7.34-.19-8.66.18a.71.71 0 0 0 0 1.36c1.32.37 7.27.66 8.66.18.26-.1.58-.31.62-.62a1.3 1.3 0 0 0 0-.44zM159.64 293.66c-1.37-1.12-4.65-.53-6.31-.57a33.06 33.06 0 0 0-7 .41.72.72 0 0 0 0 1.37 33.06 33.06 0 0 0 7 .41c1.67 0 4.93.55 6.31-.57a.74.74 0 0 0 0-1zM181.43 293.66c-1.34-1.12-10.8-.58-13.12-.16a.72.72 0 0 0 0 1.37c2.32.42 11.78 1 13.12-.16a.74.74 0 0 0 0-1zM203.37 293.66c-1.21-1.1-10.32-.58-12.53-.16a.72.72 0 0 0 0 1.37c2.21.42 11.31.95 12.53-.16a.76.76 0 0 0 0-1zM221.65 293.67c-.73-.87-9.09-.59-11-.16a.71.71 0 0 0 0 1.36c1.95.43 10.31.71 11-.16a.75.75 0 0 0 0-1zM238.35 293.82c-.87-1.18-8.78-.76-10.7-.31a.71.71 0 0 0 0 1.36c1.92.45 9.83.87 10.7-.31a.7.7 0 0 0 0-.74zM255.53 293.67c-.74-.87-9.1-.59-11-.16a.71.71 0 0 0 0 1.36c1.94.43 10.3.71 11-.16a.77.77 0 0 0 0-1zM53.1 293.66c-.66-.85-3.82-.52-5.14-.57a20.91 20.91 0 0 0-5.59.41.72.72 0 0 0 0 1.37 20.94 20.94 0 0 0 5.59.41c1.32 0 4.48.29 5.14-.57a.77.77 0 0 0 0-1zM35.22 293.33c-1.33-.49-3.24-.24-4.64-.28a12.06 12.06 0 0 0-3.78.45.72.72 0 0 0 0 1.37 12.06 12.06 0 0 0 3.78.45c1.4 0 3.31.21 4.64-.28a.89.89 0 0 0 0-1.71zM72 293.66c-1.21-1.1-10.32-.58-12.53-.16a.72.72 0 0 0 0 1.37c2.21.42 11.31.95 12.53-.16a.74.74 0 0 0 0-1zM89.5 293.66c-1.22-1.1-10.33-.58-12.54-.16a.72.72 0 0 0 0 1.37c2.21.43 11.32.95 12.54-.16a.76.76 0 0 0 0-1zM111.54 293.55c-1.35-1-11.54-.45-13.94 0a.71.71 0 0 0 0 1.36c2.4.41 12.59.95 13.94 0a.76.76 0 0 0 0-1.28zM137.34 293.55c-2-1.14-6-.43-8.21-.47a53.43 53.43 0 0 0-8.67.43.71.71 0 0 0 0 1.36 54.58 54.58 0 0 0 8.67.43c2.24-.05 6.18.67 8.21-.47a.74.74 0 0 0 0-1.28zM272.75 293.67c-.73-.87-9.06-.58-11-.16a.71.71 0 0 0 0 1.36c1.93.42 10.26.71 11-.16a.77.77 0 0 0 0-1zM289.69 293.67c-.73-.88-9.13-.59-11.09-.16a.71.71 0 0 0 0 1.36c2 .43 10.36.72 11.09-.15a.76.76 0 0 0 0-1.05zM308.34 293.4c-2.44-.53-5.15-.27-7.65-.3a33.8 33.8 0 0 0-5.77.41.71.71 0 0 0 0 1.36 28.67 28.67 0 0 0 5.77.51c2.5 0 5.24.13 7.65-.55a.75.75 0 0 0 0-1.43zM2.81 68.64c.51-1.78.11-3.61.42-5.39.53-2.94 3.14-4.46 5.74-5.4.7-.26.66-1.43-.19-1.39-3.17.15-5.94 1.45-7.16 4.56a13.64 13.64 0 0 0-.24 7.62.75.75 0 0 0 1.43 0zM487.54 101.33c.83-1.44.78-9.76.42-12-.11-.71-1.21-.65-1.36 0-.54 2.23-1.1 10.52-.34 12a.74.74 0 0 0 1.28 0zM487 234.63c1.12-1.38.52-4.66.57-6.31a33.15 33.15 0 0 0-.41-7 .72.72 0 0 0-1.37 0 33.15 33.15 0 0 0-.41 7c0 1.66-.55 4.92.57 6.31a.75.75 0 0 0 1 0zM487 256.42c1.12-1.35.59-10.81.16-13.13a.71.71 0 0 0-1.36 0c-.42 2.32-1 11.78.16 13.13a.74.74 0 0 0 1 0zM487 278.35c1.11-1.21.59-10.32.16-12.53a.71.71 0 0 0-1.36 0c-.43 2.21-.95 11.32.16 12.53a.73.73 0 0 0 1 0zM487 123.48c1.12-1.35.59-10.81.16-13.13a.71.71 0 0 0-1.36 0c-.42 2.32-1 11.78.16 13.13a.75.75 0 0 0 1 0zM487 145.24c1.11-1.21.59-10.31.16-12.53a.71.71 0 0 0-1.36 0c-.43 2.22-.95 11.32.16 12.53a.73.73 0 0 0 1 0zM487 164.48c1.11-1.21.59-10.32.16-12.54a.71.71 0 0 0-1.36 0c-.43 2.22-.95 11.32.16 12.54a.73.73 0 0 0 1 0zM487.14 186.52c1-1.34.45-11.54 0-13.94a.71.71 0 0 0-1.36 0c-.41 2.4-.95 12.6 0 13.94a.76.76 0 0 0 1.28 0zM487.14 212.33c1.13-2 .42-6 .47-8.22a54.58 54.58 0 0 0-.43-8.67.71.71 0 0 0-1.36 0 53.43 53.43 0 0 0-.43 8.67c0 2.25-.67 6.19.47 8.22a.75.75 0 0 0 1.28 0zM1.05 74.34c-.48 1.23-.19 6.74.17 7.94a.72.72 0 0 0 1.37 0c.37-1.2.65-6.71.17-7.94a.89.89 0 0 0-1.71 0zM2.77 101.33c.83-1.44.78-9.76.43-12-.11-.71-1.21-.65-1.37 0-.54 2.23-1.1 10.52-.34 12a.74.74 0 0 0 1.28 0zM2.26 234.63c1.12-1.38.53-4.66.57-6.31a33.15 33.15 0 0 0-.41-7 .72.72 0 0 0-1.37 0 33.15 33.15 0 0 0-.41 7c0 1.66-.55 4.92.57 6.31a.75.75 0 0 0 1 0zM2.26 256.42c1.11-1.35.58-10.81.16-13.13a.72.72 0 0 0-1.37 0c-.42 2.32-1 11.78.16 13.13a.75.75 0 0 0 1 0zM2.26 278.35c1.1-1.21.58-10.32.16-12.53a.72.72 0 0 0-1.37 0c-.42 2.21-.95 11.32.16 12.53a.74.74 0 0 0 1 0zM2.26 123.48c1.11-1.35.58-10.81.16-13.13a.72.72 0 0 0-1.37 0c-.42 2.32-1 11.78.16 13.13a.76.76 0 0 0 1 0zM2.26 145.24c1.1-1.21.58-10.31.16-12.53a.72.72 0 0 0-1.37 0c-.42 2.22-.95 11.29.16 12.53a.74.74 0 0 0 1 0zM2.26 164.48c1.1-1.21.58-10.32.15-12.54a.71.71 0 0 0-1.36 0c-.43 2.22-.95 11.32.16 12.54a.75.75 0 0 0 1 0zM2.37 186.52c1-1.34.45-11.54 0-13.94a.71.71 0 0 0-1.36 0c-.41 2.4-.95 12.6 0 13.94a.76.76 0 0 0 1.28 0zM2.37 212.33c1.14-2 .42-6 .47-8.22a53.43 53.43 0 0 0-.43-8.67.71.71 0 0 0-1.36 0 54.58 54.58 0 0 0-.43 8.67c.05 2.25-.67 6.19.47 8.22a.75.75 0 0 0 1.28 0z" fill="#919191"/><path d="M344.55 24.76a.71.71 0 0 0-1.36 0c-.08.45-.14.9-.19 1.35a5.73 5.73 0 0 0-5.28-1.39c-2.35.68-3.28 2.84-3.56 5.11a6.14 6.14 0 0 0 3.17 6.23 5.68 5.68 0 0 0 5.48-.74 6.27 6.27 0 0 1-.26 1.78c-1.11 3.23-5 2.4-7.08 1.16a1 1 0 0 0-1.24 1.61c2.61 2.45 7.74 1.86 9.78-1.14 1.07-1.58.9-3.54.87-5.35a56.35 56.35 0 0 0-.33-8.62zm-6.33 9.51c-1.9-.76-2.6-3-2.31-4.86s1.14-3.26 3.09-3.41c1.62-.14 2.57.86 3.89 1.38-.11 1.82-.06 3.65-.11 5.46v.07c-1.28 1.09-2.86 2.03-4.56 1.36zM354.35 24.42l-.14-.1a1.24 1.24 0 0 0-1.25 0 15 15 0 0 0-2.65 1.78 2.75 2.75 0 0 0-.8-1.61.2.2 0 0 0-.29 0c-1.08 1.17-.69 2.86-.72 4.37 0 2.24-.09 4.5-.2 6.74-.07 1.29 1.94 1.29 2 0 .1-2.25.17-4.49.1-6.74v-.37a10.39 10.39 0 0 1 2-1.35c.75-.37 1.94-.43 2.3-1.27a1.1 1.1 0 0 0-.35-1.45zM358.05 24.77a.76.76 0 0 0-1 .27l-.06.12a.75.75 0 0 0 .12.86 36.58 36.58 0 0 1-.2 4.43c0 1.84-.05 3.67 0 5.5a1 1 0 0 0 1.9 0v-7.46c-.08-1.04.37-3.1-.76-3.72zM357.75 22.15h.07a.93.93 0 0 0 .55-1.31.88.88 0 0 0-.63-.75c-.92-.27-1.57.93-1.07 1.65a1 1 0 0 0 1.08.41zM372.71 20.09a.72.72 0 0 0-1.41-.2 26.58 26.58 0 0 0-.92 5.42 6.29 6.29 0 0 0-4.25-1.19 5.62 5.62 0 0 0-4.42 5.67c0 2.37 1.21 5 3.5 6a5.25 5.25 0 0 0 5.37-1c0 .42.08.84.13 1.25.12 1.14 1.9 1.19 1.83 0-.33-5.43.26-10.65.17-15.95zM370 32.55a3.25 3.25 0 0 1-4.54 1.34 4.89 4.89 0 0 1-1.89-4.58 3.57 3.57 0 0 1 3.8-3.46 7.34 7.34 0 0 1 2.95 1.39c0 1.65 0 3.3.1 4.92a.69.69 0 0 0-.42.39zM389.87 24.64a8.37 8.37 0 0 0-3.38 0 5 5 0 0 0-4.19 4.83c-.34 4.61 4.74 9.89 8.95 5.87.81-.77-.4-2-1.21-1.22-3.38 3.09-6.64-2.48-5.71-5.46.6-2 2.35-2.33 4.15-2.36 1.17 0 1.63.45 2.64.67a.45.45 0 0 0 .43-.74c-.66-.76-.55-1.32-1.68-1.59zM405 27.32c-.21-2.88-5.1-3-7.07-2.18-2.56 1.11-3.85 5.28-2.78 7.77 1.21 2.82 5.74 4.51 8.29 2.62a6.4 6.4 0 0 0 1.54-8.13.24.24 0 0 0 .02-.08zm-1.82 6.06c-1.79 2-6.13.67-6.35-2.11-.14-1.82.81-4.1 2.67-4.55a5.8 5.8 0 0 1 3.81.47.68.68 0 0 0 .08.65 4.61 4.61 0 0 1-.26 5.54zM417.2 25c-1.88-1.47-4.63-.29-6.31 1.33a9.59 9.59 0 0 0-.2-1.29c-.13-.57-.86-.45-1 0a15.33 15.33 0 0 0-.69 5.27 18.84 18.84 0 0 0 .3 5.36c.21.76 1.55.89 1.68 0a36.89 36.89 0 0 0 0-5.36v-2.37c2-1.2 5.37-3.66 6-.07a30.13 30.13 0 0 1 0 6.91c-.07 1.3 2.11 1.29 2 0-.16-2.15-.09-4.31-.28-6.45a4.56 4.56 0 0 0-1.5-3.33zM426.71 33.77c-1 1.17-1.22-2.59-1.22-2.79 0-1.15 0-2.3-.05-3.45v-.86a6.74 6.74 0 0 0 1.44-.35c.9-.35.9-2-.25-1.86l-1.24.17c0-.91-.1-1.82-.23-2.73s-1.46-.59-1.55.21a25.72 25.72 0 0 0-.16 2.77h-.27c-.47 0-1.88.05-1.61.93v.12a.8.8 0 0 0 .55.55 10.54 10.54 0 0 0 1.29.19v2.31c0 1.69-.29 3.77.4 5.36.8 1.84 3.24 2.37 4.34.56.61-.9-.7-1.9-1.44-1.13zM438 25.32c-1.91-2.26-5.7-1.41-7.5.54a.64.64 0 0 0 .62 1.06c.93-.2 1.73-.74 2.65-1 2.12-.5 3.24.73 3.52 2.64.07.47.12.95.16 1.43-3-1.54-8-1.05-7.31 3.23a3.72 3.72 0 0 0 3.63 3 5.85 5.85 0 0 0 4-1.44v.7c.09 1.2 2 1.22 1.89 0-.11-2.06-.23-4.12-.41-6.18a7 7 0 0 0-1.25-3.98zm-3.2 8.91c-1 .25-2.51 0-2.73-1.23-.51-2.82 3.59-2 5.5-1.44 0 .33 0 .65.05 1a9.25 9.25 0 0 1-2.81 1.67zM444.43 25.37a.7.7 0 0 0-1.39 0 31 31 0 0 0-.06 5.45c.08 1.47 0 3 .68 4.33a.69.69 0 0 0 1.24-.15c.4-1.43 0-3.06-.12-4.53-.12-1.71-.14-3.42-.35-5.1zM444.12 22.08a1.28 1.28 0 0 0 .86-.83 1 1 0 0 0-1.13-1.11 1.44 1.44 0 0 0-.65.36c-.68.6.04 1.94.92 1.58zM456.6 24.26c-1.86-1.06-4.67.65-6.08 2.54a17.66 17.66 0 0 0-.22-1.8c-.13-.63-1.2-.65-1.3 0a35.21 35.21 0 0 0-.19 5.81c0 1.33-.42 3.62.3 4.79.53.85 2.11.29 1.7-.72-.55-1.31-.12-3.75-.18-5.2 0-.54 0-1.08-.05-1.63 1.92-1.12 5.1-3.62 5.87-.61.62 2.4.36 5.55.24 8-.07 1.33 2.13 1.33 2.06 0-.14-2.48-.15-5-.38-7.43-.14-1.4-.37-3.01-1.77-3.75zM466.5 24.47a5.84 5.84 0 0 0-4 7.93c1.57 3.4 6.47 4.41 9.38 2.15.61-.47-.07-1.33-.7-1.2-2.43.53-5.34 1.36-6.93-1.33a3.53 3.53 0 0 1-.32-.75 24.84 24.84 0 0 0 5.43-.37c1.06-.1 3.49.14 3.84-1.28.31-1.25-1.37-3.37-2.19-4.19a4.65 4.65 0 0 0-4.51-.96zm3.92 4.53l-1.78.2a39 39 0 0 0-4.82.32 4.08 4.08 0 0 1 4.46-3.47c1 .15 2.73 1.42 2.78 2.6.02.51.57.24-.64.35zM482.47 24.78c-1.13-.87-3.34.24-4.33 1-.21.16-.43.34-.64.53 0-.25 0-.49-.07-.74a.68.68 0 0 0-1.35 0 35.88 35.88 0 0 0 .3 10.14c.19 1 1.58.68 1.63-.22.07-1.64-.18-3.31-.27-5 0-.66-.07-1.33-.09-2 .72-.18 1.33-1.07 1.93-1.43a5 5 0 0 1 1.35-.55c.54-.13 1.08-.06 1.54-.41a.79.79 0 0 0 0-1.32z" fill="#1e1e1e"/><path d="M286.91 81.09c.12-4.89-.4-8.83-3.93-9.81-33.82-9.36-26.94-3.1-43.58-5.38-25.22-1.11-40.54-10.82-36.06 31.1-.27.94.8 18.43 1 26.5.37 16.28 0 80.24.33 96.1.29 12.73 1.67 26.87-1.15 37.82-1.41 5.46-3.1 25.63 2.4 26.14 20.79 1.94-10.74 1.61 19.26.13 1.51-.07 32.67.9 48.9 2.24 21.61 1.82 11.59-79 11.09-108.37-.51-30.06 1.28-60.62 2.65-90.58a14.05 14.05 0 0 0-.91-5.89z" fill="#fff"/><path d="M285.18 128c-5.54-.36-9.23-.52-14.77-.65s-12.54-.19-20.53-.13c-13.4.09-16.68.86-38.22 1.1l-6.47.08v2.51c23-.28 38.49-1.37 46.57-1.36 5.58 0 32.61.38 33.39.38.49-.04.49-1.93.03-1.93zM285.77 227.83c-5.74-.22-9.62-.21-15.36-.23-13.69 0-63.2-.53-65.33.34-.09 0-.89 2.5-.3 2.5 5.73 0 8.47-.48 14.2-.48h47.43c4.74 0 17 .88 19.06-.22h.3c.45 0 .45-1.9 0-1.92z" fill="#1e1e1e"/><path d="M286.77 254.45c0-10.69-.5-154.46-.31-171.55.07-6.07 1.46-14.59-6.21-16.38-6.48-1.51-14.2-1-20.82-1.07-2.52 0-29 .11-30 .1-7.2 0-22.79-2.61-24.72 7.41a.7.7 0 0 0 0 .25c-1.07 10-.23 20.5-.27 30.51-.14 34.19-.42 129.09-.46 142.36 0 6.61-.24 27.24.51 30.83.54 2.57 1.31 4.35 3.81 5.3 5.28 2 12.45 2.14 18 2.14.67 0 45.61-.88 51.16-1.66 4.09-.58 7.65-1.88 8.51-6.29 1.42-6.91.82-14.87.8-21.95zm-6.87 25.49c-2.41 1.2-6.53.8-9.21.87-3.38.08-42.24 1.33-42.39 1.33h-.1a86.88 86.88 0 0 1-14-1c-3.16-.48-6-.43-7.38-3.85-.82-2.11-.66-4.9-.71-7.14-.92-43.67-.12-170.25 0-189.81 0-2.29-.11-4.67.11-7v-.06c1.8-8.78 18.17-6 24.93-6 .91 0 39.55.44 45.22.86 2.26.17 3.93.1 5.71 1.56 3.32 2.73 2.45 7.48 2.34 11.33v20.72q.09 76.53.17 153.08c-.05 6.97 1.58 22.01-4.69 25.11z" fill="#1e1e1e"/><path d="M285.72 105.18c.12-9-.9-17.88-.53-27 .18-4.36-5.29.18-5.41 3-.31 7.73 2.07 39.16-2 41-2.82 1.26-35.72.86-59.17.9-2.92 0-5.78 6.86-2.58 6.86 24.61 0 28.51.88 53.08-.37 5.25-.27 10.55-.27 13.74-5.1 3.53-5.31 2.79-13.25 2.87-19.29z" opacity=".2"/><path d="M211.64 72.83c3-2.46 63.9-3.14 66.95-.12 2.26 3.7 1.94 47 1 48.52-3.34 4.46-60.88 3.19-67.55.89-3.32-1.93-3.38-46.84-.4-49.29z" fill="#f78100" opacity=".85"/><path d="M278.37 73.52c-9.71-4.34-63.09-2.08-65.81.57-5 4.87-3.87 37-.93 45.26 1.53 4.34 7.37-2.17 6.24-5.37-2.63-7.43-2.48-15.07-2.22-22.84.08-2.24-.29-10-.13-11.22.23.16 21.16-1.14 29.77-1.1 9.4 0 19.93-1.37 28.58 2.49 3.44 1.54 7.77-6.31 4.5-7.79z" fill="#fff" opacity=".2"/><path d="M281.13 81.16c-.24-3.53.23-9-3.88-10-4.94-1.26-10.78-.78-15.86-.85-7.31-.11-14.12 0-21.43 0h-8.86c-4.9 0-9.79.41-14.66.87-1.32.13-3.58 0-4.8.67-2.52 1.48-2 4.92-2 7.35v.13c-.67 9.85-.43 19.8-.77 29.66-.12 3.58-.83 12.34 2.88 14.44 1.82 1 5 .87 7 1a75.71 75.71 0 0 0 8.91.16c17.46-.91 14 .52 31.46-.11 5.7-.2 11.42-.1 17.11-.37 5-.24 5.08-3.72 5.12-8.1.09-11.59.56-23.29-.22-34.85zM279.44 105c-.13 3.42-.34 6.83-.38 10.25 0 3.18.56 6-3.33 6.61-5.19.75-25.41 0-40.53.09-4.72 0-9.39.59-14.13.39-2.3-.1-7.35.37-8.85-1.41-2.2-2.63-1.51-9.66-1.45-12.88.2-9.55-.23-19.16.27-28.71a.74.74 0 0 0 0-.14c.11-1.56.13-5 1.58-5.75a8.29 8.29 0 0 1 2.42-.27c2.78-.26 13.84-.88 16.58-.88 7.59 0 31 .12 33 .17 2.67.07 5.35.12 8 .29 3.26.21 5.08-.14 5.74 3.26 1.08 5.52.37 11.13.65 16.7.29 4.09.58 8.16.43 12.28z" fill="#f78100"/><path d="M285.92 139.29c-.06-4.41-5.45.14-5.41 3 .3 23.34.4 74.35.05 76.37-.41 2.37-6.46 5.82-5.77 5.78-2.67.39-44.58-.24-54-.2-2.93 0-5.79 6.88-2.58 6.86 22.39-.1 51.77.05 54.34-.33a15.93 15.93 0 0 0 13.36-14.19c1.14-13.35.17-65.01.01-77.29z" opacity=".2"/><path d="M211.26 133.3c1.84-1.09 64.5-3.59 68.27 1.68 2.17 2.47 1.59 84.84 0 87.66-2.41 3.85-62.37 2.17-65.85 1.21-1.27-.35-2.21-2.11-3.22-3-2.38-1.98-2.24-86.31.8-87.55z" fill="#f78100" opacity=".85"/><path d="M277.63 134.29c-15.52-.22-55.81-2.11-62.15-.22-2.77.82-5.4 3.9-4.48 6.79a13.47 13.47 0 0 0-1.44 3c-.91 2.8 0 68.63 1.54 75.52.8 3.62 5.8-1.75 5.21-4.48-2.66-12.16-1.64-52-1.73-58.87-.06-4.59-.74-13.64 3.43-15.26s32.73 0 38.48 0c13.16.1 5.4.15 18.56.33 2.95.09 5.81-6.77 2.58-6.81z" fill="#fff" opacity=".2"/><path d="M281.69 180.84c-.14-11.42-.52-22.86-.25-34.29.08-3.28 1.1-8.28-.39-11.31-1.21-2.45-4.68-3.14-7.16-3.5-5.44-.78-11.31-.14-16.84-.14-14.35 0-33.46 0-39.14.23-2 .08-6.31-.62-7.78 1.13-1.73 2.08-1.24 10.77-1.23 10.82-.64 10.85-1.35 55.64-1 67.11.1 3.52.12 7.78 1.74 11 1.38 2.76 3.57 2.84 6.39 3.16 5.06.58 43.13.87 47.49.71 4.16-.16 10.55.87 14.48-1 3.18-1.55 3.82-5.43 4-8.64.86-11.55-.17-23.7-.31-35.28zm-1.88 33.92c-.13 3.41-.49 7.37-4.56 8.33-2.55.61-55 .16-58.14-.16-2.69-.27-4.68 0-5.83-3-.91-2.42-.57-5.56-.64-8.1-.35-11.62-1-57.08-.32-68.09v-.13c.25-2.53-.06-8.28 1.9-9.62 1.79-1.22 7.67-.33 10-.4 4.23-.13 35.34 0 39 .08 3.24 0 6.49-.15 9.72 0 2.43.1 6.88.23 8.26 2.89.92 1.79.22 6.09.18 8-.2 9.78.62 66.22.43 70.2z" fill="#f78100"/><path d="M286.27 265.88c-.13-8.77-.46-17.5-.19-26.28.14-4.37-5.32.17-5.4 3-.23 7.39-.15 31.31-.87 33.66-1.85 3.68-55.23 1.45-61.36 1.38-2.92 0-5.8 6.82-2.58 6.86 16.61.2 45.61.78 53.94.18 12 .26 14.05-6.26 14.57-7.33 1.84-3.69 1.95-7.35 1.89-11.47z" opacity=".2"/><path d="M280.48 270.42c-.19 2.56.36 5.26-1.77 6.56-2.13 2.18-65.22 2.72-67.41-.59-1-1.26-2.12-35.89 0-39.21 1.67-2.7 5.25-3.08 8.34-3.19 3.68-.13 56.32-.67 58.16.8 4.29 3.65 2.87 33.08 2.68 35.63z" fill="#f78100" opacity=".85"/><path d="M274.91 234.89c-6.84-.48-40.9 0-48 .15-5.68.15-12.39-.35-14.52 6.23-.2.6-2.37 6.92-2.4 8.69-.14 8.28 1.59 17 2.41 25.21.44 4.43 5.69-.11 5.4-3-.44-4.49-1.57-20-2-22.9l.09-.05a41.6 41.6 0 0 1 7-3.62 8.65 8.65 0 0 0 3.25-3.81c2.17 0 25.95-.94 28-1.06 6.26-.37 12 .58 18.22 1 2.88.27 5.84-6.61 2.55-6.84z" fill="#fff" opacity=".2"/><path d="M281.18 262.75a.5.5 0 0 0 0-.13c.2-4 .47-7.88.38-11.86s1.4-13.68-2.59-16.65c-2.73-2-8.61-1.58-11.77-1.72-3.32-.15-6.56.31-9.87.34-15.64.12-10.36-.4-26-.27-5.24 0-10.85-.16-16.05.49-6.18.77-6.06 6.18-6.26 11.27-.22 5.61 0 10.87.2 16.43.19 4.65-1.44 10.73.23 15.18 1.46 3.88 7.82 3 11.15 3.14 3.65.16 7.28.37 10.93.37h28.23c6 0 12 .3 17.92-1 6.4-1.42 3.55-10.77 3.5-15.59zM279.6 273c-.56 4.12-4.33 4-8 4.27-4.07.31-8.19.09-12.27.06-5.93 0-24.18.23-37.82-.42-2.38-.11-7.84.46-9.48-1.35s-.85-6.3-.79-8.66c.09-3.79 0-7.38-.25-11.16-.33-5.43-1.63-18.89 5.24-20.55 2.93-.7 6.8-.15 9.82-.25 1.67-.06 3.35-.14 5-.16 13.84-.13 6.77.16 20.61.2 6.73 0 13.45-.73 20.16-.23 3.74.28 6.32.14 7.45 4.39.94 3.55.48 8 .62 11.65.16 4 0 7.87-.17 11.83a.75.75 0 0 0 0 .16c-.19 3.3.33 6.9-.12 10.22z" fill="#f78100"/><path d="M443.71 81.09c.16-4.89-.49-8.83-4.95-9.81-42.58-9.36-33.92-3.1-54.88-5.38-31.76-1.11-51.06-10.82-45.42 31.1-.34.94 1 18.43 1.24 26.5.46 16.28 0 80.24.41 96.1.36 12.73 2.1 26.87-1.45 37.82-1.77 5.46-3.91 25.63 3 26.14 26.18 1.94-13.53 1.61 24.25.13 1.9-.07 41.16.9 61.59 2.24 27.22 1.82 14.6-79 14-108.37-.64-30.06 1.61-60.62 3.35-90.58a11.43 11.43 0 0 0-1.14-5.89z" fill="#fff"/><path d="M439.68 126.47c-5.54-.36-9.23-.52-14.78-.65s-32.23-.19-40.22-.13c-13.4.09-16.69.86-38.22 1.1l-6.47.08v2.51c23-.28 58.19-1.37 66.26-1.36q8.39 0 16.77.13c5.37.08 8.9.35 14.28.27h2.35c.49-.03.49-1.92.03-1.95zM440.26 227.83c-5.73-.22-9.61-.21-15.35-.23-13.7 0-82.9-.53-85 .34-.1 0-.9 2.5-.3 2.5 5.73 0 8.47-.48 14.2-.48h79.49c2.1 0 4.61.93 6.69-.17h.3c.46 0 .46-1.9 0-1.92z" fill="#1e1e1e"/><path d="M441.27 254.45c0-10.69-.17-90.85-.22-120.25 0-17.09-.29-34.21-.09-51.3.07-6.07 1.46-14.59-6.22-16.38-6.47-1.51-14.2-1-20.82-1.07-2.51 0-48.72.11-49.64.1-7.2 0-22.79-2.61-24.72 7.41a.7.7 0 0 0 0 .25c-1.07 10-.23 20.5-.27 30.51-.15 34.19-.42 129.09-.46 142.36 0 6.61-.24 27.24.51 30.83.54 2.57 1.31 4.35 3.81 5.3 5.28 2 12.45 2.14 18 2.14.67 0 39.13-.77 53.87-1 5.6-.1 11.44.16 17-.62 4.09-.58 7.64-1.88 8.51-6.29 1.36-6.95.75-14.91.74-21.99zm-6.87 25.49c-2.41 1.2-6.54.8-9.21.87l-62.09 1.33h-.1a86.88 86.88 0 0 1-14.05-1c-3.16-.48-6-.43-7.38-3.85-.82-2.11-.66-4.9-.71-7.14-.92-43.67-.06-87.45-.06-131.13 0-19.56-.06-39.12.06-58.68 0-2.29-.11-4.67.11-7v-.06c1.8-8.78 18.17-6 24.93-6 .91 0 38.73.06 47.85.17 5.69.06 11.4.27 17.07.69 2.26.17 3.93.1 5.71 1.56 3.32 2.73 2.44 7.48 2.34 11.33 0 .82.1 122.77.14 173.8-.01 6.97 1.65 22.02-4.61 25.11z" fill="#1e1e1e"/><path d="M440.92 77.83c-.24-4.43-5.56.12-5.4 3 .34 6.32-.17 26.14-.2 29.78 0 2.84.25 9.77-2.58 11-1.71.74-61.95.48-75.44.66-2.92 0-5.77 6.9-2.58 6.86 26.84-.34 43.3 1 67.68-.84 4.83-.36 10.44-.14 14.31-3.62 5.76-5.2 4.73-37.48 4.21-46.84z" opacity=".2"/><path d="M346.28 71.52c4-1.55 86.82-2.57 88 .3 1 1.26 1.93 46.42 1 47.9-1.67 2.7-6.25 2.09-9.34 2.2-3.68.12-77.21 2-79.93-.3-2.36-2.02-3.52-47.05.27-50.1z" fill="#f78100" opacity=".85"/><path d="M429.34 71.31C416.1 71 402.73 73.19 380 72.86c-3.38 0-20.46-2.23-24.84-.77a1.8 1.8 0 0 0-.35-.12c-8.26-1.85-8.18 12.79-8.57 17.39-.79 9.38-2.78 21.72 1.36 30.53 1.3 2.76 5.9-3 4.66-5.67-2.48-5.25-1.46-13.3-1.21-19 .13-3 1.12-14.46 1.14-14.69a6.59 6.59 0 0 0 3.25-2.72c3.34-.38 3.85 2.39 10.84 1.73 20.51-1.93 46.81-1.8 60.52-1.42 2.88.13 5.79-6.72 2.54-6.81z" fill="#fff" opacity=".2"/><path d="M435.52 71.89c-1.39-2.66-5.27-2.47-7.89-2.53-16.08-.4-32 0-48.59 0h-16.45c-3.64.09-7.28.42-10.9.71-1.61.13-4 0-5.46.74-4.55 2.46-2.6 11.76-2.61 15.59a.58.58 0 0 0 0 .14c-.22 8.26-.45 16.42-.23 24.69.08 2.9-.67 9.37 2.38 11.17s9.82 1 13.38 1h48.59c2.9 0 5.8 0 8.7-.07 5-.12 11.07.75 16-.33 3.73-.82 3.87-4.82 4-8.06.42-9-.16-17.84-.1-26.85.07-4.55 1.41-11.95-.82-16.2zm-1.3 43.1c-.17 3.23-.16 5.48-3.8 5.85-2.7.27-5.53.11-8.24.16-3.82.06-7.64.16-11.46.17-30.18 0-51.85.66-59.72.18-2.92-.18-4.67.16-5.42-3.06-.79-3.4-.51-7.29-.63-10.76-.15-4-.16-7.93-.07-11.92.06-3 .11-6 .18-9a.42.42 0 0 0 0-.15c.14-3.71-1-9.53 1.31-12.7 1.59-2.19 5.06-1.72 7.73-1.88 3.63-.23 7.25-.5 10.89-.5h9.36c14.22 0 17.38-.06 47.9.08 2.52 0 8.18-.65 10.24.58 3.59 2.16 1.58 14.12 1.63 17.72 0 3.42.3 6.84.45 10.25.26 4.99-.08 9.99-.35 14.99z" fill="#f78100"/><path d="M440.13 138c-.15-4.42-5.5.13-5.4 3 .4 11.49.41 77.82.1 78.58-1.52 3.69-7.15 3.51-10.37 3.72-15.9 1.05-50.91.87-67.6.57-2.92 0-5.82 6.8-2.58 6.86 35.46.63 62.66.13 71.89-.94 17.87-.68 14.28-13.65 14.47-18.32.36-9.56.02-58.55-.51-73.47z" opacity=".2"/><path d="M345.52 132.08c2.92-1.27 87.33-1.78 89 .33 1 1.26 1.39 87.63.47 89.11-1.66 2.7-16.65 2.36-20.33 2.49 0 0-67.28.17-68.3-.69-.27-.22-2.25-4-2.25-4s-.48-86.08 1.41-87.24z" fill="#f78100" opacity=".85"/><path d="M430 132.88c-14.26-.94-46.41 1.14-61.2.69-5.27-.16-12.16-2.38-17.27-.55-3.65 1.31-4.71 4.77-5.24 8.25-2 13.29-1.66 70.1-.63 77.67.6 4.42 5.8-.11 5.41-3-2.08-15.24-.14-75.9.48-77.46 0 1 1.15 1.24 34.48.9 15.42-.16 26-.66 41.39.36 2.94.19 5.9-6.64 2.58-6.86z" fill="#fff" opacity=".2"/><path d="M436.68 201.53c0-2.59-.07-5.19-.1-7.77q-.22-16.66-.41-33.32c-.11-8.58 1-17.74-.14-26.2-.69-5.37-5-3.88-9.57-4-3.63-.08-7.26-.24-10.9-.28-14.8-.14-39.79.49-47 .53-1.39 0-9.27-.05-11.82 0-3 .06-7.77-.42-10.67.58-4.55 1.57-2.65 12.51-2.67 16a.65.65 0 0 0 0 .16c-.12 17.25-.39 34.5-.59 51.75-.05 4 .09 8.09.18 12.14s-1.34 11.38 3.56 13.08c4.73 1.64 11 1.2 15.9 1.08 3.84-.1 4 0 40.83-.08h10.74c3.19 0 6.39.05 9.58 0s10 .45 12-2.89c1.37-2.36.6-6.41.69-9 .14-3.98.36-7.89.39-11.78zm-2.25 0c0 3.14-.21 6.28-.31 9.42-.08 2.62.87 9.29-1.35 10.86-2 1.4-6.22 1-8.56 1.06-2.79.08-5.58 0-8.38 0h-10.36c-37.14.06-33.78 0-38.1.07a154.5 154.5 0 0 1-16.53-.25c-1.08-.11-3 0-4-.58-2.21-1.32-1.8-5.12-1.8-7.26 0-4.26-.27-8.52-.34-12.78-.25-16.44.1-32.92.15-49.36v-5.52a.66.66 0 0 0 0-.15c.09-2.55-.13-5.12.08-7.67.08-1 .2-5.1 1-6 1.58-1.76 8.65-1 10.81-1 3 0 6 0 8.95.06h15.86c20.12 0 9.79-.28 27.67-.33 4 0 8 0 12.05.14 3.33.09 6.7 0 10 .26 2 .14 2-.24 2.59 1.75.44 1.43.19 3.47.19 4.95 0 4.21-.21 8.42-.19 12.63.14 16.54.72 33.11.57 49.66z" fill="#f78100"/><path d="M441.28 240.28c0-4.41-5.43.14-5.41 3 .08 9.64.14 19.32-.28 29 0 .19-3.21 4.31-4.12 4.5-3.06.64-65.69.85-79 .8-2.92 0-5.79 6.85-2.58 6.86 29.2.1 20.9.55 50.11.5 13.27 0-17.3-.55-4-.76 12.33-.2 20.31 1.27 32.54-.36 5.52-.74 11.21-3.2 12.1-9.15 1.66-11.19.73-23.15.64-34.39z" opacity=".2"/><path d="M346.12 234.86c7.93-3.33 81-2.42 88.43.59 2.31 4.19.94 39.1 0 40.58-1.27 2-83.1 4.81-88.5-.6-4.21-3.29-3.41-37.65.07-40.57z" fill="#f78100" opacity=".85"/><path d="M431.76 236.74a22.91 22.91 0 0 0-11.57-1.65c-.63.06-13.34.69-19.58 1-4.37.23-15.12-1.6-39.91-1.27-4.8.06-9.65-.12-12.89 4.26-5 6.76-2.57 28-1.62 35 .6 4.42 5.8-.12 5.4-3-.73-5.35-.95-21.56-.71-24.27.09-1.05-.13-3.18.45-4.05s.58-.62 1.93-.9c2.79-.59 22.65 1.57 30.7 1.37s19.61-.9 25.85-.59 12.49 1 18.78.8c2.15-.1 6.15-5.44 3.17-6.7z" fill="#fff" opacity=".2"/><path d="M437.21 256.69c-.14-2.31-.58-4.45-.54-6.8.08-3.84 1.19-10.83-1.06-14.25s-9.72-2.75-13.16-2.9c-2.23-.1-4.46-.23-6.69-.25h-6.62c-16.13 0-34.31.24-45.14.08-5.69-.08-13-.78-18.2 1.88a3.17 3.17 0 0 0-.88.64c-1.65 1.7-1.65 5.14-1.86 7.29-.41 4.35-.42 19.42-.32 22.58.09 3-.28 8.49 2 10.92 2.16 2.27 7.13 2.45 10.13 2.68 5 .39 51.19.33 60.31.17 3.68-.06 7.37-.38 11.05-.39 2.24 0 4.95.64 7.06-.35 3.87-1.8 3.32-7.13 3.45-10.7s.67-7.12.47-10.6zm-2.31 2.69c-.14 2.91-.37 11.36-.65 12.54-.68 2.92-3 4.33-6 4.23-10-.35-15.34.37-25.39.42-31.33.17-44.28.39-48.92 0a20.57 20.57 0 0 1-5.11-.88c-3.83-1.36-3.93-4.18-4.23-7.79a191.83 191.83 0 0 1-.32-20.49c.08-2.84-.54-9.2 1.69-11.41 3.35-1.55 7.82-1.05 11.43-1.29 2.22-.14 8.15-.23 8.89-.23 4.1 0 23.2-.19 49.53.14 1.89 0 12.46 0 15.36 1 3.81 1.35 3.29 5.4 3.35 8.83.1 4.92.59 10.05.37 14.93z" fill="#f78100"/><path d="M156.07 81.09c.16-4.89-.5-8.83-4.95-9.81-42.59-9.36-33.93-3.1-54.88-5.38C64.47 64.79 45.17 55.08 50.82 97c-.34.94 1 18.43 1.24 26.5.46 16.28 0 80.24.41 96.1.36 12.73 2.1 26.87-1.46 37.82-1.77 5.46-3.9 25.63 3 26.14 26.18 1.94-13.53 1.61 24.24.13 1.91-.07 41.16.9 61.6 2.24 27.22 1.82 14.6-79 14-108.37-.65-30.06 1.61-60.62 3.34-90.58a11.33 11.33 0 0 0-1.12-5.89z" fill="#fff"/><path d="M152 128c-5.54-.36-9.24-.52-14.78-.65s-32.22-.22-40.22-.16c-13.4.09-16.68.86-38.21 1.1l-6.48.08v2.51c23-.28 58.2-1.37 66.27-1.36q8.39 0 16.76.13c5.38.08 8.91.35 14.29.27h2.35c.52-.03.51-1.92.02-1.92zM152.62 227.83c-5.73-.22-9.62-.21-15.35-.23-13.7 0-82.91-.53-85 .34-.1 0-.9 2.5-.3 2.5 5.73 0 8.46-.48 14.19-.48h79.49c2.11 0 4.62.93 6.7-.17h.3c.46 0 .46-1.9 0-1.92z" fill="#1e1e1e"/><path d="M153.62 254.45c0-10.69-.16-90.85-.21-120.25 0-17.09-.29-34.21-.09-51.3.07-6.07 1.45-14.59-6.22-16.38-6.48-1.51-14.2-1-20.82-1.07-2.51 0-48.72.11-49.64.1-7.2 0-22.79-2.61-24.72 7.41a.7.7 0 0 0 0 .25c-1.08 10-.23 20.5-.28 30.51-.14 34.19-.41 129.09-.45 142.36 0 6.61-.25 27.24.51 30.83.54 2.57 1.3 4.35 3.81 5.3 5.28 2 12.45 2.14 18 2.14.67 0 39.13-.77 53.87-1 5.6-.1 11.44.16 17-.62 4.08-.58 7.64-1.88 8.5-6.29 1.36-6.95.76-14.91.74-21.99zm-6.86 25.49c-2.42 1.2-6.54.8-9.22.87l-62.08 1.33h-.11a87 87 0 0 1-14-1c-3.15-.48-6-.43-7.37-3.85-.83-2.11-.67-4.9-.71-7.14-.92-43.67-.06-87.45-.07-131.13 0-19.56-.06-39.12.07-58.68 0-2.29-.12-4.67.1-7v-.06c1.79-8.78 18.16-6 24.93-6 .91 0 38.72.06 47.85.17 5.68.06 11.4.27 17.07.69 2.25.17 3.92.1 5.7 1.56 3.33 2.73 2.45 7.48 2.35 11.33 0 .82.1 122.77.14 173.8-.02 6.97 1.59 22.01-4.65 25.11z" fill="#1e1e1e"/><path d="M153.16 79.61c.2-4.36-5.28.18-5.41 3-.31 6.49 1.3 38.35-1 40.26-3.42 3-64.33 2.32-79.14.94-2.9-.27-5.89 6.55-2.58 6.86 14 1.3 44.51.38 58.72.31 7.42 0 19.52 1.74 25.28-3 8.39-5.93 3.74-40.15 4.13-48.37z" opacity=".2"/><path d="M148 118.22c-.19 2.55-.74 4.57-2.87 5.87-.52.32-76.9.15-80.5 0-1.56-.07-6.06 0-7-3.24-1-1.26-.41-44.49.51-46 1.66-2.7 5.75-3.09 8.83-3.2 3.68-.12 69.71-2 77.87.3 2.39 2 3.68 7.63 3.78 10.82s-.46 32.9-.62 35.45z" fill="#f78100" opacity=".85"/><path d="M143.4 72.22c-3.86-1.58-77.6-.28-79.67.57-4.13 1.69-4.79 5.79-5.16 9.77a361 361 0 0 0-1.49 39.32c.08 4.42 5.46-.13 5.41-3-.18-10.88.71-38.74 1.78-39.88s56.73-.56 59.7-.59c4.77-.06 11.17-1.51 15.68.34 2.91 1.16 6.48-5.41 3.75-6.53z" fill="#fff" opacity=".2"/><path d="M148.64 110.4c.14-6.06.48-12.13.49-18.19 0-3.72-.07-16.15-1.06-18.23-1.53-3.19-5.78-3.19-8.88-3.51-10.59-1.1-16.79-.47-49.19-.36-3.81 0-19.2.18-23.07.42-3.44.22-8.34.27-9.74 3.93-2 5.24-1.21 12.45-1.25 17.94 0 4-.31 21.71.2 26.58.42 3.92 1.39 5.47 5.45 6 10.64 1.32 74.27.18 78.27 0 1.79-.09 4.86.37 6.44-.56 4.05-2.38 2.4-10.28 2.41-13.84a.7.7 0 0 0-.07-.18zm-4.33 12.41c-2.32.9-6.52.34-9 .38-2.74 0-5.48 0-8.22-.06-3.19 0-23.88.6-50.2.38-1.31 0-2.61-.06-3.93-.12-3.38-.16-6.81-.17-10.19-.48-4.52-.42-4.6-3.22-4.71-7.25-.2-7.71.23-28.3.32-30.82.13-3.09-.73-9.4 2.51-11.06 4.46-2.28 12.26-1.29 17.11-1.36 2.64 0-7.56-.13 22.41-.22 7.71 0 10.48-.35 18.19-.12 4.14.13 8.23.08 12.37 0s12.05-.9 14.82 2.43c2.05 2.48 1.72 15.49 1.73 18.14 0 3.24-.24 15.09-.29 17.77a.37.37 0 0 0 0 .14c-.17 3.49 1.3 10.61-2.92 12.25z" fill="#f78100"/><path d="M152.69 138.86c-.06-4.41-5.45.14-5.41 3 .15 11.46.35 64.81.29 67.76-.08 3.75 1.15 10.11-2.29 12.38-4.81 3.17-58.76 2.46-75.91 2-2.92-.07-5.82 6.78-2.58 6.86 35.54.92 71.67-.3 77.27-2.07 11.83-3.75 8.74-13.49 8.92-22.19.16-7.75-.1-52.92-.29-67.74z" opacity=".2"/><path d="M56.34 141.15c.19-2.55 4.34-7.86 6.94-8.06 1.27-.36 81-1.87 83.37 1.59 2.35 6.91 1.46 82.39.54 83.87-1.66 2.69-4.28 5.09-7.36 5.2-3.68.13-74.43 1-75.45.17-5.34-1.59-7.51-8.1-7.61-11.3s-.62-68.91-.43-71.47z" fill="#f78100" opacity=".85"/><path d="M143.42 134.29c-30.25-1.27-51-.89-71.26-.43-4.67.11-15.86-2.65-15.07 12-.35 7.25-1.3 55.31.54 71.75.49 4.43 5.73-.11 5.4-3-1.49-13.42-.54-73.74-.47-74.35.46.46 3.21.54 3 .51 2.47.38 2-1.21 36.78-.64 14.48.24 24 .37 38.45 1 2.97.14 5.89-6.7 2.63-6.84z" fill="#fff" opacity=".2"/><path d="M148.75 188.8c0-10.5 0-38.3.05-41.71s.86-9.15-1-12.32c-2.33-4-12.49-2.61-16.09-2.77-1.61-.07-43.89.36-50.44.4s-14.58-1.56-20.61 1c-6.36 2.73-5 10-5 15.55a.76.76 0 0 0 0 .16c0 16.06-.16 52.19-.14 54.19.06 5.42-1.33 15.16 3.51 19.15 6 4.95 15.75 2.43 22.7 2.68 2.1.07 4.12.45 6.22.47 35.06.33 34.14-.15 38.82-.22s9.84.12 14.57-.64c7.41-1.19 7.45-6.76 7.67-13.07.28-7.67-.26-15.2-.26-22.87zm-1.93 21.25c-.06 1.81 0 3.75-.2 5.55-.59 4.39-2.59 6.66-6.94 7.07-4.08.4-8.3.39-12.39.46-3.09.05-6.18 0-9.27 0-34.31.06-38.35-.21-41.78.05-5.15.4-13 .89-16.42-3.48s-2.33-12-2.4-17.35c-.23-16.2-.2-32.4-.3-48.6v-4.66a.5.5 0 0 0 0-.13c.2-5.54-.94-12.82 6.1-14.25 4.43-.9 5.9-.55 11-.55 18.49 0 28.52-.11 45.28-.17 3.13 0 15.65.27 18.77.41 4.44.2 7.7-.41 8.18 4.88.3 3.26.19 6.55.17 9.83-.06 15.83-.82 31.85-.14 47.67.22 4.51.52 8.72.34 13.27z" fill="#f78100"/><path d="M153.29 240c-.56-4.42-5.77.12-5.4 3 .28 2.19.3 26.49-.65 31.28a20.94 20.94 0 0 1-4.75 3.17c-3.83 1.58-62 1.17-71.62 1-2.92 0-5.81 6.81-2.58 6.86 28.36.51 60.93-.76 68.38-1.44 3.51-.32 8.13-.19 11-2.59a16.76 16.76 0 0 0 4.53-6.9c1.36-4.83 1.41-31.99 1.09-34.38z" opacity=".2"/><path d="M56.63 240.85c.2-2.55 3.13-6.5 5.26-7.8 2.62-.55 75.15.27 78.75.45 1.55.07 5.91 3.68 6.91 4.93s.54 34.57-.37 36.05c-1.67 2.7-5.25 3.09-8.34 3.19-3.68.13-72.43 1.32-75.92.36-1.27-.35-6.25-7.28-6.35-10.48s-.13-24.15.06-26.7z" fill="#f78100" opacity=".85"/><path d="M143.82 233.63c-12.39-.75-61.6 1-73.32-.27-3.63-.39-7.29-1.67-10 1.35s-3.41 7.63-3.14 11.52c0 .55-.21 17.49.22 25.64.24 4.43 5.57-.12 5.41-3-.52-9.8-1-19.57.89-29.24.78.09 6.68.87 9 1.06 5.22.44 22.37 1.16 28.2 1.2 12 .1-11.63.1 2.24 0 12.69-.1 25.32-2.16 38-1.39 2.83.17 5.78-6.67 2.5-6.87z" fill="#fff" opacity=".2"/><path d="M149.29 255.94c-.07-4.94.31-9.91-.27-14.82-.42-3.53-.72-6.12-4.2-7.52-4.68-1.87-4.78-1.67-29.58-1.66h-37c-5.78 0-14-1.74-19 1.66-4.68 3.19-3.45 10.11-3.56 14.89a.53.53 0 0 0 0 .19v9.69c0 4.44-.84 9.62.84 13.83 3 7.54 11.31 7.53 18.11 7.45 10.31-.11 50.09-.43 52.9-.48 7.56-.14 20.72 1.88 21.72-8.48.54-4.82.11-9.86.04-14.75zm-2.16 13.46c-.87 6.79-4.6 7-10.13 7.2-3.07.12-13.34.33-15.39.35-6 0-29 .63-42.42.79-4.61.06-10.36.91-14.61-.54-8.34-2.86-7.18-11.31-7.3-18.48q-.09-5-.15-10.08v-.12c.22-3.81-.75-9.91 2.42-12.81 2.73-2.49 8.16-1.83 11.56-1.83 2.2 0 4.39.05 6.59.06 3.09 0 30 .12 42.82.06 20.42-.1 19.42.28 21.89 1.12 4.21 1.43 4.27 4 4.58 7.92.35 4.57 0 9.22 0 13.82.11 4.14.65 8.5.14 12.54z" fill="#f78100"/></svg>