<svg xmlns="http://www.w3.org/2000/svg" viewBox="0 0 490 216"><path d="M481.75 24.47c-42.59-7.4-86.08-9.14-128.87-2.66-77.34-1.43-337.35-2.55-339.88.99-6.54 4.35-11.52 15.63-8.89 21.81C0 65.91 5.82 163 2.27 171.7.49 176 .88 191.06 7.82 191.46c78.75-6.13 129.68 3 156 2 34.07-9.65 144.92 1.65 306.74.77 24.59 1.27 14.6-62.46 14-85.72-3.1-56 7.78-84.03-2.81-84.04z" fill="#c9c9c9"/><path d="M2.33 104.65c8.14-.22 103.57-5.82 192.18-2.61 2.72-10.5-1.5-70.7-1.17-81.51-24.16.16-114.68 2.09-135.63.29C43.36 16.47 0 11.84 4.12 44.61c-.34.74-2.75 26.76-1.79 60.04z" fill="#fff"/><path d="M192.44 21.08c-1.41 18.2-.84 36.75-1 55q-.18 23.11-.15 46.23.06 29.83.54 59.69c.06 3 .23 7.42.29 9.74.05 1.63 2.6 1.64 2.55 0-.92-35.28-.91-72.86-.73-108.84.09-20.54 1.29-41.3.43-61.82a1 1 0 0 0-1.95 0zM290.51 21.81c-1 18.21-.09 36.68-.1 54.93q0 23-.13 46.05-.15 29.65-.55 59.3c0 3 0 7.37-.05 9.65a1.28 1.28 0 0 0 2.55 0c.6-35.08.75-72.42.72-108.2 0-20.48.86-41.29-.49-61.73a1 1 0 0 0-1.95 0z" fill="#1e1e1e"/><path d="M482.16 101.79c-27.12-.65-54.27-.5-81.4-.52q-59.33 0-118.64.1-63.1.12-126.22.32-51.06.15-102.12.35l-32.84.12c-4.81 0-10.62-.85-15.37.07a4.82 4.82 0 0 1-.66 0 1.25 1.25 0 0 0 0 2.5q19.7-.09 39.4-.15 48.56-.2 97.11-.36 62.47-.21 125-.37 60.57-.15 121.16-.18c29.23 0 58.47.35 87.7.07h6.92a1 1 0 0 0 0-1.92zM483.74 147.66q-42.25.74-84.51 1-59.79.39-119.6.32-62.83 0-125.69-.21-50.5-.16-101-.41l-32.34-.16c-4.69 0-10.38-.95-15-.08a3.86 3.86 0 0 1-.68 0 1.25 1.25 0 0 0 0 2.5q19.26.12 38.53.21 47.94.24 95.89.38 62.14.2 124.28.23 61 0 121.92-.29c30.16-.17 60.4 0 90.54-1.23l7.67-.32a1 1 0 0 0 0-1.93z" fill="#1e1e1e"/><path d="M195.49 45.09c-.88-4.93-8-2.34-7.57 1.71.58 6.11.14 26.54-.06 28.39-.43 6-10.24 6.79-13.63 7-30.41 1.62-122.73 1.62-153.18 1.1-4.09-.07-7.64 8.52-3.11 8.6 18.15.31 107.26 1 125.41.68 9.05-.18 33.08-.52 40.63-2.31C198.61 86.8 195.87 78.32 195.9 67c.02-8.14 1.03-13.91-.41-21.91z" opacity=".2"/><path d="M9 47.36c.27-3.18 2.87-8.06 5.89-9.68C16.8 36 181.6 36 186.43 39.42c1.42 1.57 3.81 33.36 0 38.81-2.37 3.36-7.47 3.84-11.86 4-5.23.16-160.33 1.45-161.78.38-3.4-2.51-3.81-4.51-4-8.49s-.1-23.59.21-26.76z" fill="#f78100" opacity=".85"/><path d="M63.66 66.63a1.05 1.05 0 1 0-1 1.34h.07a1 1 0 0 0 1-1.27zM67.3 57.31c-.27 3.19.33 6.41.18 9.62-.06 1.38 2.09 1.38 2.15 0a73.69 73.69 0 0 0-.45-9.62.94.94 0 0 0-1.88 0zM68.17 54.37h.07a1 1 0 0 0 .64-.67 1.63 1.63 0 0 0 .11-.23 1.54 1.54 0 0 0 0-.77.9.9 0 0 0-1.5-.39c-.2.24-.42.37-.52.69a1 1 0 0 0 .1.94 1 1 0 0 0 1.1.43zM76.29 66.14c-1 1.1-1.39-3.24-1.4-3.43-.08-.94-.15-1.87-.2-2.81v-1.62h1.43c1.62 0 1.39-2.59-.3-2.25a8.07 8.07 0 0 1-1.1.14 11.13 11.13 0 0 0-.24-2.45c-.16-.73-1.07-.56-1.31 0a8.48 8.48 0 0 0-.58 2.48h-.61c-1 0-1.35 1.67-.26 1.87.27 0 .53.08.8.11 0 .9.08 1.81.13 2.66a19.12 19.12 0 0 0 .72 5.59c.76 2 3.14 2.83 4.49.92.65-.93-.8-2.03-1.57-1.21zM85.63 56.44a5.6 5.6 0 0 0-5.93 3.17 7.37 7.37 0 0 0-.49 1.66.89.89 0 0 0-.09.8 5.19 5.19 0 0 0 2 4.68c2.33 1.72 5.44 1.2 7.66-.44 1.06-.78.08-2.56-1-1.8-1.43 1-3 1.71-4.75 1a3 3 0 0 1-1.88-2.68c2.87.06 5.78-.2 8.64-.33a1.11 1.11 0 0 0 1.06-1.4 6.6 6.6 0 0 0-5.22-4.66zm-4.27 4.33c1.16-3.46 4.82-2.64 6.58-.39-2.19.06-4.4.16-6.58.39zM107.45 56.28a5.41 5.41 0 0 0-5.71 2 3.47 3.47 0 0 0-.85-.93 4.2 4.2 0 0 0-5.78.23 4.4 4.4 0 0 0-.27-.77.69.69 0 0 0-1.2 0c-.63 1.42-.4 3-.4 4.49v5.65a1.08 1.08 0 0 0 2.16 0c0-1.88-.06-3.77-.1-5.65v-1.62a6 6 0 0 1 1.89-1.38 2.14 2.14 0 0 1 3 1.56c.32 2.29-.18 5-.28 7.27-.06 1.39 2.08 1.38 2.16 0 .12-2.18.23-4.41.15-6.6a4.55 4.55 0 0 1 2.29-2.1 3.24 3.24 0 0 1 1.32-.35c1 .08 1.57 1.32 1.71 2.25.31 2.13-.28 4.47-.28 6.61 0 1.41 2 1.35 2.15 0a34.84 34.84 0 0 0 .11-7.36c-.17-1.4-.67-2.78-2.07-3.3zM116.86 60.64a24.46 24.46 0 0 0-4.81.67c-.5.35-.75 1.2.16 1.49a23.64 23.64 0 0 0 4.61 0c1.44-.07 1.48-2.23.04-2.16zM129.41 61c-.13-1.43-.34-3-1.47-4-1.83-1.61-6-.85-7.27 1.14a.76.76 0 0 0 .85 1.1c2.08-.72 5.27-2.07 5.68 1.17 0 .32.07.64.1 1a5.7 5.7 0 0 0-4.81-.92 4.46 4.46 0 0 0-2.92 4.86c.5 3.85 5.39 3.63 8.1 1.62v.4c.1 1.43 2.34 1.43 2.23 0-.15-2.17-.28-4.3-.49-6.37zm-4.49 5c-1.23.36-3.37.38-3.38-1.33 0-3.7 3.89-2.15 5.93-1.23v.66a6.33 6.33 0 0 1-2.55 1.9z" fill="#1e1e1e"/><path d="M184 37.44c-15.5.22-162.65-.54-166.13.53-8.58 2.64-8.28 12.3-8.74 19.57-.37 5.81-1.38 11 .39 20.72.65 3.55 3.79 1.27 5.68-.26a10.57 10.57 0 0 0 3.73-9.69c-1.27-7 .44-14 .68-17.08 1.25 0 17.17-1.24 24.24-.4 8.21 1 87.85 1 96.11.88 13-.12 25.92-.37 38.88-.55 5.83-.08 11.53-13.81 5.16-13.72z" fill="#fff" opacity=".2"/><path d="M189.07 53.44c0-4.33 1.29-13.91-3.85-15.88-6.37-2.44-15.24-.93-21.89-1.05-3.71-.07-136.07-.71-142.24-.36-4.25.24-9 .62-11.37 4.68-2.79 4.78-1.39 10.91-1.44 16.08a.76.76 0 0 0 0 .16c-.19 10-1.18 19.81.91 23.31 1.9 3.17 3.78 3.44 7 3.59 23 1.08 148.07-.23 151.79-.38 6.62-.26 17.95 1 20.54-7.14 1.48-4.56.53-18.56.55-23.01zm-2.15 16.15c0 3 .15 6.46-2 8.76-3.71 3.86-12 2.76-16.87 3-3.32.13-123.64.84-144.74.62-2.81 0-7.12.7-9.83-.26C8.8 80 9.77 71.87 9.64 68.05c-.1-2.88.12-11.08.12-11.14.29-5.2-1.59-14.12 3.83-17.39C18.27 36.7 26.9 37.93 32.24 38l8.53.1c11 .11 93.4.22 104.37.33 8.44.08 16.89.28 25.33.26 4 0 9.24-.61 13.13.64s3.21 7.36 3.3 11c.1 3.78.16 7.44.02 19.26z" fill="#f78100"/><path d="M485.34 171.71c0-8.7-.36-125-.31-133 0-4.89 1.46-11-2-15.07-1.72-2-3.63-2.3-6.07-2.55-4.57-.48-9.21-.58-13.81-.74-8-.27-432.87 0-434.5 0-7.17 0-22-2.39-23.84 7.41a.75.75 0 0 0 0 .26c-.5 5.61-.66 158.87 1.08 161.18 2 2.67 6.46 2.59 9.51 3 4.56.69 454.66 0 460.42-.71 4.08-.54 7.71-1.69 8.76-6s.77-9.27.76-13.78zm-2.25.26c0 .56-.24 8.55-.48 9.77-1 5.18-3.5 7.31-8.4 7.71-5.74.48-11.6.41-17.36.47C454 190 33 191 29.42 191c-2.52 0-5 .06-7.54-.09-5.16-.3-13.38.49-15-5.45-1-3.4-1.08-152.34-.66-157.24 1.83-8.92 19.68-6 26.37-6 .84 0 434.12.4 437.7.59 5.58.28 11.81-.55 12.76 6.79.45 3.46-.16 7.15-.15 10.66.1 43.91.5 87.82.19 131.74z" fill="#1e1e1e"/><path d="M6.21 28.19c1.83-8.92 19.68-6 26.37-6H48q25.86 0 51.74.06l160.75.05h199.1c3.58.06 7.17.23 10.75.42 5.58.28 11.81-.55 12.76 6.8.45 3.45-.16 7.14-.15 10.65.07 43.9.51 87.81.2 131.7v1.7c0 1.36-.16 2.74-.25 4.09a31.48 31.48 0 0 1-.24 4c-1 5.18-3.5 7.31-8.4 7.71-5.74.48-11.6.41-17.36.47h-8.46l-44.76.09q-78.4.16-156.81.35-79.26.18-158.51.4-24.07.06-48.14.19c-3.59 0-7.17 0-10.75.05-2.52 0-5 .06-7.54-.09-5.16-.3-13.7.22-15.36-5.73-.95-3.4-.53-7.51-.54-11-.16-43.69 0-87.39.1-131.08 0-5-.33-10.16.12-15.13.08-.91-1.33-.9-1.41 0-.52 5.63-.15 11.46-.19 17.1q-.12 19.2-.2 38.41-.18 39.5-.31 79c0 5.85-.18 11.73 0 17.58.09 2.74 0 6.85 1.77 9.16 2 2.67 6.46 2.59 9.51 3a87.33 87.33 0 0 0 13.71.81c10.13-.06 20.26 0 30.4 0q73.7-.06 147.39-.29l169.79-.38c27.17-.07 54.37.22 81.54-.21 5.8-.1 11.83.15 17.59-.6 4.08-.54 7.71-1.69 8.76-6s.81-9.3.79-13.81q0-13.05-.07-26.09-.11-41.53-.18-83.07c0-7.93-.11-15.87-.06-23.8 0-4.89 1.46-11-2-15.07-1.72-2-3.63-2.3-6.07-2.55-4.57-.48-9.21-.58-13.81-.74-8-.27-16.09-.11-24.13-.11H129.55c-32 0-64 .11-96 .07h-4.87c-7.17 0-22-2.39-23.84 7.41-.24 1.01 1.16 1.42 1.37.48z" fill="#1e1e1e"/></svg>