<svg xmlns="http://www.w3.org/2000/svg" viewBox="0 0 490 216"><path d="M481.75 23c-42.58-7.4-86.08-9.14-128.87-2.66-77.33-1.43-337.35-2.55-339.92 1C6.47 25.71 1.49 37 4.12 43.17 0 64.47 5.82 161.6 2.27 170.26.49 174.58.88 189.62 7.82 190c78.75-6.13 129.68 3 156 2 34.07-9.65 144.92 1.65 306.74.77 24.59 1.27 14.6-62.46 14-85.72-3.1-55.98 7.78-84-2.81-84.05z" fill="#c9c9c9"/><path d="M2.33 103.22c8.14-.22 103.57-5.83 192.18-2.62 2.72-10.5-1.5-70.7-1.17-81.51-24.16.16-114.68 2.09-135.63.29C43.36 15 0 10.4 4.12 43.17c-.34.74-2.75 26.76-1.79 60.05z" fill="#fff"/><path d="M192.44 19.64c-1.41 18.2-.84 36.75-1 55q-.18 23.11-.15 46.23.06 29.83.54 59.69c.06 3 .23 7.42.29 9.74.05 1.63 2.6 1.64 2.55 0-.92-35.28-.91-72.86-.73-108.84.09-20.54 1.29-41.3.43-61.82a1 1 0 0 0-1.95 0zM290.51 20.37c-1 18.21-.09 36.69-.1 54.93q0 23-.13 46.05-.15 29.66-.55 59.3c0 3 0 7.37-.05 9.65a1.28 1.28 0 0 0 2.55 0c.6-35.08.75-72.42.72-108.2 0-20.48.86-41.29-.49-61.73a1 1 0 0 0-1.95 0z" fill="#1e1e1e"/><path d="M482.16 100.35c-27.12-.65-54.27-.5-81.4-.52q-59.33 0-118.64.1-63.1.12-126.22.32-51.06.15-102.12.35l-32.84.12c-4.81 0-10.62-.85-15.37.07a4.82 4.82 0 0 1-.66 0 1.25 1.25 0 0 0 0 2.5q19.7-.09 39.4-.15 48.56-.2 97.11-.36 62.47-.21 125-.37 60.57-.15 121.16-.18c29.23 0 58.47.35 87.7.07h6.92a1 1 0 0 0 0-1.92zM483.74 146.22q-42.25.74-84.51 1-59.79.39-119.6.32-62.83 0-125.69-.21-50.5-.16-101-.4l-32.34-.17c-4.69 0-10.38-.95-15-.08a3.86 3.86 0 0 1-.68 0 1.25 1.25 0 0 0 0 2.5q19.26.12 38.53.21 47.94.24 95.89.38 62.14.19 124.28.23 61 0 121.92-.29c30.16-.17 60.4 0 90.54-1.23l7.67-.32a1 1 0 0 0 0-1.93z" fill="#1e1e1e"/><path d="M163 43.65c-.89-4.93-8-2.34-7.57 1.71.58 6.11.14 27-.06 28.89-.44 6-10.24 6.79-13.63 7-30.42 1.64-54.48 1.64-84.93 1.12-4.09-.07-7.63 8.52-3.11 8.6 18.15.31 39 1 57.15.68 9.06-.18 33.09-.52 40.64-2.31 14.62-3.46 11.89-11.94 11.91-23.28-.02-8.14 1-14.41-.4-22.41z" opacity=".2"/><path d="M44.68 45.92c.28-3.18 2.87-8.06 5.89-9.68 2-1.73 98.5-1.73 103.32 1.74 1.43 1.57 3.82 33.86 0 39.31-2.38 3.36-7.47 3.84-11.86 4-5.24.16-92.07 1.45-93.52.38-3.41-2.51-3.82-4.51-4-8.49s-.1-24.09.17-27.26z" fill="#f78100" opacity=".85"/><path d="M68.47 65a1.05 1.05 0 1 0-1 1.34h.07a1 1 0 0 0 1-1.27zM72.11 55.68c-.27 3.19.33 6.41.18 9.61-.06 1.39 2.09 1.38 2.15 0a73.53 73.53 0 0 0-.44-9.61.94.94 0 0 0-1.89 0zM73 52.74h.07a.94.94 0 0 0 .64-.67 1.51 1.51 0 0 0 .11-.22 1.54 1.54 0 0 0 0-.77.9.9 0 0 0-1.5-.4c-.2.24-.42.37-.52.69a1 1 0 0 0 .1.94 1 1 0 0 0 1.1.43zM81.09 64.5c-1 1.1-1.38-3.24-1.39-3.42-.08-.94-.15-1.88-.2-2.82v-1.62h1.43c1.62 0 1.39-2.59-.3-2.25a8.06 8.06 0 0 1-1.1.13 11.1 11.1 0 0 0-.24-2.44c-.16-.73-1.08-.56-1.31 0a8.49 8.49 0 0 0-.58 2.47h-.62c-1 0-1.34 1.67-.25 1.88.27.05.53.07.8.1 0 .91.08 1.81.13 2.66a19.12 19.12 0 0 0 .72 5.59c.76 2 3.14 2.83 4.48.93.66-.93-.8-2.02-1.57-1.21zM90.44 54.8a5.61 5.61 0 0 0-5.93 3.2 7.52 7.52 0 0 0-.51 1.63.9.9 0 0 0-.09.8 5.23 5.23 0 0 0 2 4.69c2.34 1.71 5.45 1.2 7.67-.44 1.06-.79.08-2.57-1-1.81-1.43 1-3 1.72-4.75 1a3 3 0 0 1-1.88-2.67c2.87 0 5.78-.2 8.64-.34a1.1 1.1 0 0 0 1.06-1.39 6.62 6.62 0 0 0-5.21-4.67zm-4.27 4.34c1.16-3.46 4.82-2.64 6.58-.4-2.2.07-4.4.16-6.58.4zM112.26 54.64a5.42 5.42 0 0 0-5.71 2 3.2 3.2 0 0 0-.85-.93 4.19 4.19 0 0 0-5.78.22 4.4 4.4 0 0 0-.27-.77.7.7 0 0 0-1.2 0c-.63 1.43-.4 3-.4 4.5v5.65a1.08 1.08 0 0 0 2.16 0c0-1.89-.06-3.77-.1-5.65v-1.62a6.16 6.16 0 0 1 1.89-1.4 2.14 2.14 0 0 1 3 1.57c.32 2.29-.18 5-.28 7.27-.06 1.39 2.08 1.38 2.16 0 .12-2.18.23-4.42.14-6.61a4.59 4.59 0 0 1 2.3-2.09 3.42 3.42 0 0 1 1.32-.36c1 .09 1.57 1.32 1.71 2.26.31 2.13-.28 4.46-.29 6.6a1.08 1.08 0 0 0 2.16 0 34.83 34.83 0 0 0 .11-7.36c-.18-1.37-.67-2.76-2.07-3.28zM121.67 59a25.12 25.12 0 0 0-4.81.67c-.5.35-.75 1.2.16 1.49a23.65 23.65 0 0 0 4.61 0c1.44-.07 1.48-2.22.04-2.16zM134.22 59.32c-.13-1.43-.34-3-1.47-4-1.83-1.61-6-.85-7.27 1.14a.76.76 0 0 0 .85 1.11c2.08-.72 5.27-2.07 5.68 1.17 0 .32.07.64.1 1a5.71 5.71 0 0 0-4.81-.92 4.45 4.45 0 0 0-2.92 4.85c.5 3.86 5.39 3.64 8.1 1.63v.4c.1 1.42 2.34 1.43 2.23 0-.15-2.13-.28-4.26-.49-6.38zm-4.49 5.05c-1.23.37-3.37.39-3.38-1.33 0-3.69 3.89-2.15 5.93-1.22v.66a6.4 6.4 0 0 1-2.55 1.89z" fill="#1e1e1e"/><path d="M151.46 36c-15.5.22-94.39-.54-97.88.53-8.58 2.64-8.28 12.3-8.74 19.57-.37 5.82-1.37 11.53.39 21.22.65 3.55 3.79 1.27 5.68-.26a10.57 10.57 0 0 0 3.73-9.69c-1.27-7 .45-14.52.68-17.58 1.25 0 17.18-1.24 24.24-.4 8.22 1 53.78.51 66.74.33 5.84-.08 11.53-13.81 5.16-13.72z" fill="#fff" opacity=".2"/><path d="M156.53 52c0-4.33 1.3-13.92-3.85-15.89-6.37-2.44-15.24-.93-21.88-1-3.71-.07-67.81-.71-74-.36-4.26.24-9 .62-11.38 4.68-2.77 4.75-1.37 10.87-1.42 16.04a.76.76 0 0 0 0 .16c-.19 10-1.18 20.31.91 23.81 1.9 3.17 3.78 3.44 7 3.59 23 1.08 79.81-.23 83.53-.38 6.62-.26 17.95 1 20.54-7.14 1.49-4.51.54-19.06.55-23.51zm-2.15 16.64c0 3 .16 6.47-2 8.76-3.7 3.86-12 2.76-16.86 3-3.33.13-6.64.24-10 .28-21.1.24-73.64 1-76.35.08-4.63-1.65-3.65-9.79-3.79-13.6-.1-2.89.12-11.59.12-11.65.29-5.2-1.58-14.12 3.84-17.39C54 35.26 62.62 36.49 68 36.55c2.85 0 61.54.71 70 .69 4 0 9.23-.61 13.13.64s3.21 7.36 3.29 11c.03 3.79.11 7.95-.04 19.77z" fill="#f78100"/><path d="M485.34 170.27c0-8.7-.36-125-.31-133 0-4.89 1.46-11-2-15.07-1.72-2-3.63-2.3-6.07-2.55-4.57-.48-9.21-.58-13.81-.74-8-.27-432.87 0-434.5 0-7.17 0-22-2.39-23.84 7.41a.75.75 0 0 0 0 .26c-.5 5.61-.66 158.87 1.08 161.18 2 2.67 6.46 2.59 9.51 3 4.56.69 454.66 0 460.42-.71 4.08-.54 7.71-1.69 8.76-6s.77-9.27.76-13.78zm-2.25.26c0 .57-.24 8.55-.48 9.77-1 5.18-3.5 7.31-8.4 7.71-5.74.48-11.6.41-17.36.47-2.82 0-423.85 1.07-427.43 1.1-2.52 0-5 .06-7.54-.09-5.16-.3-13.38.49-15-5.45-1-3.4-1.08-152.34-.66-157.24v-.05c1.83-8.92 19.68-6 26.37-6 .84 0 434.12.4 437.7.59 5.58.28 11.81-.55 12.76 6.8.45 3.45-.16 7.14-.15 10.65.1 43.94.5 87.85.19 131.74z" fill="#1e1e1e"/></svg>