<svg xmlns="http://www.w3.org/2000/svg" viewBox="0 0 490 520"><path d="M2.63 481.15c.59-1.27.41-2.77.48-4.15a13.18 13.18 0 0 0-.42-4.47.71.71 0 0 0-1.36 0A13.19 13.19 0 0 0 .9 477c0 1.38-.13 2.87.46 4.15a.74.74 0 0 0 1.27 0zM5.91 494.24c-.29-1-1.14-1.74-1.4-2.85a36.86 36.86 0 0 0-1.09-4.5c-.22-.59-1.21-.74-1.36 0a9.64 9.64 0 0 0 .63 5.8c.47 1.14 1.25 2.71 2.71 2.46a.75.75 0 0 0 .51-.91zM20.07 496.14c-1.35-.72-3.23-.6-4.73-.8a23.64 23.64 0 0 0-4.9-.22c-.62.05-1.06 1-.35 1.32a13.45 13.45 0 0 0 4.64 1.09c1.57.1 3.68.55 5.16 0a.76.76 0 0 0 .18-1.36zM470.45 495.33c-1.15-.95-3.65-.52-5-.56a21.24 21.24 0 0 0-5.74.42.71.71 0 0 0 0 1.36 21.64 21.64 0 0 0 5.74.41c1.4 0 3.88.39 5-.58a.76.76 0 0 0 0-1.05zM485.58 486.16c-.57.82-.46 2.14-.61 3.09a5 5 0 0 1-1.49 3.3c-1.9 1.67-4.62 1.89-7 2.3-.86.15-.54 1.3.19 1.39 3.21.38 6.18.16 8.55-2.29a6.45 6.45 0 0 0 1.67-3.66c.21-1.22.6-3 0-4.13a.75.75 0 0 0-1.28 0zM485.71 76c-.48 1.24-.19 6.75.18 7.95a.72.72 0 0 0 1.37 0c.36-1.21.65-6.71.17-7.95a.9.9 0 0 0-1.72 0zM482 60.2c1.39 1.52 2.63 2.24 3.21 4.38.45 1.7.52 3.55.81 5.29.11.69 1.21.65 1.36 0 .85-3.7 0-10.45-4.85-10.93-.68-.07-.92.83-.53 1.26zM465 59.36c1.44.83 9.76.78 12 .42.71-.11.65-1.21 0-1.36-2.23-.54-10.53-1.1-12-.34a.74.74 0 0 0 0 1.28zM162.91 58.85c1.38 1.12 4.66.52 6.31.57a33.15 33.15 0 0 0 7-.41.72.72 0 0 0 0-1.37 33.15 33.15 0 0 0-7-.41c-1.66 0-4.93-.55-6.31.57a.74.74 0 0 0 0 1.05zM142.12 58.85c1.12 1.09 10 .58 12.12.16a.72.72 0 0 0 0-1.37c-2.14-.43-11-.94-12.12.16a.76.76 0 0 0 0 1.05zM120.84 59c1.63 1.09 12.31.45 14.88 0a.71.71 0 0 0 0-1.36c-2.57-.4-13.25-1-14.88 0a.75.75 0 0 0 0 1.28zM100.9 58.84c1.21 1.11 10.33.59 12.54.16a.71.71 0 0 0 0-1.36c-2.21-.43-11.32-1-12.54.16a.75.75 0 0 0 0 1zM84.2 58.69c.88 1.18 8.78.76 10.71.31a.71.71 0 0 0 0-1.36c-1.93-.45-9.83-.87-10.71.31a.7.7 0 0 0 0 .74zM67 58.84c.73.87 9.09.59 11 .16a.71.71 0 0 0 0-1.36c-1.95-.43-10.31-.71-11 .16a.76.76 0 0 0 0 1zM49.81 58.84c.73.86 9 .58 11 .15a.7.7 0 0 0 0-1.35c-1.94-.43-10.26-.71-11 .16a.75.75 0 0 0 0 1zM32.86 58.84c.74.87 9.14.59 11.09.16a.72.72 0 0 0 0-1.37c-2-.43-10.35-.71-11.09.16a.78.78 0 0 0 0 1.05zM14.21 59.11c2.45.52 5.15.26 7.65.3a33.66 33.66 0 0 0 5.77-.41.72.72 0 0 0 0-1.37 28.53 28.53 0 0 0-5.77-.5c-2.49 0-5.24-.13-7.65.55a.75.75 0 0 0 0 1.43zM331.7 58.85c1.38 1.12 4.66.52 6.31.57a33.15 33.15 0 0 0 7-.41.72.72 0 0 0 0-1.37 33.15 33.15 0 0 0-7-.41c-1.66 0-4.93-.55-6.31.57a.74.74 0 0 0 0 1.05zM309.91 58.85c1.34 1.11 10.81.58 13.13.15a.71.71 0 0 0 0-1.36c-2.32-.42-11.78-1-13.13.16a.74.74 0 0 0 0 1.05zM288 58.84c1.21 1.11 10.32.59 12.53.16a.71.71 0 0 0 0-1.36c-2.21-.43-11.32-1-12.53.16a.73.73 0 0 0 0 1zM269.69 58.84c.74.87 9.1.59 11 .16a.71.71 0 0 0 0-1.36c-1.94-.43-10.3-.71-11 .16a.77.77 0 0 0 0 1zM253 58.69c.88 1.18 8.78.76 10.71.31a.71.71 0 0 0 0-1.36c-1.93-.45-9.83-.87-10.71.31a.7.7 0 0 0 0 .74zM235.82 58.84c.73.87 9.09.59 11 .16a.71.71 0 0 0 0-1.36c-2-.43-10.31-.71-11 .16a.76.76 0 0 0 0 1zM442.85 58.85c1.35 1.11 10.81.58 13.13.15a.71.71 0 0 0 0-1.36c-2.32-.42-11.78-1-13.13.16a.75.75 0 0 0 0 1.05zM421.08 58.84c1.22 1.11 10.32.59 12.54.16a.71.71 0 0 0 0-1.36c-2.22-.43-11.32-1-12.54.16a.75.75 0 0 0 0 1zM401.85 58.84c1.21 1.11 10.32.59 12.54.16a.71.71 0 0 0 0-1.36c-2.22-.43-11.32-1-12.54.16a.73.73 0 0 0 0 1zM379.81 59c1.34 1 11.54.45 13.94 0a.71.71 0 0 0 0-1.36c-2.4-.41-12.6-1-13.94 0a.76.76 0 0 0 0 1.28zM354 59c2 1.13 6 .42 8.21.47a54.65 54.65 0 0 0 8.68-.43.71.71 0 0 0 0-1.36 53.49 53.49 0 0 0-8.68-.43c-2.24 0-6.18-.67-8.21.47a.75.75 0 0 0 0 1.28zM218.6 58.84c.73.86 9.05.58 11 .15a.7.7 0 0 0 0-1.35c-1.94-.43-10.26-.71-11 .16a.75.75 0 0 0 0 1zM201.65 58.84c.74.87 9.14.59 11.09.16a.72.72 0 0 0 0-1.37c-2-.43-10.35-.71-11.09.16a.78.78 0 0 0 0 1.05zM183 59.11c2.44.52 5.14.26 7.64.3a33.66 33.66 0 0 0 5.77-.41.72.72 0 0 0 0-1.37 28.53 28.53 0 0 0-5.77-.5c-2.49 0-5.24-.13-7.64.55a.75.75 0 0 0 0 1.43zM328.33 496.12c-1.37-1.12-4.65-.53-6.31-.57a33.06 33.06 0 0 0-7 .41.72.72 0 0 0 0 1.37 33.06 33.06 0 0 0 7 .41c1.67-.05 4.93.55 6.31-.57a.74.74 0 0 0 0-1.05zM349.13 496.12c-1.12-1.09-10-.59-12.13-.16a.72.72 0 0 0 0 1.37c2.14.42 11 .93 12.13-.16a.76.76 0 0 0 0-1.05zM370.41 496c-1.64-1.1-12.32-.45-14.88-.05a.72.72 0 0 0 0 1.37c2.56.4 13.24 1.05 14.88 0a.76.76 0 0 0 0-1.28zM390.34 496.12c-1.21-1.1-10.32-.58-12.54-.16a.72.72 0 0 0 0 1.37c2.22.42 11.32.95 12.54-.16a.74.74 0 0 0 0-1.05zM407 496.27c-.87-1.17-8.78-.75-10.7-.31a.72.72 0 0 0 0 1.37c1.92.45 9.83.87 10.7-.31a.72.72 0 0 0 0-.75zM424.22 496.13c-.74-.87-9.1-.59-11-.16a.71.71 0 0 0 0 1.36c1.94.43 10.3.71 11-.16a.77.77 0 0 0 0-1zM440.05 496.28c0-.06 0 0 .06.13a.88.88 0 0 0-.62-.62c-1.46-.49-3.46-.23-5-.28a13.51 13.51 0 0 0-4.06.46.71.71 0 0 0 0 1.36 13.84 13.84 0 0 0 4.06.45c1.52 0 3.52.22 5-.27a.88.88 0 0 0 .62-.62c-.05.36 0-.45-.06-.61zM454.57 496c0-.31-.36-.52-.62-.62-1.38-.48-7.34-.19-8.66.18a.71.71 0 0 0 0 1.36c1.32.37 7.27.66 8.66.18.26-.1.58-.31.62-.62a1.3 1.3 0 0 0 0-.44zM159.54 496.12c-1.37-1.12-4.65-.53-6.31-.57a33.06 33.06 0 0 0-7 .41.72.72 0 0 0 0 1.37 33.06 33.06 0 0 0 7 .41c1.67-.05 4.93.55 6.31-.57a.74.74 0 0 0 0-1.05zM181.33 496.12c-1.34-1.12-10.8-.58-13.12-.16a.72.72 0 0 0 0 1.37c2.32.42 11.78 1 13.12-.16a.74.74 0 0 0 0-1.05zM203.27 496.12c-1.21-1.1-10.32-.58-12.53-.16a.72.72 0 0 0 0 1.37c2.21.42 11.31.95 12.53-.16a.76.76 0 0 0 0-1.05zM221.55 496.12c-.73-.87-9.09-.58-11-.15a.71.71 0 0 0 0 1.36c2 .43 10.31.71 11-.16a.76.76 0 0 0 0-1.05zM238.25 496.27c-.87-1.17-8.78-.75-10.7-.31a.72.72 0 0 0 0 1.37c1.92.45 9.83.87 10.7-.31a.72.72 0 0 0 0-.75zM255.43 496.13c-.74-.87-9.1-.59-11-.16a.71.71 0 0 0 0 1.36c1.94.43 10.3.71 11-.16a.77.77 0 0 0 0-1zM53 496.12c-.66-.86-3.82-.53-5.14-.57a21 21 0 0 0-5.6.41.72.72 0 0 0 0 1.37 21 21 0 0 0 5.6.41c1.32-.05 4.47.29 5.14-.57a.77.77 0 0 0 0-1.05zM35.12 495.79c-1.33-.49-3.24-.24-4.64-.28a12.06 12.06 0 0 0-3.78.45.72.72 0 0 0 0 1.37 12 12 0 0 0 3.78.45c1.4 0 3.31.21 4.64-.28a.9.9 0 0 0 0-1.71zM71.89 496.12c-1.21-1.1-10.32-.58-12.53-.16a.72.72 0 0 0 0 1.37c2.21.42 11.31.95 12.53-.16a.74.74 0 0 0 0-1.05zM89.39 496.12c-1.21-1.1-10.32-.58-12.53-.16a.72.72 0 0 0 0 1.37c2.21.42 11.32.95 12.53-.16a.74.74 0 0 0 0-1.05zM111.44 496c-1.35-1-11.54-.45-13.94-.05a.72.72 0 0 0 0 1.37c2.4.41 12.59.95 13.94 0a.76.76 0 0 0 0-1.28zM137.24 496c-2-1.14-6-.43-8.21-.47a53.43 53.43 0 0 0-8.67.43.71.71 0 0 0 0 1.36 54.58 54.58 0 0 0 8.67.43c2.24-.05 6.18.66 8.21-.47a.75.75 0 0 0 0-1.28zM272.65 496.13c-.73-.87-9.06-.58-11-.16a.71.71 0 0 0 0 1.36c1.93.42 10.26.71 11-.16a.77.77 0 0 0 0-1zM289.59 496.13c-.73-.88-9.14-.59-11.09-.16a.71.71 0 0 0 0 1.36c2 .43 10.35.72 11.09-.16a.75.75 0 0 0 0-1zM308.24 495.86c-2.44-.53-5.15-.27-7.65-.3a32.81 32.81 0 0 0-5.77.41.71.71 0 0 0 0 1.36 28.67 28.67 0 0 0 5.77.51c2.5 0 5.24.13 7.65-.55a.75.75 0 0 0 0-1.43zM2.71 70.32c.51-1.78.1-3.61.42-5.4.53-2.93 3.14-4.45 5.73-5.39.71-.26.67-1.44-.18-1.39-3.17.15-5.94 1.45-7.16 4.56a13.54 13.54 0 0 0-.24 7.62.75.75 0 0 0 1.43 0zM487.44 103c.83-1.45.78-9.76.42-12-.11-.71-1.21-.65-1.36 0-.54 2.23-1.1 10.52-.34 12a.74.74 0 0 0 1.28 0zM486.93 405.1c1.12-1.38.52-4.66.57-6.31a33.15 33.15 0 0 0-.41-7 .72.72 0 0 0-1.37 0 33.15 33.15 0 0 0-.41 7c0 1.66-.56 4.92.57 6.31a.75.75 0 0 0 1.05 0zM486.92 425.89c1.1-1.12.59-10 .16-12.13a.71.71 0 0 0-1.36 0c-.43 2.14-.94 11 .16 12.13a.75.75 0 0 0 1 0zM487 447.17c1.09-1.63.45-12.32 0-14.88a.71.71 0 0 0-1.36 0c-.41 2.56-1.05 13.25 0 14.88a.75.75 0 0 0 1.28 0zM486.92 467.1c1.11-1.21.59-10.32.16-12.53a.71.71 0 0 0-1.36 0c-.43 2.21-1 11.32.16 12.53a.73.73 0 0 0 1 0zM487.26 481.27c.47-1.18.23-3 .27-4.23a9.51 9.51 0 0 0-.45-3.44.71.71 0 0 0-1.36 0 9.74 9.74 0 0 0-.46 3.44c0 1.25-.19 3 .28 4.23a.9.9 0 0 0 1.72 0zM486.93 236.31c1.12-1.38.52-4.66.57-6.32a33.06 33.06 0 0 0-.41-7 .72.72 0 0 0-1.37 0 33.1 33.1 0 0 0-.41 7c0 1.67-.56 4.93.57 6.32a.76.76 0 0 0 1.05 0zM486.93 258.1c1.11-1.35.58-10.81.15-13.13a.71.71 0 0 0-1.36 0c-.42 2.32-1 11.78.16 13.13a.76.76 0 0 0 1.05 0zM486.92 280c1.11-1.21.59-10.32.16-12.53a.71.71 0 0 0-1.36 0c-.43 2.21-1 11.31.16 12.53a.73.73 0 0 0 1 0zM486.92 298.32c.87-.74.59-9.1.16-11.05a.71.71 0 0 0-1.36 0c-.43 2-.71 10.31.16 11.05a.77.77 0 0 0 1 0zM486.77 315c1.18-.87.76-8.77.31-10.7a.71.71 0 0 0-1.36 0c-.45 1.93-.87 9.83.3 10.7a.72.72 0 0 0 .75 0zM486.92 332.19c.87-.73.59-9.1.16-11a.71.71 0 0 0-1.36 0c-.43 1.94-.72 10.3.16 11a.77.77 0 0 0 1 0zM486.93 125.15c1.11-1.34.58-10.8.15-13.12a.71.71 0 0 0-1.36 0c-.42 2.32-1 11.78.16 13.12a.74.74 0 0 0 1.05 0zM486.92 146.92c1.11-1.21.59-10.32.16-12.53a.71.71 0 0 0-1.36 0c-.43 2.21-1 11.32.16 12.53a.73.73 0 0 0 1 0zM486.92 166.16c1.11-1.21.59-10.33.16-12.54a.71.71 0 0 0-1.36 0c-.43 2.21-1 11.32.16 12.54a.75.75 0 0 0 1 0zM487 188.2c1-1.34.45-11.54 0-13.94a.71.71 0 0 0-1.36 0c-.41 2.4-1 12.6 0 13.94a.76.76 0 0 0 1.28 0zM487 214c1.13-2 .42-6 .47-8.22a54.58 54.58 0 0 0-.43-8.67.71.71 0 0 0-1.36 0 53.43 53.43 0 0 0-.43 8.67c0 2.24-.67 6.18.47 8.22a.75.75 0 0 0 1.28 0zM486.92 349.41c.86-.73.58-9.06.15-11a.7.7 0 0 0-1.35 0c-.43 1.94-.71 10.26.16 11a.77.77 0 0 0 1 0zM486.92 366.35c.87-.73.59-9.13.16-11.09a.72.72 0 0 0-1.37 0c-.43 2-.71 10.36.16 11.09a.76.76 0 0 0 1.05 0zM487.18 385c.53-2.44.27-5.14.31-7.65a33.8 33.8 0 0 0-.41-5.77.72.72 0 0 0-1.37 0 28.66 28.66 0 0 0-.5 5.77c0 2.5-.14 5.25.55 7.65a.74.74 0 0 0 1.42 0zM.94 76c-.47 1.25-.19 6.76.18 8a.72.72 0 0 0 1.37 0c.37-1.21.65-6.71.17-7.95A.9.9 0 0 0 .94 76zM2.67 103c.83-1.45.78-9.76.43-12-.11-.71-1.21-.65-1.37 0-.54 2.23-1.1 10.52-.34 12a.74.74 0 0 0 1.28 0zM2.16 405.1c1.12-1.38.53-4.66.57-6.31a33.15 33.15 0 0 0-.41-7 .72.72 0 0 0-1.37 0 33.15 33.15 0 0 0-.41 7c0 1.66-.55 4.92.57 6.31a.75.75 0 0 0 1.05 0zM2.16 425.89c1.09-1.12.58-10 .16-12.13a.72.72 0 0 0-1.37 0c-.43 2.14-.94 11 .16 12.13a.76.76 0 0 0 1.05 0zM2.27 447.17c1.09-1.63.45-12.32 0-14.88a.72.72 0 0 0-1.37 0c-.4 2.56-1 13.25 0 14.88a.75.75 0 0 0 1.28 0zM2.16 467.1c1.1-1.21.58-10.32.15-12.53a.71.71 0 0 0-1.36 0c-.43 2.21-.95 11.32.16 12.53a.74.74 0 0 0 1.05 0zM2.16 236.31c1.12-1.38.53-4.66.57-6.32a33.06 33.06 0 0 0-.41-7A.72.72 0 0 0 1 223a33.1 33.1 0 0 0-.41 7c0 1.67-.55 4.93.57 6.32a.76.76 0 0 0 1.05 0zM2.16 258.1c1.11-1.35.58-10.81.16-13.13A.72.72 0 0 0 1 245c-.42 2.32-1 11.78.16 13.13a.76.76 0 0 0 1.05 0zM2.16 280c1.1-1.21.58-10.32.16-12.53a.72.72 0 0 0-1.37 0c-.42 2.24-.95 11.34.16 12.53a.74.74 0 0 0 1.05 0zM2.15 298.32c.87-.74.59-9.1.16-11.05a.71.71 0 0 0-1.36 0c-.43 2-.71 10.31.16 11.05a.77.77 0 0 0 1 0zM2 315c1.18-.87.76-8.77.31-10.7a.71.71 0 0 0-1.36 0c-.45 1.93-.87 9.83.31 10.7a.7.7 0 0 0 .74 0zM2.15 332.19c.87-.73.59-9.1.16-11a.71.71 0 0 0-1.36 0c-.43 1.94-.71 10.3.16 11a.77.77 0 0 0 1 0zM2.16 125.15c1.11-1.34.58-10.8.16-13.12A.72.72 0 0 0 1 112c-.42 2.32-1 11.78.16 13.12a.74.74 0 0 0 1.05 0zM2.16 146.92c1.1-1.21.58-10.32.16-12.53a.72.72 0 0 0-1.37 0c-.42 2.22-.95 11.32.16 12.53a.74.74 0 0 0 1.05 0zM2.16 166.16c1.1-1.21.58-10.33.15-12.54a.71.71 0 0 0-1.36 0c-.43 2.22-.95 11.32.16 12.54a.76.76 0 0 0 1.05 0zM2.27 188.2c1-1.35.45-11.54 0-13.94a.71.71 0 0 0-1.36 0c-.41 2.4-.95 12.59 0 13.94a.76.76 0 0 0 1.28 0zM2.27 214c1.14-2 .42-6 .47-8.22a54.58 54.58 0 0 0-.43-8.67.71.71 0 0 0-1.36 0 54.58 54.58 0 0 0-.43 8.67C.57 208-.15 212 1 214a.75.75 0 0 0 1.28 0zM2.15 349.41c.86-.73.58-9.06.16-11a.71.71 0 0 0-1.36 0c-.43 1.94-.71 10.26.16 11a.76.76 0 0 0 1 0zM2.15 366.35c.88-.73.59-9.13.16-11.09a.71.71 0 0 0-1.36 0c-.44 2-.72 10.36.15 11.09a.76.76 0 0 0 1 0zM2.42 385c.53-2.44.27-5.14.3-7.65a33.8 33.8 0 0 0-.41-5.77.71.71 0 0 0-1.36 0 28 28 0 0 0-.51 5.77c0 2.5-.13 5.25.55 7.65a.75.75 0 0 0 1.43 0z" fill="#919191"/><path d="M476.47 108.78c1.59-4.27 2.71-14.32-4.35-14.61-20.35-.85-136.79-.42-172.86-1.49-58-1.71-242.79.94-276 .27-7-.14-18 6-13.1 26.67-.09.65-1.3 19.73-1.85 28.63C8.1 152 10.28 155.3 14 156c21.1 3.8 42.5 2.56 63.81 2.11s34.18-1.34 55.27.51c42.88 3.78 93.41-.67 136.3-.56 8.19 0 57.95 2.62 75.11.52 3.37-.41 6.88-.1 9.15-3.3l89.74 3.39c12.18.46 24.72 2.78 33.45-7.8 5.41-11.45-.41-41.95-.36-42.09zM476.47 255.45c1.59-6.74 2.71-23.62-4.35-24.09a523 523 0 0 0-61.08 0c-2.23.12-4.28 1.7-6.11 3.44-47.36-13.8-348.46-3.31-381.65-4.37-7-.22-12 7.69-14.17 17.13-1.3 5.51-2.84 21.08 1.07 25-.09 1-1.3 31.19-1.85 45.25C8.1 323.73 10.28 329 14 330c21.1 6 105.86 2.87 127 5.8 42.88 6 85.54-2.64 128.43-2.47 8.19 0 57.95 5.64 75.11 2.32 3.37-.65 6.88-1.73 9.15-6.79l89.74 5.36c12.18.73 24.72 4.38 33.45-12.33 4.95-9.55-.46-66.22-.41-66.44z" fill="#fff"/><path d="M190.24 93.57c-1.08 6.28-.57 13.1-.63 19.45-.06 6.77-.05 13.55 0 20.32 0 7.55.19 16.78.31 23.57a1.28 1.28 0 0 0 2.55 0c-.11-6.6-.16-15.58-.23-22.94q-.09-10.12-.08-20.26c0-6.52.73-13.4 0-19.88-.11-1-1.71-1.44-1.91-.26zM289.8 93.86c-.55 3.12-.28 6.42-.3 9.58q-.09 10.91-.14 21.8c-.05 10.37 0 22.67-.06 32.12a1.28 1.28 0 0 0 2.55 0c0-9.45.1-21.75.1-32.12v-21.8c0-3.16.28-6.46-.25-9.58a1 1 0 0 0-1.88 0z" fill="#1e1e1e"/><path d="M478.38 117.33c-.08-8.42 3.15-22.66-8.21-23.8-6.71-.68-13.52-.82-20.26-.85-24.56-.11-49.13 0-73.69 0H103.84c-22.41 0-44.83.13-67.24.07-3.42 0-6.84-.06-10.26 0-6.17.15-14.84-.29-16.3 7.38a.75.75 0 0 0 0 .26c-.89 9.57-.38 19.45-.47 29.06-.07 7.25-1.07 15.74.68 22.81 1.48 6 8 5.61 13.3 6.21a85.08 85.08 0 0 0 10 .43H94.4q61.31 0 122.59-.17 114.81-.24 229.61-.51a189 189 0 0 0 20.33-1c4.71-.53 9.62-.53 10.93-5.83s.78-11.37.72-16.81l-.2-17.25zm-5.17 36.57c-2.65 1.36-16.41 1.86-19.72 2-10.08.36-73.49.23-95.09.28-35.29.07-197.94.45-244 .66q-31.32.13-62.64.3c-5.75 0-11.5 0-17.25.1h-1s-16.59-1-18.78-1.81c-2.58-1-2.87-2.81-3.26-5.26-1.15-7.24-.43-15.22-.39-22.52.05-8.91-.48-18.09.32-27v-.06c1.81-8.79 18-6 24.72-6h168.26l234.23.06c6.91 0 27.27.49 30.53.78 2 .18 3 .17 4.63 1.48 3.12 2.56 2.48 6.85 2.36 10.47-.13 3.85.08 22.38.12 27.8.11 5.24 1.37 16.46-3.04 18.72z" fill="#1e1e1e"/><path d="M479.51 433.81c-.82-4.29-2.55-14.91-3.2-16.42.05-.11.11-.23.16-.35 1.59-3.6 2.71-12.08-4.35-12.33-20.35-.72-65.36.39-67.19 1.32-36.08-.69-72.16-3-108.23-3.91-58-1.45-115.87 2.51-173.84 2.62-33.2.07-66.39-.5-99.58-1.06-7-.12-20.52 9-13.1 22.52-.09.55-1.3 16.67-1.85 24.18-.23 3.16 1.95 5.95 5.66 6.52 21.1 3.21 105.86 1.53 127 3.1 42.88 3.19 186.38 1.69 203.54-.08 3.37-.35 6.88-.92 9.15-3.63l89.74 2.86c41.71 6.85 37.33-18.79 36.09-25.34z" fill="#fff"/><path d="M190.24 404.64c-1.85 11.41-.71 23.94-.65 35.48 0 6.2.19 13.81.31 19.37a1.28 1.28 0 0 0 2.55 0c-.12-5.31-.16-12.73-.23-18.69s-.09-11.79-.08-17.69.62-12.26 0-18.21c-.1-1-1.72-1.44-1.91-.26zM289.8 404.93c-.55 2.68-.28 5.55-.3 8.26q-.09 9.44-.14 18.88c-.05 9 0 19.78-.06 27.87a1.28 1.28 0 0 0 2.55 0c0-8.09.1-18.91.1-27.87v-18.51c0-2.83.3-5.84-.25-8.63a1 1 0 0 0-1.88 0z" fill="#1e1e1e"/><path d="M478.52 435.56c-.06-4.76-.22-9.53-.2-14.3 0-5.3 1.57-13.84-5-16.19-5.32-1.92-12.75-1.07-18.32-1.23-2.36-.07-4.71-.09-7.07-.09H101.24c-21.56 0-43.12.12-64.67.07-3.4 0-6.79-.07-10.19 0-6.18.15-14.84-.28-16.3 7.39a.7.7 0 0 0 0 .25c-.88 9.42-.41 19.09-.52 28.54-.09 6.45-1.87 17.18 6.16 18.81a87.43 87.43 0 0 0 18.18 1.64h63.59c41 0 273.75-.48 349.12-.66a184 184 0 0 0 20.33-1c4.63-.52 9.52-.51 10.91-5.67 1.41-5.34.75-11.94.67-17.56zm-5.67 20c-2.64 1.26-6.55 1.09-9.44 1.32-3.3.28-6.61.45-9.92.56-9.76.35-19.57.12-29.34.14l-64.06.14c-35 .07-196.5.45-242.28.66-21.33.1-87.92.48-89.78.4-4.13-.19-10.14 0-13.91-1.93-3.17-1.6-2.93-6.83-3-9.91-.12-2.77 0-5.55 0-8.32.06-8.89-.43-18 .38-26.89v-.06c1.83-8.9 18.93-6 26.05-5.94h8.05l34.94.05q59.5 0 119 .05H434.26c5.65 0 26.71.26 31.58.55 3.15.18 7.2-.19 9.26 2.75 2.26 3.22 1 8.9 1 12.62 0 4.87.12 9.74.18 14.6.08 5.48 1.47 16.87-3.43 19.22zM189.74 229.77c-1.12 8.21-.56 16.84-.61 25.11-.07 11.44-.06 22.88 0 34.31 0 14.09.18 29.76.3 43.11a1.28 1.28 0 0 0 2.55 0c-.12-13.15-.16-28.65-.24-42.53q-.09-16.9-.09-33.81c0-8.58.68-17.38 0-25.93-.07-1-1.75-1.42-1.91-.26zM289.76 230.31c-1.21 11.24-.34 23-.38 34.28l-.23 54.84c0 4 .05 9.74 0 12.87a1.28 1.28 0 0 0 2.55 0c.08-28.6.18-59.67.18-89.12a128.48 128.48 0 0 0-.21-12.87 1 1 0 0 0-1.95 0z" fill="#1e1e1e"/><path d="M478.52 296.34q-.09-18.63-.16-37.28c0-3.78-.07-7.56-.05-11.35 0-5 1.5-11.33-2-15.42s-12-3-16.88-3.16c-2.87-.11-5.75-.22-8.63-.25H264.18L114.8 229c-26 0-52 .14-77.95.07-2.6 0-5.2-.05-7.8 0-6.54.07-17.39-1.09-19 7.41a.75.75 0 0 0 0 .26c-.69 7.52-.24 15.29-.3 22.83q-.15 19.32-.24 38.65-.06 9.24-.13 18.46c0 3.83-.7 11.32 2.48 14.24 2.31 2.12 7.62 2.1 10.57 2.47a83.22 83.22 0 0 0 11 .57H82.06q60.41 0 120.81-.19l239.7-.54a221.3 221.3 0 0 0 24.29-1c5.87-.66 10.25-.85 11.09-7.47 1.23-9.42.61-19.09.57-28.42zm-2.21 1.77c0 4.45.07 15.3 0 16.27-.07 3.16.49 12.23-2.5 14.15-2.32 1.49-6.62 1.29-9.26 1.53-3.69.34-7.4.53-11.1.66-11 .4-78.93.25-101.81.3-37.3.07-204.46.44-250.75.65-18.68.08-63.49.28-67.21.34h-.18c-5.86.06-12.41.06-18.07-1.65-5.48-1.66-4.33-10.51-4.29-15.27.13-19.3-.29-71.54.3-78.23v-.06c1.81-8.82 18.08-6 24.77-5.95l53.72.07h282.28c25.95 0 86.22.22 89.79.38 3.12.14 7.62-.34 10.57.85 5.65 2.28 3.53 11.63 3.55 16.78.03 4.4.15 37.13.19 49.18z" fill="#1e1e1e"/><path d="M191.13 107.57c.21-4.36-5.27.18-5.4 3-.31 6.49 1.29 38.35-1 40.26-3.42 3-144.74 2.31-159.55.94-2.89-.27-5.89 6.55-2.58 6.86 14 1.3 124.92.38 139.13.31 7.42 0 19.52 1.74 25.27-3.05 8.4-5.89 3.74-40.1 4.13-48.32z" opacity=".2"/><path d="M186 146.18c-.19 2.55-.75 4.57-2.87 5.87-.53.32-157.31.15-160.91 0-1.55-.07-6.06 0-7.05-3.24-1-1.26-.41-44.49.51-46 1.66-2.7 5.75-3.09 8.83-3.2 3.68-.12 150.11-2 158.27.3 2.4 2 3.68 7.63 3.78 10.82s-.42 32.9-.56 35.45z" fill="#f78100" opacity=".85"/><path d="M181.38 100.18c-3.86-1.58-158-.28-160.08.57-4.13 1.69-4.78 5.79-5.16 9.77a358.45 358.45 0 0 0-1.48 39.32c.07 4.41 5.45-.14 5.4-3-.18-10.87.71-38.74 1.78-39.91s28.84-1.23 39.49-1.28c25.69-.14 97.65.72 100.61.69 4.78-.06 11.18-1.51 15.69.34 2.91 1.19 6.48-5.38 3.75-6.5z" fill="#fff" opacity=".2"/><path d="M186.62 138.36c.13-6.06.47-12.13.49-18.2 0-3.71-.07-16.14-1.07-18.22-1.52-3.19-5.78-3.19-8.87-3.51-10.59-1.1-148.84-.19-152.71.06-3.44.22-8.34.27-9.73 3.93-2 5.24-1.22 12.45-1.25 17.94 0 4-.32 21.71.2 26.58.41 3.92 1.38 5.47 5.44 6 10.65 1.32 66.14.49 82.94.42 16.29-.06 71.73-.25 75.74-.43 1.79-.09 4.85.37 6.43-.56 4.05-2.38 2.41-10.28 2.42-13.84a.7.7 0 0 0-.03-.17zm-4.33 12.41c-2.32.9-14.45.33-17.19.32-3.19 0-104.29.6-130.6.38-1.32 0-10.75-.29-14.13-.6-4.52-.42-4.6-3.22-4.71-7.25-.2-7.71.23-28.3.33-30.82.12-3.09-.74-9.4 2.5-11.06 4.44-2.28 12.23-1.29 17.08-1.36 2.64 0 67.85-.13 97.82-.22 7.71 0 31.41 0 35.55-.14s12.06-.9 14.82 2.43c2.06 2.48 1.73 15.49 1.74 18.14 0 3.24-.24 15.09-.3 17.77a.7.7 0 0 0 0 .14c-.2 3.5 1.31 10.63-2.91 12.27z" fill="#f78100"/><path d="M291.69 133.14c.12-9-.89-17.88-.53-27 .18-4.36-5.29.18-5.4 3-.32 7.73 2.07 39.16-2 41-2.81 1.26-56.64.86-80.09.9-2.92 0-5.78 6.86-2.58 6.86 24.61 0 49.43.88 74-.37 5.25-.27 10.54-.27 13.73-5.11 3.53-5.3 2.79-13.24 2.87-19.28z" opacity=".2"/><path d="M196.69 100.79c3-2.46 84.82-3.14 87.87-.12 2.26 3.7 1.94 47 1 48.51-3.34 4.47-81.81 3.19-88.48.9-3.31-1.93-3.37-46.84-.39-49.29z" fill="#f78100" opacity=".85"/><path d="M284.35 101.48c-9.72-4.34-84-2.08-86.74.57-5 4.87-3.87 37-.93 45.26 1.53 4.34 7.37-2.17 6.24-5.37-2.63-7.43-2.48-15.07-2.22-22.84.08-2.24.17-4.48.17-6.73a38 38 0 0 1-.3-4.49c.23.16 16.87-.89 24.36-1q12.91-.18 25.84-.11c9.39 0 20.42-1.37 29.08 2.49 3.43 1.54 7.77-6.32 4.5-7.78z" fill="#fff" opacity=".2"/><path d="M287.1 109.12c-.23-3.53.23-9-3.87-10-5-1.26-10.79-.78-15.87-.85-7.3-.11-14.62 0-21.92 0h-29.29c-4.9 0-9.79.41-14.66.87-1.32.13-3.58-.05-4.8.67-2.52 1.48-2 4.92-2 7.35v.13c-.67 9.85-.43 19.8-.77 29.66-.12 3.58-.83 12.34 2.88 14.44 1.82 1 5 .87 7 1a73.62 73.62 0 0 0 8.91.17c17.46-.91 34.95.52 52.39-.11 5.7-.21 11.41-.1 17.1-.37 5-.24 5.08-3.72 5.13-8.1.09-11.6.55-23.3-.23-34.86zm-1.69 23.82c-.13 3.41-.34 6.83-.37 10.25 0 3.18.56 6.05-3.34 6.61-5.19.75-46.33 0-61.45.09-4.72 0-9.39.59-14.13.38-2.3-.09-7.35.38-8.85-1.4-2.2-2.63-1.51-9.66-1.45-12.88.2-9.55-.23-19.16.27-28.71a.74.74 0 0 0 0-.14c.11-1.56.13-5 1.58-5.75a8.29 8.29 0 0 1 2.42-.27c2.78-.26 13.84-.88 16.58-.88 7.59 0 51.92.12 54 .17 2.68.07 5.35.12 8 .29 3.26.21 5.07-.14 5.73 3.26 1.08 5.52.37 11.13.66 16.7.21 4.11.51 8.18.35 12.28z" fill="#f78100"/><path d="M291.89 241.63c-.05-4.41-5.44.14-5.41 3 .31 23.34.41 74.35 0 76.37-.41 2.37-6.46 5.82-5.77 5.78-2.67.39-65.5-.24-74.91-.2-2.93 0-5.79 6.88-2.58 6.86 22.39-.1 72.69.05 75.27-.33a15.92 15.92 0 0 0 13.35-14.19c1.16-13.35.21-65.01.05-77.29z" opacity=".2"/><path d="M196.31 235.64c1.84-1.09 85.43-3.59 89.19 1.68 2.17 2.47 1.59 84.84 0 87.66-2.41 3.85-83.29 2.17-86.77 1.21-1.27-.35-2.21-2.11-3.22-3-2.38-1.98-2.24-86.31.8-87.55z" fill="#f78100" opacity=".85"/><path d="M283.61 236.63c-15.52-.22-76.74-2.11-83.08-.22-2.77.82-5.4 3.9-4.48 6.79a13.47 13.47 0 0 0-1.44 3.05c-.91 2.8 0 68.63 1.54 75.52.8 3.62 5.8-1.75 5.21-4.48-2.66-12.16-1.64-52-1.73-58.87-.06-4.59-.74-13.64 3.43-15.26s32.73 0 38.48 0c13.16.1 26.32.15 39.49.33 2.97.04 5.8-6.82 2.58-6.86z" fill="#fff" opacity=".2"/><path d="M287.66 283.18c-.14-11.42-.51-22.86-.24-34.29.08-3.28 1.09-8.28-.4-11.31-1.2-2.45-4.67-3.14-7.16-3.5-5.43-.78-11.3-.14-16.84-.14-14.34 0-54.38 0-60.06.23-2 .08-6.31-.62-7.78 1.13-1.73 2.07-1.24 10.77-1.23 10.82-.64 10.85-.85 55.64-.52 67.11.1 3.51-.38 7.78 1.24 11 1.38 2.76 3.57 2.84 6.39 3.16 5.06.58 64.05.87 68.41.71 4.16-.16 10.56.87 14.48-1 3.18-1.55 3.82-5.43 4.05-8.64.83-11.55-.19-23.7-.34-35.28zm-1.88 33.92c-.13 3.41-.49 7.37-4.55 8.33-2.56.61-75.89.16-79.07-.16-2.69-.27-4.68 0-5.82-3-.92-2.42-.58-5.56-.65-8.1-.35-11.62-1-57.08-.32-68.09v-.13c.25-2.53-.06-8.28 1.9-9.62 1.79-1.22 7.67-.33 10-.4 4.23-.13 56.26 0 59.94.08 3.23 0 6.48-.15 9.71 0 2.43.1 6.89.23 8.26 2.89.92 1.79.23 6.09.18 8-.21 9.78.57 66.22.42 70.2z" fill="#f78100"/><path d="M478.24 106.53c-.24-4.43-5.57.12-5.41 3 .35 6.32-.16 26.13-.19 29.78 0 2.84.24 9.76-2.58 11-1.72.74-148.26.49-161.76.66-2.92 0-5.77 6.9-2.58 6.86 26.85-.34 129.61 1 154-.83 4.84-.37 10.44-.14 14.32-3.62 5.75-5.21 4.71-37.49 4.2-46.85z" opacity=".2"/><path d="M297.28 100.22c4-1.56 173.13-2.57 174.31.3 1 1.26 1.94 46.42 1 47.9-1.67 2.7-6.25 2.08-9.34 2.19-3.68.13-163.53 2-166.24-.29-2.36-2.02-3.52-47.06.27-50.1z" fill="#f78100" opacity=".85"/><path d="M466.66 100c-13.25-.37-112.93 1.87-135.7 1.55-3.37 0-20.46-2.24-24.83-.78a2.15 2.15 0 0 0-.36-.11c-8.25-1.86-8.18 12.79-8.56 17.39-.8 9.37-2.78 21.72 1.36 30.52 1.3 2.77 5.9-3 4.65-5.66-2.47-5.25-1.46-13.31-1.21-18.95.14-3 1.13-14.46 1.15-14.69a6.57 6.57 0 0 0 3.24-2.72c3.35-.38 13.22 1.58 14.2 1.63 3.34.19 30.31.23 40.46.1 20.59-.27 89.31-1.8 103-1.42 2.94.14 5.84-6.76 2.6-6.86z" fill="#fff" opacity=".2"/><path d="M472.84 100.59c-1.4-2.67-5.28-2.46-7.9-2.54-28.3-.88-118.28 0-134.89 0h-16.46c-3.63.09-7.28.43-10.9.72-1.61.13-4 0-5.46.74-4.55 2.46-2.6 11.76-2.61 15.58a.66.66 0 0 0 0 .15c-.21 8.26-.44 16.42-.22 24.68.07 2.91-.68 9.38 2.37 11.18s9.82 1 13.38 1c11.51 0 23 .15 34.55.13q50.17 0 100.35-.16c2.9 0 5.8 0 8.71-.07 5-.13 11.06.74 16-.33 3.73-.82 3.86-4.82 4-8.06.43-9-.15-17.85-.1-26.85.06-4.52 1.41-11.92-.82-16.17zm-1.3 43.1c-.18 3.22-.16 5.48-3.81 5.85-2.7.27-5.52.1-8.23.15-3.82.07-7.64.17-11.46.18q-45.29.06-90.56.18c-10.61 0-21.27.4-31.87.16-7.86-.18-15.74.32-23.6-.16-2.92-.18-4.68.16-5.42-3.06-.8-3.4-.51-7.29-.64-10.77-.14-4-.15-7.92-.07-11.92.06-3 .11-6 .19-9v-.16c.14-3.7-1-9.52 1.31-12.69 1.59-2.19 5.06-1.72 7.72-1.89 3.63-.23 7.25-.49 10.89-.5h52c30.51 0 61-.06 91.55.08 2.52 0 8.18-.65 10.24.58 3.59 2.16 1.57 14.12 1.62 17.72 0 3.41.3 6.84.45 10.25.29 5-.05 10.03-.31 15z" fill="#f78100"/><path d="M477.45 241.06c-.16-4.42-5.51.13-5.41 3 .41 11.49.41 77.81.1 78.57-1.51 3.7-7.14 3.51-10.36 3.73-15.9 1-137.22.87-153.92.57-2.92-.06-5.81 6.8-2.58 6.86 35.47.63 149 .13 158.2-.94 17.88-.69 14.28-13.65 14.48-18.32.39-9.53.04-58.53-.51-73.47z" opacity=".2"/><path d="M296.52 235.16c2.93-1.28 173.65-1.79 175.29.33 1 1.26 1.39 87.63.48 89.11-1.67 2.69-16.65 2.36-20.33 2.48 0 0-153.6.18-154.62-.68-.27-.22-2.25-4-2.25-4s-.46-86.09 1.43-87.24z" fill="#f78100" opacity=".85"/><path d="M467.35 236c-14.26-1-132.72 1.14-147.52.69-5.27-.16-12.16-2.38-17.26-.55-3.66 1.3-4.72 4.77-5.24 8.24-2 13.3-1.67 70.1-.64 77.68.6 4.42 5.8-.11 5.41-3-2.07-15.24-.14-75.9.49-77.46 0 1 13.23 1.92 15.73 2 33.32.68 66.73-.74 100.06-1.08 15.42-.15 31-.65 46.39.37 2.91.11 5.86-6.71 2.58-6.89z" fill="#fff" opacity=".2"/><path d="M474 304.6c0-2.58-.06-5.18-.1-7.76q-.21-16.66-.41-33.32c-.1-8.58 1-17.74-.13-26.21-.7-5.37-5-3.88-9.57-4-3.63-.09-7.27-.24-10.9-.28-14.81-.14-29.63.11-44.43.17l-67.3.26-21.56.09h-4.17c-2.55 0-5.11-.07-7.66 0-3 .06-7.76-.42-10.67.58-4.55 1.57-2.65 12.51-2.66 16a.76.76 0 0 0 0 .16c-.13 17.25-.4 34.5-.6 51.75 0 4 .1 8.09.18 12.14s-1.34 11.38 3.57 13.08c4.72 1.64 11 1.2 15.89 1.07 3.85-.09 7.66 0 11.49.11 36.83.94 73.81-.1 110.65-.18h25.32c3.19 0 10 .46 12-2.88 1.37-2.36.6-6.42.69-9 .12-3.97.37-7.88.37-11.78zm-2.24 0c0 3.13-.21 6.28-.31 9.42-.09 2.62.87 9.29-1.35 10.85-2 1.41-6.22 1-8.56 1.07-2.8.08-5.59 0-8.38 0H442.8q-55.73.09-111.44.23c-4.33 0-8.66-.21-13-.17a154.54 154.54 0 0 1-16.53-.25c-1.08-.1-3 0-4-.57-2.21-1.32-1.8-5.12-1.81-7.26 0-4.26-.27-8.52-.33-12.78-.26-16.45.1-32.92.15-49.36v-5.53a.47.47 0 0 0 0-.14c.09-2.55-.13-5.12.07-7.67.08-1 .21-5.1 1-6 1.58-1.76 8.64-1 10.8-1 3 0 6 .05 8.95.06h15.87l60.34-.17 53.63-.17c4 0 8 0 12.05.15 3.34.09 6.71 0 10 .26 2 .14 2-.24 2.58 1.74.44 1.44.2 3.47.2 5 0 4.21-.21 8.41-.19 12.62.17 16.52.76 33.07.61 49.64z" fill="#f78100"/><path d="M190.66 241.2c0-4.41-5.44.14-5.4 3 .15 11.46.35 64.81.29 67.76-.08 3.75 1.15 10.11-2.29 12.38-4.81 3.17-139.17 2.45-156.32 2-2.92-.07-5.82 6.78-2.58 6.86 35.55.92 152.08-.3 157.68-2.07 11.83-3.75 8.73-13.49 8.92-22.19.16-7.75-.1-52.94-.3-67.74z" opacity=".2"/><path d="M13.91 243.63c.19-2.55 4.35-7.87 6.94-8.06 1.28-.36 161.42-1.88 163.77 1.59 2.35 6.91 1.46 82.38.55 83.86-1.67 2.7-4.28 5.1-7.37 5.2-3.68.13-154.83 1-155.85.17-5.34-1.58-7.5-8.1-7.6-11.29s-.63-68.92-.44-71.47z" fill="#f78100" opacity=".85"/><path d="M181.4 236.63c-30.25-1.27-131.41-.89-151.67-.43-4.67.11-15.86-2.65-15.07 12-.34 7.25-1.29 55.31.54 71.75.49 4.43 5.73-.11 5.41-3-1.5-13.42-.55-73.74-.48-74.35.46.46 3.21.54 3.05.51 2.47.38 77.38-1.21 112.19-.64 14.47.24 29 .37 43.45 1 2.91.14 5.84-6.7 2.58-6.84z" fill="#fff" opacity=".2"/><path d="M186.73 291.14c0-10.5 0-38.3.05-41.71s.86-9.15-1-12.32c-2.33-4-12.5-2.61-16.09-2.77-1.61-.07-34.76 0-49.75.06-20.48.08-74.55.3-81.1.34s-14.58-1.56-20.6 1c-6.37 2.73-5 10-5.05 15.55a.76.76 0 0 0 0 .16c0 16.06-.15 52.19-.13 54.19.05 5.42-1.34 15.16 3.5 19.15 6 4.95 15.75 2.43 22.7 2.68 2.1.07 4.12.45 6.22.47 35.06.33 114.55-.15 119.22-.22s9.85.12 14.57-.64c7.42-1.19 7.45-6.76 7.68-13.07.31-7.65-.23-15.2-.22-22.87zm-1.93 21.25c-.07 1.81 0 3.75-.2 5.55-.6 4.39-2.59 6.66-6.94 7.07-4.08.4-8.3.39-12.4.46h-9.27q-51.46.09-102.93.22c-3.07 0-6.21.22-9.27 0a69.18 69.18 0 0 0-10-.2c-5.15.4-13 .89-16.42-3.48S15.07 310 15 304.7c-.23-16.2-.2-32.4-.3-48.6v-4.66a.5.5 0 0 0 0-.13c.2-5.54-.93-12.82 6.11-14.25 4.42-.9 9.27-.38 13.76-.35h17.6l55.07-.16 50.28-.17c3.13 0 6.27-.08 9.4 0s6.25.29 9.37.44c4.43.2 7.7-.41 8.18 4.88.3 3.26.18 6.55.17 9.83-.07 15.83-.83 31.85-.15 47.67.19 4.43.51 8.64.31 13.19z" fill="#f78100"/><path d="M191.27 416c-.57-4.42-5.78.12-5.41 3 .28 2.19.31 26.48-.64 31.27a20.71 20.71 0 0 1-4.76 3.18c-3.83 1.58-142.38 1.17-152 1-2.92-.05-5.81 6.81-2.58 6.86 28.36.5 141.34-.76 148.79-1.44 3.51-.32 8.13-.2 11-2.59a16.57 16.57 0 0 0 4.53-6.9c1.33-4.78 1.38-31.94 1.07-34.38z" opacity=".2"/><path d="M14.21 416.9c.19-2.55 3.13-6.5 5.25-7.8 2.62-.55 155.55.27 159.15.45 1.56.07 5.91 3.67 6.92 4.93s.54 34.57-.37 36c-1.67 2.7-5.26 3.08-8.34 3.19-3.68.13-152.84 1.32-156.33.36-1.27-.35-6.25-7.28-6.35-10.48s-.14-24.1.07-26.65z" fill="#f78100" opacity=".85"/><path d="M181.79 409.68c-12.38-.75-56.15 1.47-65.69 1.47-17.57 0-76.3-.48-88-1.74-3.63-.39-7.28-1.68-10 1.35s-3.4 7.63-3.14 11.52c0 .55-.21 17.49.23 25.64.23 4.43 5.56-.12 5.4-3-.52-9.8-.95-19.57.9-29.24.77.09 6.67.87 9 1.06 5.22.44 27.36 1.16 33.2 1.2 7 .06 58.77.14 77.64 0 12.68-.11 25.31-2.16 38-1.39 2.8.17 5.74-6.67 2.46-6.87z" fill="#fff" opacity=".2"/><path d="M187.27 432c-.07-4.94.31-9.91-.27-14.82-.42-3.53-.73-6.12-4.21-7.52-4.67-1.87-10.44-1.59-15.37-1.69-24.81-.54-49.68 0-74.49 0H35.85c-5.78 0-14-1.74-19 1.66-4.68 3.19-3.45 10.11-3.55 14.89a.54.54 0 0 0 0 .19v9.69c0 4.44-.84 9.62.84 13.83 3 7.54 11.31 7.53 18.11 7.45 10.31-.11 130.49-.43 133.31-.48 7.56-.14 20.71 1.87 21.71-8.48.49-4.8.07-9.84 0-14.72zm-2.17 13.46c-.86 6.79-4.59 7-10.12 7.2-3.08.12-13.34.34-15.4.35-27.53.11-109.41.63-122.81.79-4.62.06-10.37.91-14.61-.54-8.35-2.86-7.19-11.32-7.31-18.48q-.09-5-.14-10.08v-.12c.23-3.81-.75-9.91 2.42-12.81 2.73-2.49 8.16-1.83 11.56-1.83 2.2 0 4.4.05 6.6.06 3.08 0 35 .05 47.81.06l79.85.05c3.21 0 6.34.1 9.55.27 2.58.13 5.43 0 7.89.79 4.22 1.44 4.28 4 4.58 7.93.36 4.57 0 9.22 0 13.82.11 4.08.65 8.49.13 12.53z" fill="#f78100"/><path d="M292.24 441.93c-.13-8.77-.45-17.51-.18-26.28.13-4.37-5.32.17-5.41 3-.23 7.39-.15 31.31-.87 33.66-1.85 3.68-76.15 1.45-82.28 1.38-2.92 0-5.8 6.82-2.58 6.86 16.61.2 66.54.78 74.86.17 3.68-.26 8.24-.27 11.33-2.62a20.59 20.59 0 0 0 3.25-4.7c1.83-3.69 1.94-7.4 1.88-11.47z" opacity=".2"/><path d="M286.46 446.47c-.2 2.55.35 5.26-1.77 6.56-2.14 2.18-86.15 2.72-88.34-.59-1-1.26-2.12-35.89 0-39.21 1.67-2.7 5.25-3.08 8.34-3.19 3.68-.13 77.24-.67 79.08.8 4.29 3.65 2.88 33.08 2.69 35.63z" fill="#f78100" opacity=".85"/><path d="M280.88 410.94c-6.84-.48-61.82 0-68.95.15-5.68.15-12.39-.35-14.52 6.23-.2.6-2.37 6.92-2.4 8.69-.14 8.28 1.59 17 2.41 25.21.44 4.43 5.69-.11 5.4-3-.44-4.49-1.57-20-2-22.9l.09-.05a41.6 41.6 0 0 1 7-3.62 8.65 8.65 0 0 0 3.25-3.81c2.17 0 46.87-.94 48.91-1.06 6.26-.37 12 .58 18.22 1 2.92.22 5.88-6.61 2.59-6.84z" fill="#fff" opacity=".2"/><path d="M287.15 438.8a.51.51 0 0 0 0-.13c.19-4 .47-7.88.38-11.86s1.39-13.68-2.6-16.65c-2.73-2-8.6-1.58-11.77-1.72s-6.56.31-9.87.34c-15.63.12-31.28-.4-46.92-.27-5.24 0-10.85-.16-16 .49-6.18.77-6.06 6.18-6.26 11.27-.22 5.61 0 10.87.2 16.43.19 4.65-1.44 10.73.23 15.18 1.46 3.88 7.82 3 11.15 3.14 3.65.16 7.28.37 10.93.37h24.61c8.18 0 16.37-.05 24.55 0 6 0 12 .31 17.91-1 6.36-1.39 3.51-10.77 3.46-15.59zm-1.57 10.2c-.56 4.12-4.33 4-8 4.26-4.07.32-8.19.1-12.27.07-5.92 0-45.1.23-58.74-.42-2.38-.11-7.84.46-9.48-1.35s-.85-6.3-.79-8.66c.09-3.79 0-7.38-.25-11.16-.33-5.43-1.63-18.89 5.24-20.55 2.93-.7 6.8-.15 9.82-.25 1.67-.06 3.35-.14 5-.16 13.84-.13 27.69.16 41.53.2 6.74 0 13.45-.73 20.17-.23 3.74.28 6.31.14 7.44 4.39.95 3.55.48 8 .63 11.65.15 4 0 7.87-.18 11.83v.16c-.2 3.35.3 6.95-.12 10.22z" fill="#f78100"/><path d="M478.59 416.32c0-4.4-5.43.15-5.4 3 .07 9.64.14 19.32-.28 29 0 .19-3.21 4.31-4.12 4.5-3.07.64-152 .85-165.29.8-2.92 0-5.79 6.85-2.58 6.86 29.2.1 58.4.55 87.6.5 13.27 0 26.51-.55 39.78-.76 12.32-.2 25.31 1.27 37.54-.36 5.51-.74 11.21-3.2 12.1-9.15 1.68-11.18.74-23.14.65-34.39z" opacity=".2"/><path d="M297.13 410.91c7.93-3.33 167.33-2.42 174.74.59 2.31 4.19.93 39.1 0 40.58-1.27 2-169.41 4.81-174.81-.6-4.21-3.29-3.42-37.65.07-40.57z" fill="#f78100" opacity=".85"/><path d="M469.08 412.79a22.92 22.92 0 0 0-11.57-1.65 2.84 2.84 0 0 0-1.76 1.06c-1.39-.1-16.58-.37-22.83-.05-4.37.23-8.71.28-13.08.25-11.24-.09-83.34-1.84-108.13-1.51-4.81.06-9.66-.12-12.9 4.26-5 6.76-2.57 28-1.62 35 .6 4.42 5.8-.12 5.41-3-.73-5.35-1-21.56-.72-24.27.09-1.05-.13-3.18.46-4.05s.58-.62 1.92-.9c2.79-.59 88.43 1.16 112 1.37 4.07 0 24.61-.91 30.85-.59s12.49 1 18.78.8c2.16-.12 6.16-5.51 3.19-6.72z" fill="#fff" opacity=".2"/><path d="M474.52 432.74c-.14-2.31-.57-4.45-.53-6.8.07-3.84 1.19-10.83-1.06-14.25s-9.73-2.75-13.16-2.9c-2.23-.1-4.46-.23-6.69-.25h-11.62c-16.13 0-100.44-.18-126.46.09-5.68.06-13.51-.52-18.75 2.14a.68.68 0 0 0-.33.37c-1.64 1.71-1.65 5.15-1.85 7.3-.41 4.35-.43 19.42-.33 22.58.09 3-.27 8.49 2 10.91s7.12 2.46 10.12 2.69c5 .39 20.26.84 23 .84 32.1 0 114.54-.51 123.65-.67 3.69-.06 7.37-.38 11.05-.39 2.24 0 4.95.64 7.07-.35 3.87-1.8 3.31-7.13 3.45-10.7s.65-7.13.44-10.61zm-2.31 2.69c-.13 2.91-.36 11.36-.64 12.54-.69 2.92-3 4.33-6 4.23-10-.35-20.33.37-30.38.42q-47 .25-94 .56c-7.43.05-31.58-.17-36.23-.56a20.58 20.58 0 0 1-5.1-.88c-3.84-1.36-3.94-4.18-4.23-7.79a189.25 189.25 0 0 1-.33-20.49c.08-2.84-.54-9.2 1.7-11.41 3.36-1.55 7.83-1.05 11.43-1.29 2.22-.14 8.15-.23 8.9-.23 4.09 0 109.51-.2 135.84.14 1.89 0 12.45 0 15.35 1 3.82 1.35 3.3 5.39 3.35 8.83.13 4.92.57 10.04.34 14.93z" fill="#f78100"/><path d="M344.45 26.44a.71.71 0 0 0-1.36 0c-.08.45-.14.9-.19 1.35a5.73 5.73 0 0 0-5.28-1.39c-2.35.68-3.28 2.84-3.56 5.11a6.14 6.14 0 0 0 3.17 6.23 5.68 5.68 0 0 0 5.48-.74 6.27 6.27 0 0 1-.26 1.78c-1.11 3.23-5 2.4-7.08 1.16a1 1 0 0 0-1.24 1.6c2.61 2.46 7.74 1.86 9.78-1.13 1.07-1.58.9-3.54.87-5.35a56.3 56.3 0 0 0-.33-8.62zm-6.33 9.5c-1.9-.75-2.6-3-2.32-4.85s1.15-3.26 3.1-3.43c1.62-.14 2.57.85 3.89 1.38-.11 1.81-.06 3.65-.11 5.46v.07c-1.28 1.06-2.86 2.05-4.56 1.37zM354.25 26.1l-.14-.1a1.22 1.22 0 0 0-1.25 0 15 15 0 0 0-2.65 1.78 2.75 2.75 0 0 0-.8-1.61.21.21 0 0 0-.3 0c-1.07 1.17-.68 2.85-.71 4.36 0 2.25-.09 4.51-.2 6.75-.07 1.28 1.94 1.28 2 0 .1-2.26.17-4.49.1-6.75v-.36a10.39 10.39 0 0 1 2-1.35c.75-.37 1.94-.43 2.3-1.27a1.1 1.1 0 0 0-.35-1.45zM358 26.45a.75.75 0 0 0-1 .27l-.06.12a.73.73 0 0 0 .12.85 38.8 38.8 0 0 1-.2 4.44c0 1.83-.05 3.67 0 5.5a1 1 0 0 0 1.9 0v-7.47c-.13-1.03.32-3.09-.76-3.71zM357.65 23.83h.07a.93.93 0 0 0 .55-1.31.88.88 0 0 0-.63-.75c-.92-.27-1.57.93-1.07 1.65a1 1 0 0 0 1.08.41zM372.61 21.76a.72.72 0 0 0-1.41-.19 26.6 26.6 0 0 0-.92 5.41A6.33 6.33 0 0 0 366 25.8a5.62 5.62 0 0 0-4.42 5.67c0 2.37 1.21 5 3.5 6a5.23 5.23 0 0 0 5.37-1.05c0 .42.08.85.13 1.26.12 1.14 1.9 1.19 1.83 0-.3-5.39.29-10.61.2-15.92zm-2.76 12.47a3.25 3.25 0 0 1-4.54 1.34 4.9 4.9 0 0 1-1.89-4.57 3.57 3.57 0 0 1 3.8-3.46 7.08 7.08 0 0 1 2.95 1.39c0 1.65 0 3.3.1 4.92a.66.66 0 0 0-.42.38zM389.77 26.32a8.41 8.41 0 0 0-3.39 0 5 5 0 0 0-4.18 4.83c-.34 4.61 4.74 9.89 8.95 5.86.81-.76-.4-2-1.21-1.21-3.38 3.08-6.64-2.48-5.71-5.47.6-2 2.35-2.32 4.15-2.35 1.17 0 1.63.45 2.64.66a.44.44 0 0 0 .43-.73c-.66-.76-.57-1.32-1.68-1.59zM404.85 29c-.21-2.87-5.1-3-7.07-2.17-2.56 1.11-3.85 5.28-2.78 7.77 1.21 2.81 5.74 4.5 8.29 2.62a6.4 6.4 0 0 0 1.54-8.13.24.24 0 0 0 .02-.09zM403 35.06c-1.79 2-6.13.67-6.35-2.11-.14-1.82.81-4.11 2.67-4.55a5.65 5.65 0 0 1 3.8.47.71.71 0 0 0 .09.65 4.61 4.61 0 0 1-.21 5.54zM417.1 26.7c-1.88-1.47-4.63-.29-6.31 1.33a9.59 9.59 0 0 0-.2-1.29c-.13-.57-.86-.45-1 0a15.33 15.33 0 0 0-.69 5.27 18.86 18.86 0 0 0 .3 5.36c.21.76 1.55.89 1.68 0a36.89 36.89 0 0 0 0-5.36v-2.37c2-1.2 5.37-3.67 6-.07a30 30 0 0 1 0 6.9c-.07 1.31 2.11 1.3 2 0-.16-2.14-.09-4.3-.28-6.44a4.56 4.56 0 0 0-1.5-3.33zM426.61 35.45c-1.06 1.17-1.22-2.59-1.22-2.79 0-1.15 0-2.3-.05-3.45v-.86a6.74 6.74 0 0 0 1.44-.35c.9-.36.9-2-.25-1.86l-1.24.17c0-.91-.11-1.83-.23-2.73s-1.46-.59-1.55.21a25.58 25.58 0 0 0-.16 2.77h-.27c-.47 0-1.88.05-1.61.93v.12a.79.79 0 0 0 .55.54 10.53 10.53 0 0 0 1.29.2v2.31c0 1.68-.29 3.76.4 5.36.8 1.84 3.24 2.37 4.34.55.61-.88-.7-1.94-1.44-1.12zM437.91 27c-1.91-2.26-5.7-1.41-7.5.54a.64.64 0 0 0 .59 1.06c.93-.2 1.73-.74 2.65-1 2.12-.5 3.24.73 3.52 2.64.07.47.12.95.16 1.42-3-1.53-8-1-7.31 3.24a3.7 3.7 0 0 0 3.63 3 5.81 5.81 0 0 0 4-1.43v.69c.09 1.21 2 1.23 1.89 0-.11-2-.23-4.12-.41-6.17a7 7 0 0 0-1.22-3.99zm-3.2 8.91c-1 .25-2.51 0-2.73-1.23-.51-2.82 3.59-2 5.49-1.44l.06 1a9.45 9.45 0 0 1-2.82 1.67zM444.33 27a.7.7 0 0 0-1.39 0 31.12 31.12 0 0 0-.06 5.46c.08 1.47 0 3 .68 4.33a.69.69 0 0 0 1.24-.16c.4-1.44 0-3.06-.12-4.53-.12-1.66-.14-3.37-.35-5.1zM444 23.76a1.28 1.28 0 0 0 .86-.83.82.82 0 0 0-.2-.77.84.84 0 0 0-.93-.35 1.46 1.46 0 0 0-.65.37c-.66.6.06 1.94.92 1.58zM456.5 25.93c-1.86-1.05-4.67.66-6.08 2.55a17.66 17.66 0 0 0-.22-1.78c-.13-.63-1.2-.65-1.3 0a35.21 35.21 0 0 0-.19 5.81c0 1.33-.42 3.62.3 4.78.53.86 2.11.3 1.7-.71-.55-1.31-.12-3.75-.18-5.2v-1.63c1.92-1.12 5.1-3.63 5.87-.61.62 2.39.36 5.54.24 8-.07 1.33 2.13 1.33 2.06 0-.14-2.48-.15-5-.38-7.43-.19-1.42-.46-3.01-1.82-3.78zM466.4 26.15a5.84 5.84 0 0 0-4 7.92c1.58 3.4 6.48 4.42 9.39 2.16.61-.48-.08-1.34-.7-1.2-2.44.53-5.34 1.35-6.93-1.33a3.53 3.53 0 0 1-.32-.75 24.82 24.82 0 0 0 5.43-.38c1.06-.1 3.49.15 3.84-1.27.31-1.25-1.37-3.37-2.19-4.19a4.63 4.63 0 0 0-4.52-.96zm3.92 4.56l-1.78.2a39 39 0 0 0-4.82.32 4.1 4.1 0 0 1 4.46-3.48c1 .16 2.73 1.43 2.78 2.61.04.48.57.21-.64.35zM482.37 26.45c-1.14-.86-3.34.24-4.33 1-.21.16-.43.34-.64.53 0-.25 0-.49-.07-.74a.68.68 0 0 0-1.35 0 35.88 35.88 0 0 0 .3 10.14c.19.95 1.58.68 1.63-.22.07-1.64-.18-3.32-.27-5 0-.65-.07-1.32-.1-2 .73-.19 1.34-1.07 1.94-1.43a5 5 0 0 1 1.35-.55c.54-.13 1.08-.06 1.54-.41a.79.79 0 0 0 0-1.32z" fill="#1e1e1e"/></svg>