<svg xmlns="http://www.w3.org/2000/svg" viewBox="0 0 490 216"><path d="M481.75 24.42c-42.58-7.41-86.08-9.14-128.87-2.66-77.33-1.43-337.35-2.56-339.88.98C6.47 27.1 1.49 38.38 4.12 44.55 0 65.85 5.82 163 2.27 171.65.49 176 .88 191 7.82 191.41c78.75-6.14 129.68 3 156 2.05 34.07-9.65 144.92 1.64 306.74.77 24.59 1.27 14.6-62.46 14-85.72-3.1-56.05 7.78-84.08-2.81-84.09z" fill="#c9c9c9"/><path d="M2.33 105c8.14-.22 103.57-5.83 192.18-2.62 2.72-10.49-1.5-70.7-1.17-81.51-24.16.16-114.68 2.09-135.63.29C43.36 16.8 0 12.16 4.12 44.93c-.34.74-2.75 26.76-1.79 60.07z" fill="#fff"/><path d="M192.44 21.4c-1.41 18.2-.84 36.75-1 55q-.18 23.11-.15 46.23.06 29.85.54 59.69c.06 3 .23 7.42.29 9.74.05 1.64 2.6 1.64 2.55 0-.92-35.27-.91-72.86-.73-108.84.09-20.54 1.29-41.3.43-61.82a1 1 0 0 0-1.95 0zM290.51 22.13c-1 18.22-.09 36.69-.1 54.93q0 23-.13 46.06-.15 29.64-.55 59.29c0 3 0 7.37-.05 9.65a1.28 1.28 0 0 0 2.55 0c.6-35.07.75-72.42.72-108.2 0-20.48.86-41.29-.49-61.73a1 1 0 0 0-1.95 0z" fill="#1e1e1e"/><path d="M482.16 102.11c-27.12-.65-54.27-.5-81.4-.52q-59.33 0-118.64.1-63.1.12-126.22.32-51.06.17-102.12.35l-32.84.12c-4.81 0-10.62-.85-15.37.07a3.62 3.62 0 0 1-.66 0 1.25 1.25 0 0 0 0 2.5l39.4-.15q48.56-.19 97.11-.36 62.47-.21 125-.36Q327 104 387.54 104c29.23 0 58.47.35 87.7.07h6.92a1 1 0 0 0 0-1.93zM483.74 148q-42.25.72-84.51 1-59.79.39-119.6.32-62.83 0-125.69-.21-50.5-.15-101-.4l-32.34-.17c-4.69 0-10.38-.95-15-.08a3.86 3.86 0 0 1-.68 0 1.25 1.25 0 0 0 0 2.5l38.53.22q47.94.22 95.89.38 62.14.19 124.28.22 61 0 121.92-.28c30.16-.18 60.4 0 90.54-1.24l7.67-.32a1 1 0 0 0 0-1.92z" fill="#1e1e1e"/><path d="M195.49 62.77c-.88-4.94-8-2.34-7.57 1.7.58 6.11.14 25-.06 26.9-.43 6-10.24 6.79-13.63 7C143.82 100 51.5 100 21.05 99.46c-4.09-.07-7.64 8.53-3.11 8.61 18.15.31 107.26 1 125.41.67 9.05-.17 33.08-.51 40.63-2.3 14.63-3.44 11.89-11.94 11.92-23.28.02-8.16 1.03-12.39-.41-20.39z" opacity=".2"/><path d="M9 65c.27-3.18 2.87-8.06 5.89-9.68 2-1.73 166.75-1.73 171.58 1.74 1.42 1.57 3.81 31.86 0 37.31-2.37 3.37-7.47 3.85-11.86 4-5.23.16-160.33 1.45-161.78.38-3.4-2.5-3.81-4.5-4-8.48S8.69 68.21 9 65z" fill="#f78100" opacity=".85"/><path d="M63.66 83.11a1.05 1.05 0 1 0-1 1.34h.07a1 1 0 0 0 1-1.27zM67.3 73.79c-.27 3.19.33 6.41.18 9.62-.06 1.38 2.09 1.38 2.15 0a73.69 73.69 0 0 0-.45-9.62.94.94 0 0 0-1.88 0zM68.17 70.85h.07a1 1 0 0 0 .64-.67 1.63 1.63 0 0 0 .11-.23 1.54 1.54 0 0 0 0-.77.9.9 0 0 0-1.5-.39c-.2.24-.42.37-.52.69a1 1 0 0 0 .1.94 1 1 0 0 0 1.1.43zM76.29 82.62c-1 1.09-1.39-3.24-1.4-3.43-.08-.94-.15-1.88-.2-2.81v-1.62h1.43c1.62 0 1.39-2.59-.3-2.25a10 10 0 0 1-1.1.14 11.13 11.13 0 0 0-.24-2.45c-.16-.73-1.07-.56-1.31 0a8.48 8.48 0 0 0-.58 2.48h-.61c-1 0-1.35 1.67-.26 1.87a7.28 7.28 0 0 0 .8.1c0 .91.08 1.81.13 2.66a19.14 19.14 0 0 0 .72 5.6c.76 2 3.14 2.83 4.49.92.65-.93-.8-2.03-1.57-1.21zM85.63 72.92a5.6 5.6 0 0 0-5.93 3.17 7.37 7.37 0 0 0-.49 1.66.89.89 0 0 0-.09.8 5.19 5.19 0 0 0 2 4.68c2.33 1.72 5.44 1.2 7.66-.44 1.06-.78.08-2.56-1-1.8-1.43 1-3 1.71-4.75 1a3 3 0 0 1-1.88-2.68c2.87.06 5.78-.2 8.64-.33a1.12 1.12 0 0 0 1.06-1.4 6.6 6.6 0 0 0-5.22-4.66zm-4.27 4.33c1.16-3.46 4.82-2.64 6.58-.4-2.19.07-4.4.15-6.58.4zM107.45 72.76a5.41 5.41 0 0 0-5.71 2 3.33 3.33 0 0 0-.85-.93 4.2 4.2 0 0 0-5.78.22 4.61 4.61 0 0 0-.27-.76.69.69 0 0 0-1.2 0c-.63 1.42-.4 3-.4 4.49v5.65a1.08 1.08 0 0 0 2.16 0c0-1.88-.06-3.77-.1-5.65v-1.62a6.16 6.16 0 0 1 1.89-1.39 2.15 2.15 0 0 1 3 1.57c.32 2.29-.18 5-.28 7.27-.06 1.39 2.08 1.38 2.16 0 .12-2.18.23-4.41.15-6.6a4.55 4.55 0 0 1 2.29-2.1 3.42 3.42 0 0 1 1.32-.36c1 .09 1.57 1.33 1.71 2.26.31 2.13-.28 4.46-.28 6.61 0 1.41 2 1.35 2.15 0a34.84 34.84 0 0 0 .11-7.36c-.17-1.4-.67-2.78-2.07-3.3zM116.86 77.12a24.46 24.46 0 0 0-4.81.67c-.5.35-.75 1.2.16 1.49a23.64 23.64 0 0 0 4.61 0c1.44-.07 1.48-2.23.04-2.16zM129.41 77.43c-.13-1.43-.34-3-1.47-4-1.83-1.61-6-.85-7.27 1.14a.76.76 0 0 0 .85 1.1c2.08-.72 5.27-2.07 5.68 1.17 0 .32.07.64.1 1a5.7 5.7 0 0 0-4.81-.92 4.46 4.46 0 0 0-2.92 4.86c.5 3.85 5.39 3.63 8.1 1.62v.4c.1 1.43 2.34 1.43 2.23 0-.15-2.12-.28-4.25-.49-6.37zm-4.49 5.06c-1.23.36-3.37.38-3.38-1.33 0-3.7 3.89-2.16 5.93-1.23v.66a6.33 6.33 0 0 1-2.55 1.9z" fill="#1e1e1e"/><path d="M184 55.11c-15.5.22-162.65-.54-166.13.53-8.58 2.64-8.28 12.3-8.74 19.58-.37 5.81-1.38 9.52.39 19.21.65 3.55 3.79 1.28 5.68-.25a10.59 10.59 0 0 0 3.73-9.7c-1.27-7 .44-12.52.68-15.58 1.25 0 17.17-1.24 24.24-.39 8.21 1 87.85.95 96.11.87 13-.12 25.92-.36 38.88-.55 5.83-.08 11.53-13.83 5.16-13.72z" fill="#fff" opacity=".2"/><path d="M189.07 71.12c0-4.33 1.29-13.91-3.85-15.89-6.37-2.44-15.24-.93-21.89-1-3.71-.06-136.07-.71-142.24-.36-4.25.24-9 .63-11.37 4.68-2.79 4.74-1.39 10.86-1.44 16.04a.66.66 0 0 0 0 .15c-.19 10-1.18 18.31.91 21.81 1.9 3.17 3.78 3.45 7 3.6 23 1.08 148.07-.24 151.79-.39 6.62-.26 17.95 1 20.54-7.14 1.48-4.56.53-17.06.55-21.5zm-2.15 14.64c0 3 .15 6.47-2 8.77-3.71 3.86-12 2.76-16.87 3-3.32.13-151.86 1.31-154.57.35-4.63-1.65-3.66-9.78-3.79-13.6-.1-2.89.12-9.59.12-9.64.29-5.2-1.59-14.12 3.83-17.4 4.68-2.82 13.31-1.59 18.65-1.53 2.84 0 129.79.72 138.23.69 4 0 9.24-.61 13.13.64s3.21 7.37 3.3 11c.05 3.75.11 5.96-.03 17.72z" fill="#f78100"/><path d="M485.34 172c0-8.69-.36-125-.31-133 0-4.89 1.46-11-2-15.06-1.72-2-3.63-2.31-6.07-2.56-4.57-.48-9.21-.58-13.81-.74-8-.27-432.87 0-434.5 0-7.17 0-22-2.39-23.84 7.42a.76.76 0 0 0 0 .26c-.5 5.6-.66 158.86 1.08 161.18 2 2.66 6.46 2.58 9.51 3 4.56.68 454.66 0 460.42-.72 4.08-.54 7.71-1.69 8.76-6s.77-9.23.76-13.78zm-2.25.26c0 .57-.24 8.56-.48 9.77-1 5.18-3.5 7.31-8.4 7.72-5.74.47-11.6.4-17.36.46-2.82 0-423.85 1.07-427.43 1.1-2.52 0-5 .06-7.54-.09-5.16-.3-13.38.5-15-5.45-1-3.39-1.08-152.34-.66-157.23v-.06c1.83-8.92 19.68-6 26.37-6 .84 0 434.12.4 437.7.58 5.58.28 11.81-.55 12.76 6.8.45 3.45-.16 7.14-.15 10.65.1 43.98.5 87.89.19 131.78z" fill="#1e1e1e"/></svg>