<svg xmlns="http://www.w3.org/2000/svg" viewBox="0 0 490 216"><path d="M481.75 24.35c-42.59-7.4-86.08-9.14-128.87-2.66-77.34-1.43-337.35-2.55-339.92 1C6.46 27 1.48 38.31 4.11 44.49 0 65.79 5.82 162.92 2.27 171.58.49 175.9.88 190.94 7.82 191.34c78.75-6.13 129.68 3 156 2.06 34.07-9.66 144.92 1.64 306.74.76 24.59 1.27 14.6-62.46 14-85.72-3.1-56.05 7.78-84.07-2.81-84.09z" fill="#c9c9c9"/><path d="M2.33 104.54c8.14-.22 103.57-5.83 192.18-2.62 2.72-10.49-1.5-70.7-1.17-81.51-24.16.16-114.68 2.09-135.63.29C43.36 16.36 0 11.72 4.12 44.49c-.34.74-2.75 26.76-1.79 60.05z" fill="#fff"/><path d="M192.44 21c-1.41 18.2-.84 36.75-1 55q-.18 23.12-.15 46.23.06 29.85.54 59.69c.06 3 .23 7.42.29 9.74.05 1.63 2.6 1.64 2.55 0-.92-35.28-.91-72.86-.73-108.84.09-20.54 1.29-41.3.43-61.82a1 1 0 0 0-1.95 0zM290.51 21.69c-1 18.22-.09 36.69-.1 54.93q0 23-.13 46.06-.15 29.64-.55 59.29c0 3 0 7.37-.05 9.65a1.28 1.28 0 0 0 2.55 0c.6-35.08.75-72.42.72-108.2 0-20.48.86-41.29-.49-61.73a1 1 0 0 0-1.95 0z" fill="#1e1e1e"/><path d="M482.16 101.67c-27.12-.65-54.27-.5-81.4-.52q-59.33 0-118.64.1-63.1.12-126.22.32-51.06.15-102.12.35l-32.84.08c-4.81 0-10.62-.85-15.37.07a3.62 3.62 0 0 1-.66 0 1.25 1.25 0 0 0 0 2.5q19.7-.09 39.4-.15 48.56-.19 97.11-.36 62.47-.21 125-.37 60.57-.13 121.16-.18c29.23 0 58.47.35 87.7.07h6.92a1 1 0 0 0 0-1.92zM483.74 147.55q-42.25.72-84.51 1-59.79.39-119.6.32-62.83 0-125.69-.21-50.5-.15-101-.4l-32.34-.17c-4.69 0-10.38-.95-15-.08a3.86 3.86 0 0 1-.68 0 1.25 1.25 0 0 0 0 2.5q19.26.12 38.53.21 47.94.24 95.89.39 62.14.19 124.28.22 61 0 121.92-.29c30.16-.17 60.4 0 90.54-1.23l7.67-.32c1.23-.06 1.24-1.95 0-1.92z" fill="#1e1e1e"/><path d="M485.34 171.59c0-8.7-.36-125-.31-133 0-4.89 1.46-11.05-2-15.07-1.72-2-3.63-2.3-6.07-2.55-4.57-.48-9.21-.58-13.81-.74-8-.27-432.87 0-434.5 0-7.17 0-22-2.39-23.84 7.41a.75.75 0 0 0 0 .26c-.5 5.61-.66 158.87 1.08 161.19 2 2.66 6.46 2.58 9.51 3 4.56.68 454.66 0 460.42-.72 4.08-.54 7.71-1.69 8.76-6s.77-9.27.76-13.78zm-2.25.26c0 .57-.24 8.56-.48 9.77-1 5.18-3.5 7.31-8.4 7.71-5.74.48-11.6.41-17.36.47-2.82 0-423.85 1.07-427.43 1.1-2.52 0-5 .06-7.54-.09-5.16-.3-13.38.5-15-5.45C5.89 182 5.76 33 6.18 28.13v-.06c1.83-8.92 19.68-6 26.37-6 .84 0 434.12.41 437.7.59 5.58.28 11.81-.55 12.76 6.8.45 3.45-.16 7.14-.15 10.65.14 43.94.54 87.89.23 131.74z" fill="#1e1e1e"/><path d="M195.76 32.9c-.88-4.94-7.95-2.34-7.57 1.7.58 6.11.39 47.1.13 53.37-.07 1.86.44 9.61-13.82 9.62-30.41 1.64-122.73 1.64-153.18 1.12-4.09-.07-7.63 8.52-3.11 8.6 18.15.31 107.26 1 125.41.68 9-.18 33.08-.52 40.63-2.31 14.63-3.46 11.89-41.05 11.92-52.39.02-8.12 1.03-12.39-.41-20.39z" opacity=".2"/><path d="M9.23 35.16c.27-3.16 2.87-8.06 5.89-9.67 2-1.74 166.76-1.74 171.58 1.74 1.42 1.57 3.82 61 0 66.42-2.37 3.36-7.47 3.84-11.86 4-5.23.16-160.33 1.45-161.78.38-3.4-2.51-3.81-4.51-3.95-8.49s-.11-51.2.12-54.38z" fill="#f78100" opacity=".85"/><path d="M61.59 69.48a1.05 1.05 0 1 0-1 1.34h.07a1 1 0 0 0 1-1.27zM65.23 60.16c-.27 3.19.33 6.41.18 9.62-.06 1.38 2.09 1.38 2.15 0a73.69 73.69 0 0 0-.45-9.62.94.94 0 0 0-1.88 0zM66.1 57.22h.07a1 1 0 0 0 .64-.67 1.63 1.63 0 0 0 .11-.23 1.54 1.54 0 0 0 0-.77.9.9 0 0 0-1.5-.39c-.2.24-.42.37-.52.69a1 1 0 0 0 .1.94 1 1 0 0 0 1.1.43zM74.21 69c-1 1.09-1.38-3.24-1.39-3.43-.08-.94-.15-1.87-.2-2.81v-1.62h1.43c1.62 0 1.39-2.59-.3-2.25a10 10 0 0 1-1.1.14 11.13 11.13 0 0 0-.24-2.45c-.16-.73-1.07-.56-1.31 0a8.48 8.48 0 0 0-.58 2.48h-.61c-1 0-1.35 1.67-.26 1.87a7.28 7.28 0 0 0 .8.1c0 .91.08 1.81.13 2.67a19.12 19.12 0 0 0 .72 5.59c.76 2 3.14 2.83 4.49.92.65-.94-.79-2.04-1.58-1.21zM83.56 59.29a5.6 5.6 0 0 0-5.93 3.17 7.37 7.37 0 0 0-.49 1.66.89.89 0 0 0-.09.8 5.21 5.21 0 0 0 2 4.68c2.34 1.72 5.45 1.2 7.67-.44 1.06-.78.08-2.56-1-1.8-1.43 1-3 1.71-4.75 1a3 3 0 0 1-1.97-2.7c2.87.06 5.78-.2 8.64-.33a1.12 1.12 0 0 0 1.06-1.4 6.6 6.6 0 0 0-5.14-4.64zm-4.27 4.33c1.16-3.46 4.82-2.64 6.58-.39-2.2.06-4.4.16-6.58.39zM105.38 59.13a5.41 5.41 0 0 0-5.71 2 3.33 3.33 0 0 0-.85-.93 4.2 4.2 0 0 0-5.82.2 4.61 4.61 0 0 0-.27-.76.69.69 0 0 0-1.2 0c-.63 1.42-.4 3-.4 4.49v5.65a1.08 1.08 0 0 0 2.16 0c0-1.88-.06-3.77-.1-5.65v-1.62a6.16 6.16 0 0 1 1.89-1.39 2.15 2.15 0 0 1 3 1.57c.32 2.29-.18 5-.28 7.27-.06 1.39 2.08 1.38 2.16 0 .12-2.18.23-4.41.15-6.6a4.55 4.55 0 0 1 2.29-2.1 3.42 3.42 0 0 1 1.32-.36c1 .09 1.57 1.33 1.71 2.26.31 2.13-.28 4.46-.28 6.61 0 1.41 2 1.35 2.15 0a34.84 34.84 0 0 0 .11-7.36c-.13-1.41-.63-2.76-2.03-3.28zM114.79 63.49a24.46 24.46 0 0 0-4.81.67c-.5.35-.75 1.2.16 1.49a23.64 23.64 0 0 0 4.61 0c1.44-.07 1.48-2.23.04-2.16zM127.34 63.8c-.13-1.43-.34-3-1.47-4-1.83-1.61-6-.85-7.27 1.14a.76.76 0 0 0 .85 1.1c2.08-.72 5.27-2.07 5.68 1.17 0 .32.07.64.1 1a5.7 5.7 0 0 0-4.81-.92 4.46 4.46 0 0 0-2.92 4.86c.5 3.85 5.39 3.63 8.1 1.62v.4c.1 1.43 2.34 1.43 2.23 0-.15-2.12-.28-4.25-.49-6.37zm-4.49 5.06c-1.23.36-3.37.38-3.38-1.33 0-3.7 3.89-2.16 5.93-1.23v.66a6.33 6.33 0 0 1-2.55 1.9z" fill="#1e1e1e"/><path d="M184.26 25.24c-15.49.23-162.64-.54-166.13.54-8.57 2.63-8.78 12.3-9.24 19.57C8.52 51.16 7 83 8.78 92.68c.65 3.55 4.79 2.27 6.68.75a10.59 10.59 0 0 0 3.73-9.7c-1.27-7 .45-41.64.68-44.7 1.25 0 17.17-1.23 24.24-.39 8.21 1 122 .51 135 .33 5.83-.09 11.53-13.82 5.15-13.73z" fill="#fff" opacity=".2"/><path d="M189.47 76.63c0-7.35-.14-30.94-.13-35.38s1.29-13.91-3.85-15.88c-6.37-2.45-15.24-.94-21.89-1.05-3.71-.07-136.07-.72-142.24-.36-4.25.24-9 .62-11.37 4.67C7.2 33.42 8.6 39.54 8.55 44.72a.9.9 0 0 0 0 .16c-.19 10-.65 35.71-.59 38.6.09 3.88-.59 8.82 1.5 12.32 1.9 3.17 3.78 3.44 7 3.59 23 1.08 148.06-.23 151.78-.38 6.62-.26 17.95 1 20.55-7.14 1.48-4.56.68-10.53.68-15.24zM187.19 85c0 3 .15 6.47-2.05 8.76-3.71 3.86-12 2.77-16.87 3-3.32.13-123.64.84-144.74.62-2.81 0-7.12.7-9.83-.26-4.63-1.69-3.7-9.83-3.79-13.64-.1-2.89-.1-28.64.08-38.62a.37.37 0 0 0 0-.14c.29-5.2-1.58-14.12 3.84-17.39 4.67-2.83 13.3-1.6 18.64-1.54 2.84 0 101.93.33 112.9.44 8.44.08 16.89.28 25.33.25 4 0 9.24-.61 13.13.64s3.22 7.37 3.3 11c.12 3.8.2 35.07.06 46.88z" fill="#f78100"/></svg>