<svg xmlns="http://www.w3.org/2000/svg" viewBox="0 0 490 520"><path d="M2.63 481c.59-1.28.41-2.77.48-4.16a13.23 13.23 0 0 0-.42-4.47.71.71 0 0 0-1.36 0 13.24 13.24 0 0 0-.43 4.47c0 1.39-.13 2.88.46 4.16a.74.74 0 0 0 1.27 0zM5.91 494.08c-.29-1-1.14-1.74-1.4-2.85a36.42 36.42 0 0 0-1.09-4.5c-.22-.59-1.21-.75-1.36 0a9.6 9.6 0 0 0 .63 5.79c.47 1.15 1.25 2.71 2.71 2.47a.75.75 0 0 0 .51-.91zM20.07 496c-1.35-.73-3.23-.61-4.73-.81a23 23 0 0 0-4.9-.21c-.62.05-1.06 1-.35 1.32a13.44 13.44 0 0 0 4.64 1.08c1.57.11 3.68.55 5.16 0a.75.75 0 0 0 .18-1.35zM470.45 495.17c-1.15-1-3.65-.52-5-.57a22.07 22.07 0 0 0-5.74.42.72.72 0 0 0 0 1.37 21.64 21.64 0 0 0 5.74.41c1.4-.05 3.88.38 5-.58a.76.76 0 0 0 0-1.05zM485.58 486c-.57.82-.46 2.14-.61 3.09a5 5 0 0 1-1.49 3.3c-1.9 1.67-4.62 1.88-7 2.3-.86.14-.54 1.3.19 1.39 3.21.38 6.18.16 8.55-2.29a6.48 6.48 0 0 0 1.67-3.66c.21-1.22.6-3 0-4.13a.75.75 0 0 0-1.28 0zM485.71 75.85c-.48 1.24-.19 6.74.18 8a.72.72 0 0 0 1.37 0c.36-1.21.65-6.72.17-8a.9.9 0 0 0-1.72 0zM482 60c1.39 1.51 2.63 2.23 3.21 4.38.45 1.69.52 3.54.81 5.28.11.7 1.21.65 1.36 0 .85-3.69 0-10.44-4.85-10.92-.68-.07-.92.83-.53 1.26zM465 59.2c1.44.82 9.76.77 12 .42.71-.11.65-1.21 0-1.36-2.23-.54-10.53-1.1-12-.34a.74.74 0 0 0 0 1.28zM162.91 58.68c1.38 1.12 4.66.53 6.31.58a33.16 33.16 0 0 0 7-.42.71.71 0 0 0 0-1.36 32.5 32.5 0 0 0-7-.42c-1.66 0-4.93-.55-6.31.58a.73.73 0 0 0 0 1zM142.12 58.68c1.12 1.09 10 .59 12.12.16a.71.71 0 0 0 0-1.36c-2.14-.43-11-.94-12.12.15a.76.76 0 0 0 0 1zM120.85 58.82c1.63 1.09 12.31.45 14.88 0a.71.71 0 0 0 0-1.36c-2.57-.41-13.25-1-14.88 0a.75.75 0 0 0 0 1.28zM100.9 58.68c1.22 1.1 10.33.58 12.54.16a.72.72 0 0 0 0-1.37c-2.21-.42-11.32-.95-12.54.16a.76.76 0 0 0 0 1zM84.2 58.53c.88 1.17 8.78.76 10.71.31a.72.72 0 0 0 0-1.37c-1.91-.47-9.83-.87-10.71.31a.72.72 0 0 0 0 .75zM67 58.68c.73.87 9.09.58 11 .15a.7.7 0 0 0 0-1.35c-1.95-.43-10.31-.72-11 .15a.77.77 0 0 0 0 1zM49.81 58.67c.73.87 9 .59 11 .16a.7.7 0 0 0 0-1.35c-1.94-.43-10.26-.71-11 .16a.74.74 0 0 0 0 1zM32.86 58.68c.74.87 9.14.59 11.09.16a.72.72 0 0 0 0-1.37c-2-.43-10.35-.72-11.09.16a.78.78 0 0 0 0 1zM14.21 58.94c2.45.53 5.15.27 7.65.3a32.68 32.68 0 0 0 5.77-.41.71.71 0 0 0 0-1.36 27.83 27.83 0 0 0-5.77-.5c-2.49 0-5.24-.14-7.65.54a.75.75 0 0 0 0 1.43zM331.7 58.68c1.38 1.12 4.66.53 6.31.58a33.16 33.16 0 0 0 7-.42.71.71 0 0 0 0-1.36 32.5 32.5 0 0 0-7-.42c-1.66 0-4.93-.55-6.31.58a.73.73 0 0 0 0 1zM309.91 58.68c1.34 1.12 10.81.58 13.13.16a.71.71 0 0 0 0-1.36c-2.32-.43-11.78-1-13.13.15a.74.74 0 0 0 0 1zM288 58.68c1.21 1.1 10.32.58 12.53.16a.72.72 0 0 0 0-1.37c-2.21-.42-11.32-.94-12.53.16a.74.74 0 0 0 0 1zM269.69 58.68c.74.87 9.1.58 11 .16a.71.71 0 0 0 0-1.36c-1.94-.43-10.3-.72-11 .16a.77.77 0 0 0 0 1zM253 58.53c.88 1.17 8.78.76 10.71.31a.72.72 0 0 0 0-1.37c-1.93-.45-9.83-.87-10.71.31a.72.72 0 0 0 0 .75zM235.82 58.68c.73.87 9.1.58 11 .15a.71.71 0 0 0 0-1.36c-2-.42-10.31-.71-11 .16a.77.77 0 0 0 0 1zM442.85 58.68c1.35 1.12 10.81.58 13.13.16a.71.71 0 0 0 0-1.36c-2.32-.43-11.78-1-13.13.15a.75.75 0 0 0 0 1zM421.08 58.68c1.22 1.1 10.32.58 12.54.16a.71.71 0 0 0 0-1.36c-2.22-.43-11.32-.95-12.54.15a.76.76 0 0 0 0 1zM401.85 58.68c1.21 1.1 10.32.58 12.54.16a.72.72 0 0 0 0-1.37c-2.22-.42-11.32-.94-12.54.16a.74.74 0 0 0 0 1zM379.81 58.79c1.34 1 11.54.45 13.94.05a.72.72 0 0 0 0-1.37c-2.4-.4-12.6-.94-13.94.05a.75.75 0 0 0 0 1.27zM354 58.79c2 1.14 6 .43 8.21.48a54.65 54.65 0 0 0 8.68-.43c.67-.1.67-1.28 0-1.37a54.65 54.65 0 0 0-8.68-.43c-2.24.05-6.18-.66-8.21.47a.75.75 0 0 0 0 1.28zM218.6 58.67c.73.87 9.05.59 11 .16a.7.7 0 0 0 0-1.35c-1.94-.43-10.26-.71-11 .16a.74.74 0 0 0 0 1zM201.65 58.68c.74.87 9.14.59 11.09.16a.72.72 0 0 0 0-1.37c-2-.43-10.35-.72-11.09.16a.78.78 0 0 0 0 1zM183 58.94c2.44.53 5.14.27 7.64.3a32.68 32.68 0 0 0 5.77-.41.71.71 0 0 0 0-1.36 27.83 27.83 0 0 0-5.77-.5c-2.49 0-5.24-.14-7.64.54a.75.75 0 0 0 0 1.43zM328.33 496c-1.37-1.12-4.65-.53-6.31-.58a32.41 32.41 0 0 0-7 .42.71.71 0 0 0 0 1.36 33.74 33.74 0 0 0 7 .42c1.67-.05 4.93.55 6.31-.58a.73.73 0 0 0 0-1zM349.12 496c-1.11-1.09-10-.59-12.12-.16a.71.71 0 0 0 0 1.36c2.14.43 11 .94 12.12-.16a.73.73 0 0 0 0-1zM370.41 495.84c-1.63-1.09-12.32-.45-14.88 0a.71.71 0 0 0 0 1.36c2.56.41 13.24 1 14.88 0a.75.75 0 0 0 0-1.28zM390.34 496c-1.21-1.1-10.32-.59-12.53-.16a.71.71 0 0 0 0 1.36c2.21.43 11.32.95 12.53-.15a.74.74 0 0 0 0-1.05zM407 496.11c-.87-1.18-8.78-.76-10.7-.31a.72.72 0 0 0 0 1.37c1.92.44 9.83.86 10.7-.31a.72.72 0 0 0 0-.75zM424.22 496c-.74-.87-9.1-.58-11-.16a.71.71 0 0 0 0 1.36c1.94.43 10.3.72 11-.16a.77.77 0 0 0 0-1zM440.05 496.11c0-.06 0 0 .06.14a.87.87 0 0 0-.62-.62c-1.46-.49-3.46-.24-5-.28a13.84 13.84 0 0 0-4.06.45.72.72 0 0 0 0 1.37 13.84 13.84 0 0 0 4.06.45c1.52 0 3.52.21 5-.28a.87.87 0 0 0 .62-.62c-.05.37 0-.44-.06-.61zM454.57 495.79a.88.88 0 0 0-.62-.62c-1.38-.49-7.34-.19-8.66.17a.72.72 0 0 0 0 1.37c1.32.36 7.27.66 8.66.17a.88.88 0 0 0 .62-.62 1.24 1.24 0 0 0 0-.43zM159.54 496c-1.37-1.12-4.65-.53-6.31-.58a32.41 32.41 0 0 0-7 .42.71.71 0 0 0 0 1.36 33.74 33.74 0 0 0 7 .42c1.67-.05 4.93.55 6.31-.58a.73.73 0 0 0 0-1zM181.33 496c-1.34-1.12-10.8-.59-13.12-.16a.71.71 0 0 0 0 1.36c2.32.43 11.78 1 13.12-.16a.73.73 0 0 0 0-1zM203.27 496c-1.21-1.1-10.32-.59-12.53-.16a.71.71 0 0 0 0 1.36c2.21.43 11.31.95 12.53-.16a.75.75 0 0 0 0-1zM221.55 496c-.73-.87-9.09-.59-11-.16a.71.71 0 0 0 0 1.36c2 .43 10.31.72 11-.16a.75.75 0 0 0 0-1zM238.25 496.11c-.88-1.18-8.78-.76-10.7-.31a.72.72 0 0 0 0 1.37c1.92.44 9.82.86 10.7-.31a.72.72 0 0 0 0-.75zM255.42 496c-.73-.87-9.09-.58-11-.16a.71.71 0 0 0 0 1.36c1.94.43 10.3.72 11-.16a.76.76 0 0 0 0-1zM53 496c-.66-.86-3.82-.53-5.14-.58a20.62 20.62 0 0 0-5.6.42.71.71 0 0 0 0 1.36 20.64 20.64 0 0 0 5.6.42c1.32-.05 4.47.28 5.14-.58a.76.76 0 0 0 0-1zM35.12 495.62c-1.33-.48-3.24-.23-4.64-.28a11.78 11.78 0 0 0-3.78.46.71.71 0 0 0 0 1.36 11.75 11.75 0 0 0 3.78.46c1.4-.05 3.31.2 4.64-.28a.9.9 0 0 0 0-1.72zM71.89 496c-1.21-1.1-10.32-.59-12.53-.16a.71.71 0 0 0 0 1.36c2.21.43 11.31.95 12.53-.16a.73.73 0 0 0 0-1zM89.39 496c-1.21-1.1-10.32-.59-12.53-.16a.71.71 0 0 0 0 1.36c2.21.43 11.32.95 12.53-.15a.74.74 0 0 0 0-1.05zM111.44 495.84c-1.35-1-11.54-.45-13.94 0a.72.72 0 0 0 0 1.37c2.4.4 12.59.94 13.94-.05a.76.76 0 0 0 0-1.28zM137.24 495.84c-2-1.13-6-.42-8.21-.47a54.58 54.58 0 0 0-8.67.43.72.72 0 0 0 0 1.37 54.58 54.58 0 0 0 8.67.43c2.24-.05 6.18.66 8.21-.48a.75.75 0 0 0 0-1.28zM272.65 496c-.73-.86-9.06-.58-11-.15a.7.7 0 0 0 0 1.35c1.93.43 10.26.71 11-.16a.77.77 0 0 0 0-1zM289.59 496c-.73-.87-9.13-.59-11.09-.16a.72.72 0 0 0 0 1.37c2 .43 10.35.72 11.09-.16a.76.76 0 0 0 0-1.05zM308.24 495.7c-2.44-.53-5.15-.27-7.65-.3a32.81 32.81 0 0 0-5.77.4.72.72 0 0 0 0 1.37 28 28 0 0 0 5.77.5c2.5 0 5.24.14 7.65-.54a.75.75 0 0 0 0-1.43zM2.71 70.15c.51-1.78.1-3.6.42-5.39.53-2.94 3.14-4.45 5.73-5.4.71-.26.67-1.43-.18-1.39-3.17.16-5.94 1.46-7.16 4.57a13.51 13.51 0 0 0-.24 7.61.75.75 0 0 0 1.43 0zM487.44 102.85c.83-1.45.78-9.77.42-12-.11-.7-1.21-.64-1.36 0-.54 2.24-1.1 10.53-.34 12a.75.75 0 0 0 1.28 0zM486.93 404.93c1.12-1.37.52-4.65.57-6.31a33.06 33.06 0 0 0-.41-7 .72.72 0 0 0-1.37 0 33.06 33.06 0 0 0-.41 7c0 1.67-.56 4.93.57 6.31a.74.74 0 0 0 1.05 0zM486.92 425.72c1.1-1.12.59-10 .16-12.12a.71.71 0 0 0-1.36 0c-.43 2.14-.94 11 .16 12.12a.73.73 0 0 0 1 0zM487 447c1.09-1.64.45-12.32 0-14.88a.71.71 0 0 0-1.36 0c-.41 2.56-1.05 13.24 0 14.88a.76.76 0 0 0 1.28 0zM486.92 466.94c1.11-1.21.59-10.32.16-12.54a.71.71 0 0 0-1.36 0c-.43 2.22-1 11.32.16 12.54a.73.73 0 0 0 1 0zM487.26 481.11c.47-1.18.23-3 .27-4.23a9.51 9.51 0 0 0-.45-3.44.71.71 0 0 0-1.36 0 9.74 9.74 0 0 0-.46 3.44c0 1.24-.19 3.05.28 4.23a.9.9 0 0 0 1.72 0zM486.93 236.14c1.12-1.38.52-4.65.57-6.31a33.19 33.19 0 0 0-.41-7 .72.72 0 0 0-1.37 0 33.15 33.15 0 0 0-.41 7c0 1.66-.56 4.93.57 6.31a.74.74 0 0 0 1.05 0zM486.93 257.93c1.11-1.34.58-10.8.15-13.12a.71.71 0 0 0-1.36 0c-.42 2.32-1 11.77.16 13.12a.74.74 0 0 0 1.05 0zM486.92 279.87c1.11-1.22.59-10.32.16-12.54a.71.71 0 0 0-1.36 0c-.43 2.22-1 11.32.16 12.54a.75.75 0 0 0 1 0zM486.92 298.15c.87-.73.59-9.1.16-11a.71.71 0 0 0-1.36 0c-.43 1.95-.71 10.31.16 11a.76.76 0 0 0 1 0zM486.77 314.85c1.18-.88.76-8.78.31-10.7a.71.71 0 0 0-1.36 0c-.45 1.92-.87 9.82.3 10.7a.72.72 0 0 0 .75 0zM486.92 332c.87-.73.59-9.09.16-11a.71.71 0 0 0-1.36 0c-.43 1.94-.72 10.3.16 11a.75.75 0 0 0 1 0zM486.93 125c1.11-1.34.58-10.81.15-13.12a.71.71 0 0 0-1.36 0c-.42 2.32-1 11.77.16 13.12a.74.74 0 0 0 1.05 0zM486.92 146.76c1.11-1.21.59-10.32.16-12.53a.71.71 0 0 0-1.36 0c-.43 2.21-1 11.31.16 12.53a.73.73 0 0 0 1 0zM486.92 166c1.11-1.21.59-10.32.16-12.53a.71.71 0 0 0-1.36 0c-.43 2.21-1 11.32.16 12.53a.73.73 0 0 0 1 0zM487 188c1-1.34.45-11.53 0-13.93a.71.71 0 0 0-1.36 0c-.41 2.4-1 12.59 0 13.93a.75.75 0 0 0 1.28 0zM487 213.84c1.13-2 .42-6 .47-8.21a54.58 54.58 0 0 0-.43-8.67.71.71 0 0 0-1.36 0 53.43 53.43 0 0 0-.43 8.67c0 2.24-.67 6.18.47 8.21a.75.75 0 0 0 1.28 0zM486.92 349.25c.86-.73.58-9.06.15-11a.71.71 0 0 0-1.35 0c-.43 1.93-.71 10.26.16 11a.77.77 0 0 0 1 0zM486.92 366.19c.87-.74.59-9.14.16-11.09a.72.72 0 0 0-1.37 0c-.43 1.95-.71 10.35.16 11.09a.76.76 0 0 0 1.05 0zM487.18 384.84c.53-2.44.27-5.15.31-7.65a33.8 33.8 0 0 0-.41-5.77.72.72 0 0 0-1.37 0 28.6 28.6 0 0 0-.5 5.77c0 2.5-.14 5.24.55 7.65a.74.74 0 0 0 1.42 0zM.94 75.85c-.47 1.23-.19 6.74.18 8a.72.72 0 0 0 1.37 0c.37-1.21.65-6.72.17-8a.9.9 0 0 0-1.72 0zM2.67 102.85c.83-1.45.78-9.77.43-12-.11-.7-1.21-.64-1.37 0-.54 2.24-1.1 10.53-.34 12a.75.75 0 0 0 1.28 0zM2.16 404.93c1.12-1.37.53-4.65.57-6.31a33.06 33.06 0 0 0-.41-7 .72.72 0 0 0-1.37 0 33.06 33.06 0 0 0-.41 7c0 1.67-.55 4.93.57 6.31a.74.74 0 0 0 1.05 0zM2.16 425.72c1.09-1.11.58-10 .16-12.12a.72.72 0 0 0-1.37 0c-.43 2.14-.94 11 .16 12.12a.74.74 0 0 0 1.05 0zM2.27 447c1.09-1.64.45-12.32 0-14.88a.72.72 0 0 0-1.37 0c-.4 2.56-1 13.24 0 14.88a.76.76 0 0 0 1.28 0zM2.16 466.94c1.1-1.21.58-10.32.15-12.54a.71.71 0 0 0-1.36 0c-.43 2.22-.95 11.32.16 12.54a.74.74 0 0 0 1.05 0zM2.16 236.14c1.12-1.38.53-4.65.57-6.31a33.19 33.19 0 0 0-.41-7 .72.72 0 0 0-1.37 0 33.15 33.15 0 0 0-.41 7c0 1.66-.55 4.93.57 6.31a.74.74 0 0 0 1.05 0zM2.16 257.93c1.11-1.34.58-10.8.16-13.12a.72.72 0 0 0-1.37 0c-.42 2.32-1 11.77.16 13.12a.74.74 0 0 0 1.05 0zM2.16 279.87c1.1-1.22.58-10.32.16-12.54a.72.72 0 0 0-1.37 0c-.43 2.22-.95 11.32.16 12.54a.76.76 0 0 0 1.05 0zM2.15 298.15c.87-.73.59-9.1.16-11a.71.71 0 0 0-1.36 0c-.43 1.95-.71 10.31.16 11a.76.76 0 0 0 1 0zM2 314.85c1.18-.88.76-8.78.31-10.7a.71.71 0 0 0-1.36 0c-.45 1.92-.87 9.82.31 10.7a.7.7 0 0 0 .74 0zM2.15 332c.87-.73.59-9.09.16-11A.71.71 0 0 0 1 321c-.43 1.94-.71 10.3.16 11a.75.75 0 0 0 1 0zM2.16 125c1.11-1.34.58-10.81.16-13.12a.72.72 0 0 0-1.37 0c-.42 2.32-1 11.77.16 13.12a.74.74 0 0 0 1.05 0zM2.16 146.76c1.1-1.21.58-10.32.16-12.53a.72.72 0 0 0-1.37 0c-.42 2.21-.95 11.31.16 12.53a.74.74 0 0 0 1.05 0zM2.16 166c1.1-1.21.58-10.32.15-12.53a.71.71 0 0 0-1.36 0c-.43 2.2-.95 11.31.16 12.53a.74.74 0 0 0 1.05 0zM2.27 188c1-1.34.45-11.53 0-13.93a.71.71 0 0 0-1.36 0C.54 176.5 0 186.69 1 188a.75.75 0 0 0 1.28 0zM2.27 213.84c1.14-2 .42-6 .47-8.21a54.58 54.58 0 0 0-.43-8.63.71.71 0 0 0-1.31 0 54.58 54.58 0 0 0-.43 8.67c0 2.24-.67 6.18.47 8.21a.75.75 0 0 0 1.28 0zM2.15 349.25c.87-.73.58-9.06.16-11a.71.71 0 0 0-1.36 0c-.42 1.94-.71 10.27.16 11a.77.77 0 0 0 1 0zM2.15 366.19c.88-.73.59-9.14.16-11.09a.71.71 0 0 0-1.36 0c-.44 1.95-.72 10.35.15 11.09a.76.76 0 0 0 1 0zM2.42 384.84c.53-2.44.27-5.15.3-7.65a33.8 33.8 0 0 0-.41-5.77.71.71 0 0 0-1.36 0 27.9 27.9 0 0 0-.51 5.77c0 2.5-.13 5.24.55 7.65a.75.75 0 0 0 1.43 0z" fill="#919191"/><path d="M476.47 128.94c1.59-4.26 2.71-14.31-4.35-14.61-20.35-.85-136.79-.41-172.86-1.48-58-1.72-242.79.93-276 .26-7-.14-18 6-13.1 26.67-.09.65-1.3 19.74-1.85 28.63-.23 3.74 1.95 7.05 5.66 7.72 21.1 3.81 42.5 2.56 63.81 2.12s34.18-1.35 55.27.51c42.88 3.78 93.41-.68 136.3-.57 8.19 0 57.95 2.62 75.11.52 3.37-.41 6.88-.09 9.15-3.29l89.74 3.39c12.18.46 24.72 2.77 33.45-7.81 5.44-11.42-.38-41.92-.33-42.06zM476.47 259c1.59-6.74 2.71-23.62-4.35-24.09A523 523 0 0 0 411 235c-2.23.11-4.28 1.7-6.11 3.44-47.32-13.89-348.42-3.37-381.61-4.44-7-.22-12 7.69-14.17 17.12-1.3 5.51-2.84 21.09 1.07 25-.09 1-1.3 31.19-1.85 45.24-.23 5.91 1.95 11.15 5.66 12.2 21.1 6 105.86 2.87 127 5.81 42.88 6 85.54-2.64 128.43-2.48 8.19 0 57.95 5.65 75.11 2.33 3.37-.65 6.88-1.73 9.15-6.79l89.74 5.36c12.18.72 24.72 4.38 33.45-12.34 4.96-9.53-.45-66.21-.4-66.45z" fill="#fff"/><path d="M190.24 113.73c-1.08 6.28-.57 13.1-.63 19.46-.06 6.77-.05 13.54 0 20.31 0 7.56.19 16.78.31 23.58a1.28 1.28 0 0 0 2.55 0c-.11-6.6-.16-15.59-.23-22.94q-.09-10.14-.08-20.27c0-6.52.73-13.4 0-19.88-.11-1-1.71-1.44-1.91-.26zM289.8 114c-.55 3.13-.28 6.43-.3 9.59q-.09 10.89-.14 21.79c-.05 10.37 0 22.67-.06 32.13a1.28 1.28 0 0 0 2.55 0c0-9.45.1-21.76.1-32.13v-21.79c0-3.16.28-6.46-.25-9.59a1 1 0 0 0-1.88 0z" fill="#1e1e1e"/><path d="M478.38 137.5c-.08-8.43 3.15-22.66-8.21-23.81-6.71-.68-13.52-.82-20.26-.85-24.56-.1-49.13 0-73.69 0H103.84c-22.41 0-44.83.14-67.24.07-3.42 0-6.84-.06-10.26 0-6.17.14-14.84-.3-16.3 7.38a.7.7 0 0 0 0 .25c-.89 9.58-.38 19.45-.47 29.06-.07 7.25-1.07 15.74.68 22.82 1.48 6 8 5.61 13.3 6.2a87.32 87.32 0 0 0 10 .44H94.4q61.31 0 122.59-.16l229.61-.52a184 184 0 0 0 20.33-1c4.71-.53 9.62-.53 10.93-5.82s.78-11.38.72-16.81l-.2-17.25zm-5.17 36.56c-2.65 1.36-16.41 1.87-19.72 2-10.08.35-73.49.23-95.09.27-35.29.08-197.94.45-244 .66l-62.64.3c-5.75 0-11.5 0-17.25.1h-1s-16.59-1-18.78-1.8c-2.58-1-2.87-2.82-3.26-5.27-1.15-7.24-.43-15.21-.39-22.51.05-8.91-.48-18.1.32-27a.33.33 0 0 0 0-.06c1.81-8.79 18-6 24.72-6h168.26c46.3 0 202.46 0 234.23.07 6.91 0 27.27.49 30.53.78 2 .17 3 .16 4.63 1.47 3.12 2.56 2.48 6.85 2.36 10.48-.13 3.85.08 22.38.12 27.79.11 5.24 1.37 16.46-3.04 18.72z" fill="#1e1e1e"/><path d="M479.51 420.76c-.82-4.28-2.55-14.9-3.2-16.41.05-.12.11-.24.16-.35 1.59-3.6 2.71-12.09-4.35-12.34-20.35-.72-65.36.39-67.19 1.32-36.08-.69-72.16-3-108.23-3.9-58-1.45-115.87 2.51-173.84 2.62-33.2.06-66.39-.51-99.58-1.07-7-.12-20.52 9-13.1 22.52-.09.55-1.3 16.67-1.85 24.18-.23 3.16 1.95 6 5.66 6.52 21.1 3.21 105.86 1.53 127 3.1 42.88 3.19 186.38 1.7 203.54-.08 3.37-.34 6.88-.92 9.15-3.63l89.74 2.87c41.71 6.89 37.33-18.8 36.09-25.35z" fill="#fff"/><path d="M190.24 391.59c-1.85 11.41-.71 23.94-.65 35.48 0 6.21.19 13.82.31 19.37a1.28 1.28 0 0 0 2.55 0c-.12-5.31-.16-12.73-.23-18.69s-.09-11.79-.08-17.69.62-12.25 0-18.21c-.1-1-1.72-1.43-1.91-.26zM289.8 391.88c-.55 2.68-.28 5.55-.3 8.27q-.09 9.44-.14 18.87c-.05 9 0 19.79-.06 27.87a1.28 1.28 0 0 0 2.55 0c0-8.08.1-18.9.1-27.87v-18.51c0-2.83.3-5.83-.25-8.63a1 1 0 0 0-1.88 0z" fill="#1e1e1e"/><path d="M478.52 422.51c-.06-4.76-.22-9.53-.2-14.29 0-5.31 1.57-13.85-5-16.2-5.32-1.91-12.75-1.02-18.32-1.22-2.36-.07-4.71-.1-7.07-.1H101.24c-21.56 0-43.12.12-64.67.06-3.4 0-6.79-.06-10.19 0-6.18.14-14.84-.29-16.3 7.38a.7.7 0 0 0 0 .25c-.88 9.42-.41 19.09-.52 28.54-.09 6.46-1.87 17.18 6.16 18.81a86.75 86.75 0 0 0 18.18 1.64h63.59c41 0 273.75-.49 349.12-.67a184 184 0 0 0 20.33-1c4.63-.52 9.52-.51 10.91-5.67 1.41-5.31.75-11.91.67-17.53zm-5.67 20c-2.64 1.26-6.55 1.09-9.44 1.33-3.3.27-6.61.44-9.92.56-9.76.34-19.57.12-29.34.14l-64.06.13c-35 .07-196.5.45-242.28.66-21.33.1-87.92.48-89.78.4-4.13-.19-10.14 0-13.91-1.93-3.17-1.6-2.93-6.83-3-9.9-.12-2.77 0-5.55 0-8.32.06-8.9-.43-18 .38-26.9a.33.33 0 0 0 0-.06c1.83-8.89 18.93-6 26.05-5.94h8.05l34.94.05q59.5 0 119 .05H434.26c5.65 0 26.71.27 31.58.55 3.15.19 7.2-.19 9.26 2.75 2.26 3.22 1 8.9 1 12.63 0 4.86.12 9.73.18 14.59.08 5.49 1.47 16.87-3.43 19.22zM189.74 233.34c-1.12 8.22-.56 16.85-.61 25.12-.07 11.44-.06 22.87 0 34.31 0 14.09.18 29.76.3 43.1a1.28 1.28 0 0 0 2.55 0c-.12-13.14-.16-28.64-.24-42.53q-.09-16.9-.09-33.81c0-8.58.68-17.37 0-25.93-.07-1-1.75-1.42-1.91-.26zM289.76 233.89c-1.21 11.23-.34 23-.38 34.28l-.23 54.83c0 4 .05 9.75 0 12.87a1.28 1.28 0 0 0 2.55 0c.08-28.59.18-59.66.18-89.11a128.48 128.48 0 0 0-.21-12.87 1 1 0 0 0-1.95 0z" fill="#1e1e1e"/><path d="M478.52 299.92q-.09-18.65-.16-37.28c0-3.78-.07-7.57-.05-11.35 0-5 1.5-11.33-2-15.42s-12-3-16.88-3.17c-2.87-.1-5.75-.21-8.63-.24h-336c-26 0-52 .15-77.95.08h-7.8c-6.54.07-17.39-1.08-19 7.42a.76.76 0 0 0 0 .26c-.69 7.51-.24 15.29-.3 22.83q-.15 19.32-.24 38.65-.06 9.22-.13 18.46c0 3.83-.7 11.31 2.48 14.24 2.31 2.12 7.62 2.09 10.57 2.47a83.22 83.22 0 0 0 11 .57H82.06q60.41 0 120.81-.19l239.7-.54a223.8 223.8 0 0 0 24.29-1c5.87-.66 10.25-.85 11.09-7.47 1.23-9.32.61-18.99.57-28.32zm-2.21 1.76c0 4.46.07 15.31 0 16.28-.07 3.15.49 12.23-2.5 14.15-2.32 1.49-6.62 1.29-9.26 1.53-3.69.34-7.4.53-11.1.66-11 .39-78.93.25-101.81.29-37.3.08-204.46.45-250.75.65-18.68.09-63.49.29-67.21.35h-.18c-5.86.07-12.41.07-18.07-1.64-5.48-1.67-4.33-10.52-4.29-15.28.13-19.29-.29-71.53.3-78.23v-.06c1.81-8.82 18.08-6 24.77-5.95.62 0 39.8.07 53.72.07q68.64 0 137.28.06h145c25.95 0 86.22.23 89.79.39 3.12.13 7.62-.34 10.57.85 5.65 2.28 3.53 11.63 3.55 16.78.03 4.33.15 37.05.19 49.1z" fill="#1e1e1e"/><path d="M191.13 127.73c.21-4.35-5.27.19-5.4 3-.31 6.49 1.29 38.36-1 40.26-3.42 3-144.74 2.32-159.55.94-2.89-.27-5.89 6.56-2.58 6.86 14 1.3 124.92.39 139.13.32 7.42 0 19.52 1.73 25.27-3.06 8.4-5.87 3.74-40.05 4.13-48.32z" opacity=".2"/><path d="M186 166.34c-.19 2.56-.75 4.57-2.87 5.87-.53.32-157.31.16-160.91 0-1.55-.08-6.06 0-7.05-3.25-1-1.26-.41-44.49.51-46 1.66-2.7 5.75-3.08 8.83-3.19 3.68-.13 150.11-2 158.27.29 2.4 2 3.68 7.63 3.78 10.83s-.42 32.9-.56 35.45z" fill="#f78100" opacity=".85"/><path d="M181.38 120.35c-3.86-1.58-158-.29-160.08.56-4.13 1.69-4.78 5.8-5.16 9.77A358.63 358.63 0 0 0 14.66 170c.07 4.41 5.45-.14 5.4-3-.18-10.88.71-38.75 1.78-39.92s28.84-1.22 39.49-1.28c25.69-.14 97.65.73 100.61.69 4.78 0 11.18-1.51 15.69.34 2.91 1.17 6.48-5.37 3.75-6.48z" fill="#fff" opacity=".2"/><path d="M186.62 158.52c.13-6.06.47-12.13.49-18.19 0-3.72-.07-16.14-1.07-18.23-1.52-3.19-5.78-3.18-8.87-3.51-10.59-1.09-148.84-.18-152.71.06-3.44.22-8.34.27-9.73 3.94-2 5.23-1.22 12.44-1.25 17.93 0 4-.32 21.71.2 26.59.41 3.92 1.38 5.46 5.44 6 10.65 1.31 66.14.48 82.94.42 16.29-.07 71.73-.25 75.74-.44 1.79-.08 4.85.37 6.43-.56 4.05-2.38 2.41-10.28 2.42-13.83a.66.66 0 0 0-.03-.18zm-4.33 12.41c-2.32.9-14.45.33-17.19.32-3.19 0-104.29.6-130.6.39-1.32 0-10.75-.3-14.13-.61-4.52-.42-4.6-3.21-4.71-7.24-.2-7.71.23-28.31.33-30.83.12-3.09-.74-9.4 2.5-11.06 4.44-2.27 12.23-1.28 17.08-1.36 2.64 0 67.85-.13 97.82-.21 7.71 0 31.41 0 35.55-.15s12.06-.9 14.82 2.44c2.06 2.47 1.73 15.48 1.74 18.14 0 3.24-.24 15.08-.3 17.76a.66.66 0 0 0 0 .15c-.2 3.51 1.31 10.62-2.91 12.26z" fill="#f78100"/><path d="M291.69 153.3c.12-9-.89-17.88-.53-27 .18-4.36-5.29.19-5.4 3-.32 7.73 2.07 39.15-2 41-2.81 1.27-56.64.87-80.09.9-2.92 0-5.78 6.87-2.58 6.86 24.61 0 49.43.88 74-.37 5.25-.27 10.54-.26 13.73-5.1 3.53-5.31 2.79-13.24 2.87-19.29z" opacity=".2"/><path d="M196.69 121c3-2.45 84.82-3.14 87.87-.12 2.26 3.71 1.94 47 1 48.52-3.34 4.47-81.81 3.19-88.48.9-3.31-1.99-3.37-46.9-.39-49.3z" fill="#f78100" opacity=".85"/><path d="M284.35 121.64c-9.72-4.34-84-2.08-86.74.58-5 4.86-3.87 36.95-.93 45.25 1.53 4.35 7.37-2.17 6.24-5.36-2.63-7.44-2.48-15.07-2.22-22.85.08-2.24.17-4.48.17-6.72a38.29 38.29 0 0 1-.3-4.5c.23.17 16.87-.89 24.36-1 8.61-.12 17.22-.14 25.84-.11 9.39 0 20.42-1.37 29.08 2.5 3.43 1.57 7.77-6.33 4.5-7.79z" fill="#fff" opacity=".2"/><path d="M287.1 129.28c-.23-3.53.23-9-3.87-10-5-1.26-10.79-.78-15.87-.85-7.3-.11-14.62 0-21.92 0h-29.29c-4.9 0-9.79.42-14.66.88-1.32.12-3.58-.05-4.8.66-2.52 1.48-2 4.92-2 7.35v.14c-.67 9.84-.43 19.79-.77 29.66-.12 3.58-.83 12.33 2.88 14.43 1.82 1 5 .87 7 1a71.62 71.62 0 0 0 8.91.16c17.46-.91 34.95.52 52.39-.11 5.7-.2 11.41-.1 17.1-.37 5-.24 5.08-3.71 5.13-8.1.09-11.58.55-23.29-.23-34.85zm-1.69 23.83c-.13 3.41-.34 6.83-.37 10.24 0 3.19.56 6.05-3.34 6.62-5.19.75-46.33 0-61.45.09-4.72 0-9.39.58-14.13.38-2.3-.1-7.35.38-8.85-1.41-2.2-2.63-1.51-9.66-1.45-12.88.2-9.55-.23-19.16.27-28.7a.66.66 0 0 0 0-.15c.11-1.55.13-4.94 1.58-5.75a8.29 8.29 0 0 1 2.42-.27c2.78-.26 13.84-.88 16.58-.88 7.59 0 51.92.12 54 .17 2.68.07 5.35.12 8 .3 3.26.21 5.07-.15 5.73 3.25 1.08 5.53.37 11.14.66 16.71.21 4.1.51 8.17.35 12.28z" fill="#f78100"/><path d="M291.89 245.2c-.05-4.4-5.44.15-5.41 3 .31 23.34.41 74.35 0 76.37-.41 2.37-6.46 5.82-5.77 5.77-2.67.39-65.5-.23-74.91-.19-2.93 0-5.79 6.87-2.58 6.86 22.39-.1 72.69.05 75.27-.33a15.92 15.92 0 0 0 13.35-14.2c1.16-13.34.21-64.99.05-77.28z" opacity=".2"/><path d="M196.31 239.22c1.84-1.09 85.43-3.6 89.19 1.68 2.17 2.47 1.59 84.84 0 87.66-2.41 3.85-83.29 2.17-86.77 1.2-1.27-.35-2.21-2.1-3.22-3-2.38-1.97-2.24-86.31.8-87.54z" fill="#f78100" opacity=".85"/><path d="M283.61 240.2c-15.52-.21-76.74-2.1-83.08-.21-2.77.82-5.4 3.9-4.48 6.79a13.47 13.47 0 0 0-1.44 3.05c-.91 2.8 0 68.63 1.54 75.51.8 3.63 5.8-1.74 5.21-4.47-2.66-12.17-1.64-52-1.73-58.87-.06-4.59-.74-13.65 3.43-15.27s32.73 0 38.48 0c13.16.1 26.32.14 39.49.32 2.97.05 5.8-6.8 2.58-6.85z" fill="#fff" opacity=".2"/><path d="M287.66 286.76c-.14-11.42-.51-22.87-.24-34.29.08-3.29 1.09-8.29-.4-11.31-1.2-2.45-4.67-3.15-7.16-3.51-5.43-.78-11.3-.13-16.84-.13-14.34 0-54.38 0-60.06.23-2 .08-6.31-.63-7.78 1.13-1.73 2.07-1.24 10.76-1.23 10.82-.64 10.85-.85 55.63-.52 67.1.1 3.52-.38 7.79 1.24 11 1.38 2.76 3.57 2.84 6.39 3.17 5.06.57 64.05.87 68.41.7 4.16-.15 10.56.88 14.48-1 3.18-1.54 3.82-5.42 4.05-8.64.83-11.54-.19-23.7-.34-35.27zm-1.88 33.92c-.13 3.41-.49 7.37-4.55 8.33-2.56.6-75.89.15-79.07-.16-2.69-.27-4.68 0-5.82-3-.92-2.42-.58-5.56-.65-8.1-.35-11.62-1-57.08-.32-68.1v-.12c.25-2.54-.06-8.29 1.9-9.62 1.79-1.22 7.67-.33 10-.4 4.23-.13 56.26 0 59.94.08 3.23 0 6.48-.16 9.71 0 2.43.1 6.89.23 8.26 2.89.92 1.78.23 6.09.18 8-.21 9.78.57 66.21.42 70.2z" fill="#f78100"/><path d="M478.24 126.69c-.24-4.43-5.57.12-5.41 3 .35 6.32-.16 26.14-.19 29.78 0 2.84.24 9.77-2.58 11-1.72.74-148.26.49-161.76.66-2.92 0-5.77 6.9-2.58 6.86 26.85-.34 129.61 1 154-.84 4.84-.36 10.44-.14 14.32-3.62 5.75-5.2 4.71-37.47 4.2-46.84z" opacity=".2"/><path d="M297.28 120.38c4-1.55 173.13-2.57 174.31.3 1 1.26 1.94 46.43 1 47.9-1.67 2.7-6.25 2.09-9.34 2.2-3.68.13-163.53 2-166.24-.3-2.36-2.02-3.52-47.05.27-50.1z" fill="#f78100" opacity=".85"/><path d="M466.66 120.17c-13.25-.36-112.93 1.88-135.7 1.55-3.37 0-20.46-2.23-24.83-.77a2.17 2.17 0 0 0-.36-.12c-8.25-1.85-8.18 12.79-8.56 17.39-.8 9.38-2.78 21.72 1.36 30.53 1.3 2.76 5.9-3 4.65-5.67-2.47-5.25-1.46-13.3-1.21-18.94.14-3 1.13-14.47 1.15-14.7a6.55 6.55 0 0 0 3.24-2.71c3.35-.39 13.22 1.57 14.2 1.63 3.34.19 30.31.22 40.46.09 20.59-.26 89.31-1.79 103-1.42 2.94.08 5.84-6.77 2.6-6.86z" fill="#fff" opacity=".2"/><path d="M472.84 120.75c-1.4-2.66-5.28-2.45-7.9-2.53-28.3-.89-118.28 0-134.89 0h-16.46c-3.63.09-7.28.43-10.9.71-1.61.13-4 0-5.46.74-4.55 2.46-2.6 11.76-2.61 15.59a.8.8 0 0 0 0 .15c-.21 8.25-.44 16.41-.22 24.68.07 2.9-.68 9.37 2.37 11.17s9.82 1 13.38 1c11.51 0 23 .15 34.55.14q50.17-.06 100.35-.16c2.9 0 5.8 0 8.71-.08 5-.12 11.06.75 16-.33 3.73-.82 3.86-4.82 4-8 .43-9-.15-17.85-.1-26.86.06-4.57 1.41-11.97-.82-16.22zm-1.3 43.11c-.18 3.22-.16 5.47-3.81 5.84-2.7.27-5.52.11-8.23.16-3.82.07-7.64.16-11.46.17q-45.29.08-90.56.19c-10.61 0-21.27.4-31.87.15-7.86-.18-15.74.32-23.6-.16-2.92-.18-4.68.16-5.42-3.06-.8-3.4-.51-7.29-.64-10.76-.14-4-.15-7.93-.07-11.92.06-3 .11-6 .19-9v-.15c.14-3.71-1-9.52 1.31-12.69 1.59-2.19 5.06-1.73 7.72-1.89 3.63-.23 7.25-.5 10.89-.5h52.03c30.51 0 61-.06 91.55.08 2.52 0 8.18-.65 10.24.59 3.59 2.15 1.57 14.11 1.62 17.71 0 3.42.3 6.84.45 10.25.26 4.98-.08 10.02-.34 14.99z" fill="#f78100"/><path d="M477.45 244.64c-.16-4.42-5.51.13-5.41 3 .41 11.49.41 77.81.1 78.57-1.51 3.7-7.14 3.51-10.36 3.72-15.9 1.05-137.22.87-153.92.57-2.92-.05-5.81 6.81-2.58 6.87 35.47.63 149 .12 158.2-.95 17.88-.68 14.28-13.65 14.48-18.32.39-9.53.04-58.52-.51-73.46z" opacity=".2"/><path d="M296.52 238.74c2.93-1.28 173.65-1.79 175.29.32 1 1.26 1.39 87.63.48 89.11-1.67 2.7-16.65 2.36-20.33 2.49 0 0-153.6.18-154.62-.68-.27-.23-2.25-4-2.25-4s-.46-86.09 1.43-87.24z" fill="#f78100" opacity=".85"/><path d="M467.35 239.54c-14.26-.95-132.72 1.14-147.52.68-5.27-.16-12.16-2.38-17.26-.55-3.66 1.31-4.72 4.78-5.24 8.25-2 13.3-1.67 70.1-.64 77.68.6 4.42 5.8-.12 5.41-3-2.07-15.24-.14-75.9.49-77.47 0 1 13.23 1.93 15.73 2 33.32.68 66.73-.74 100.06-1.08 15.42-.15 31-.65 46.39.37 2.91.17 5.86-6.67 2.58-6.88z" fill="#fff" opacity=".2"/><path d="M474 308.18c0-2.59-.06-5.18-.1-7.77q-.21-16.65-.41-33.31c-.1-8.59 1-17.75-.13-26.21-.7-5.37-5-3.88-9.57-4-3.63-.09-7.27-.25-10.9-.28-14.81-.15-29.63.11-44.43.16l-67.3.27-21.56.09h-4.17c-2.55 0-5.11-.07-7.66 0-3 .06-7.76-.42-10.67.58-4.55 1.57-2.65 12.52-2.66 16a.76.76 0 0 0 0 .16c-.13 17.25-.4 34.5-.6 51.75 0 4.05.1 8.09.18 12.13s-1.34 11.38 3.57 13.09c4.72 1.64 11 1.19 15.89 1.07 3.85-.1 7.66 0 11.49.11 36.83.94 73.81-.11 110.65-.19h25.32c3.19 0 10 .46 12-2.89 1.37-2.36.6-6.41.69-9 .12-3.94.37-7.86.37-11.76zm-2.24 0c0 3.14-.21 6.29-.31 9.42-.09 2.63.87 9.3-1.35 10.86-2 1.4-6.22 1-8.56 1.07-2.8.07-5.59 0-8.38 0H442.8q-55.73.09-111.44.23c-4.33 0-8.66-.21-13-.17a154.54 154.54 0 0 1-16.53-.25c-1.08-.1-3 0-4-.57-2.21-1.33-1.8-5.13-1.81-7.26 0-4.27-.27-8.52-.33-12.79-.26-16.44.1-32.91.15-49.36v-5.52a.74.74 0 0 0 0-.14c.09-2.56-.13-5.13.07-7.68.08-.95.21-5.09 1-5.95 1.58-1.76 8.64-1 10.8-1 3-.05 6 .05 8.95.06h15.87l60.34-.17 53.63-.17c4 0 8 0 12.05.14 3.34.09 6.71 0 10 .27 2 .14 2-.25 2.58 1.74.44 1.43.2 3.47.2 5 0 4.21-.21 8.42-.19 12.63.17 16.43.76 33.02.61 49.57z" fill="#f78100"/><path d="M190.66 244.77c0-4.4-5.44.15-5.4 3 .15 11.45.35 64.8.29 67.75-.08 3.75 1.15 10.12-2.29 12.38-4.81 3.17-139.17 2.46-156.32 2-2.92-.08-5.82 6.78-2.58 6.86 35.55.92 152.08-.3 157.68-2.07 11.83-3.75 8.73-13.49 8.92-22.19.16-7.73-.1-52.91-.3-67.73z" opacity=".2"/><path d="M13.91 247.21c.19-2.56 4.35-7.87 6.94-8.06 1.28-.36 161.42-1.88 163.77 1.59 2.35 6.91 1.46 82.38.55 83.86-1.67 2.7-4.28 5.09-7.37 5.2-3.68.13-154.83 1-155.85.17-5.34-1.58-7.5-8.1-7.6-11.3s-.63-68.91-.44-71.46z" fill="#f78100" opacity=".85"/><path d="M181.4 240.2c-30.25-1.27-131.41-.88-151.67-.42-4.67.1-15.86-2.66-15.07 12-.34 7.24-1.29 55.3.54 71.75.49 4.43 5.73-.12 5.41-3-1.5-13.42-.55-73.75-.48-74.35.46.46 3.21.53 3.05.51 2.47.38 77.38-1.22 112.19-.64 14.47.24 29 .37 43.45 1 2.91.14 5.84-6.71 2.58-6.85z" fill="#fff" opacity=".2"/><path d="M186.73 294.72c0-10.5 0-38.31.05-41.71s.86-9.15-1-12.32c-2.33-4-12.5-2.61-16.09-2.77-1.61-.08-34.76 0-49.75.05l-81.1.34c-6.61 0-14.58-1.55-20.6 1-6.37 2.73-5 10-5.05 15.54a.86.86 0 0 0 0 .17c0 16.05-.15 52.18-.13 54.19.05 5.41-1.34 15.15 3.5 19.15 6 4.94 15.75 2.43 22.7 2.67 2.1.08 4.12.45 6.22.48 35.06.33 114.55-.16 119.22-.22s9.85.12 14.57-.64c7.42-1.19 7.45-6.77 7.68-13.07.31-7.64-.23-15.19-.22-22.86zM184.8 316c-.07 1.81 0 3.75-.2 5.55-.6 4.39-2.59 6.65-6.94 7.07-4.08.39-8.3.39-12.4.45h-9.27q-51.46.09-102.93.22c-3.07 0-6.21.22-9.27 0a67.78 67.78 0 0 0-10-.19c-5.15.4-13 .88-16.42-3.48s-2.32-12-2.4-17.35c-.23-16.2-.2-32.41-.3-48.61v-4.65a.7.7 0 0 0 0-.14c.2-5.54-.93-12.82 6.11-14.25 4.42-.9 9.27-.37 13.76-.34h17.6l55.07-.16 50.28-.17c3.13 0 6.27-.09 9.4 0s6.25.29 9.37.44c4.43.2 7.7-.41 8.18 4.88.3 3.26.18 6.55.17 9.82-.07 15.84-.83 31.86-.15 47.67.22 4.45.54 8.66.34 13.24z" fill="#f78100"/><path d="M191.27 403c-.57-4.42-5.78.12-5.41 3 .28 2.18.31 26.48-.64 31.27a20.68 20.68 0 0 1-4.76 3.17c-3.83 1.59-142.38 1.17-152 1-2.92 0-5.81 6.81-2.58 6.87 28.36.5 141.34-.77 148.79-1.45 3.51-.32 8.13-.19 11-2.59a16.57 16.57 0 0 0 4.53-6.9c1.33-4.82 1.38-31.98 1.07-34.37z" opacity=".2"/><path d="M14.21 403.85c.19-2.55 3.13-6.5 5.25-7.8 2.62-.55 155.55.28 159.15.45 1.56.07 5.91 3.68 6.92 4.94s.54 34.56-.37 36c-1.67 2.7-5.26 3.09-8.34 3.2-3.68.16-152.82 1.36-156.33.36-1.27-.35-6.25-7.28-6.35-10.47s-.14-24.13.07-26.68z" fill="#f78100" opacity=".85"/><path d="M181.79 396.63c-12.38-.75-56.15 1.47-65.69 1.48-17.57 0-76.3-.49-88-1.75-3.63-.39-7.28-1.67-10 1.35s-3.4 7.63-3.14 11.52c0 .55-.21 17.49.23 25.65.23 4.42 5.56-.13 5.4-3-.52-9.79-.95-19.56.9-29.24.77.1 6.67.87 9 1.06 5.22.44 27.36 1.16 33.2 1.21 7 .05 58.77.14 77.64 0 12.68-.1 25.31-2.16 38-1.39 2.8.15 5.74-6.69 2.46-6.89z" fill="#fff" opacity=".2"/><path d="M187.27 418.94c-.07-4.93.31-9.9-.27-14.82-.42-3.53-.73-6.12-4.21-7.51-4.67-1.88-10.44-1.59-15.37-1.7-24.81-.53-49.68 0-74.49 0H35.85c-5.78 0-14-1.74-19 1.66-4.68 3.19-3.45 10.11-3.55 14.9a.58.58 0 0 0 0 .19v9.68c0 4.44-.84 9.62.84 13.83 3 7.54 11.31 7.53 18.11 7.46 10.31-.12 130.49-.44 133.31-.49 7.56-.14 20.71 1.88 21.71-8.47.49-4.8.07-9.84 0-14.73zm-2.17 13.46c-.86 6.8-4.59 7-10.12 7.2-3.08.12-13.34.34-15.4.35-27.53.12-109.41.63-122.81.8-4.62.05-10.37.91-14.61-.55-8.35-2.86-7.19-11.31-7.31-18.48q-.09-5-.14-10.07v-.12c.23-3.82-.75-9.92 2.42-12.82 2.73-2.49 8.16-1.82 11.56-1.83 2.2 0 4.4.06 6.6.07l47.81.05 79.85.05c3.21 0 6.34.1 9.55.27 2.58.14 5.43 0 7.89.8 4.22 1.43 4.28 4 4.58 7.92.36 4.58 0 9.23 0 13.82.11 4.14.65 8.5.13 12.54z" fill="#f78100"/><path d="M292.24 428.88c-.13-8.77-.45-17.5-.18-26.28.13-4.37-5.32.17-5.41 3-.23 7.39-.15 31.31-.87 33.66-1.85 3.68-76.15 1.46-82.28 1.38-2.92 0-5.8 6.82-2.58 6.86 16.61.2 66.54.78 74.86.18 3.68-.27 8.24-.28 11.33-2.63a20.75 20.75 0 0 0 3.25-4.69c1.83-3.69 1.94-7.36 1.88-11.48z" opacity=".2"/><path d="M286.46 433.42c-.2 2.56.35 5.26-1.77 6.56-2.14 2.18-86.15 2.72-88.34-.59-1-1.25-2.12-35.88 0-39.21 1.67-2.69 5.25-3.08 8.34-3.19 3.68-.13 77.24-.67 79.08.8 4.29 3.65 2.88 33.08 2.69 35.63z" fill="#f78100" opacity=".85"/><path d="M280.88 397.89c-6.84-.48-61.82 0-68.95.16-5.68.14-12.39-.36-14.52 6.22-.2.6-2.37 6.92-2.4 8.69-.14 8.29 1.59 17 2.41 25.21.44 4.43 5.69-.11 5.4-3-.44-4.49-1.57-20-2-22.9h.09a40.92 40.92 0 0 1 7-3.63 8.61 8.61 0 0 0 3.25-3.8c2.17 0 46.87-.94 48.91-1.07 6.26-.37 12 .59 18.22 1 2.92.23 5.88-6.64 2.59-6.88z" fill="#fff" opacity=".2"/><path d="M287.15 425.75a.59.59 0 0 0 0-.13c.19-4 .47-7.88.38-11.86s1.39-13.68-2.6-16.64c-2.73-2-8.6-1.59-11.77-1.73s-6.56.31-9.87.34c-15.63.13-31.28-.4-46.92-.27-5.24.05-10.85-.16-16 .49-6.18.77-6.06 6.18-6.26 11.28-.22 5.6 0 10.86.2 16.42.19 4.65-1.44 10.74.23 15.18 1.46 3.88 7.82 3 11.15 3.14 3.65.16 7.28.37 10.93.37h49.16c6 0 12 .3 17.91-1 6.36-1.42 3.51-10.77 3.46-15.59zM285.58 436c-.56 4.12-4.33 4-8 4.27-4.07.31-8.19.09-12.27.07-5.92 0-45.1.22-58.74-.42-2.38-.12-7.84.45-9.48-1.36s-.85-6.3-.79-8.66c.09-3.79 0-7.38-.25-11.15-.33-5.44-1.63-18.9 5.24-20.56 2.93-.7 6.8-.15 9.82-.25 1.67-.06 3.35-.14 5-.15 13.84-.13 27.69.15 41.53.19 6.74 0 13.45-.73 20.17-.22 3.74.28 6.31.14 7.44 4.38.95 3.55.48 8 .63 11.65.15 4 0 7.88-.18 11.83v.16c-.2 3.3.3 6.9-.12 10.22z" fill="#f78100"/><path d="M478.59 403.28c0-4.41-5.43.14-5.4 3 .07 9.65.14 19.32-.28 29 0 .19-3.21 4.31-4.12 4.5-3.07.64-152 .85-165.29.8-2.92 0-5.79 6.85-2.58 6.86 29.2.1 58.4.56 87.6.5 13.27 0 26.51-.55 39.78-.76 12.32-.2 25.31 1.27 37.54-.36 5.51-.73 11.21-3.2 12.1-9.15 1.68-11.18.74-23.14.65-34.39z" opacity=".2"/><path d="M297.13 397.86c7.93-3.33 167.33-2.42 174.74.59 2.31 4.19.93 39.1 0 40.58-1.27 2-169.41 4.81-174.81-.6-4.21-3.29-3.42-37.64.07-40.57z" fill="#f78100" opacity=".85"/><path d="M469.08 399.74a22.92 22.92 0 0 0-11.57-1.65 2.93 2.93 0 0 0-1.76 1.06c-1.39-.1-16.58-.37-22.83 0-4.37.23-8.71.28-13.08.24-11.24-.09-83.34-1.83-108.13-1.51-4.81.07-9.66-.12-12.9 4.27-5 6.76-2.57 28-1.62 34.95.6 4.42 5.8-.12 5.41-3-.73-5.36-1-21.57-.72-24.28.09-1-.13-3.18.46-4s.58-.62 1.92-.9c2.79-.59 88.43 1.16 112 1.38 4.07 0 24.61-.91 30.85-.6s12.49 1 18.78.81c2.16-.17 6.16-5.51 3.19-6.77z" fill="#fff" opacity=".2"/><path d="M474.52 419.7c-.14-2.32-.57-4.45-.53-6.81.07-3.83 1.19-10.82-1.06-14.25s-9.73-2.74-13.16-2.9c-2.23-.1-4.46-.23-6.69-.25h-11.62c-16.13 0-100.44-.19-126.46.09-5.68.06-13.51-.52-18.75 2.13a.67.67 0 0 0-.33.38c-1.64 1.71-1.65 5.14-1.85 7.3-.41 4.34-.43 19.41-.33 22.57.09 3-.27 8.49 2 10.92s7.12 2.45 10.12 2.68c5 .39 20.26.85 23 .84 32.1 0 114.54-.51 123.65-.66 3.69-.07 7.37-.39 11.05-.39 2.24 0 4.95.63 7.07-.36 3.87-1.8 3.31-7.13 3.45-10.69s.65-7.13.44-10.6zm-2.31 2.68c-.13 2.92-.36 11.36-.64 12.54-.69 2.92-3 4.33-6 4.23-10-.35-20.33.37-30.38.42q-47 .26-94 .57c-7.43.05-31.58-.17-36.23-.57a20.58 20.58 0 0 1-5.1-.88c-3.84-1.36-3.94-4.17-4.23-7.79a189.25 189.25 0 0 1-.33-20.49c.08-2.83-.54-9.2 1.7-11.4 3.36-1.55 7.83-1.05 11.43-1.28 2.22-.15 8.15-.24 8.9-.24 4.09 0 109.51-.19 135.84.14 1.89 0 12.45 0 15.35 1 3.82 1.36 3.3 5.4 3.35 8.83.13 4.91.57 10.04.34 14.92z" fill="#f78100"/><path d="M344.45 26.28a.71.71 0 0 0-1.36 0c-.08.44-.14.89-.19 1.35a5.7 5.7 0 0 0-5.28-1.4c-2.35.69-3.28 2.85-3.56 5.12a6.13 6.13 0 0 0 3.17 6.22 5.66 5.66 0 0 0 5.48-.74 6.16 6.16 0 0 1-.26 1.78c-1.11 3.23-5 2.4-7.08 1.16a1 1 0 0 0-1.24 1.61c2.61 2.45 7.74 1.86 9.78-1.14 1.07-1.57.9-3.53.87-5.35a56.22 56.22 0 0 0-.33-8.61zm-6.33 9.5c-1.9-.75-2.6-3-2.32-4.86s1.15-3.26 3.1-3.42c1.62-.14 2.57.85 3.89 1.38-.11 1.81-.06 3.64-.11 5.45v.08c-1.28 1.06-2.86 2.04-4.56 1.37zM354.25 25.93l-.14-.09a1.22 1.22 0 0 0-1.25 0 14.36 14.36 0 0 0-2.65 1.77 2.78 2.78 0 0 0-.8-1.61.23.23 0 0 0-.3 0c-1.07 1.18-.68 2.86-.71 4.37 0 2.25-.09 4.5-.2 6.74-.07 1.29 1.94 1.29 2 0 .1-2.25.17-4.48.1-6.74V30a10.44 10.44 0 0 1 2-1.36c.75-.37 1.94-.42 2.3-1.26a1.11 1.11 0 0 0-.35-1.45zM358 26.29a.75.75 0 0 0-1 .27l-.06.12a.74.74 0 0 0 .12.85 38.91 38.91 0 0 1-.2 4.44c0 1.83-.05 3.66 0 5.5a1 1 0 0 0 1.9 0V30c-.13-1 .32-3.1-.76-3.71zM357.65 23.67h.07a.94.94 0 0 0 .55-1.32.88.88 0 0 0-.63-.74c-.92-.28-1.57.92-1.07 1.65a1 1 0 0 0 1.08.41zM372.61 21.6a.72.72 0 0 0-1.41-.19 26.36 26.36 0 0 0-.92 5.41 6.33 6.33 0 0 0-4.28-1.18 5.61 5.61 0 0 0-4.42 5.66c0 2.38 1.21 5 3.5 5.95a5.23 5.23 0 0 0 5.37-1c0 .42.08.84.13 1.25.12 1.15 1.9 1.2 1.83 0-.3-5.37.29-10.6.2-15.9zm-2.76 12.47a3.25 3.25 0 0 1-4.54 1.33 4.88 4.88 0 0 1-1.89-4.57c.21-2 1.67-3.71 3.8-3.47a7.24 7.24 0 0 1 2.95 1.4c0 1.64 0 3.3.1 4.92a.66.66 0 0 0-.42.39zM389.77 26.16a8.41 8.41 0 0 0-3.39 0A5.06 5.06 0 0 0 382.2 31c-.34 4.61 4.74 9.88 8.95 5.86.81-.77-.4-2-1.21-1.22-3.38 3.09-6.64-2.47-5.71-5.46.6-2 2.35-2.32 4.15-2.36 1.17 0 1.63.45 2.64.67a.44.44 0 0 0 .43-.73c-.66-.76-.57-1.33-1.68-1.6zM404.85 28.83c-.21-2.88-5.1-3-7.07-2.18-2.56 1.12-3.85 5.28-2.78 7.77 1.21 2.82 5.74 4.51 8.29 2.62a6.4 6.4 0 0 0 1.54-8.13.24.24 0 0 0 .02-.08zM403 34.9c-1.79 2-6.13.67-6.35-2.12-.14-1.82.81-4.1 2.67-4.55a5.77 5.77 0 0 1 3.8.47.71.71 0 0 0 .09.65 4.62 4.62 0 0 1-.21 5.55zM417.1 26.53c-1.88-1.47-4.63-.29-6.31 1.34a9.12 9.12 0 0 0-.2-1.29c-.13-.57-.86-.46-1 0a15.3 15.3 0 0 0-.69 5.26 18.84 18.84 0 0 0 .3 5.36c.21.77 1.55.89 1.68 0a36.9 36.9 0 0 0 0-5.36v-2.37c2-1.2 5.37-3.66 6-.07a30.13 30.13 0 0 1 0 6.91c-.07 1.3 2.11 1.29 2 0-.16-2.14-.09-4.31-.28-6.44a4.58 4.58 0 0 0-1.5-3.34zM426.61 35.29c-1.06 1.17-1.22-2.6-1.22-2.79 0-1.15 0-2.3-.05-3.45v-.87a5.72 5.72 0 0 0 1.44-.35c.9-.35.9-2-.25-1.86-.42.05-.83.11-1.24.18 0-.92-.11-1.83-.23-2.74s-1.46-.59-1.55.21a25.76 25.76 0 0 0-.16 2.78h-.27c-.47 0-1.88 0-1.61.94v.11a.78.78 0 0 0 .53.55 10.53 10.53 0 0 0 1.29.2v2.3c0 1.69-.29 3.77.4 5.37.8 1.84 3.24 2.37 4.34.55.63-.89-.68-1.95-1.42-1.13zM437.91 26.83c-1.91-2.26-5.7-1.41-7.5.55a.64.64 0 0 0 .62 1.06c.93-.21 1.73-.75 2.65-1 2.12-.51 3.24.72 3.52 2.64.07.47.12.94.16 1.42-3-1.53-8-1.05-7.31 3.24a3.72 3.72 0 0 0 3.63 3 5.82 5.82 0 0 0 4-1.44v.7c.09 1.2 2 1.22 1.89 0-.11-2.06-.23-4.12-.41-6.17a7 7 0 0 0-1.25-4zm-3.2 8.91c-1 .25-2.51 0-2.73-1.23-.51-2.81 3.59-2 5.49-1.43l.06 1a9.05 9.05 0 0 1-2.82 1.66zM444.33 26.88a.7.7 0 0 0-1.39 0 31.11 31.11 0 0 0-.06 5.46c.08 1.47 0 3 .68 4.33a.69.69 0 0 0 1.24-.17c.4-1.43 0-3-.12-4.53-.12-1.69-.14-3.4-.35-5.09zM444 23.59a1.24 1.24 0 0 0 .86-.83.8.8 0 0 0-.2-.76.83.83 0 0 0-.93-.35 1.46 1.46 0 0 0-.65.37c-.66.59.06 1.98.92 1.57zM456.5 25.77c-1.86-1.06-4.67.65-6.08 2.54a17.46 17.46 0 0 0-.22-1.77c-.13-.63-1.2-.66-1.3 0a35.09 35.09 0 0 0-.19 5.8c0 1.34-.42 3.63.3 4.79.53.85 2.11.29 1.7-.71-.55-1.31-.12-3.75-.18-5.2v-1.63c1.92-1.13 5.1-3.63 5.87-.62.62 2.4.36 5.55.24 8-.07 1.33 2.13 1.33 2.06 0-.14-2.47-.15-4.95-.38-7.42-.19-1.43-.46-3.01-1.82-3.78zM466.4 26a5.85 5.85 0 0 0-4 7.93c1.58 3.4 6.48 4.41 9.39 2.16.61-.48-.08-1.34-.7-1.2-2.44.52-5.34 1.35-6.93-1.33a3.61 3.61 0 0 1-.32-.76 24.24 24.24 0 0 0 5.43-.37c1.06-.1 3.49.15 3.84-1.27.31-1.25-1.37-3.37-2.19-4.2a4.68 4.68 0 0 0-4.52-.96zm3.92 4.57l-1.78.2a35.44 35.44 0 0 0-4.82.32 4.1 4.1 0 0 1 4.46-3.48c1 .15 2.73 1.42 2.78 2.6.04.46.57.19-.64.34zM482.37 26.29c-1.14-.87-3.34.24-4.33 1a7.65 7.65 0 0 0-.64.54c0-.25 0-.5-.07-.74a.68.68 0 0 0-1.35 0 35.9 35.9 0 0 0 .3 10.14c.19 1 1.58.67 1.63-.22.07-1.64-.18-3.32-.27-5 0-.66-.07-1.32-.1-2 .73-.19 1.34-1.07 1.94-1.44a4.66 4.66 0 0 1 1.35-.54c.54-.13 1.08-.06 1.54-.41a.79.79 0 0 0 0-1.33z" fill="#1e1e1e"/></svg>