<svg xmlns="http://www.w3.org/2000/svg" viewBox="0 0 490 520"><path d="M414.58 421.67c2.81-40 .09-128.56-.95-135.48 1.77-39.14 2.9-78.34 2.1-117.53-.43-21.23-2.61-95.32-2.2-97.25 1.36-6.32 1.7-17.46-5.61-18.32-58.62-6.85-92.26-3.73-151.07-5.8-29.8-1.06-101 .5-134.6-.17-22.92-.46-19.4 32.2-16.48 36.75-5.31 57.59 2.49 114.8 2.25 172.47-.12 29.55-7.67 147.84-6.23 177.38.75 15.21 1.81 32.42 7.21 46.35 11.52 28 49.66 13.42 54.92 12.78-.38 6.06.57 8.81 6.24 8.45 102.83-6.6 200.25-5.81 229.45-5.48 11.59.13 20.51-19.52 18-32.36-2.1-10.92-5.29-35.14-3.03-41.79z" fill="#fff"/><path d="M414.61 475.52l-.06-16.74q-.14-34-.25-68-.17-48-.32-96.07-.18-50.34-.34-100.68l-.27-83.62c-.05-14.43-.15-28.85-.15-43.28v-3.48c.14-4.48.77-9.72-3.45-12.63-4.67-3.22-13.08-1.87-18.41-2s-10.83-.13-16.25-.13H198.24l-60.69.11c-3.34 0-6.68-.05-10 0-5.25 0-12.56-.88-17.33 1.93-4.45 2.62-3.38 7-3.52 11.37a1.43 1.43 0 0 0 0 .22c0 10-.06 20-.09 30q-.12 37.62-.23 75.26-.15 49.38-.31 98.77-.15 49.61-.25 99.2l-.12 78.3c0 11.49-.32 23 0 34.51.15 6.4-.53 14 6.73 16.38 11.08 3.61 24.35 1.38 35.79 1.77 5.29.17 10.63-.05 15.92-.07l83.72-.34 96.43-.41c19.15-.08 38.45.4 57.59-.55 3.85-.19 9.52-.46 11.46-4.48 1.64-3.4 1.21-8.83 1.31-12.52 0-.99-.04-1.91-.04-2.82zm-2.61 2.79a67.08 67.08 0 0 1-.5 7.38c-.39 2.64-.9 5.24-3.72 6.13a23.6 23.6 0 0 1-5.92.81c-5.81.29-11.66.31-17.47.37-4.73.05-9.46 0-14.18.06l-80.14.32-95.5.39c-15.45.06-31.06.76-46.51.19-7-.25-13.86.12-20.81 0-4-.08-8.63-.08-12.46-1.23-2.64-.79-5-2-5.85-4.78-.61-1.92-.35-4.46-.46-6.45-.08-1.52-.14-3-.15-4.49V462.6q0-31.57.08-63.14 0-45.82.06-91.67V69.39v-7a.47.47 0 0 0 0-.16c.19-4.52-.6-9.13 5-10.55 4.14-1.06 8.92-.64 13.16-.63 3 0 6.06 0 9.09.05h31.08q44.67.06 89.34.07h92.16c17.21 0 34.4-.13 51.6.36 5.54.16 11.05.67 11.21 7.54 0 2-.17 4-.2 6v4.92l.06 18.9.21 69.64.28 94.14.28 98.57q.12 40.71.23 81.43 0 21.6.11 43.2c-.08.87-.08 1.66-.08 2.44z" fill="#1e1e1e"/><path d="M257.39 49.23c-1.11 28.26-.74 56.61-.82 84.89q-.15 55.84 0 111.69.16 102.9.7 205.78c.07 14.35.23 28.71.32 43.06a1.28 1.28 0 0 0 2.55 0q-.36-60.52-.55-121.06-.51-113.44-.54-226.9c0-32.48.62-65 .32-97.46a1 1 0 0 0-1.95 0z" fill="#1e1e1e"/><path d="M410.45 269.74c-46.64.5-93.26 1.09-139.91 1q-67.44-.14-134.87-.89-13.87-.13-27.75-.3a1.25 1.25 0 0 0 0 2.5q39.24.5 78.48.76c50.68.37 101.36.59 152 .27 24-.16 48.06-.1 72-1.39a1 1 0 0 0 0-1.93z" fill="#1e1e1e"/><path d="M79.65 55.19c1.79 0 3.59-.11 5.38-.11a.4.4 0 0 0 0-.8c-1.79 0-3.59.07-5.38.11a.4.4 0 0 0 0 .8zM96.64 55.19c1.79 0 3.58-.11 5.38-.11a.4.4 0 0 0 0-.8c-1.8 0-3.59.07-5.38.11a.4.4 0 0 0 0 .8zM71.8 55.24h4.68a.4.4 0 0 0 0-.8H71.8a.4.4 0 0 0 0 .8zM88.59 55.24h4.68a.4.4 0 0 0 0-.8h-4.68a.4.4 0 0 0 0 .8z" fill="#757575"/><path d="M72.39 60.21c0-1.79-.1-3.58-.11-5.37a.4.4 0 0 0-.8 0c0 1.79.08 3.58.11 5.37a.4.4 0 0 0 .8 0zM72.45 68.07v-4.68a.4.4 0 0 0-.8 0v4.68a.4.4 0 0 0 .8 0zM79.65 267.35c1.79 0 3.59.1 5.38.11a.4.4 0 0 0 0-.8c-1.79 0-3.59-.08-5.38-.11a.4.4 0 0 0 0 .8zM96.52 267.35c1.8 0 3.59.1 5.38.11a.4.4 0 0 0 0-.8c-1.79 0-3.58-.08-5.38-.11a.4.4 0 0 0 0 .8zM71.8 267.29h4.68a.4.4 0 0 0 0-.8H71.8a.4.4 0 0 0 0 .8zM88.59 267.29h4.68a.4.4 0 0 0 0-.8h-4.68a.4.4 0 0 0 0 .8z" fill="#757575"/><path d="M71.59 261.52c0 1.8-.1 3.59-.11 5.38a.4.4 0 0 0 .8 0c0-1.79.08-3.58.11-5.38a.4.4 0 0 0-.8 0zM71.65 253.67v4.68a.4.4 0 0 0 .8 0v-4.68a.4.4 0 0 0-.8 0zM72.37 77.12c0-1.79 0-3.58.06-5.37a.4.4 0 0 0-.8 0c0 1.79 0 3.58-.06 5.37a.4.4 0 0 0 .8 0zM72.2 85.67c0-1.55 0-3.11.08-4.67a.4.4 0 0 0-.8 0c0 1.56 0 3.12-.08 4.67a.4.4 0 0 0 .8 0zM72.45 122.87v-4.68a.4.4 0 0 0-.8 0v4.68a.4.4 0 0 0 .8 0zM72.37 131.92c0-1.79 0-3.58.06-5.37a.4.4 0 0 0-.8 0c0 1.79 0 3.58-.06 5.37a.4.4 0 0 0 .8 0zM72.2 140.47c0-1.56 0-3.12.08-4.67a.4.4 0 0 0-.8 0c0 1.55 0 3.11-.08 4.67a.4.4 0 0 0 .8 0zM72.2 94.87c0-1.56 0-3.12.08-4.67a.4.4 0 0 0-.8 0c0 1.55 0 3.11-.08 4.67a.4.4 0 0 0 .8 0zM72.37 104.75c0-1.8 0-3.59.06-5.38a.4.4 0 0 0-.8 0c0 1.79 0 3.58-.06 5.38a.4.4 0 0 0 .8 0zM72.2 113.3c0-1.56 0-3.12.08-4.68a.4.4 0 0 0-.8 0c0 1.56 0 3.12-.08 4.68a.4.4 0 0 0 .8 0zM72.45 232v-4.68a.4.4 0 0 0-.8 0V232a.4.4 0 0 0 .8 0zM72.37 241.08c0-1.79 0-3.58.06-5.37a.4.4 0 0 0-.8 0c0 1.79 0 3.58-.06 5.37a.4.4 0 0 0 .8 0zM72.37 223.05c0-1.79 0-3.59.06-5.38a.4.4 0 0 0-.8 0c0 1.79 0 3.59-.06 5.38a.4.4 0 0 0 .8 0zM72.45 203.7v-4.68a.4.4 0 0 0-.8 0v4.68a.4.4 0 0 0 .8 0zM72.37 212.75c0-1.79 0-3.58.06-5.37a.4.4 0 0 0-.8 0c0 1.79 0 3.58-.06 5.37a.4.4 0 0 0 .8 0zM72.37 194.72c0-1.79 0-3.59.06-5.38a.4.4 0 0 0-.8 0c0 1.79 0 3.59-.06 5.38a.4.4 0 0 0 .8 0zM72.2 249.64c0-1.56 0-3.12.08-4.68a.4.4 0 0 0-.8 0c0 1.56 0 3.12-.08 4.68a.4.4 0 0 0 .8 0z" fill="#757575"/><path d="M68.48 153.84a.78.78 0 0 0-.85-.06c-6.94-3.94-11 10.15-5.58 14.64 3 2.5 7.14.35 8.67-2.76 1.92-3.89 1.38-9.18-2.24-11.82zm.84 9.47c-.79 2.62-3.32 5.33-6 3.26-2.07-1.59-2.17-5.11-1.6-7.46.3-1.22.9-2.93 2.13-3.56s2.65-.11 3.89.3a7.37 7.37 0 0 1 1.58 7.46zM81.68 158a6.79 6.79 0 0 0-5.62 1.56v-.92a.93.93 0 0 0-1.86 0 92.3 92.3 0 0 0-.5 14.4 1 1 0 0 0 2.06 0c.08-1.74.15-3.5.21-5.26a8.08 8.08 0 0 0 4.64 1.12c2.92-.14 4.44-2.34 4.5-5.11.04-2.37-.83-5.24-3.43-5.79zm-1.08 8.73c-1.36.2-3.79-.35-4.16-1.85a1 1 0 0 0-.38-.57v-2.21a5.9 5.9 0 0 1 3.94-2.19c2.24-.28 2.89 1.4 2.9 3.37-.03 1.64-.46 3.16-2.3 3.44zM95 167.21a14.36 14.36 0 0 1-3-3.33.27.27 0 0 0 .07-.08c1.15-1.39 3.15-3.11 3.42-5 .06-.42-.26-.88-.73-.73-1.7.52-3 2.37-4.08 3.82-.94-1.38-1.74-3-3.08-4a.69.69 0 0 0-1 .6c.15 1.89 1.42 3.74 2.51 5.35a35.53 35.53 0 0 0-3.26 4.16c-.65 1 .8 2.08 1.64 1.27a32.48 32.48 0 0 0 3-3.41 15 15 0 0 0 3.27 3.51c1.24.93 2.48-1.21 1.24-2.16zM53.3 153.46c-3.82-1-8.36 2.61-7 6.68s6.18 3.05 8.8.8a7.82 7.82 0 0 1-.79 3.43c-1.16 2.34-4 4-6.24 1.77a1.14 1.14 0 0 0-1.61 1.61c3.45 3.41 8.38 1.05 10-3 1.32-3.21 1.04-10.15-3.16-11.29zm1.38 5.44c-1.47 1.64-6.52 4.1-6.59-.17a3.67 3.67 0 0 1 3-3.31c1.83-.35 2.69.81 3.33 2.27a6.91 6.91 0 0 1 .38 1.11 1.7 1.7 0 0 0-.12.1z" fill="#1e1e1e"/><path d="M79.65 278c1.79 0 3.59-.1 5.38-.11a.4.4 0 0 0 0-.8c-1.79 0-3.59.08-5.38.11a.4.4 0 0 0 0 .8zM96.64 278c1.79 0 3.58-.1 5.38-.11a.4.4 0 0 0 0-.8c-1.8 0-3.59.08-5.38.11a.4.4 0 0 0 0 .8zM71.8 278h4.68a.4.4 0 0 0 0-.8H71.8a.4.4 0 0 0 0 .8zM88.59 278h4.68a.4.4 0 0 0 0-.8h-4.68a.4.4 0 0 0 0 .8z" fill="#757575"/><path d="M72.39 283c0-1.79-.1-3.58-.11-5.37a.4.4 0 0 0-.8 0c0 1.79.08 3.58.11 5.37a.4.4 0 0 0 .8 0zM72.45 290.84v-4.68a.4.4 0 0 0-.8 0v4.68a.4.4 0 0 0 .8 0zM79.65 490.12c1.79 0 3.59.11 5.38.11a.4.4 0 0 0 0-.8c-1.79 0-3.59-.08-5.38-.11a.4.4 0 0 0 0 .8zM96.52 490.12c1.8 0 3.59.11 5.38.11a.4.4 0 0 0 0-.8c-1.79 0-3.58-.08-5.38-.11a.4.4 0 0 0 0 .8zM71.8 490.06h4.68a.4.4 0 0 0 0-.8H71.8a.4.4 0 0 0 0 .8zM88.59 490.06h4.68a.4.4 0 0 0 0-.8h-4.68a.4.4 0 0 0 0 .8z" fill="#757575"/><path d="M71.59 484.3c0 1.79-.1 3.58-.11 5.37a.4.4 0 0 0 .8 0c0-1.79.08-3.58.11-5.37a.4.4 0 0 0-.8 0zM71.65 476.44v4.68a.4.4 0 0 0 .8 0v-4.68a.4.4 0 0 0-.8 0zM72.37 299.89c0-1.79 0-3.58.06-5.37a.4.4 0 0 0-.8 0c0 1.79 0 3.58-.06 5.37a.4.4 0 0 0 .8 0zM72.2 308.45c0-1.56 0-3.12.08-4.68a.4.4 0 0 0-.8 0c0 1.56 0 3.12-.08 4.68a.4.4 0 0 0 .8 0zM72.45 345.64v-4.68a.4.4 0 0 0-.8 0v4.68a.4.4 0 0 0 .8 0zM72.37 354.69c0-1.79 0-3.58.06-5.37a.4.4 0 0 0-.8 0c0 1.79 0 3.58-.06 5.37a.4.4 0 0 0 .8 0zM72.2 363.24c0-1.55 0-3.11.08-4.67a.4.4 0 0 0-.8 0c0 1.56 0 3.12-.08 4.67a.4.4 0 0 0 .8 0zM72.2 317.65c0-1.56 0-3.12.08-4.68a.4.4 0 0 0-.8 0c0 1.56 0 3.12-.08 4.68a.4.4 0 0 0 .8 0zM72.37 327.52c0-1.79 0-3.59.06-5.38a.4.4 0 0 0-.8 0c0 1.79 0 3.59-.06 5.38a.4.4 0 0 0 .8 0zM72.2 336.07c0-1.56 0-3.12.08-4.68a.4.4 0 0 0-.8 0c0 1.56 0 3.12-.08 4.68a.4.4 0 0 0 .8 0zM72.45 454.8v-4.68a.4.4 0 0 0-.8 0v4.68a.4.4 0 0 0 .8 0zM72.37 463.86c0-1.8 0-3.59.06-5.38a.4.4 0 0 0-.8 0c0 1.79 0 3.58-.06 5.38a.4.4 0 0 0 .8 0zM72.37 445.82c0-1.79 0-3.58.06-5.38a.4.4 0 0 0-.8 0c0 1.8 0 3.59-.06 5.38a.4.4 0 0 0 .8 0zM72.45 426.47v-4.68a.4.4 0 0 0-.8 0v4.68a.4.4 0 0 0 .8 0zM72.37 435.53c0-1.79 0-3.59.06-5.38a.4.4 0 0 0-.8 0c0 1.79 0 3.59-.06 5.38a.4.4 0 0 0 .8 0zM72.37 417.49c0-1.79 0-3.58.06-5.37a.4.4 0 0 0-.8 0c0 1.79 0 3.58-.06 5.37a.4.4 0 0 0 .8 0zM72.2 472.41c0-1.56 0-3.12.08-4.68a.4.4 0 0 0-.8 0c0 1.56 0 3.12-.08 4.68a.4.4 0 0 0 .8 0z" fill="#757575"/><path d="M68.48 376.61a.82.82 0 0 0-.85-.06c-6.94-3.94-11 10.15-5.58 14.64 3 2.5 7.14.35 8.67-2.75 1.92-3.9 1.38-9.19-2.24-11.83zm.84 9.47c-.79 2.62-3.32 5.33-6 3.26-2.07-1.59-2.17-5.11-1.6-7.46.3-1.21.9-2.93 2.13-3.56s2.65-.11 3.89.31a7.35 7.35 0 0 1 1.58 7.45zM81.68 380.76a6.79 6.79 0 0 0-5.62 1.56v-.92a.93.93 0 0 0-1.86 0 92.3 92.3 0 0 0-.5 14.4 1 1 0 0 0 2.06 0q.12-2.61.21-5.25a8.24 8.24 0 0 0 4.64 1.12c2.92-.15 4.44-2.35 4.5-5.12.04-2.35-.83-5.23-3.43-5.79zm-1.08 8.73c-1.36.2-3.79-.34-4.16-1.84a1 1 0 0 0-.38-.58v-2.2a5.87 5.87 0 0 1 3.94-2.19c2.24-.28 2.89 1.4 2.9 3.37-.03 1.64-.46 3.16-2.3 3.44zM95 390a14.78 14.78 0 0 1-3-3.33l.07-.09c1.15-1.39 3.15-3.11 3.42-4.95.06-.42-.26-.88-.73-.73-1.7.52-3 2.37-4.08 3.83-.94-1.39-1.74-3-3.08-4.05a.69.69 0 0 0-1 .6c.15 1.89 1.42 3.75 2.51 5.35a35.53 35.53 0 0 0-3.25 4.13c-.65 1 .8 2.08 1.64 1.27a32.48 32.48 0 0 0 3-3.41 15 15 0 0 0 3.27 3.51c1.23.94 2.47-1.2 1.23-2.13zM53.3 376.23c-3.82-1-8.36 2.61-7 6.68s6.18 3 8.8.8a7.89 7.89 0 0 1-.79 3.44c-1.16 2.33-4 4-6.24 1.76a1.14 1.14 0 0 0-1.61 1.61c3.45 3.41 8.38 1.05 10-3 1.32-3.21 1.04-10.15-3.16-11.29zm1.38 5.45c-1.47 1.63-6.52 4.09-6.59-.18a3.67 3.67 0 0 1 3-3.31c1.83-.35 2.69.81 3.33 2.27a6.7 6.7 0 0 1 .38 1.12.45.45 0 0 0-.12.1zM333.91 22.13c-1.07-2.45-5.92-1-7.41.69-2.74 3.07-2 9 .3 12.12 2.07 2.79 6 3.25 8.09.19 2.37-3.5 2.05-9.3-.46-12.61a1.07 1.07 0 0 0-.52-.39zm-4.3 12.68c-2.13-1.06-2.77-4.62-2.74-6.69a6.83 6.83 0 0 1 .53-2.86c.51-1 3.39-3.44 5-2.2a1 1 0 0 0 .19.52 8.86 8.86 0 0 1 1.68 5.54c0 2.44-.93 7.55-4.66 5.69zM344.62 25.17a6.82 6.82 0 0 0-3.39 2c0-.27-.05-.55-.08-.82-.12-.89-1.56-1.33-1.75-.24-.83 4.67-.5 9.7-.62 14.43 0 1.73 2.7 1.26 2.34-.14 0-1.48.11-3 .18-4.5a5.88 5.88 0 0 0 4.94 1c3.23-1 3.65-4.75 3.24-7.62-.37-2.65-1.95-4.75-4.86-4.11zm1.08 9.39a3.39 3.39 0 0 1-3.85-1.6 1 1 0 0 0-.44-.5v-2.29a6.81 6.81 0 0 1 2-2.33c.69-.45 1.87-1 2.71-.67 1.07.45 1.13 1.63 1.22 2.57.17 1.62.17 4.1-1.64 4.82zM361.15 34.57c-1.18-1.29-2.34-2.67-3.54-4a32.16 32.16 0 0 0 2.42-3.7 1 1 0 0 0-1.53-1.17 29.62 29.62 0 0 0-2.63 2.94 32.84 32.84 0 0 0-3.79-3.51c-.74-.56-1.64.5-1.22 1.21a32.94 32.94 0 0 0 3.34 4.5c-1.09 1.49-2.16 3-3.28 4.42a1.19 1.19 0 1 0 1.88 1.45c1-1.33 2-2.63 3.09-4 1.17 1.27 2.34 2.52 3.42 3.77s3.15-.85 1.84-1.91zM317.67 27.35a6.41 6.41 0 0 0-4.28 2.23c.2-3.93 2.89-7.83 7.07-5.15.88.57 2-.79 1.14-1.48-3.72-3.13-8.53-.37-9.66 3.91-1 3.73-.3 10.63 4.73 10.89 3.85.2 7-4.66 5.34-8.18a4.48 4.48 0 0 0-4.34-2.22zm-3.23 6.55a5.82 5.82 0 0 1-.74-1.57c1.31-1.6 5.55-5 6.49-1.19.81 3.33-3.66 5.79-5.75 2.76z" fill="#1e1e1e"/><path d="M408.11 38.94c0 1.63-.1 3.25-.11 4.87a.4.4 0 0 0 .8 0c0-1.62.08-3.24.11-4.87a.4.4 0 0 0-.8 0zM408.17 31.08v4.18a.4.4 0 0 0 .8 0v-4.18a.4.4 0 0 0-.8 0zM261.74 38.94c0 1.79-.1 3.58-.11 5.37a.4.4 0 0 0 .8 0c0-1.79.08-3.58.11-5.37a.4.4 0 0 0-.8 0zM261.8 31.08v4.68a.4.4 0 0 0 .8 0v-4.68a.4.4 0 0 0-.8 0z" fill="#757575"/><path d="M267.57 30.88c-1.79 0-3.58-.1-5.38-.11a.4.4 0 0 0 0 .8c1.8 0 3.59.08 5.38.11a.4.4 0 0 0 0-.8zM275.42 30.94h-4.67a.4.4 0 0 0 0 .8h4.67a.4.4 0 0 0 0-.8zM284.48 30.86l-5.38.06a.4.4 0 0 0 0 .8l5.38-.06a.4.4 0 0 0 0-.8zM293 30.68c-1.56 0-3.12.06-4.68.09a.4.4 0 0 0 0 .8c1.56 0 3.12-.05 4.68-.09a.4.4 0 0 0 0-.8zM302.15 30.88c-1.79 0-3.58-.1-5.37-.11a.4.4 0 0 0 0 .8c1.79 0 3.58.08 5.37.11a.4.4 0 0 0 0-.8zM373.61 30.88c-1.79 0-3.58-.1-5.37-.11a.4.4 0 0 0 0 .8c1.79 0 3.58.08 5.37.11a.4.4 0 0 0 0-.8zM381.47 30.94h-4.68a.4.4 0 0 0 0 .8h4.68a.4.4 0 0 0 0-.8zM408.44 30.78h-4.68a.4.4 0 0 0 0 .8h4.68a.4.4 0 0 0 0-.8zM390.52 30.86l-5.38.06a.4.4 0 0 0 0 .8l5.38-.06a.4.4 0 0 0 0-.8zM399.07 30.68l-4.68.09a.4.4 0 0 0 0 .8l4.68-.09a.4.4 0 0 0 0-.8z" fill="#757575"/><path d="M181.55 22.13c-1.07-2.45-5.91-1-7.41.69-2.73 3.07-2 9 .3 12.12 2.08 2.79 6 3.25 8.09.19 2.37-3.5 2.05-9.3-.46-12.61a1 1 0 0 0-.52-.39zm-4.29 12.68c-2.14-1.06-2.78-4.62-2.74-6.69a6.53 6.53 0 0 1 .53-2.86c.5-1 3.38-3.44 5-2.2a1 1 0 0 0 .19.52 8.93 8.93 0 0 1 1.76 5.54c-.09 2.44-1 7.55-4.74 5.69zM192.26 25.17a6.82 6.82 0 0 0-3.39 2c0-.27-.05-.55-.08-.82-.12-.89-1.56-1.33-1.75-.24-.83 4.67-.5 9.7-.61 14.43-.05 1.73 2.69 1.26 2.34-.14 0-1.48.1-3 .17-4.5a5.88 5.88 0 0 0 4.94 1c3.23-1 3.65-4.75 3.24-7.62-.37-2.65-1.95-4.75-4.86-4.11zm1.08 9.39a3.4 3.4 0 0 1-3.85-1.6 1.08 1.08 0 0 0-.43-.5v-2.29a6.92 6.92 0 0 1 2-2.33c.69-.45 1.87-1 2.72-.67 1.07.45 1.12 1.63 1.21 2.57.16 1.62.16 4.1-1.65 4.82zM208.79 34.57c-1.18-1.29-2.34-2.67-3.54-4a32.16 32.16 0 0 0 2.42-3.7 1 1 0 0 0-1.52-1.17 29.71 29.71 0 0 0-2.64 2.94 32 32 0 0 0-3.79-3.51c-.73-.56-1.63.5-1.21 1.21a32.05 32.05 0 0 0 3.33 4.5c-1.09 1.49-2.16 3-3.28 4.42a1.19 1.19 0 1 0 1.88 1.45c1-1.33 2-2.63 3.1-4 1.16 1.27 2.33 2.52 3.41 3.77s3.15-.85 1.84-1.91zM165.31 27.35a6.41 6.41 0 0 0-4.31 2.23c.2-3.93 2.89-7.83 7.07-5.15.89.57 2-.79 1.14-1.48-3.72-3.13-8.53-.37-9.66 3.91-1 3.73-.3 10.63 4.73 10.89 3.85.2 7-4.66 5.35-8.18a4.5 4.5 0 0 0-4.32-2.22zm-3.23 6.55a5.51 5.51 0 0 1-.73-1.57c1.3-1.6 5.54-5 6.49-1.19.81 3.33-3.66 5.79-5.76 2.76z" fill="#1e1e1e"/><path d="M255.75 38.94c0 1.63-.1 3.25-.1 4.87a.4.4 0 0 0 .8 0c0-1.62.07-3.24.1-4.87a.4.4 0 0 0-.8 0zM255.81 31.08v4.18a.4.4 0 0 0 .8 0v-4.18a.4.4 0 0 0-.8 0zM109.38 38.94c0 1.79-.1 3.58-.1 5.37a.4.4 0 0 0 .8 0c0-1.79.07-3.58.1-5.37a.4.4 0 0 0-.8 0zM109.44 31.08v4.68a.4.4 0 0 0 .8 0v-4.68a.4.4 0 0 0-.8 0z" fill="#757575"/><path d="M115.21 30.88c-1.79 0-3.58-.1-5.37-.11a.4.4 0 0 0 0 .8c1.79 0 3.58.08 5.37.11a.4.4 0 0 0 0-.8zM123.07 30.94h-4.68a.4.4 0 0 0 0 .8h4.68a.4.4 0 0 0 0-.8zM132.12 30.86l-5.37.06a.4.4 0 0 0 0 .8l5.37-.06a.4.4 0 0 0 0-.8zM140.67 30.68l-4.68.09a.4.4 0 0 0 0 .8l4.68-.09a.4.4 0 0 0 0-.8zM149.79 30.88c-1.79 0-3.58-.1-5.37-.11a.4.4 0 0 0 0 .8c1.79 0 3.58.08 5.37.11a.4.4 0 0 0 0-.8zM221.25 30.88c-1.79 0-3.58-.1-5.37-.11a.4.4 0 0 0 0 .8c1.79 0 3.58.08 5.37.11a.4.4 0 0 0 0-.8zM229.11 30.94h-4.68a.4.4 0 0 0 0 .8h4.68a.4.4 0 0 0 0-.8zM256.08 30.78h-4.68a.4.4 0 0 0 0 .8h4.68a.4.4 0 0 0 0-.8zM238.16 30.86l-5.37.06a.4.4 0 0 0 0 .8l5.37-.06a.4.4 0 0 0 0-.8zM246.71 30.68l-4.67.09a.4.4 0 0 0 0 .8l4.67-.09a.4.4 0 0 0 0-.8z" fill="#757575"/></svg>