<svg xmlns="http://www.w3.org/2000/svg" viewBox="0 0 490 192"><path d="M16.51 165.6c25.06-.23 326 1.39 414.22 6 4.86.26 5.81-3.84 5.49-8.09 69.25 20.54 45.47-44.78 50.89-67.86.33-16 3.76-22.31-1-47.39C490 29.88 479 22.73 472 22.52c-28.87-.87-412.29-1.61-462.6 3.19-6.28.6-6 9.4-4.82 13.83.36 1.35-5.83 73.28 1.16 80.28-9.74 36.61.82 45.87 10.77 45.78z" fill="#fff"/><path d="M486.08 111.35c-.1-22.56-.09-74.24 0-77.54.18-9.8-6.4-12.83-15.23-13.17s-17.41-.55-26.11-.54H123.44c-25.85 0-93-.06-100.75.22-6.79.25-16.79.16-18.48 8.49a1.07 1.07 0 0 0 0 .31C3.48 34.92 3.9 41 3.82 46.8c-.18 12.32-1.24 78.13-1.1 98.7 0 4.61-.3 10.15 1.28 14.53 2.75 7.67 13.91 7.54 20.56 8.1 12.47 1 61.12.55 71.06.53 45.44-.13 237-.73 287.39-.9l57.69-.2c11.58-.06 24.13 1 35.51-1.3 3.33-.66 7.07-1.87 8.47-5.28 1.72-4.2 1.45-10.41 1.57-14.85.05-1.61-.12-24.79-.17-34.78zm-2.45 34.78a64.86 64.86 0 0 1-.79 9.65c-.89 4.67-2.61 7-7.33 7.95-5.94 1.17-12.24.83-18.26.94s-143 .64-188.41.8c-48.62.16-176.46.61-191.76.69-3.58 0-33.06.26-43.35.1a123.93 123.93 0 0 1-17.63-1.37c-2.87-.45-6.49-1-8.6-3.25s-2-5.61-2.21-8.53c-.21-3.12-.43-6.16-.42-9.27 0-8.56.43-74.71.69-99.22.06-5-.33-10.25.25-15.21a.79.79 0 0 1 0-.09c1.6-7.31 10.93-6.77 16.81-6.89 6.39-.13 12.79-.11 19.18-.06h55.89c47.06 0 337-.18 362.29.41 5.35.12 11.43-.5 16.65.85 8.34 2.15 6.69 10 6.59 16.59 0 1.68.09 24.54.13 34.29.12 22.49.32 70.16.28 71.62z" fill="#1e1e1e"/><path d="M100.09 20.81c-.82 11.15-.24 22.53-.26 33.71v38L99.71 154c0 3.89.08 9.12.08 12.4a1.28 1.28 0 0 0 2.55 0V59.89c0-12.95.68-26.15-.28-39.06a1 1 0 0 0-2 0zM196.33 22.26c-1.16 18.33-.23 37-.3 55.36q-.1 22.93-.3 45.85c-.12 14.41-.2 30.06-.39 43.9a1.28 1.28 0 0 0 2.55 0c.19-13.84.39-29.49.49-43.9q.15-22.92.2-45.85c0-18.35 1-37.05-.3-55.36a1 1 0 0 0-1.95 0zM292.49 21.26c-.91 11.61-.35 23.47-.42 35.11q-.13 19-.23 37.92c-.11 20.24-.32 69.57-.34 72.75a1.28 1.28 0 0 0 2.55 0c.18-34.44.41-70.74.5-105.79 0-13.25.81-26.76-.11-40a1 1 0 0 0-1.95 0zM388.4 21.26c-.9 11.61-.34 23.47-.42 35.11-.08 12.64-.55 107.49-.56 110.67a1.28 1.28 0 0 0 2.55 0c.17-34.44 1.31-132.55.38-145.78a1 1 0 0 0-2 0z" fill="#1e1e1e"/><path d="M485 93.66c-30.53-.7-61.08-.55-91.62-.57q-60.46 0-120.95.12-61.53.14-123.06.37-49 .19-97.94.41l-31.14.15c-4.52 0-10-.79-14.43.08a3.64 3.64 0 0 1-.66 0 1.26 1.26 0 0 0 0 2.51q18.5-.11 37-.18 46.4-.22 92.8-.42 60.7-.24 121.39-.42 61.37-.17 122.73-.21c32.28 0 64.56.27 96.84.14 3 0 6 0 9.05-.06a1 1 0 0 0 0-1.92z" fill="#1e1e1e"/><path d="M104.14 144c.08-6.56-1.09-97.46-.5-112.11.1-2.4-2-3.08-3.86-2.23-2.28 1-3.61 4.08-3.71 6.43-1.06 26.29 1.77 116.33.24 123s-59.46 2.48-78.72 2.49c-4.09 0-8.1 9.61-3.61 9.61 18.67 0 37.35.32 56 .57 10.41.13 27.88 2.79 32.68-9.27 2.2-5.49 1.4-12.65 1.48-18.49z" opacity=".2"/><path d="M10 25.84c2.55-1.6 82.5-1.55 85.44.11s1.82 131.14 1 135.11-84 2.82-86.43-1.76S5.37 29.29 10 25.84z" fill="#f78100" opacity=".85"/><path d="M95.25 26.77c-8.72-3.9-68.18-2.72-75.71-2.17-2.77.21-5.73.26-8.08 1.93-3.66 2.6-3.75 7-3.74 11.2 0 26.47-2.38 108 2.35 121 1.59 4.33 7.41-2.19 6.25-5.37-3.93-10.75-2.85-22.42-2.8-33.68.07-14.63.29-68.4.24-80.65 0-1.41-.17-5.67-.21-5.85.34-.1 14.52-.82 21-.93 8.95-.15 17.89-.18 26.84-.15 9.46 0 20.66-1.39 29.38 2.5 3.41 1.49 7.75-6.37 4.48-7.83z" fill="#fff" opacity=".2"/><path d="M98 118.22V62.98 41.91v-3.88c0-3.05.51-10.08-1.74-12.6-1.87-2.1-7.23-1.56-9.68-1.66-3.14-.12-6.29-.21-9.43-.24-7.22-.06-14.43 0-21.65 0H30.7c-6.39 0-13.53-.34-19.71 1.22-3.76.95-3.46 4.24-3.53 7.64a.68.68 0 0 0 0 .15C6.9 44 7.3 55.55 7.21 67c-.15 18.64-.32 37.28-.37 55.93v17c0 6.17-1.32 16.25 3.22 21.11 2.29 2.46 7.82 2.46 10.93 2.77 4 .39 7.86-.27 11.82-.23 9 .09 18 .3 27 .53 6 .16 12 .32 18 .14 5.34-.15 10.88.25 16.18-.33 4-.44 4.24-3.63 4.29-7.18.13-12.87-.28-25.66-.28-38.52zm-2 38.06c0 3.26-.24 5-3.84 5.41-2.74.31-20 .54-25.76.33-8.61-.32-17.22-.47-25.83-.62-7.73-.14-15.76.88-23.37-.4-2.88-.48-5.1-.65-6.37-3.54-1.6-3.64-1.48-7.76-1.61-11.65-.06-1.73-.11-14.69-.1-19.46 0-30.4-.3-60.8-.12-91.2 0-.86.07-2.67.07-2.73.1-1.83-.12-4.9 1.7-5.8.5-.25 15-1.12 17.83-1.12h19.12c13.75 0 27.59-.4 41.32.4 2 .11 4.72-.19 5.94 1.41C96.32 29.16 96 39.2 96 40.49c0 5.72-.08 52.26-.12 69.8 0 10.24.25 20.38.48 30.6.13 5.11-.36 10.27-.36 15.39z" fill="#f78100"/><path d="M25.58 63.1a.85.85 0 0 0-1.48-.28.84.84 0 0 0 .66 1.35h.06a.81.81 0 0 0 .77-1zM28.64 55.38c-.21 2.65.28 5.31.16 8-.05 1.11 1.67 1.1 1.72 0a64.27 64.27 0 0 0-.37-8 .76.76 0 0 0-1.51 0zM29.33 52.93h.06a.81.81 0 0 0 .55-.64 1.39 1.39 0 0 0 0-.71.71.71 0 0 0-1.19-.31c-.32.39-.71.79-.34 1.32a.81.81 0 0 0 .92.34zM36.07 62.71c-.9 1-1.19-2.7-1.21-2.86-.06-.77-.17-3.21-.16-3.66h1.21c1.3 0 1.11-2.07-.24-1.8a7.52 7.52 0 0 1-.94.11 10.79 10.79 0 0 0-.19-2c-.12-.58-.87-.45-1 0a7.52 7.52 0 0 0-.54 1.99h-.54a.76.76 0 0 0-.73.56v.17c-.06.52.5.77 1.24.88 0 .75.07 1.5.11 2.2a16.32 16.32 0 0 0 .59 4.62c.63 1.6 2.57 2.31 3.66.76.52-.75-.65-1.63-1.26-.97zM43.77 54.69a4.6 4.6 0 0 0-4.87 2.6 7.14 7.14 0 0 0-.48 2 4.28 4.28 0 0 0 1.64 3.85 5.31 5.31 0 0 0 6.31-.37c.84-.62.06-2-.84-1.44-1.19.8-2.53 1.43-4 .81A2.55 2.55 0 0 1 40 59.91c2.39 0 4.8-.17 7.18-.28a.9.9 0 0 0 .82-1.11 5.45 5.45 0 0 0-4.23-3.83zm-3.56 3.59v-.06c1-2.9 4.07-2.19 5.53-.29-1.84.07-3.74.15-5.53.35zM61.82 54.56a4.44 4.44 0 0 0-4.73 1.67 2.73 2.73 0 0 0-.7-.81 3.46 3.46 0 0 0-4.79.22 3.37 3.37 0 0 0-.22-.68c-.22-.49-.86-.25-1 .14-.49 1.17-.25 6.79-.24 8.24a.86.86 0 0 0 1.72 0c0-1.56-.07-5.56-.07-6a5.24 5.24 0 0 1 1.58-1.17 1.81 1.81 0 0 1 2.49 1.32 33.62 33.62 0 0 1-.23 6c0 1.11 1.66 1.11 1.73 0 .1-1.8.19-3.64.12-5.45a3.83 3.83 0 0 1 1.91-1.77 2.86 2.86 0 0 1 1.09-.27c.85.07 1.32 1.11 1.44 1.89.26 1.76-.23 3.69-.24 5.46a.87.87 0 0 0 1.73 0 29.52 29.52 0 0 0 .09-6.09 2.93 2.93 0 0 0-1.68-2.7zM69.61 58.17a21.34 21.34 0 0 0-4 .54.65.65 0 0 0 .13 1.2 21.07 21.07 0 0 0 3.81 0c1.18-.07 1.21-1.79.06-1.74zM80 58.4a4.63 4.63 0 0 0-1.21-3.26c-1.52-1.31-4.9-.7-6 .93a.6.6 0 0 0 .67.88c1.74-.62 4.4-1.7 4.74 1 0 .28.06.57.08.85a4.71 4.71 0 0 0-4-.79 3.64 3.64 0 0 0-2.39 4c.41 3.19 4.48 3 6.69 1.29v.39c.08 1.14 1.87 1.14 1.78 0-.12-1.78-.23-3.54-.36-5.29zm-3.68 4.21c-1 .3-2.82.31-2.83-1.13 0-3.1 3.26-1.8 5-1v.56a5.26 5.26 0 0 1-2.21 1.57z" fill="#1e1e1e"/><path d="M200 67.33c0-11.9-.34-23.82-.76-35.72-.22-6.19-7.22.19-7.07 4.21.32 8.9 3.93 45.56-.12 51.52S123.52 90 116.66 90c-4.08 0-8.09 9.12-3.61 9.1 18.09-.08 66.8.62 72.56-.52 15.63-3.05 14.48-18.73 14.39-31.25z" opacity=".2"/><path d="M106.61 26.67c2.38.17 80.52-4.16 85 .79 1 3.65 2.74 54.15-.25 61.18-2.46 3.42-83.6 3.42-84.35-.09-5.31-8.3-2.52-60.55-.4-61.88z" fill="#1ab3e2" opacity=".85"/><path d="M189.91 27.21c-14.85-.2-73.7-2-79.42-.07-2.65.89-5 3.93-4.11 6.7-1.09 1.77-2.23 41.2.08 51.76.79 3.62 5.8-1.75 5.2-4.48-1.75-8-1.64-32.58-1.75-36.47s-1.24-8.91 3.22-10.8a10.06 10.06 0 0 0 1.87-1.08c4.16-.18 59.82 1.13 72.32 1.3 2.93.04 5.81-6.81 2.59-6.86z" fill="#fff" opacity=".2"/><path d="M105.71 36.54c.26-2.47 0-6.16 1.09-8.37.76-1.56.34-.94 2.19-1.33a27.2 27.2 0 0 1 4.78-.17q6.21-.18 12.41-.13c7.94.05 15.88 0 23.82 0h23.26c4.16 0 15.87-2 18.23 2.85 1.16 2.42.18 7.36.12 10-.06 2.18-.13 4.37-.1 6.55.1 7.65.52 15.3.52 23q0 4.88.05 9.75a21.56 21.56 0 0 1-.31 5.73c-1.07 3.89-3.59 4.83-7.18 5-5.67.2-11.33.45-17 .16-15.14-.8-30.42-.2-45.57-.06a87.13 87.13 0 0 1-9-.35c-1.38-.12-3.6.1-4.78-.66-2.18-1.4-2.14-5-2.26-7.2-.27-5.28-.43-10.56-.44-15.85 0-9.6-.46-19.33.12-28.91 0-.91-1.36-.91-1.42 0-.59 9.72-.42 19.53-.56 29.26-.07 5.59-.08 11.22.25 16.79.33 5.38 1.59 7.91 6.9 8.58 9 1.14 18.25.52 27.28.49 9.64 0 19.35-.32 29 .14 6 .29 12 0 18.09-.11 6.64-.17 8.84-3.58 9.11-10.08.45-10.75-.31-21.69-.59-32.44-.13-5.16.15-10.3.11-15.46-.06-6.09-1.51-8.27-8-9.09-4.86-.62-10-.1-14.9-.1h-13.16c-10.63 0-21.26.06-31.88 0-5.89 0-12-.22-17.84.48-4.82.57-3.62 7.7-3.82 11.52-.05.97 1.38.94 1.48.01z" fill="#00a6e8"/><path d="M121.22 61.69a.83.83 0 0 0 0 1.66.83.83 0 0 0 0-1.66zM126 51a.81.81 0 0 0-1.21.7.79.79 0 0 0 .89.78.85.85 0 0 0 .33-.07h.06a.73.73 0 0 0 .37-.64.87.87 0 0 0-.44-.77zM125.88 54.64a.23.23 0 0 0-.36 0c-.86 1-.62 2.44-.65 3.71 0 1.63.11 3.27 0 4.91 0 .77 1.26 1 1.37.18a30.05 30.05 0 0 0 0-4.45c.02-1.39.44-3.19-.36-4.35zM131.56 62.1c-1 .61-.9-4.32-.89-4.7 0-.62.05-1.26.09-1.89a3.74 3.74 0 0 0 1.42-.12.72.72 0 0 0 0-1.37 3.11 3.11 0 0 0-1.37-.11 11.64 11.64 0 0 0-.08-1.45.63.63 0 0 0-1.23-.17 14.2 14.2 0 0 0-.3 1.82 3.87 3.87 0 0 0-1.34.41.53.53 0 0 0 .13 1 3.83 3.83 0 0 0 1.07.07c-.29 4 0 9.73 3.28 7.88.87-.47.06-1.91-.78-1.37zM138.31 54a4.39 4.39 0 0 0-4.22 3.63 5 5 0 0 0 7.65 5.05.74.74 0 1 0-.91-1.17 3.41 3.41 0 0 1-5.3-2c2.09.36 4.42-.26 6.48-.24a.82.82 0 0 0 .7-1.22c-.92-1.91-1.96-4.05-4.4-4.05zm-2.87 4a.22.22 0 0 1 0-.08c.3-1.65 2-3.21 3.71-2.21a4.33 4.33 0 0 1 1.58 2c-1.73-.01-3.54.12-5.29.29zM157.6 56.62a3 3 0 0 0-1.47-2.46c-1.35-.58-3.41.43-4.5 1.74a2.05 2.05 0 0 0-.84-1.53c-1.26-.83-3.24 0-4.38 1.16a7.4 7.4 0 0 0-.28-1.17c-.13-.37-.74-.56-.93-.12a7.62 7.62 0 0 0-.28 3.8c.11 1.61.14 3.23.31 4.84.08.79 1.33 1.12 1.51.2a14.76 14.76 0 0 0-.06-4.4c-.05-.4-.07-.82-.1-1.24a3 3 0 0 1 .26-.22c.67-.56 1.88-1.81 2.84-1.31.58.31.39.91.4 1.54v1.76a17 17 0 0 0 .2 3.42.72.72 0 0 0 1.38 0 24.89 24.89 0 0 0 0-5.18c1.18-.88 3.61-2.58 4.12-.71a12 12 0 0 1 0 2.94c0 1 .12 2 .19 3a.92.92 0 1 0 1.82-.25c-.3-1.93.07-3.88-.19-5.81zM162.78 58.33a16.71 16.71 0 0 0-2.73-.14c-.61.07-1.05 1-.35 1.3a9.19 9.19 0 0 0 3.08.63c1.13.11 1.15-1.73 0-1.79zM173.8 57.84c-.37-1.63-1.59-3.43-3.38-3.67a3.62 3.62 0 0 0-2.83 1 15.46 15.46 0 0 0-.55-4.09c-.15-.49-1-.59-1.09 0a30.77 30.77 0 0 0 0 5.43 57.84 57.84 0 0 0 .13 6.18c.09.74 1.29 1.1 1.44.19v-.33c1.43.91 3.12 1.58 4.65.45a5.13 5.13 0 0 0 1.63-5.16zm-2 3.19c-1.07 1.79-3 .68-4.14-.25 0-1.27 0-2.56-.06-3.83v-.17c.82-.83 2.14-1.51 3.16-1a3.53 3.53 0 0 1 1.55 2.57 4.17 4.17 0 0 1-.46 2.65z" fill="#1e1e1e"/><path d="M296.71 30.44c.08-2.39-2-3.08-3.85-2.23-2.27 1-3.64 4.09-3.72 6.43-.46 14.54.39 47.88.25 53.27-2.09 4.46-71.79 1-78.8 1-4.09 0-8.13 9.55-3.61 9.61 17.74.23 35.49.46 53.23.56 8.63 0 18.63 1.06 26.83-1.8 3.55-1.24 5.45-3.73 7-7l.17-.37a16.5 16.5 0 0 0 .88-1.79 23.52 23.52 0 0 0 1.14-6.55c1.36-17.01-.06-34.15.48-51.13zm-9.17 58.77c-.32.87-.3.4 0 0zm6.5 1c0-.09.09-.18.14-.27-.12.18-.39.73-.18.23z" opacity=".2"/><path d="M289.39 87.91c-5.1 5.17-85.47 1.84-86.47.58S200.39 32 203.66 27s82.13-1.66 83.15-.8c4.42 3.23 3.51 51.8 2.58 61.71z" fill="#5bbb5d" opacity=".85"/><path d="M284 26.33c-6.18-.43-59.42 0-66.22.17-5.51.16-11.7-.11-13.75 6.21a5.43 5.43 0 0 0-.26 1.9 18.11 18.11 0 0 0-2 8.93C202 47.76 203 77 204 87.27c.41 4.43 5.68-.12 5.41-3-.72-7.67-.87-15.42-1.2-23.12-.19-4.31-.59-17.82-.88-20.39l.15-.08a40.92 40.92 0 0 1 7-3.63 8.7 8.7 0 0 0 3.25-3.79c1.81 0 16.89-.3 23.53-.43 5.5-.1 20.71-.58 22.81-.7 5.93-.32 11.42.66 17.29 1.08 2.92.19 5.88-6.64 2.64-6.88z" fill="#fff" opacity=".2"/><path d="M290.23 74.84a.7.7 0 0 0 0-.14c.44-9.19.43-18.33.43-27.54 0-4.94.22-10-.16-14.91-.43-5.49-2.11-7.37-7.33-8-8.86-1-17.95-.1-26.87-.15l-31.3-.18c-5 0-10.07.31-15.1.39-7.09.11-9 2.91-9.21 9.76-.38 10.44-.54 21-.39 31.46.07 4.51.52 8.9.42 13.44s-1.43 10.52 4.26 11.6c8.8 1.67 18.71.86 27.69.86h34c5.58 0 11.31.5 16.83-.4 2.6-.42 5.68-.37 6.76-3.17 1.42-3.58-.01-9.3-.03-13.02zM288 87.32c-2 2.74-8.86 2.11-12 2.14s-27.17-.09-35.89-.1c-6.46 0-12.94.12-19.41 0-3.74-.08-14.08-.47-15.36-.88-2.85-.91-2.5-3.14-2.52-5.72 0-4.89.24-9.64-.16-14.52-.74-8.93.08-18.17.19-27.13 0-2 .08-7.34.16-8 .3-2.23.06-1.8 1.68-4.13 1.91-2.75 2.24-2.33 5.24-2.42 4.72-.13 9.44-.38 14.16-.38 15.39 0 31.26 1.41 46.58 0 3.42-.32 13.65.1 15 .66 2.45 1.05 2.7 3.72 2.87 6.08.38 4.91.27 9.89.34 14.8.14 9 .42 18 0 27a.42.42 0 0 0 0 .16c-.29 3.21 1.03 9.8-.88 12.44z" fill="#3aaf3a"/><path d="M218.27 61.27a1 1 0 0 0-.6.48 1 1 0 0 0 .15 1.16 1 1 0 0 0 1.16.15.9.9 0 0 0 .51-.66 1 1 0 0 0-1.22-1.13zm-.71 1a.47.47 0 0 0 0 .17.77.77 0 0 1 0-.16zM223.07 54.08a.2.2 0 0 0-.26 0c-.95.85-.68 2.44-.72 3.62a25.57 25.57 0 0 0 .09 4.95.7.7 0 0 0 1.34 0 31.43 31.43 0 0 0 .13-4.95c-.01-1.18.35-2.7-.58-3.62zM223.41 51.23a1.09 1.09 0 0 0 .06-.36.54.54 0 0 0-.26-.49c-.34-.17-.91-.06-1 .39v.12a.65.65 0 0 0 1.2.34zM229.82 61.54c-2.25.59-1.57-4.79-1.56-5.65v-.91c.41 0 .83.05 1.24.09 1 .12 1.07-1.74 0-1.65a10.23 10.23 0 0 1-1.24 0 8.49 8.49 0 0 0-.28-2.19.47.47 0 0 0-.9 0 8.64 8.64 0 0 0-.36 2.16 1.92 1.92 0 0 0-1.19.29.38.38 0 0 0-.08.58 1.89 1.89 0 0 0 1.22.55v1.47a15.62 15.62 0 0 0 .21 4.78c.48 1.58 2.14 2.8 3.6 1.62.58-.43-.04-1.3-.66-1.14zM236.49 53.33c-2 .06-3.59 2-4.13 3.75a4.62 4.62 0 0 0 1.51 5.07 5.71 5.71 0 0 0 6.21.39c1-.5.1-2.13-.89-1.53-2.25 1.34-5.47.42-5.81-2 2.37.1 4.78-.11 7.15-.22a.79.79 0 0 0 .68-1.18c-1.21-1.79-2.21-4.35-4.72-4.28zm-3 4.23v-.16c.47-1.57 2.19-3.49 3.93-2.39a5.8 5.8 0 0 1 1.75 2.2c-1.89.06-3.8.12-5.69.35zM255.45 53.85c-1.69-.74-3.77.22-5 1.64a2.78 2.78 0 0 0-1.38-1.58 3.73 3.73 0 0 0-4.07.92 1.55 1.55 0 0 1 0-.21.63.63 0 0 0-.44-.44c.24.06-.21-.1-.27-.06l-.22.12a.62.62 0 0 0-.31.54c0 2.59.11 5.15 0 7.74-.06 1 1.51 1 1.6 0a29.51 29.51 0 0 0 0-6.23c.42-.29.78-.65 1.23-.9 1.3-.7 2.58-.22 2.74 1.38a25.47 25.47 0 0 1-.34 5.44c-.13 1.09 1.78 1.15 1.74 0 0-1.43.4-3.74.11-5.62 1.47-1.15 4.14-2.76 4.55-.31a14.11 14.11 0 0 1-.12 2.75c0 1-.06 2.09-.07 3.13a1 1 0 0 0 2 0c-.06-1.89-.14-3.8-.3-5.69-.22-1.03-.39-2.15-1.45-2.62zM262.16 57.56a8.91 8.91 0 0 0-2.87.07.64.64 0 0 0 0 1.22 9.24 9.24 0 0 0 2.87.31c1.03.05 1.03-1.56 0-1.6zM273.54 55.67c0-1.73.34-3.57-.48-5.13a.28.28 0 0 0-.49 0c-.75 1.39-.6 3-.58 4.6a5.25 5.25 0 0 0-3.71-1.14c-2.31.2-3.36 2.17-3.57 4.29-.19 1.91.56 4.27 2.51 5a5 5 0 0 0 4.52-.94.34.34 0 0 0 0 .1c-.1 1.13 1.81 1.16 1.78 0v-1.81a.7.7 0 0 0 0-.38c-.03-1.52-.01-3.04.02-4.59zm-5 6.17c-1.79.09-2.44-2-2.34-3.46.14-1.91 1.22-3.42 3.32-2.94a15.49 15.49 0 0 1 2.51 1c0 1.22-.05 2.41-.11 3.61a5.5 5.5 0 0 1-3.42 1.79z" fill="#1e1e1e"/><path d="M487.22 62.89V35.58c0-2.37-1.91-3.11-3.86-2.22-2.21 1-3.72 4.11-3.71 6.43q.08 31.28 0 62.56c-.05 14.18-.1 28.35-.3 42.53-.07 4.34-.12 8.68-.3 13v.12a17.69 17.69 0 0 1-3 1.64 18.67 18.67 0 0 1-4.89.48c-15.92.57-31.85.64-47.78 1.18-7 .24-14-.78-21-.82-4.09 0-8.12 9.58-3.62 9.61 6.31 0 12.59 1 18.87.88 14.76-.26 29.52-.82 44.28-1.11 8.26-.16 22.17-.61 24.41-11.21.58-2.74.41-5.84.48-8.63.66-29.02.42-58.09.42-87.13zm-8.33 97.5a1.79 1.79 0 0 0 0-.23c.01.12 0 .18 0 .23z" opacity=".2"/><path d="M393.62 33.23c.19-2.56-.06-6.15 2.06-7.45 5.18-2.36 73.59-.58 77.19-.41a10.05 10.05 0 0 1 6.91 4.51c2.06 3.12 2.32 116.92-.78 129.64-2.33 3.21-80.42 5.75-84.69-1s-.88-122.74-.69-125.29z" fill="#dd77e5" opacity=".85"/><path d="M476.6 28a23 23 0 0 0-11.6-1.6 2.9 2.9 0 0 0-1.75 1c-2-.14-4-.28-6-.38-6.86-.35-13.66.29-20.51.53-9.58.34-18.94-1.68-28.49-1.45-4 .1-8 0-10.59 3.45-1.78 2.34-2.31 5.23-2.56 8.08-.28 3.22-.3 6.46-.38 9.68-.63 27.08-.55 101 .75 110.54.6 4.42 5.8-.12 5.41-3-1-7.21-1.09-87.39-.93-100.29.06-4.64-.12-20.44 1.57-21.39s25.69 1.41 30.78 1.3c6.84-.15 13.64-.91 20.49-.68s13.74 1.14 20.66.89c2.13-.04 6.12-5.41 3.15-6.68z" fill="#fff" opacity=".2"/><path d="M481.47 132.73V40.82c0-4.77 1-12.58-3.76-15.11-4.61-2.44-11.12-1.77-16.14-1.87-1.95 0-34.18-.09-48.34.05-5.69.06-13.52-.52-18.75 2.14a.69.69 0 0 0-.33.35c-1.31 1.58-.95 6.11-1.06 7.78-.45 6.83-.63 13.69-.8 20.53q-.7 27.24-.73 54.51v31.71c0 5-1.8 17 3.57 19.86 3.23 1.74 7.94 1.78 11.5 2 4.85.24 9.7.28 14.55.49 12.71.54 25.65-.3 38.37-.64 5.22-.13 11.4.49 16.45-1.08s5.34-6 5.54-10.72c.33-6.16-.08-12.03-.07-18.09zm-2.14 19.08c-.18 2.94-.59 5.88-3.41 7.29-2 1-4.54.81-6.68.89-14.56.54-29.13.71-43.69 1-5.9.11-11.85-.24-17.76-.49-3.54-.16-11.06.17-12.86-3.51s-1-10.23-1-14.35c-.07-8.25-.08-16.5-.09-24.75 0-16.75-.07-33.49.06-50.24.1-12.5-.3-25.29 1-37.74a9.63 9.63 0 0 1 .38-2.61c3.35-1.53 7.79-1 11.39-1.27 2.27-.15 4.53-.24 6.81-.24 1.9 0 41.59 0 47.67.1 4.71.09 12.28-.88 15.95 2.34 2.74 2.39 2.31 7.18 2.31 10.69.07 28.15-.35 92.84-.16 97 .1 2.18.56 4.27.5 6.46-.06 3.13-.22 6.3-.42 9.43z" fill="#e85bef"/><path d="M409.34 61.27a.63.63 0 0 0-.38.21.66.66 0 0 0-.22.27 1 1 0 0 0 .15 1.16 1 1 0 0 0 1.16.15.9.9 0 0 0 .51-.66 1 1 0 0 0-1.22-1.13zm-.71 1a1 1 0 0 0 0 .17v-.16zM414.14 54.08a.2.2 0 0 0-.26 0c-.95.85-.68 2.44-.72 3.62a25.57 25.57 0 0 0 .09 4.95.7.7 0 0 0 1.34 0 30.27 30.27 0 0 0 .12-4.95c0-1.18.29-2.7-.57-3.62zM414.48 51.23a1.09 1.09 0 0 0 .06-.36.53.53 0 0 0-.27-.49h-.05c-.33-.17-.9-.06-1 .39v.12a.65.65 0 0 0 1.26.34zM420.89 61.54c-2.25.59-1.57-4.79-1.56-5.65v-.91l1.24.09c1.05.12 1.07-1.74 0-1.65a10.26 10.26 0 0 1-1.24 0 8.94 8.94 0 0 0-.28-2.19.47.47 0 0 0-.9 0 9.13 9.13 0 0 0-.37 2.16 1.91 1.91 0 0 0-1.18.29.38.38 0 0 0-.08.58 1.89 1.89 0 0 0 1.22.55v1.47a15.94 15.94 0 0 0 .2 4.78c.49 1.58 2.15 2.8 3.61 1.62.58-.43-.04-1.3-.66-1.14zM427.56 53.33c-2 .06-3.59 2-4.14 3.75a4.64 4.64 0 0 0 1.52 5.07 5.71 5.71 0 0 0 6.21.39c1-.5.1-2.13-.89-1.53-2.25 1.34-5.47.42-5.81-2 2.37.1 4.78-.11 7.14-.22a.79.79 0 0 0 .68-1.18c-1.16-1.79-2.21-4.35-4.71-4.28zm-3 4.23a1.1 1.1 0 0 1 0-.16c.47-1.57 2.19-3.49 3.93-2.39a5.8 5.8 0 0 1 1.75 2.2c-1.89.06-3.81.12-5.69.35zM458.21 54.44a5.08 5.08 0 0 0-1.09 6.83c1.68 2.27 4.69 2.43 7.07 1.27 1-.5.09-2.13-.9-1.53-1.8 1.08-4.24 1-5.4-1a2.78 2.78 0 0 1-.37-1.08c2.35.12 4.76-.12 7.11-.23a.8.8 0 0 0 .79-.79c-.26-3.65-4.06-5.98-7.21-3.47zm-.63 3.12a3.52 3.52 0 0 1 3.05-2.83 3 3 0 0 1 3.08 2.47 59.66 59.66 0 0 0-6.13.36zM446.52 53.85c-1.7-.74-3.77.22-5 1.64a2.78 2.78 0 0 0-1.38-1.58 3.73 3.73 0 0 0-4.07.92v-.21a.6.6 0 0 0-.44-.44c.25.06-.2-.1-.26-.06l-.22.12a.65.65 0 0 0-.32.54c0 2.59.12 5.15 0 7.74 0 1 1.52 1 1.6 0a28.85 28.85 0 0 0 0-6.23c.42-.29.78-.65 1.23-.9 1.3-.7 2.58-.22 2.74 1.38a26.14 26.14 0 0 1-.34 5.44c-.13 1.09 1.77 1.15 1.74 0 0-1.43.4-3.74.11-5.62 1.47-1.15 4.14-2.76 4.55-.31a14.11 14.11 0 0 1-.12 2.75c0 1-.06 2.09-.07 3.13a1 1 0 0 0 2 0c-.06-1.89-.14-3.8-.3-5.69-.22-1.03-.39-2.15-1.45-2.62zM453.23 57.56a8.91 8.91 0 0 0-2.87.07.64.64 0 0 0 0 1.22 9.2 9.2 0 0 0 2.87.31c1.03.05 1.03-1.56 0-1.6z" fill="#1e1e1e"/><path d="M200.17 133c0-9.52-.23-19.07-.91-28.57-.45-6.2-7.86.17-7.57 4.21.54 7.51 3 48.89-.27 52.82s-51.86 1-72.19.58c-4.09-.07-8.13 9.53-3.61 9.61 10 .18 65.19.39 72.6-1.65 14.92-4.12 11.95-25.44 11.95-37z" opacity=".2"/><path d="M192.76 161.24c-3.24 2.79-79.73 4.45-85 .83s-1.44-54.8-.82-61.87c7.24-3.47 83.69-2.51 84.71-1.65 2.81 2.14 2.03 52.8 1.11 62.69z" fill="#e85858" opacity=".85"/><path d="M188.07 99.92c-12.82-.83-25.5-.1-38.32.48-7 .31-34.43-2.86-38.75 1.08-2.81 2.56-2.94 7.07-3.33 10.59-.59 5.28-.88 10.6-1 15.91-.32 10.12-.45 20.47.92 30.52.6 4.42 5.8-.11 5.41-3-1.19-8.7-.77-35.71-.43-40.37.16-2.16 1.12-9.29 2.93-8.6 2.52 1 30.37.81 36 .52a287.67 287.67 0 0 1 34-.27c2.9.22 5.86-6.65 2.57-6.86z" fill="#fff" opacity=".2"/><path d="M194.24 123.06c-.13-5.06 0-10.08 0-15.13 0-3.43 1.12-9.54-3-10.45-5.21-1.15-11.79-.41-17.14-.47-3.29 0-57.09.43-63 .79-1.87.12-3.74-.14-4.87 1.42-2.45 3.36-1 11.3-1 14.88a.7.7 0 0 0 0 .14c-.13 8.78-.49 17.55-.58 26.32-.06 5.83-.52 12.24.27 18s5 5.65 10 6c9.12.69 66.49.26 71.17-.14s7.94-.93 8.18-6.17c.56-11.71.27-23.43-.03-35.19zM192.37 144c-.14 4-.34 7.93-.36 11.89 0 4.41-.39 5.67-4.86 6.2-4.79.56-45.41.07-60.82.43-2.65.07-15.39.44-17.61-.9-3-1.81-1.86-10.91-2-14-.08-2.36-.19-4.71-.21-7.07 0-8.77.22-26.41.22-26.46.12-2.56-.05-5.13.14-7.68.09-1.21 0-5 .94-6 1.48-1.61 7.8-.92 9.84-1 3.89-.1 30.48-.17 39.89-.26 6.48-.06 13-.26 19.45-.06 3.35.11 6.69.18 10 .27.79 0 3.58-.37 4.21.13 1 .82.8 3.09.85 4.33.18 5-.22 9.93-.15 14.9.2 8.49.77 16.91.47 25.28z" fill="#c93d3d"/><path d="M121.15 134.83a.6.6 0 0 0-.38.21.73.73 0 0 0-.22.27v.05a1 1 0 0 0 .15 1.15 1 1 0 0 0 1.16.15.94.94 0 0 0 .51-.67 1 1 0 0 0-1.22-1.16zM126 127.47a.19.19 0 0 0-.26 0c-1 .88-.68 2.49-.72 3.69a25.82 25.82 0 0 0 .09 5.05.7.7 0 0 0 1.34 0 31.51 31.51 0 0 0 .12-5.05c.04-1.16.37-2.76-.57-3.69zM126.38 124.56a1.59 1.59 0 0 0 .06-.37.47.47 0 0 0-.27-.48c-.34-.15-.9-.07-1 .4a.5.5 0 0 1 0 .12.65.65 0 0 0 1.21.33zM132.93 135.1c-2.31.61-1.62-4.91-1.61-5.79v-.94c.43 0 .85 0 1.28.09 1 .12 1.07-1.74 0-1.65a10.77 10.77 0 0 1-1.27 0 9.44 9.44 0 0 0-.29-2.25.47.47 0 0 0-.9 0 9.11 9.11 0 0 0-.36 2.22 2.07 2.07 0 0 0-1.23.29.38.38 0 0 0-.07.58 2 2 0 0 0 1.25.55v1.51a15.88 15.88 0 0 0 .21 4.87c.49 1.61 2.17 2.85 3.66 1.66.57-.44-.04-1.31-.67-1.14zM139.74 126.71c-2 .07-3.65 2-4.21 3.82a4.7 4.7 0 0 0 1.54 5.16 5.8 5.8 0 0 0 6.32.39c1-.5.1-2.12-.89-1.53-2.31 1.38-5.62.42-6-2.12 2.43.1 4.89-.11 7.31-.22a.8.8 0 0 0 .68-1.19c-1.14-1.76-2.22-4.39-4.75-4.31zm-3.07 4.21c.47-1.61 2.26-3.64 4-2.52a6 6 0 0 1 1.81 2.28c-1.92.06-5.83.32-5.81.24zM159.07 127.25c-1.73-.77-3.84.23-5.07 1.68a2.9 2.9 0 0 0-1.41-1.63 3.8 3.8 0 0 0-4.17 1c-.14-.51-.37-1-.74-.78-1 .6-.49 2-.45 3 .07 1.87 0 3.74-.11 5.6-.05 1 1.52 1 1.6 0a32 32 0 0 0-.07-6.34c.44-.3.82-.69 1.29-1 1.33-.72 2.66-.22 2.82 1.42a26.47 26.47 0 0 1-.34 5.55c-.13 1.09 1.77 1.15 1.74 0 0-1.45.41-3.82.12-5.74 1.5-1.17 4.24-2.83 4.66-.31a14.72 14.72 0 0 1-.11 2.81c-.05 1.06-.06 2.13-.08 3.19a1 1 0 0 0 2 0c-.06-1.93-.14-3.87-.31-5.8-.12-1.04-.28-2.18-1.37-2.65zM165.93 131a9.21 9.21 0 0 0-2.92.07.64.64 0 0 0 0 1.23 9.49 9.49 0 0 0 2.92.3c1.07.08 1.07-1.52 0-1.6zM176.53 134.38c-1.13.27-2.08 1-3.3.92a3.21 3.21 0 0 1-3.17-3 3.92 3.92 0 0 1 1.56-3.73c1.17-.77 3.2-.89 4.13.33a.51.51 0 0 0 .93-.39c-.27-1.79-2.77-2.06-4.21-1.72a5.1 5.1 0 0 0-3.78 4.34 4.87 4.87 0 0 0 2.46 5.32c1.81.95 4.75.83 6.16-.79a.8.8 0 0 0-.78-1.28z" fill="#1e1e1e"/></svg>