<svg xmlns="http://www.w3.org/2000/svg" viewBox="0 0 490 216"><path d="M486.83 32.26C487 28.4 506.08 13.71 353 21.84c-78.84-1.45-274.22.81-295.18-1C7 8.63 3.11 38.46 5.74 44.64c-.34.74-3.46 29.49.47 59.81.45 12.55 1.24 58.62-2.32 67.28-1.77 4.32-3.58 18.21 3.35 18.61 26.18 1.53 401.24 9.58 402.11.79l61.3 3.18c23.7.24 14.59-62.45 14-85.72-.65-23.78 3.01-75.06 2.18-76.33z" fill="#fff"/><path d="M486.47 172c0-8.51 0-17-.07-25.52q-.11-41.76-.19-83.5c0-8-.09-16 0-24 0-4.93 1.48-11.24-2-15.28a7.33 7.33 0 0 0-5.22-2.47c-4.69-.59-9.49-.63-14.21-.79-8.61-.28-117.1-.13-162.73-.13H129.62c-32.12 0-64.24.13-96.36.08h-4.05c-7.11 0-21.36-2.23-23.21 7.42a.65.65 0 0 0 0 .24 109.24 109.24 0 0 0-.24 12c-.16 23.66-.2 47.31-.28 71-.08 23-.89 46.1-.17 69.07.09 2.71 0 6.86 1.77 9.17 2.14 2.85 7.19 2.71 10.39 3.16 4 .56 13.55.68 14.31.67h35.38c41.17 0 301.41 0 390.36-.85 5.93-.05 12 0 17.91-.47 3.61-.3 8.32-.91 9.94-4.73 1.76-4.43 1.07-10.29 1.1-15.07zm-2.86 11.76c-1.77 5.59-5.38 5.58-9.87 5.82-13.56.7-92.11.53-117.77.58-41.69.09-222 .52-270.48.65-16.7 0-59.74.29-61.59.21-5-.23-14.75.16-16.26-5.79-.88-3.49-.52-7.42-.54-11-.1-37.72-.28-133.81.1-144.09 0-.62 0-1.24.11-1.86v-.06c1.79-8.73 18.26-6 24.88-6h15.57l51.54.06 313.61.08h46.23c4 .05 8 .22 12 .42 6.59.32 12.5-.38 13 8.33.18 3-.2 6.2-.19 9.28.07 43.92.56 87.87.2 131.79.07.57-.22 10.56-.54 11.58z" fill="#1e1e1e"/><path d="M192.07 21.11c-1.41 18.2-.84 36.75-1 55q-.19 23.11-.15 46.23 0 29.85.54 59.69c.05 3 .23 7.42.29 9.74a1.28 1.28 0 0 0 2.55 0c-.92-35.27-.91-72.86-.74-108.84.1-20.54 1.3-41.3.44-61.82a1 1 0 0 0-2 0zM291.63 21.84c-1 18.22-.09 36.69-.09 54.93q0 23-.13 46.06-.17 29.64-.55 59.29c0 3 0 7.37-.06 9.65a1.28 1.28 0 0 0 2.55 0c.6-35.07.76-72.42.73-108.2 0-20.48.86-41.29-.5-61.73a1 1 0 0 0-1.95 0z" fill="#1e1e1e"/><path d="M483.29 81.34c-15.41-.37-30.83-.52-46.24-.65q-23.43-.21-46.86-.21-34.23 0-68.45.07-56 .15-111.92.39l-176.49.72L6 81.79a1.25 1.25 0 0 0 0 2.5q93-.29 186-.8 59.37-.24 118.73-.46 36.32-.12 72.62-.14 24.21 0 48.42.13c15.05.08 30.1.34 45.15.27h6.4a1 1 0 0 0 0-1.93zM484.86 135.94c-16.73.29-33.45.84-50.18 1.23q-24.54.57-49.09.76c-22.94.18-45.89.17-68.84.12q-55.33-.11-110.66-.47-86.37-.48-172.76-1-13.65-.07-27.29-.15a1.25 1.25 0 0 0 0 2.5q91.07.65 182.15 1.07 58.69.31 117.39.51c24.29.06 48.58.09 72.87-.07 16.81-.11 33.63-.32 50.44-.72 16.28-.38 32.58-.72 48.84-1.49l7.13-.33a1 1 0 0 0 0-1.92z" fill="#1e1e1e"/><path d="M120.21 33.94c.2-4.35-5.28.19-5.41 3-.31 6.49 1.3 38.36-1 40.26-3.42 3-78.26 2.32-93.07.94-2.9-.27-5.89 6.56-2.58 6.86 14 1.3 58.44.39 72.65.32 7.42 0 19.52 1.73 25.28-3.06 8.39-5.87 3.74-40.09 4.13-48.32z" opacity=".2"/><path d="M115 72.55c-.19 2.56-.74 4.57-2.87 5.87-.52.33-90.83.16-94.44 0-1.55-.08-6.06 0-7-3.25-1-1.26-.4-44.49.51-46 1.67-2.7 5.75-3.08 8.84-3.19 3.68-.13 83.64-2 91.8.3 2.39 2 3.68 7.62 3.78 10.82s-.41 32.9-.62 35.45z" fill="#f78100" opacity=".85"/><path d="M110.45 26.56c-3.86-1.58-91.54-.29-93.61.56-4.12 1.69-4.78 5.8-5.15 9.77a356.17 356.17 0 0 0-1.49 39.33c.07 4.41 5.46-.14 5.41-3-.18-10.87.7-38.74 1.77-39.91S53 32.08 63.67 32c25.69-.14 24.38.73 27.35.69 4.77-.05 11.17-1.5 15.68.34 2.92 1.21 6.48-5.35 3.75-6.47z" fill="#fff" opacity=".2"/><path d="M115.69 64.73c.14-6.06.48-12.13.49-18.19 0-3.72-.06-16.14-1.06-18.23-1.53-3.18-5.78-3.18-8.88-3.5-10.59-1.1-30.72-.44-63.17-.36-3.8 0-19.2.17-23.06.42-3.44.21-8.34.26-9.74 3.93C8.27 34 9.06 41.24 9 46.74c0 3.95-.32 21.7.2 26.58.42 3.92 1.39 5.46 5.45 6 10.64 1.31 34.13.49 50.93.42 16.29-.07 37.27-.25 41.27-.44 1.79-.08 4.86.37 6.44-.56 4-2.37 2.4-10.28 2.41-13.83a.66.66 0 0 0-.01-.18zm-4.33 12.41c-2.32.91-6.52.35-9 .38-2.74 0-5.48 0-8.22-.06-3.19 0-44.11.43-56.85.38-1.31 0-9.89-.06-11.21-.12-3.39-.16-6.81-.17-10.19-.48-4.5-.42-4.58-3.24-4.68-7.24-.21-7.71.22-28.31.32-30.83.12-3.09-.73-9.4 2.5-11.06 4.44-2.27 12.24-1.28 17.09-1.36 2.63 0 46.82-.56 54.53-.33 4.14.12 8.23.08 12.37 0s12-.91 14.82 2.43c2 2.47 1.72 15.48 1.73 18.14 0 3.24-.24 15.08-.29 17.76a.37.37 0 0 0 0 .15c-.17 3.49 1.3 10.6-2.92 12.24z" fill="#f78100"/><path d="M257.07 59.51c.11-9-.9-17.88-.54-26.95.18-4.37-5.29.18-5.4 3-.32 7.73 2.07 39.15-2 41-2.81 1.27-20.26.87-43.71.9-2.92 0-5.78 6.87-2.58 6.86 24.6 0 13 .88 37.63-.37 5.25-.27 10.54-.26 13.73-5.1 3.52-5.36 2.8-13.29 2.87-19.34z" opacity=".2"/><path d="M198.44 27.16c3-2.45 48.44-3.14 51.5-.12 2.25 3.71 1.93 47 1 48.52-3.34 4.47-45.43 3.19-52.11.9-3.32-1.93-3.38-46.85-.39-49.3z" fill="#f78100" opacity=".85"/><path d="M249.72 27.85c-9.72-4.34-47.65-2.07-50.36.58-5 4.86-3.87 36.95-.94 45.25 1.54 4.35 7.38-2.17 6.25-5.36-2.63-7.44-2.48-15.07-2.22-22.85.08-2.24.17-4.48.17-6.72a38.14 38.14 0 0 1-.3-4.5c.23.17 16.87-.89 24.35-1 8.62-.12-.48-.14 8.13-.11 9.4 0 1.77-1.37 10.42 2.5 3.43 1.54 7.78-6.33 4.5-7.79z" fill="#fff" opacity=".2"/><path d="M252.47 35.49c-.23-3.53.23-9-3.87-10-4.95-1.25-10.79-.77-15.87-.85a32 32 0 0 0-3.25 0h-11.59c-4.89 0-9.78.42-14.66.88-1.32.12-3.58-.05-4.79.66-2.53 1.49-2 4.92-2 7.35a.68.68 0 0 0 0 .14c-.67 9.85-.43 19.79-.77 29.66-.12 3.58-.83 12.33 2.88 14.43 1.82 1 5 .87 7 1 3 .21 5.94 0 8.91.16 3.2.13 9.71.14 16-.1 5.7-.22 11.41-.11 17.1-.38 5-.24 5.09-3.71 5.13-8.1.1-11.58.56-23.29-.22-34.85zm-1.69 23.83c-.13 3.41-.34 6.83-.37 10.24 0 3.19.56 6-3.33 6.62-5.19.75-10 0-25.08.09-4.73 0-9.39.58-14.13.38-2.31-.1-7.35.38-8.85-1.41-2.21-2.63-1.51-9.66-1.45-12.87.19-9.56-.23-19.17.27-28.71v-.15c.1-1.55.12-4.94 1.58-5.75a8.29 8.29 0 0 1 2.42-.26c2.78-.27 13.83-.89 16.58-.88 7.58 0 15.55.11 17.57.17 2.68.06 5.35.11 8 .29 3.26.21 5.07-.15 5.73 3.25 1.08 5.53.38 11.14.66 16.71.26 4.1.56 8.17.4 12.28z" fill="#f78100"/><path d="M257.26 93.62c-.05-4.41-5.44.14-5.4 3 .3 23.34.4 29.83 0 31.85-.41 2.37-6.46 5.82-5.77 5.77-2.67.39-29.13-.23-38.54-.19-2.92 0-5.78 6.37-2.58 6.36 22.4-.1 36.32.05 38.9-.33a15.4 15.4 0 0 0 13.35-13.7c1.18-13.38.2-20.48.04-32.76z" opacity=".2"/><path d="M198.05 87.64c1.85-1.09 49.06-3.6 52.82 1.67 2.17 2.48 1.59 40.32 0 43.14-2.42 3.85-46.92 2.17-50.41 1.2-1.27-.35-2.2-2.1-3.22-3-2.36-1.97-2.24-41.78.81-43.01z" fill="#f78100" opacity=".85"/><path d="M249 88.62c-15.52-.21-40.37-2.1-46.71-.22-2.76.83-5.39 3.9-4.47 6.8a13.27 13.27 0 0 0-1.44 3c-.91 2.8 0 24.1 1.54 31 .79 3.63 5.8-1.74 5.2-4.47-2.65-12.17-1.63-7.46-1.72-14.34-.06-4.59-.75-13.65 3.43-15.27s15 0 20.77 0c13.16.09 7.65.14 20.82.32 2.9.08 5.78-6.77 2.58-6.82z" fill="#fff" opacity=".2"/><path d="M253.18 101.72c-.15-11.42.7-9.12-.79-12.14-1.2-2.45-4.67-3.15-7.16-3.51-5.43-.78-11.3-.13-16.84-.13-14.34 0-18 0-23.68.23-2 .07-6.32-.63-7.78 1.13-1.73 2.07-1.24 10.76-1.23 10.82-.55 10.64-.79 15.27-.52 22.07.13 3.52-.38 8.29 1.24 11.53 1.38 2.76 3.57 2.84 6.39 3.17 5.06.57 27.68.87 32 .7 4.16-.15 10.56.88 14.48-1 3.19-1.54 3.82-5.42 4.05-8.64.86-11.57-.02-12.66-.16-24.23zm-2 22.85c-.13 3.41-.49 7.37-4.55 8.33-2.56.6-39.51.15-42.7-.16-2.68-.27-4.68 0-5.82-3-.92-2.42-.53-5.56-.65-8.1-.48-10.68-1-12.56-.31-23.57v-.13c.25-2.53-.06-8.28 1.89-9.61 1.8-1.22 7.68-.33 10-.4 4.23-.13 19.9 0 23.57.08 3.23 0 6.48-.16 9.71 0 2.43.1 6.89.23 8.26 2.89.92 1.78.23 6.09.18 8-.24 9.78.54 21.68.39 25.67z" fill="#f78100"/><path d="M400.6 32.9c-.24-4.43-5.56.12-5.4 3 .34 6.32-.17 26.14-.2 29.78 0 2.84.25 9.77-2.58 11-1.71.74-69.44.49-82.93.66-2.92 0-5.77 6.9-2.58 6.86 26.84-.34 44.5 1 68.88-.84 4.83-.36 16.73-.13 20.6-3.62 5.76-5.2 4.73-37.47 4.21-46.84z" opacity=".2"/><path d="M298.47 26.6c3.95-1.6 94.31-2.6 95.53.29 1 1.26 1.93 46.43 1 47.91-1.67 2.69-6.25 2.08-9.34 2.19-3.68.13-84.7 2-87.41-.3-2.41-2.02-3.57-47.05.22-50.09z" fill="#f78100" opacity=".85"/><path d="M389 26.38c-13.24-.36-34.1 1.88-56.87 1.55-3.37-.05-20.46-2.23-24.84-.77A1.8 1.8 0 0 0 307 27c-8.25-1.85-8.18 12.79-8.57 17.39-.79 9.38-2.78 21.72 1.37 30.53 1.3 2.77 5.89-3 4.65-5.67C301.94 64 303 56 303.2 50.35c.13-3 1.12-14.47 1.14-14.69a6.6 6.6 0 0 0 3.25-2.72c3.34-.39 13.21 1.57 14.2 1.63 3.34.19 30.31.23 40.45.09 20.6-.26 10.49-1.79 24.2-1.42 2.92.08 5.83-6.77 2.56-6.86z" fill="#fff" opacity=".2"/><path d="M395.2 27c-1.39-2.66-5.28-2.45-7.89-2.53-28.31-.89-39.46 0-56.07 0h-16.46c-3.64.09-7.28.43-10.9.71-1.61.13-4-.05-5.46.75-4.55 2.45-2.6 11.75-2.61 15.58a.66.66 0 0 0 0 .15c-.21 8.26-.44 16.42-.23 24.68.08 2.9-.67 9.37 2.38 11.17s9.82 1 13.38 1c11.51 0 23 .15 34.55.14 33.45 0-18.22-.09 15.23-.16 2.91 0 12.1 0 15-.08 5.05-.12 11.07.75 16-.33 3.73-.82 3.87-4.82 4-8.05.42-9-.16-17.85-.1-26.85.06-4.57 1.41-11.97-.82-16.18zm-1.3 43.11c-.17 3.22-.16 5.48-3.8 5.84-2.7.27-5.53.11-8.24.16-3.82.07-7.64.17-11.46.17-30.18.05-33 .59-43.61.35-7.85-.18-15.73.31-23.59-.17-2.92-.18-4.68.16-5.43-3-.79-3.41-.5-7.3-.63-10.77-.14-4-.16-7.93-.07-11.92.06-3 .11-6 .19-9a.66.66 0 0 0 0-.15c.14-3.71-1-9.52 1.32-12.69 1.58-2.19 5.06-1.72 7.72-1.89 3.63-.23 7.25-.5 10.89-.5 3.12 0 34.23-.06 64.75.08 2.52 0 8.18-.65 10.24.59 3.59 2.15 1.57 14.12 1.62 17.72.05 3.41.31 6.83.46 10.24.24 4.89-.1 9.93-.36 14.9z" fill="#f78100"/><path d="M400.64 93.06c-.16-4.43-5.51.13-5.41 3 .41 11.49.41 33.28.1 34-1.52 3.7-7.14 3.51-10.37 3.72-15.9 1.05-58.72.87-75.41.57-2.92 0-5.81 6.81-2.58 6.87 35.46.63 70.48.12 79.7-.95 17.88-.68 14.28-13.65 14.47-18.32.4-9.49.03-13.95-.5-28.89z" opacity=".2"/><path d="M298.21 87.16c2.93-1.28 95.14-1.79 96.79.32 1 1.26 1.39 43.1.48 44.58-1.67 2.7-16.65 2.36-20.33 2.49 0 0-75.1.18-76.12-.68-.27-.23-2.25-4-2.25-4s-.46-41.56 1.43-42.71z" fill="#f78100" opacity=".85"/><path d="M390.53 88c-14.25-.94-54.21 1.14-69 .69-5.27-.16-12.16-2.38-17.27-.55-3.65 1.31-4.71 4.77-5.23 8.25a124 124 0 0 0-.64 33.15c.6 4.42 5.8-.12 5.41-3-2.08-15.24-.14-31.38.49-32.94 0 1-2.66 1.24 30.67.9 15.42-.16 37.6-.66 53 .36 2.9.14 5.86-6.69 2.57-6.86z" fill="#fff" opacity=".2"/><path d="M396.67 116c-.1-8.59 1-18.25-.13-26.71-.7-5.37-11.6-3.88-16.19-4-3.63-.09-7.26-.25-10.9-.28-14.8-.15 14.57.11-.24.16-22.43.09-3.94.17-26.38.27l-21.56.09h-4.16c-2.55 0-5.11-.06-7.66 0-3 .06-7.77-.42-10.67.58-4.55 1.57-3.09 8-3.06 10.58s-.23 11.69-.17 12.28.1 8.58.18 12.63-1.34 11.38 3.57 13.09c4.72 1.64 11 1.19 15.89 1.07 3.84-.1.19 0 37-.08h31.93c3.19 0 10 .46 12-2.89 1.38-2.36.61-6.41.69-9 .13-3.91-.01 3.33-.14-7.79zm-2 5.43c-.09 2.63.87 9.3-1.35 10.86-2 1.4-6.23 1-8.57 1.07-2.79.07-5.58 0-8.37 0h-17c-37.14.06-35 0-39.3.06a154.5 154.5 0 0 1-16.53-.25c-1.08-.1-3 0-4-.57-2.22-1.33-1.8-5.13-1.81-7.26 0-4.27-.24-1.18-.19-17.62v-5.66c.09-2.56-.12-5.13.08-7.68.08-1 .2-5.09 1-6 1.58-1.76 8.64-1 10.8-1h8.95c5.29 0 33.46-.32 51.34-.37 4 0 8 0 12.05.14 3.33.09 6.71 0 10 .26 2 .15 2-.24 2.59 1.75.44 1.43.19 3.47.2 5 .06 4.31.17 24.16.07 27.29z" fill="#f78100"/><path d="M119.74 93.19c-.06-4.41-5.45.14-5.41 3 .15 11.46.36 19.78.29 22.73-.08 3.76 1.15 10.12-2.29 12.38-4.81 3.17-72.21 2.46-89.36 2-2.91-.08-5.82 6.78-2.58 6.86 35.55.92 85.12-.3 90.72-2.07 11.83-3.75 8.74-13.49 8.92-22.19.16-7.74-.1-7.9-.29-22.71z" opacity=".2"/><path d="M9.94 95.63c.19-2.56 4.35-7.87 6.94-8.07 1.28-.36 94.47-1.87 96.82 1.6 2.35 6.91 1.46 37.35.55 38.83-1.67 2.7-4.29 5.09-7.37 5.2-3.68.13-87.88 1-88.9.17-5.34-1.58-7.5-8.1-7.6-11.3s-.63-23.88-.44-26.43z" fill="#f78100" opacity=".85"/><path d="M110.47 88.62c-30.25-1.27-64.47-.88-84.71-.42-4.66.1-15.86-2.66-15.07 12-.34 7.24-1.29 10.28.54 26.72.49 4.43 5.73-.12 5.41-3a188.34 188.34 0 0 1-.48-29.32c.46.46 3.21.53 3.05.51 2.47.37 10.43-1.22 45.23-.64 14.48.24 29 .37 43.45 1 2.92.14 5.84-6.71 2.58-6.85z" fill="#fff" opacity=".2"/><path d="M115.86 101.43c0-3.55.85-9.15-1-12.33-2.32-4-12.49-2.6-16.09-2.77-1.6-.07-34.75 0-49.74.06-20.49.08-7.6.31-14.15.34s-14.58-1.56-20.6 1c-6.37 2.73-5 10-5 15.54v1.17c0 16-1.47 23.31 3.37 27.31 6 4.95 15.75 2.43 22.7 2.67 2.1.08 4.12.46 6.22.48 35.06.33 47.6-.16 52.27-.22s9.84.12 14.57-.64c7.41-1.19 7.45-6.77 7.67-13.07.26-7.64-.24-16.14-.22-19.54zm-2 17.93c-.06 1.81 0 3.75-.2 5.55-.59 4.39-2.58 6.65-6.94 7.07-4.08.39-8.3.39-12.39.45h-9.27c-34.31.06-42.19.44-45.25.24a69.18 69.18 0 0 0-10-.19c-5.15.4-12.95.88-16.42-3.48s-2.31-12-2.4-17.35c-.09-5.61-.3-8.37-.3-8.37s-.93-12.82 6.11-14.25c4.42-.9 9.27-.37 13.76-.34H54.46c18.36 0 15.33-.28 32.09-.33 3.13 0 6.27-.09 9.4 0s6.26.29 9.37.43c4.44.21 7.7-.4 8.18 4.89.3 3.26.17 6.55.17 9.82.05 7.82.33 11.31.2 15.86z" fill="#f78100"/><path d="M120.35 149.6c-.57-4.43-5.78.11-5.41 3 .28 2.18.31 26.48-.65 31.27a21 21 0 0 1-4.75 3.18c-3.83 1.58-75.72 1.17-85.36 1-2.92-.06-5.81 6.8-2.58 6.86 28.36.5 74.67-.76 82.12-1.44 3.52-.32 8.13-.2 11-2.59a16.9 16.9 0 0 0 4.53-6.9c1.36-4.79 1.41-31.98 1.1-34.38z" opacity=".2"/><path d="M10 150.49c.19-2.55 3.13-6.5 5.25-7.8 2.62-.54 88.89.28 92.49.45 1.55.07 5.91 3.68 6.91 4.94s.54 34.57-.37 36c-1.67 2.7-5.25 3.09-8.34 3.2-3.68.13-86.17 1.32-89.66.35-1.28-.31-6.28-7.24-6.4-10.43s-.12-24.2.12-26.71z" fill="#f78100" opacity=".85"/><path d="M110.87 143.27c-12.38-.75-56.15 1.47-65.69 1.48-17.57 0-9.64-.48-21.37-1.75-3.62-.39-7.28-1.67-10 1.35s-3.4 7.64-3.14 11.52c0 .55-.21 17.49.23 25.65.24 4.43 5.56-.13 5.41-3-.53-9.8-1-19.57.89-29.25.78.1 6.68.87 9 1.06 5.22.44 34 1.16 39.79 1.21 7 .06-14.49.14 4.39 0 12.68-.1 25.31-2.15 38-1.39 2.82.16 5.77-6.68 2.49-6.88z" fill="#fff" opacity=".2"/><path d="M116.34 165.58c-.07-4.93.31-9.9-.27-14.81-.42-3.54-.72-6.13-4.2-7.52-4.67-1.88-10.44-1.59-15.38-1.7-24.8-.53-15.21 0-40 0H38.2c-5.78 0-20.64-1.73-25.63 1.66-4.7 3.25-3.47 10.18-3.57 14.96a1.08 1.08 0 0 0 0 .19v9.68c0 4.44-.84 9.63.83 13.83 3 7.55 11.32 7.53 18.12 7.46 10.31-.12 63.82-.43 66.63-.49 7.56-.14 20.72 1.88 21.72-8.47.54-4.86.11-9.9.04-14.79zM114.18 179c-.87 6.8-4.6 7-10.13 7.21-3.07.11-13.34.33-15.39.34-27.53.12-42.74.63-56.15.8-4.62.05-10.37.91-14.61-.55-8.34-2.86-7.18-11.31-7.31-18.48-.05-3.36-.11-6.71-.14-10.07a.53.53 0 0 0 0-.12c.23-3.82-.75-9.92 2.43-12.82 2.72-2.49 8.16-1.82 11.55-1.83 2.2 0 4.4.06 6.6.07 3.09 0 34.38.08 61 .11 3.21 0 6.35.09 9.56.26 2.58.14 5.43 0 7.89.8 4.21 1.43 4.27 4 4.58 7.92.36 4.58 0 9.23 0 13.82.09 4.14.63 8.54.12 12.54z" fill="#f78100"/><path d="M257.61 175.53c-.13-8.78-.45-17.51-.18-26.29.13-4.37-5.32.17-5.41 3-.23 7.39-.15 31.31-.87 33.67-1.85 3.67-39.77 1.45-45.9 1.37-2.92 0-5.81 6.82-2.58 6.86 16.61.21 30.16.78 38.48.18 3.68-.27 8.25-.28 11.33-2.63a20.75 20.75 0 0 0 3.25-4.69c1.83-3.69 1.94-7.4 1.88-11.47z" opacity=".2"/><path d="M251.83 180.07c-.2 2.55.35 5.25-1.77 6.55-2.14 2.19-49.77 2.72-52-.58-1-1.26-2.12-35.89 0-39.21 1.67-2.7 5.25-3.09 8.34-3.2 3.68-.13 40.86-.67 42.7.8 4.33 3.65 2.9 33.08 2.73 35.64z" fill="#f78100" opacity=".85"/><path d="M246.25 144.54c-6.84-.49-25.45 0-32.58.15-5.67.14-12.38-.36-14.51 6.22-.2.6-2.37 6.93-2.4 8.7-.14 8.28 1.58 17 2.4 25.21.44 4.43 5.7-.12 5.41-3-.45-4.48-1.57-20-2-22.89h.09a40.83 40.83 0 0 1 7-3.63 8.69 8.69 0 0 0 3.26-3.8c2.17 0 10.49-.94 12.53-1.06 6.26-.38 12 .58 18.22 1 2.91.16 5.87-6.67 2.58-6.9z" fill="#fff" opacity=".2"/><path d="M252.53 172.39a.61.61 0 0 0 0-.13c.19-4 .47-7.87.38-11.85s1.39-13.69-2.6-16.65c-2.73-2-8.6-1.59-11.77-1.73s-6.56.31-9.86.34c-15.64.13-21.4-.42-26.6.22-6.18.78-6.07 6.18-6.26 11.28-.22 5.61 0 10.86.2 16.42.18 4.65-1.44 10.74.23 15.18 1.46 3.88 7.82 3 11.15 3.14 3.65.16 7.28.38 10.93.37h12.78c6 0 12 .3 17.91-1 6.4-1.41 3.55-10.77 3.51-15.59zM251 182.61c-.56 4.12-4.33 4-8 4.27-4.07.31-8.19.09-12.27.07-5.92 0-8.73.22-22.37-.42-2.38-.11-7.83.45-9.48-1.36s-.84-6.3-.78-8.65c.09-3.8 0-7.39-.25-11.16-.33-5.44-1.64-18.9 5.23-20.55 2.94-.71 6.8-.15 9.83-.26 1.67-.06-3.67 0 10.17 0 6.74 0 13.45-.73 20.17-.22 3.74.28 6.31.14 7.44 4.38 1 3.55.48 8 .63 11.66.15 4 0 7.87-.18 11.82v.16c-.26 3.37.25 6.97-.14 10.26z" fill="#f78100"/><path d="M401.26 149.92c0-4.41-5.43.14-5.41 3 .08 9.65.15 19.32-.27 29 0 .19-3.22 4.31-4.12 4.5-3.07.64-73 .85-86.27.8-2.93 0-5.8 6.86-2.58 6.87 29.2.1 73.66 1 85.9-.63 5.51-.73 11.2-3.2 12.1-9.14 1.68-11.19.74-23.15.65-34.4z" opacity=".2"/><path d="M298.82 144.51c7.92-3.34 88.31-2.43 95.72.58 2.31 4.19.93 39.11 0 40.59-1.28 2-90.4 4.8-95.8-.61-4.21-3.28-3.41-37.64.08-40.56z" fill="#f78100" opacity=".85"/><path d="M391.74 146.38a22.89 22.89 0 0 0-11.56-1.65 2.93 2.93 0 0 0-1.76 1.06c-1.39-.1-40.23-1.63-65-1.31-4.8.07-9.65-.11-12.89 4.27-5 6.76-2.57 28-1.62 34.95.6 4.42 5.8-.12 5.41-3-.74-5.36-1-21.57-.72-24.28.09-1-.13-3.18.45-4s.59-.62 1.93-.91c2.79-.58 3.31 1.16 26.9 1.38 4.07 0 30.71-.91 36.94-.59s12.49 1 18.79.8c2.11-.1 6.11-5.49 3.13-6.72z" fill="#fff" opacity=".2"/><path d="M397.19 166.34c-.14-2.31-.58-4.45-.53-6.81.07-3.83 1.18-10.82-1.07-14.24s-9.72-2.75-13.15-2.91c-2.23-.1-4.46-.22-6.7-.25h-17.71c-16.13 0-15.32-.19-41.34.09-5.69.06-13.51-.52-18.75 2.14a.62.62 0 0 0-.33.37c-1.64 1.71-1.65 5.15-1.85 7.3-.42 4.34-.43 19.41-.33 22.57.09 3-.28 8.5 2 10.92s7.12 2.45 10.12 2.68c5 .39 20.26.85 23 .85 32.09 0 35.51-.51 44.63-.67 3.68-.07 7.37-.39 11.05-.39 2.24 0 4.95.63 7.06-.35 3.87-1.81 3.32-7.14 3.46-10.7s.65-7.13.44-10.6zm-2.31 2.66c-.13 2.91-.37 11.35-.64 12.54-.69 2.91-3 4.32-6 4.22-10-.34-26.43.37-36.48.42-31.33.17-40.48.4-45.12 0a20.57 20.57 0 0 1-5.11-.88c-3.83-1.36-3.93-4.17-4.23-7.79a191.83 191.83 0 0 1-.32-20.49c.08-2.83-.54-9.2 1.69-11.4 3.36-1.56 7.82-1.05 11.43-1.29 2.22-.15 8.15-.24 8.89-.24 4.1 0 30.49-.19 56.83.14 1.89 0 12.45 0 15.35 1 3.82 1.36 3.3 5.4 3.35 8.83.1 4.94.59 10.08.36 14.94z" fill="#f78100"/><path d="M13.81 58.06c.32-.09.63-.2.95-.32z" fill="#fff"/></svg>