<svg xmlns="http://www.w3.org/2000/svg" viewBox="0 0 490 216"><path d="M481.75 24.68c-42.59-7.4-86.08-9.14-128.87-2.66C275.54 20.59 15.53 19.47 13 23 6.46 27.36 1.48 38.64 4.11 44.82 0 66.12 5.82 163.25 2.27 171.91c-1.78 4.32-1.39 19.36 5.55 19.76 78.75-6.13 129.68 3 156 2.05 34.07-9.65 144.92 1.65 306.74.77 24.59 1.27 14.6-62.46 14-85.72-3.1-56.05 7.78-84.08-2.81-84.09z" fill="#c9c9c9"/><path d="M2.33 104.71c8.14-.22 103.57-5.83 192.18-2.61 2.72-10.5-1.5-70.7-1.17-81.51-24.16.16-114.68 2.09-135.63.29C43.36 16.53 0 11.9 4.11 44.66c-.33.75-2.74 26.77-1.78 60.05z" fill="#fff"/><path d="M192.44 21.14c-1.41 18.2-.84 36.75-1 55q-.18 23.11-.15 46.22.06 29.85.54 59.7c.06 3 .23 7.42.29 9.73.05 1.64 2.6 1.65 2.55 0-.92-35.27-.91-72.85-.73-108.83.09-20.54 1.29-41.31.43-61.82a1 1 0 0 0-1.95 0zM290.51 21.86c-1 18.22-.09 36.69-.1 54.94q0 23-.13 46.05-.15 29.66-.55 59.3c0 3 0 7.37-.05 9.64a1.28 1.28 0 0 0 2.55 0c.6-35.07.75-72.41.72-108.19 0-20.49.86-41.29-.49-61.74a1 1 0 0 0-1.95 0z" fill="#1e1e1e"/><path d="M482.16 101.85c-27.12-.65-54.27-.5-81.4-.52q-59.33 0-118.64.1-63.1.1-126.22.32-51.06.15-102.12.34l-32.84.13c-4.81 0-10.62-.85-15.37.07a3.64 3.64 0 0 1-.66 0 1.26 1.26 0 0 0 0 2.51l39.4-.16q48.56-.19 97.11-.35 62.47-.23 125-.37 60.57-.15 121.16-.18c29.23 0 58.47.35 87.7.07h6.92a1 1 0 0 0 0-1.92zM483.74 147.72q-42.25.74-84.51 1-59.79.41-119.6.33-62.83 0-125.69-.21-50.5-.16-101-.41l-32.34-.16c-4.69 0-10.38-.95-15-.08a3.86 3.86 0 0 1-.68 0 1.25 1.25 0 0 0 0 2.5q19.26.12 38.53.21 47.94.24 95.89.38 62.14.19 124.28.23 61 0 121.92-.29c30.16-.17 60.4 0 90.54-1.23l7.67-.33a1 1 0 0 0 0-1.92z" fill="#1e1e1e"/><path d="M485.34 171.77c0-8.7-.36-125-.31-133 0-4.89 1.46-11-2-15.07-1.72-2-3.63-2.3-6.07-2.55-4.57-.48-9.21-.58-13.81-.74-8-.28-432.87 0-434.5 0-7.17 0-22-2.38-23.84 7.42a.76.76 0 0 0 0 .26c-.53 5.63-.69 158.91 1.05 161.2 2 2.67 6.46 2.58 9.51 3 4.56.68 454.66 0 460.42-.72 4.08-.53 7.71-1.69 8.76-6s.8-9.29.79-13.8zm-2.25.26c0 .56-.24 8.55-.48 9.77-1 5.18-3.5 7.31-8.4 7.71-5.74.48-11.6.41-17.36.46C454 190 33 191.05 29.42 191.08c-2.52 0-5 .06-7.54-.09-5.16-.3-13.38.49-15-5.46-1-3.39-1.08-152.33-.66-157.23a.33.33 0 0 0 0-.06c1.83-8.92 19.68-6 26.37-5.95.84 0 434.12.4 437.7.58 5.58.29 11.81-.55 12.76 6.8.45 3.45-.16 7.15-.15 10.66.1 43.89.5 87.8.19 131.67z" fill="#1e1e1e"/><path d="M196.07 33.08c-.88-4.94-7.95-2.34-7.57 1.7.59 6.11.39 47.1.14 53.36-.08 1.87.44 9.61-13.83 9.62-30.41 1.65-51.27 1.65-81.71 1.12-4.09-.07-7.64 8.53-3.12 8.61 18.15.31 35.8 1 54 .68 9-.18 33.08-.52 40.63-2.31 14.63-3.46 11.89-41.06 11.92-52.39-.03-8.12.98-12.39-.46-20.39z" opacity=".2"/><path d="M81 35.34c.27-3.18 2.86-8.06 5.88-9.68 2-1.73 95.3-1.73 100.12 1.74 1.42 1.57 3.82 61 0 66.43-2.37 3.36-7.47 3.84-11.86 4-5.23.16-88.86 1.46-90.31.39-3.4-2.51-3.81-4.51-4-8.49s-.1-51.21.17-54.39z" fill="#f78100" opacity=".85"/><path d="M101.47 69.64a1.05 1.05 0 1 0-1 1.34h.07a1 1 0 0 0 1-1.26zM105.11 60.32c-.27 3.2.33 6.41.19 9.62-.07 1.38 2.08 1.38 2.14 0a75.47 75.47 0 0 0-.44-9.62 1 1 0 0 0-1.89 0zM106 57.38h.08a1 1 0 0 0 .63-.67.7.7 0 0 0 .11-.23 1.55 1.55 0 0 0 0-.77.9.9 0 0 0-1.5-.39c-.2.24-.42.37-.52.69a1 1 0 0 0 .11.94 1 1 0 0 0 1.09.43zM114.1 69.15c-1 1.1-1.38-3.24-1.4-3.43-.08-.93-.15-1.87-.19-2.81v-1.62h1.44c1.61 0 1.38-2.58-.31-2.25a6.78 6.78 0 0 1-1.09.14 11.77 11.77 0 0 0-.24-2.45c-.17-.73-1.08-.55-1.32 0a8.89 8.89 0 0 0-.58 2.48h-.61c-1 0-1.35 1.67-.26 1.87.27.05.53.08.8.11 0 .91.08 1.81.13 2.66a19.46 19.46 0 0 0 .72 5.59c.77 2 3.15 2.83 4.49.92.65-.93-.81-2.03-1.58-1.21zM123.44 59.45a5.61 5.61 0 0 0-5.93 3.17 7.34 7.34 0 0 0-.48 1.66.93.93 0 0 0-.1.8 5.26 5.26 0 0 0 2 4.69c2.33 1.71 5.45 1.2 7.67-.45 1.05-.78.08-2.56-1.06-1.8-1.43 1-3 1.71-4.75 1a3.06 3.06 0 0 1-1.88-2.68c2.87.06 5.78-.2 8.64-.33a1.1 1.1 0 0 0 1.06-1.39 6.61 6.61 0 0 0-5.17-4.67zm-4.27 4.33c1.15-3.46 4.82-2.64 6.57-.39-2.18.07-4.39.16-6.57.39zM145.26 59.29a5.42 5.42 0 0 0-5.71 2 3.17 3.17 0 0 0-.85-.93 4.2 4.2 0 0 0-5.78.23 4.36 4.36 0 0 0-.26-.77.7.7 0 0 0-1.21 0c-.63 1.43-.4 3-.4 4.49v5.65a1.08 1.08 0 0 0 2.15 0c0-1.88-.06-3.76-.09-5.65V62.7a5.85 5.85 0 0 1 1.89-1.41 2.14 2.14 0 0 1 3 1.56c.32 2.29-.17 5-.28 7.27-.06 1.39 2.08 1.38 2.16 0 .13-2.18.24-4.41.15-6.6a4.55 4.55 0 0 1 2.29-2.1 3.25 3.25 0 0 1 1.33-.35c1 .09 1.57 1.32 1.7 2.26.32 2.12-.28 4.46-.28 6.6a1.08 1.08 0 0 0 2.15 0 34.19 34.19 0 0 0 .11-7.36c-.17-1.37-.66-2.76-2.07-3.28zM154.67 63.65a25.23 25.23 0 0 0-4.81.67c-.51.35-.76 1.21.15 1.5a23.65 23.65 0 0 0 4.61 0c1.45-.08 1.49-2.23.05-2.17zM167.23 64c-.14-1.43-.34-3-1.48-4-1.83-1.61-6-.85-7.27 1.14a.76.76 0 0 0 .85 1.1c2.09-.71 5.28-2.06 5.69 1.18 0 .31.06.64.09 1a5.62 5.62 0 0 0-4.8-.92 4.42 4.42 0 0 0-2.92 4.85c.49 3.85 5.39 3.64 8.09 1.63v.4c.1 1.42 2.33 1.43 2.22 0-.13-2.17-.27-4.3-.47-6.38zm-4.5 5c-1.22.37-3.36.39-3.38-1.33 0-3.7 3.9-2.15 5.93-1.22v.66a6.33 6.33 0 0 1-2.55 1.89z" fill="#1e1e1e"/><path d="M184.58 25.42c-15.5.22-91.19-.54-94.67.53-8.58 2.64-8.78 12.3-9.25 19.58-.37 5.81-1.87 37.64-.1 47.32.64 3.55 4.79 2.28 6.67.75A10.55 10.55 0 0 0 91 83.91c-1.27-7 .44-41.64.67-44.7 1.25 0 17.18-1.24 24.25-.39a191.16 191.16 0 0 0 24.64.87c13-.12 25.92-.36 38.88-.55 5.82-.08 11.56-13.81 5.14-13.72z" fill="#fff" opacity=".2"/><path d="M189.78 76.81c0-7.35-.14-30.94-.13-35.38s1.29-13.91-3.85-15.89c-6.37-2.44-15.24-.93-21.89-1.05-3.71-.06-64.6-.71-70.77-.36-4.25.24-9 .63-11.37 4.68-2.77 4.79-1.4 10.91-1.44 16.09a.36.36 0 0 0 0 .15c-.18 10-.62 20-.74 29.94 0 2.88.1 5.77.16 8.66.09 3.88-.6 8.83 1.5 12.32 1.89 3.17 3.78 3.45 7 3.6 23 1.08 76.6-.24 80.32-.38 6.62-.27 17.95 1 20.55-7.15 1.46-4.56.67-10.52.66-15.23zm-2.28 8.37c0 3 .15 6.47-2.05 8.77-3.71 3.86-12 2.76-16.87 3-3.32.13-52.17.84-73.27.62-2.82 0-7.12.7-9.83-.27-4.63-1.65-3.66-9.78-3.79-13.6-.11-2.89-.1-28.64.08-38.61v-.14c.28-5.2-1.59-14.12 3.83-17.4 4.72-2.87 13.4-1.64 18.69-1.55 2.84 0 58.32.72 66.76.69 4 0 9.24-.61 13.13.64s3.22 7.37 3.3 11c.09 3.77.16 35.04.02 46.85z" fill="#f78100"/><path d="M13.28 58.05c.32-.09.63-.2 1-.31h-.05z" fill="#fff"/></svg>