<svg xmlns="http://www.w3.org/2000/svg" viewBox="0 0 490 216"><path d="M486.83 32.2C487 28.33 506.08 13.65 353 21.78c-78.84-1.46-274.22.8-295.18-1C7 8.56 3.11 38.39 5.74 44.57c-.34.75-3.46 29.5.47 59.82.45 12.54 1.24 58.62-2.32 67.28-1.77 4.32-3.58 18.2 3.35 18.6 26.18 1.53 401.24 9.58 402.11.79l61.3 3.19c23.7.23 14.59-62.46 14-85.73-.65-23.78 3.01-75.06 2.18-76.32z" fill="#fff"/><path d="M486.47 171.94c0-8.51 0-17-.07-25.53q-.11-41.74-.19-83.5c0-8-.09-16 0-24 0-4.92 1.48-11.23-2-15.28a7.33 7.33 0 0 0-5.22-2.47c-4.69-.59-9.49-.63-14.21-.78-8.61-.28-117.1-.14-162.73-.14H129.62c-32.12 0-64.24.14-96.36.08h-4.05c-7.11 0-21.36-2.23-23.21 7.42a.64.64 0 0 0 0 .24 109.37 109.37 0 0 0-.24 12c-.16 23.65-.2 47.3-.28 71-.08 23-.89 46.09-.17 69.07.09 2.7 0 6.85 1.77 9.16 2.14 2.85 7.19 2.71 10.39 3.16 4 .56 13.55.68 14.31.68h35.38c41.17 0 301.41 0 390.36-.85 5.93 0 12 0 17.91-.46 3.61-.31 8.32-.91 9.94-4.73 1.76-4.43 1.07-10.3 1.1-15.07zm-2.86 11.75c-1.77 5.59-5.38 5.59-9.87 5.82-13.56.71-92.11.53-117.77.59-41.69.08-222 .51-270.48.64-16.7 0-59.74.29-61.59.21-5-.23-14.75.17-16.26-5.79-.88-3.48-.52-7.42-.54-11-.1-37.72-.28-133.81.1-144.09 0-.62 0-1.24.11-1.85v-.07c1.79-8.73 18.26-6 24.88-5.95h15.57q25.77 0 51.54.05l313.61.08h46.23c4 .05 8 .22 12 .41 6.59.32 12.5-.38 13 8.34.18 3-.2 6.2-.19 9.27.07 43.93.56 87.87.2 131.79.07.54-.22 10.54-.54 11.55z" fill="#1e1e1e"/><path d="M192.07 21.05c-1.41 18.19-.84 36.75-1 55q-.19 23.1-.15 46.22 0 29.85.54 59.69c.05 3 .23 7.42.29 9.74a1.28 1.28 0 0 0 2.55 0c-.92-35.27-.91-72.86-.74-108.83.1-20.54 1.3-41.31.44-61.82a1 1 0 0 0-2 0zM291.63 21.77c-1 18.22-.09 36.69-.09 54.94q0 23-.13 46.05-.17 29.65-.55 59.3c0 3 0 7.37-.06 9.64a1.28 1.28 0 0 0 2.55 0c.6-35.07.76-72.41.73-108.19 0-20.49.86-41.3-.5-61.74a1 1 0 0 0-1.95 0z" fill="#1e1e1e"/><path d="M483.29 81.28c-15.41-.38-30.83-.53-46.24-.66q-23.43-.2-46.86-.21-34.23 0-68.45.08-56 .14-111.92.38-88.24.34-176.49.73-13.65 0-27.29.12a1.25 1.25 0 0 0 0 2.5q93-.3 185.93-.79 59.37-.25 118.73-.47 36.32-.1 72.62-.14 24.21 0 48.42.13c15.05.09 30.1.35 45.15.27h6.4a1 1 0 0 0 0-1.92zM484.86 135.88c-16.73.29-33.45.84-50.18 1.22q-24.54.57-49.09.76c-22.94.18-45.89.18-68.84.13q-55.33-.12-110.66-.48-86.37-.48-172.76-1L6 136.32a1.25 1.25 0 0 0 0 2.5q91.07.65 182.15 1.07 58.69.33 117.39.52c24.29.06 48.58.08 72.87-.08q25.21-.17 50.44-.71c16.28-.38 32.58-.73 48.84-1.5l7.13-.32c1.23-.06 1.25-2 0-1.92z" fill="#1e1e1e"/><path d="M192.81 33.87c.2-4.35-5.28.19-5.41 3-.31 6.48 1.3 38.35-1 40.25-3.42 3.05-78.26 2.32-93.07 1-2.9-.27-5.89 6.55-2.58 6.86 14 1.3 58.44.38 72.65.31 7.42 0 19.52 1.74 25.28-3 8.39-5.97 3.74-40.19 4.13-48.42z" opacity=".2"/><path d="M187.62 72.49c-.19 2.55-.74 4.57-2.87 5.87-.52.32-90.84.15-94.44 0-1.55-.07-6.06 0-7-3.25-1-1.25-.4-44.49.51-46 1.67-2.7 5.75-3.09 8.84-3.2 3.68-.13 83.64-2 91.8.3 2.39 2 3.68 7.63 3.78 10.82s-.43 32.91-.62 35.46z" fill="#f78100" opacity=".85"/><path d="M183.05 26.49c-3.86-1.58-91.54-.28-93.61.57-4.12 1.69-4.78 5.79-5.15 9.77a356 356 0 0 0-1.49 39.32c.07 4.41 5.45-.14 5.41-3-.21-10.87.7-38.74 1.79-39.91S125.62 32 136.27 32c25.69-.15 24.38.72 27.35.69 4.77-.06 11.17-1.51 15.68.34 2.91 1.15 6.48-5.42 3.75-6.54z" fill="#fff" opacity=".2"/><path d="M188.29 64.67c.14-6.07.48-12.13.49-18.2 0-3.72-.07-16.14-1.06-18.22-1.53-3.19-5.78-3.19-8.88-3.51-10.59-1.1-30.72-.44-63.17-.36-3.81 0-19.2.17-23.06.42-3.45.22-8.34.26-9.74 3.93-2 5.24-1.21 12.45-1.25 17.94 0 4-.32 21.71.2 26.58.42 3.92 1.39 5.47 5.45 6 10.64 1.32 34.13.49 50.93.42 16.29-.06 37.27-.25 41.27-.44 1.79-.08 4.86.38 6.44-.55 4.05-2.38 2.4-10.28 2.41-13.84a.7.7 0 0 0-.03-.17zM184 77.08c-2.32.9-6.53.34-9 .37h-8.22c-3.19 0-44.12.42-56.85.38-1.31 0-9.89-.06-11.21-.12-3.39-.16-6.82-.17-10.19-.48-4.53-.47-4.62-3.23-4.73-7.3-.2-7.71.23-28.3.33-30.82.12-3.1-.74-9.4 2.5-11.06 4.44-2.28 12.24-1.29 17.09-1.37 2.63 0 46.82-.56 54.53-.33 4.14.13 8.23.08 12.37 0s12-.91 14.82 2.43c2.05 2.48 1.72 15.49 1.73 18.14 0 3.24-.24 15.08-.29 17.76a.42.42 0 0 0 0 .15c-.18 3.49 1.3 10.6-2.88 12.25z" fill="#f78100"/><path d="M292.22 59.45c.12-9-.9-17.88-.53-27 .17-4.36-5.3.18-5.41 3-.31 7.73 2.07 39.16-2 41-2.82 1.26-20.27.86-43.72.9-2.92 0-5.78 6.86-2.58 6.86 24.61 0 13 .87 37.63-.38 5.25-.26 10.55-.26 13.74-5.1 3.53-5.3 2.79-13.24 2.87-19.28z" opacity=".2"/><path d="M233.59 27.09c3-2.45 48.44-3.14 51.5-.12 2.25 3.71 1.93 47 1 48.52-3.34 4.47-45.43 3.19-52.1.9-3.32-1.93-3.38-46.84-.4-49.3z" fill="#f78100" opacity=".85"/><path d="M284.87 27.79c-9.71-4.34-47.64-2.08-50.36.57-5 4.87-3.87 37-.93 45.26 1.53 4.34 7.37-2.18 6.24-5.37-2.63-7.43-2.48-15.07-2.22-22.85.08-2.23.17-4.48.17-6.72a38 38 0 0 1-.3-4.49c.23.16 16.87-.9 24.36-1 8.61-.11-.49-.14 8.13-.11 9.39 0 1.76-1.36 10.41 2.5 3.43 1.53 7.77-6.33 4.5-7.79z" fill="#fff" opacity=".2"/><path d="M287.63 35.42c-.24-3.52.23-9-3.88-10-4.95-1.26-10.78-.78-15.86-.86a32.22 32.22 0 0 0-3.26 0c-9.76 0-1.82-.05-11.58 0-4.9 0-9.79.41-14.66.87-1.32.12-3.58-.05-4.8.66-2.52 1.49-2 4.92-2 7.35v.14c-.67 9.85-.43 19.79-.77 29.66-.12 3.58-.83 12.34 2.89 14.44 1.81 1 5 .86 7 1 3 .21 5.95 0 8.91.17 3.21.13 9.72.13 16-.11 5.7-.22 11.41-.1 17.11-.38 5-.23 5.08-3.71 5.12-8.1.09-11.57.55-23.26-.22-34.84zm-1.69 23.83c-.13 3.41-.34 6.83-.38 10.25 0 3.18.56 6-3.33 6.61-5.19.75-10 0-25.08.09-4.72 0-9.39.58-14.13.38-2.3-.09-7.35.38-8.85-1.4-2.2-2.63-1.51-9.66-1.45-12.88.2-9.56-.23-19.16.27-28.71a.66.66 0 0 0 0-.15c.11-1.55.13-4.94 1.58-5.74a8 8 0 0 1 2.42-.27c2.78-.26 13.84-.88 16.58-.88 7.59 0 15.55.12 17.58.17 2.67.07 5.35.12 8 .29 3.26.21 5.07-.14 5.74 3.25 1.08 5.53.37 11.14.65 16.71.26 4.1.55 8.17.4 12.28z" fill="#f78100"/><path d="M292.42 93.56c-.06-4.41-5.45.14-5.41 3 .3 23.34.4 29.82.05 31.84-.42 2.37-6.46 5.82-5.78 5.78-2.67.39-29.12-.24-38.53-.2-2.93 0-5.79 6.38-2.58 6.36 22.39-.1 36.31 0 38.89-.33a15.41 15.41 0 0 0 13.36-13.69c1.13-13.32.16-20.48 0-32.76z" opacity=".2"/><path d="M233.21 87.57c1.84-1.09 49-3.6 52.82 1.68 2.17 2.47 1.59 40.31 0 43.13-2.42 3.85-46.92 2.17-50.4 1.21-1.27-.35-2.2-2.11-3.22-3-2.41-1.98-2.24-41.79.8-43.02z" fill="#f78100" opacity=".85"/><path d="M284.13 88.55c-15.52-.21-40.36-2.1-46.7-.21-2.77.82-5.4 3.9-4.48 6.79a13.47 13.47 0 0 0-1.44 3.05c-.9 2.8 0 24.1 1.54 31 .8 3.62 5.81-1.74 5.21-4.48-2.66-12.16-1.64-7.46-1.73-14.34-.06-4.59-.74-13.65 3.43-15.26s15 0 20.77 0c13.16.1 7.66.15 20.82.33 2.92.03 5.81-6.83 2.58-6.88z" fill="#fff" opacity=".2"/><path d="M288.33 101.66c-.14-11.43.71-9.13-.78-12.15-1.21-2.45-4.68-3.15-7.17-3.5-5.43-.78-11.3-.14-16.83-.14-14.35 0-18 0-23.69.23-2 .08-6.31-.63-7.78 1.13-1.73 2.07-1.24 10.76-1.23 10.82-.54 10.65-.79 15.27-.52 22.08.14 3.51-.38 8.29 1.24 11.53 1.38 2.76 3.57 2.84 6.39 3.16 5.06.58 27.68.87 32 .71 4.16-.16 10.55.87 14.47-1 3.19-1.55 3.83-5.43 4.06-8.64.86-11.58-.02-12.66-.16-24.23zm-2 22.84c-.13 3.41-.5 7.37-4.56 8.33-2.55.61-39.51.16-42.69-.16-2.69-.26-4.68 0-5.82-3-.92-2.43-.54-5.57-.65-8.11-.49-10.68-1-12.55-.32-23.56v-.13c.25-2.53-.06-8.29 1.9-9.62 1.79-1.22 7.67-.33 10-.4 4.23-.13 19.89 0 23.56.08 3.23 0 6.49-.16 9.71 0 2.44.1 6.89.23 8.27 2.89.92 1.78.22 6.09.18 8-.24 9.79.55 21.7.4 25.68z" fill="#f78100"/><path d="M485.15 32.83c-.25-4.42-5.57.13-5.41 3 .35 6.31-.16 26.13-.19 29.77 0 2.85.24 9.77-2.58 11-1.72.74-69.44.49-82.94.66-2.92 0-5.77 6.9-2.58 6.86 26.85-.34 44.5 1 68.88-.84 4.84-.36 16.73-.13 20.6-3.62 5.77-5.18 4.73-37.46 4.22-46.83z" opacity=".2"/><path d="M383 26.53c4-1.53 94.32-2.53 95.5.3 1 1.26 1.94 46.42 1 47.9-1.66 2.7-6.25 2.08-9.33 2.19-3.68.13-84.71 2-87.42-.3-2.37-2.01-3.53-47.05.25-50.09z" fill="#f78100" opacity=".85"/><path d="M473.57 26.32c-13.25-.37-34.11 1.87-56.88 1.55-3.37-.05-20.45-2.24-24.83-.78-.12 0-.23-.09-.35-.12-8.26-1.85-8.18 12.79-8.57 17.4-.8 9.37-2.78 21.72 1.36 30.52 1.3 2.77 5.9-3 4.65-5.66-2.47-5.26-1.45-13.31-1.2-19 .13-3 1.12-14.47 1.14-14.69a6.57 6.57 0 0 0 3.24-2.72c3.35-.38 13.22 1.58 14.2 1.63 3.34.19 30.31.23 40.46.1 20.59-.27 10.48-1.8 24.2-1.42 2.91.13 5.82-6.73 2.58-6.81z" fill="#fff" opacity=".2"/><path d="M479.74 26.89c-1.39-2.66-5.27-2.45-7.89-2.53-28.3-.88-39.46 0-56.07 0h-16.46c-3.63.09-7.28.43-10.9.72-1.61.12-4-.06-5.46.74-4.55 2.46-2.6 11.75-2.61 15.58a.66.66 0 0 0 0 .15c-.21 8.26-.44 16.42-.22 24.68.07 2.9-.68 9.37 2.37 11.18s9.82 1 13.38 1c11.51 0 23 .14 34.55.13 33.45 0-18.21-.08 15.24-.16 2.9 0 12.09 0 15-.07 5.05-.13 11.07.74 16-.34 3.72-.81 3.86-4.82 4-8 .42-9-.16-17.85-.1-26.85.06-4.57 1.43-11.98-.83-16.23zM478.44 70c-.17 3.22-.16 5.48-3.8 5.85-2.7.27-5.53.1-8.24.15-3.82.07-7.63.17-11.46.17-30.18 0-33 .59-43.6.35-7.86-.18-15.74.32-23.6-.17-2.92-.18-4.67.16-5.42-3-.8-3.4-.51-7.3-.64-10.77-.14-4-.15-7.92-.07-11.92.06-3 .11-6 .19-9v-.15c.14-3.7-1-9.52 1.31-12.69 1.59-2.19 5.06-1.72 7.72-1.89 3.64-.23 7.25-.49 10.89-.5 3.12 0 34.24-.05 64.75.09 2.53 0 8.18-.66 10.24.58 3.6 2.16 1.58 14.12 1.63 17.72 0 3.41.3 6.84.45 10.25.26 4.93-.08 9.93-.35 14.93z" fill="#f78100"/><path d="M484.68 93c-.15-4.42-5.51.13-5.41 3 .41 11.49.41 33.28.1 34-1.51 3.7-7.14 3.51-10.36 3.73-15.9 1-58.72.87-75.42.57-2.92-.05-5.81 6.8-2.58 6.86 35.47.63 70.48.13 79.7-.94 17.88-.69 14.28-13.65 14.48-18.32.39-9.51.02-13.97-.51-28.9z" opacity=".2"/><path d="M382.25 87.09c2.93-1.28 95.15-1.79 96.79.33 1 1.25 1.39 43.1.48 44.58-1.67 2.7-16.65 2.36-20.33 2.48 0 0-75.1.18-76.12-.68-.27-.22-2.25-4-2.25-4s-.46-41.56 1.43-42.71z" fill="#f78100" opacity=".85"/><path d="M474.58 87.89c-14.26-1-54.22 1.14-69 .69-5.27-.17-12.16-2.39-17.26-.56-3.66 1.31-4.72 4.78-5.24 8.25a124 124 0 0 0-.64 33.15c.61 4.42 5.8-.11 5.41-3-2.07-15.24-.14-31.37.49-32.94 0 1-2.65 1.24 30.67.9 15.42-.15 37.61-.65 53 .37 2.9.19 5.85-6.65 2.57-6.86z" fill="#fff" opacity=".2"/><path d="M480.71 116c-.1-8.59 1-18.24-.13-26.71-.7-5.37-11.6-3.88-16.19-4-3.63-.09-7.26-.24-10.89-.28-14.81-.14 14.56.11-.24.17-22.44.08-3.95.17-26.38.26l-21.56.09h-4.17c-2.55 0-5.1-.07-7.66 0-3 .07-7.76-.42-10.67.59-4.54 1.56-3.09 8-3.06 10.57s-.23 11.69-.17 12.28.1 8.59.18 12.64-1.34 11.38 3.57 13.08c4.72 1.64 11 1.2 15.9 1.07 3.84-.09.18 0 37-.07h31.93c3.19 0 10 .46 12-2.88 1.37-2.36.6-6.42.69-9 .14-4-.01 3.24-.15-7.81zm-2 5.44c-.09 2.62.87 9.29-1.35 10.86-2 1.4-6.22 1-8.56 1.06-2.8.08-5.59 0-8.38 0h-17c-37.15.06-35 0-39.31.06a154.54 154.54 0 0 1-16.53-.25c-1.08-.1-3 0-4-.57-2.21-1.32-1.8-5.12-1.81-7.26 0-4.26-.23-1.17-.18-17.62 0-1.84.05-5.61.05-5.66.09-2.55-.13-5.13.08-7.67.07-1 .2-5.1 1-6 1.58-1.76 8.64-1 10.8-1 3 0 6 0 8.95.06 5.29 0 33.46-.32 51.34-.38 4 0 8 0 12.05.14 3.34.09 6.71 0 10 .27 2 .14 2-.25 2.58 1.74.44 1.44.2 3.47.2 5 .02 4.18.13 24.03.03 27.17z" fill="#f78100"/><path d="M192.34 93.12c-.06-4.4-5.45.15-5.41 3 .15 11.46.35 19.78.29 22.73-.08 3.75 1.15 10.11-2.29 12.38-4.81 3.17-72.21 2.46-89.36 2-2.92-.07-5.82 6.78-2.58 6.86 35.55.92 85.12-.3 90.72-2.07 11.83-3.75 8.74-13.49 8.92-22.19.16-7.74-.1-7.89-.29-22.71z" opacity=".2"/><path d="M82.54 95.56c.19-2.55 4.34-7.87 6.94-8.06 1.28-.36 94.46-1.88 96.82 1.59 2.35 6.91 1.46 37.35.54 38.83-1.66 2.7-4.28 5.1-7.36 5.2-3.68.13-87.88 1-88.9.17-5.34-1.58-7.51-8.1-7.61-11.29s-.62-23.89-.43-26.44z" fill="#f78100" opacity=".85"/><path d="M183.07 88.56c-30.25-1.28-64.45-.89-84.71-.43-4.67.11-15.86-2.66-15.07 12-.35 7.24-1.3 10.28.54 26.72.49 4.43 5.73-.11 5.4-3a189.12 189.12 0 0 1-.47-29.32c.46.46 3.21.54 3 .51 2.47.38 10.42-1.22 45.23-.64 14.48.24 29 .37 43.45 1 2.97.14 5.89-6.71 2.63-6.84z" fill="#fff" opacity=".2"/><path d="M188.45 101.36c0-3.54.86-9.15-1-12.32-2.33-4-12.49-2.61-16.09-2.77-1.61-.08-34.75 0-49.74 0-20.49.08-7.6.31-14.15.35s-14.58-1.56-20.61 1c-6.36 2.73-5 10-5 15.54v1.17c0 16-1.47 23.32 3.37 27.31 6 4.95 15.75 2.43 22.7 2.68 2.1.07 4.12.45 6.22.47 35.06.33 47.59-.15 52.27-.22s9.84.12 14.57-.64c7.41-1.19 7.45-6.76 7.67-13.07.28-7.6-.22-16.1-.21-19.5zm-2 17.93c-.06 1.81 0 3.75-.2 5.55-.59 4.39-2.59 6.66-6.94 7.07-4.08.4-8.3.39-12.4.46h-9.26c-34.31.06-42.19.44-45.25.25a69.18 69.18 0 0 0-10-.2c-5.15.4-13 .89-16.42-3.48s-2.32-12-2.4-17.35c-.09-5.61-.3-8.37-.3-8.37s-.9-12.81 6.15-14.22c4.42-.89 9.27-.37 13.75-.34h23.91c18.36 0 15.33-.27 32.09-.33 3.13 0 6.27-.09 9.4 0s6.25.29 9.37.44c4.44.2 7.7-.41 8.18 4.88.3 3.26.17 6.55.17 9.82.02 7.79.33 11.27.17 15.82z" fill="#f78100"/><path d="M192.94 149.53c-.56-4.42-5.77.11-5.4 3 .28 2.18.3 26.48-.65 31.27a20.65 20.65 0 0 1-4.75 3.18c-3.83 1.58-75.72 1.17-85.36 1-2.92 0-5.81 6.8-2.58 6.86 28.36.5 74.67-.76 82.12-1.44 3.51-.32 8.13-.2 11-2.59a16.83 16.83 0 0 0 4.53-6.9c1.36-4.78 1.41-31.91 1.09-34.38z" opacity=".2"/><path d="M82.55 150.43c.19-2.56 3.13-6.51 5.25-7.81 2.62-.54 88.89.28 92.49.45 1.55.08 5.91 3.68 6.91 4.94s.54 34.57-.37 36.05c-1.67 2.7-5.25 3.08-8.34 3.19-3.68.13-86.17 1.32-89.66.35-1.27-.35-6.25-7.27-6.35-10.47s-.12-24.13.07-26.7z" fill="#f78100" opacity=".85"/><path d="M183.47 143.21c-12.39-.75-56.15 1.46-65.69 1.47-17.57 0-9.64-.48-21.37-1.74-3.63-.39-7.28-1.68-10 1.34s-3.4 7.64-3.14 11.52c0 .55-.21 17.49.23 25.65.24 4.43 5.56-.12 5.41-3-.53-9.8-1-19.57.89-29.25.78.1 6.68.87 9 1.07 5.22.44 34 1.15 39.79 1.2 7 .06-14.49.14 4.38 0 12.69-.11 25.32-2.16 38-1.39 2.83.16 5.78-6.68 2.5-6.87z" fill="#fff" opacity=".2"/><path d="M188.94 165.52c-.07-4.94.31-9.91-.27-14.82-.42-3.54-.73-6.12-4.2-7.52-4.68-1.87-10.44-1.59-15.38-1.7-24.8-.53-15.21 0-40 0H110.8c-5.77 0-20.63-1.73-25.62 1.67-4.69 3.19-3.46 10.11-3.56 14.89a1.08 1.08 0 0 0 0 .19v9.68c0 4.44-.84 9.63.83 13.84 3 7.54 11.32 7.53 18.12 7.45 10.3-.12 63.82-.43 66.63-.48 7.56-.15 20.72 1.87 21.72-8.48.52-4.8.08-9.84.02-14.72zM186.78 179c-.87 6.79-4.6 7-10.13 7.2-3.07.12-13.34.33-15.39.34-27.53.12-42.74.64-56.15.8-4.62.06-10.37.91-14.61-.54-8.34-2.86-7.18-11.32-7.31-18.49q-.09-5-.14-10.07a.42.42 0 0 0 0-.12c.23-3.82-.75-9.91 2.43-12.81 2.72-2.5 8.16-1.83 11.55-1.83 2.2 0 4.4 0 6.6.06 3.09 0 34.38.08 61 .11 3.21 0 6.35.1 9.56.27 2.57.13 5.42-.05 7.89.79 4.21 1.44 4.27 4 4.58 7.93.35 4.57 0 9.22 0 13.81.09 4.08.63 8.49.12 12.55z" fill="#f78100"/><path d="M292.77 175.46c-.13-8.77-.46-17.51-.19-26.28.14-4.38-5.32.17-5.4 3-.23 7.39-.16 31.3-.87 33.66-1.85 3.67-39.78 1.45-45.91 1.38-2.92 0-5.8 6.82-2.58 6.86 16.61.2 30.16.77 38.48.17 3.68-.26 8.25-.27 11.33-2.62a20.71 20.71 0 0 0 3.25-4.7c1.84-3.69 1.95-7.39 1.89-11.47z" opacity=".2"/><path d="M287 180c-.19 2.55.36 5.26-1.77 6.56-2.13 2.18-49.77 2.71-52-.59-1-1.26-2.12-35.89 0-39.21 1.67-2.7 5.25-3.09 8.34-3.19 3.68-.13 40.86-.67 42.7.79 4.32 3.64 2.9 33.09 2.73 35.64z" fill="#f78100" opacity=".85"/><path d="M281.41 144.47c-6.85-.49-25.45 0-32.58.15-5.68.15-12.39-.35-14.52 6.22-.2.61-2.37 6.93-2.4 8.7-.14 8.28 1.59 17 2.41 25.21.44 4.43 5.69-.12 5.4-3-.44-4.49-1.57-20-2-22.9h.09a40.87 40.87 0 0 1 7-3.62 8.65 8.65 0 0 0 3.25-3.81c2.17 0 10.49-.94 12.53-1.06 6.26-.38 12 .58 18.23 1 2.91.18 5.88-6.66 2.59-6.89z" fill="#fff" opacity=".2"/><path d="M287.68 172.32a.53.53 0 0 0 0-.12c.2-4 .47-7.88.38-11.86s1.39-13.69-2.59-16.65c-2.74-2-8.61-1.58-11.78-1.72s-6.55.31-9.86.33c-15.64.13-21.4-.42-26.6.23-6.18.77-6.06 6.17-6.26 11.27-.22 5.61 0 10.87.2 16.42.19 4.66-1.44 10.74.23 15.18 1.46 3.88 7.82 3 11.15 3.14 3.65.17 7.28.38 10.93.38h12.78c6 0 12 .3 17.92-1 6.4-1.42 3.55-10.78 3.5-15.6zm-1.58 10.23c-.56 4.12-4.33 4-8 4.26-4.08.32-8.19.09-12.27.07-5.93 0-8.73.22-22.37-.42-2.38-.11-7.84.46-9.48-1.36s-.85-6.3-.79-8.65c.09-3.79 0-7.38-.25-11.16-.33-5.43-1.63-18.9 5.24-20.55 2.93-.71 6.8-.15 9.82-.25 1.67-.06-3.67 0 10.17 0 6.74 0 13.45-.72 20.17-.22 3.74.28 6.32.14 7.45 4.39.94 3.55.48 8 .62 11.65.16 3.95 0 7.87-.17 11.82a.47.47 0 0 0 0 .16c-.24 3.37.31 6.97-.14 10.26z" fill="#f78100"/><path d="M485.3 149.85c0-4.4-5.42.15-5.4 3 .07 9.65.14 19.32-.28 29 0 .19-3.21 4.32-4.12 4.51-3.07.63-73 .84-86.27.8-2.92 0-5.79 6.85-2.58 6.86 29.2.1 73.67 1 85.9-.62 5.51-.74 11.21-3.2 12.1-9.15 1.68-11.19.74-23.15.65-34.4z" opacity=".2"/><path d="M382.86 144.44c7.93-3.34 88.31-2.42 95.72.59 2.31 4.19.93 39.1 0 40.58-1.27 2-90.39 4.8-95.79-.61-4.21-3.28-3.42-37.64.07-40.56z" fill="#f78100" opacity=".85"/><path d="M475.79 146.31a23 23 0 0 0-11.57-1.64 2.87 2.87 0 0 0-1.76 1.05c-1.39-.09-40.23-1.63-65-1.3-4.81.06-9.66-.12-12.9 4.26-5 6.76-2.57 28-1.62 34.95.6 4.42 5.8-.11 5.41-3-.73-5.35-1-21.56-.72-24.27.09-1.06-.13-3.18.46-4.05s.58-.62 1.92-.9c2.79-.59 3.32 1.16 26.9 1.37 4.07 0 30.71-.91 36.95-.59s12.49 1 18.78.8c2.12-.08 6.12-5.45 3.15-6.68z" fill="#fff" opacity=".2"/><path d="M481.23 166.27c-.13-2.31-.57-4.45-.53-6.8.07-3.84 1.19-10.83-1.06-14.25s-9.73-2.75-13.16-2.9c-2.23-.1-4.46-.23-6.69-.25h-17.71c-16.13 0-15.33-.18-41.34.09-5.69.06-13.52-.52-18.76 2.14a.65.65 0 0 0-.33.37c-1.64 1.71-1.65 5.15-1.85 7.3-.41 4.35-.43 19.42-.33 22.57.09 3-.27 8.5 2 10.92s7.12 2.45 10.12 2.69c5 .38 20.26.84 23 .84 32.1 0 35.52-.51 44.64-.67 3.68-.06 7.36-.39 11-.39 2.24 0 4.95.63 7.07-.35 3.87-1.8 3.31-7.13 3.45-10.7s.69-7.13.48-10.61zm-2.31 2.73c-.13 2.91-.36 11.35-.64 12.54-.69 2.92-3 4.33-6 4.22-10-.34-26.43.37-36.48.43-31.33.17-40.47.39-45.11 0a21 21 0 0 1-5.11-.88c-3.84-1.37-3.94-4.18-4.23-7.8A189.21 189.21 0 0 1 381 157c.08-2.83-.54-9.19 1.7-11.4 3.36-1.55 7.83-1.05 11.43-1.29 2.22-.14 8.15-.24 8.9-.23 4.09 0 30.49-.2 56.82.13 1.89 0 12.45 0 15.35 1 3.82 1.35 3.3 5.39 3.35 8.82.11 4.91.6 10.04.37 14.97z" fill="#f78100"/><path d="M13.81 58.12c.32-.09.63-.2.95-.32z" fill="#fff"/></svg>