<svg xmlns="http://www.w3.org/2000/svg" viewBox="0 0 490 216"><path d="M486.83 32.68C487 28.81 506.08 14.13 353 22.26c-78.84-1.46-274.22.81-295.18-1C7 9 3.11 38.88 5.74 45.06c-.34.74-3.46 29.49.47 59.81.45 12.55 1.24 58.62-2.32 67.28-1.77 4.32-3.58 18.2 3.35 18.61 26.18 1.53 401.24 9.57 402.11.79l61.3 3.18c23.7.23 14.59-62.46 14-85.72-.65-23.78 3.01-75.07 2.18-76.33z" fill="#fff"/><path d="M486.47 172.42c0-8.51 0-17-.07-25.53q-.11-41.74-.19-83.49c0-8-.09-16 0-24 0-4.92 1.48-11.23-2-15.28a7.38 7.38 0 0 0-5.22-2.46c-4.69-.6-9.49-.64-14.21-.79-8.61-.28-117.1-.14-162.73-.13H129.62c-32.12 0-64.24.13-96.36.07h-4.05C22 20.8 7.76 18.6 5.91 28.24a.7.7 0 0 0 0 .25 109.14 109.14 0 0 0-.24 12c-.16 23.65-.2 47.31-.28 71-.08 23-.89 46.1-.17 69.07.09 2.7 0 6.86 1.77 9.16 2.14 2.86 7.19 2.72 10.39 3.17 4 .55 13.55.67 14.31.67 11.8-.05 23.59 0 35.38 0 41.17 0 301.41 0 390.36-.85 5.93-.06 12 0 17.91-.47 3.61-.3 8.32-.91 9.94-4.73 1.85-4.45 1.16-10.31 1.19-15.09zm-2.86 11.76c-1.77 5.58-5.38 5.58-9.87 5.81-13.56.71-92.11.54-117.77.59-41.69.09-222 .51-270.48.65-16.7 0-59.74.29-61.59.2-5-.22-14.75.17-16.26-5.78-.88-3.49-.52-7.42-.54-11-.1-37.73-.28-133.81.1-144.1 0-.62 0-1.23.11-1.85v-.06c1.79-8.73 18.26-6 24.88-6h15.57l51.54.06 313.61.08h46.23c4 0 8 .22 12 .42 6.59.31 12.5-.38 13 8.33.18 3-.2 6.2-.19 9.28.07 43.92.56 87.86.2 131.79.07.57-.22 10.56-.54 11.58z" fill="#1e1e1e"/><path d="M192.07 21.53c-1.41 18.2-.84 36.75-1 55q-.19 23.11-.15 46.23 0 29.83.54 59.69c.05 3 .23 7.42.29 9.73a1.28 1.28 0 0 0 2.55 0c-.92-35.27-.91-72.85-.74-108.83.1-20.54 1.3-41.3.44-61.82a1 1 0 0 0-2 0zM291.63 22.26c-1 18.21-.09 36.68-.09 54.93q0 23-.13 46.05-.17 29.65-.55 59.3c0 3 0 7.37-.06 9.64a1.28 1.28 0 0 0 2.55 0c.6-35.07.76-72.41.73-108.19 0-20.48.86-41.29-.5-61.73a1 1 0 0 0-1.95 0z" fill="#1e1e1e"/><path d="M483.29 81.76c-15.41-.37-30.83-.53-46.24-.66q-23.43-.19-46.86-.21-34.23 0-68.45.08-56 .15-111.92.39l-176.49.72L6 82.21a1.25 1.25 0 0 0 0 2.5q93-.31 185.93-.8 59.37-.25 118.73-.46 36.32-.12 72.62-.15 24.21 0 48.42.14c15.05.08 30.1.34 45.15.27h6.4a1 1 0 0 0 0-1.92zM484.86 136.36c-16.73.29-33.45.84-50.18 1.23q-24.54.56-49.09.76c-22.94.18-45.89.17-68.84.12q-55.33-.12-110.66-.48-86.37-.47-172.76-1L6 136.8a1.26 1.26 0 0 0 0 2.51q91.07.63 182.15 1.07 58.69.31 117.39.51c24.29.06 48.58.09 72.87-.08q25.21-.17 50.44-.71c16.28-.38 32.58-.72 48.84-1.49l7.13-.33a1 1 0 0 0 0-1.92z" fill="#1e1e1e"/><path d="M158.71 34.36c.21-4.36-5.27.18-5.41 3-.3 6.49 1.3 38.35-1 40.26-3.43 3-78.27 2.32-93.08.94-2.89-.27-5.89 6.55-2.58 6.86 14 1.3 58.45.38 72.66.32 7.41 0 19.52 1.73 25.27-3.06 8.43-5.88 3.75-40.1 4.14-48.32z" opacity=".2"/><path d="M153.53 73c-.19 2.55-.75 4.57-2.87 5.87-.53.32-90.84.16-94.44 0-1.56-.07-6.06.05-7-3.24-1-1.26-.41-44.49.51-46 1.66-2.7 5.75-3.09 8.83-3.19 3.68-.13 83.64-2 91.8.29 2.39 2 3.68 7.63 3.78 10.83s-.42 32.86-.61 35.44z" fill="#f78100" opacity=".85"/><path d="M149 27c-3.86-1.58-91.54-.28-93.61.57-4.13 1.69-4.78 5.8-5.16 9.77a361 361 0 0 0-1.53 39.3c.08 4.41 5.46-.14 5.41-3-.18-10.87.71-38.74 1.78-39.91s35.63-1.22 46.29-1.28c25.68-.14 24.38.73 27.34.69 4.77-.06 11.18-1.51 15.69.34 2.91 1.18 6.48-5.39 3.79-6.48z" fill="#fff" opacity=".2"/><path d="M154.2 65.15c.13-6.06.47-12.13.49-18.19 0-3.72-.07-16.15-1.07-18.23-1.52-3.19-5.78-3.19-8.87-3.51-10.59-1.09-30.73-.43-63.17-.36-3.81 0-19.2.18-23.07.42-3.44.22-8.34.27-9.74 3.94-2 5.23-1.21 12.44-1.25 17.93 0 4-.31 21.71.21 26.58.41 3.93 1.38 5.47 5.44 6 10.64 1.32 34.13.49 50.94.43 16.28-.07 37.26-.25 41.27-.44 1.78-.09 4.85.37 6.43-.56 4.05-2.38 2.41-10.28 2.42-13.83a.66.66 0 0 0-.03-.18zm-4.33 12.41c-2.32.9-6.53.34-9 .38-2.74 0-5.48 0-8.21-.06-3.2 0-44.12.43-56.85.38-1.32 0-9.9-.06-11.21-.12-3.39-.16-6.82-.17-10.2-.48-4.52-.42-4.6-3.21-4.71-7.25-.2-7.71.23-28.3.33-30.82.12-3.09-.74-9.4 2.5-11.06 4.43-2.28 12.23-1.28 17.08-1.36 2.64 0 46.83-.57 54.54-.33 4.13.12 8.22.07 12.36 0s12.06-.9 14.82 2.43c2 2.48 1.73 15.49 1.74 18.14 0 3.24-.24 15.09-.3 17.77a.66.66 0 0 0 0 .15c-.15 3.48 1.33 10.59-2.89 12.23z" fill="#f78100"/><path d="M275.07 59.93c.12-9-.9-17.88-.53-27 .18-4.36-5.29.18-5.41 3-.31 7.72 2.08 39.15-2 41-2.82 1.27-20.26.87-43.71.9-2.92 0-5.79 6.87-2.58 6.86 24.6 0 13.05.88 37.63-.37 5.24-.27 10.54-.26 13.73-5.1 3.53-5.31 2.8-13.22 2.87-19.29z" opacity=".2"/><path d="M216.45 27.58c3-2.45 48.44-3.14 51.49-.12 2.26 3.7 1.94 47 1 48.52-3.34 4.46-45.42 3.19-52.1.89-3.32-1.93-3.38-46.87-.39-49.29z" fill="#f78100" opacity=".85"/><path d="M267.72 28.27c-9.71-4.34-47.64-2.08-50.35.57-5 4.87-3.88 37-.94 45.26 1.54 4.35 7.37-2.17 6.25-5.37-2.63-7.43-2.49-15.07-2.22-22.84.07-2.24.17-4.48.16-6.72a40.57 40.57 0 0 1-.3-4.5c.23.17 16.88-.89 24.36-1 8.61-.12-.48-.15 8.13-.11 9.4 0 1.76-1.37 10.41 2.49 3.44 1.55 7.78-6.32 4.5-7.78z" fill="#fff" opacity=".2"/><path d="M270.48 35.91c-.24-3.53.23-9-3.88-10-4.94-1.26-10.78-.78-15.86-.85a32.23 32.23 0 0 0-3.26 0c-9.76 0-1.82-.05-11.58 0-4.89 0-9.79.41-14.66.87-1.32.13-3.58 0-4.79.67-2.53 1.48-2 4.92-2 7.35a.5.5 0 0 0 0 .13c-.68 9.85-.44 19.8-.78 29.66-.12 3.58-.82 12.34 2.89 14.44 1.82 1 5 .87 7 1 3 .2 5.94 0 8.91.16 3.2.13 9.71.14 16-.11 5.7-.22 11.42-.1 17.11-.37 5-.24 5.08-3.71 5.12-8.1.09-11.58.56-23.29-.22-34.85zm-1.69 23.82c-.13 3.42-.34 6.84-.38 10.25 0 3.18.56 6-3.33 6.62-5.19.75-10 0-25.08.09-4.72 0-9.39.58-14.12.38-2.31-.1-7.36.38-8.85-1.41-2.21-2.63-1.52-9.66-1.45-12.88.19-9.55-.23-19.16.26-28.7a.42.42 0 0 0 0-.15c.11-1.55.13-4.94 1.58-5.75a8.29 8.29 0 0 1 2.42-.27c2.78-.26 13.84-.88 16.59-.88 7.58 0 15.54.12 17.57.17 2.67.07 5.35.12 8 .29 3.25.22 5.07-.14 5.73 3.26 1.08 5.52.37 11.14.65 16.7.27 4.11.62 8.18.41 12.28z" fill="#f78100"/><path d="M275.27 94c-.06-4.41-5.44.14-5.41 3 .3 23.34.4 29.83.05 31.84-.41 2.38-6.46 5.83-5.77 5.78-2.67.39-29.13-.24-38.54-.2-2.92 0-5.78 6.38-2.58 6.37 22.39-.1 36.32 0 38.89-.33a15.43 15.43 0 0 0 13.36-13.7c1.14-13.31.16-20.44 0-32.76z" opacity=".2"/><path d="M216.06 88.06c1.85-1.09 49.06-3.6 52.82 1.67 2.17 2.47 1.59 40.32 0 43.14-2.41 3.85-46.91 2.17-50.4 1.2-1.27-.35-2.2-2.11-3.22-3-2.37-1.98-2.26-41.78.8-43.01z" fill="#f78100" opacity=".85"/><path d="M267 89c-15.52-.21-40.36-2.11-46.7-.22-2.77.83-5.4 3.9-4.48 6.79a14.13 14.13 0 0 0-1.44 3c-.9 2.8 0 24.11 1.55 31 .79 3.63 5.8-1.74 5.2-4.47-2.66-12.17-1.63-7.46-1.73-14.34-.06-4.6-.74-13.65 3.44-15.27s15 0 20.76 0c13.17.1 7.66.15 20.82.33 2.9.12 5.79-6.74 2.58-6.82z" fill="#fff" opacity=".2"/><path d="M271.18 102.14c-.18-11.42.71-9.14-.78-12.14-1.21-2.45-4.67-3.14-7.16-3.5-5.44-.78-11.31-.14-16.84-.14-14.34 0-18 0-23.68.24-2 .07-6.32-.63-7.78 1.12-1.73 2.08-1.24 10.77-1.24 10.82-.54 10.65-.78 15.28-.52 22.08.14 3.52-.38 8.29 1.24 11.53 1.38 2.76 3.58 2.84 6.39 3.16 5.07.58 27.68.87 32 .71 4.16-.15 10.55.87 14.48-1 3.18-1.55 3.82-5.43 4.05-8.64.87-11.58-.01-12.67-.16-24.24zm-2 22.84c-.13 3.42-.49 7.38-4.55 8.34-2.56.6-39.52.15-42.7-.16-2.68-.27-4.68 0-5.82-3-.92-2.42-.53-5.56-.65-8.11-.48-10.67-1-12.55-.32-23.56a.5.5 0 0 0 0-.13c.26-2.53-.06-8.28 1.9-9.62 1.8-1.22 7.67-.33 10-.4 4.23-.12 19.89 0 23.56.09 3.24 0 6.49-.16 9.72 0 2.43.09 6.88.22 8.26 2.89.92 1.78.22 6.08.18 8-.23 9.78.55 21.68.4 25.68z" fill="#f78100"/><path d="M442.38 33.32c-.24-4.43-5.56.12-5.41 3 .35 6.32-.16 26.14-.19 29.78 0 2.84.24 9.77-2.58 11-1.72.75-69.44.49-82.93.67-2.92 0-5.77 6.9-2.58 6.86 26.84-.34 44.49 1 68.87-.84 4.84-.36 16.73-.14 20.61-3.62 5.76-5.17 4.72-37.49 4.21-46.85z" opacity=".2"/><path d="M340.25 27c3.95-1.55 94.31-2.57 95.48.3 1 1.26 1.94 46.42 1 47.9-1.67 2.7-6.25 2.09-9.34 2.2-3.68.12-84.7 2-87.42-.3-2.35-2.01-3.51-47.04.28-50.1z" fill="#f78100" opacity=".85"/><path d="M430.8 26.8c-13.25-.37-34.1 1.88-56.88 1.55-3.37-.05-20.45-2.23-24.83-.78a2.89 2.89 0 0 0-.35-.11c-8.26-1.86-8.18 12.79-8.57 17.39-.79 9.38-2.78 21.72 1.36 30.53 1.3 2.76 5.9-3 4.65-5.67-2.47-5.25-1.45-13.3-1.2-18.95.13-3 1.12-14.46 1.14-14.69a6.59 6.59 0 0 0 3.25-2.72c3.34-.38 13.21 1.58 14.2 1.64 3.33.19 30.31.22 40.45.09 20.6-.27 10.49-1.8 24.2-1.42 2.92.08 5.78-6.77 2.58-6.86z" fill="#fff" opacity=".2"/><path d="M437 27.38c-1.4-2.66-5.28-2.45-7.9-2.53-28.3-.89-39.46 0-56.07 0h-16.45c-3.64.1-7.28.43-10.91.72-1.6.13-4-.05-5.45.74-4.55 2.46-2.6 11.76-2.61 15.59a.7.7 0 0 0 0 .14c-.22 8.26-.45 16.42-.23 24.69.08 2.9-.67 9.37 2.38 11.17s9.82 1 13.38 1c11.51 0 23 .15 34.55.14 33.45 0-18.22-.09 15.23-.17 2.9 0 12.1 0 15-.07 5-.12 11.06.75 16-.33 3.73-.82 3.86-4.82 4-8.06.42-9-.16-17.84-.11-26.85.05-4.56 1.4-11.93-.81-16.18zm-1.3 43.1c-.18 3.22-.16 5.48-3.81 5.85-2.69.27-5.52.11-8.23.16-3.82.06-7.64.16-11.46.17-30.19 0-33 .59-43.61.34-7.85-.18-15.73.32-23.6-.16-2.92-.18-4.67.16-5.42-3.06-.79-3.4-.51-7.29-.63-10.76-.15-4-.16-7.93-.08-11.92.07-3 .12-6 .19-9a.42.42 0 0 0 0-.15c.14-3.71-1-9.53 1.31-12.7 1.59-2.19 5.06-1.72 7.73-1.88 3.63-.23 7.25-.5 10.89-.5 3.12 0 34.23-.06 64.75.08 2.52 0 8.18-.65 10.24.58 3.59 2.16 1.57 14.12 1.62 17.72.05 3.42.3 6.84.45 10.25.24 4.98-.1 10.02-.36 14.98z" fill="#f78100"/><path d="M441.92 93.47c-.16-4.42-5.51.13-5.41 3 .41 11.49.41 33.29.1 34.05-1.52 3.7-7.14 3.51-10.37 3.72-15.9 1-58.72.87-75.42.57-2.92-.05-5.81 6.81-2.58 6.86 35.47.64 70.49.13 79.71-.94 17.87-.68 14.28-13.65 14.47-18.32.4-9.53.03-14-.5-28.94z" opacity=".2"/><path d="M339.49 87.57c2.92-1.27 95.14-1.78 96.79.33 1 1.26 1.39 43.1.48 44.58-1.67 2.7-16.66 2.36-20.33 2.49 0 0-75.1.17-76.12-.68-.27-.23-2.26-4-2.26-4s-.45-41.56 1.44-42.72z" fill="#f78100" opacity=".85"/><path d="M431.81 88.37c-14.26-.94-54.22 1.14-69 .69-5.26-.16-12.15-2.38-17.26-.55-3.65 1.31-4.71 4.77-5.24 8.25a123.88 123.88 0 0 0-.63 33.15c.6 4.42 5.8-.12 5.41-3-2.08-15.24-.14-31.37.48-32.93 0 1-2.65 1.23 30.68.9 15.42-.16 37.6-.66 53 .36 2.89.18 5.85-6.65 2.56-6.87z" fill="#fff" opacity=".2"/><path d="M438 116.43c-.11-8.58 1-18.24-.13-26.7-.7-5.37-11.6-3.88-16.19-4-3.63-.08-7.27-.24-10.9-.28-14.81-.14 14.57.12-.24.17-22.43.08-3.94.17-26.38.27l-21.61.11h-4.16c-2.56 0-5.11-.07-7.67 0-3 .06-7.76-.42-10.66.58-4.55 1.57-3.1 8-3.06 10.58s-.23 11.68-.17 12.27.09 8.59.18 12.64-1.34 11.38 3.56 13.09c4.73 1.64 11 1.19 15.9 1.07 3.84-.1.18 0 37-.08H425.41c3.19 0 10 .46 12-2.89 1.37-2.36.6-6.41.69-9 .12-3.97-.02 3.28-.1-7.83zm-2.05 5.44c-.08 2.62.87 9.3-1.35 10.86-2 1.4-6.22 1-8.56 1.06-2.79.08-5.58 0-8.37 0h-17c-37.15.06-35 0-39.3.06a154.72 154.72 0 0 1-16.54-.25c-1.07-.11-3 0-4-.57-2.21-1.33-1.8-5.13-1.8-7.27 0-4.26-.24-1.17-.19-17.61 0-1.84.05-5.61.05-5.67.09-2.55-.13-5.12.08-7.67.08-1 .2-5.1 1-6 1.58-1.76 8.65-1 10.8-1 3-.05 6 0 9 0 5.29 0 33.46-.32 51.34-.37 4 0 8 0 12.05.14 3.33.09 6.7 0 10 .26 2 .14 2-.24 2.59 1.75.44 1.43.19 3.47.2 5-.05 4.3.05 24.14-.05 27.28z" fill="#f78100"/><path d="M158.24 93.61c-.06-4.41-5.44.14-5.41 3 .16 11.46.36 19.78.3 22.73-.08 3.75 1.15 10.11-2.29 12.38-4.82 3.17-72.22 2.46-89.36 2-2.92-.08-5.82 6.78-2.58 6.86 35.54.91 85.12-.3 90.72-2.08 11.83-3.74 8.73-13.49 8.91-22.18.17-7.74-.09-7.89-.29-22.71z" opacity=".2"/><path d="M48.45 96c.19-2.55 4.34-7.86 6.94-8.06 1.27-.36 94.46-1.88 96.81 1.59 2.35 6.91 1.46 37.36.55 38.84-1.67 2.7-4.28 5.09-7.37 5.2-3.68.13-87.88 1-88.9.17-5.34-1.59-7.5-8.1-7.6-11.3s-.63-23.85-.43-26.44z" fill="#f78100" opacity=".85"/><path d="M149 89c-30.24-1.27-64.45-.88-84.7-.43-4.67.11-15.87-2.65-15.07 12-.35 7.25-1.3 10.28.53 26.72.5 4.43 5.73-.11 5.41-3a189.76 189.76 0 0 1-.48-29.32c.46.46 3.22.54 3.06.51 2.47.38 10.42-1.21 45.22-.63 14.48.24 29 .36 43.45 1 2.89.15 5.81-6.67 2.58-6.85z" fill="#fff" opacity=".2"/><path d="M154.36 101.85c0-3.55.86-9.15-1-12.33-2.32-4-12.49-2.61-16.08-2.77-1.61-.07-34.76 0-49.75.06-20.48.08-7.6.31-14.15.34s-14.57-1.56-20.6 1c-6.36 2.73-5 10-5 15.54v1.16c0 16.06-1.48 23.32 3.36 27.31 6 4.95 15.75 2.43 22.7 2.68 2.11.08 4.13.45 6.23.47 35.06.34 47.59-.15 52.26-.21s9.85.11 14.57-.64c7.42-1.19 7.45-6.77 7.67-13.07.27-7.65-.23-16.14-.21-19.54zm-2 17.92c-.07 1.82 0 3.75-.21 5.56-.59 4.38-2.58 6.65-6.93 7.07-4.08.39-8.3.38-12.4.45-3.09.05-6.18 0-9.27 0-34.31 0-42.18.44-45.24.24a67.81 67.81 0 0 0-10-.19c-5.16.4-13 .88-16.43-3.49s-2.31-12-2.39-17.35c-.09-5.6-.3-8.36-.3-8.36s-.94-12.82 6.1-14.25c4.43-.9 9.27-.38 13.76-.35h23.91c18.36 0 15.33-.27 32.09-.32 3.13 0 6.27-.09 9.4 0s6.25.29 9.37.43c4.43.21 7.7-.4 8.18 4.88.29 3.27.16 6.56.17 9.83.05 7.82.37 11.31.21 15.85z" fill="#f78100"/><path d="M158.85 150c-.57-4.42-5.78.12-5.41 3 .28 2.19.31 26.49-.65 31.28a20.4 20.4 0 0 1-4.75 3.17c-3.83 1.59-75.71 1.17-85.35 1-2.92-.05-5.81 6.81-2.58 6.86 28.36.51 74.66-.76 82.12-1.44 3.51-.32 8.13-.19 11-2.59a16.57 16.57 0 0 0 4.53-6.9c1.35-4.77 1.4-31.93 1.09-34.38z" opacity=".2"/><path d="M48.45 150.91c.19-2.55 3.13-6.5 5.26-7.8 2.62-.55 88.88.28 92.48.45 1.56.07 5.91 3.68 6.92 4.94s.54 34.56-.38 36c-1.66 2.7-5.25 3.09-8.33 3.19-3.68.13-86.18 1.33-89.66.36-1.27-.35-6.25-7.28-6.35-10.48s-.13-24.11.06-26.66z" fill="#f78100" opacity=".85"/><path d="M149.37 143.69c-12.38-.75-56.15 1.47-65.69 1.48-17.57 0-9.64-.49-21.36-1.75-3.63-.39-7.29-1.67-10 1.35s-3.41 7.63-3.14 11.52c0 .55-.21 17.49.22 25.65.24 4.42 5.57-.13 5.41-3-.53-9.8-1-19.56.89-29.24.78.1 6.68.87 9 1.06 5.22.44 34 1.16 39.8 1.21 7 0-14.49.13 4.38 0 12.68-.1 25.31-2.16 38-1.39 2.82.15 5.77-6.69 2.49-6.89z" fill="#fff" opacity=".2"/><path d="M154.85 166c-.07-4.94.31-9.91-.27-14.82-.42-3.53-.73-6.12-4.21-7.51-4.67-1.88-10.44-1.6-15.37-1.7-24.81-.54-15.21 0-40 0H76.71c-5.77 0-20.63-1.74-25.63 1.66-4.69 3.19-3.45 10.11-3.56 14.9a.65.65 0 0 0 0 .19v9.68c0 4.44-.84 9.62.84 13.83 3 7.54 11.31 7.53 18.11 7.45 10.31-.11 63.82-.43 66.64-.48 7.56-.14 20.71 1.88 21.71-8.47.52-4.8.1-9.84.03-14.73zm-2.17 13.46c-.86 6.8-4.59 7-10.12 7.2-3.08.12-13.35.34-15.4.35-27.53.12-42.74.63-56.15.79-4.61.06-10.36.91-14.61-.54-8.34-2.86-7.18-11.31-7.3-18.48-.1-3.36-.1-6.72-.1-10.08v-.11c.22-3.82-.75-9.92 2.42-12.82 2.73-2.49 8.16-1.82 11.56-1.83 2.19 0 4.39.06 6.59.07 3.09 0 34.38.08 61 .1 3.2 0 6.34.1 9.55.27 2.58.13 5.43 0 7.89.8 4.22 1.43 4.28 4 4.58 7.92.36 4.58 0 9.22 0 13.82.07 4.08.61 8.5.09 12.54z" fill="#f78100"/><path d="M275.62 175.94c-.13-8.77-.46-17.5-.18-26.28.13-4.37-5.32.17-5.41 3-.23 7.39-.15 31.31-.87 33.66-1.85 3.68-39.78 1.45-45.91 1.38-2.92 0-5.8 6.82-2.58 6.86 16.62.2 30.16.78 38.49.18 3.67-.27 8.24-.28 11.33-2.63a20.75 20.75 0 0 0 3.25-4.69c1.83-3.7 1.94-7.42 1.88-11.48z" opacity=".2"/><path d="M269.83 180.48c-.19 2.56.36 5.26-1.77 6.56-2.13 2.18-49.76 2.72-52-.59-1-1.26-2.12-35.88 0-39.21 1.66-2.7 5.25-3.08 8.33-3.19 3.68-.13 40.87-.67 42.71.8 4.34 3.65 2.9 33.08 2.73 35.63z" fill="#f78100" opacity=".85"/><path d="M264.26 145c-6.84-.48-25.45 0-32.58.15-5.68.15-12.39-.35-14.52 6.23-.19.6-2.36 6.92-2.39 8.69-.14 8.29 1.58 17 2.4 25.21.44 4.43 5.69-.11 5.41-3-.45-4.49-1.57-20-2-22.9h.08a40.92 40.92 0 0 1 7-3.63 8.72 8.72 0 0 0 3.26-3.81c2.17 0 10.49-.93 12.53-1.06 6.26-.37 12 .59 18.22 1 2.92.12 5.88-6.69 2.59-6.88z" fill="#fff" opacity=".2"/><path d="M270.53 172.81v-.13c.19-4 .46-7.88.37-11.86s1.4-13.68-2.59-16.65c-2.73-2-8.6-1.58-11.77-1.72s-6.56.31-9.87.34c-15.64.12-21.39-.43-26.59.22-6.18.77-6.07 6.18-6.27 11.27-.22 5.61 0 10.87.21 16.43.18 4.65-1.44 10.74.23 15.18 1.46 3.88 7.81 3 11.15 3.14 3.64.16 7.28.37 10.92.37h12.79c6 0 12 .3 17.91-1 6.41-1.4 3.56-10.77 3.51-15.59zM269 183c-.56 4.12-4.33 4-8 4.27-4.07.31-8.19.09-12.27.07-5.93 0-8.73.22-22.37-.42-2.38-.12-7.84.45-9.48-1.36s-.85-6.3-.79-8.66c.1-3.79 0-7.38-.25-11.15-.32-5.44-1.63-18.9 5.24-20.56 2.93-.7 6.8-.15 9.82-.25 1.68-.06-3.66 0 10.18 0 6.73 0 13.45-.73 20.16-.23 3.74.29 6.32.15 7.45 4.39.95 3.55.48 8 .62 11.65.16 4 0 7.87-.17 11.83a.75.75 0 0 0 0 .16c-.26 3.4.26 7-.14 10.26z" fill="#f78100"/><path d="M442.54 150.34c0-4.41-5.43.14-5.41 3 .08 9.64.14 19.32-.28 29 0 .19-3.21 4.31-4.12 4.5-3.06.64-73 .85-86.27.8-2.92 0-5.79 6.85-2.58 6.86 29.2.1 73.67 1 85.91-.62 5.51-.74 11.2-3.2 12.1-9.15 1.67-11.18.74-23.14.65-34.39z" opacity=".2"/><path d="M340.09 144.92c7.93-3.33 88.32-2.42 95.72.59 2.31 4.19.94 39.1 0 40.58-1.28 2-90.4 4.81-95.8-.6-4.2-3.29-3.4-37.65.08-40.57z" fill="#f78100" opacity=".85"/><path d="M433 146.8a22.89 22.89 0 0 0-11.56-1.65 2.91 2.91 0 0 0-1.77 1.06c-1.38-.1-40.23-1.64-65-1.31-4.8.06-9.65-.12-12.89 4.27-5 6.76-2.57 28-1.62 35 .6 4.42 5.8-.12 5.4-3-.73-5.36-.95-21.57-.71-24.28.09-1.05-.14-3.18.45-4.05s.58-.62 1.93-.9c2.79-.59 3.31 1.16 26.9 1.37 4.07 0 30.71-.9 36.94-.59s12.49 1 18.79.81C432 153.4 436 148 433 146.8z" fill="#fff" opacity=".2"/><path d="M438.47 166.75c-.14-2.31-.58-4.45-.54-6.8.08-3.83 1.19-10.83-1.06-14.25s-9.72-2.74-13.16-2.9c-2.23-.1-4.46-.23-6.69-.25h-17.71c-16.13 0-15.32-.19-41.34.08-5.69.06-13.52-.51-18.75 2.14a.63.63 0 0 0-.33.38c-1.65 1.7-1.65 5.14-1.86 7.3-.41 4.34-.42 19.41-.32 22.57.09 3-.28 8.49 2 10.92 2.16 2.27 7.13 2.45 10.13 2.68 5 .39 20.26.84 23 .84 32.09 0 35.51-.51 44.63-.67 3.68-.06 7.37-.38 11.05-.38 2.24 0 4.95.63 7.06-.36 3.87-1.8 3.32-7.13 3.45-10.7s.64-7.12.44-10.6zm-2.31 2.69c-.13 2.91-.37 11.36-.65 12.54-.68 2.92-3 4.33-6 4.23-10-.35-26.44.37-36.48.42-31.34.17-40.48.4-45.12 0a20.57 20.57 0 0 1-5.11-.88c-3.83-1.36-3.94-4.17-4.23-7.79a191.83 191.83 0 0 1-.32-20.49c.08-2.83-.54-9.2 1.69-11.41 3.35-1.55 7.82-1.05 11.43-1.28 2.22-.15 8.15-.24 8.89-.24 4.1 0 30.49-.19 56.83.14 1.88 0 12.45 0 15.35 1 3.81 1.36 3.3 5.4 3.35 8.83.11 4.92.59 10.05.37 14.93z" fill="#f78100"/><path d="M13.81 58.47c.32-.08.63-.2.95-.31z" fill="#fff"/></svg>