<svg xmlns="http://www.w3.org/2000/svg" viewBox="0 0 490 216"><path d="M486.4 31.51c.15-3.86 19.25-18.55-133.82-10.42-78.84-1.45-274.22.81-295.18-1C6.57 7.88 2.68 37.71 5.31 43.89c-.34.74-3.47 29.5.47 59.82C6.23 116.25 7 162.32 3.46 171c-1.77 4.32-3.59 18.21 3.35 18.61 26.18 1.53 401.23 9.58 402.1.79l61.3 3.18c23.71.24 14.6-62.45 14-85.72-.67-23.8 3.02-75.08 2.19-76.35z" fill="#fff"/><path d="M486 171.25c0-8.5-.05-17-.07-25.52q-.11-41.74-.19-83.5c0-8-.1-16 0-24 0-4.93 1.47-11.23-2-15.28a7.35 7.35 0 0 0-5.22-2.47c-4.69-.59-9.5-.63-14.22-.79-8.6-.27-117.09-.13-162.72-.13H129.15c-32.12 0-64.24.14-96.36.08h-4.05c-7.12 0-21.36-2.23-23.22 7.42a1.92 1.92 0 0 0 0 .24 111.78 111.78 0 0 0-.24 12C5.07 63 5 86.63 5 110.28c-.07 23-.88 46.1-.16 69.07.08 2.71 0 6.86 1.76 9.17 2.15 2.85 7.2 2.71 10.4 3.16 4 .56 13.55.68 14.31.67h35.38c41.16 0 301.41 0 390.35-.85 5.94-.05 12 0 17.91-.47 3.62-.3 8.33-.91 10-4.73 1.75-4.4 1.05-10.3 1.05-15.05zM483.18 183c-1.77 5.59-5.39 5.58-9.87 5.82-13.56.7-92.11.53-117.78.58-41.68.09-222 .52-270.48.65-16.69 0-59.73.29-61.58.21-5-.23-14.75.16-16.26-5.79-.88-3.49-.53-7.42-.54-11-.13-37.73-.28-133.82.1-144.1 0-.62.05-1.24.1-1.86v-.06c1.79-8.73 18.26-6 24.88-5.95h15.59q25.77 0 51.54.06l313.62.08h46.23c4 0 8 .22 12 .41 6.59.32 12.5-.38 13 8.33.18 3-.2 6.2-.2 9.28.08 43.92.57 87.87.21 131.79.05.55-.24 10.55-.56 11.55z" fill="#1e1e1e"/><path d="M191.64 20.36c-1.41 18.2-.84 36.75-1 55q-.18 23.11-.14 46.23 0 29.85.54 59.69c0 3 .23 7.42.29 9.74a1.28 1.28 0 0 0 2.55 0c-.93-35.27-.91-72.86-.74-108.84.1-20.54 1.29-41.3.44-61.82a1 1 0 0 0-2 0zM291.2 21.09c-1 18.22-.09 36.69-.1 54.93q0 23-.12 46.06-.17 29.64-.55 59.29c-.05 3 0 7.37-.06 9.65a1.28 1.28 0 0 0 2.55 0c.6-35.07.75-72.42.73-108.2 0-20.48.85-41.29-.5-61.73a1 1 0 0 0-1.95 0z" fill="#1e1e1e"/><path d="M482.85 80.59c-15.41-.37-30.82-.52-46.23-.65q-23.43-.21-46.86-.21-34.23 0-68.46.08-55.95.14-111.91.38l-176.5.72L5.6 81a1.25 1.25 0 0 0 0 2.5q93-.3 185.94-.8 59.37-.24 118.73-.46 36.3-.12 72.62-.14 24.19 0 48.41.13c15.05.08 30.11.34 45.16.27h6.39a1 1 0 0 0 0-1.93zM484.43 135.19c-16.73.29-33.45.85-50.18 1.23q-24.54.57-49.09.76c-23 .18-45.9.17-68.85.12q-55.32-.11-110.65-.47-86.38-.48-172.76-1l-27.3-.15a1.25 1.25 0 0 0 0 2.5q91.08.65 182.15 1.07 58.69.31 117.39.52c24.3.05 48.59.08 72.88-.08 16.81-.11 33.62-.32 50.43-.72 16.28-.38 32.58-.72 48.85-1.49l7.13-.33a1 1 0 0 0 0-1.92z" fill="#1e1e1e"/><path d="M192.74 33.19c.21-4.35-5.27.19-5.4 3-.31 6.49 1.29 38.36-1 40.26-3.42 3-151.53 2.32-166.34.94-2.9-.27-5.89 6.56-2.58 6.86 14 1.3 131.71.39 145.92.32 7.42 0 19.52 1.73 25.28-3.06 8.38-5.87 3.73-40.09 4.12-48.32z" opacity=".2"/><path d="M187.56 71.8c-.19 2.56-.74 4.58-2.87 5.87-.52.33-164.1.16-167.7 0-1.56-.08-6.06 0-7-3.25-1-1.26-.41-44.49.51-46 1.66-2.7 5.75-3.08 8.83-3.19 3.68-.13 156.91-2 165.06.3 2.4 2 3.69 7.62 3.79 10.82s-.43 32.9-.62 35.45z" fill="#f78100" opacity=".85"/><path d="M183 25.81c-3.86-1.58-164.8-.28-166.87.56-4.13 1.69-4.79 5.8-5.13 9.78a360.86 360.86 0 0 0-1.53 39.32c.08 4.41 5.46-.14 5.41-3-.18-10.87.71-38.74 1.78-39.91S52.29 31.33 63 31.27c25.68-.14 97.64.73 100.61.69 4.77-.05 11.17-1.5 15.68.34 2.86 1.2 6.43-5.37 3.71-6.49z" fill="#fff" opacity=".2"/><path d="M188.23 64c.14-6.06.47-12.13.49-18.19 0-3.72-.07-16.14-1.06-18.23-1.53-3.18-5.79-3.18-8.88-3.5-10.59-1.1-104-.44-136.43-.36-3.81 0-19.2.17-23.07.42-3.44.21-8.34.26-9.74 3.93C7.55 33.29 8.33 40.49 8.29 46c0 3.95-.31 21.7.21 26.58.41 3.92 1.38 5.47 5.44 6 10.64 1.32 72.93.49 89.73.42 16.29-.06 71.74-.25 75.74-.44 1.79-.08 4.86.37 6.44-.55 4-2.38 2.4-10.28 2.41-13.84a.66.66 0 0 0-.03-.17zm-4.33 12.39c-2.32.91-6.53.35-9 .38-2.74 0-5.48 0-8.22-.06-3.19 0-111.08.6-137.39.39-1.29-.01-2.59-.1-3.9-.1-3.39-.16-6.82-.16-10.2-.48-4.52-.42-4.6-3.21-4.71-7.24-.2-7.71.23-28.31.33-30.83.12-3.09-.74-9.4 2.5-11.06 4.43-2.27 12.23-1.28 17.08-1.36C33 26 105 25.87 135 25.79c7.71 0 15.48-.35 23.19-.12 4.13.12 8.23.08 12.37 0s12.05-.91 14.82 2.43c2.05 2.47 1.72 15.48 1.73 18.14 0 3.24-.24 15.08-.3 17.76a.66.66 0 0 0 0 .15c-.17 3.49 1.31 10.6-2.91 12.24z" fill="#f78100"/><path d="M293.31 58.76c.12-9-.9-17.88-.54-26.95.18-4.37-5.29.18-5.4 3-.31 7.73 2.07 39.15-2 41-2.81 1.27-56.63.87-80.08.9-2.92 0-5.79 6.87-2.58 6.87 24.6 0 49.42.87 74-.38 5.25-.27 10.55-.26 13.74-5.1 3.55-5.36 2.78-13.29 2.86-19.34z" opacity=".2"/><path d="M198.31 26.41c3-2.45 84.81-3.14 87.87-.12 2.25 3.71 1.93 47 1 48.52-3.34 4.47-81.8 3.19-88.48.9-3.32-1.93-3.38-46.85-.39-49.3z" fill="#f78100" opacity=".85"/><path d="M286 27.1c-9.72-4.34-84-2.07-86.73.58-5 4.86-3.88 36.95-.94 45.25 1.53 4.35 7.37-2.17 6.24-5.36-2.62-7.44-2.48-15.07-2.21-22.85.07-2.24.16-4.48.16-6.72a40.4 40.4 0 0 1-.3-4.5c.23.17 16.88-.89 24.36-1q12.92-.16 25.84-.11c9.39 0 20.43-1.37 29.08 2.5 3.39 1.54 7.73-6.33 4.5-7.79z" fill="#fff" opacity=".2"/><path d="M288.72 34.74c-.24-3.53.22-9-3.88-10-4.95-1.25-10.79-.77-15.86-.85-7.31-.11-14.63 0-21.93 0h-29.29c-4.9 0-9.79.41-14.66.87-1.32.12-3.58-.05-4.79.66-2.53 1.49-2 4.92-2.05 7.35a.7.7 0 0 0 0 .14c-.68 9.85-.44 19.79-.78 29.66-.12 3.58-.82 12.33 2.89 14.43 1.82 1 5 .87 7 1a71.59 71.59 0 0 0 8.91.16c17.45-.91 34.94.53 52.38-.1 5.7-.21 11.41-.11 17.11-.38 5-.24 5.08-3.71 5.12-8.1.11-11.58.6-23.28-.17-34.84zM287 58.57c-.13 3.41-.33 6.83-.37 10.24 0 3.19.56 6-3.33 6.62-5.19.75-46.34 0-61.46.09-4.72 0-9.39.58-14.12.38-2.31-.1-7.36.38-8.85-1.41-2.21-2.63-1.52-9.66-1.45-12.87.19-9.56-.23-19.17.26-28.71a.37.37 0 0 0 0-.15c.11-1.55.13-4.94 1.58-5.75a8.29 8.29 0 0 1 2.42-.26c2.78-.27 13.84-.89 16.58-.88 7.59 0 51.93.11 54 .17 2.67.06 5.34.11 8 .29 3.26.21 5.07-.15 5.74 3.25 1.08 5.53.37 11.14.65 16.71.24 4.1.53 8.17.35 12.28z" fill="#f78100"/><path d="M293.5 92.87c-.05-4.41-5.44.14-5.4 3 .3 23.34.4 29.83 0 31.85-.42 2.37-6.47 5.82-5.78 5.78-2.67.38-65.5-.24-74.91-.2-2.92 0-5.78 6.37-2.58 6.36 22.39-.1 72.69.05 75.27-.33a15.4 15.4 0 0 0 13.35-13.7c1.19-13.35.21-20.48.05-32.76z" opacity=".2"/><path d="M197.92 86.89c1.85-1.09 85.43-3.6 89.19 1.67 2.18 2.48 1.59 40.32 0 43.14-2.42 3.85-83.3 2.17-86.78 1.2-1.27-.35-2.2-2.1-3.22-3-2.37-1.97-2.22-41.78.81-43.01z" fill="#f78100" opacity=".85"/><path d="M285.22 87.87c-15.52-.21-76.74-2.1-83.08-.21-2.77.82-5.4 3.89-4.48 6.79a13.91 13.91 0 0 0-1.44 3c-.9 2.8 0 24.1 1.55 31 .79 3.63 5.8-1.74 5.2-4.47-2.66-12.17-1.63-7.46-1.73-14.34-.06-4.59-.74-13.65 3.44-15.27s32.72 0 38.47 0c13.16.1 26.32.14 39.49.32 2.92.08 5.8-6.77 2.58-6.82z" fill="#fff" opacity=".2"/><path d="M289 100.14c.08-3.29 1.1-8.29-.39-11.31-1.21-2.45-4.68-3.15-7.17-3.51-5.43-.78-11.3-.13-16.84-.13-14.34 0-54.37 0-60.06.23-2 .07-6.31-.63-7.77 1.13-1.73 2.07-1.25 10.76-1.24 10.82-.54 10.64-.79 15.27-.52 22.07.14 3.52-.38 8.29 1.24 11.53 1.38 2.76 3.58 2.85 6.39 3.17 5.07.57 64.06.87 68.42.7 4.15-.15 10.55.88 14.47-1 3.19-1.54 3.83-5.42 4.06-8.64.85-11.57-.83-13.64-.59-25.06zm-1.64 23.68c-.13 3.41-.49 7.37-4.55 8.33-2.55.61-75.89.15-79.07-.16-2.69-.27-4.68 0-5.82-3-.92-2.42-.53-5.56-.65-8.1-.48-10.68-1-12.56-.32-23.57a.5.5 0 0 0 0-.13c.26-2.53-.06-8.28 1.9-9.61 1.8-1.22 7.67-.33 10-.4 4.23-.13 56.27 0 59.94.08 3.23 0 6.48-.16 9.71 0 2.43.1 6.89.23 8.26 2.89.92 1.78.23 6.09.18 8-.18 9.78.61 21.68.45 25.67z" fill="#f78100"/><path d="M486.14 32.15c-.24-4.43-5.56.12-5.4 3 .34 6.32-.17 26.14-.2 29.78 0 2.84.25 9.77-2.58 11-1.71.74-154.55.49-168 .66-2.92 0-5.77 6.9-2.58 6.86 26.84-.34 129.61 1 154-.84 4.83-.36 16.73-.13 20.6-3.62 5.71-5.19 4.68-37.47 4.16-46.84z" opacity=".2"/><path d="M298.9 25.85c3.94-1.56 179.42-2.58 180.6.3 1 1.25 1.93 46.42 1 47.9-1.67 2.7-6.25 2.08-9.34 2.19-3.68.13-169.81 2-172.53-.3-2.37-2.02-3.52-47.05.27-50.09z" fill="#f78100" opacity=".85"/><path d="M474.56 25.63c-13.24-.36-119.21 1.88-142 1.55-3.37 0-20.45-2.23-24.83-.77a2.06 2.06 0 0 0-.35-.12c-8.26-1.85-8.18 12.79-8.57 17.39-.81 9.38-2.81 21.72 1.37 30.53 1.3 2.77 5.9-3 4.65-5.67-2.47-5.25-1.45-13.3-1.2-18.94.13-3 1.12-14.47 1.14-14.69a6.57 6.57 0 0 0 3.23-2.72c3.35-.39 13.22 1.57 14.21 1.63 3.33.19 30.3.23 40.45.09 20.59-.26 95.6-1.79 109.31-1.42 2.93.08 5.84-6.77 2.59-6.86z" fill="#fff" opacity=".2"/><path d="M480.74 26.21c-1.39-2.66-5.28-2.45-7.89-2.53-28.31-.89-124.58 0-141.19 0H315.2c-3.63.09-7.28.43-10.9.71-1.6.13-4-.05-5.46.75-4.55 2.46-2.59 11.75-2.6 15.58a.66.66 0 0 0 0 .15c-.22 8.26-.45 16.42-.23 24.68.07 2.9-.68 9.37 2.38 11.18s9.82 1 13.37 1c11.51 0 23 .14 34.55.13q50.18 0 100.35-.16c2.91 0 12.1 0 15-.07 5.05-.13 11.07.74 16-.34 3.73-.81 3.87-4.82 4-8.05.42-9-.16-17.85-.1-26.85.06-4.53 1.44-11.93-.82-16.18zm-1.3 43.11c-.17 3.22-.16 5.48-3.8 5.84-2.7.27-5.53.11-8.24.16-3.82.07-7.64.17-11.46.17-30.18.05-66.66.11-96.84.19-10.61 0-21.27.4-31.88.16-7.85-.18-15.73.31-23.6-.17-2.92-.18-4.67.16-5.42-3-.79-3.41-.51-7.3-.63-10.77-.15-4-.16-7.92-.08-11.92.07-3 .11-6 .19-9v-.15c.14-3.71-1-9.52 1.31-12.69 1.59-2.19 5.06-1.72 7.73-1.89 3.63-.23 7.25-.5 10.89-.5h52.02c30.52 0 67.32-.07 97.84.07 2.52 0 8.18-.65 10.24.59 3.59 2.15 1.57 14.12 1.62 17.72.05 3.41.31 6.83.46 10.24.21 4.95-.08 9.98-.35 14.95z" fill="#f78100"/><path d="M485.68 92.31c-.16-4.42-5.51.13-5.41 3 .41 11.49.41 33.28.1 34-1.52 3.7-7.14 3.51-10.37 3.72-15.9 1.05-143.83.87-160.53.57-2.92 0-5.81 6.81-2.58 6.87 35.47.63 155.6.13 164.82-.95 17.88-.68 14.28-13.65 14.47-18.32.4-9.49.03-13.95-.5-28.89z" opacity=".2"/><path d="M298.13 86.41c2.93-1.28 180.26-1.79 181.91.32 1 1.26 1.39 43.1.48 44.58-1.67 2.7-16.65 2.36-20.33 2.49 0 0-160.22.18-161.24-.68-.27-.23-2.25-4-2.25-4s-.45-41.56 1.43-42.71z" fill="#f78100" opacity=".85"/><path d="M475.57 87.2c-14.25-.94-139.33 1.15-154.13.69-5.26-.16-12.16-2.38-17.26-.55-3.66 1.31-4.72 4.77-5.24 8.25a123.47 123.47 0 0 0-.63 33.15c.6 4.42 5.8-.12 5.4-3-2.07-15.24-.13-31.38.49-32.94 0 1 13.23 1.93 15.73 2 33.32.68 66.73-.74 100.06-1.08 15.42-.16 37.6-.66 53 .37 2.91.17 5.87-6.67 2.58-6.89z" fill="#fff" opacity=".2"/><path d="M482.22 110.82c0-2.59-.07-5.18-.1-7.77-.15-11.1-.28 23.32-.41 12.22-.1-8.59 1-18.25-.13-26.71-.7-5.37-11.6-3.88-16.19-4-3.63-.09-7.26-.25-10.9-.28-14.8-.15-29.62.11-44.43.16q-33.65.14-67.3.27l-21.56.09h-4.17c-2.55 0-5.1-.06-7.66 0-3 .06-7.76-.42-10.66.58-4.55 1.57-3.1 8-3.06 10.58s-.24 11.69-.18 12.28.1 8.59.18 12.64-1.34 11.38 3.57 13.08c4.72 1.64 11 1.19 15.9 1.07 3.84-.09 7.65 0 11.48.11 36.83.94 73.82-.11 110.66-.19h31.93c3.19 0 10 .46 12-2.89 1.38-2.35.61-6.41.69-9 .12-3.93.31-8.34.34-12.24zm-2.25 0c0 3.14-.2 6.79-.3 9.92-.09 2.63.87 9.3-1.35 10.86-2 1.41-6.23 1-8.57 1.07-2.79.08-5.58 0-8.37 0h-17q-55.71.09-111.44.23c-4.33 0-8.65-.21-13-.17a154.68 154.68 0 0 1-16.54-.25c-1.08-.1-3 0-4-.57-2.21-1.33-1.8-5.12-1.81-7.26 0-4.27-.23-1.17-.18-17.62v-5.66c.09-2.56-.13-5.13.08-7.68.07-1 .2-5.09 1-6 1.58-1.77 8.64-1 10.8-1h24.82l60.34-.17 60.25-.17c4 0 8 0 12.05.14 3.33.09 6.71 0 10 .26 2 .15 2-.24 2.59 1.75.44 1.43.19 3.47.2 5 0 4.21-.22 8.42-.19 12.63.19 16.56.78-11.9.65 4.65z" fill="#f78100"/><path d="M192.28 92.44c-.06-4.41-5.45.14-5.41 3 .15 11.46.35 19.78.29 22.73-.08 3.76 1.15 10.12-2.29 12.39-4.81 3.16-145.48 2.45-162.62 2-2.92-.07-5.82 6.78-2.58 6.86 35.54.92 158.38-.3 164-2.07 11.83-3.75 8.73-13.49 8.92-22.19.14-7.75-.12-7.9-.31-22.72z" opacity=".2"/><path d="M9.22 94.88c.19-2.56 4.34-7.87 6.94-8.07 1.27-.36 167.72-1.87 170.08 1.6 2.35 6.91 1.46 37.35.54 38.83-1.66 2.7-4.28 5.09-7.37 5.2-3.68.13-161.14 1-162.16.17-5.34-1.58-7.5-8.1-7.6-11.29S9 97.43 9.22 94.88z" fill="#f78100" opacity=".85"/><path d="M183 87.87C152.76 86.6 45.29 87 25 87.45c-4.67.1-15.87-2.66-15.07 12-.35 7.24-1.3 10.28.53 26.72.5 4.43 5.73-.12 5.41-3a188.34 188.34 0 0 1-.48-29.32c.46.46 3.22.53 3.06.51 2.47.38 83.68-1.22 118.49-.64 14.48.24 29 .37 43.45 1 2.95.14 5.88-6.72 2.61-6.85z" fill="#fff" opacity=".2"/><path d="M188.39 100.68c0-3.54.86-9.15-1-12.33-2.33-4-12.49-2.6-16.09-2.77-1.61-.07-34.75 0-49.75.06L34.16 86c-6.6 0-14.57-1.55-20.6 1-6.36 2.73-5 10-5 15.54v1.17c0 16-1.48 23.32 3.36 27.31 6 4.95 15.75 2.43 22.7 2.68 2.11.07 4.13.45 6.23.47 35.06.33 120.85-.15 125.52-.22s9.85.12 14.57-.64c7.42-1.19 7.46-6.77 7.68-13.07.26-7.66-.24-16.16-.23-19.56zm-2 17.93c-.06 1.81 0 3.75-.2 5.55-.6 4.39-2.59 6.65-6.94 7.07-4.08.39-8.3.39-12.4.45h-9.26q-51.48.09-102.94.22c-3.06 0-12.51.22-15.57 0a69.21 69.21 0 0 0-10-.19c-5.16.4-13 .88-16.43-3.48s-2.31-12-2.39-17.35c-.09-5.61-.3-8.37-.3-8.37s-.9-12.78 6.14-14.21c4.43-.9 9.27-.37 13.76-.34h23.91l55.07-.16 50.28-.17c3.13 0 6.27-.09 9.4 0s6.25.29 9.37.43c4.44.21 7.7-.4 8.18 4.89.3 3.26.17 6.55.17 9.82.01 7.8.33 11.29.17 15.84z" fill="#f78100"/><path d="M192.88 148.85c-.57-4.43-5.78.11-5.4 3 .28 2.18.3 26.48-.65 31.27a20.65 20.65 0 0 1-4.75 3.18c-3.84 1.58-149 1.17-158.62 1-2.92-.06-5.81 6.8-2.58 6.86 28.36.5 147.93-.76 155.38-1.44 3.51-.32 8.13-.2 11-2.59a16.9 16.9 0 0 0 4.53-6.9c1.35-4.79 1.41-31.95 1.09-34.38z" opacity=".2"/><path d="M9.22 149.74c.19-2.55 3.13-6.5 5.26-7.8 2.62-.54 162.14.28 165.75.45 1.55.07 5.91 3.68 6.91 4.94s.54 34.57-.37 36c-1.67 2.7-5.25 3.09-8.34 3.2-3.68.13-159.44 1.32-162.92.35-1.27-.35-6.25-7.28-6.35-10.47s-.16-24.11.06-26.67z" fill="#f78100" opacity=".85"/><path d="M183.41 142.52c-12.39-.75-56.15 1.47-65.7 1.48-17.56 0-82.9-.48-94.62-1.75-3.63-.39-7.29-1.67-10 1.35s-3.41 7.64-3.14 11.52c0 .55-.21 17.49.22 25.65.24 4.43 5.57-.12 5.41-3-.53-9.8-.95-19.57.89-29.25.78.1 6.68.87 9 1.06 5.22.44 34 1.16 39.8 1.21 7 .06 58.77.14 77.64 0 12.69-.1 25.31-2.15 38-1.38 2.83.15 5.78-6.69 2.5-6.89z" fill="#fff" opacity=".2"/><path d="M188.88 164.84c-.07-4.94.31-9.91-.27-14.82-.42-3.54-.73-6.13-4.2-7.52-4.68-1.88-10.45-1.59-15.38-1.7-24.8-.53-49.68 0-74.48 0H37.46c-5.77 0-20.63-1.73-25.63 1.67-4.69 3.18-3.45 10.11-3.56 14.89a.58.58 0 0 0 0 .19v9.68c0 4.44-.84 9.63.84 13.83 3 7.55 11.31 7.54 18.11 7.46 10.31-.12 137.09-.43 139.9-.49 7.56-.14 20.72 1.88 21.72-8.47.53-4.8.16-9.84.04-14.72zm-2.16 13.45c-.87 6.8-4.6 7-10.13 7.21-3.08.11-13.34.33-15.39.34-27.53.12-116 .63-129.42.8-4.61.05-10.36.91-14.61-.55-8.34-2.86-7.18-11.31-7.3-18.48-.06-3.36-.12-6.71-.15-10.07a.53.53 0 0 0 0-.12c.28-3.82-.72-9.92 2.46-12.82 2.73-2.49 8.16-1.82 11.56-1.83 2.19 0 4.39.06 6.59.07h54.41l79.85.06c3.21 0 6.35.09 9.56.26 2.57.14 5.42 0 7.89.8 4.21 1.43 4.27 4 4.58 7.92.35 4.58 0 9.23 0 13.82.07 4.15.61 8.55.1 12.59z" fill="#f78100"/><path d="M293.86 174.78c-.14-8.78-.46-17.51-.19-26.29.14-4.37-5.32.17-5.41 3-.22 7.39-.15 31.31-.86 33.67-1.86 3.67-76.16 1.45-82.29 1.37-2.92 0-5.8 6.82-2.58 6.86 16.62.21 66.54.78 74.86.18 3.68-.27 8.25-.28 11.33-2.63a20.75 20.75 0 0 0 3.25-4.69c1.83-3.69 1.95-7.4 1.89-11.47z" opacity=".2"/><path d="M288.07 179.32c-.19 2.55.35 5.26-1.77 6.56-2.13 2.18-86.15 2.71-88.34-.59-1-1.26-2.12-35.89 0-39.21 1.67-2.7 5.26-3.09 8.34-3.2 3.68-.12 77.24-.67 79.08.8 4.3 3.66 2.88 33.09 2.69 35.64z" fill="#f78100" opacity=".85"/><path d="M282.49 143.79c-6.84-.49-61.82 0-69 .15-5.68.14-12.39-.35-14.52 6.22-.19.6-2.37 6.93-2.39 8.7-.14 8.28 1.58 17 2.4 25.21.44 4.43 5.69-.12 5.41-3-.45-4.48-1.57-20-2-22.89h.08a40.92 40.92 0 0 1 7-3.63 8.61 8.61 0 0 0 3.25-3.8c2.18 0 46.87-.94 48.91-1.06 6.26-.38 12 .58 18.22 1 2.97.16 5.93-6.69 2.64-6.9z" fill="#fff" opacity=".2"/><path d="M288.77 171.64a.61.61 0 0 0 0-.13c.2-4 .47-7.87.38-11.85s1.39-13.69-2.6-16.65c-2.73-2-8.6-1.59-11.77-1.73s-6.56.31-9.86.34c-15.64.13-31.29-.39-46.93-.26-5.24 0-10.84-.16-16 .49-6.18.77-6.07 6.17-6.27 11.27-.22 5.61 0 10.86.21 16.42.18 4.65-1.45 10.74.23 15.18 1.46 3.88 7.81 3 11.15 3.14 3.64.17 7.28.38 10.92.38h49.16c6 0 12 .3 17.92-1 6.35-1.42 3.51-10.78 3.46-15.6zm-1.58 10.22c-.56 4.12-4.33 4-8 4.27-4.08.31-8.19.09-12.28.07-5.92 0-45.1.22-58.74-.42-2.38-.11-7.84.45-9.48-1.36s-.85-6.3-.79-8.65c.09-3.79 0-7.39-.25-11.16-.33-5.44-1.63-18.9 5.24-20.55 2.93-.71 6.8-.15 9.82-.26 1.67-.05 3.35-.14 5-.15 13.84-.13 27.69.16 41.53.19 6.74 0 13.45-.73 20.17-.22 3.74.28 6.32.14 7.45 4.38.94 3.55.47 8 .62 11.66.16 4 0 7.87-.17 11.82a.42.42 0 0 0 0 .16c-.19 3.36.32 6.93-.12 10.22z" fill="#f78100"/><path d="M486.3 149.17c0-4.41-5.43.14-5.41 3 .08 9.65.15 19.32-.27 29 0 .19-3.22 4.31-4.12 4.5-3.07.64-158.1.85-171.39.81-2.92 0-5.79 6.85-2.58 6.86 29.2.1 58.4.55 87.6.49 13.28 0 26.52-.55 39.78-.76 12.32-.19 31.4 1.27 43.64-.36 5.51-.73 11.2-3.2 12.1-9.14 1.68-11.19.74-23.15.65-34.4z" opacity=".2"/><path d="M298.74 143.76c7.93-3.34 173.43-2.43 180.84.58 2.31 4.19.93 39.11 0 40.59-1.28 2-175.51 4.8-180.91-.61-4.21-3.32-3.42-37.64.07-40.56z" fill="#f78100" opacity=".85"/><path d="M476.78 145.63a23 23 0 0 0-11.56-1.63 2.93 2.93 0 0 0-1.76 1.06c-1.39-.1-22.68-.37-28.93 0-4.36.23-8.71.28-13.08.24-11.24-.08-83.34-1.83-108.13-1.51-4.8.07-9.66-.11-12.9 4.27-5 6.76-2.56 28-1.62 34.95.61 4.42 5.8-.11 5.41-3-.73-5.36-1-21.57-.72-24.28.1-1-.13-3.18.46-4s.58-.62 1.93-.91c2.79-.58 88.42 1.17 112 1.38 4.07 0 30.71-.91 36.94-.59s12.49 1 18.79.8c2.15-.18 6.15-5.55 3.17-6.78z" fill="#fff" opacity=".2"/><path d="M482.23 165.59c-.14-2.31-.58-4.45-.53-6.81.07-3.83 1.18-10.82-1.07-14.24s-9.72-2.75-13.15-2.9c-2.23-.1-4.46-.23-6.7-.26h-17.71c-16.13 0-100.44-.19-126.45.09-5.69.06-13.52-.52-18.75 2.14a.64.64 0 0 0-.34.37c-1.64 1.71-1.65 5.15-1.85 7.3-.41 4.34-.42 19.41-.33 22.57.09 3-.27 8.5 2 10.92s7.13 2.45 10.13 2.69c5 .38 20.25.84 23 .84 32.1 0 120.63-.51 129.75-.67 3.68-.07 7.37-.39 11.05-.39 2.24 0 4.95.63 7.06-.35 3.87-1.81 3.32-7.13 3.46-10.7s.64-7.13.43-10.6zm-2.31 2.69c-.13 2.91-.37 11.35-.64 12.54-.69 2.91-3 4.33-6 4.22-10-.34-26.43.37-36.48.42q-47 .25-94 .57c-7.43.05-31.58-.17-36.22-.57a21 21 0 0 1-5.11-.87c-3.84-1.37-3.94-4.18-4.23-7.8a189.25 189.25 0 0 1-.32-20.49c.07-2.83-.54-9.2 1.69-11.4 3.36-1.56 7.83-1.05 11.44-1.29 2.22-.15 8.14-.24 8.89-.24 4.09 0 115.6-.19 141.94.14 1.89 0 12.45 0 15.35 1 3.82 1.35 3.3 5.39 3.35 8.82.08 4.93.57 10.06.34 14.95z" fill="#f78100"/></svg>