<svg xmlns="http://www.w3.org/2000/svg" viewBox="0 0 490 428"><path d="M448.2 310.59c5-5.1 2.13-96.23 1.24-101.08 1.52-27.42 1.73-112.08.71-126.92-.29-4.22-1.15-22.19-.8-23.55 1.17-4.43 1.46-12.23-4.82-12.83-50.31-4.8-201.43.25-227 .3C192.58 46.56 85 41.15 56.13 42c-7 .22-19.93 9.7-14.14 25.76-4.56 40.34 2.14 80.42 1.93 120.82-.1 20.7-10.45 135.89.85 156.74 10.86 21.51 42.61 9.4 47.13 9-.33 4.25.49 9.68 5.36 9.42q132.36-6.94 265-7.53 37.59-.17 75.18.19c9.94.09 17.6-13.68 15.46-22.67q-2.76-11.5-4.7-23.14z" fill="#fff"/><path d="M449.84 312.25q-.24-39.66-.44-79.32c-.29-53.82-1-169.11-.85-172.93.14-4.75.86-10.32-3.57-13.47-4.26-3-11.17-2-16-2.14-3.43-.09-38.79-.24-53-.24H197.37c-40.69 0-131.42 0-136.1.11s-11.35-.4-15.27 2.85c-3.61 3-2.47 7.22-2.59 11.39a.72.72 0 0 0 0 .22c-.09 41.26-.94 224-1.06 274 0 7.12-1.85 17.83 5.52 21.32 4.68 2.21 11.18 2.27 16.26 2.46 7.93.28 57.51 0 73.24-.08l254.82-.82c6.76 0 38.9.5 47.95-.82 3.45-.51 7.18-1.47 8.58-5 1.46-3.7 1.07-9 1.19-12.92.09-1.13-.03-17.57-.07-24.61zM447.35 337a62.28 62.28 0 0 1-.55 8c-.35 2.16.42 4-2 5.84-1.51 1.13-4.37 1.41-6.11 1.59-7 .73-14.17.49-21.16.56-2.9 0-289.39.92-311.61 1-5.27 0-33.14.14-39.91 0a80.79 80.79 0 0 1-12-1c-4.8-.79-8-2.34-8.51-7.59-1.43-13.5-.39-27.51-.39-41v-81c0-51.81 0-161.56.05-164.62a.75.75 0 0 0 0-.16c.21-5-.81-9.85 5.43-11.44 3.37-.86 7.15-.64 10.6-.68 4.39 0 27.48.06 33.13.06q33.45 0 66.91.07c60.15 0 264.32.22 267.71.31 3.77.11 8.34-.4 12 .61 5.87 1.63 5.38 6.93 5.21 11.74 0 1 .33 89.81.54 133.16.21 47.06.69 143.48.66 144.55z" fill="#1e1e1e"/><path d="M90.27 44.48c-1.27 24.69-.8 49.52-.93 74.26q-.21 39.9-.15 79.82.06 65.2.5 130.4c.06 8.44.2 16.89.28 25.33a1.28 1.28 0 0 0 2.56 0c-.22-24.22-.29-48.44-.43-72.66q-.42-76.59-.29-153.18c.07-28 1-56 .41-84a1 1 0 0 0-2 0zM146.68 45.3c-.72 24.55-.07 49.2-.09 73.76q0 40.29-.13 80.59-.18 64.64-.53 129.25c-.05 8.46 0 16.93-.05 25.39a1.28 1.28 0 0 0 2.55 0c.14-24.27.32-48.55.4-72.82q.27-76 .27-152c0-28 .66-56.18-.47-84.18a1 1 0 0 0-1.95 0zM344.38 45.3c-.73 24.72-.08 49.54-.09 74.28q0 39.93-.13 79.87-.18 65.25-.54 130.49c0 8.45 0 16.9-.05 25.35a1.28 1.28 0 0 0 2.56 0c.14-24.24.32-48.48.4-72.72q.27-76.63.27-153.27c0-28 .65-56.06-.47-84a1 1 0 0 0-1.95 0zM402 45.3c-1 24.78-.41 49.7-.47 74.5q-.07 40.05-.07 80.11 0 64.53.1 129.06c0 8.44.11 16.88.13 25.32a1.28 1.28 0 0 0 2.56 0c-.06-24 0-48-.08-72q-.15-76-.14-151.93c0-28.33.79-56.76-.08-85.07a1 1 0 0 0-1.95 0z" fill="#1e1e1e"/><path d="M447.58 110.64c-57.79-1.57-115.72-.55-173.52-.43q-94.56.21-189.13.67l-40.22.2a1.26 1.26 0 0 0 0 2.51q56.55-.3 113.09-.51 103-.42 206.06-.55c27.91 0 55.81.18 83.72 0a1 1 0 0 0 0-1.92zM449.08 221.65q-88.75 1.44-177.5 1.3-93.63 0-187.25-.61-19.81-.12-39.62-.25a1.26 1.26 0 0 0 0 2.51q55.61.42 111.21.6c68.58.26 137.17.4 205.75-.07 29.12-.19 58.31-.14 87.41-1.56a1 1 0 0 0 0-1.92zM416.45 26.38h-.9a50.59 50.59 0 0 0-.07-5.23c0-.44-.67-.65-.88-.3a.37.37 0 0 0-.13.12c-1.47 1.91-2.6 4.09-4.05 6a.57.57 0 0 0 .49.85c1.11-.08 2.21-.09 3.32-.11v2.32a.62.62 0 0 0 1.24 0v-2.36h.93a.65.65 0 0 0 .05-1.29zm-4.32.23a37.26 37.26 0 0 0 2.16-3.1c-.05 1-.06 1.95-.06 2.93-.7.04-1.4.1-2.1.17zM423.21 21.09A.66.66 0 0 0 423 21a.5.5 0 0 0-.28-.23c-4.6-1.62-6.18 8.22-2 9.57 2.33.77 3.89-.62 4.23-2.87.24-1.83.36-5.47-1.74-6.38zm.43 6.65c-.34.76-1.38 2-2.37 1.55a3.89 3.89 0 0 1-1.6-2.1 5.11 5.11 0 0 1-.09-2.06c.19-1.67 1-3.29 2.83-3.35a.67.67 0 0 0 .23.28c1.08.75 1.18 2.56 1.19 3.72a5.14 5.14 0 0 1-.19 1.96zM431.16 23.4a2.63 2.63 0 0 0-3 1.34 5.18 5.18 0 0 0-.32-1.15c-.13-.3-.58-.19-.66.08a13.94 13.94 0 0 0-.12 4c0 1.52 0 3-.06 4.54 0 .82 1.23.81 1.27 0s.05-1.56.06-2.34a2.89 2.89 0 0 0 3 .81c1.54-.49 2.06-2.29 2.07-3.74a3.48 3.48 0 0 0-2.24-3.54zm.47 5.47c-.82 1.2-2.24.53-2.83-.46a.56.56 0 0 0-.47-.29V25.97a3.61 3.61 0 0 1 1.95-1.4c1.25-.15 1.86 1 1.88 2.15a4 4 0 0 1-.53 2.15zM440.31 29.52c-.85-.94-1.74-1.85-2.6-2.77A16.81 16.81 0 0 0 440 24a.44.44 0 0 0-.6-.6 11 11 0 0 0-2.53 2.28 6.15 6.15 0 0 0-1.9-2.15.36.36 0 0 0-.54.31 5.8 5.8 0 0 0 1.6 2.92c-.72 1-1.37 2-1.93 2.94-.44.73.77 1.43 1.15.67a16.4 16.4 0 0 1 1.68-2.59c.81.91 1.65 1.8 2.5 2.68.57.61 1.45-.32.88-.94z" fill="#1e1e1e"/><path d="M343.21 34c0 1.62-.11 3.25-.11 4.87a.4.4 0 0 0 .8 0c0-1.62.08-3.25.11-4.87a.4.4 0 0 0-.8 0zM149.51 34c0 1.79-.1 3.58-.11 5.37a.4.4 0 0 0 .8 0c0-1.79.08-3.58.11-5.37a.4.4 0 0 0-.8 0zM155.34 26c-1.71 0-3.42-.1-5.13-.11a.4.4 0 0 0-.64.31v4.68a.4.4 0 0 0 .8 0v-4.19c1.65 0 3.31.08 5 .11a.4.4 0 0 0-.03-.8zM163.19 26h-4.67a.4.4 0 0 0 0 .8h4.67a.4.4 0 0 0 0-.8zM172.25 25.94c-1.79 0-3.59 0-5.38.06a.4.4 0 0 0 0 .8c1.79 0 3.59 0 5.38-.06a.4.4 0 0 0 0-.8zM180.8 25.77l-4.68.09a.4.4 0 0 0 0 .8l4.68-.09a.4.4 0 0 0 0-.8zM189.92 26c-1.79 0-3.58-.11-5.37-.11a.4.4 0 0 0 0 .8c1.79 0 3.58.07 5.37.11a.4.4 0 0 0 0-.8zM197.78 26h-4.68a.4.4 0 0 0 0 .8h4.68a.4.4 0 0 0 0-.8zM224.75 26h-4.68a.4.4 0 0 0 0 .8h4.68a.4.4 0 0 0 0-.8zM206.83 25.94l-5.37.06a.4.4 0 0 0 0 .8q2.68 0 5.37-.06a.4.4 0 0 0 0-.8zM215.38 25.77l-4.68.09a.4.4 0 0 0 0 .8l4.68-.09a.4.4 0 0 0 0-.8zM274.12 26c-1.79 0-3.58-.11-5.37-.11a.4.4 0 0 0 0 .8c1.79 0 3.58.07 5.37.11a.4.4 0 0 0 0-.8zM282 26h-4.68a.4.4 0 0 0 0 .8H282a.4.4 0 0 0 0-.8zM291 25.94l-5.37.06a.4.4 0 0 0 0 .8q2.68 0 5.37-.06a.4.4 0 0 0 0-.8zM299.58 25.77l-4.68.09a.4.4 0 0 0 0 .8l4.68-.09a.4.4 0 0 0 0-.8zM308.7 26c-1.79 0-3.58-.11-5.37-.11a.4.4 0 0 0 0 .8c1.79 0 3.58.07 5.37.11a.4.4 0 0 0 0-.8zM316.56 26h-4.68a.4.4 0 0 0 0 .8h4.68a.4.4 0 0 0 0-.8zM343.42 25.86h-4.57a.4.4 0 0 0 0 .8h4.41v3.69a.41.41 0 0 0 .81 0v-4.18a.41.41 0 0 0-.65-.31zM400 34c0 1.62-.11 3.25-.11 4.87a.4.4 0 0 0 .8 0c0-1.62.08-3.25.11-4.87a.4.4 0 0 0-.8 0zM400.21 25.86h-4.57a.4.4 0 0 0 0 .8h4.41v3.69a.4.4 0 0 0 .8 0v-4.18a.4.4 0 0 0-.64-.31zM325.61 25.94l-5.37.06a.4.4 0 0 0 0 .8q2.68 0 5.37-.06a.4.4 0 0 0 0-.8zM334.17 25.77l-4.68.09a.4.4 0 0 0 0 .8l4.68-.09a.4.4 0 0 0 0-.8zM347.72 34c0 1.62.11 3.25.11 4.87a.4.4 0 0 0 .8 0c0-1.62-.08-3.25-.11-4.87a.4.4 0 0 0-.8 0zM352.88 25.85h-4.57a.41.41 0 0 0-.65.31v4.18a.4.4 0 0 0 .8 0v-3.69h4.41a.4.4 0 0 0 .01-.8zM404.42 34c0 1.62.11 3.25.11 4.87a.4.4 0 0 0 .8 0c0-1.62-.08-3.25-.11-4.87a.4.4 0 0 0-.8 0zM407.08 25.85H405a.4.4 0 0 0-.64.31v4.18a.4.4 0 0 0 .8 0v-3.69h1.91a.4.4 0 0 0 .01-.8zM445.16 34c0 1.62-.11 3.25-.11 4.87a.4.4 0 0 0 .8 0c0-1.62.08-3.25.11-4.87a.4.4 0 0 0-.8 0zM445.37 25.86h-2.07a.4.4 0 0 0 0 .8h1.91v3.69a.4.4 0 0 0 .8 0v-4.18a.41.41 0 0 0-.64-.31z" fill="#757575"/><path d="M364.63 24.6c-1-.78-2.54-.5-3.77-.05a25.46 25.46 0 0 1-.1-2.89 33 33 0 0 0 3.85 0 .61.61 0 0 0 0-1.21c-1.49 0-3 .05-4.44-.05a.63.63 0 0 0-.62.62 23.22 23.22 0 0 0 .15 4.41.64.64 0 0 0 .95.55 4.92 4.92 0 0 1 2.53-.56A1.59 1.59 0 0 1 364 28c-1 1.55-2.89 1-3.82-.21-.55-.7-1.56.29-1 1 1.78 2.15 5.45 1.87 6.28-1a3 3 0 0 0-.83-3.19zM372.6 21.17c-.65-1.51-3.6-.62-4.5.4-1.67 1.86-1.22 5.49.18 7.37 1.26 1.69 3.65 2 4.91.11a7.18 7.18 0 0 0-.28-7.67.69.69 0 0 0-.31-.21zm-2.6 7.69c-1.3-.64-1.69-2.81-1.67-4.07a4 4 0 0 1 .33-1.74c.3-.63 2.07-2.11 3.07-1.34a.49.49 0 0 0 .11.31 5.42 5.42 0 0 1 1 3.38c-.02 1.49-.59 4.6-2.84 3.46zM379.11 23a4.1 4.1 0 0 0-2.11 1.21c0-.17 0-.35-.05-.52-.07-.53-.93-.79-1.05-.14a59.69 59.69 0 0 0-.37 8.77c0 1 1.51.77 1.4 0s.07-1.86.11-2.81a3.62 3.62 0 0 0 3 .62c2-.63 2.22-2.89 2-4.63s-1.16-2.89-2.93-2.5zm.66 5.71a2.06 2.06 0 0 1-2.35-1 .59.59 0 0 0-.27-.29V26a4.26 4.26 0 0 1 1.22-1.42 2 2 0 0 1 1.63-.38c.65.28.69 1 .74 1.57.13.99.14 2.5-.97 2.94zM389.15 28.74c-.72-.8-1.44-1.65-2.18-2.49a17.71 17.71 0 0 0 1.5-2.25.58.58 0 0 0-.91-.7 16.08 16.08 0 0 0-1.56 1.8 18.62 18.62 0 0 0-2.36-2.1c-.44-.34-1 .3-.73.73a20.11 20.11 0 0 0 2 2.73c-.66.92-1.31 1.84-2 2.7a.71.71 0 1 0 1.11.86c.59-.81 1.25-1.6 1.89-2.41.71.78 1.43 1.54 2.08 2.3s1.91-.5 1.16-1.17zM58.3 26.38h-.91a50.59 50.59 0 0 0-.07-5.23c0-.44-.67-.65-.88-.3a.49.49 0 0 0-.13.12c-1.47 1.91-2.59 4.09-4.05 6a.57.57 0 0 0 .49.85c1.11-.08 2.22-.09 3.33-.11v2.32a.62.62 0 0 0 1.24 0v-2.36h.93a.65.65 0 0 0 .05-1.29zm-4.3.23a33.7 33.7 0 0 0 2.17-3.1c-.06 1-.07 1.95-.07 2.93-.73.04-1.43.1-2.1.17zM65.05 21.09a.66.66 0 0 0-.22-.06.5.5 0 0 0-.28-.23c-4.6-1.62-6.17 8.22-2 9.57 2.34.77 3.89-.62 4.23-2.87.22-1.86.37-5.5-1.73-6.41zm.44 6.65c-.34.76-1.38 2-2.38 1.55a4 4 0 0 1-1.6-2.1 5.11 5.11 0 0 1-.09-2.06c.19-1.67 1-3.29 2.84-3.35a.57.57 0 0 0 .22.28c1.09.75 1.18 2.56 1.19 3.72a5.14 5.14 0 0 1-.18 1.96zM73 23.4a2.63 2.63 0 0 0-3 1.34 5.18 5.18 0 0 0-.32-1.15c-.13-.3-.57-.19-.65.08a13.94 13.94 0 0 0-.13 4c0 1.52 0 3-.06 4.54 0 .82 1.23.81 1.27 0s.06-1.56.07-2.34a2.87 2.87 0 0 0 3 .81c1.55-.49 2.06-2.29 2.07-3.74A3.48 3.48 0 0 0 73 23.4zm.46 5.47c-.82 1.2-2.23.53-2.83-.46a.56.56 0 0 0-.47-.29v-.79-1.36a3.65 3.65 0 0 1 2-1.4c1.25-.15 1.86 1 1.88 2.15a4 4 0 0 1-.57 2.15zM82.15 29.52c-.85-.94-1.73-1.85-2.6-2.77A16.31 16.31 0 0 0 81.79 24a.44.44 0 0 0-.59-.6 10.85 10.85 0 0 0-2.54 2.28 6.12 6.12 0 0 0-1.89-2.15c-.22-.11-.57 0-.54.31a5.78 5.78 0 0 0 1.59 2.92c-.72 1-1.36 2-1.92 2.94-.45.73.76 1.43 1.15.67a15.67 15.67 0 0 1 1.67-2.59c.81.91 1.66 1.8 2.5 2.68.59.61 1.51-.32.93-.94z" fill="#1e1e1e"/><path d="M144.29 34c0 1.62-.1 3.25-.11 4.87a.4.4 0 0 0 .8 0c0-1.62.08-3.25.11-4.87a.4.4 0 0 0-.8 0zM144.5 25.86h-4.56a.4.4 0 0 0 0 .8h4.41v3.69a.4.4 0 0 0 .8 0v-4.18a.41.41 0 0 0-.65-.31zM92 34c0 1.62.1 3.25.11 4.87a.4.4 0 0 0 .8 0c0-1.62-.08-3.25-.11-4.87a.4.4 0 0 0-.8 0zM97.17 25.85h-4.56a.41.41 0 0 0-.65.31v4.18a.4.4 0 0 0 .8 0v-3.69h4.41a.4.4 0 0 0 0-.8zM46.27 34c0 1.62.1 3.25.1 4.87a.4.4 0 0 0 .8 0c0-1.62-.07-3.25-.1-4.87a.4.4 0 0 0-.8 0zM48.92 25.85h-2.07a.4.4 0 0 0-.64.31v4.18a.4.4 0 0 0 .8 0v-3.69h1.91a.4.4 0 0 0 0-.8zM87 34c0 1.62-.1 3.25-.11 4.87a.4.4 0 0 0 .8 0c0-1.62.08-3.25.11-4.87a.4.4 0 0 0-.8 0zM87.21 25.86h-2.06a.4.4 0 0 0 0 .8h1.91v3.69a.4.4 0 0 0 .8 0v-4.18a.41.41 0 0 0-.65-.31z" fill="#757575"/><path d="M108.93 24.6c-1-.78-2.54-.5-3.77-.05a21.54 21.54 0 0 1-.1-2.89 33 33 0 0 0 3.85 0 .61.61 0 0 0 0-1.21c-1.49 0-3 .05-4.44-.05a.63.63 0 0 0-.62.62 22.42 22.42 0 0 0 .15 4.41.64.64 0 0 0 1 .55 4.9 4.9 0 0 1 2.53-.56 1.59 1.59 0 0 1 .83 2.55c-1 1.55-2.89 1-3.82-.21-.55-.7-1.56.29-1 1 1.79 2.15 5.46 1.87 6.28-1a3 3 0 0 0-.89-3.16zM116.89 21.17c-.64-1.51-3.59-.62-4.5.4-1.66 1.86-1.21 5.49.18 7.37 1.26 1.69 3.66 2 4.91.11a7.18 7.18 0 0 0-.27-7.67.66.66 0 0 0-.32-.21zm-2.61 7.69c-1.3-.64-1.69-2.81-1.67-4.07a4.14 4.14 0 0 1 .32-1.74c.31-.63 2.08-2.11 3.08-1.34a.54.54 0 0 0 .1.31 5.43 5.43 0 0 1 1 3.38c.01 1.49-.56 4.6-2.83 3.46zM123.41 23a4.1 4.1 0 0 0-2.07 1.21v-.52c-.07-.53-.94-.79-1.05-.14a58.34 58.34 0 0 0-.38 8.77c0 1 1.52.77 1.41 0s.07-1.86.11-2.81a3.61 3.61 0 0 0 3 .62c2-.63 2.21-2.89 2-4.63s-1.26-2.89-3.02-2.5zm.66 5.71a2.06 2.06 0 0 1-2.35-1 .64.64 0 0 0-.27-.29V26a4.18 4.18 0 0 1 1.23-1.42 2 2 0 0 1 1.66-.41c.65.28.68 1 .74 1.57.09 1.02.09 2.53-1.01 2.97zM133.45 28.74c-.73-.8-1.44-1.65-2.18-2.49a18.86 18.86 0 0 0 1.5-2.25.58.58 0 0 0-.91-.7 17.24 17.24 0 0 0-1.61 1.79 18.54 18.54 0 0 0-2.31-2.09c-.44-.34-1 .3-.73.73a19.31 19.31 0 0 0 2 2.73c-.67.92-1.32 1.84-2 2.7a.71.71 0 1 0 1.11.86c.59-.81 1.24-1.6 1.89-2.41.71.78 1.42 1.54 2.08 2.3s1.91-.5 1.16-1.17zM234.76 23.57c-.46.43.13 1.08.65.83 1.46-.69 3.21-.93 3.33 1.2v.54c-1.6-.81-4.43-.7-4.38 1.39.06 2.27 2.72 2.49 4.39 1.62a.64.64 0 0 0 1.27 0c0-1.71.53-4.45-.77-5.85-1.16-1.22-3.36-.79-4.49.27zm3.89 4.15a3.23 3.23 0 0 1-1.6.65c-.64.09-2-.28-1.3-1.15s2.1-.18 3 .08v.35zM246.44 23.1c-.35 1.35.23 4.81-1.53 5.23-2 .48-1.51-3.74-1.68-5.07a.57.57 0 0 0 0-.13.44.44 0 0 0-.1-.22.55.55 0 0 0-.76 0c-.42.39-.27 1.05-.27 1.57a16.24 16.24 0 0 0 .13 2.51c.2 1.16.77 2.49 2.07 2.71a2.45 2.45 0 0 0 2.19-.81v.47a.64.64 0 0 0 1.28 0c0-2-.08-4-.09-6.06a.6.6 0 0 0-1.24-.2zM252 28.56c-.86.71-1-1.71-1-2v-2-.31a3 3 0 0 0 1.23-.11.62.62 0 0 0 0-1.18 4 4 0 0 0-1.2-.06 10.86 10.86 0 0 0-.08-1.61c-.07-.43-.72-.37-.82 0a13.08 13.08 0 0 0-.24 1.61 2.33 2.33 0 0 1-.37 0c-.61-.14-1.09.8-.45 1.07a2.76 2.76 0 0 0 .73.21c-.14 3.11.27 7.26 3.06 5.48.72-.56-.12-1.66-.86-1.1zM260.12 25.6a3.48 3.48 0 0 0-3.91-3h-.1c-1.74-.1-2.66 2-2.57 3.54a4.14 4.14 0 0 0 .85 2.62 3.3 3.3 0 0 0 2.69.82 3.55 3.55 0 0 0 3.04-3.98zm-3 2.71a2 2 0 0 1-1.86-.42 3.17 3.17 0 0 1-.5-1.72 2.13 2.13 0 0 1 1.4-2.39.58.58 0 0 0 .19 0c2.71-.14 3.52 3.91.8 4.53zM3.23 286.28c-.46.44.13 1.09.65.84 1.46-.7 3.21-.94 3.33 1.19v.54c-1.61-.8-4.43-.69-4.38 1.4.06 2.27 2.71 2.48 4.38 1.62a.64.64 0 0 0 1.28 0c0-1.71.52-4.45-.78-5.84s-3.35-.8-4.48.25zm3.89 4.16a3.26 3.26 0 0 1-1.61.65c-.63.09-2-.29-1.3-1.16s2.1-.17 3 .09v.35zM14.91 285.82c-.35 1.35.23 4.8-1.54 5.22-2 .48-1.5-3.74-1.67-5.06a.27.27 0 0 0 0-.13.61.61 0 0 0-.11-.21.55.55 0 0 0-.77 0c-.42.39-.26 1.05-.26 1.56a16.31 16.31 0 0 0 .13 2.52c.2 1.16.77 2.49 2.07 2.71a2.46 2.46 0 0 0 2.18-.81v.47a.64.64 0 0 0 1.28 0c0-2-.08-4-.09-6.06a.6.6 0 0 0-1.22-.21zM20.45 291.28c-.87.71-1-1.72-1.05-2v-2-.3a3.15 3.15 0 0 0 1.23-.11.62.62 0 0 0 0-1.19 4 4 0 0 0-1.2 0 9.6 9.6 0 0 0-.09-1.61c-.06-.43-.71-.38-.81 0a10.89 10.89 0 0 0-.24 1.61 2.21 2.21 0 0 1-.37 0c-.61-.14-1.09.8-.45 1.07a3.79 3.79 0 0 0 .73.21c-.14 3.11.27 7.25 3.05 5.48a.66.66 0 1 0-.8-1.16zM28.59 288.31a3.48 3.48 0 0 0-3.91-3 .18.18 0 0 0-.1 0c-1.74-.1-2.66 2-2.57 3.53a4 4 0 0 0 .85 2.62 3.3 3.3 0 0 0 2.69.83 3.56 3.56 0 0 0 3.04-3.98zm-3 2.72a2 2 0 0 1-1.86-.42 3.12 3.12 0 0 1-.5-1.73 2.12 2.12 0 0 1 1.4-2.39.58.58 0 0 0 .19 0c2.71-.13 3.52 3.92.8 4.51z" fill="#1e1e1e"/><path d="M24.93 115.39c1.79 0 3.58-.1 5.37-.11a.4.4 0 0 0 0-.8c-1.79 0-3.58.08-5.37.11a.4.4 0 0 0 0 .8zM33.86 115.45h4.68a.4.4 0 0 0 0-.8h-4.68a.4.4 0 0 0 0 .8zM21.75 114.64h-4.68a.4.4 0 0 0-.31.64c0 1.71.07 3.42.1 5.13a.4.4 0 0 0 .8 0c0-1.66-.08-3.32-.1-5h4.19a.4.4 0 0 0 0-.77zM17.72 128.27v-4.67a.4.4 0 0 0-.8 0v4.67a.4.4 0 0 0 .8 0zM24.93 49.39c1.79 0 3.58-.1 5.37-.11a.4.4 0 0 0 0-.8c-1.79 0-3.58.08-5.37.11a.4.4 0 0 0 0 .8zM33.86 49.45h4.68a.4.4 0 0 0 0-.8h-4.68a.4.4 0 0 0 0 .8zM21.75 48.64h-4.68a.4.4 0 0 0-.31.64c0 1.71.07 3.42.1 5.13a.4.4 0 0 0 .8 0c0-1.66-.08-3.32-.1-5h4.19a.4.4 0 0 0 0-.77zM17.72 62.27v-4.68a.4.4 0 0 0-.8 0v4.68a.4.4 0 0 0 .8 0zM24.93 220.53c1.79 0 3.58.1 5.37.11a.4.4 0 0 0 0-.8c-1.79 0-3.58-.08-5.37-.11a.4.4 0 0 0 0 .8zM33.86 220.47h4.68a.4.4 0 0 0 0-.8h-4.68a.4.4 0 0 0 0 .8zM21.75 219.68h-4.19c0-1.65.07-3.31.1-5a.4.4 0 0 0-.8 0c0 1.71-.09 3.42-.1 5.13a.4.4 0 0 0 .31.64h4.68a.4.4 0 0 0 0-.77zM16.92 206.85v4.67a.4.4 0 0 0 .8 0v-4.67a.4.4 0 0 0-.8 0zM17.64 137.33c0-1.79 0-3.59.06-5.38a.4.4 0 0 0-.8 0c0 1.79 0 3.59-.06 5.38a.4.4 0 0 0 .8 0zM24.93 108.75c1.79 0 3.58.1 5.37.11a.4.4 0 0 0 0-.8c-1.79 0-3.58-.08-5.37-.11a.4.4 0 0 0 0 .8zM33.86 108.69h4.68a.4.4 0 0 0 0-.8h-4.68a.4.4 0 0 0 0 .8zM21.75 107.9h-4.19c0-1.66.07-3.31.1-5a.4.4 0 0 0-.8 0c0 1.71-.09 3.42-.1 5.13a.4.4 0 0 0 .31.64h4.68a.4.4 0 0 0 0-.77zM16.92 95.06v4.68a.4.4 0 0 0 .8 0v-4.68a.4.4 0 0 0-.8 0zM16.92 65.66v4.68a.4.4 0 0 0 .8 0v-4.68a.4.4 0 0 0-.8 0zM17.47 145.88l.09-4.68a.4.4 0 0 0-.8 0l-.09 4.68a.4.4 0 0 0 .8 0zM17.47 155.08l.09-4.68a.4.4 0 0 0-.8 0l-.09 4.68a.4.4 0 0 0 .8 0zM24.93 227.6c1.79 0 3.58-.1 5.37-.11a.4.4 0 0 0 0-.8c-1.79 0-3.58.08-5.37.11a.4.4 0 0 0 0 .8zM33.86 227.66h4.68a.4.4 0 0 0 0-.8h-4.68a.4.4 0 0 0 0 .8zM21.75 226.85h-4.68a.4.4 0 0 0-.31.64c0 1.71.07 3.42.1 5.13a.4.4 0 0 0 .8 0c0-1.66-.08-3.32-.1-5h4.19a.4.4 0 0 0 0-.77zM17.72 240.48v-4.68a.4.4 0 0 0-.8 0v4.68a.4.4 0 0 0 .8 0zM17.64 249.54c0-1.8 0-3.59.06-5.38a.4.4 0 0 0-.8 0c0 1.79 0 3.58-.06 5.38a.4.4 0 0 0 .8 0zM17.47 258.09l.09-4.68a.4.4 0 0 0-.8 0l-.09 4.68a.4.4 0 0 0 .8 0zM17.72 185.21v-4.68a.4.4 0 0 0-.8 0v4.68a.4.4 0 0 0 .8 0zM17.64 194.26c0-1.79 0-3.58.06-5.37a.4.4 0 0 0-.8 0c0 1.79 0 3.58-.06 5.37a.4.4 0 0 0 .8 0zM17.72 267.47v-4.68a.4.4 0 0 0-.8 0v4.68a.4.4 0 0 0 .8 0zM17.64 276.52c0-1.79 0-3.58.06-5.37a.4.4 0 0 0-.8 0c0 1.79 0 3.58-.06 5.37a.4.4 0 0 0 .8 0zM24.93 351.89c1.79 0 3.58.1 5.37.11a.4.4 0 0 0 0-.8c-1.79 0-3.58-.08-5.37-.11a.4.4 0 0 0 0 .8zM33.86 351.83h4.68a.4.4 0 0 0 0-.8h-4.68a.4.4 0 0 0 0 .8zM21.75 351h-4.19c0-1.66.07-3.31.1-5a.4.4 0 0 0-.8 0c0 1.71-.09 3.42-.1 5.13a.4.4 0 0 0 .31.64h4.68a.4.4 0 0 0 0-.77zM16.92 338.21v4.67a.4.4 0 0 0 .8 0v-4.67a.4.4 0 0 0-.8 0zM16.84 329.15c0 1.79 0 3.58.06 5.38a.4.4 0 0 0 .8 0c0-1.8 0-3.59-.06-5.38a.4.4 0 0 0-.8 0zM16.67 320.6l.09 4.68a.4.4 0 0 0 .8 0l-.09-4.68a.4.4 0 0 0-.8 0zM16.92 311.22v4.68a.4.4 0 0 0 .8 0v-4.68a.4.4 0 0 0-.8 0zM16.84 302.17c0 1.79 0 3.58.06 5.37a.4.4 0 0 0 .8 0c0-1.79 0-3.58-.06-5.37a.4.4 0 0 0-.8 0zM17.47 202.81l.09-4.67a.4.4 0 0 0-.8 0l-.09 4.67a.4.4 0 0 0 .8 0z" fill="#757575"/><path d="M12.19 86.39A29 29 0 0 0 7.84 86c1.76-1.73 4.65-3.51 4.16-6-.21-1-.6-1.73-1.68-1.88-1.29-.19-3.22 0-4.12 1a.42.42 0 0 0 .29.72c1 0 2-.62 3-.47 1.83.27 1.22 1.77.43 2.76-1.23 1.52-2.85 2.62-3.92 4.26a.61.61 0 0 0 .52.91 27.2 27.2 0 0 1 5.33.43c.86.19 1.21-1.21.34-1.34zM17 81.67a5.19 5.19 0 0 0-1.51.65l-.08.05a1.1 1.1 0 0 0-.06-.33 8.15 8.15 0 0 0 0-3 40.37 40.37 0 0 0 4.4 0 .58.58 0 0 0 0-1.15 49.15 49.15 0 0 0-5.15-.19.64.64 0 0 0-.6.8c.36 1.62-.41 3.54.16 5.07a.63.63 0 0 0 .43.44c.75.11 1.09-.47 1.74-.78 1.07-.52 3.26-.9 3.05 1.42s-3.06 2.24-4.11.76c-.46-.66-1.56 0-1.08.63a3.56 3.56 0 0 0 4.43 1.39 3.47 3.47 0 0 0 1.84-4.31A3.07 3.07 0 0 0 17 81.67zM26.26 80.87c.33-.93-.4-2.56-1.5-2.56a.27.27 0 0 0-.13-.13 1.88 1.88 0 0 0-2.57 1.15 2.24 2.24 0 1 0 4.2 1.54zm-3-1.23a1.44 1.44 0 0 1 1.05-.64.33.33 0 0 0 .09.16c.33.31.83.58.85 1.11 0 .68-.92 1.09-1.45.87a1.14 1.14 0 0 1-.57-1.5zM30 78.76c.25-.48-.41-1.07-.8-.61A42.39 42.39 0 0 0 23.55 87a.55.55 0 0 0 1 .55c1-1.37 1.87-2.91 2.79-4.36s1.9-2.9 2.66-4.43zM30.46 83.18a.55.55 0 0 0-.53 0 2.52 2.52 0 0 0-1.16-.08 2.77 2.77 0 0 0-1.61 1.19 2.53 2.53 0 0 0 1.15 3.13c2.55 1.37 4.45-3.08 2.15-4.24zm-1.78 2.94a1.55 1.55 0 0 1-.4-.77.68.68 0 0 1 .33-.76 2.77 2.77 0 0 1 1.2-.56l.09.09c1.26.88-.04 3.16-1.22 2zM4 162.84c.06-.56-.68-.74-1-.43-.72.64-1.47 1.23-2.23 1.8-.61.46-.08 1.46.61 1a11.06 11.06 0 0 0 1.36-1v2.53A21.21 21.21 0 0 1 2.8 171c-.12.78 1.08 1.12 1.2.33a16.08 16.08 0 0 0-.09-3.92 29.57 29.57 0 0 1 .09-4.57zM11.26 162.74a3.08 3.08 0 0 0-4.56.92 6.85 6.85 0 0 0 0 6.71c1.32 1.83 4.11 1.33 5.23-.44 1.25-2 1.55-5.29-.24-7a.58.58 0 0 0-.43-.19zm.24 5a4.11 4.11 0 0 1-1 2 2 2 0 0 1-3.3-1c-.72-2.4.44-7.3 3.71-4.84a.27.27 0 0 0 .11.05 4.38 4.38 0 0 1 .48 3.84zM19.64 162.37a.46.46 0 0 0-.51 0c-4.14-2.36-6.59 6.06-3.33 8.75 1.81 1.5 4.27.21 5.18-1.65 1.15-2.36.83-5.54-1.34-7.1zm.49 5.65c-.46 1.56-2 3.18-3.58 1.95-1.24-.95-1.3-3.05-1-4.45a3.27 3.27 0 0 1 1.27-2.13 2.89 2.89 0 0 1 2.32.18 4.37 4.37 0 0 1 .99 4.43zM27.52 164.84a4 4 0 0 0-3.35.95v-.56c0-.6-1-.8-1.09-.15a53.28 53.28 0 0 0-.32 8.75.62.62 0 0 0 1.24 0c0-1 .09-2.08.13-3.13a4.9 4.9 0 0 0 2.76.67 2.83 2.83 0 0 0 2.69-3.07c.02-1.4-.5-3.12-2.06-3.46zm-.64 5.21c-.81.12-2.26-.2-2.48-1.09a.64.64 0 0 0-.23-.35v-1.31a3.55 3.55 0 0 1 2.33-1.3c1.33-.16 1.72.84 1.72 2 .01 1-.22 1.89-1.34 2.05zM33.72 168.36c.68-.82 1.89-1.87 2-3 0-.25-.15-.53-.44-.44-1 .31-1.76 1.41-2.43 2.28a9.51 9.51 0 0 0-1.84-2.41.42.42 0 0 0-.63.36 7.21 7.21 0 0 0 1.5 3.19 21.47 21.47 0 0 0-1.88 2.47c-.39.62.48 1.25 1 .77a20.39 20.39 0 0 0 1.77-2 8.9 8.9 0 0 0 2 2.1c.78.57 1.5-.72.75-1.29a8.22 8.22 0 0 1-1.8-2.03z" fill="#1e1e1e"/><path d="M455 46.48h-4.68a.4.4 0 0 0 0 .8H455a.4.4 0 0 0 0-.8zM464.06 46.4q-2.69 0-5.37.06a.4.4 0 0 0 0 .8l5.37-.06a.4.4 0 0 0 0-.8z" fill="#757575"/><path d="M470.18 33.41a.49.49 0 0 0 0-1 23 23 0 0 0-2.35 0 .52.52 0 0 0-.5.5c-.22 3.62-.68 7.58-.27 11.19a.63.63 0 0 0 .45.59 8.72 8.72 0 0 0 2.5.08c.83 0 .82-1.35 0-1.28-.26 0-1.65 0-1.78.32v-.73-3c0-2.23-.06-4.47.07-6.69.63.08 1.24.08 1.88.02zM479.24 34.53a.56.56 0 0 0-.95-.39c-.69.67-1.45 1.26-2.14 1.94a.5.5 0 0 0 .61.79A6.37 6.37 0 0 0 478 36a39.55 39.55 0 0 0 0 6.62c.08.82 1.36.85 1.31 0a70.61 70.61 0 0 1-.07-8.09zM488.86 33c0-.37-.32-.62-.64-.65-.65-.05-2.34-.45-2.73.35a.53.53 0 0 0 .33.76 10.8 10.8 0 0 0 1.72.12 82.7 82.7 0 0 0-.18 9.83c-.57.08-1.14.14-1.71.2-.87.09-.88 1.47 0 1.38s1.62-.21 2.43-.27a.71.71 0 0 0 .69-.7c.23-3.69-.27-7.41.09-11.02zM470.18 49.92a.49.49 0 0 0 0-1 20.44 20.44 0 0 0-2.35 0 .51.51 0 0 0-.5.5c-.22 3.61-.68 7.58-.27 11.19a.65.65 0 0 0 .45.59 8.72 8.72 0 0 0 2.5.08c.83 0 .82-1.35 0-1.28-.26 0-1.65 0-1.78.32v-.73-3c0-2.23-.06-4.47.07-6.7.63.11 1.24.11 1.88.03zM488.86 49.46c0-.36-.32-.62-.64-.64-.65 0-2.34-.45-2.73.35a.53.53 0 0 0 .33.76 12.11 12.11 0 0 0 1.72.12 82.66 82.66 0 0 0-.18 9.83c-.57.08-1.14.14-1.71.2-.87.09-.88 1.47 0 1.37s1.62-.2 2.43-.27a.71.71 0 0 0 .69-.7c.23-3.64-.27-7.36.09-11.02zM474.23 54.93c-.94.09-1.93-.17-2.86 0a.51.51 0 0 0-.12.92 8.07 8.07 0 0 0 3 .31c.75.02.75-1.3-.02-1.23zM482.86 55.93h-.76v-1.7a9.67 9.67 0 0 0-.42-3.76.3.3 0 0 0-.4-.16.44.44 0 0 0-.59.1 70 70 0 0 0-4.2 5.9.61.61 0 0 0 .53.92h3.67l-.06 1.83c0 .94 1.42.94 1.44 0V57.2h.77c.87.02.87-1.31.02-1.27zm-4.66.1c.85-1.18 1.72-2.36 2.5-3.59 0 .72.05 1.45.05 2.14V56h-2.55z" fill="#1e1e1e"/><path d="M455 111h-4.68a.4.4 0 0 0 0 .8H455a.4.4 0 0 0 0-.8zM464.06 110.89c-1.79 0-3.58 0-5.37.06a.4.4 0 0 0 0 .8c1.79 0 3.58 0 5.37-.06a.4.4 0 0 0 0-.8zM455 222.26h-4.68a.4.4 0 0 0 0 .8H455a.4.4 0 0 0 0-.8zM464.06 222.18l-5.37.06a.4.4 0 0 0 0 .8q2.69 0 5.37-.06a.4.4 0 0 0 0-.8z" fill="#757575"/><path d="M470.18 225.69a.49.49 0 0 0 0-1 20.44 20.44 0 0 0-2.35 0 .51.51 0 0 0-.5.49c-.22 3.62-.68 7.58-.27 11.2a.63.63 0 0 0 .45.58 8.37 8.37 0 0 0 2.5.09c.83 0 .82-1.35 0-1.28-.26 0-1.65 0-1.78.32v-.73-3c0-2.23-.06-4.47.07-6.7a17 17 0 0 0 1.88.03zM488.86 225.24c0-.36-.32-.62-.64-.64-.65 0-2.34-.45-2.73.35a.53.53 0 0 0 .33.76 12.11 12.11 0 0 0 1.72.12 82.63 82.63 0 0 0-.18 9.83c-.57.08-1.14.13-1.71.2-.87.09-.88 1.47 0 1.37s1.62-.2 2.43-.27a.71.71 0 0 0 .69-.7c.23-3.64-.27-7.36.09-11.02zM474.23 230.71c-.94.09-1.93-.17-2.86 0a.51.51 0 0 0-.12.92 8.07 8.07 0 0 0 3 .31c.75.06.75-1.3-.02-1.23zM481.91 234.09a35.73 35.73 0 0 1-3.87.24 35.09 35.09 0 0 0 2.5-3.06c.68-1 1.63-2.33 1.32-3.6-.58-2.41-4.21-1.71-5.59-.53-.52.44.14 1.18.69.9a3.85 3.85 0 0 1 2.74-.63c1.41.47.58 1.85 0 2.72a36.51 36.51 0 0 1-3.63 4.41.67.67 0 0 0 .47 1.13c1.79 0 3.56-.07 5.35-.15.96-.04.92-1.52.02-1.43zM470.18 114.4a.49.49 0 0 0 0-1 20.44 20.44 0 0 0-2.35 0 .51.51 0 0 0-.5.49c-.22 3.62-.68 7.58-.27 11.19a.63.63 0 0 0 .45.59 8.37 8.37 0 0 0 2.5.09c.83 0 .82-1.35 0-1.29-.26 0-1.65 0-1.78.32v-.72-3c0-2.23-.06-4.47.07-6.7a17 17 0 0 0 1.88.03zM474.23 119.42c-.94.09-1.93-.17-2.86 0a.51.51 0 0 0-.12.92 8.28 8.28 0 0 0 3 .31c.75.01.75-1.3-.02-1.23zM480.7 119.46a2.38 2.38 0 0 0 1.24-3.27c-.83-1.84-4.41-1.62-5.49-.19-.33.44.29.93.7.71.76-.41 3.56-1.06 3.68.47.1 1.28-1.43 1.55-2.38 1.74-.75.14-.48 1.16.17 1.23a4.74 4.74 0 0 1 2.08.58c1.05.75.79 2-.41 2.52-1.36.61-2.17-.29-3.07-1.16-.63-.61-1.59.35-1 1 .95.91 1.41 1.83 2.88 1.82a4 4 0 0 0 3.29-1.65c1.1-1.91-.14-3.14-1.69-3.8zM489.05 113.49a.61.61 0 0 0-.59-.6 16.6 16.6 0 0 0-2.34.11c-.86.14-.51 1.54.36 1.33l1.43-.18c.13 1.94.21 3.88.15 5.83a26.57 26.57 0 0 0-.08 4.18l-1.55-.1c-.62 0-.75 1-.14 1.09a6.13 6.13 0 0 0 2.45.07c.29 0 .41-.39.36-.64-.38-1.75 0-3.7 0-5.47s.07-3.74-.05-5.62zM470.2 96.68c-.81.08-1.61.2-2.42.27a.72.72 0 0 0-.7.7c-.2 3.66.27 7.38-.1 11 0 .36.33.61.64.64.65 0 2.34.45 2.73-.35a.52.52 0 0 0-.32-.76 11 11 0 0 0-1.73-.12 78.64 78.64 0 0 0 .18-9.83c.57-.08 1.14-.14 1.71-.2.88-.03.89-1.45.01-1.35zM480.87 106.6c-1.4.06-2.81.1-4.21.14 1-1.12 2-2.24 3-3.43a3.65 3.65 0 0 0 1.1-2.94c-.48-2.77-4.45-1.76-6.07-.77a.55.55 0 0 0 .55 1 4.4 4.4 0 0 1 3-.78c2 .42 1.26 1.71.47 2.72-1.21 1.57-2.6 3-3.93 4.49a.63.63 0 0 0 .44 1.06c.94 0 1.87-.09 2.81-.07s1.9.17 2.85.17.98-1.63-.01-1.59zM488.81 97.36a.64.64 0 0 0-.63-.63c-.85 0-1.68.06-2.52.17-.64.09-.43 1 .14 1.08s1.15 0 1.72 0c-.15 3.32-.19 6.65-.12 10l-1.68.14c-.85.07-.85 1.4 0 1.33l2.35-.21a.66.66 0 0 0 .65-.66c-.13-3.75-.09-7.48.09-11.22zM470.18 209.19a.49.49 0 0 0 0-1 20.44 20.44 0 0 0-2.35 0 .52.52 0 0 0-.5.5c-.22 3.62-.68 7.58-.27 11.19a.64.64 0 0 0 .45.59 8.72 8.72 0 0 0 2.5.08c.83 0 .82-1.35 0-1.28-.26 0-1.65 0-1.78.32v-.73-3c0-2.23-.06-4.47.07-6.69.63.08 1.24.08 1.88.02zM479.16 214a2.29 2.29 0 0 0 1.29-3.33c-.87-1.79-4.16-1.46-5.4-.24-.43.42.13 1.18.65.85a5.11 5.11 0 0 1 3.14-.57c.71.26.77.81.48 1.46a2.79 2.79 0 0 1-2.34 1.26.57.57 0 0 0 0 1.13 8.63 8.63 0 0 1 1.33.24c1.22.38 1.77 2.21.44 2.89a2.53 2.53 0 0 1-3-.83c-.53-.6-1.48.34-.88.87 1 .93 1.76 1.5 3.23 1.33a3.63 3.63 0 0 0 2.72-1.44c1.08-1.75-.14-2.94-1.66-3.62zM488.52 208.72a.6.6 0 0 0-.59-.59 16.74 16.74 0 0 0-2.35.11c-.85.14-.51 1.54.37 1.33.48-.07.95-.13 1.43-.18.13 1.94.21 3.88.15 5.83a26.55 26.55 0 0 0-.08 4.18l-1.55-.1c-.62-.06-.75.95-.14 1.08a5.9 5.9 0 0 0 2.44.08.53.53 0 0 0 .37-.64c-.38-1.75 0-3.7.05-5.47s.02-3.75-.1-5.63z" fill="#1e1e1e"/><path d="M455 352.32h-4.68a.4.4 0 0 0 0 .8H455a.4.4 0 0 0 0-.8zM464.06 352.24l-5.37.06a.4.4 0 0 0 0 .8l5.37-.06a.4.4 0 0 0 0-.8z" fill="#757575"/><path d="M488.81 355.34a.63.63 0 0 0-.45-.59 8.73 8.73 0 0 0-2.5-.08c-.83 0-.82 1.35 0 1.28.26 0 1.65 0 1.77-.32a6.91 6.91 0 0 1 0 .73v3c0 2.23.05 4.47-.07 6.69-.63 0-1.24 0-1.88.06a.49.49 0 0 0 0 1 23 23 0 0 0 2.35 0 .52.52 0 0 0 .5-.5c.23-3.7.69-7.61.28-11.27zM470.22 354.53c-.8.09-1.61.21-2.42.27a.72.72 0 0 0-.7.7c-.19 3.67.27 7.39-.09 11 0 .37.32.62.64.65.65 0 2.34.44 2.73-.35a.53.53 0 0 0-.33-.76 9.82 9.82 0 0 0-1.72-.12 82.83 82.83 0 0 0 .18-9.84l1.7-.19c.89-.07.9-1.45.01-1.36zM474.23 360.77c-.94.09-1.93-.17-2.86 0a.51.51 0 0 0-.12.92 8.07 8.07 0 0 0 3 .31c.75 0 .75-1.3-.02-1.23zM479.93 356.7a9.48 9.48 0 0 0-2.53 2.4c-.39.56.47 1.19.94.72s.77-.78 1.17-1.14a31.5 31.5 0 0 0 0 7c.12.72 1.15.48 1.2-.16.2-2.74-.08-5.51.16-8.26a.64.64 0 0 0-.94-.56zM488.69 338.83a.65.65 0 0 0-.45-.59 8.73 8.73 0 0 0-2.5-.08c-.84 0-.82 1.35 0 1.28.25 0 1.64 0 1.77-.32a6.78 6.78 0 0 1 0 .73v3c0 2.23.06 4.47-.07 6.7-.62 0-1.24 0-1.87.05a.49.49 0 0 0 0 1 20.48 20.48 0 0 0 2.35 0 .51.51 0 0 0 .49-.5c.23-3.69.68-7.66.28-11.27zM469.79 349.21l-1.43.18a56.86 56.86 0 0 1-.14-5.84 29.2 29.2 0 0 0 .08-4.18l1.54.1c.62.06.76-1 .15-1.08a6.32 6.32 0 0 0-2.45-.08.52.52 0 0 0-.36.64c.38 1.75 0 3.7-.05 5.47s0 3.75.09 5.63a.61.61 0 0 0 .6.59 15.22 15.22 0 0 0 2.34-.11c.84-.14.51-1.53-.37-1.32zM481 345.83l-1.26-.15v-1.59a14 14 0 0 0-.4-4 .49.49 0 0 0-.45-.32.41.41 0 0 0-.48 0c-2 1.41-3.3 3.9-4.25 6.06a.62.62 0 0 0 .53.92 25.1 25.1 0 0 1 3.68.07v1.78a.65.65 0 0 0 1.3 0c.05-.53.08-1.07.09-1.61.29.05.59.08.88.14.91.19 1.25-1.13.36-1.3zm-5.36-.32a19.19 19.19 0 0 1 1.24-2.21 23.09 23.09 0 0 1 1.42-1.84v4.1c-.82-.06-1.72-.07-2.62-.05z" fill="#1e1e1e"/><path d="M45 363.56v-4.68a.4.4 0 0 0-.8 0v4.68a.4.4 0 0 0 .8 0zM45.1 372.61q0-2.69-.06-5.37a.4.4 0 0 0-.8 0q0 2.68.06 5.37a.4.4 0 0 0 .8 0zM91.14 363.56v-4.68a.4.4 0 0 0-.8 0v4.68a.4.4 0 0 0 .8 0zM91.22 372.61c0-1.79 0-3.58-.06-5.37a.4.4 0 0 0-.8 0c0 1.79 0 3.58.06 5.37a.4.4 0 0 0 .8 0zM147.49 363.56v-4.68a.4.4 0 0 0-.8 0v4.68a.4.4 0 0 0 .8 0zM147.57 372.61l-.06-5.37a.4.4 0 0 0-.8 0l.06 5.37a.4.4 0 0 0 .8 0zM344.84 367.93v4.68a.4.4 0 0 0 .8 0v-4.68a.4.4 0 0 0-.8 0zM344.76 358.88c0 1.79 0 3.58.05 5.37a.4.4 0 0 0 .8 0c0-1.79 0-3.58-.05-5.37a.4.4 0 0 0-.8 0zM402.6 367.93v4.68a.4.4 0 0 0 .8 0v-4.68a.4.4 0 0 0-.8 0zM402.52 358.88q0 2.69.06 5.37a.4.4 0 0 0 .8 0q0-2.69-.06-5.37a.4.4 0 0 0-.8 0zM447.49 363.56v-4.68a.4.4 0 0 0-.8 0v4.68a.4.4 0 0 0 .8 0zM447.56 372.61c0-1.79 0-3.58-.05-5.37a.4.4 0 0 0-.8 0c0 1.79 0 3.58.05 5.37a.4.4 0 0 0 .8 0z" fill="#757575"/><path d="M36.94 376.91a.49.49 0 0 0 0-1 23 23 0 0 0-2.35 0 .51.51 0 0 0-.49.5c-.23 3.62-.68 7.58-.28 11.19a.63.63 0 0 0 .45.59 8.73 8.73 0 0 0 2.5.08c.83 0 .82-1.34 0-1.28-.25 0-1.64 0-1.77.32a6.91 6.91 0 0 1 0-.73v-3c0-2.23-.05-4.47.07-6.69.62.11 1.23.11 1.87.02zM46 378a.56.56 0 0 0-1-.39c-.69.67-1.45 1.26-2.14 1.94a.51.51 0 0 0 .62.79 6.26 6.26 0 0 0 1.23-.85 39.43 39.43 0 0 0 0 6.61c.07.82 1.35.85 1.3 0A70.61 70.61 0 0 1 46 378zM55.62 376.46c0-.37-.32-.62-.64-.65-.65 0-2.34-.44-2.73.35a.54.54 0 0 0 .33.77 9.88 9.88 0 0 0 1.72.12 82.83 82.83 0 0 0-.18 9.84l-1.7.19c-.87.09-.88 1.47 0 1.38s1.61-.21 2.42-.27a.72.72 0 0 0 .7-.7c.18-3.66-.28-7.38.08-11.03zM44.52 399.43c0-2.49 1.57-5.3 4.24-3.25.55.43 1.09-.44.7-.91-1.89-2.26-5-.88-5.79 1.56C42.92 399 43 403.42 46 404c2.38.43 5.13-1.81 3.85-4.28-1.17-2.32-3.85-1.86-5.33-.29zm1.33 3.11c-.46-.17-.79-.81-1-1.37v-.06a2.73 2.73 0 0 1 1.69-1.66 1.66 1.66 0 0 1 2.17 1.69c-.09 1.17-1.78 1.79-2.86 1.4zM36.94 393.42a.49.49 0 0 0 0-1 20.48 20.48 0 0 0-2.35 0 .5.5 0 0 0-.49.5c-.23 3.61-.68 7.58-.28 11.19a.65.65 0 0 0 .45.59 8.73 8.73 0 0 0 2.5.08c.83 0 .82-1.35 0-1.28-.25 0-1.64 0-1.77.32a6.78 6.78 0 0 1 0-.73v-3c0-2.23-.05-4.47.07-6.7.62.09 1.23.08 1.87.03zM55.62 393c0-.36-.32-.61-.64-.64-.65-.05-2.34-.45-2.73.35a.53.53 0 0 0 .33.76 11 11 0 0 0 1.72.12 82.66 82.66 0 0 0-.18 9.83c-.56.08-1.13.14-1.7.2-.87.09-.88 1.47 0 1.38s1.61-.21 2.42-.28a.71.71 0 0 0 .7-.69c.18-3.69-.28-7.41.08-11.03zM41 398.43c-1 .09-1.94-.17-2.86 0a.51.51 0 0 0-.12.92 8 8 0 0 0 3 .31c.77.02.75-1.3-.02-1.23zM83.32 375.7c-.81.08-1.61.2-2.42.27a.72.72 0 0 0-.7.7c-.2 3.66.27 7.38-.1 11a.66.66 0 0 0 .64.64c.65 0 2.34.45 2.73-.35a.52.52 0 0 0-.32-.76 12.36 12.36 0 0 0-1.73-.12 80.57 80.57 0 0 0 .18-9.83c.57-.08 1.14-.13 1.71-.2.88-.05.89-1.45.01-1.35zM94 385.62c-1.4.06-2.81.1-4.21.15 1-1.13 2-2.25 3-3.44a3.61 3.61 0 0 0 1.11-2.94c-.48-2.77-4.45-1.76-6.07-.77a.55.55 0 0 0 .55.95 4.34 4.34 0 0 1 3-.77c2 .41 1.26 1.7.47 2.72-1.21 1.56-2.61 3-3.93 4.48a.63.63 0 0 0 .44 1.06c.94.05 1.87-.09 2.81-.07s1.89.17 2.85.17.98-1.58-.02-1.54zM101.92 376.38a.63.63 0 0 0-.62-.63c-.85 0-1.68.06-2.52.18-.65.08-.43 1 .14 1.07s1.15 0 1.72 0c-.15 3.32-.19 6.65-.12 10l-1.68.14c-.85.07-.85 1.41 0 1.33l2.35-.21a.66.66 0 0 0 .65-.66c-.13-3.75-.09-7.48.08-11.22zM87.47 398.41h-1.7a2.38 2.38 0 0 0-1.43.23c-.23.18-.38.56-.1.78a2.12 2.12 0 0 0 1.42.34c.6 0 1.21.05 1.81 0a.68.68 0 0 0 0-1.35zM83.29 393.42a.49.49 0 0 0 0-1 20.31 20.31 0 0 0-2.34 0 .51.51 0 0 0-.5.49c-.22 3.62-.68 7.58-.27 11.2a.63.63 0 0 0 .45.58 8.36 8.36 0 0 0 2.5.09c.83 0 .82-1.35 0-1.28-.26 0-1.65 0-1.78.32v-.73-3c0-2.23-.06-4.47.07-6.7a16.69 16.69 0 0 0 1.87.03zM102.17 392.51a.59.59 0 0 0-.59-.59 15.22 15.22 0 0 0-2.34.1c-.86.14-.51 1.54.36 1.33l1.43-.18c.13 1.94.21 3.89.15 5.83a26.57 26.57 0 0 0-.08 4.18l-1.55-.1c-.62-.05-.75.95-.14 1.09a6.32 6.32 0 0 0 2.45.08.55.55 0 0 0 .36-.65c-.38-1.75 0-3.69 0-5.47s.07-3.74-.05-5.62zM95 398a5.08 5.08 0 0 0-3.1.13c0-.94.06-1.87 0-2.8a36.91 36.91 0 0 0 4.07.05c.56-.05.78-.93.14-1.05a23.23 23.23 0 0 0-4.79-.16.57.57 0 0 0-.57.57 17.86 17.86 0 0 1-.18 4 .66.66 0 0 0 1 .69 11.23 11.23 0 0 1 2-.4c1 0 2.14.29 2.17 1.51a2 2 0 0 1-2 2.13 2.6 2.6 0 0 1-2.36-1c-.55-.61-1.46.3-.9.9a3.87 3.87 0 0 0 3.95 1.31 3.23 3.23 0 0 0 2.61-3A2.59 2.59 0 0 0 95 398zM139.4 376.87a.49.49 0 0 0 0-1 20.48 20.48 0 0 0-2.35 0 .51.51 0 0 0-.5.5c-.22 3.61-.68 7.58-.27 11.19a.65.65 0 0 0 .45.59 8.73 8.73 0 0 0 2.5.08c.83 0 .82-1.35 0-1.28-.26 0-1.65 0-1.78.32v-.73-3c0-2.23-.06-4.47.07-6.7.63.09 1.24.08 1.88.03zM148.39 381.7a2.3 2.3 0 0 0 1.28-3.34c-.87-1.78-4.15-1.45-5.4-.23-.43.42.13 1.18.65.85a5.13 5.13 0 0 1 3.15-.57c.71.26.76.81.47 1.45a2.74 2.74 0 0 1-2.34 1.26.57.57 0 0 0 0 1.14 8.42 8.42 0 0 1 1.33.24c1.23.38 1.77 2.21.44 2.89a2.52 2.52 0 0 1-3-.84c-.53-.6-1.48.35-.88.88 1 .93 1.77 1.5 3.23 1.33a3.64 3.64 0 0 0 2.72-1.45c1.08-1.76-.14-2.96-1.65-3.61zM157.74 376.4a.6.6 0 0 0-.59-.59 15.22 15.22 0 0 0-2.34.11c-.86.14-.51 1.53.36 1.32l1.43-.18c.13 1.94.21 3.89.15 5.84a26.55 26.55 0 0 0-.08 4.18l-1.55-.1c-.62-.06-.75.95-.14 1.08a6.32 6.32 0 0 0 2.45.08.53.53 0 0 0 .36-.64c-.38-1.75 0-3.7.05-5.47s.02-3.75-.1-5.63zM139.4 393.37a.49.49 0 0 0 0-1 20.48 20.48 0 0 0-2.35 0 .51.51 0 0 0-.5.49c-.22 3.62-.68 7.58-.27 11.19a.63.63 0 0 0 .45.59 8.38 8.38 0 0 0 2.5.09c.83 0 .82-1.35 0-1.29-.26 0-1.65 0-1.78.32v-.72-3c0-2.22-.06-4.46.07-6.69a17 17 0 0 0 1.88.02zM158.08 392.92c0-.36-.32-.62-.64-.64-.65 0-2.34-.45-2.73.35a.53.53 0 0 0 .33.76 10.8 10.8 0 0 0 1.72.13 82.63 82.63 0 0 0-.18 9.83l-1.7.19c-.88.1-.89 1.48 0 1.38s1.61-.21 2.42-.27a.73.73 0 0 0 .7-.7c.18-3.65-.28-7.37.08-11.03zM143.45 398.39c-.94.09-1.93-.17-2.86 0a.51.51 0 0 0-.12.92 8.28 8.28 0 0 0 3 .31c.78.01.76-1.3-.02-1.23zM153 399.56q-.63-.09-1.26-.15v-1.59a14 14 0 0 0-.4-4 .49.49 0 0 0-.45-.32.42.42 0 0 0-.48 0c-2 1.41-3.3 3.91-4.25 6.07a.62.62 0 0 0 .53.92 24.94 24.94 0 0 1 3.67.07v1.78a.65.65 0 0 0 1.3 0c.05-.54.08-1.07.09-1.61.29 0 .59.08.88.14.91.18 1.25-1.19.37-1.31zm-5.36-.32a19.19 19.19 0 0 1 1.24-2.21 23.09 23.09 0 0 1 1.42-1.84v4.1c-.83-.06-1.73-.08-2.63-.05zM356 376.4a.63.63 0 0 0-.45-.59 8.73 8.73 0 0 0-2.5-.08c-.83 0-.82 1.35 0 1.28.25 0 1.64 0 1.77-.32a6.91 6.91 0 0 1 0 .73v3c0 2.23.05 4.47-.07 6.69-.63 0-1.24 0-1.88.06a.49.49 0 0 0 0 1 23 23 0 0 0 2.35 0 .51.51 0 0 0 .49-.5c.23-3.67.68-7.67.29-11.27zM337.1 386.77l-1.43.18a56.67 56.67 0 0 1-.15-5.83 29.23 29.23 0 0 0 .08-4.18l1.54.1c.62.06.76-1 .15-1.08a6 6 0 0 0-2.45-.08.52.52 0 0 0-.36.64c.38 1.75 0 3.7-.05 5.47s0 3.74.1 5.62a.61.61 0 0 0 .59.6 16.6 16.6 0 0 0 2.34-.11c.86-.1.54-1.54-.36-1.33zM348.34 383.4l-1.25-.15v-1.59a14.1 14.1 0 0 0-.4-4 .48.48 0 0 0-.45-.31.42.42 0 0 0-.48 0c-1.95 1.41-3.3 3.91-4.24 6.07a.62.62 0 0 0 .52.92 25.1 25.1 0 0 1 3.68.06v1.78a.65.65 0 0 0 1.29 0c.06-.53.08-1.06.09-1.6.29 0 .59.08.89.14.86.17 1.21-1.2.35-1.32zm-5.36-.32a19.19 19.19 0 0 1 1.24-2.21c.43-.65.94-1.24 1.42-1.84 0 .87 0 1.76.05 2.63v1.47c-.91-.06-1.81-.08-2.69-.05zM356.11 392.91a.63.63 0 0 0-.45-.59 8.37 8.37 0 0 0-2.5-.09c-.83 0-.82 1.35 0 1.29.26 0 1.65 0 1.78-.32V396.92c0 2.22.06 4.46-.07 6.69a17 17 0 0 0-1.88.06.49.49 0 0 0 0 1 20.48 20.48 0 0 0 2.35 0 .51.51 0 0 0 .5-.49c.22-3.7.68-7.66.27-11.27zM337.53 392.1c-.81.08-1.62.21-2.43.27a.71.71 0 0 0-.69.7c-.2 3.66.26 7.38-.1 11 0 .36.32.62.64.64.65.05 2.34.45 2.73-.35a.53.53 0 0 0-.33-.76 10.8 10.8 0 0 0-1.72-.13 82.63 82.63 0 0 0 .18-9.83l1.71-.19c.88-.07.89-1.45.01-1.35zM341.54 398.34c-1 .08-1.94-.17-2.87 0a.5.5 0 0 0-.12.91 7.89 7.89 0 0 0 3 .31c.78.02.76-1.3-.01-1.22zM348.53 398.37a2.39 2.39 0 0 0 1.25-3.27c-.84-1.83-4.42-1.61-5.5-.18-.33.44.29.93.71.7.75-.41 3.56-1.05 3.68.47.1 1.29-1.44 1.56-2.38 1.74-.76.15-.48 1.17.16 1.24a4.73 4.73 0 0 1 2.08.57c1.05.76.79 2-.41 2.52-1.36.62-2.16-.28-3.07-1.16-.63-.6-1.59.36-1 1 1 .9 1.41 1.82 2.88 1.81a4 4 0 0 0 3.3-1.65c1.1-1.89-.15-3.16-1.7-3.79zM395.24 393.28a.49.49 0 0 0 0-1 20.31 20.31 0 0 0-2.34 0 .51.51 0 0 0-.5.5c-.22 3.61-.68 7.58-.27 11.19a.65.65 0 0 0 .45.59 8.7 8.7 0 0 0 2.5.08c.83 0 .82-1.35 0-1.28-.26 0-1.65 0-1.78.32v-.73-3c0-2.23-.06-4.47.07-6.7.63.09 1.24.08 1.87.03zM413.93 392.82c0-.36-.32-.61-.64-.64-.65-.05-2.34-.45-2.73.35a.53.53 0 0 0 .33.76 10.8 10.8 0 0 0 1.72.12 82.66 82.66 0 0 0-.18 9.83c-.57.08-1.14.14-1.71.2-.87.09-.88 1.47 0 1.38s1.62-.21 2.42-.28a.71.71 0 0 0 .7-.69c.16-3.65-.27-7.37.09-11.03zM399.3 398.29c-.94.09-1.93-.17-2.86 0a.51.51 0 0 0-.12.92 8.07 8.07 0 0 0 3 .31c.78.02.76-1.3-.02-1.23zM407 401.67a38.48 38.48 0 0 1-3.88.25 36.41 36.41 0 0 0 2.51-3.06c.68-1 1.63-2.34 1.32-3.61-.58-2.41-4.21-1.7-5.59-.53-.52.44.14 1.18.69.9a3.79 3.79 0 0 1 2.74-.62c1.41.47.58 1.84 0 2.71a36.51 36.51 0 0 1-3.63 4.41.67.67 0 0 0 .47 1.13c1.79 0 3.56-.07 5.35-.15.94-.04.9-1.54.02-1.43zM395.24 376.77a.49.49 0 0 0 0-1 22.84 22.84 0 0 0-2.34 0 .52.52 0 0 0-.5.5c-.22 3.62-.68 7.58-.27 11.19a.63.63 0 0 0 .45.59 8.7 8.7 0 0 0 2.5.08c.83 0 .82-1.34 0-1.28-.26 0-1.65 0-1.78.32v-.73-3c0-2.23-.06-4.47.07-6.69.63.08 1.24.08 1.87.02zM413.59 376.31a.61.61 0 0 0-.59-.6 16.74 16.74 0 0 0-2.35.11c-.86.14-.51 1.54.37 1.33.48-.07 1-.13 1.43-.18.13 1.94.21 3.88.15 5.83a26.57 26.57 0 0 0-.08 4.18l-1.55-.1c-.62-.05-.75.95-.14 1.09a6.08 6.08 0 0 0 2.44.07.53.53 0 0 0 .37-.64c-.38-1.75 0-3.7.05-5.47s.02-3.74-.1-5.62zM404.4 380.92a5.08 5.08 0 0 0-3.1.13c0-.94.06-1.87 0-2.8a36.91 36.91 0 0 0 4.07.05c.56-.05.78-.93.14-1.05a23.21 23.21 0 0 0-4.79-.16.57.57 0 0 0-.57.57 17.86 17.86 0 0 1-.18 4 .66.66 0 0 0 1 .69 11.23 11.23 0 0 1 1.95-.4c1 0 2.14.29 2.17 1.51a2 2 0 0 1-2 2.13 2.6 2.6 0 0 1-2.36-1c-.55-.61-1.46.3-.9.9a3.87 3.87 0 0 0 3.95 1.31 3.23 3.23 0 0 0 2.61-3 2.59 2.59 0 0 0-1.99-2.88zM439.71 393.2a.49.49 0 0 0 0-1 20.31 20.31 0 0 0-2.34 0 .52.52 0 0 0-.5.5c-.22 3.62-.68 7.58-.27 11.19a.65.65 0 0 0 .44.59 8.79 8.79 0 0 0 2.51.08c.83 0 .81-1.35 0-1.28-.26 0-1.65 0-1.78.32v-3.73c0-2.23-.06-4.47.07-6.69.63.08 1.24.08 1.87.02zM444.27 398.21c-.94.09-1.94-.16-2.86 0a.5.5 0 0 0-.12.91 7.86 7.86 0 0 0 3 .31c.78.03.76-1.29-.02-1.22zM458.59 392.28a.6.6 0 0 0-.59-.59 16.74 16.74 0 0 0-2.35.1c-.85.14-.51 1.54.37 1.33l1.43-.18c.13 1.94.21 3.89.15 5.83a26.7 26.7 0 0 0-.08 4.19c-.52 0-1-.06-1.55-.11s-.75 1-.14 1.09a6.31 6.31 0 0 0 2.45.08.54.54 0 0 0 .36-.64c-.38-1.75 0-3.7.05-5.47s.02-3.75-.1-5.63zM450.4 394.86a.56.56 0 0 0-.95-.39c-.69.68-1.45 1.27-2.14 1.94a.51.51 0 0 0 .61.8 6.37 6.37 0 0 0 1.24-.86 39.44 39.44 0 0 0 0 6.61c.08.83 1.36.85 1.31 0a70.61 70.61 0 0 1-.07-8.1zM439.74 375.47c-.81.09-1.61.21-2.42.27a.72.72 0 0 0-.7.7c-.2 3.66.26 7.39-.1 11 0 .37.33.62.64.64.65.05 2.34.45 2.73-.34a.53.53 0 0 0-.33-.77 10.8 10.8 0 0 0-1.72-.13A80.57 80.57 0 0 0 438 377l1.71-.19c.9-.05.91-1.43.03-1.34zM458.34 376.15a.63.63 0 0 0-.62-.63c-.85 0-1.69.07-2.52.18-.65.09-.44 1 .14 1.07a16.48 16.48 0 0 0 1.72 0c-.15 3.33-.19 6.65-.12 10l-1.68.13c-.85.07-.85 1.41 0 1.33l2.35-.21a.66.66 0 0 0 .65-.65c-.13-3.74-.09-7.48.08-11.22zM445.36 382.1c.07-2.43 1.71-4.9 4.3-3.25.53.34 1.19-.47.69-.89-2.25-1.91-5.18-.21-5.87 2.37-.59 2.27-.18 6.46 2.88 6.62a3.66 3.66 0 0 0 3.24-5c-1.14-2.33-3.71-1.26-5.24.15zm.63 2.52a3.31 3.31 0 0 1-.44-1c.8-1 3.38-3.06 3.95-.71.5 2.09-2.23 3.56-3.5 1.71z" fill="#1e1e1e"/></svg>