<svg xmlns="http://www.w3.org/2000/svg" viewBox="0 0 375 255"><path d="M369.36 37.91c.12-4.71 18.11-22.11-100.86-12.7C206.87 14.77 83.71 32.11 46 24 35.21 18.71-1.93 18.91 5.63 53c-4.2 29.57 1.94 53.89.24 118.75 8 32.94-7.8 37.86 2 58.81 19.73 1.86 38.72-1.49 58.46.17s164.07 9.93 244.61.78c59.6 10.18 51.44-1.53 58-16.09 6.06-43.08-7.6-46.18.42-177.51z" fill="#c9c9c9"/><path d="M127.61 22.29c-1.55 22.51-1.16 106-1.13 125 0 24.3.77 81.72.83 84.73a1.28 1.28 0 0 0 2.56 0c-1-44.67.69-184.59-.31-209.7a1 1 0 0 0-2 0z" fill="#1e1e1e"/><path d="M365.38 125.75c-53.1-1.52-345.47 1.33-356.74 1.44a1.26 1.26 0 0 0 0 2.51c32-.31 216.83-1.77 277.28-1.93 26.49-.08 53 .12 79.46-.1a1 1 0 0 0 0-1.92z" fill="#1e1e1e"/><path d="M369.67 213.23c.07-5.35-.32-165.82-.33-172.13 0-6.78 2.15-17.49-6.86-18.8-10.7-1.55-22-1-32.81-1-17.22 0-300 .05-303.45.1-6.44.1-16.62-.87-18.22 7.41a.74.74 0 0 0 0 .26c-1.1 12.15-.22 24.8-.28 37-.12 24.85-.58 144.76-.57 148.55 0 4.46-.67 10.12 1.34 14.26 1 2 2.26 2.52 4.37 3a69.81 69.81 0 0 0 15.84 1.77c28.12.31 290.39-.46 318.11-1.14 6.56-.16 19.77 1.91 22.05-6.53 1.07-3.88.75-8.66.81-12.75zm-2.25 1c-.21 7 .06 14.93-8.89 15.69-5.68.49-22.71.48-25.45.49l-301.65 1A87.38 87.38 0 0 1 14.88 230c-5.55-1-5.41-5.77-5.52-10.54v-5.89c-.08-14.35-.13-130.91 0-174.83 0-3.14-.19-6.39.07-9.53 1.86-9 19.49-6 26.29-5.95l305.82.15c5.91 0 20.88.71 22.11 1.2 3.91 1.55 3.8 6.43 3.7 9.91 0 1.5.74 140.12.06 178.88 0 .29.02.6.01.86z" fill="#1e1e1e"/><path d="M246.65 24.19c-1 11.74-.29 23.76-.28 35.55 0 10.65-.89 164-.88 166.74 0 .73.11 3.54.12 3 0 2.75 4.22 2.75 4.26 0a22.52 22.52 0 0 0 .2-2.34c.1-2.21.47-151.17.42-162.81-.07-13.3.67-26.91-.59-40.15a1.63 1.63 0 0 0-3.25 0z" fill="#ffdb00"/></svg>