<svg xmlns="http://www.w3.org/2000/svg" viewBox="0 0 375 255"><path d="M369.36 38.61c.12-4.71 18.11-22.1-100.86-12.7C206.87 15.47 83.71 32.81 46 24.7c-10.81-5.29-47.95-5.09-40.39 29-4.2 29.57 1.94 53.89.24 118.75 8 32.94-7.8 37.86 2 58.81 19.73 1.86 38.72-1.49 58.46.17s164.07 9.93 244.61.79c59.6 10.17 51.44-1.54 58-16.1 6.08-43.12-7.58-46.18.44-177.51z" fill="#c9c9c9"/><path d="M251.09 107.27c-11.1-57.88 15.55-88.49-11-85.64-22.83 12-82.77 1.83-99.7 1.91-7 0-24.22 6.63-12.33 27.1 4.8 48.6-13.47 77.13 2.88 79.25 19.12.34 94.65.77 99.21.85 21.06 2.06 22.74-16.31 20.94-23.47z" fill="#ffdb00"/><path d="M127.61 23c-1.55 22.51-1.16 106-1.13 125 0 24.3.77 81.72.83 84.73a1.28 1.28 0 0 0 2.56 0c-1-44.67.69-184.59-.31-209.7a1 1 0 0 0-2 0z" fill="#1e1e1e"/><path d="M365.38 126.45c-53.1-1.52-345.47 1.33-356.74 1.44a1.26 1.26 0 0 0 0 2.52c32-.32 216.83-1.78 277.28-1.94 26.49-.07 53 .12 79.46-.09a1 1 0 0 0 0-1.93z" fill="#1e1e1e"/><path d="M369.67 213.93c.07-5.35-.32-165.82-.33-172.12 0-6.79 2.15-17.5-6.86-18.81-10.7-1.55-22-1-32.81-1-17.22 0-300 0-303.45.1-6.44.1-16.62-.87-18.22 7.41a.74.74 0 0 0 0 .26c-1.1 12.16-.22 24.8-.28 37-.12 24.85-.58 144.76-.57 148.56 0 4.45-.67 10.11 1.34 14.25 1 2 2.26 2.52 4.37 3.05a70.39 70.39 0 0 0 15.84 1.78c28.12.3 290.39-.47 318.11-1.14 6.56-.16 19.77 1.9 22.05-6.54 1.07-3.93.75-8.73.81-12.8zm-2.25 1c-.21 7 .06 14.93-8.89 15.69-5.68.49-22.71.48-25.45.49l-301.65 1a87.38 87.38 0 0 1-16.55-1.4c-5.55-1-5.41-5.77-5.52-10.54v-5.89C9.25 200 9.2 83.4 9.35 39.48c0-3.14-.19-6.39.07-9.53 1.86-9 19.49-6 26.29-5.95l305.82.15c5.91 0 20.88.71 22.11 1.2 3.91 1.55 3.8 6.43 3.7 9.91 0 1.5.74 140.12.06 178.88.01.25.03.53.02.86z" fill="#1e1e1e"/><path d="M247.3 25.5c-1.1 22.4-.1 45.07-.11 67.51 0 18.66-.69 135-.73 137.79a1.28 1.28 0 0 0 2.56 0c.62-42.39 1.7-180.42.23-205.3a1 1 0 0 0-1.95 0z" fill="#1e1e1e"/></svg>