<svg xmlns="http://www.w3.org/2000/svg" viewBox="0 0 375 255"><path d="M369.36 37.58c.12-4.71 18.11-22.1-100.86-12.69C206.87 14.45 83.71 31.78 46 23.67c-10.81-5.29-47.95-5.09-40.39 29-4.2 29.56 1.94 53.89.24 118.75 8 32.94-7.8 37.85 2 58.8 19.73 1.87 38.72-1.48 58.46.18s164.07 9.92 244.61.78c59.6 10.18 51.44-1.54 58-16.1 6.08-43.08-7.58-46.17.44-177.5z" fill="#c9c9c9"/><path d="M249.48 212.19c3.49-8.58-.56-169.13-.48-169.67 3.34-4 3.67-23.49-2.55-21.62-17.37 5.22-227.89-.5-230.82 1.38C10.44 25.61 1.14 34.16 7 46.56c-4.84 8-2.71 17.83-.44 27 1.27 5.17-3.09 84.37 0 103.85 7.59 28.74-17.47 54.1 12.52 57 74.45-2.43 162.08 4.91 163.74-1.83 11 4.06 44.65-.23 56.19 2.26 11.05 2.42 11.56-17.28 10.47-22.65z" fill="#ffdb00"/><path d="M127.61 22c-1.55 22.51-1.16 106-1.13 125 0 24.3.77 81.73.83 84.74a1.28 1.28 0 0 0 2.56 0c-1-44.67.69-184.6-.31-209.7a1 1 0 0 0-2 0z" fill="#1e1e1e"/><path d="M365.38 125.43c-53.1-1.52-345.47 1.32-356.74 1.44a1.26 1.26 0 0 0 0 2.51c32-.32 216.83-1.78 277.28-1.94 26.49-.07 53 .13 79.46-.09a1 1 0 0 0 0-1.92z" fill="#1e1e1e"/><path d="M369.67 212.91c.07-5.36-.32-165.83-.33-172.13 0-6.78 2.15-17.49-6.86-18.8-10.7-1.56-22-1-32.81-1-17.22 0-300 0-303.45.09-6.44.1-16.62-.87-18.21 7.41a.76.76 0 0 0 0 .26c-1.1 12.15-.22 24.8-.28 37-.12 24.85-.58 144.76-.57 148.55 0 4.46-.67 10.12 1.34 14.26 1 2 2.26 2.52 4.37 3a70.39 70.39 0 0 0 15.84 1.78c28.12.31 290.39-.46 318.11-1.14 6.56-.16 19.77 1.91 22.05-6.53 1.06-3.88.74-8.66.8-12.75zm-2.25 1c-.21 7 .06 14.93-8.89 15.7-5.68.49-22.71.48-25.45.49l-301.65 1a86.58 86.58 0 0 1-16.55-1.41c-5.55-1-5.41-5.76-5.52-10.53v-5.9c-.08-14.35-.13-130.9 0-174.83 0-3.14-.19-6.38.07-9.52v-.05c1.86-9 19.49-6 26.29-5.95l305.82.15c5.91 0 20.88.72 22.11 1.2 3.91 1.55 3.8 6.43 3.7 9.92 0 1.49.74 140.12.06 178.87 0 .31.02.6.01.88z" fill="#1e1e1e"/><path d="M247.3 24.47c-1.1 22.4-.1 45.08-.11 67.51 0 18.66-.69 135-.73 137.8a1.28 1.28 0 0 0 2.56 0c.62-42.4 1.7-180.43.23-205.31a1 1 0 0 0-1.95 0z" fill="#1e1e1e"/></svg>